G04 #@! TF.GenerationSoftware,KiCad,Pcbnew,(5.1.4)-1*
G04 #@! TF.CreationDate,2020-03-06T18:24:47-05:00*
G04 #@! TF.ProjectId,Feather-NEO-M9N-GPS,46656174-6865-4722-9d4e-454f2d4d394e,rev?*
G04 #@! TF.SameCoordinates,Original*
G04 #@! TF.FileFunction,Legend,Bot*
G04 #@! TF.FilePolarity,Positive*
%FSLAX46Y46*%
G04 Gerber Fmt 4.6, Leading zero omitted, Abs format (unit mm)*
G04 Created by KiCad (PCBNEW (5.1.4)-1) date 2020-03-06 18:24:47*
%MOMM*%
%LPD*%
G04 APERTURE LIST*
%ADD10C,0.150000*%
%ADD11C,0.120000*%
%ADD12C,0.203200*%
G04 APERTURE END LIST*
D10*
X165569923Y-78116180D02*
X165760400Y-78116180D01*
X165855638Y-78163800D01*
X165903257Y-78211419D01*
X165998495Y-78354276D01*
X166046114Y-78544752D01*
X166046114Y-78925704D01*
X165998495Y-79020942D01*
X165950876Y-79068561D01*
X165855638Y-79116180D01*
X165665161Y-79116180D01*
X165569923Y-79068561D01*
X165522304Y-79020942D01*
X165474685Y-78925704D01*
X165474685Y-78687609D01*
X165522304Y-78592371D01*
X165569923Y-78544752D01*
X165665161Y-78497133D01*
X165855638Y-78497133D01*
X165950876Y-78544752D01*
X165998495Y-78592371D01*
X166046114Y-78687609D01*
X159969176Y-79116180D02*
X159778700Y-79116180D01*
X159683461Y-79068561D01*
X159635842Y-79020942D01*
X159540604Y-78878085D01*
X159492985Y-78687609D01*
X159492985Y-78306657D01*
X159540604Y-78211419D01*
X159588223Y-78163800D01*
X159683461Y-78116180D01*
X159873938Y-78116180D01*
X159969176Y-78163800D01*
X160016795Y-78211419D01*
X160064414Y-78306657D01*
X160064414Y-78544752D01*
X160016795Y-78639990D01*
X159969176Y-78687609D01*
X159873938Y-78735228D01*
X159683461Y-78735228D01*
X159588223Y-78687609D01*
X159540604Y-78639990D01*
X159492985Y-78544752D01*
X140538176Y-83116680D02*
X141109604Y-83116680D01*
X140823890Y-83116680D02*
X140823890Y-82116680D01*
X140919128Y-82259538D01*
X141014366Y-82354776D01*
X141109604Y-82402395D01*
X139919128Y-82116680D02*
X139823890Y-82116680D01*
X139728652Y-82164300D01*
X139681033Y-82211919D01*
X139633414Y-82307157D01*
X139585795Y-82497633D01*
X139585795Y-82735728D01*
X139633414Y-82926204D01*
X139681033Y-83021442D01*
X139728652Y-83069061D01*
X139823890Y-83116680D01*
X139919128Y-83116680D01*
X140014366Y-83069061D01*
X140061985Y-83021442D01*
X140109604Y-82926204D01*
X140157223Y-82735728D01*
X140157223Y-82497633D01*
X140109604Y-82307157D01*
X140061985Y-82211919D01*
X140014366Y-82164300D01*
X139919128Y-82116680D01*
X141296496Y-89635320D02*
X141629829Y-89159130D01*
X141867924Y-89635320D02*
X141867924Y-88635320D01*
X141486972Y-88635320D01*
X141391734Y-88682940D01*
X141344115Y-88730559D01*
X141296496Y-88825797D01*
X141296496Y-88968654D01*
X141344115Y-89063892D01*
X141391734Y-89111511D01*
X141486972Y-89159130D01*
X141867924Y-89159130D01*
X140486972Y-89587701D02*
X140582210Y-89635320D01*
X140772686Y-89635320D01*
X140867924Y-89587701D01*
X140915543Y-89492463D01*
X140915543Y-89111511D01*
X140867924Y-89016273D01*
X140772686Y-88968654D01*
X140582210Y-88968654D01*
X140486972Y-89016273D01*
X140439353Y-89111511D01*
X140439353Y-89206749D01*
X140915543Y-89301987D01*
X140106020Y-88968654D02*
X139867924Y-89635320D01*
X139629829Y-88968654D01*
X139296496Y-88730559D02*
X139248877Y-88682940D01*
X139153639Y-88635320D01*
X138915543Y-88635320D01*
X138820305Y-88682940D01*
X138772686Y-88730559D01*
X138725067Y-88825797D01*
X138725067Y-88921035D01*
X138772686Y-89063892D01*
X139344115Y-89635320D01*
X138725067Y-89635320D01*
X138296496Y-89540082D02*
X138248877Y-89587701D01*
X138296496Y-89635320D01*
X138344115Y-89587701D01*
X138296496Y-89540082D01*
X138296496Y-89635320D01*
X137391734Y-88968654D02*
X137391734Y-89635320D01*
X137629829Y-88587701D02*
X137867924Y-89301987D01*
X137248877Y-89301987D01*
X140915543Y-90999606D02*
X140439353Y-90999606D01*
X141010781Y-91285320D02*
X140677448Y-90285320D01*
X140344115Y-91285320D01*
X139677448Y-90761511D02*
X139534591Y-90809130D01*
X139486972Y-90856749D01*
X139439353Y-90951987D01*
X139439353Y-91094844D01*
X139486972Y-91190082D01*
X139534591Y-91237701D01*
X139629829Y-91285320D01*
X140010781Y-91285320D01*
X140010781Y-90285320D01*
X139677448Y-90285320D01*
X139582210Y-90332940D01*
X139534591Y-90380559D01*
X139486972Y-90475797D01*
X139486972Y-90571035D01*
X139534591Y-90666273D01*
X139582210Y-90713892D01*
X139677448Y-90761511D01*
X140010781Y-90761511D01*
X139106020Y-90285320D02*
X138867924Y-91285320D01*
X138677448Y-90571035D01*
X138486972Y-91285320D01*
X138248877Y-90285320D01*
X142415543Y-91935320D02*
X141796496Y-91935320D01*
X142129829Y-92316273D01*
X141986972Y-92316273D01*
X141891734Y-92363892D01*
X141844115Y-92411511D01*
X141796496Y-92506749D01*
X141796496Y-92744844D01*
X141844115Y-92840082D01*
X141891734Y-92887701D01*
X141986972Y-92935320D01*
X142272686Y-92935320D01*
X142367924Y-92887701D01*
X142415543Y-92840082D01*
X140653639Y-91887701D02*
X141510781Y-93173416D01*
X139891734Y-91935320D02*
X140082210Y-91935320D01*
X140177448Y-91982940D01*
X140225067Y-92030559D01*
X140320305Y-92173416D01*
X140367924Y-92363892D01*
X140367924Y-92744844D01*
X140320305Y-92840082D01*
X140272686Y-92887701D01*
X140177448Y-92935320D01*
X139986972Y-92935320D01*
X139891734Y-92887701D01*
X139844115Y-92840082D01*
X139796496Y-92744844D01*
X139796496Y-92506749D01*
X139844115Y-92411511D01*
X139891734Y-92363892D01*
X139986972Y-92316273D01*
X140177448Y-92316273D01*
X140272686Y-92363892D01*
X140320305Y-92411511D01*
X140367924Y-92506749D01*
X138653639Y-91887701D02*
X139510781Y-93173416D01*
X138367924Y-92030559D02*
X138320305Y-91982940D01*
X138225067Y-91935320D01*
X137986972Y-91935320D01*
X137891734Y-91982940D01*
X137844115Y-92030559D01*
X137796496Y-92125797D01*
X137796496Y-92221035D01*
X137844115Y-92363892D01*
X138415543Y-92935320D01*
X137796496Y-92935320D01*
X137177448Y-91935320D02*
X137082210Y-91935320D01*
X136986972Y-91982940D01*
X136939353Y-92030559D01*
X136891734Y-92125797D01*
X136844115Y-92316273D01*
X136844115Y-92554368D01*
X136891734Y-92744844D01*
X136939353Y-92840082D01*
X136986972Y-92887701D01*
X137082210Y-92935320D01*
X137177448Y-92935320D01*
X137272686Y-92887701D01*
X137320305Y-92840082D01*
X137367924Y-92744844D01*
X137415543Y-92554368D01*
X137415543Y-92316273D01*
X137367924Y-92125797D01*
X137320305Y-92030559D01*
X137272686Y-91982940D01*
X137177448Y-91935320D01*
X158824133Y-82260514D02*
X158824133Y-82927180D01*
X159252704Y-82260514D02*
X159252704Y-82784323D01*
X159205085Y-82879561D01*
X159109847Y-82927180D01*
X158966990Y-82927180D01*
X158871752Y-82879561D01*
X158824133Y-82831942D01*
X158347942Y-82546228D02*
X157586038Y-82546228D01*
X157109847Y-82927180D02*
X157109847Y-81927180D01*
X157109847Y-82308133D02*
X157014609Y-82260514D01*
X156824133Y-82260514D01*
X156728895Y-82308133D01*
X156681276Y-82355752D01*
X156633657Y-82450990D01*
X156633657Y-82736704D01*
X156681276Y-82831942D01*
X156728895Y-82879561D01*
X156824133Y-82927180D01*
X157014609Y-82927180D01*
X157109847Y-82879561D01*
X156062228Y-82927180D02*
X156157466Y-82879561D01*
X156205085Y-82784323D01*
X156205085Y-81927180D01*
X155538419Y-82927180D02*
X155633657Y-82879561D01*
X155681276Y-82831942D01*
X155728895Y-82736704D01*
X155728895Y-82450990D01*
X155681276Y-82355752D01*
X155633657Y-82308133D01*
X155538419Y-82260514D01*
X155395561Y-82260514D01*
X155300323Y-82308133D01*
X155252704Y-82355752D01*
X155205085Y-82450990D01*
X155205085Y-82736704D01*
X155252704Y-82831942D01*
X155300323Y-82879561D01*
X155395561Y-82927180D01*
X155538419Y-82927180D01*
X154871752Y-82927180D02*
X154347942Y-82260514D01*
X154871752Y-82260514D02*
X154347942Y-82927180D01*
X152681276Y-81974800D02*
X152776514Y-81927180D01*
X152919371Y-81927180D01*
X153062228Y-81974800D01*
X153157466Y-82070038D01*
X153205085Y-82165276D01*
X153252704Y-82355752D01*
X153252704Y-82498609D01*
X153205085Y-82689085D01*
X153157466Y-82784323D01*
X153062228Y-82879561D01*
X152919371Y-82927180D01*
X152824133Y-82927180D01*
X152681276Y-82879561D01*
X152633657Y-82831942D01*
X152633657Y-82498609D01*
X152824133Y-82498609D01*
X152205085Y-82927180D02*
X152205085Y-81927180D01*
X151824133Y-81927180D01*
X151728895Y-81974800D01*
X151681276Y-82022419D01*
X151633657Y-82117657D01*
X151633657Y-82260514D01*
X151681276Y-82355752D01*
X151728895Y-82403371D01*
X151824133Y-82450990D01*
X152205085Y-82450990D01*
X151252704Y-82879561D02*
X151109847Y-82927180D01*
X150871752Y-82927180D01*
X150776514Y-82879561D01*
X150728895Y-82831942D01*
X150681276Y-82736704D01*
X150681276Y-82641466D01*
X150728895Y-82546228D01*
X150776514Y-82498609D01*
X150871752Y-82450990D01*
X151062228Y-82403371D01*
X151157466Y-82355752D01*
X151205085Y-82308133D01*
X151252704Y-82212895D01*
X151252704Y-82117657D01*
X151205085Y-82022419D01*
X151157466Y-81974800D01*
X151062228Y-81927180D01*
X150824133Y-81927180D01*
X150681276Y-81974800D01*
X158443180Y-84577180D02*
X158443180Y-83577180D01*
X157871752Y-84577180D01*
X157871752Y-83577180D01*
X157395561Y-84053371D02*
X157062228Y-84053371D01*
X156919371Y-84577180D02*
X157395561Y-84577180D01*
X157395561Y-83577180D01*
X156919371Y-83577180D01*
X156300323Y-83577180D02*
X156109847Y-83577180D01*
X156014609Y-83624800D01*
X155919371Y-83720038D01*
X155871752Y-83910514D01*
X155871752Y-84243847D01*
X155919371Y-84434323D01*
X156014609Y-84529561D01*
X156109847Y-84577180D01*
X156300323Y-84577180D01*
X156395561Y-84529561D01*
X156490800Y-84434323D01*
X156538419Y-84243847D01*
X156538419Y-83910514D01*
X156490800Y-83720038D01*
X156395561Y-83624800D01*
X156300323Y-83577180D01*
X155443180Y-84196228D02*
X154681276Y-84196228D01*
X154205085Y-84577180D02*
X154205085Y-83577180D01*
X153871752Y-84291466D01*
X153538419Y-83577180D01*
X153538419Y-84577180D01*
X153014609Y-84577180D02*
X152824133Y-84577180D01*
X152728895Y-84529561D01*
X152681276Y-84481942D01*
X152586038Y-84339085D01*
X152538419Y-84148609D01*
X152538419Y-83767657D01*
X152586038Y-83672419D01*
X152633657Y-83624800D01*
X152728895Y-83577180D01*
X152919371Y-83577180D01*
X153014609Y-83624800D01*
X153062228Y-83672419D01*
X153109847Y-83767657D01*
X153109847Y-84005752D01*
X153062228Y-84100990D01*
X153014609Y-84148609D01*
X152919371Y-84196228D01*
X152728895Y-84196228D01*
X152633657Y-84148609D01*
X152586038Y-84100990D01*
X152538419Y-84005752D01*
X152109847Y-84577180D02*
X152109847Y-83577180D01*
X151538419Y-84577180D01*
X151538419Y-83577180D01*
X158871752Y-85703371D02*
X159205085Y-85703371D01*
X159205085Y-86227180D02*
X159205085Y-85227180D01*
X158728895Y-85227180D01*
X157966990Y-86179561D02*
X158062228Y-86227180D01*
X158252704Y-86227180D01*
X158347942Y-86179561D01*
X158395561Y-86084323D01*
X158395561Y-85703371D01*
X158347942Y-85608133D01*
X158252704Y-85560514D01*
X158062228Y-85560514D01*
X157966990Y-85608133D01*
X157919371Y-85703371D01*
X157919371Y-85798609D01*
X158395561Y-85893847D01*
X157062228Y-86227180D02*
X157062228Y-85703371D01*
X157109847Y-85608133D01*
X157205085Y-85560514D01*
X157395561Y-85560514D01*
X157490800Y-85608133D01*
X157062228Y-86179561D02*
X157157466Y-86227180D01*
X157395561Y-86227180D01*
X157490800Y-86179561D01*
X157538419Y-86084323D01*
X157538419Y-85989085D01*
X157490800Y-85893847D01*
X157395561Y-85846228D01*
X157157466Y-85846228D01*
X157062228Y-85798609D01*
X156728895Y-85560514D02*
X156347942Y-85560514D01*
X156586038Y-85227180D02*
X156586038Y-86084323D01*
X156538419Y-86179561D01*
X156443180Y-86227180D01*
X156347942Y-86227180D01*
X156014609Y-86227180D02*
X156014609Y-85227180D01*
X155586038Y-86227180D02*
X155586038Y-85703371D01*
X155633657Y-85608133D01*
X155728895Y-85560514D01*
X155871752Y-85560514D01*
X155966990Y-85608133D01*
X156014609Y-85655752D01*
X154728895Y-86179561D02*
X154824133Y-86227180D01*
X155014609Y-86227180D01*
X155109847Y-86179561D01*
X155157466Y-86084323D01*
X155157466Y-85703371D01*
X155109847Y-85608133D01*
X155014609Y-85560514D01*
X154824133Y-85560514D01*
X154728895Y-85608133D01*
X154681276Y-85703371D01*
X154681276Y-85798609D01*
X155157466Y-85893847D01*
X154252704Y-86227180D02*
X154252704Y-85560514D01*
X154252704Y-85750990D02*
X154205085Y-85655752D01*
X154157466Y-85608133D01*
X154062228Y-85560514D01*
X153966990Y-85560514D01*
X153728895Y-85560514D02*
X153538419Y-86227180D01*
X153347942Y-85750990D01*
X153157466Y-86227180D01*
X152966990Y-85560514D01*
X152586038Y-86227180D02*
X152586038Y-85560514D01*
X152586038Y-85227180D02*
X152633657Y-85274800D01*
X152586038Y-85322419D01*
X152538419Y-85274800D01*
X152586038Y-85227180D01*
X152586038Y-85322419D01*
X152109847Y-85560514D02*
X152109847Y-86227180D01*
X152109847Y-85655752D02*
X152062228Y-85608133D01*
X151966990Y-85560514D01*
X151824133Y-85560514D01*
X151728895Y-85608133D01*
X151681276Y-85703371D01*
X151681276Y-86227180D01*
X150776514Y-85560514D02*
X150776514Y-86370038D01*
X150824133Y-86465276D01*
X150871752Y-86512895D01*
X150966990Y-86560514D01*
X151109847Y-86560514D01*
X151205085Y-86512895D01*
X150776514Y-86179561D02*
X150871752Y-86227180D01*
X151062228Y-86227180D01*
X151157466Y-86179561D01*
X151205085Y-86131942D01*
X151252704Y-86036704D01*
X151252704Y-85750990D01*
X151205085Y-85655752D01*
X151157466Y-85608133D01*
X151062228Y-85560514D01*
X150871752Y-85560514D01*
X150776514Y-85608133D01*
X172290881Y-77186540D02*
X172195643Y-77186540D01*
X172100405Y-77234160D01*
X172052786Y-77281779D01*
X172005167Y-77377017D01*
X171957548Y-77567493D01*
X171957548Y-77805588D01*
X172005167Y-77996064D01*
X172052786Y-78091302D01*
X172100405Y-78138921D01*
X172195643Y-78186540D01*
X172290881Y-78186540D01*
X172386120Y-78138921D01*
X172433739Y-78091302D01*
X172481358Y-77996064D01*
X172528977Y-77805588D01*
X172528977Y-77567493D01*
X172481358Y-77377017D01*
X172433739Y-77281779D01*
X172386120Y-77234160D01*
X172290881Y-77186540D01*
X171624215Y-78186540D02*
X171100405Y-77519874D01*
X171624215Y-77519874D02*
X171100405Y-78186540D01*
X170290881Y-77519874D02*
X170290881Y-78186540D01*
X170528977Y-77138921D02*
X170767072Y-77853207D01*
X170148024Y-77853207D01*
X169814691Y-77281779D02*
X169767072Y-77234160D01*
X169671834Y-77186540D01*
X169433739Y-77186540D01*
X169338500Y-77234160D01*
X169290881Y-77281779D01*
X169243262Y-77377017D01*
X169243262Y-77472255D01*
X169290881Y-77615112D01*
X169862310Y-78186540D01*
X169243262Y-78186540D01*
X140309576Y-80856080D02*
X140881004Y-80856080D01*
X140595290Y-80856080D02*
X140595290Y-79856080D01*
X140690528Y-79998938D01*
X140785766Y-80094176D01*
X140881004Y-80141795D01*
X139357195Y-80856080D02*
X139928623Y-80856080D01*
X139642909Y-80856080D02*
X139642909Y-79856080D01*
X139738147Y-79998938D01*
X139833385Y-80094176D01*
X139928623Y-80141795D01*
X140411176Y-78722480D02*
X140982604Y-78722480D01*
X140696890Y-78722480D02*
X140696890Y-77722480D01*
X140792128Y-77865338D01*
X140887366Y-77960576D01*
X140982604Y-78008195D01*
X140030223Y-77817719D02*
X139982604Y-77770100D01*
X139887366Y-77722480D01*
X139649271Y-77722480D01*
X139554033Y-77770100D01*
X139506414Y-77817719D01*
X139458795Y-77912957D01*
X139458795Y-78008195D01*
X139506414Y-78151052D01*
X140077842Y-78722480D01*
X139458795Y-78722480D01*
X140207976Y-76525380D02*
X140779404Y-76525380D01*
X140493690Y-76525380D02*
X140493690Y-75525380D01*
X140588928Y-75668238D01*
X140684166Y-75763476D01*
X140779404Y-75811095D01*
X139874642Y-75525380D02*
X139255595Y-75525380D01*
X139588928Y-75906333D01*
X139446071Y-75906333D01*
X139350833Y-75953952D01*
X139303214Y-76001571D01*
X139255595Y-76096809D01*
X139255595Y-76334904D01*
X139303214Y-76430142D01*
X139350833Y-76477761D01*
X139446071Y-76525380D01*
X139731785Y-76525380D01*
X139827023Y-76477761D01*
X139874642Y-76430142D01*
D11*
X163157660Y-77775840D02*
X163157660Y-79175840D01*
X163857660Y-79875840D02*
X164457660Y-79875840D01*
X165157660Y-79175840D02*
X165157660Y-77775840D01*
X164457660Y-77075840D02*
X163857660Y-77075840D01*
X163857660Y-77075840D02*
G75*
G03X163157660Y-77775840I0J-700000D01*
G01*
X165157660Y-77775840D02*
G75*
G03X164457660Y-77075840I-700000J0D01*
G01*
X164457660Y-79875840D02*
G75*
G03X165157660Y-79175840I0J700000D01*
G01*
X163157660Y-79175840D02*
G75*
G03X163857660Y-79875840I700000J0D01*
G01*
X164260300Y-87982300D02*
X165660300Y-87982300D01*
X166360300Y-87282300D02*
X166360300Y-86682300D01*
X165660300Y-85982300D02*
X164260300Y-85982300D01*
X163560300Y-86682300D02*
X163560300Y-87282300D01*
X163560300Y-87282300D02*
G75*
G03X164260300Y-87982300I700000J0D01*
G01*
X164260300Y-85982300D02*
G75*
G03X163560300Y-86682300I0J-700000D01*
G01*
X166360300Y-86682300D02*
G75*
G03X165660300Y-85982300I-700000J0D01*
G01*
X165660300Y-87982300D02*
G75*
G03X166360300Y-87282300I0J700000D01*
G01*
X160571940Y-77775840D02*
X160571940Y-79175840D01*
X161271940Y-79875840D02*
X161871940Y-79875840D01*
X162571940Y-79175840D02*
X162571940Y-77775840D01*
X161871940Y-77075840D02*
X161271940Y-77075840D01*
X161271940Y-77075840D02*
G75*
G03X160571940Y-77775840I0J-700000D01*
G01*
X162571940Y-77775840D02*
G75*
G03X161871940Y-77075840I-700000J0D01*
G01*
X161871940Y-79875840D02*
G75*
G03X162571940Y-79175840I0J700000D01*
G01*
X160571940Y-79175840D02*
G75*
G03X161271940Y-79875840I700000J0D01*
G01*
X142395700Y-78878200D02*
X142395700Y-80278200D01*
X143095700Y-80978200D02*
X143695700Y-80978200D01*
X144395700Y-80278200D02*
X144395700Y-78878200D01*
X143695700Y-78178200D02*
X143095700Y-78178200D01*
X143095700Y-78178200D02*
G75*
G03X142395700Y-78878200I0J-700000D01*
G01*
X144395700Y-78878200D02*
G75*
G03X143695700Y-78178200I-700000J0D01*
G01*
X143695700Y-80978200D02*
G75*
G03X144395700Y-80278200I0J700000D01*
G01*
X142395700Y-80278200D02*
G75*
G03X143095700Y-80978200I700000J0D01*
G01*
X168633900Y-88720700D02*
X168633900Y-90120700D01*
X169333900Y-90820700D02*
X169933900Y-90820700D01*
X170633900Y-90120700D02*
X170633900Y-88720700D01*
X169933900Y-88020700D02*
X169333900Y-88020700D01*
X169333900Y-88020700D02*
G75*
G03X168633900Y-88720700I0J-700000D01*
G01*
X170633900Y-88720700D02*
G75*
G03X169933900Y-88020700I-700000J0D01*
G01*
X169933900Y-90820700D02*
G75*
G03X170633900Y-90120700I0J700000D01*
G01*
X168633900Y-90120700D02*
G75*
G03X169333900Y-90820700I700000J0D01*
G01*
X168373300Y-90120700D02*
X168373300Y-88720700D01*
X167673300Y-88020700D02*
X167073300Y-88020700D01*
X166373300Y-88720700D02*
X166373300Y-90120700D01*
X167073300Y-90820700D02*
X167673300Y-90820700D01*
X167673300Y-90820700D02*
G75*
G03X168373300Y-90120700I0J700000D01*
G01*
X166373300Y-90120700D02*
G75*
G03X167073300Y-90820700I700000J0D01*
G01*
X167073300Y-88020700D02*
G75*
G03X166373300Y-88720700I0J-700000D01*
G01*
X168373300Y-88720700D02*
G75*
G03X167673300Y-88020700I-700000J0D01*
G01*
X137082300Y-83626200D02*
X138482300Y-83626200D01*
X139182300Y-82926200D02*
X139182300Y-82326200D01*
X138482300Y-81626200D02*
X137082300Y-81626200D01*
X136382300Y-82326200D02*
X136382300Y-82926200D01*
X136382300Y-82926200D02*
G75*
G03X137082300Y-83626200I700000J0D01*
G01*
X137082300Y-81626200D02*
G75*
G03X136382300Y-82326200I0J-700000D01*
G01*
X139182300Y-82326200D02*
G75*
G03X138482300Y-81626200I-700000J0D01*
G01*
X138482300Y-83626200D02*
G75*
G03X139182300Y-82926200I0J700000D01*
G01*
D12*
X166852600Y-77571600D02*
X166852600Y-80111600D01*
X168427400Y-77114400D02*
X167309800Y-77114400D01*
X168427400Y-80568800D02*
X167309800Y-80568800D01*
X168427400Y-80568800D02*
G75*
G03X168884600Y-80111600I0J457200D01*
G01*
X168884600Y-77571600D02*
G75*
G03X168427400Y-77114400I-457200J0D01*
G01*
X166852600Y-77571600D02*
G75*
G02X167309800Y-77114400I457200J0D01*
G01*
X167309800Y-80568800D02*
G75*
G02X166852600Y-80111600I0J457200D01*
G01*
X168884600Y-80111600D02*
X168884600Y-77571600D01*
D11*
X137016500Y-81454500D02*
X138416500Y-81454500D01*
X139116500Y-80754500D02*
X139116500Y-80154500D01*
X138416500Y-79454500D02*
X137016500Y-79454500D01*
X136316500Y-80154500D02*
X136316500Y-80754500D01*
X136316500Y-80754500D02*
G75*
G03X137016500Y-81454500I700000J0D01*
G01*
X137016500Y-79454500D02*
G75*
G03X136316500Y-80154500I0J-700000D01*
G01*
X139116500Y-80154500D02*
G75*
G03X138416500Y-79454500I-700000J0D01*
G01*
X138416500Y-81454500D02*
G75*
G03X139116500Y-80754500I0J700000D01*
G01*
X137145800Y-79320900D02*
X138545800Y-79320900D01*
X139245800Y-78620900D02*
X139245800Y-78020900D01*
X138545800Y-77320900D02*
X137145800Y-77320900D01*
X136445800Y-78020900D02*
X136445800Y-78620900D01*
X136445800Y-78620900D02*
G75*
G03X137145800Y-79320900I700000J0D01*
G01*
X137145800Y-77320900D02*
G75*
G03X136445800Y-78020900I0J-700000D01*
G01*
X139245800Y-78020900D02*
G75*
G03X138545800Y-77320900I-700000J0D01*
G01*
X138545800Y-79320900D02*
G75*
G03X139245800Y-78620900I0J700000D01*
G01*
X136980700Y-77085700D02*
X138380700Y-77085700D01*
X139080700Y-76385700D02*
X139080700Y-75785700D01*
X138380700Y-75085700D02*
X136980700Y-75085700D01*
X136280700Y-75785700D02*
X136280700Y-76385700D01*
X136280700Y-76385700D02*
G75*
G03X136980700Y-77085700I700000J0D01*
G01*
X136980700Y-75085700D02*
G75*
G03X136280700Y-75785700I0J-700000D01*
G01*
X139080700Y-75785700D02*
G75*
G03X138380700Y-75085700I-700000J0D01*
G01*
X138380700Y-77085700D02*
G75*
G03X139080700Y-76385700I0J700000D01*
G01*
X168835580Y-93994200D02*
X168835580Y-92594200D01*
X168135580Y-91894200D02*
X167535580Y-91894200D01*
X166835580Y-92594200D02*
X166835580Y-93994200D01*
X167535580Y-94694200D02*
X168135580Y-94694200D01*
X168135580Y-94694200D02*
G75*
G03X168835580Y-93994200I0J700000D01*
G01*
X166835580Y-93994200D02*
G75*
G03X167535580Y-94694200I700000J0D01*
G01*
X167535580Y-91894200D02*
G75*
G03X166835580Y-92594200I0J-700000D01*
G01*
X168835580Y-92594200D02*
G75*
G03X168135580Y-91894200I-700000J0D01*
G01*
X169055540Y-92599280D02*
X169055540Y-93999280D01*
X169755540Y-94699280D02*
X170355540Y-94699280D01*
X171055540Y-93999280D02*
X171055540Y-92599280D01*
X170355540Y-91899280D02*
X169755540Y-91899280D01*
X169755540Y-91899280D02*
G75*
G03X169055540Y-92599280I0J-700000D01*
G01*
X171055540Y-92599280D02*
G75*
G03X170355540Y-91899280I-700000J0D01*
G01*
X170355540Y-94699280D02*
G75*
G03X171055540Y-93999280I0J700000D01*
G01*
X169055540Y-93999280D02*
G75*
G03X169755540Y-94699280I700000J0D01*
G01*
X174746160Y-81522800D02*
X174746160Y-80122800D01*
X174046160Y-79422800D02*
X173446160Y-79422800D01*
X172746160Y-80122800D02*
X172746160Y-81522800D01*
X173446160Y-82222800D02*
X174046160Y-82222800D01*
X174046160Y-82222800D02*
G75*
G03X174746160Y-81522800I0J700000D01*
G01*
X172746160Y-81522800D02*
G75*
G03X173446160Y-82222800I700000J0D01*
G01*
X173446160Y-79422800D02*
G75*
G03X172746160Y-80122800I0J-700000D01*
G01*
X174746160Y-80122800D02*
G75*
G03X174046160Y-79422800I-700000J0D01*
G01*
X176895000Y-81522800D02*
X176895000Y-80122800D01*
X176195000Y-79422800D02*
X175595000Y-79422800D01*
X174895000Y-80122800D02*
X174895000Y-81522800D01*
X175595000Y-82222800D02*
X176195000Y-82222800D01*
X176195000Y-82222800D02*
G75*
G03X176895000Y-81522800I0J700000D01*
G01*
X174895000Y-81522800D02*
G75*
G03X175595000Y-82222800I700000J0D01*
G01*
X175595000Y-79422800D02*
G75*
G03X174895000Y-80122800I0J-700000D01*
G01*
X176895000Y-80122800D02*
G75*
G03X176195000Y-79422800I-700000J0D01*
G01*
D10*
X163375814Y-87387061D02*
X163232957Y-87434680D01*
X162994861Y-87434680D01*
X162899623Y-87387061D01*
X162852004Y-87339442D01*
X162804385Y-87244204D01*
X162804385Y-87148966D01*
X162852004Y-87053728D01*
X162899623Y-87006109D01*
X162994861Y-86958490D01*
X163185338Y-86910871D01*
X163280576Y-86863252D01*
X163328195Y-86815633D01*
X163375814Y-86720395D01*
X163375814Y-86625157D01*
X163328195Y-86529919D01*
X163280576Y-86482300D01*
X163185338Y-86434680D01*
X162947242Y-86434680D01*
X162804385Y-86482300D01*
X161804385Y-87339442D02*
X161852004Y-87387061D01*
X161994861Y-87434680D01*
X162090100Y-87434680D01*
X162232957Y-87387061D01*
X162328195Y-87291823D01*
X162375814Y-87196585D01*
X162423433Y-87006109D01*
X162423433Y-86863252D01*
X162375814Y-86672776D01*
X162328195Y-86577538D01*
X162232957Y-86482300D01*
X162090100Y-86434680D01*
X161994861Y-86434680D01*
X161852004Y-86482300D01*
X161804385Y-86529919D01*
X161375814Y-87434680D02*
X161375814Y-86434680D01*
X160804385Y-87434680D02*
X161232957Y-86863252D01*
X160804385Y-86434680D02*
X161375814Y-87006109D01*
X163561590Y-80377700D02*
X162561590Y-80377700D01*
X162752066Y-81649842D02*
X162799685Y-81697461D01*
X162942542Y-81745080D01*
X163037780Y-81745080D01*
X163180638Y-81697461D01*
X163275876Y-81602223D01*
X163323495Y-81506985D01*
X163371114Y-81316509D01*
X163371114Y-81173652D01*
X163323495Y-80983176D01*
X163275876Y-80887938D01*
X163180638Y-80792700D01*
X163037780Y-80745080D01*
X162942542Y-80745080D01*
X162799685Y-80792700D01*
X162752066Y-80840319D01*
X162561590Y-80377700D02*
X161609209Y-80377700D01*
X162371114Y-81697461D02*
X162228257Y-81745080D01*
X161990161Y-81745080D01*
X161894923Y-81697461D01*
X161847304Y-81649842D01*
X161799685Y-81554604D01*
X161799685Y-81459366D01*
X161847304Y-81364128D01*
X161894923Y-81316509D01*
X161990161Y-81268890D01*
X162180638Y-81221271D01*
X162275876Y-81173652D01*
X162323495Y-81126033D01*
X162371114Y-81030795D01*
X162371114Y-80935557D01*
X162323495Y-80840319D01*
X162275876Y-80792700D01*
X162180638Y-80745080D01*
X161942542Y-80745080D01*
X161799685Y-80792700D01*
X146606449Y-80165841D02*
X146463592Y-80213460D01*
X146225497Y-80213460D01*
X146130259Y-80165841D01*
X146082640Y-80118222D01*
X146035020Y-80022984D01*
X146035020Y-79927746D01*
X146082640Y-79832508D01*
X146130259Y-79784889D01*
X146225497Y-79737270D01*
X146415973Y-79689651D01*
X146511211Y-79642032D01*
X146558830Y-79594413D01*
X146606449Y-79499175D01*
X146606449Y-79403937D01*
X146558830Y-79308699D01*
X146511211Y-79261080D01*
X146415973Y-79213460D01*
X146177878Y-79213460D01*
X146035020Y-79261080D01*
X145606449Y-80213460D02*
X145606449Y-79213460D01*
X145225497Y-79213460D01*
X145130259Y-79261080D01*
X145082640Y-79308699D01*
X145035020Y-79403937D01*
X145035020Y-79546794D01*
X145082640Y-79642032D01*
X145130259Y-79689651D01*
X145225497Y-79737270D01*
X145606449Y-79737270D01*
X144606449Y-80213460D02*
X144606449Y-79213460D01*
X174189828Y-89631780D02*
X174189828Y-88631780D01*
X173856495Y-89346066D01*
X173523161Y-88631780D01*
X173523161Y-89631780D01*
X172856495Y-88631780D02*
X172666019Y-88631780D01*
X172570780Y-88679400D01*
X172475542Y-88774638D01*
X172427923Y-88965114D01*
X172427923Y-89298447D01*
X172475542Y-89488923D01*
X172570780Y-89584161D01*
X172666019Y-89631780D01*
X172856495Y-89631780D01*
X172951733Y-89584161D01*
X173046971Y-89488923D01*
X173094590Y-89298447D01*
X173094590Y-88965114D01*
X173046971Y-88774638D01*
X172951733Y-88679400D01*
X172856495Y-88631780D01*
X172046971Y-89584161D02*
X171904114Y-89631780D01*
X171666019Y-89631780D01*
X171570780Y-89584161D01*
X171523161Y-89536542D01*
X171475542Y-89441304D01*
X171475542Y-89346066D01*
X171523161Y-89250828D01*
X171570780Y-89203209D01*
X171666019Y-89155590D01*
X171856495Y-89107971D01*
X171951733Y-89060352D01*
X171999352Y-89012733D01*
X172046971Y-88917495D01*
X172046971Y-88822257D01*
X171999352Y-88727019D01*
X171951733Y-88679400D01*
X171856495Y-88631780D01*
X171618400Y-88631780D01*
X171475542Y-88679400D01*
X171046971Y-89631780D02*
X171046971Y-88631780D01*
X166011028Y-89949280D02*
X166011028Y-88949280D01*
X165677695Y-89663566D01*
X165344361Y-88949280D01*
X165344361Y-89949280D01*
X164868171Y-89949280D02*
X164868171Y-88949280D01*
X164439600Y-89901661D02*
X164296742Y-89949280D01*
X164058647Y-89949280D01*
X163963409Y-89901661D01*
X163915790Y-89854042D01*
X163868171Y-89758804D01*
X163868171Y-89663566D01*
X163915790Y-89568328D01*
X163963409Y-89520709D01*
X164058647Y-89473090D01*
X164249123Y-89425471D01*
X164344361Y-89377852D01*
X164391980Y-89330233D01*
X164439600Y-89234995D01*
X164439600Y-89139757D01*
X164391980Y-89044519D01*
X164344361Y-88996900D01*
X164249123Y-88949280D01*
X164011028Y-88949280D01*
X163868171Y-88996900D01*
X163249123Y-88949280D02*
X163058647Y-88949280D01*
X162963409Y-88996900D01*
X162868171Y-89092138D01*
X162820552Y-89282614D01*
X162820552Y-89615947D01*
X162868171Y-89806423D01*
X162963409Y-89901661D01*
X163058647Y-89949280D01*
X163249123Y-89949280D01*
X163344361Y-89901661D01*
X163439600Y-89806423D01*
X163487219Y-89615947D01*
X163487219Y-89282614D01*
X163439600Y-89092138D01*
X163344361Y-88996900D01*
X163249123Y-88949280D01*
X136234085Y-81939800D02*
X135234085Y-81939800D01*
X135424561Y-83307180D02*
X135757895Y-82830990D01*
X135995990Y-83307180D02*
X135995990Y-82307180D01*
X135615038Y-82307180D01*
X135519800Y-82354800D01*
X135472180Y-82402419D01*
X135424561Y-82497657D01*
X135424561Y-82640514D01*
X135472180Y-82735752D01*
X135519800Y-82783371D01*
X135615038Y-82830990D01*
X135995990Y-82830990D01*
X135234085Y-81939800D02*
X134281704Y-81939800D01*
X135043609Y-83259561D02*
X134900752Y-83307180D01*
X134662657Y-83307180D01*
X134567419Y-83259561D01*
X134519800Y-83211942D01*
X134472180Y-83116704D01*
X134472180Y-83021466D01*
X134519800Y-82926228D01*
X134567419Y-82878609D01*
X134662657Y-82830990D01*
X134853133Y-82783371D01*
X134948371Y-82735752D01*
X134995990Y-82688133D01*
X135043609Y-82592895D01*
X135043609Y-82497657D01*
X134995990Y-82402419D01*
X134948371Y-82354800D01*
X134853133Y-82307180D01*
X134615038Y-82307180D01*
X134472180Y-82354800D01*
X134281704Y-81939800D02*
X133519800Y-81939800D01*
X134186466Y-82307180D02*
X133615038Y-82307180D01*
X133900752Y-83307180D02*
X133900752Y-82307180D01*
X133519800Y-81939800D02*
X132757895Y-81939800D01*
X132757895Y-81939800D02*
X131757895Y-81939800D01*
X131995990Y-82354800D02*
X132091228Y-82307180D01*
X132234085Y-82307180D01*
X132376942Y-82354800D01*
X132472180Y-82450038D01*
X132519800Y-82545276D01*
X132567419Y-82735752D01*
X132567419Y-82878609D01*
X132519800Y-83069085D01*
X132472180Y-83164323D01*
X132376942Y-83259561D01*
X132234085Y-83307180D01*
X132138847Y-83307180D01*
X131995990Y-83259561D01*
X131948371Y-83211942D01*
X131948371Y-82878609D01*
X132138847Y-82878609D01*
X131757895Y-81939800D02*
X130757895Y-81939800D01*
X131519800Y-83307180D02*
X131519800Y-82307180D01*
X131138847Y-82307180D01*
X131043609Y-82354800D01*
X130995990Y-82402419D01*
X130948371Y-82497657D01*
X130948371Y-82640514D01*
X130995990Y-82735752D01*
X131043609Y-82783371D01*
X131138847Y-82830990D01*
X131519800Y-82830990D01*
X130757895Y-81939800D02*
X129805514Y-81939800D01*
X130567419Y-83259561D02*
X130424561Y-83307180D01*
X130186466Y-83307180D01*
X130091228Y-83259561D01*
X130043609Y-83211942D01*
X129995990Y-83116704D01*
X129995990Y-83021466D01*
X130043609Y-82926228D01*
X130091228Y-82878609D01*
X130186466Y-82830990D01*
X130376942Y-82783371D01*
X130472180Y-82735752D01*
X130519800Y-82688133D01*
X130567419Y-82592895D01*
X130567419Y-82497657D01*
X130519800Y-82402419D01*
X130472180Y-82354800D01*
X130376942Y-82307180D01*
X130138847Y-82307180D01*
X129995990Y-82354800D01*
X171283190Y-79834620D02*
X171283190Y-78834620D01*
X170854619Y-78929859D02*
X170807000Y-78882240D01*
X170711761Y-78834620D01*
X170473666Y-78834620D01*
X170378428Y-78882240D01*
X170330809Y-78929859D01*
X170283190Y-79025097D01*
X170283190Y-79120335D01*
X170330809Y-79263192D01*
X170902238Y-79834620D01*
X170283190Y-79834620D01*
X169283190Y-79739382D02*
X169330809Y-79787001D01*
X169473666Y-79834620D01*
X169568904Y-79834620D01*
X169711761Y-79787001D01*
X169807000Y-79691763D01*
X169854619Y-79596525D01*
X169902238Y-79406049D01*
X169902238Y-79263192D01*
X169854619Y-79072716D01*
X169807000Y-78977478D01*
X169711761Y-78882240D01*
X169568904Y-78834620D01*
X169473666Y-78834620D01*
X169330809Y-78882240D01*
X169283190Y-78929859D01*
X136220534Y-79544580D02*
X135268153Y-79544580D01*
X136030058Y-80864341D02*
X135887200Y-80911960D01*
X135649105Y-80911960D01*
X135553867Y-80864341D01*
X135506248Y-80816722D01*
X135458629Y-80721484D01*
X135458629Y-80626246D01*
X135506248Y-80531008D01*
X135553867Y-80483389D01*
X135649105Y-80435770D01*
X135839581Y-80388151D01*
X135934820Y-80340532D01*
X135982439Y-80292913D01*
X136030058Y-80197675D01*
X136030058Y-80102437D01*
X135982439Y-80007199D01*
X135934820Y-79959580D01*
X135839581Y-79911960D01*
X135601486Y-79911960D01*
X135458629Y-79959580D01*
X135268153Y-79544580D02*
X134411010Y-79544580D01*
X135077677Y-80626246D02*
X134601486Y-80626246D01*
X135172915Y-80911960D02*
X134839581Y-79911960D01*
X134506248Y-80911960D01*
X134411010Y-79544580D02*
X133553867Y-79544580D01*
X133839581Y-80388151D02*
X134172915Y-80388151D01*
X134172915Y-80911960D02*
X134172915Y-79911960D01*
X133696724Y-79911960D01*
X133553867Y-79544580D02*
X132649105Y-79544580D01*
X133315772Y-80388151D02*
X132982439Y-80388151D01*
X132839581Y-80911960D02*
X133315772Y-80911960D01*
X133315772Y-79911960D01*
X132839581Y-79911960D01*
X136111739Y-78778360D02*
X136111739Y-77778360D01*
X135730786Y-77778360D01*
X135635548Y-77825980D01*
X135587929Y-77873599D01*
X135540310Y-77968837D01*
X135540310Y-78111694D01*
X135587929Y-78206932D01*
X135635548Y-78254551D01*
X135730786Y-78302170D01*
X136111739Y-78302170D01*
X135111739Y-78778360D02*
X135111739Y-77778360D01*
X134730786Y-77778360D01*
X134635548Y-77825980D01*
X134587929Y-77873599D01*
X134540310Y-77968837D01*
X134540310Y-78111694D01*
X134587929Y-78206932D01*
X134635548Y-78254551D01*
X134730786Y-78302170D01*
X135111739Y-78302170D01*
X134159358Y-78730741D02*
X134016501Y-78778360D01*
X133778405Y-78778360D01*
X133683167Y-78730741D01*
X133635548Y-78683122D01*
X133587929Y-78587884D01*
X133587929Y-78492646D01*
X133635548Y-78397408D01*
X133683167Y-78349789D01*
X133778405Y-78302170D01*
X133968882Y-78254551D01*
X134064120Y-78206932D01*
X134111739Y-78159313D01*
X134159358Y-78064075D01*
X134159358Y-77968837D01*
X134111739Y-77873599D01*
X134064120Y-77825980D01*
X133968882Y-77778360D01*
X133730786Y-77778360D01*
X133587929Y-77825980D01*
X135946639Y-76548240D02*
X135946639Y-75548240D01*
X135470449Y-76548240D02*
X135470449Y-75548240D01*
X134899020Y-76548240D01*
X134899020Y-75548240D01*
X134565687Y-75548240D02*
X133994258Y-75548240D01*
X134279973Y-76548240D02*
X134279973Y-75548240D01*
X165495266Y-94140280D02*
X165828600Y-93664090D01*
X166066695Y-94140280D02*
X166066695Y-93140280D01*
X165685742Y-93140280D01*
X165590504Y-93187900D01*
X165542885Y-93235519D01*
X165495266Y-93330757D01*
X165495266Y-93473614D01*
X165542885Y-93568852D01*
X165590504Y-93616471D01*
X165685742Y-93664090D01*
X166066695Y-93664090D01*
X165161933Y-93140280D02*
X164495266Y-94140280D01*
X164495266Y-93140280D02*
X165161933Y-94140280D01*
X173405704Y-93076780D02*
X172834276Y-93076780D01*
X173119990Y-94076780D02*
X173119990Y-93076780D01*
X172596180Y-93076780D02*
X171929514Y-94076780D01*
X171929514Y-93076780D02*
X172596180Y-94076780D01*
X174443876Y-83335761D02*
X174301019Y-83383380D01*
X174062923Y-83383380D01*
X173967685Y-83335761D01*
X173920066Y-83288142D01*
X173872447Y-83192904D01*
X173872447Y-83097666D01*
X173920066Y-83002428D01*
X173967685Y-82954809D01*
X174062923Y-82907190D01*
X174253400Y-82859571D01*
X174348638Y-82811952D01*
X174396257Y-82764333D01*
X174443876Y-82669095D01*
X174443876Y-82573857D01*
X174396257Y-82478619D01*
X174348638Y-82431000D01*
X174253400Y-82383380D01*
X174015304Y-82383380D01*
X173872447Y-82431000D01*
X172872447Y-83288142D02*
X172920066Y-83335761D01*
X173062923Y-83383380D01*
X173158161Y-83383380D01*
X173301019Y-83335761D01*
X173396257Y-83240523D01*
X173443876Y-83145285D01*
X173491495Y-82954809D01*
X173491495Y-82811952D01*
X173443876Y-82621476D01*
X173396257Y-82526238D01*
X173301019Y-82431000D01*
X173158161Y-82383380D01*
X173062923Y-82383380D01*
X172920066Y-82431000D01*
X172872447Y-82478619D01*
X171967685Y-83383380D02*
X172443876Y-83383380D01*
X172443876Y-82383380D01*
X177693485Y-83297661D02*
X177550628Y-83345280D01*
X177312533Y-83345280D01*
X177217295Y-83297661D01*
X177169676Y-83250042D01*
X177122057Y-83154804D01*
X177122057Y-83059566D01*
X177169676Y-82964328D01*
X177217295Y-82916709D01*
X177312533Y-82869090D01*
X177503009Y-82821471D01*
X177598247Y-82773852D01*
X177645866Y-82726233D01*
X177693485Y-82630995D01*
X177693485Y-82535757D01*
X177645866Y-82440519D01*
X177598247Y-82392900D01*
X177503009Y-82345280D01*
X177264914Y-82345280D01*
X177122057Y-82392900D01*
X176693485Y-83345280D02*
X176693485Y-82345280D01*
X176455390Y-82345280D01*
X176312533Y-82392900D01*
X176217295Y-82488138D01*
X176169676Y-82583376D01*
X176122057Y-82773852D01*
X176122057Y-82916709D01*
X176169676Y-83107185D01*
X176217295Y-83202423D01*
X176312533Y-83297661D01*
X176455390Y-83345280D01*
X176693485Y-83345280D01*
X175741104Y-83059566D02*
X175264914Y-83059566D01*
X175836342Y-83345280D02*
X175503009Y-82345280D01*
X175169676Y-83345280D01*
M02*
