G04 #@! TF.GenerationSoftware,KiCad,Pcbnew,(5.1.4)-1*
G04 #@! TF.CreationDate,2020-03-06T18:24:47-05:00*
G04 #@! TF.ProjectId,Feather-NEO-M9N-GPS,46656174-6865-4722-9d4e-454f2d4d394e,rev?*
G04 #@! TF.SameCoordinates,Original*
G04 #@! TF.FileFunction,Drawing*
%FSLAX46Y46*%
G04 Gerber Fmt 4.6, Leading zero omitted, Abs format (unit mm)*
G04 Created by KiCad (PCBNEW (5.1.4)-1) date 2020-03-06 18:24:47*
%MOMM*%
%LPD*%
G04 APERTURE LIST*
%ADD10C,0.150000*%
%ADD11C,0.040000*%
G04 APERTURE END LIST*
D10*
X189013880Y-81785342D02*
X189061500Y-81832961D01*
X189109119Y-81928200D01*
X189109119Y-82166295D01*
X189061500Y-82261533D01*
X189013880Y-82309152D01*
X188918642Y-82356771D01*
X188823404Y-82356771D01*
X188680547Y-82309152D01*
X188109119Y-81737723D01*
X188109119Y-82356771D01*
X189013880Y-82737723D02*
X189061500Y-82785342D01*
X189109119Y-82880580D01*
X189109119Y-83118676D01*
X189061500Y-83213914D01*
X189013880Y-83261533D01*
X188918642Y-83309152D01*
X188823404Y-83309152D01*
X188680547Y-83261533D01*
X188109119Y-82690104D01*
X188109119Y-83309152D01*
X188204357Y-83737723D02*
X188156738Y-83785342D01*
X188109119Y-83737723D01*
X188156738Y-83690104D01*
X188204357Y-83737723D01*
X188109119Y-83737723D01*
X188680547Y-84356771D02*
X188728166Y-84261533D01*
X188775785Y-84213914D01*
X188871023Y-84166295D01*
X188918642Y-84166295D01*
X189013880Y-84213914D01*
X189061500Y-84261533D01*
X189109119Y-84356771D01*
X189109119Y-84547247D01*
X189061500Y-84642485D01*
X189013880Y-84690104D01*
X188918642Y-84737723D01*
X188871023Y-84737723D01*
X188775785Y-84690104D01*
X188728166Y-84642485D01*
X188680547Y-84547247D01*
X188680547Y-84356771D01*
X188632928Y-84261533D01*
X188585309Y-84213914D01*
X188490071Y-84166295D01*
X188299595Y-84166295D01*
X188204357Y-84213914D01*
X188156738Y-84261533D01*
X188109119Y-84356771D01*
X188109119Y-84547247D01*
X188156738Y-84642485D01*
X188204357Y-84690104D01*
X188299595Y-84737723D01*
X188490071Y-84737723D01*
X188585309Y-84690104D01*
X188632928Y-84642485D01*
X188680547Y-84547247D01*
X189109119Y-85594866D02*
X189109119Y-85404390D01*
X189061500Y-85309152D01*
X189013880Y-85261533D01*
X188871023Y-85166295D01*
X188680547Y-85118676D01*
X188299595Y-85118676D01*
X188204357Y-85166295D01*
X188156738Y-85213914D01*
X188109119Y-85309152D01*
X188109119Y-85499628D01*
X188156738Y-85594866D01*
X188204357Y-85642485D01*
X188299595Y-85690104D01*
X188537690Y-85690104D01*
X188632928Y-85642485D01*
X188680547Y-85594866D01*
X188728166Y-85499628D01*
X188728166Y-85309152D01*
X188680547Y-85213914D01*
X188632928Y-85166295D01*
X188537690Y-85118676D01*
X189109119Y-86309152D02*
X189109119Y-86404390D01*
X189061500Y-86499628D01*
X189013880Y-86547247D01*
X188918642Y-86594866D01*
X188728166Y-86642485D01*
X188490071Y-86642485D01*
X188299595Y-86594866D01*
X188204357Y-86547247D01*
X188156738Y-86499628D01*
X188109119Y-86404390D01*
X188109119Y-86309152D01*
X188156738Y-86213914D01*
X188204357Y-86166295D01*
X188299595Y-86118676D01*
X188490071Y-86071057D01*
X188728166Y-86071057D01*
X188918642Y-86118676D01*
X189013880Y-86166295D01*
X189061500Y-86213914D01*
X189109119Y-86309152D01*
X188109119Y-87832961D02*
X188775785Y-87832961D01*
X188680547Y-87832961D02*
X188728166Y-87880580D01*
X188775785Y-87975819D01*
X188775785Y-88118676D01*
X188728166Y-88213914D01*
X188632928Y-88261533D01*
X188109119Y-88261533D01*
X188632928Y-88261533D02*
X188728166Y-88309152D01*
X188775785Y-88404390D01*
X188775785Y-88547247D01*
X188728166Y-88642485D01*
X188632928Y-88690104D01*
X188109119Y-88690104D01*
X188109119Y-89166295D02*
X188775785Y-89166295D01*
X188680547Y-89166295D02*
X188728166Y-89213914D01*
X188775785Y-89309152D01*
X188775785Y-89452009D01*
X188728166Y-89547247D01*
X188632928Y-89594866D01*
X188109119Y-89594866D01*
X188632928Y-89594866D02*
X188728166Y-89642485D01*
X188775785Y-89737723D01*
X188775785Y-89880580D01*
X188728166Y-89975819D01*
X188632928Y-90023438D01*
X188109119Y-90023438D01*
X187261500Y-74498200D02*
X187261500Y-97358200D01*
X176898300Y-74498200D02*
X187847921Y-74498200D01*
X176898300Y-97358200D02*
X187847921Y-97358200D01*
X187261500Y-97358200D02*
X186675079Y-96231696D01*
X187261500Y-97358200D02*
X187847921Y-96231696D01*
X187261500Y-74498200D02*
X186675079Y-75624704D01*
X187261500Y-74498200D02*
X187847921Y-75624704D01*
X150419252Y-66389480D02*
X149943061Y-66389480D01*
X149895442Y-66865671D01*
X149943061Y-66818052D01*
X150038300Y-66770433D01*
X150276395Y-66770433D01*
X150371633Y-66818052D01*
X150419252Y-66865671D01*
X150466871Y-66960909D01*
X150466871Y-67199004D01*
X150419252Y-67294242D01*
X150371633Y-67341861D01*
X150276395Y-67389480D01*
X150038300Y-67389480D01*
X149943061Y-67341861D01*
X149895442Y-67294242D01*
X151085919Y-66389480D02*
X151181157Y-66389480D01*
X151276395Y-66437100D01*
X151324014Y-66484719D01*
X151371633Y-66579957D01*
X151419252Y-66770433D01*
X151419252Y-67008528D01*
X151371633Y-67199004D01*
X151324014Y-67294242D01*
X151276395Y-67341861D01*
X151181157Y-67389480D01*
X151085919Y-67389480D01*
X150990680Y-67341861D01*
X150943061Y-67294242D01*
X150895442Y-67199004D01*
X150847823Y-67008528D01*
X150847823Y-66770433D01*
X150895442Y-66579957D01*
X150943061Y-66484719D01*
X150990680Y-66437100D01*
X151085919Y-66389480D01*
X151847823Y-67294242D02*
X151895442Y-67341861D01*
X151847823Y-67389480D01*
X151800204Y-67341861D01*
X151847823Y-67294242D01*
X151847823Y-67389480D01*
X152466871Y-66818052D02*
X152371633Y-66770433D01*
X152324014Y-66722814D01*
X152276395Y-66627576D01*
X152276395Y-66579957D01*
X152324014Y-66484719D01*
X152371633Y-66437100D01*
X152466871Y-66389480D01*
X152657347Y-66389480D01*
X152752585Y-66437100D01*
X152800204Y-66484719D01*
X152847823Y-66579957D01*
X152847823Y-66627576D01*
X152800204Y-66722814D01*
X152752585Y-66770433D01*
X152657347Y-66818052D01*
X152466871Y-66818052D01*
X152371633Y-66865671D01*
X152324014Y-66913290D01*
X152276395Y-67008528D01*
X152276395Y-67199004D01*
X152324014Y-67294242D01*
X152371633Y-67341861D01*
X152466871Y-67389480D01*
X152657347Y-67389480D01*
X152752585Y-67341861D01*
X152800204Y-67294242D01*
X152847823Y-67199004D01*
X152847823Y-67008528D01*
X152800204Y-66913290D01*
X152752585Y-66865671D01*
X152657347Y-66818052D01*
X153466871Y-66389480D02*
X153562109Y-66389480D01*
X153657347Y-66437100D01*
X153704966Y-66484719D01*
X153752585Y-66579957D01*
X153800204Y-66770433D01*
X153800204Y-67008528D01*
X153752585Y-67199004D01*
X153704966Y-67294242D01*
X153657347Y-67341861D01*
X153562109Y-67389480D01*
X153466871Y-67389480D01*
X153371633Y-67341861D01*
X153324014Y-67294242D01*
X153276395Y-67199004D01*
X153228776Y-67008528D01*
X153228776Y-66770433D01*
X153276395Y-66579957D01*
X153324014Y-66484719D01*
X153371633Y-66437100D01*
X153466871Y-66389480D01*
X154419252Y-66389480D02*
X154514490Y-66389480D01*
X154609728Y-66437100D01*
X154657347Y-66484719D01*
X154704966Y-66579957D01*
X154752585Y-66770433D01*
X154752585Y-67008528D01*
X154704966Y-67199004D01*
X154657347Y-67294242D01*
X154609728Y-67341861D01*
X154514490Y-67389480D01*
X154419252Y-67389480D01*
X154324014Y-67341861D01*
X154276395Y-67294242D01*
X154228776Y-67199004D01*
X154181157Y-67008528D01*
X154181157Y-66770433D01*
X154228776Y-66579957D01*
X154276395Y-66484719D01*
X154324014Y-66437100D01*
X154419252Y-66389480D01*
X155943061Y-67389480D02*
X155943061Y-66722814D01*
X155943061Y-66818052D02*
X155990680Y-66770433D01*
X156085919Y-66722814D01*
X156228776Y-66722814D01*
X156324014Y-66770433D01*
X156371633Y-66865671D01*
X156371633Y-67389480D01*
X156371633Y-66865671D02*
X156419252Y-66770433D01*
X156514490Y-66722814D01*
X156657347Y-66722814D01*
X156752585Y-66770433D01*
X156800204Y-66865671D01*
X156800204Y-67389480D01*
X157276395Y-67389480D02*
X157276395Y-66722814D01*
X157276395Y-66818052D02*
X157324014Y-66770433D01*
X157419252Y-66722814D01*
X157562109Y-66722814D01*
X157657347Y-66770433D01*
X157704966Y-66865671D01*
X157704966Y-67389480D01*
X157704966Y-66865671D02*
X157752585Y-66770433D01*
X157847823Y-66722814D01*
X157990680Y-66722814D01*
X158085919Y-66770433D01*
X158133538Y-66865671D01*
X158133538Y-67389480D01*
X128638300Y-68237100D02*
X179438300Y-68237100D01*
X128638300Y-77038200D02*
X128638300Y-67650679D01*
X179438300Y-77038200D02*
X179438300Y-67650679D01*
X179438300Y-68237100D02*
X178311796Y-68823521D01*
X179438300Y-68237100D02*
X178311796Y-67650679D01*
X128638300Y-68237100D02*
X129764804Y-68823521D01*
X128638300Y-68237100D02*
X129764804Y-67650679D01*
D11*
X128818792Y-89692308D02*
X128418792Y-89692308D01*
X128418792Y-89539927D01*
X128437840Y-89501832D01*
X128456887Y-89482784D01*
X128494982Y-89463737D01*
X128552125Y-89463737D01*
X128590220Y-89482784D01*
X128609268Y-89501832D01*
X128628316Y-89539927D01*
X128628316Y-89692308D01*
X128780697Y-89063737D02*
X128799744Y-89082784D01*
X128818792Y-89139927D01*
X128818792Y-89178022D01*
X128799744Y-89235165D01*
X128761649Y-89273260D01*
X128723554Y-89292308D01*
X128647363Y-89311356D01*
X128590220Y-89311356D01*
X128514030Y-89292308D01*
X128475935Y-89273260D01*
X128437840Y-89235165D01*
X128418792Y-89178022D01*
X128418792Y-89139927D01*
X128437840Y-89082784D01*
X128456887Y-89063737D01*
X128609268Y-88758975D02*
X128628316Y-88701832D01*
X128647363Y-88682784D01*
X128685459Y-88663737D01*
X128742601Y-88663737D01*
X128780697Y-88682784D01*
X128799744Y-88701832D01*
X128818792Y-88739927D01*
X128818792Y-88892308D01*
X128418792Y-88892308D01*
X128418792Y-88758975D01*
X128437840Y-88720880D01*
X128456887Y-88701832D01*
X128494982Y-88682784D01*
X128533078Y-88682784D01*
X128571173Y-88701832D01*
X128590220Y-88720880D01*
X128609268Y-88758975D01*
X128609268Y-88892308D01*
X128609268Y-88187546D02*
X128609268Y-88054213D01*
X128818792Y-87997070D02*
X128818792Y-88187546D01*
X128418792Y-88187546D01*
X128418792Y-87997070D01*
X128818792Y-87654213D02*
X128418792Y-87654213D01*
X128799744Y-87654213D02*
X128818792Y-87692308D01*
X128818792Y-87768499D01*
X128799744Y-87806594D01*
X128780697Y-87825641D01*
X128742601Y-87844689D01*
X128628316Y-87844689D01*
X128590220Y-87825641D01*
X128571173Y-87806594D01*
X128552125Y-87768499D01*
X128552125Y-87692308D01*
X128571173Y-87654213D01*
X128552125Y-87292308D02*
X128875935Y-87292308D01*
X128914030Y-87311356D01*
X128933078Y-87330403D01*
X128952125Y-87368499D01*
X128952125Y-87425641D01*
X128933078Y-87463737D01*
X128799744Y-87292308D02*
X128818792Y-87330403D01*
X128818792Y-87406594D01*
X128799744Y-87444689D01*
X128780697Y-87463737D01*
X128742601Y-87482784D01*
X128628316Y-87482784D01*
X128590220Y-87463737D01*
X128571173Y-87444689D01*
X128552125Y-87406594D01*
X128552125Y-87330403D01*
X128571173Y-87292308D01*
X128799744Y-86949451D02*
X128818792Y-86987546D01*
X128818792Y-87063737D01*
X128799744Y-87101832D01*
X128761649Y-87120880D01*
X128609268Y-87120880D01*
X128571173Y-87101832D01*
X128552125Y-87063737D01*
X128552125Y-86987546D01*
X128571173Y-86949451D01*
X128609268Y-86930403D01*
X128647363Y-86930403D01*
X128685459Y-87120880D01*
M02*
