G04 #@! TF.GenerationSoftware,KiCad,Pcbnew,(5.1.4)-1*
G04 #@! TF.CreationDate,2020-02-24T10:19:24-05:00*
G04 #@! TF.ProjectId,Feather-NEO-M9N-GPS,46656174-6865-4722-9d4e-454f2d4d394e,rev?*
G04 #@! TF.SameCoordinates,Original*
G04 #@! TF.FileFunction,Legend,Top*
G04 #@! TF.FilePolarity,Positive*
%FSLAX46Y46*%
G04 Gerber Fmt 4.6, Leading zero omitted, Abs format (unit mm)*
G04 Created by KiCad (PCBNEW (5.1.4)-1) date 2020-02-24 10:19:24*
%MOMM*%
%LPD*%
G04 APERTURE LIST*
%ADD10C,0.150000*%
%ADD11C,0.120000*%
%ADD12C,0.050000*%
%ADD13C,0.100000*%
%ADD14C,0.177800*%
%ADD15C,0.141418*%
G04 APERTURE END LIST*
D10*
X143569844Y-80685900D02*
X143569844Y-79685900D01*
X143950797Y-79685900D01*
X144046035Y-79733520D01*
X144093654Y-79781139D01*
X144141273Y-79876377D01*
X144141273Y-80019234D01*
X144093654Y-80114472D01*
X144046035Y-80162091D01*
X143950797Y-80209710D01*
X143569844Y-80209710D01*
X144569844Y-80685900D02*
X144569844Y-79685900D01*
X144950797Y-79685900D01*
X145046035Y-79733520D01*
X145093654Y-79781139D01*
X145141273Y-79876377D01*
X145141273Y-80019234D01*
X145093654Y-80114472D01*
X145046035Y-80162091D01*
X144950797Y-80209710D01*
X144569844Y-80209710D01*
X145522225Y-80638281D02*
X145665082Y-80685900D01*
X145903178Y-80685900D01*
X145998416Y-80638281D01*
X146046035Y-80590662D01*
X146093654Y-80495424D01*
X146093654Y-80400186D01*
X146046035Y-80304948D01*
X145998416Y-80257329D01*
X145903178Y-80209710D01*
X145712701Y-80162091D01*
X145617463Y-80114472D01*
X145569844Y-80066853D01*
X145522225Y-79971615D01*
X145522225Y-79876377D01*
X145569844Y-79781139D01*
X145617463Y-79733520D01*
X145712701Y-79685900D01*
X145950797Y-79685900D01*
X146093654Y-79733520D01*
X143535566Y-82443580D02*
X143535566Y-81443580D01*
X143916519Y-81443580D01*
X144011757Y-81491200D01*
X144059376Y-81538819D01*
X144106995Y-81634057D01*
X144106995Y-81776914D01*
X144059376Y-81872152D01*
X144011757Y-81919771D01*
X143916519Y-81967390D01*
X143535566Y-81967390D01*
X144440328Y-81443580D02*
X144678423Y-82443580D01*
X144868900Y-81729295D01*
X145059376Y-82443580D01*
X145297471Y-81443580D01*
X146249852Y-82443580D02*
X145916519Y-81967390D01*
X145678423Y-82443580D02*
X145678423Y-81443580D01*
X146059376Y-81443580D01*
X146154614Y-81491200D01*
X146202233Y-81538819D01*
X146249852Y-81634057D01*
X146249852Y-81776914D01*
X146202233Y-81872152D01*
X146154614Y-81919771D01*
X146059376Y-81967390D01*
X145678423Y-81967390D01*
X129337471Y-79248885D02*
X129337471Y-79856028D01*
X129373185Y-79927457D01*
X129408900Y-79963171D01*
X129480328Y-79998885D01*
X129623185Y-79998885D01*
X129694614Y-79963171D01*
X129730328Y-79927457D01*
X129766042Y-79856028D01*
X129766042Y-79248885D01*
X130087471Y-79963171D02*
X130194614Y-79998885D01*
X130373185Y-79998885D01*
X130444614Y-79963171D01*
X130480328Y-79927457D01*
X130516042Y-79856028D01*
X130516042Y-79784600D01*
X130480328Y-79713171D01*
X130444614Y-79677457D01*
X130373185Y-79641742D01*
X130230328Y-79606028D01*
X130158900Y-79570314D01*
X130123185Y-79534600D01*
X130087471Y-79463171D01*
X130087471Y-79391742D01*
X130123185Y-79320314D01*
X130158900Y-79284600D01*
X130230328Y-79248885D01*
X130408900Y-79248885D01*
X130516042Y-79284600D01*
X131087471Y-79606028D02*
X131194614Y-79641742D01*
X131230328Y-79677457D01*
X131266042Y-79748885D01*
X131266042Y-79856028D01*
X131230328Y-79927457D01*
X131194614Y-79963171D01*
X131123185Y-79998885D01*
X130837471Y-79998885D01*
X130837471Y-79248885D01*
X131087471Y-79248885D01*
X131158900Y-79284600D01*
X131194614Y-79320314D01*
X131230328Y-79391742D01*
X131230328Y-79463171D01*
X131194614Y-79534600D01*
X131158900Y-79570314D01*
X131087471Y-79606028D01*
X130837471Y-79606028D01*
X132087471Y-79498885D02*
X132230328Y-79998885D01*
X132373185Y-79641742D01*
X132516042Y-79998885D01*
X132658900Y-79498885D01*
X132944614Y-79998885D02*
X132944614Y-79498885D01*
X132944614Y-79248885D02*
X132908900Y-79284600D01*
X132944614Y-79320314D01*
X132980328Y-79284600D01*
X132944614Y-79248885D01*
X132944614Y-79320314D01*
X133408900Y-79998885D02*
X133337471Y-79963171D01*
X133301757Y-79891742D01*
X133301757Y-79248885D01*
X133801757Y-79998885D02*
X133730328Y-79963171D01*
X133694614Y-79891742D01*
X133694614Y-79248885D01*
X130641042Y-81273885D02*
X130641042Y-80523885D01*
X131069614Y-81273885D01*
X131069614Y-80523885D01*
X131569614Y-80523885D02*
X131712471Y-80523885D01*
X131783900Y-80559600D01*
X131855328Y-80631028D01*
X131891042Y-80773885D01*
X131891042Y-81023885D01*
X131855328Y-81166742D01*
X131783900Y-81238171D01*
X131712471Y-81273885D01*
X131569614Y-81273885D01*
X131498185Y-81238171D01*
X131426757Y-81166742D01*
X131391042Y-81023885D01*
X131391042Y-80773885D01*
X131426757Y-80631028D01*
X131498185Y-80559600D01*
X131569614Y-80523885D01*
X132105328Y-80523885D02*
X132533900Y-80523885D01*
X132319614Y-81273885D02*
X132319614Y-80523885D01*
X130087471Y-82048885D02*
X130087471Y-82798885D01*
X130087471Y-82084600D02*
X130158900Y-82048885D01*
X130301757Y-82048885D01*
X130373185Y-82084600D01*
X130408900Y-82120314D01*
X130444614Y-82191742D01*
X130444614Y-82406028D01*
X130408900Y-82477457D01*
X130373185Y-82513171D01*
X130301757Y-82548885D01*
X130158900Y-82548885D01*
X130087471Y-82513171D01*
X130873185Y-82548885D02*
X130801757Y-82513171D01*
X130766042Y-82477457D01*
X130730328Y-82406028D01*
X130730328Y-82191742D01*
X130766042Y-82120314D01*
X130801757Y-82084600D01*
X130873185Y-82048885D01*
X130980328Y-82048885D01*
X131051757Y-82084600D01*
X131087471Y-82120314D01*
X131123185Y-82191742D01*
X131123185Y-82406028D01*
X131087471Y-82477457D01*
X131051757Y-82513171D01*
X130980328Y-82548885D01*
X130873185Y-82548885D01*
X131373185Y-82048885D02*
X131516042Y-82548885D01*
X131658900Y-82191742D01*
X131801757Y-82548885D01*
X131944614Y-82048885D01*
X132516042Y-82513171D02*
X132444614Y-82548885D01*
X132301757Y-82548885D01*
X132230328Y-82513171D01*
X132194614Y-82441742D01*
X132194614Y-82156028D01*
X132230328Y-82084600D01*
X132301757Y-82048885D01*
X132444614Y-82048885D01*
X132516042Y-82084600D01*
X132551757Y-82156028D01*
X132551757Y-82227457D01*
X132194614Y-82298885D01*
X132873185Y-82548885D02*
X132873185Y-82048885D01*
X132873185Y-82191742D02*
X132908900Y-82120314D01*
X132944614Y-82084600D01*
X133016042Y-82048885D01*
X133087471Y-82048885D01*
X129337471Y-83431028D02*
X129087471Y-83431028D01*
X129087471Y-83823885D02*
X129087471Y-83073885D01*
X129444614Y-83073885D01*
X130016042Y-83788171D02*
X129944614Y-83823885D01*
X129801757Y-83823885D01*
X129730328Y-83788171D01*
X129694614Y-83716742D01*
X129694614Y-83431028D01*
X129730328Y-83359600D01*
X129801757Y-83323885D01*
X129944614Y-83323885D01*
X130016042Y-83359600D01*
X130051757Y-83431028D01*
X130051757Y-83502457D01*
X129694614Y-83573885D01*
X130694614Y-83823885D02*
X130694614Y-83431028D01*
X130658900Y-83359600D01*
X130587471Y-83323885D01*
X130444614Y-83323885D01*
X130373185Y-83359600D01*
X130694614Y-83788171D02*
X130623185Y-83823885D01*
X130444614Y-83823885D01*
X130373185Y-83788171D01*
X130337471Y-83716742D01*
X130337471Y-83645314D01*
X130373185Y-83573885D01*
X130444614Y-83538171D01*
X130623185Y-83538171D01*
X130694614Y-83502457D01*
X130944614Y-83323885D02*
X131230328Y-83323885D01*
X131051757Y-83073885D02*
X131051757Y-83716742D01*
X131087471Y-83788171D01*
X131158900Y-83823885D01*
X131230328Y-83823885D01*
X131480328Y-83823885D02*
X131480328Y-83073885D01*
X131801757Y-83823885D02*
X131801757Y-83431028D01*
X131766042Y-83359600D01*
X131694614Y-83323885D01*
X131587471Y-83323885D01*
X131516042Y-83359600D01*
X131480328Y-83395314D01*
X132444614Y-83788171D02*
X132373185Y-83823885D01*
X132230328Y-83823885D01*
X132158900Y-83788171D01*
X132123185Y-83716742D01*
X132123185Y-83431028D01*
X132158900Y-83359600D01*
X132230328Y-83323885D01*
X132373185Y-83323885D01*
X132444614Y-83359600D01*
X132480328Y-83431028D01*
X132480328Y-83502457D01*
X132123185Y-83573885D01*
X132801757Y-83823885D02*
X132801757Y-83323885D01*
X132801757Y-83466742D02*
X132837471Y-83395314D01*
X132873185Y-83359600D01*
X132944614Y-83323885D01*
X133016042Y-83323885D01*
X133266042Y-83752457D02*
X133301757Y-83788171D01*
X133266042Y-83823885D01*
X133230328Y-83788171D01*
X133266042Y-83752457D01*
X133266042Y-83823885D01*
X133266042Y-83538171D02*
X133230328Y-83109600D01*
X133266042Y-83073885D01*
X133301757Y-83109600D01*
X133266042Y-83538171D01*
X133266042Y-83073885D01*
X133623185Y-83752457D02*
X133658900Y-83788171D01*
X133623185Y-83823885D01*
X133587471Y-83788171D01*
X133623185Y-83752457D01*
X133623185Y-83823885D01*
X133623185Y-83538171D02*
X133587471Y-83109600D01*
X133623185Y-83073885D01*
X133658900Y-83109600D01*
X133623185Y-83538171D01*
X133623185Y-83073885D01*
X133980328Y-83752457D02*
X134016042Y-83788171D01*
X133980328Y-83823885D01*
X133944614Y-83788171D01*
X133980328Y-83752457D01*
X133980328Y-83823885D01*
X133980328Y-83538171D02*
X133944614Y-83109600D01*
X133980328Y-83073885D01*
X134016042Y-83109600D01*
X133980328Y-83538171D01*
X133980328Y-83073885D01*
D11*
X145036321Y-78945200D02*
X145361879Y-78945200D01*
X145036321Y-77925200D02*
X145361879Y-77925200D01*
D12*
X135215400Y-85529800D02*
G75*
G02X135165400Y-85529800I-25000J0D01*
G01*
X135165400Y-85529800D02*
G75*
G02X135215400Y-85529800I25000J0D01*
G01*
D13*
X135915400Y-86754800D02*
X135965400Y-86754800D01*
X135915400Y-85304800D02*
X135965400Y-85304800D01*
X135865400Y-86754800D02*
X135915400Y-86754800D01*
X135865400Y-85304800D02*
X135915400Y-85304800D01*
D12*
X135165400Y-85529800D02*
X135165400Y-85529800D01*
X135215400Y-85529800D02*
X135215400Y-85529800D01*
D10*
X139391800Y-93558600D02*
X136716800Y-93558600D01*
X139391800Y-94858600D02*
X136716800Y-94858600D01*
X139391800Y-94858600D02*
X139391800Y-93558600D01*
X143900300Y-88237300D02*
X141225300Y-88237300D01*
X143900300Y-89537300D02*
X141225300Y-89537300D01*
X143900300Y-89537300D02*
X143900300Y-88237300D01*
D13*
X146138900Y-94452800D02*
G75*
G03X146138900Y-94552800I0J-50000D01*
G01*
X146138900Y-94552800D02*
G75*
G03X146138900Y-94452800I0J50000D01*
G01*
X146138900Y-94552800D02*
X146138900Y-94552800D01*
X146138900Y-94452800D02*
X146138900Y-94452800D01*
X147438900Y-91502800D02*
X147438900Y-91300800D01*
X147438900Y-93195800D02*
X147438900Y-93502800D01*
X144838900Y-93252800D02*
X144838900Y-91300800D01*
D14*
X165252400Y-94597300D02*
X163782400Y-94597300D01*
X165252400Y-92747300D02*
X165252400Y-94597300D01*
X165252400Y-78097300D02*
X165252400Y-79947300D01*
X163782400Y-78097300D02*
X165252400Y-78097300D01*
X152552400Y-78097300D02*
X154022400Y-78097300D01*
X152552400Y-79947300D02*
X152552400Y-78097300D01*
X152552400Y-94597300D02*
X152552400Y-92747300D01*
X154022400Y-94597300D02*
X152552400Y-94597300D01*
D15*
X152273109Y-78347300D02*
G75*
G03X152273109Y-78347300I-70709J0D01*
G01*
D11*
X141708600Y-92072679D02*
X141708600Y-91747121D01*
X140688600Y-92072679D02*
X140688600Y-91747121D01*
X143245300Y-92072679D02*
X143245300Y-91747121D01*
X142225300Y-92072679D02*
X142225300Y-91747121D01*
X135053800Y-91551979D02*
X135053800Y-91226421D01*
X134033800Y-91551979D02*
X134033800Y-91226421D01*
X139406200Y-89563300D02*
X136956200Y-89563300D01*
X137606200Y-92783300D02*
X139406200Y-92783300D01*
X135443500Y-91201021D02*
X135443500Y-91526579D01*
X136463500Y-91201021D02*
X136463500Y-91526579D01*
X128707840Y-84510880D02*
X128967840Y-84510880D01*
X131247840Y-84510880D02*
X133017840Y-84510880D01*
X133017840Y-84510880D02*
X133017840Y-84890880D01*
X133017840Y-92130880D02*
X131247840Y-92130880D01*
X128967840Y-92130880D02*
X128707840Y-92130880D01*
X133017840Y-92130880D02*
X133017840Y-91750880D01*
X138394221Y-80050100D02*
X138719779Y-80050100D01*
X138394221Y-79030100D02*
X138719779Y-79030100D01*
X138457721Y-82475800D02*
X138783279Y-82475800D01*
X138457721Y-81455800D02*
X138783279Y-81455800D01*
X171140339Y-78847220D02*
X170814781Y-78847220D01*
X171140339Y-79867220D02*
X170814781Y-79867220D01*
X171140339Y-77480700D02*
X170814781Y-77480700D01*
X171140339Y-78500700D02*
X170814781Y-78500700D01*
X176741360Y-91422001D02*
X176741360Y-91747559D01*
X177761360Y-91422001D02*
X177761360Y-91747559D01*
X146788600Y-87843579D02*
X146788600Y-87518021D01*
X145768600Y-87843579D02*
X145768600Y-87518021D01*
X149819900Y-87873621D02*
X149819900Y-88199179D01*
X150839900Y-87873621D02*
X150839900Y-88199179D01*
X140627319Y-84813680D02*
X140301761Y-84813680D01*
X140627319Y-85833680D02*
X140301761Y-85833680D01*
X140650179Y-86370700D02*
X140324621Y-86370700D01*
X140650179Y-87390700D02*
X140324621Y-87390700D01*
X149971541Y-85752400D02*
X150297099Y-85752400D01*
X149971541Y-84732400D02*
X150297099Y-84732400D01*
X148219700Y-87822821D02*
X148219700Y-88148379D01*
X149239700Y-87822821D02*
X149239700Y-88148379D01*
X172626560Y-91447401D02*
X172626560Y-91772959D01*
X173646560Y-91447401D02*
X173646560Y-91772959D01*
X166469600Y-79453521D02*
X166469600Y-79779079D01*
X167489600Y-79453521D02*
X167489600Y-79779079D01*
X142508200Y-80400400D02*
X141108200Y-80400400D01*
X140408200Y-79700400D02*
X140408200Y-79100400D01*
X141108200Y-78400400D02*
X142508200Y-78400400D01*
X143208200Y-79100400D02*
X143208200Y-79700400D01*
X143208200Y-79700400D02*
G75*
G02X142508200Y-80400400I-700000J0D01*
G01*
X142508200Y-78400400D02*
G75*
G02X143208200Y-79100400I0J-700000D01*
G01*
X140408200Y-79100400D02*
G75*
G02X141108200Y-78400400I700000J0D01*
G01*
X141108200Y-80400400D02*
G75*
G02X140408200Y-79700400I0J700000D01*
G01*
X142520900Y-83092800D02*
X141120900Y-83092800D01*
X140420900Y-82392800D02*
X140420900Y-81792800D01*
X141120900Y-81092800D02*
X142520900Y-81092800D01*
X143220900Y-81792800D02*
X143220900Y-82392800D01*
X143220900Y-82392800D02*
G75*
G02X142520900Y-83092800I-700000J0D01*
G01*
X142520900Y-81092800D02*
G75*
G02X143220900Y-81792800I0J-700000D01*
G01*
X140420900Y-81792800D02*
G75*
G02X141120900Y-81092800I700000J0D01*
G01*
X141120900Y-83092800D02*
G75*
G02X140420900Y-82392800I0J700000D01*
G01*
X133983360Y-80259860D02*
X136268360Y-80259860D01*
X133983360Y-78789860D02*
X133983360Y-80259860D01*
X136268360Y-78789860D02*
X133983360Y-78789860D01*
X134117980Y-82700800D02*
X136402980Y-82700800D01*
X134117980Y-81230800D02*
X134117980Y-82700800D01*
X136402980Y-81230800D02*
X134117980Y-81230800D01*
X174941360Y-94873180D02*
X172391360Y-94873180D01*
X174941360Y-93173180D02*
X172391360Y-93173180D01*
X174941360Y-94873180D02*
X174941360Y-93173180D01*
X178723960Y-86559380D02*
G75*
G03X178723960Y-86559380I-3530000J0D01*
G01*
X150684300Y-91558878D02*
X150684300Y-91041722D01*
X149264300Y-91558878D02*
X149264300Y-91041722D01*
D10*
X144502902Y-77777600D02*
X144169569Y-77301410D01*
X143931474Y-77777600D02*
X143931474Y-76777600D01*
X144312426Y-76777600D01*
X144407664Y-76825220D01*
X144455283Y-76872839D01*
X144502902Y-76968077D01*
X144502902Y-77110934D01*
X144455283Y-77206172D01*
X144407664Y-77253791D01*
X144312426Y-77301410D01*
X143931474Y-77301410D01*
X145455283Y-77777600D02*
X144883855Y-77777600D01*
X145169569Y-77777600D02*
X145169569Y-76777600D01*
X145074331Y-76920458D01*
X144979093Y-77015696D01*
X144883855Y-77063315D01*
X146312426Y-77110934D02*
X146312426Y-77777600D01*
X146074331Y-76729981D02*
X145836236Y-77444267D01*
X146455283Y-77444267D01*
X134869180Y-87221890D02*
X133869180Y-87221890D01*
X134773942Y-86174271D02*
X134821561Y-86221890D01*
X134869180Y-86364747D01*
X134869180Y-86459985D01*
X134821561Y-86602842D01*
X134726323Y-86698080D01*
X134631085Y-86745700D01*
X134440609Y-86793319D01*
X134297752Y-86793319D01*
X134107276Y-86745700D01*
X134012038Y-86698080D01*
X133916800Y-86602842D01*
X133869180Y-86459985D01*
X133869180Y-86364747D01*
X133916800Y-86221890D01*
X133964419Y-86174271D01*
X134869180Y-85221890D02*
X134869180Y-85793319D01*
X134869180Y-85507604D02*
X133869180Y-85507604D01*
X134012038Y-85602842D01*
X134107276Y-85698080D01*
X134154895Y-85793319D01*
X142744866Y-75195180D02*
X142744866Y-75909466D01*
X142697247Y-76052323D01*
X142602009Y-76147561D01*
X142459152Y-76195180D01*
X142363914Y-76195180D01*
X143744866Y-76195180D02*
X143173438Y-76195180D01*
X143459152Y-76195180D02*
X143459152Y-75195180D01*
X143363914Y-75338038D01*
X143268676Y-75433276D01*
X143173438Y-75480895D01*
X174525346Y-95698060D02*
X174525346Y-96412346D01*
X174477727Y-96555203D01*
X174382489Y-96650441D01*
X174239632Y-96698060D01*
X174144394Y-96698060D01*
X174953918Y-95793299D02*
X175001537Y-95745680D01*
X175096775Y-95698060D01*
X175334870Y-95698060D01*
X175430108Y-95745680D01*
X175477727Y-95793299D01*
X175525346Y-95888537D01*
X175525346Y-95983775D01*
X175477727Y-96126632D01*
X174906299Y-96698060D01*
X175525346Y-96698060D01*
D11*
X147279817Y-79599985D02*
X147029817Y-79242842D01*
X146851245Y-79599985D02*
X146851245Y-78849985D01*
X147136960Y-78849985D01*
X147208388Y-78885700D01*
X147244102Y-78921414D01*
X147279817Y-78992842D01*
X147279817Y-79099985D01*
X147244102Y-79171414D01*
X147208388Y-79207128D01*
X147136960Y-79242842D01*
X146851245Y-79242842D01*
X147994102Y-79599985D02*
X147565531Y-79599985D01*
X147779817Y-79599985D02*
X147779817Y-78849985D01*
X147708388Y-78957128D01*
X147636960Y-79028557D01*
X147565531Y-79064271D01*
X148351245Y-79599985D02*
X148494102Y-79599985D01*
X148565531Y-79564271D01*
X148601245Y-79528557D01*
X148672674Y-79421414D01*
X148708388Y-79278557D01*
X148708388Y-78992842D01*
X148672674Y-78921414D01*
X148636960Y-78885700D01*
X148565531Y-78849985D01*
X148422674Y-78849985D01*
X148351245Y-78885700D01*
X148315531Y-78921414D01*
X148279817Y-78992842D01*
X148279817Y-79171414D01*
X148315531Y-79242842D01*
X148351245Y-79278557D01*
X148422674Y-79314271D01*
X148565531Y-79314271D01*
X148636960Y-79278557D01*
X148672674Y-79242842D01*
X148708388Y-79171414D01*
X169229500Y-85522417D02*
X168979500Y-85165274D01*
X168800928Y-85522417D02*
X168800928Y-84772417D01*
X169086642Y-84772417D01*
X169158071Y-84808132D01*
X169193785Y-84843846D01*
X169229500Y-84915274D01*
X169229500Y-85022417D01*
X169193785Y-85093846D01*
X169158071Y-85129560D01*
X169086642Y-85165274D01*
X168800928Y-85165274D01*
X169515214Y-84843846D02*
X169550928Y-84808132D01*
X169622357Y-84772417D01*
X169800928Y-84772417D01*
X169872357Y-84808132D01*
X169908071Y-84843846D01*
X169943785Y-84915274D01*
X169943785Y-84986703D01*
X169908071Y-85093846D01*
X169479500Y-85522417D01*
X169943785Y-85522417D01*
X169229500Y-86750085D02*
X168979500Y-86392942D01*
X168800928Y-86750085D02*
X168800928Y-86000085D01*
X169086642Y-86000085D01*
X169158071Y-86035800D01*
X169193785Y-86071514D01*
X169229500Y-86142942D01*
X169229500Y-86250085D01*
X169193785Y-86321514D01*
X169158071Y-86357228D01*
X169086642Y-86392942D01*
X168800928Y-86392942D01*
X169943785Y-86750085D02*
X169515214Y-86750085D01*
X169729500Y-86750085D02*
X169729500Y-86000085D01*
X169658071Y-86107228D01*
X169586642Y-86178657D01*
X169515214Y-86214371D01*
D10*
X133678704Y-94699080D02*
X133678704Y-93699080D01*
X133916800Y-93699080D01*
X134059657Y-93746700D01*
X134154895Y-93841938D01*
X134202514Y-93937176D01*
X134250133Y-94127652D01*
X134250133Y-94270509D01*
X134202514Y-94460985D01*
X134154895Y-94556223D01*
X134059657Y-94651461D01*
X133916800Y-94699080D01*
X133678704Y-94699080D01*
X135154895Y-93699080D02*
X134678704Y-93699080D01*
X134631085Y-94175271D01*
X134678704Y-94127652D01*
X134773942Y-94080033D01*
X135012038Y-94080033D01*
X135107276Y-94127652D01*
X135154895Y-94175271D01*
X135202514Y-94270509D01*
X135202514Y-94508604D01*
X135154895Y-94603842D01*
X135107276Y-94651461D01*
X135012038Y-94699080D01*
X134773942Y-94699080D01*
X134678704Y-94651461D01*
X134631085Y-94603842D01*
X143987780Y-87555295D02*
X142987780Y-87555295D01*
X142987780Y-87317200D01*
X143035400Y-87174342D01*
X143130638Y-87079104D01*
X143225876Y-87031485D01*
X143416352Y-86983866D01*
X143559209Y-86983866D01*
X143749685Y-87031485D01*
X143844923Y-87079104D01*
X143940161Y-87174342D01*
X143987780Y-87317200D01*
X143987780Y-87555295D01*
X143321114Y-86126723D02*
X143987780Y-86126723D01*
X142940161Y-86364819D02*
X143654447Y-86602914D01*
X143654447Y-85983866D01*
X143787880Y-93140042D02*
X144597404Y-93140042D01*
X144692642Y-93092423D01*
X144740261Y-93044804D01*
X144787880Y-92949566D01*
X144787880Y-92759090D01*
X144740261Y-92663852D01*
X144692642Y-92616233D01*
X144597404Y-92568614D01*
X143787880Y-92568614D01*
X144692642Y-92092423D02*
X144740261Y-92044804D01*
X144787880Y-92092423D01*
X144740261Y-92140042D01*
X144692642Y-92092423D01*
X144787880Y-92092423D01*
X144264071Y-91282900D02*
X144264071Y-91616233D01*
X144787880Y-91616233D02*
X143787880Y-91616233D01*
X143787880Y-91140042D01*
X144787880Y-90282900D02*
X144787880Y-90759090D01*
X143787880Y-90759090D01*
D11*
X147216317Y-80615985D02*
X146966317Y-80258842D01*
X146787745Y-80615985D02*
X146787745Y-79865985D01*
X147073460Y-79865985D01*
X147144888Y-79901700D01*
X147180602Y-79937414D01*
X147216317Y-80008842D01*
X147216317Y-80115985D01*
X147180602Y-80187414D01*
X147144888Y-80223128D01*
X147073460Y-80258842D01*
X146787745Y-80258842D01*
X147930602Y-80615985D02*
X147502031Y-80615985D01*
X147716317Y-80615985D02*
X147716317Y-79865985D01*
X147644888Y-79973128D01*
X147573460Y-80044557D01*
X147502031Y-80080271D01*
X148359174Y-80187414D02*
X148287745Y-80151700D01*
X148252031Y-80115985D01*
X148216317Y-80044557D01*
X148216317Y-80008842D01*
X148252031Y-79937414D01*
X148287745Y-79901700D01*
X148359174Y-79865985D01*
X148502031Y-79865985D01*
X148573460Y-79901700D01*
X148609174Y-79937414D01*
X148644888Y-80008842D01*
X148644888Y-80044557D01*
X148609174Y-80115985D01*
X148573460Y-80151700D01*
X148502031Y-80187414D01*
X148359174Y-80187414D01*
X148287745Y-80223128D01*
X148252031Y-80258842D01*
X148216317Y-80330271D01*
X148216317Y-80473128D01*
X148252031Y-80544557D01*
X148287745Y-80580271D01*
X148359174Y-80615985D01*
X148502031Y-80615985D01*
X148573460Y-80580271D01*
X148609174Y-80544557D01*
X148644888Y-80473128D01*
X148644888Y-80330271D01*
X148609174Y-80258842D01*
X148573460Y-80223128D01*
X148502031Y-80187414D01*
X147254417Y-81635885D02*
X147004417Y-81278742D01*
X146825845Y-81635885D02*
X146825845Y-80885885D01*
X147111560Y-80885885D01*
X147182988Y-80921600D01*
X147218702Y-80957314D01*
X147254417Y-81028742D01*
X147254417Y-81135885D01*
X147218702Y-81207314D01*
X147182988Y-81243028D01*
X147111560Y-81278742D01*
X146825845Y-81278742D01*
X147968702Y-81635885D02*
X147540131Y-81635885D01*
X147754417Y-81635885D02*
X147754417Y-80885885D01*
X147682988Y-80993028D01*
X147611560Y-81064457D01*
X147540131Y-81100171D01*
X148218702Y-80885885D02*
X148718702Y-80885885D01*
X148397274Y-81635885D01*
X147330617Y-82647985D02*
X147080617Y-82290842D01*
X146902045Y-82647985D02*
X146902045Y-81897985D01*
X147187760Y-81897985D01*
X147259188Y-81933700D01*
X147294902Y-81969414D01*
X147330617Y-82040842D01*
X147330617Y-82147985D01*
X147294902Y-82219414D01*
X147259188Y-82255128D01*
X147187760Y-82290842D01*
X146902045Y-82290842D01*
X148044902Y-82647985D02*
X147616331Y-82647985D01*
X147830617Y-82647985D02*
X147830617Y-81897985D01*
X147759188Y-82005128D01*
X147687760Y-82076557D01*
X147616331Y-82112271D01*
X148687760Y-81897985D02*
X148544902Y-81897985D01*
X148473474Y-81933700D01*
X148437760Y-81969414D01*
X148366331Y-82076557D01*
X148330617Y-82219414D01*
X148330617Y-82505128D01*
X148366331Y-82576557D01*
X148402045Y-82612271D01*
X148473474Y-82647985D01*
X148616331Y-82647985D01*
X148687760Y-82612271D01*
X148723474Y-82576557D01*
X148759188Y-82505128D01*
X148759188Y-82326557D01*
X148723474Y-82255128D01*
X148687760Y-82219414D01*
X148616331Y-82183700D01*
X148473474Y-82183700D01*
X148402045Y-82219414D01*
X148366331Y-82255128D01*
X148330617Y-82326557D01*
X169229500Y-84294751D02*
X168979500Y-83937608D01*
X168800928Y-84294751D02*
X168800928Y-83544751D01*
X169086642Y-83544751D01*
X169158071Y-83580466D01*
X169193785Y-83616180D01*
X169229500Y-83687608D01*
X169229500Y-83794751D01*
X169193785Y-83866180D01*
X169158071Y-83901894D01*
X169086642Y-83937608D01*
X168800928Y-83937608D01*
X169872357Y-83794751D02*
X169872357Y-84294751D01*
X169693785Y-83509037D02*
X169515214Y-84044751D01*
X169979500Y-84044751D01*
X169178700Y-83067085D02*
X168928700Y-82709942D01*
X168750128Y-83067085D02*
X168750128Y-82317085D01*
X169035842Y-82317085D01*
X169107271Y-82352800D01*
X169142985Y-82388514D01*
X169178700Y-82459942D01*
X169178700Y-82567085D01*
X169142985Y-82638514D01*
X169107271Y-82674228D01*
X169035842Y-82709942D01*
X168750128Y-82709942D01*
X169428700Y-82317085D02*
X169892985Y-82317085D01*
X169642985Y-82602800D01*
X169750128Y-82602800D01*
X169821557Y-82638514D01*
X169857271Y-82674228D01*
X169892985Y-82745657D01*
X169892985Y-82924228D01*
X169857271Y-82995657D01*
X169821557Y-83031371D01*
X169750128Y-83067085D01*
X169535842Y-83067085D01*
X169464414Y-83031371D01*
X169428700Y-82995657D01*
D10*
X161508535Y-76978260D02*
X161508535Y-77787784D01*
X161556154Y-77883022D01*
X161603773Y-77930641D01*
X161699011Y-77978260D01*
X161889487Y-77978260D01*
X161984725Y-77930641D01*
X162032344Y-77883022D01*
X162079963Y-77787784D01*
X162079963Y-76978260D01*
X163079963Y-77978260D02*
X162508535Y-77978260D01*
X162794249Y-77978260D02*
X162794249Y-76978260D01*
X162699011Y-77121118D01*
X162603773Y-77216356D01*
X162508535Y-77263975D01*
X152645859Y-77896980D02*
X152645859Y-76896980D01*
X153217287Y-77896980D01*
X153217287Y-76896980D01*
X153693478Y-77373171D02*
X154026811Y-77373171D01*
X154169668Y-77896980D02*
X153693478Y-77896980D01*
X153693478Y-76896980D01*
X154169668Y-76896980D01*
X154788716Y-76896980D02*
X154979192Y-76896980D01*
X155074430Y-76944600D01*
X155169668Y-77039838D01*
X155217287Y-77230314D01*
X155217287Y-77563647D01*
X155169668Y-77754123D01*
X155074430Y-77849361D01*
X154979192Y-77896980D01*
X154788716Y-77896980D01*
X154693478Y-77849361D01*
X154598240Y-77754123D01*
X154550620Y-77563647D01*
X154550620Y-77230314D01*
X154598240Y-77039838D01*
X154693478Y-76944600D01*
X154788716Y-76896980D01*
X155645859Y-77516028D02*
X156407763Y-77516028D01*
X156883954Y-77896980D02*
X156883954Y-76896980D01*
X157217287Y-77611266D01*
X157550620Y-76896980D01*
X157550620Y-77896980D01*
X158074430Y-77896980D02*
X158264906Y-77896980D01*
X158360144Y-77849361D01*
X158407763Y-77801742D01*
X158503001Y-77658885D01*
X158550620Y-77468409D01*
X158550620Y-77087457D01*
X158503001Y-76992219D01*
X158455382Y-76944600D01*
X158360144Y-76896980D01*
X158169668Y-76896980D01*
X158074430Y-76944600D01*
X158026811Y-76992219D01*
X157979192Y-77087457D01*
X157979192Y-77325552D01*
X158026811Y-77420790D01*
X158074430Y-77468409D01*
X158169668Y-77516028D01*
X158360144Y-77516028D01*
X158455382Y-77468409D01*
X158503001Y-77420790D01*
X158550620Y-77325552D01*
X158979192Y-77896980D02*
X158979192Y-76896980D01*
X159550620Y-77896980D01*
X159550620Y-76896980D01*
X141568442Y-94438766D02*
X141616061Y-94486385D01*
X141663680Y-94629242D01*
X141663680Y-94724480D01*
X141616061Y-94867338D01*
X141520823Y-94962576D01*
X141425585Y-95010195D01*
X141235109Y-95057814D01*
X141092252Y-95057814D01*
X140901776Y-95010195D01*
X140806538Y-94962576D01*
X140711300Y-94867338D01*
X140663680Y-94724480D01*
X140663680Y-94629242D01*
X140711300Y-94486385D01*
X140758919Y-94438766D01*
X140663680Y-94105433D02*
X140663680Y-93438766D01*
X141663680Y-93867338D01*
X143079742Y-94375266D02*
X143127361Y-94422885D01*
X143174980Y-94565742D01*
X143174980Y-94660980D01*
X143127361Y-94803838D01*
X143032123Y-94899076D01*
X142936885Y-94946695D01*
X142746409Y-94994314D01*
X142603552Y-94994314D01*
X142413076Y-94946695D01*
X142317838Y-94899076D01*
X142222600Y-94803838D01*
X142174980Y-94660980D01*
X142174980Y-94565742D01*
X142222600Y-94422885D01*
X142270219Y-94375266D01*
X142174980Y-93518123D02*
X142174980Y-93708600D01*
X142222600Y-93803838D01*
X142270219Y-93851457D01*
X142413076Y-93946695D01*
X142603552Y-93994314D01*
X142984504Y-93994314D01*
X143079742Y-93946695D01*
X143127361Y-93899076D01*
X143174980Y-93803838D01*
X143174980Y-93613361D01*
X143127361Y-93518123D01*
X143079742Y-93470504D01*
X142984504Y-93422885D01*
X142746409Y-93422885D01*
X142651171Y-93470504D01*
X142603552Y-93518123D01*
X142555933Y-93613361D01*
X142555933Y-93803838D01*
X142603552Y-93899076D01*
X142651171Y-93946695D01*
X142746409Y-93994314D01*
X134900942Y-89282566D02*
X134948561Y-89330185D01*
X134996180Y-89473042D01*
X134996180Y-89568280D01*
X134948561Y-89711138D01*
X134853323Y-89806376D01*
X134758085Y-89853995D01*
X134567609Y-89901614D01*
X134424752Y-89901614D01*
X134234276Y-89853995D01*
X134139038Y-89806376D01*
X134043800Y-89711138D01*
X133996180Y-89568280D01*
X133996180Y-89473042D01*
X134043800Y-89330185D01*
X134091419Y-89282566D01*
X133996180Y-88377804D02*
X133996180Y-88853995D01*
X134472371Y-88901614D01*
X134424752Y-88853995D01*
X134377133Y-88758757D01*
X134377133Y-88520661D01*
X134424752Y-88425423D01*
X134472371Y-88377804D01*
X134567609Y-88330185D01*
X134805704Y-88330185D01*
X134900942Y-88377804D01*
X134948561Y-88425423D01*
X134996180Y-88520661D01*
X134996180Y-88758757D01*
X134948561Y-88853995D01*
X134900942Y-88901614D01*
X137520775Y-88326980D02*
X137520775Y-89136504D01*
X137568394Y-89231742D01*
X137616013Y-89279361D01*
X137711251Y-89326980D01*
X137901727Y-89326980D01*
X137996965Y-89279361D01*
X138044584Y-89231742D01*
X138092203Y-89136504D01*
X138092203Y-88326980D01*
X138520775Y-88422219D02*
X138568394Y-88374600D01*
X138663632Y-88326980D01*
X138901727Y-88326980D01*
X138996965Y-88374600D01*
X139044584Y-88422219D01*
X139092203Y-88517457D01*
X139092203Y-88612695D01*
X139044584Y-88755552D01*
X138473156Y-89326980D01*
X139092203Y-89326980D01*
X136431280Y-89288857D02*
X135955090Y-89622190D01*
X136431280Y-89860285D02*
X135431280Y-89860285D01*
X135431280Y-89479333D01*
X135478900Y-89384095D01*
X135526519Y-89336476D01*
X135621757Y-89288857D01*
X135764614Y-89288857D01*
X135859852Y-89336476D01*
X135907471Y-89384095D01*
X135955090Y-89479333D01*
X135955090Y-89860285D01*
X136431280Y-88336476D02*
X136431280Y-88907904D01*
X136431280Y-88622190D02*
X135431280Y-88622190D01*
X135574138Y-88717428D01*
X135669376Y-88812666D01*
X135716995Y-88907904D01*
X135431280Y-87431714D02*
X135431280Y-87907904D01*
X135907471Y-87955523D01*
X135859852Y-87907904D01*
X135812233Y-87812666D01*
X135812233Y-87574571D01*
X135859852Y-87479333D01*
X135907471Y-87431714D01*
X136002709Y-87384095D01*
X136240804Y-87384095D01*
X136336042Y-87431714D01*
X136383661Y-87479333D01*
X136431280Y-87574571D01*
X136431280Y-87812666D01*
X136383661Y-87907904D01*
X136336042Y-87955523D01*
X132762666Y-92340180D02*
X132762666Y-93054466D01*
X132715047Y-93197323D01*
X132619809Y-93292561D01*
X132476952Y-93340180D01*
X132381714Y-93340180D01*
X133667428Y-92340180D02*
X133476952Y-92340180D01*
X133381714Y-92387800D01*
X133334095Y-92435419D01*
X133238857Y-92578276D01*
X133191238Y-92768752D01*
X133191238Y-93149704D01*
X133238857Y-93244942D01*
X133286476Y-93292561D01*
X133381714Y-93340180D01*
X133572190Y-93340180D01*
X133667428Y-93292561D01*
X133715047Y-93244942D01*
X133762666Y-93149704D01*
X133762666Y-92911609D01*
X133715047Y-92816371D01*
X133667428Y-92768752D01*
X133572190Y-92721133D01*
X133381714Y-92721133D01*
X133286476Y-92768752D01*
X133238857Y-92816371D01*
X133191238Y-92911609D01*
X137814922Y-78521820D02*
X137481589Y-78045630D01*
X137243494Y-78521820D02*
X137243494Y-77521820D01*
X137624446Y-77521820D01*
X137719684Y-77569440D01*
X137767303Y-77617059D01*
X137814922Y-77712297D01*
X137814922Y-77855154D01*
X137767303Y-77950392D01*
X137719684Y-77998011D01*
X137624446Y-78045630D01*
X137243494Y-78045630D01*
X138767303Y-78521820D02*
X138195875Y-78521820D01*
X138481589Y-78521820D02*
X138481589Y-77521820D01*
X138386351Y-77664678D01*
X138291113Y-77759916D01*
X138195875Y-77807535D01*
X139100637Y-77521820D02*
X139719684Y-77521820D01*
X139386351Y-77902773D01*
X139529208Y-77902773D01*
X139624446Y-77950392D01*
X139672065Y-77998011D01*
X139719684Y-78093249D01*
X139719684Y-78331344D01*
X139672065Y-78426582D01*
X139624446Y-78474201D01*
X139529208Y-78521820D01*
X139243494Y-78521820D01*
X139148256Y-78474201D01*
X139100637Y-78426582D01*
X137832862Y-83848200D02*
X137499529Y-83372010D01*
X137261434Y-83848200D02*
X137261434Y-82848200D01*
X137642386Y-82848200D01*
X137737624Y-82895820D01*
X137785243Y-82943439D01*
X137832862Y-83038677D01*
X137832862Y-83181534D01*
X137785243Y-83276772D01*
X137737624Y-83324391D01*
X137642386Y-83372010D01*
X137261434Y-83372010D01*
X138785243Y-83848200D02*
X138213815Y-83848200D01*
X138499529Y-83848200D02*
X138499529Y-82848200D01*
X138404291Y-82991058D01*
X138309053Y-83086296D01*
X138213815Y-83133915D01*
X139166196Y-82943439D02*
X139213815Y-82895820D01*
X139309053Y-82848200D01*
X139547148Y-82848200D01*
X139642386Y-82895820D01*
X139690005Y-82943439D01*
X139737624Y-83038677D01*
X139737624Y-83133915D01*
X139690005Y-83276772D01*
X139118577Y-83848200D01*
X139737624Y-83848200D01*
X173062662Y-79804520D02*
X172729329Y-79328330D01*
X172491234Y-79804520D02*
X172491234Y-78804520D01*
X172872186Y-78804520D01*
X172967424Y-78852140D01*
X173015043Y-78899759D01*
X173062662Y-78994997D01*
X173062662Y-79137854D01*
X173015043Y-79233092D01*
X172967424Y-79280711D01*
X172872186Y-79328330D01*
X172491234Y-79328330D01*
X174015043Y-79804520D02*
X173443615Y-79804520D01*
X173729329Y-79804520D02*
X173729329Y-78804520D01*
X173634091Y-78947378D01*
X173538853Y-79042616D01*
X173443615Y-79090235D01*
X174967424Y-79804520D02*
X174395996Y-79804520D01*
X174681710Y-79804520D02*
X174681710Y-78804520D01*
X174586472Y-78947378D01*
X174491234Y-79042616D01*
X174395996Y-79090235D01*
X173052502Y-78498960D02*
X172719169Y-78022770D01*
X172481074Y-78498960D02*
X172481074Y-77498960D01*
X172862026Y-77498960D01*
X172957264Y-77546580D01*
X173004883Y-77594199D01*
X173052502Y-77689437D01*
X173052502Y-77832294D01*
X173004883Y-77927532D01*
X172957264Y-77975151D01*
X172862026Y-78022770D01*
X172481074Y-78022770D01*
X174004883Y-78498960D02*
X173433455Y-78498960D01*
X173719169Y-78498960D02*
X173719169Y-77498960D01*
X173623931Y-77641818D01*
X173528693Y-77737056D01*
X173433455Y-77784675D01*
X174623931Y-77498960D02*
X174719169Y-77498960D01*
X174814407Y-77546580D01*
X174862026Y-77594199D01*
X174909645Y-77689437D01*
X174957264Y-77879913D01*
X174957264Y-78118008D01*
X174909645Y-78308484D01*
X174862026Y-78403722D01*
X174814407Y-78451341D01*
X174719169Y-78498960D01*
X174623931Y-78498960D01*
X174528693Y-78451341D01*
X174481074Y-78403722D01*
X174433455Y-78308484D01*
X174385836Y-78118008D01*
X174385836Y-77879913D01*
X174433455Y-77689437D01*
X174481074Y-77594199D01*
X174528693Y-77546580D01*
X174623931Y-77498960D01*
X179024540Y-91700646D02*
X178548350Y-92033980D01*
X179024540Y-92272075D02*
X178024540Y-92272075D01*
X178024540Y-91891122D01*
X178072160Y-91795884D01*
X178119779Y-91748265D01*
X178215017Y-91700646D01*
X178357874Y-91700646D01*
X178453112Y-91748265D01*
X178500731Y-91795884D01*
X178548350Y-91891122D01*
X178548350Y-92272075D01*
X179024540Y-91224456D02*
X179024540Y-91033980D01*
X178976921Y-90938741D01*
X178929302Y-90891122D01*
X178786445Y-90795884D01*
X178595969Y-90748265D01*
X178215017Y-90748265D01*
X178119779Y-90795884D01*
X178072160Y-90843503D01*
X178024540Y-90938741D01*
X178024540Y-91129218D01*
X178072160Y-91224456D01*
X178119779Y-91272075D01*
X178215017Y-91319694D01*
X178453112Y-91319694D01*
X178548350Y-91272075D01*
X178595969Y-91224456D01*
X178643588Y-91129218D01*
X178643588Y-90938741D01*
X178595969Y-90843503D01*
X178548350Y-90795884D01*
X178453112Y-90748265D01*
X145499080Y-87161666D02*
X145022890Y-87495000D01*
X145499080Y-87733095D02*
X144499080Y-87733095D01*
X144499080Y-87352142D01*
X144546700Y-87256904D01*
X144594319Y-87209285D01*
X144689557Y-87161666D01*
X144832414Y-87161666D01*
X144927652Y-87209285D01*
X144975271Y-87256904D01*
X145022890Y-87352142D01*
X145022890Y-87733095D01*
X144927652Y-86590238D02*
X144880033Y-86685476D01*
X144832414Y-86733095D01*
X144737176Y-86780714D01*
X144689557Y-86780714D01*
X144594319Y-86733095D01*
X144546700Y-86685476D01*
X144499080Y-86590238D01*
X144499080Y-86399761D01*
X144546700Y-86304523D01*
X144594319Y-86256904D01*
X144689557Y-86209285D01*
X144737176Y-86209285D01*
X144832414Y-86256904D01*
X144880033Y-86304523D01*
X144927652Y-86399761D01*
X144927652Y-86590238D01*
X144975271Y-86685476D01*
X145022890Y-86733095D01*
X145118128Y-86780714D01*
X145308604Y-86780714D01*
X145403842Y-86733095D01*
X145451461Y-86685476D01*
X145499080Y-86590238D01*
X145499080Y-86399761D01*
X145451461Y-86304523D01*
X145403842Y-86256904D01*
X145308604Y-86209285D01*
X145118128Y-86209285D01*
X145022890Y-86256904D01*
X144975271Y-86304523D01*
X144927652Y-86399761D01*
X152179280Y-87631566D02*
X151703090Y-87964900D01*
X152179280Y-88202995D02*
X151179280Y-88202995D01*
X151179280Y-87822042D01*
X151226900Y-87726804D01*
X151274519Y-87679185D01*
X151369757Y-87631566D01*
X151512614Y-87631566D01*
X151607852Y-87679185D01*
X151655471Y-87726804D01*
X151703090Y-87822042D01*
X151703090Y-88202995D01*
X151179280Y-87298233D02*
X151179280Y-86631566D01*
X152179280Y-87060138D01*
X137996633Y-85783680D02*
X137663300Y-85307490D01*
X137425204Y-85783680D02*
X137425204Y-84783680D01*
X137806157Y-84783680D01*
X137901395Y-84831300D01*
X137949014Y-84878919D01*
X137996633Y-84974157D01*
X137996633Y-85117014D01*
X137949014Y-85212252D01*
X137901395Y-85259871D01*
X137806157Y-85307490D01*
X137425204Y-85307490D01*
X138853776Y-84783680D02*
X138663300Y-84783680D01*
X138568061Y-84831300D01*
X138520442Y-84878919D01*
X138425204Y-85021776D01*
X138377585Y-85212252D01*
X138377585Y-85593204D01*
X138425204Y-85688442D01*
X138472823Y-85736061D01*
X138568061Y-85783680D01*
X138758538Y-85783680D01*
X138853776Y-85736061D01*
X138901395Y-85688442D01*
X138949014Y-85593204D01*
X138949014Y-85355109D01*
X138901395Y-85259871D01*
X138853776Y-85212252D01*
X138758538Y-85164633D01*
X138568061Y-85164633D01*
X138472823Y-85212252D01*
X138425204Y-85259871D01*
X138377585Y-85355109D01*
X138276033Y-87571840D02*
X137942700Y-87095650D01*
X137704604Y-87571840D02*
X137704604Y-86571840D01*
X138085557Y-86571840D01*
X138180795Y-86619460D01*
X138228414Y-86667079D01*
X138276033Y-86762317D01*
X138276033Y-86905174D01*
X138228414Y-87000412D01*
X138180795Y-87048031D01*
X138085557Y-87095650D01*
X137704604Y-87095650D01*
X139180795Y-86571840D02*
X138704604Y-86571840D01*
X138656985Y-87048031D01*
X138704604Y-87000412D01*
X138799842Y-86952793D01*
X139037938Y-86952793D01*
X139133176Y-87000412D01*
X139180795Y-87048031D01*
X139228414Y-87143269D01*
X139228414Y-87381364D01*
X139180795Y-87476602D01*
X139133176Y-87524221D01*
X139037938Y-87571840D01*
X138799842Y-87571840D01*
X138704604Y-87524221D01*
X138656985Y-87476602D01*
X149967653Y-84169542D02*
X149920034Y-84217161D01*
X149777177Y-84264780D01*
X149681939Y-84264780D01*
X149539081Y-84217161D01*
X149443843Y-84121923D01*
X149396224Y-84026685D01*
X149348605Y-83836209D01*
X149348605Y-83693352D01*
X149396224Y-83502876D01*
X149443843Y-83407638D01*
X149539081Y-83312400D01*
X149681939Y-83264780D01*
X149777177Y-83264780D01*
X149920034Y-83312400D01*
X149967653Y-83360019D01*
X150824796Y-83598114D02*
X150824796Y-84264780D01*
X150586700Y-83217161D02*
X150348605Y-83931447D01*
X150967653Y-83931447D01*
X148845542Y-90463666D02*
X148893161Y-90511285D01*
X148940780Y-90654142D01*
X148940780Y-90749380D01*
X148893161Y-90892238D01*
X148797923Y-90987476D01*
X148702685Y-91035095D01*
X148512209Y-91082714D01*
X148369352Y-91082714D01*
X148178876Y-91035095D01*
X148083638Y-90987476D01*
X147988400Y-90892238D01*
X147940780Y-90749380D01*
X147940780Y-90654142D01*
X147988400Y-90511285D01*
X148036019Y-90463666D01*
X147940780Y-90130333D02*
X147940780Y-89511285D01*
X148321733Y-89844619D01*
X148321733Y-89701761D01*
X148369352Y-89606523D01*
X148416971Y-89558904D01*
X148512209Y-89511285D01*
X148750304Y-89511285D01*
X148845542Y-89558904D01*
X148893161Y-89606523D01*
X148940780Y-89701761D01*
X148940780Y-89987476D01*
X148893161Y-90082714D01*
X148845542Y-90130333D01*
X172223702Y-91751446D02*
X172271321Y-91799065D01*
X172318940Y-91941922D01*
X172318940Y-92037160D01*
X172271321Y-92180018D01*
X172176083Y-92275256D01*
X172080845Y-92322875D01*
X171890369Y-92370494D01*
X171747512Y-92370494D01*
X171557036Y-92322875D01*
X171461798Y-92275256D01*
X171366560Y-92180018D01*
X171318940Y-92037160D01*
X171318940Y-91941922D01*
X171366560Y-91799065D01*
X171414179Y-91751446D01*
X171414179Y-91370494D02*
X171366560Y-91322875D01*
X171318940Y-91227637D01*
X171318940Y-90989541D01*
X171366560Y-90894303D01*
X171414179Y-90846684D01*
X171509417Y-90799065D01*
X171604655Y-90799065D01*
X171747512Y-90846684D01*
X172318940Y-91418113D01*
X172318940Y-90799065D01*
X166863733Y-77941442D02*
X166816114Y-77989061D01*
X166673257Y-78036680D01*
X166578019Y-78036680D01*
X166435161Y-77989061D01*
X166339923Y-77893823D01*
X166292304Y-77798585D01*
X166244685Y-77608109D01*
X166244685Y-77465252D01*
X166292304Y-77274776D01*
X166339923Y-77179538D01*
X166435161Y-77084300D01*
X166578019Y-77036680D01*
X166673257Y-77036680D01*
X166816114Y-77084300D01*
X166863733Y-77131919D01*
X167816114Y-78036680D02*
X167244685Y-78036680D01*
X167530400Y-78036680D02*
X167530400Y-77036680D01*
X167435161Y-77179538D01*
X167339923Y-77274776D01*
X167244685Y-77322395D01*
X134643904Y-78582780D02*
X134643904Y-77582780D01*
X134882000Y-77582780D01*
X135024857Y-77630400D01*
X135120095Y-77725638D01*
X135167714Y-77820876D01*
X135215333Y-78011352D01*
X135215333Y-78154209D01*
X135167714Y-78344685D01*
X135120095Y-78439923D01*
X135024857Y-78535161D01*
X134882000Y-78582780D01*
X134643904Y-78582780D01*
X135548666Y-77582780D02*
X136167714Y-77582780D01*
X135834380Y-77963733D01*
X135977238Y-77963733D01*
X136072476Y-78011352D01*
X136120095Y-78058971D01*
X136167714Y-78154209D01*
X136167714Y-78392304D01*
X136120095Y-78487542D01*
X136072476Y-78535161D01*
X135977238Y-78582780D01*
X135691523Y-78582780D01*
X135596285Y-78535161D01*
X135548666Y-78487542D01*
X134389904Y-83853280D02*
X134389904Y-82853280D01*
X134628000Y-82853280D01*
X134770857Y-82900900D01*
X134866095Y-82996138D01*
X134913714Y-83091376D01*
X134961333Y-83281852D01*
X134961333Y-83424709D01*
X134913714Y-83615185D01*
X134866095Y-83710423D01*
X134770857Y-83805661D01*
X134628000Y-83853280D01*
X134389904Y-83853280D01*
X135342285Y-82948519D02*
X135389904Y-82900900D01*
X135485142Y-82853280D01*
X135723238Y-82853280D01*
X135818476Y-82900900D01*
X135866095Y-82948519D01*
X135913714Y-83043757D01*
X135913714Y-83138995D01*
X135866095Y-83281852D01*
X135294666Y-83853280D01*
X135913714Y-83853280D01*
X170544264Y-94551760D02*
X170544264Y-93551760D01*
X170782360Y-93551760D01*
X170925217Y-93599380D01*
X171020455Y-93694618D01*
X171068074Y-93789856D01*
X171115693Y-93980332D01*
X171115693Y-94123189D01*
X171068074Y-94313665D01*
X171020455Y-94408903D01*
X170925217Y-94504141D01*
X170782360Y-94551760D01*
X170544264Y-94551760D01*
X172068074Y-94551760D02*
X171496645Y-94551760D01*
X171782360Y-94551760D02*
X171782360Y-93551760D01*
X171687121Y-93694618D01*
X171591883Y-93789856D01*
X171496645Y-93837475D01*
X177408531Y-81905694D02*
X177456150Y-81762837D01*
X177503769Y-81715218D01*
X177599007Y-81667599D01*
X177741864Y-81667599D01*
X177837102Y-81715218D01*
X177884721Y-81762837D01*
X177932340Y-81858075D01*
X177932340Y-82239027D01*
X176932340Y-82239027D01*
X176932340Y-81905694D01*
X176979960Y-81810456D01*
X177027579Y-81762837D01*
X177122817Y-81715218D01*
X177218055Y-81715218D01*
X177313293Y-81762837D01*
X177360912Y-81810456D01*
X177408531Y-81905694D01*
X177408531Y-82239027D01*
X176932340Y-81381884D02*
X176932340Y-80810456D01*
X177932340Y-81096170D02*
X176932340Y-81096170D01*
X177932340Y-79953313D02*
X177932340Y-80524741D01*
X177932340Y-80239027D02*
X176932340Y-80239027D01*
X177075198Y-80334265D01*
X177170436Y-80429503D01*
X177218055Y-80524741D01*
X150756880Y-93603106D02*
X150756880Y-94079297D01*
X149756880Y-94079297D01*
X150756880Y-92745963D02*
X150756880Y-93317392D01*
X150756880Y-93031678D02*
X149756880Y-93031678D01*
X149899738Y-93126916D01*
X149994976Y-93222154D01*
X150042595Y-93317392D01*
M02*
