M48
; DRILL file {KiCad (5.1.4)-1} date 2/24/2020 10:19:22 AM
; FORMAT={-:-/ absolute / inch / decimal}
; #@! TF.CreationDate,2020-02-24T10:19:22-05:00
; #@! TF.GenerationSoftware,Kicad,Pcbnew,(5.1.4)-1
; #@! TF.FileFunction,Plated,1,2,PTH
FMAT,2
INCH
T1C0.0120
T2C0.0130
T3C0.0394
T4C0.0866
%
G90
G05
T1
X6.7335Y-3.618
X6.802Y-3.449
X6.8335Y-3.4355
X6.8795Y-3.3805
T2
X5.109Y-3.143
X5.109Y-3.254
X5.1224Y-3.4776
X5.2275Y-3.2555
X5.2422Y-3.134
X5.2444Y-3.0982
X5.2495Y-3.169
X5.2553Y-3.2297
X5.2678Y-3.0139
X5.2688Y-3.7056
X5.274Y-3.1909
X5.2807Y-2.9699
X5.2945Y-3.318
X5.2959Y-3.6702
X5.2962Y-3.0841
X5.2999Y-3.2815
X5.3045Y-2.9965
X5.3105Y-3.395
X5.3142Y-3.7116
X5.3165Y-3.5035
X5.3195Y-2.9635
X5.3235Y-3.049
X5.3335Y-3.3175
X5.3337Y-3.6702
X5.3355Y-3.4735
X5.3376Y-3.1977
X5.3475Y-3.0865
X5.3481Y-3.2773
X5.3562Y-2.9688
X5.359Y-3.436
X5.3695Y-3.3185
X5.3736Y-3.5128
X5.377Y-3.6697
X5.3815Y-3.4625
X5.4085Y-3.3725
X5.409Y-3.427
X5.4095Y-3.4745
X5.415Y-3.3185
X5.4179Y-3.6707
X5.4538Y-3.5977
X5.457Y-3.321
X5.4592Y-3.6683
X5.4635Y-3.4275
X5.464Y-3.474
X5.4655Y-3.387
X5.476Y-2.9572
X5.4874Y-3.5132
X5.4975Y-3.318
X5.5011Y-2.98
X5.5018Y-3.6671
X5.5026Y-3.4646
X5.5228Y-3.1998
X5.5355Y-3.3215
X5.539Y-3.032
X5.542Y-2.9975
X5.5705Y-2.9558
X5.576Y-3.3185
X5.582Y-3.461
X5.5938Y-2.979
X5.5985Y-3.3965
X5.599Y-3.3605
X5.6158Y-3.0029
X5.6236Y-3.3362
X5.6238Y-3.4646
X5.6546Y-3.0034
X5.6675Y-3.2075
X5.686Y-3.532
X5.6864Y-3.3368
X5.6864Y-3.4646
X5.6885Y-3.562
X5.6885Y-3.5895
X5.6885Y-3.622
X5.6885Y-3.6545
X5.6885Y-3.687
X5.691Y-3.722
X5.6911Y-3.2308
X5.695Y-3.293
X5.7105Y-3.361
X5.711Y-3.395
X5.714Y-3.4415
X5.7168Y-3.4918
X5.7185Y-3.532
X5.7208Y-3.631
X5.7215Y-3.1285
X5.7215Y-3.1285
X5.7355Y-3.7325
X5.7385Y-3.207
X5.751Y-3.532
X5.7548Y-3.631
X5.7575Y-3.1305
X5.759Y-3.3545
X5.766Y-3.2375
X5.7695Y-3.734
X5.781Y-3.531
X5.7828Y-3.3307
X5.7895Y-3.089
X5.796Y-3.469
X5.801Y-3.507
X5.803Y-3.407
X5.807Y-3.3075
X5.807Y-3.4385
X5.814Y-3.725
X5.815Y-3.546
X5.822Y-3.583
X5.828Y-3.68
X5.832Y-3.394
X5.833Y-3.2395
X5.835Y-3.1215
X5.842Y-3.709
X5.847Y-3.2065
X5.851Y-3.583
X5.856Y-3.68
X5.867Y-3.394
X5.8701Y-3.7337
X5.884Y-3.68
X5.9005Y-3.394
X5.9107Y-3.7144
X5.912Y-3.68
X5.9385Y-3.3965
X5.94Y-3.68
X5.945Y-3.267
X5.951Y-3.5875
X5.9514Y-3.149
X5.9566Y-3.706
X5.965Y-3.735
X5.966Y-3.417
X5.985Y-3.445
X5.998Y-3.716
X6.0185Y-3.4595
X6.0325Y-3.717
X6.0516Y-3.438
X6.079Y-3.455
X6.079Y-3.487
X6.079Y-3.519
X6.079Y-3.551
X6.079Y-3.583
X6.079Y-3.615
X6.079Y-3.647
X6.079Y-3.679
X6.079Y-3.711
X6.1Y-3.125
X6.1Y-3.2
X6.1Y-3.275
X6.1Y-3.35
X6.1Y-3.425
X6.11Y-3.58
X6.11Y-3.65
X6.1353Y-3.1638
X6.175Y-3.125
X6.175Y-3.2
X6.175Y-3.275
X6.175Y-3.35
X6.175Y-3.425
X6.175Y-3.5
X6.175Y-3.575
X6.175Y-3.65
X6.175Y-3.725
X6.25Y-3.125
X6.25Y-3.2
X6.25Y-3.275
X6.25Y-3.35
X6.25Y-3.425
X6.25Y-3.5
X6.25Y-3.575
X6.25Y-3.65
X6.25Y-3.725
X6.2729Y-3.6856
X6.2876Y-3.0447
X6.3246Y-3.0433
X6.325Y-3.125
X6.325Y-3.2
X6.325Y-3.275
X6.325Y-3.35
X6.325Y-3.425
X6.325Y-3.5
X6.325Y-3.575
X6.325Y-3.65
X6.325Y-3.725
X6.3574Y-3.7293
X6.366Y-3.0433
X6.381Y-3.7052
X6.3899Y-3.6721
X6.4Y-3.125
X6.4Y-3.2
X6.4Y-3.275
X6.4Y-3.35
X6.4Y-3.425
X6.4Y-3.5
X6.4Y-3.575
X6.4066Y-3.0445
X6.4078Y-3.6401
X6.426Y-3.2326
X6.4273Y-3.1653
X6.4279Y-3.3925
X6.4296Y-3.3602
X6.4299Y-3.2889
X6.4301Y-3.3278
X6.4315Y-3.5435
X6.4325Y-3.6095
X6.434Y-3.4745
X6.44Y-3.719
X6.49Y-3.72
X6.5232Y-3.7118
X6.5283Y-3.0767
X6.5488Y-3.4656
X6.5506Y-3.7246
X6.5568Y-3.6542
X6.5568Y-3.6938
X6.5645Y-3.22
X6.5658Y-3.6052
X6.6049Y-3.4486
X6.6075Y-3.22
X6.6135Y-3.601
X6.6363Y-3.4493
X6.637Y-3.399
X6.642Y-3.3265
X6.6505Y-3.2245
X6.6555Y-3.599
X6.657Y-3.0585
X6.658Y-3.1175
X6.6616Y-3.7408
X6.6725Y-3.4365
X6.6765Y-3.3175
X6.69Y-3.383
X6.692Y-3.2345
X6.6945Y-3.287
X6.7037Y-3.596
X6.7235Y-3.421
X6.7305Y-3.2905
X6.7325Y-3.523
X6.7325Y-3.561
X6.7392Y-3.4878
X6.752Y-3.68
X6.7576Y-3.7286
X6.7585Y-3.4205
X6.7645Y-3.0205
X6.7649Y-3.4621
X6.766Y-3.2905
X6.7802Y-3.1668
X6.781Y-3.2035
X6.7925Y-3.417
X6.8Y-3.29
X6.8149Y-3.5347
X6.825Y-3.097
X6.8267Y-3.2492
X6.8282Y-3.702
X6.8455Y-3.281
X6.8455Y-3.316
X6.8492Y-3.0426
X6.853Y-3.522
X6.8585Y-3.113
X6.875Y-3.4955
X6.8751Y-3.0713
X6.8772Y-3.0165
X6.879Y-3.249
X6.8815Y-3.7491
X6.884Y-3.458
X6.885Y-3.4165
X6.8872Y-3.7939
X6.8992Y-2.9741
X6.9079Y-3.0932
X6.909Y-3.3535
X6.924Y-3.252
X6.938Y-3.324
X6.943Y-3.434
X6.9455Y-3.516
X6.9535Y-3.2905
X6.9605Y-3.255
X6.961Y-3.111
X6.98Y-3.221
X6.984Y-3.3525
X6.9856Y-3.1806
X6.9885Y-3.145
X7.0235Y-3.2715
X7.0282Y-3.677
X7.029Y-3.43
X7.0302Y-3.0878
X7.0302Y-3.6029
X7.0306Y-3.5244
T3
X5.3145Y-3.783
X5.4145Y-3.783
X5.5145Y-3.783
X5.6145Y-3.783
X5.7145Y-3.783
X5.8145Y-3.783
X5.9145Y-3.783
X6.0145Y-3.783
X6.1145Y-3.783
X6.2145Y-3.783
X6.3145Y-3.783
X6.4145Y-3.783
X6.5145Y-3.783
X6.6145Y-3.783
X6.7145Y-3.783
X6.8145Y-3.783
X5.7145Y-2.983
X5.8145Y-2.983
X5.9145Y-2.983
X6.0145Y-2.983
X6.1145Y-2.983
X6.2145Y-2.983
X6.3145Y-2.983
X6.4145Y-2.983
X6.5145Y-2.983
X6.6145Y-2.983
X6.7145Y-2.983
X6.8145Y-2.983
T4
X5.1645Y-3.733
X5.1645Y-3.033
T0
M30
