G04 #@! TF.GenerationSoftware,KiCad,Pcbnew,(5.1.4)-1*
G04 #@! TF.CreationDate,2020-01-22T19:52:42-05:00*
G04 #@! TF.ProjectId,Feather-NEO-M9N-GPS,46656174-6865-4722-9d4e-454f2d4d394e,rev?*
G04 #@! TF.SameCoordinates,Original*
G04 #@! TF.FileFunction,Copper,L1,Top*
G04 #@! TF.FilePolarity,Positive*
%FSLAX46Y46*%
G04 Gerber Fmt 4.6, Leading zero omitted, Abs format (unit mm)*
G04 Created by KiCad (PCBNEW (5.1.4)-1) date 2020-01-22 19:52:42*
%MOMM*%
%LPD*%
G04 APERTURE LIST*
%ADD10C,0.100000*%
%ADD11R,1.800000X0.800000*%
%ADD12R,0.325000X0.250000*%
%ADD13R,1.050000X0.500000*%
%ADD14R,1.050000X1.000000*%
%ADD15R,2.200000X1.050000*%
%ADD16C,0.875000*%
%ADD17R,1.060000X0.650000*%
%ADD18R,1.900000X1.175000*%
%ADD19R,1.900000X2.375000*%
%ADD20R,2.100000X1.475000*%
%ADD21R,1.380000X0.450000*%
%ADD22C,0.500000*%
%ADD23R,0.500000X0.500000*%
%ADD24R,0.800000X2.000000*%
%ADD25C,0.975000*%
%ADD26C,3.800000*%
%ADD27O,1.700000X1.700000*%
%ADD28R,1.700000X1.700000*%
%ADD29C,0.660400*%
%ADD30C,0.152400*%
%ADD31C,0.381000*%
%ADD32C,0.254000*%
%ADD33C,0.508000*%
%ADD34C,0.304800*%
%ADD35C,0.778834*%
G04 APERTURE END LIST*
D10*
G36*
X145182780Y-81869560D02*
G01*
X145682780Y-81869560D01*
X145682780Y-81269560D01*
X145182780Y-81269560D01*
X145182780Y-81869560D01*
G37*
G36*
X145157380Y-79713100D02*
G01*
X145657380Y-79713100D01*
X145657380Y-79113100D01*
X145157380Y-79113100D01*
X145157380Y-79713100D01*
G37*
D11*
X164902400Y-79347300D03*
X164902400Y-80447300D03*
X164902400Y-81547300D03*
X164902400Y-82647300D03*
X164902400Y-83747300D03*
X164902400Y-84847300D03*
X164902400Y-85947300D03*
X164902400Y-88947300D03*
X164902400Y-90047300D03*
X164902400Y-91147300D03*
X164902400Y-92247300D03*
X164902400Y-93347300D03*
X152902400Y-93347300D03*
X152902400Y-92247300D03*
X152902400Y-91147300D03*
X152902400Y-90047300D03*
X152902400Y-88947300D03*
X152902400Y-85947300D03*
X152902400Y-84847300D03*
X152902400Y-83747300D03*
X152902400Y-82647300D03*
X152902400Y-81547300D03*
X152902400Y-80447300D03*
X152902400Y-79347300D03*
D12*
X136252400Y-85529800D03*
X136252400Y-86029800D03*
X136252400Y-86529800D03*
X135578400Y-86529800D03*
X135578400Y-86029800D03*
X135578400Y-85529800D03*
D13*
X136453800Y-94208600D03*
X138729800Y-94208600D03*
X141063900Y-89128600D03*
X143339900Y-89128600D03*
D14*
X147663900Y-92252800D03*
D15*
X146138900Y-90777800D03*
X146138900Y-93727800D03*
D10*
G36*
X141323891Y-90177953D02*
G01*
X141345126Y-90181103D01*
X141365950Y-90186319D01*
X141386162Y-90193551D01*
X141405568Y-90202730D01*
X141423981Y-90213766D01*
X141441224Y-90226554D01*
X141457130Y-90240970D01*
X141471546Y-90256876D01*
X141484334Y-90274119D01*
X141495370Y-90292532D01*
X141504549Y-90311938D01*
X141511781Y-90332150D01*
X141516997Y-90352974D01*
X141520147Y-90374209D01*
X141521200Y-90395650D01*
X141521200Y-90833150D01*
X141520147Y-90854591D01*
X141516997Y-90875826D01*
X141511781Y-90896650D01*
X141504549Y-90916862D01*
X141495370Y-90936268D01*
X141484334Y-90954681D01*
X141471546Y-90971924D01*
X141457130Y-90987830D01*
X141441224Y-91002246D01*
X141423981Y-91015034D01*
X141405568Y-91026070D01*
X141386162Y-91035249D01*
X141365950Y-91042481D01*
X141345126Y-91047697D01*
X141323891Y-91050847D01*
X141302450Y-91051900D01*
X140789950Y-91051900D01*
X140768509Y-91050847D01*
X140747274Y-91047697D01*
X140726450Y-91042481D01*
X140706238Y-91035249D01*
X140686832Y-91026070D01*
X140668419Y-91015034D01*
X140651176Y-91002246D01*
X140635270Y-90987830D01*
X140620854Y-90971924D01*
X140608066Y-90954681D01*
X140597030Y-90936268D01*
X140587851Y-90916862D01*
X140580619Y-90896650D01*
X140575403Y-90875826D01*
X140572253Y-90854591D01*
X140571200Y-90833150D01*
X140571200Y-90395650D01*
X140572253Y-90374209D01*
X140575403Y-90352974D01*
X140580619Y-90332150D01*
X140587851Y-90311938D01*
X140597030Y-90292532D01*
X140608066Y-90274119D01*
X140620854Y-90256876D01*
X140635270Y-90240970D01*
X140651176Y-90226554D01*
X140668419Y-90213766D01*
X140686832Y-90202730D01*
X140706238Y-90193551D01*
X140726450Y-90186319D01*
X140747274Y-90181103D01*
X140768509Y-90177953D01*
X140789950Y-90176900D01*
X141302450Y-90176900D01*
X141323891Y-90177953D01*
X141323891Y-90177953D01*
G37*
D16*
X141046200Y-90614400D03*
D10*
G36*
X141323891Y-91752953D02*
G01*
X141345126Y-91756103D01*
X141365950Y-91761319D01*
X141386162Y-91768551D01*
X141405568Y-91777730D01*
X141423981Y-91788766D01*
X141441224Y-91801554D01*
X141457130Y-91815970D01*
X141471546Y-91831876D01*
X141484334Y-91849119D01*
X141495370Y-91867532D01*
X141504549Y-91886938D01*
X141511781Y-91907150D01*
X141516997Y-91927974D01*
X141520147Y-91949209D01*
X141521200Y-91970650D01*
X141521200Y-92408150D01*
X141520147Y-92429591D01*
X141516997Y-92450826D01*
X141511781Y-92471650D01*
X141504549Y-92491862D01*
X141495370Y-92511268D01*
X141484334Y-92529681D01*
X141471546Y-92546924D01*
X141457130Y-92562830D01*
X141441224Y-92577246D01*
X141423981Y-92590034D01*
X141405568Y-92601070D01*
X141386162Y-92610249D01*
X141365950Y-92617481D01*
X141345126Y-92622697D01*
X141323891Y-92625847D01*
X141302450Y-92626900D01*
X140789950Y-92626900D01*
X140768509Y-92625847D01*
X140747274Y-92622697D01*
X140726450Y-92617481D01*
X140706238Y-92610249D01*
X140686832Y-92601070D01*
X140668419Y-92590034D01*
X140651176Y-92577246D01*
X140635270Y-92562830D01*
X140620854Y-92546924D01*
X140608066Y-92529681D01*
X140597030Y-92511268D01*
X140587851Y-92491862D01*
X140580619Y-92471650D01*
X140575403Y-92450826D01*
X140572253Y-92429591D01*
X140571200Y-92408150D01*
X140571200Y-91970650D01*
X140572253Y-91949209D01*
X140575403Y-91927974D01*
X140580619Y-91907150D01*
X140587851Y-91886938D01*
X140597030Y-91867532D01*
X140608066Y-91849119D01*
X140620854Y-91831876D01*
X140635270Y-91815970D01*
X140651176Y-91801554D01*
X140668419Y-91788766D01*
X140686832Y-91777730D01*
X140706238Y-91768551D01*
X140726450Y-91761319D01*
X140747274Y-91756103D01*
X140768509Y-91752953D01*
X140789950Y-91751900D01*
X141302450Y-91751900D01*
X141323891Y-91752953D01*
X141323891Y-91752953D01*
G37*
D16*
X141046200Y-92189400D03*
D10*
G36*
X142682791Y-90177953D02*
G01*
X142704026Y-90181103D01*
X142724850Y-90186319D01*
X142745062Y-90193551D01*
X142764468Y-90202730D01*
X142782881Y-90213766D01*
X142800124Y-90226554D01*
X142816030Y-90240970D01*
X142830446Y-90256876D01*
X142843234Y-90274119D01*
X142854270Y-90292532D01*
X142863449Y-90311938D01*
X142870681Y-90332150D01*
X142875897Y-90352974D01*
X142879047Y-90374209D01*
X142880100Y-90395650D01*
X142880100Y-90833150D01*
X142879047Y-90854591D01*
X142875897Y-90875826D01*
X142870681Y-90896650D01*
X142863449Y-90916862D01*
X142854270Y-90936268D01*
X142843234Y-90954681D01*
X142830446Y-90971924D01*
X142816030Y-90987830D01*
X142800124Y-91002246D01*
X142782881Y-91015034D01*
X142764468Y-91026070D01*
X142745062Y-91035249D01*
X142724850Y-91042481D01*
X142704026Y-91047697D01*
X142682791Y-91050847D01*
X142661350Y-91051900D01*
X142148850Y-91051900D01*
X142127409Y-91050847D01*
X142106174Y-91047697D01*
X142085350Y-91042481D01*
X142065138Y-91035249D01*
X142045732Y-91026070D01*
X142027319Y-91015034D01*
X142010076Y-91002246D01*
X141994170Y-90987830D01*
X141979754Y-90971924D01*
X141966966Y-90954681D01*
X141955930Y-90936268D01*
X141946751Y-90916862D01*
X141939519Y-90896650D01*
X141934303Y-90875826D01*
X141931153Y-90854591D01*
X141930100Y-90833150D01*
X141930100Y-90395650D01*
X141931153Y-90374209D01*
X141934303Y-90352974D01*
X141939519Y-90332150D01*
X141946751Y-90311938D01*
X141955930Y-90292532D01*
X141966966Y-90274119D01*
X141979754Y-90256876D01*
X141994170Y-90240970D01*
X142010076Y-90226554D01*
X142027319Y-90213766D01*
X142045732Y-90202730D01*
X142065138Y-90193551D01*
X142085350Y-90186319D01*
X142106174Y-90181103D01*
X142127409Y-90177953D01*
X142148850Y-90176900D01*
X142661350Y-90176900D01*
X142682791Y-90177953D01*
X142682791Y-90177953D01*
G37*
D16*
X142405100Y-90614400D03*
D10*
G36*
X142682791Y-91752953D02*
G01*
X142704026Y-91756103D01*
X142724850Y-91761319D01*
X142745062Y-91768551D01*
X142764468Y-91777730D01*
X142782881Y-91788766D01*
X142800124Y-91801554D01*
X142816030Y-91815970D01*
X142830446Y-91831876D01*
X142843234Y-91849119D01*
X142854270Y-91867532D01*
X142863449Y-91886938D01*
X142870681Y-91907150D01*
X142875897Y-91927974D01*
X142879047Y-91949209D01*
X142880100Y-91970650D01*
X142880100Y-92408150D01*
X142879047Y-92429591D01*
X142875897Y-92450826D01*
X142870681Y-92471650D01*
X142863449Y-92491862D01*
X142854270Y-92511268D01*
X142843234Y-92529681D01*
X142830446Y-92546924D01*
X142816030Y-92562830D01*
X142800124Y-92577246D01*
X142782881Y-92590034D01*
X142764468Y-92601070D01*
X142745062Y-92610249D01*
X142724850Y-92617481D01*
X142704026Y-92622697D01*
X142682791Y-92625847D01*
X142661350Y-92626900D01*
X142148850Y-92626900D01*
X142127409Y-92625847D01*
X142106174Y-92622697D01*
X142085350Y-92617481D01*
X142065138Y-92610249D01*
X142045732Y-92601070D01*
X142027319Y-92590034D01*
X142010076Y-92577246D01*
X141994170Y-92562830D01*
X141979754Y-92546924D01*
X141966966Y-92529681D01*
X141955930Y-92511268D01*
X141946751Y-92491862D01*
X141939519Y-92471650D01*
X141934303Y-92450826D01*
X141931153Y-92429591D01*
X141930100Y-92408150D01*
X141930100Y-91970650D01*
X141931153Y-91949209D01*
X141934303Y-91927974D01*
X141939519Y-91907150D01*
X141946751Y-91886938D01*
X141955930Y-91867532D01*
X141966966Y-91849119D01*
X141979754Y-91831876D01*
X141994170Y-91815970D01*
X142010076Y-91801554D01*
X142027319Y-91788766D01*
X142045732Y-91777730D01*
X142065138Y-91768551D01*
X142085350Y-91761319D01*
X142106174Y-91756103D01*
X142127409Y-91752953D01*
X142148850Y-91751900D01*
X142661350Y-91751900D01*
X142682791Y-91752953D01*
X142682791Y-91752953D01*
G37*
D16*
X142405100Y-92189400D03*
D10*
G36*
X134821491Y-90165253D02*
G01*
X134842726Y-90168403D01*
X134863550Y-90173619D01*
X134883762Y-90180851D01*
X134903168Y-90190030D01*
X134921581Y-90201066D01*
X134938824Y-90213854D01*
X134954730Y-90228270D01*
X134969146Y-90244176D01*
X134981934Y-90261419D01*
X134992970Y-90279832D01*
X135002149Y-90299238D01*
X135009381Y-90319450D01*
X135014597Y-90340274D01*
X135017747Y-90361509D01*
X135018800Y-90382950D01*
X135018800Y-90820450D01*
X135017747Y-90841891D01*
X135014597Y-90863126D01*
X135009381Y-90883950D01*
X135002149Y-90904162D01*
X134992970Y-90923568D01*
X134981934Y-90941981D01*
X134969146Y-90959224D01*
X134954730Y-90975130D01*
X134938824Y-90989546D01*
X134921581Y-91002334D01*
X134903168Y-91013370D01*
X134883762Y-91022549D01*
X134863550Y-91029781D01*
X134842726Y-91034997D01*
X134821491Y-91038147D01*
X134800050Y-91039200D01*
X134287550Y-91039200D01*
X134266109Y-91038147D01*
X134244874Y-91034997D01*
X134224050Y-91029781D01*
X134203838Y-91022549D01*
X134184432Y-91013370D01*
X134166019Y-91002334D01*
X134148776Y-90989546D01*
X134132870Y-90975130D01*
X134118454Y-90959224D01*
X134105666Y-90941981D01*
X134094630Y-90923568D01*
X134085451Y-90904162D01*
X134078219Y-90883950D01*
X134073003Y-90863126D01*
X134069853Y-90841891D01*
X134068800Y-90820450D01*
X134068800Y-90382950D01*
X134069853Y-90361509D01*
X134073003Y-90340274D01*
X134078219Y-90319450D01*
X134085451Y-90299238D01*
X134094630Y-90279832D01*
X134105666Y-90261419D01*
X134118454Y-90244176D01*
X134132870Y-90228270D01*
X134148776Y-90213854D01*
X134166019Y-90201066D01*
X134184432Y-90190030D01*
X134203838Y-90180851D01*
X134224050Y-90173619D01*
X134244874Y-90168403D01*
X134266109Y-90165253D01*
X134287550Y-90164200D01*
X134800050Y-90164200D01*
X134821491Y-90165253D01*
X134821491Y-90165253D01*
G37*
D16*
X134543800Y-90601700D03*
D10*
G36*
X134821491Y-91740253D02*
G01*
X134842726Y-91743403D01*
X134863550Y-91748619D01*
X134883762Y-91755851D01*
X134903168Y-91765030D01*
X134921581Y-91776066D01*
X134938824Y-91788854D01*
X134954730Y-91803270D01*
X134969146Y-91819176D01*
X134981934Y-91836419D01*
X134992970Y-91854832D01*
X135002149Y-91874238D01*
X135009381Y-91894450D01*
X135014597Y-91915274D01*
X135017747Y-91936509D01*
X135018800Y-91957950D01*
X135018800Y-92395450D01*
X135017747Y-92416891D01*
X135014597Y-92438126D01*
X135009381Y-92458950D01*
X135002149Y-92479162D01*
X134992970Y-92498568D01*
X134981934Y-92516981D01*
X134969146Y-92534224D01*
X134954730Y-92550130D01*
X134938824Y-92564546D01*
X134921581Y-92577334D01*
X134903168Y-92588370D01*
X134883762Y-92597549D01*
X134863550Y-92604781D01*
X134842726Y-92609997D01*
X134821491Y-92613147D01*
X134800050Y-92614200D01*
X134287550Y-92614200D01*
X134266109Y-92613147D01*
X134244874Y-92609997D01*
X134224050Y-92604781D01*
X134203838Y-92597549D01*
X134184432Y-92588370D01*
X134166019Y-92577334D01*
X134148776Y-92564546D01*
X134132870Y-92550130D01*
X134118454Y-92534224D01*
X134105666Y-92516981D01*
X134094630Y-92498568D01*
X134085451Y-92479162D01*
X134078219Y-92458950D01*
X134073003Y-92438126D01*
X134069853Y-92416891D01*
X134068800Y-92395450D01*
X134068800Y-91957950D01*
X134069853Y-91936509D01*
X134073003Y-91915274D01*
X134078219Y-91894450D01*
X134085451Y-91874238D01*
X134094630Y-91854832D01*
X134105666Y-91836419D01*
X134118454Y-91819176D01*
X134132870Y-91803270D01*
X134148776Y-91788854D01*
X134166019Y-91776066D01*
X134184432Y-91765030D01*
X134203838Y-91755851D01*
X134224050Y-91748619D01*
X134244874Y-91743403D01*
X134266109Y-91740253D01*
X134287550Y-91739200D01*
X134800050Y-91739200D01*
X134821491Y-91740253D01*
X134821491Y-91740253D01*
G37*
D16*
X134543800Y-92176700D03*
D17*
X139580800Y-90451900D03*
X139580800Y-92351900D03*
X137380800Y-92351900D03*
X137380800Y-91401900D03*
X137380800Y-90451900D03*
D10*
G36*
X136231191Y-91714853D02*
G01*
X136252426Y-91718003D01*
X136273250Y-91723219D01*
X136293462Y-91730451D01*
X136312868Y-91739630D01*
X136331281Y-91750666D01*
X136348524Y-91763454D01*
X136364430Y-91777870D01*
X136378846Y-91793776D01*
X136391634Y-91811019D01*
X136402670Y-91829432D01*
X136411849Y-91848838D01*
X136419081Y-91869050D01*
X136424297Y-91889874D01*
X136427447Y-91911109D01*
X136428500Y-91932550D01*
X136428500Y-92370050D01*
X136427447Y-92391491D01*
X136424297Y-92412726D01*
X136419081Y-92433550D01*
X136411849Y-92453762D01*
X136402670Y-92473168D01*
X136391634Y-92491581D01*
X136378846Y-92508824D01*
X136364430Y-92524730D01*
X136348524Y-92539146D01*
X136331281Y-92551934D01*
X136312868Y-92562970D01*
X136293462Y-92572149D01*
X136273250Y-92579381D01*
X136252426Y-92584597D01*
X136231191Y-92587747D01*
X136209750Y-92588800D01*
X135697250Y-92588800D01*
X135675809Y-92587747D01*
X135654574Y-92584597D01*
X135633750Y-92579381D01*
X135613538Y-92572149D01*
X135594132Y-92562970D01*
X135575719Y-92551934D01*
X135558476Y-92539146D01*
X135542570Y-92524730D01*
X135528154Y-92508824D01*
X135515366Y-92491581D01*
X135504330Y-92473168D01*
X135495151Y-92453762D01*
X135487919Y-92433550D01*
X135482703Y-92412726D01*
X135479553Y-92391491D01*
X135478500Y-92370050D01*
X135478500Y-91932550D01*
X135479553Y-91911109D01*
X135482703Y-91889874D01*
X135487919Y-91869050D01*
X135495151Y-91848838D01*
X135504330Y-91829432D01*
X135515366Y-91811019D01*
X135528154Y-91793776D01*
X135542570Y-91777870D01*
X135558476Y-91763454D01*
X135575719Y-91750666D01*
X135594132Y-91739630D01*
X135613538Y-91730451D01*
X135633750Y-91723219D01*
X135654574Y-91718003D01*
X135675809Y-91714853D01*
X135697250Y-91713800D01*
X136209750Y-91713800D01*
X136231191Y-91714853D01*
X136231191Y-91714853D01*
G37*
D16*
X135953500Y-92151300D03*
D10*
G36*
X136231191Y-90139853D02*
G01*
X136252426Y-90143003D01*
X136273250Y-90148219D01*
X136293462Y-90155451D01*
X136312868Y-90164630D01*
X136331281Y-90175666D01*
X136348524Y-90188454D01*
X136364430Y-90202870D01*
X136378846Y-90218776D01*
X136391634Y-90236019D01*
X136402670Y-90254432D01*
X136411849Y-90273838D01*
X136419081Y-90294050D01*
X136424297Y-90314874D01*
X136427447Y-90336109D01*
X136428500Y-90357550D01*
X136428500Y-90795050D01*
X136427447Y-90816491D01*
X136424297Y-90837726D01*
X136419081Y-90858550D01*
X136411849Y-90878762D01*
X136402670Y-90898168D01*
X136391634Y-90916581D01*
X136378846Y-90933824D01*
X136364430Y-90949730D01*
X136348524Y-90964146D01*
X136331281Y-90976934D01*
X136312868Y-90987970D01*
X136293462Y-90997149D01*
X136273250Y-91004381D01*
X136252426Y-91009597D01*
X136231191Y-91012747D01*
X136209750Y-91013800D01*
X135697250Y-91013800D01*
X135675809Y-91012747D01*
X135654574Y-91009597D01*
X135633750Y-91004381D01*
X135613538Y-90997149D01*
X135594132Y-90987970D01*
X135575719Y-90976934D01*
X135558476Y-90964146D01*
X135542570Y-90949730D01*
X135528154Y-90933824D01*
X135515366Y-90916581D01*
X135504330Y-90898168D01*
X135495151Y-90878762D01*
X135487919Y-90858550D01*
X135482703Y-90837726D01*
X135479553Y-90816491D01*
X135478500Y-90795050D01*
X135478500Y-90357550D01*
X135479553Y-90336109D01*
X135482703Y-90314874D01*
X135487919Y-90294050D01*
X135495151Y-90273838D01*
X135504330Y-90254432D01*
X135515366Y-90236019D01*
X135528154Y-90218776D01*
X135542570Y-90202870D01*
X135558476Y-90188454D01*
X135575719Y-90175666D01*
X135594132Y-90164630D01*
X135613538Y-90155451D01*
X135633750Y-90148219D01*
X135654574Y-90143003D01*
X135675809Y-90139853D01*
X135697250Y-90138800D01*
X136209750Y-90138800D01*
X136231191Y-90139853D01*
X136231191Y-90139853D01*
G37*
D16*
X135953500Y-90576300D03*
D18*
X130107840Y-89160880D03*
X130107840Y-87480880D03*
D19*
X130107840Y-91230880D03*
X130107840Y-85410880D03*
D20*
X132407840Y-90783380D03*
X132407840Y-85858380D03*
D21*
X132767840Y-89620880D03*
X132767840Y-88970880D03*
X132767840Y-88320880D03*
X132767840Y-87670880D03*
X132767840Y-87020880D03*
D10*
G36*
X151153691Y-78587933D02*
G01*
X151174926Y-78591083D01*
X151195750Y-78596299D01*
X151215962Y-78603531D01*
X151235368Y-78612710D01*
X151253781Y-78623746D01*
X151271024Y-78636534D01*
X151286930Y-78650950D01*
X151301346Y-78666856D01*
X151314134Y-78684099D01*
X151325170Y-78702512D01*
X151334349Y-78721918D01*
X151341581Y-78742130D01*
X151346797Y-78762954D01*
X151349947Y-78784189D01*
X151351000Y-78805630D01*
X151351000Y-79243130D01*
X151349947Y-79264571D01*
X151346797Y-79285806D01*
X151341581Y-79306630D01*
X151334349Y-79326842D01*
X151325170Y-79346248D01*
X151314134Y-79364661D01*
X151301346Y-79381904D01*
X151286930Y-79397810D01*
X151271024Y-79412226D01*
X151253781Y-79425014D01*
X151235368Y-79436050D01*
X151215962Y-79445229D01*
X151195750Y-79452461D01*
X151174926Y-79457677D01*
X151153691Y-79460827D01*
X151132250Y-79461880D01*
X150619750Y-79461880D01*
X150598309Y-79460827D01*
X150577074Y-79457677D01*
X150556250Y-79452461D01*
X150536038Y-79445229D01*
X150516632Y-79436050D01*
X150498219Y-79425014D01*
X150480976Y-79412226D01*
X150465070Y-79397810D01*
X150450654Y-79381904D01*
X150437866Y-79364661D01*
X150426830Y-79346248D01*
X150417651Y-79326842D01*
X150410419Y-79306630D01*
X150405203Y-79285806D01*
X150402053Y-79264571D01*
X150401000Y-79243130D01*
X150401000Y-78805630D01*
X150402053Y-78784189D01*
X150405203Y-78762954D01*
X150410419Y-78742130D01*
X150417651Y-78721918D01*
X150426830Y-78702512D01*
X150437866Y-78684099D01*
X150450654Y-78666856D01*
X150465070Y-78650950D01*
X150480976Y-78636534D01*
X150498219Y-78623746D01*
X150516632Y-78612710D01*
X150536038Y-78603531D01*
X150556250Y-78596299D01*
X150577074Y-78591083D01*
X150598309Y-78587933D01*
X150619750Y-78586880D01*
X151132250Y-78586880D01*
X151153691Y-78587933D01*
X151153691Y-78587933D01*
G37*
D16*
X150876000Y-79024380D03*
D10*
G36*
X151153691Y-80162933D02*
G01*
X151174926Y-80166083D01*
X151195750Y-80171299D01*
X151215962Y-80178531D01*
X151235368Y-80187710D01*
X151253781Y-80198746D01*
X151271024Y-80211534D01*
X151286930Y-80225950D01*
X151301346Y-80241856D01*
X151314134Y-80259099D01*
X151325170Y-80277512D01*
X151334349Y-80296918D01*
X151341581Y-80317130D01*
X151346797Y-80337954D01*
X151349947Y-80359189D01*
X151351000Y-80380630D01*
X151351000Y-80818130D01*
X151349947Y-80839571D01*
X151346797Y-80860806D01*
X151341581Y-80881630D01*
X151334349Y-80901842D01*
X151325170Y-80921248D01*
X151314134Y-80939661D01*
X151301346Y-80956904D01*
X151286930Y-80972810D01*
X151271024Y-80987226D01*
X151253781Y-81000014D01*
X151235368Y-81011050D01*
X151215962Y-81020229D01*
X151195750Y-81027461D01*
X151174926Y-81032677D01*
X151153691Y-81035827D01*
X151132250Y-81036880D01*
X150619750Y-81036880D01*
X150598309Y-81035827D01*
X150577074Y-81032677D01*
X150556250Y-81027461D01*
X150536038Y-81020229D01*
X150516632Y-81011050D01*
X150498219Y-81000014D01*
X150480976Y-80987226D01*
X150465070Y-80972810D01*
X150450654Y-80956904D01*
X150437866Y-80939661D01*
X150426830Y-80921248D01*
X150417651Y-80901842D01*
X150410419Y-80881630D01*
X150405203Y-80860806D01*
X150402053Y-80839571D01*
X150401000Y-80818130D01*
X150401000Y-80380630D01*
X150402053Y-80359189D01*
X150405203Y-80337954D01*
X150410419Y-80317130D01*
X150417651Y-80296918D01*
X150426830Y-80277512D01*
X150437866Y-80259099D01*
X150450654Y-80241856D01*
X150465070Y-80225950D01*
X150480976Y-80211534D01*
X150498219Y-80198746D01*
X150516632Y-80187710D01*
X150536038Y-80178531D01*
X150556250Y-80171299D01*
X150577074Y-80166083D01*
X150598309Y-80162933D01*
X150619750Y-80161880D01*
X151132250Y-80161880D01*
X151153691Y-80162933D01*
X151153691Y-80162933D01*
G37*
D16*
X150876000Y-80599380D03*
D10*
G36*
X143570111Y-81095613D02*
G01*
X143591346Y-81098763D01*
X143612170Y-81103979D01*
X143632382Y-81111211D01*
X143651788Y-81120390D01*
X143670201Y-81131426D01*
X143687444Y-81144214D01*
X143703350Y-81158630D01*
X143717766Y-81174536D01*
X143730554Y-81191779D01*
X143741590Y-81210192D01*
X143750769Y-81229598D01*
X143758001Y-81249810D01*
X143763217Y-81270634D01*
X143766367Y-81291869D01*
X143767420Y-81313310D01*
X143767420Y-81825810D01*
X143766367Y-81847251D01*
X143763217Y-81868486D01*
X143758001Y-81889310D01*
X143750769Y-81909522D01*
X143741590Y-81928928D01*
X143730554Y-81947341D01*
X143717766Y-81964584D01*
X143703350Y-81980490D01*
X143687444Y-81994906D01*
X143670201Y-82007694D01*
X143651788Y-82018730D01*
X143632382Y-82027909D01*
X143612170Y-82035141D01*
X143591346Y-82040357D01*
X143570111Y-82043507D01*
X143548670Y-82044560D01*
X143111170Y-82044560D01*
X143089729Y-82043507D01*
X143068494Y-82040357D01*
X143047670Y-82035141D01*
X143027458Y-82027909D01*
X143008052Y-82018730D01*
X142989639Y-82007694D01*
X142972396Y-81994906D01*
X142956490Y-81980490D01*
X142942074Y-81964584D01*
X142929286Y-81947341D01*
X142918250Y-81928928D01*
X142909071Y-81909522D01*
X142901839Y-81889310D01*
X142896623Y-81868486D01*
X142893473Y-81847251D01*
X142892420Y-81825810D01*
X142892420Y-81313310D01*
X142893473Y-81291869D01*
X142896623Y-81270634D01*
X142901839Y-81249810D01*
X142909071Y-81229598D01*
X142918250Y-81210192D01*
X142929286Y-81191779D01*
X142942074Y-81174536D01*
X142956490Y-81158630D01*
X142972396Y-81144214D01*
X142989639Y-81131426D01*
X143008052Y-81120390D01*
X143027458Y-81111211D01*
X143047670Y-81103979D01*
X143068494Y-81098763D01*
X143089729Y-81095613D01*
X143111170Y-81094560D01*
X143548670Y-81094560D01*
X143570111Y-81095613D01*
X143570111Y-81095613D01*
G37*
D16*
X143329920Y-81569560D03*
D10*
G36*
X141995111Y-81095613D02*
G01*
X142016346Y-81098763D01*
X142037170Y-81103979D01*
X142057382Y-81111211D01*
X142076788Y-81120390D01*
X142095201Y-81131426D01*
X142112444Y-81144214D01*
X142128350Y-81158630D01*
X142142766Y-81174536D01*
X142155554Y-81191779D01*
X142166590Y-81210192D01*
X142175769Y-81229598D01*
X142183001Y-81249810D01*
X142188217Y-81270634D01*
X142191367Y-81291869D01*
X142192420Y-81313310D01*
X142192420Y-81825810D01*
X142191367Y-81847251D01*
X142188217Y-81868486D01*
X142183001Y-81889310D01*
X142175769Y-81909522D01*
X142166590Y-81928928D01*
X142155554Y-81947341D01*
X142142766Y-81964584D01*
X142128350Y-81980490D01*
X142112444Y-81994906D01*
X142095201Y-82007694D01*
X142076788Y-82018730D01*
X142057382Y-82027909D01*
X142037170Y-82035141D01*
X142016346Y-82040357D01*
X141995111Y-82043507D01*
X141973670Y-82044560D01*
X141536170Y-82044560D01*
X141514729Y-82043507D01*
X141493494Y-82040357D01*
X141472670Y-82035141D01*
X141452458Y-82027909D01*
X141433052Y-82018730D01*
X141414639Y-82007694D01*
X141397396Y-81994906D01*
X141381490Y-81980490D01*
X141367074Y-81964584D01*
X141354286Y-81947341D01*
X141343250Y-81928928D01*
X141334071Y-81909522D01*
X141326839Y-81889310D01*
X141321623Y-81868486D01*
X141318473Y-81847251D01*
X141317420Y-81825810D01*
X141317420Y-81313310D01*
X141318473Y-81291869D01*
X141321623Y-81270634D01*
X141326839Y-81249810D01*
X141334071Y-81229598D01*
X141343250Y-81210192D01*
X141354286Y-81191779D01*
X141367074Y-81174536D01*
X141381490Y-81158630D01*
X141397396Y-81144214D01*
X141414639Y-81131426D01*
X141433052Y-81120390D01*
X141452458Y-81111211D01*
X141472670Y-81103979D01*
X141493494Y-81098763D01*
X141514729Y-81095613D01*
X141536170Y-81094560D01*
X141973670Y-81094560D01*
X141995111Y-81095613D01*
X141995111Y-81095613D01*
G37*
D16*
X141754920Y-81569560D03*
D10*
G36*
X143552171Y-78956933D02*
G01*
X143573406Y-78960083D01*
X143594230Y-78965299D01*
X143614442Y-78972531D01*
X143633848Y-78981710D01*
X143652261Y-78992746D01*
X143669504Y-79005534D01*
X143685410Y-79019950D01*
X143699826Y-79035856D01*
X143712614Y-79053099D01*
X143723650Y-79071512D01*
X143732829Y-79090918D01*
X143740061Y-79111130D01*
X143745277Y-79131954D01*
X143748427Y-79153189D01*
X143749480Y-79174630D01*
X143749480Y-79687130D01*
X143748427Y-79708571D01*
X143745277Y-79729806D01*
X143740061Y-79750630D01*
X143732829Y-79770842D01*
X143723650Y-79790248D01*
X143712614Y-79808661D01*
X143699826Y-79825904D01*
X143685410Y-79841810D01*
X143669504Y-79856226D01*
X143652261Y-79869014D01*
X143633848Y-79880050D01*
X143614442Y-79889229D01*
X143594230Y-79896461D01*
X143573406Y-79901677D01*
X143552171Y-79904827D01*
X143530730Y-79905880D01*
X143093230Y-79905880D01*
X143071789Y-79904827D01*
X143050554Y-79901677D01*
X143029730Y-79896461D01*
X143009518Y-79889229D01*
X142990112Y-79880050D01*
X142971699Y-79869014D01*
X142954456Y-79856226D01*
X142938550Y-79841810D01*
X142924134Y-79825904D01*
X142911346Y-79808661D01*
X142900310Y-79790248D01*
X142891131Y-79770842D01*
X142883899Y-79750630D01*
X142878683Y-79729806D01*
X142875533Y-79708571D01*
X142874480Y-79687130D01*
X142874480Y-79174630D01*
X142875533Y-79153189D01*
X142878683Y-79131954D01*
X142883899Y-79111130D01*
X142891131Y-79090918D01*
X142900310Y-79071512D01*
X142911346Y-79053099D01*
X142924134Y-79035856D01*
X142938550Y-79019950D01*
X142954456Y-79005534D01*
X142971699Y-78992746D01*
X142990112Y-78981710D01*
X143009518Y-78972531D01*
X143029730Y-78965299D01*
X143050554Y-78960083D01*
X143071789Y-78956933D01*
X143093230Y-78955880D01*
X143530730Y-78955880D01*
X143552171Y-78956933D01*
X143552171Y-78956933D01*
G37*
D16*
X143311980Y-79430880D03*
D10*
G36*
X141977171Y-78956933D02*
G01*
X141998406Y-78960083D01*
X142019230Y-78965299D01*
X142039442Y-78972531D01*
X142058848Y-78981710D01*
X142077261Y-78992746D01*
X142094504Y-79005534D01*
X142110410Y-79019950D01*
X142124826Y-79035856D01*
X142137614Y-79053099D01*
X142148650Y-79071512D01*
X142157829Y-79090918D01*
X142165061Y-79111130D01*
X142170277Y-79131954D01*
X142173427Y-79153189D01*
X142174480Y-79174630D01*
X142174480Y-79687130D01*
X142173427Y-79708571D01*
X142170277Y-79729806D01*
X142165061Y-79750630D01*
X142157829Y-79770842D01*
X142148650Y-79790248D01*
X142137614Y-79808661D01*
X142124826Y-79825904D01*
X142110410Y-79841810D01*
X142094504Y-79856226D01*
X142077261Y-79869014D01*
X142058848Y-79880050D01*
X142039442Y-79889229D01*
X142019230Y-79896461D01*
X141998406Y-79901677D01*
X141977171Y-79904827D01*
X141955730Y-79905880D01*
X141518230Y-79905880D01*
X141496789Y-79904827D01*
X141475554Y-79901677D01*
X141454730Y-79896461D01*
X141434518Y-79889229D01*
X141415112Y-79880050D01*
X141396699Y-79869014D01*
X141379456Y-79856226D01*
X141363550Y-79841810D01*
X141349134Y-79825904D01*
X141336346Y-79808661D01*
X141325310Y-79790248D01*
X141316131Y-79770842D01*
X141308899Y-79750630D01*
X141303683Y-79729806D01*
X141300533Y-79708571D01*
X141299480Y-79687130D01*
X141299480Y-79174630D01*
X141300533Y-79153189D01*
X141303683Y-79131954D01*
X141308899Y-79111130D01*
X141316131Y-79090918D01*
X141325310Y-79071512D01*
X141336346Y-79053099D01*
X141349134Y-79035856D01*
X141363550Y-79019950D01*
X141379456Y-79005534D01*
X141396699Y-78992746D01*
X141415112Y-78981710D01*
X141434518Y-78972531D01*
X141454730Y-78965299D01*
X141475554Y-78960083D01*
X141496789Y-78956933D01*
X141518230Y-78955880D01*
X141955730Y-78955880D01*
X141977171Y-78956933D01*
X141977171Y-78956933D01*
G37*
D16*
X141736980Y-79430880D03*
D10*
G36*
X169668251Y-78921373D02*
G01*
X169689486Y-78924523D01*
X169710310Y-78929739D01*
X169730522Y-78936971D01*
X169749928Y-78946150D01*
X169768341Y-78957186D01*
X169785584Y-78969974D01*
X169801490Y-78984390D01*
X169815906Y-79000296D01*
X169828694Y-79017539D01*
X169839730Y-79035952D01*
X169848909Y-79055358D01*
X169856141Y-79075570D01*
X169861357Y-79096394D01*
X169864507Y-79117629D01*
X169865560Y-79139070D01*
X169865560Y-79651570D01*
X169864507Y-79673011D01*
X169861357Y-79694246D01*
X169856141Y-79715070D01*
X169848909Y-79735282D01*
X169839730Y-79754688D01*
X169828694Y-79773101D01*
X169815906Y-79790344D01*
X169801490Y-79806250D01*
X169785584Y-79820666D01*
X169768341Y-79833454D01*
X169749928Y-79844490D01*
X169730522Y-79853669D01*
X169710310Y-79860901D01*
X169689486Y-79866117D01*
X169668251Y-79869267D01*
X169646810Y-79870320D01*
X169209310Y-79870320D01*
X169187869Y-79869267D01*
X169166634Y-79866117D01*
X169145810Y-79860901D01*
X169125598Y-79853669D01*
X169106192Y-79844490D01*
X169087779Y-79833454D01*
X169070536Y-79820666D01*
X169054630Y-79806250D01*
X169040214Y-79790344D01*
X169027426Y-79773101D01*
X169016390Y-79754688D01*
X169007211Y-79735282D01*
X168999979Y-79715070D01*
X168994763Y-79694246D01*
X168991613Y-79673011D01*
X168990560Y-79651570D01*
X168990560Y-79139070D01*
X168991613Y-79117629D01*
X168994763Y-79096394D01*
X168999979Y-79075570D01*
X169007211Y-79055358D01*
X169016390Y-79035952D01*
X169027426Y-79017539D01*
X169040214Y-79000296D01*
X169054630Y-78984390D01*
X169070536Y-78969974D01*
X169087779Y-78957186D01*
X169106192Y-78946150D01*
X169125598Y-78936971D01*
X169145810Y-78929739D01*
X169166634Y-78924523D01*
X169187869Y-78921373D01*
X169209310Y-78920320D01*
X169646810Y-78920320D01*
X169668251Y-78921373D01*
X169668251Y-78921373D01*
G37*
D16*
X169428060Y-79395320D03*
D10*
G36*
X171243251Y-78921373D02*
G01*
X171264486Y-78924523D01*
X171285310Y-78929739D01*
X171305522Y-78936971D01*
X171324928Y-78946150D01*
X171343341Y-78957186D01*
X171360584Y-78969974D01*
X171376490Y-78984390D01*
X171390906Y-79000296D01*
X171403694Y-79017539D01*
X171414730Y-79035952D01*
X171423909Y-79055358D01*
X171431141Y-79075570D01*
X171436357Y-79096394D01*
X171439507Y-79117629D01*
X171440560Y-79139070D01*
X171440560Y-79651570D01*
X171439507Y-79673011D01*
X171436357Y-79694246D01*
X171431141Y-79715070D01*
X171423909Y-79735282D01*
X171414730Y-79754688D01*
X171403694Y-79773101D01*
X171390906Y-79790344D01*
X171376490Y-79806250D01*
X171360584Y-79820666D01*
X171343341Y-79833454D01*
X171324928Y-79844490D01*
X171305522Y-79853669D01*
X171285310Y-79860901D01*
X171264486Y-79866117D01*
X171243251Y-79869267D01*
X171221810Y-79870320D01*
X170784310Y-79870320D01*
X170762869Y-79869267D01*
X170741634Y-79866117D01*
X170720810Y-79860901D01*
X170700598Y-79853669D01*
X170681192Y-79844490D01*
X170662779Y-79833454D01*
X170645536Y-79820666D01*
X170629630Y-79806250D01*
X170615214Y-79790344D01*
X170602426Y-79773101D01*
X170591390Y-79754688D01*
X170582211Y-79735282D01*
X170574979Y-79715070D01*
X170569763Y-79694246D01*
X170566613Y-79673011D01*
X170565560Y-79651570D01*
X170565560Y-79139070D01*
X170566613Y-79117629D01*
X170569763Y-79096394D01*
X170574979Y-79075570D01*
X170582211Y-79055358D01*
X170591390Y-79035952D01*
X170602426Y-79017539D01*
X170615214Y-79000296D01*
X170629630Y-78984390D01*
X170645536Y-78969974D01*
X170662779Y-78957186D01*
X170681192Y-78946150D01*
X170700598Y-78936971D01*
X170720810Y-78929739D01*
X170741634Y-78924523D01*
X170762869Y-78921373D01*
X170784310Y-78920320D01*
X171221810Y-78920320D01*
X171243251Y-78921373D01*
X171243251Y-78921373D01*
G37*
D16*
X171003060Y-79395320D03*
D10*
G36*
X169668251Y-77554853D02*
G01*
X169689486Y-77558003D01*
X169710310Y-77563219D01*
X169730522Y-77570451D01*
X169749928Y-77579630D01*
X169768341Y-77590666D01*
X169785584Y-77603454D01*
X169801490Y-77617870D01*
X169815906Y-77633776D01*
X169828694Y-77651019D01*
X169839730Y-77669432D01*
X169848909Y-77688838D01*
X169856141Y-77709050D01*
X169861357Y-77729874D01*
X169864507Y-77751109D01*
X169865560Y-77772550D01*
X169865560Y-78285050D01*
X169864507Y-78306491D01*
X169861357Y-78327726D01*
X169856141Y-78348550D01*
X169848909Y-78368762D01*
X169839730Y-78388168D01*
X169828694Y-78406581D01*
X169815906Y-78423824D01*
X169801490Y-78439730D01*
X169785584Y-78454146D01*
X169768341Y-78466934D01*
X169749928Y-78477970D01*
X169730522Y-78487149D01*
X169710310Y-78494381D01*
X169689486Y-78499597D01*
X169668251Y-78502747D01*
X169646810Y-78503800D01*
X169209310Y-78503800D01*
X169187869Y-78502747D01*
X169166634Y-78499597D01*
X169145810Y-78494381D01*
X169125598Y-78487149D01*
X169106192Y-78477970D01*
X169087779Y-78466934D01*
X169070536Y-78454146D01*
X169054630Y-78439730D01*
X169040214Y-78423824D01*
X169027426Y-78406581D01*
X169016390Y-78388168D01*
X169007211Y-78368762D01*
X168999979Y-78348550D01*
X168994763Y-78327726D01*
X168991613Y-78306491D01*
X168990560Y-78285050D01*
X168990560Y-77772550D01*
X168991613Y-77751109D01*
X168994763Y-77729874D01*
X168999979Y-77709050D01*
X169007211Y-77688838D01*
X169016390Y-77669432D01*
X169027426Y-77651019D01*
X169040214Y-77633776D01*
X169054630Y-77617870D01*
X169070536Y-77603454D01*
X169087779Y-77590666D01*
X169106192Y-77579630D01*
X169125598Y-77570451D01*
X169145810Y-77563219D01*
X169166634Y-77558003D01*
X169187869Y-77554853D01*
X169209310Y-77553800D01*
X169646810Y-77553800D01*
X169668251Y-77554853D01*
X169668251Y-77554853D01*
G37*
D16*
X169428060Y-78028800D03*
D10*
G36*
X171243251Y-77554853D02*
G01*
X171264486Y-77558003D01*
X171285310Y-77563219D01*
X171305522Y-77570451D01*
X171324928Y-77579630D01*
X171343341Y-77590666D01*
X171360584Y-77603454D01*
X171376490Y-77617870D01*
X171390906Y-77633776D01*
X171403694Y-77651019D01*
X171414730Y-77669432D01*
X171423909Y-77688838D01*
X171431141Y-77709050D01*
X171436357Y-77729874D01*
X171439507Y-77751109D01*
X171440560Y-77772550D01*
X171440560Y-78285050D01*
X171439507Y-78306491D01*
X171436357Y-78327726D01*
X171431141Y-78348550D01*
X171423909Y-78368762D01*
X171414730Y-78388168D01*
X171403694Y-78406581D01*
X171390906Y-78423824D01*
X171376490Y-78439730D01*
X171360584Y-78454146D01*
X171343341Y-78466934D01*
X171324928Y-78477970D01*
X171305522Y-78487149D01*
X171285310Y-78494381D01*
X171264486Y-78499597D01*
X171243251Y-78502747D01*
X171221810Y-78503800D01*
X170784310Y-78503800D01*
X170762869Y-78502747D01*
X170741634Y-78499597D01*
X170720810Y-78494381D01*
X170700598Y-78487149D01*
X170681192Y-78477970D01*
X170662779Y-78466934D01*
X170645536Y-78454146D01*
X170629630Y-78439730D01*
X170615214Y-78423824D01*
X170602426Y-78406581D01*
X170591390Y-78388168D01*
X170582211Y-78368762D01*
X170574979Y-78348550D01*
X170569763Y-78327726D01*
X170566613Y-78306491D01*
X170565560Y-78285050D01*
X170565560Y-77772550D01*
X170566613Y-77751109D01*
X170569763Y-77729874D01*
X170574979Y-77709050D01*
X170582211Y-77688838D01*
X170591390Y-77669432D01*
X170602426Y-77651019D01*
X170615214Y-77633776D01*
X170629630Y-77617870D01*
X170645536Y-77603454D01*
X170662779Y-77590666D01*
X170681192Y-77579630D01*
X170700598Y-77570451D01*
X170720810Y-77563219D01*
X170741634Y-77558003D01*
X170762869Y-77554853D01*
X170784310Y-77553800D01*
X171221810Y-77553800D01*
X171243251Y-77554853D01*
X171243251Y-77554853D01*
G37*
D16*
X171003060Y-78028800D03*
D10*
G36*
X177529051Y-91935833D02*
G01*
X177550286Y-91938983D01*
X177571110Y-91944199D01*
X177591322Y-91951431D01*
X177610728Y-91960610D01*
X177629141Y-91971646D01*
X177646384Y-91984434D01*
X177662290Y-91998850D01*
X177676706Y-92014756D01*
X177689494Y-92031999D01*
X177700530Y-92050412D01*
X177709709Y-92069818D01*
X177716941Y-92090030D01*
X177722157Y-92110854D01*
X177725307Y-92132089D01*
X177726360Y-92153530D01*
X177726360Y-92591030D01*
X177725307Y-92612471D01*
X177722157Y-92633706D01*
X177716941Y-92654530D01*
X177709709Y-92674742D01*
X177700530Y-92694148D01*
X177689494Y-92712561D01*
X177676706Y-92729804D01*
X177662290Y-92745710D01*
X177646384Y-92760126D01*
X177629141Y-92772914D01*
X177610728Y-92783950D01*
X177591322Y-92793129D01*
X177571110Y-92800361D01*
X177550286Y-92805577D01*
X177529051Y-92808727D01*
X177507610Y-92809780D01*
X176995110Y-92809780D01*
X176973669Y-92808727D01*
X176952434Y-92805577D01*
X176931610Y-92800361D01*
X176911398Y-92793129D01*
X176891992Y-92783950D01*
X176873579Y-92772914D01*
X176856336Y-92760126D01*
X176840430Y-92745710D01*
X176826014Y-92729804D01*
X176813226Y-92712561D01*
X176802190Y-92694148D01*
X176793011Y-92674742D01*
X176785779Y-92654530D01*
X176780563Y-92633706D01*
X176777413Y-92612471D01*
X176776360Y-92591030D01*
X176776360Y-92153530D01*
X176777413Y-92132089D01*
X176780563Y-92110854D01*
X176785779Y-92090030D01*
X176793011Y-92069818D01*
X176802190Y-92050412D01*
X176813226Y-92031999D01*
X176826014Y-92014756D01*
X176840430Y-91998850D01*
X176856336Y-91984434D01*
X176873579Y-91971646D01*
X176891992Y-91960610D01*
X176911398Y-91951431D01*
X176931610Y-91944199D01*
X176952434Y-91938983D01*
X176973669Y-91935833D01*
X176995110Y-91934780D01*
X177507610Y-91934780D01*
X177529051Y-91935833D01*
X177529051Y-91935833D01*
G37*
D16*
X177251360Y-92372280D03*
D10*
G36*
X177529051Y-90360833D02*
G01*
X177550286Y-90363983D01*
X177571110Y-90369199D01*
X177591322Y-90376431D01*
X177610728Y-90385610D01*
X177629141Y-90396646D01*
X177646384Y-90409434D01*
X177662290Y-90423850D01*
X177676706Y-90439756D01*
X177689494Y-90456999D01*
X177700530Y-90475412D01*
X177709709Y-90494818D01*
X177716941Y-90515030D01*
X177722157Y-90535854D01*
X177725307Y-90557089D01*
X177726360Y-90578530D01*
X177726360Y-91016030D01*
X177725307Y-91037471D01*
X177722157Y-91058706D01*
X177716941Y-91079530D01*
X177709709Y-91099742D01*
X177700530Y-91119148D01*
X177689494Y-91137561D01*
X177676706Y-91154804D01*
X177662290Y-91170710D01*
X177646384Y-91185126D01*
X177629141Y-91197914D01*
X177610728Y-91208950D01*
X177591322Y-91218129D01*
X177571110Y-91225361D01*
X177550286Y-91230577D01*
X177529051Y-91233727D01*
X177507610Y-91234780D01*
X176995110Y-91234780D01*
X176973669Y-91233727D01*
X176952434Y-91230577D01*
X176931610Y-91225361D01*
X176911398Y-91218129D01*
X176891992Y-91208950D01*
X176873579Y-91197914D01*
X176856336Y-91185126D01*
X176840430Y-91170710D01*
X176826014Y-91154804D01*
X176813226Y-91137561D01*
X176802190Y-91119148D01*
X176793011Y-91099742D01*
X176785779Y-91079530D01*
X176780563Y-91058706D01*
X176777413Y-91037471D01*
X176776360Y-91016030D01*
X176776360Y-90578530D01*
X176777413Y-90557089D01*
X176780563Y-90535854D01*
X176785779Y-90515030D01*
X176793011Y-90494818D01*
X176802190Y-90475412D01*
X176813226Y-90456999D01*
X176826014Y-90439756D01*
X176840430Y-90423850D01*
X176856336Y-90409434D01*
X176873579Y-90396646D01*
X176891992Y-90385610D01*
X176911398Y-90376431D01*
X176931610Y-90369199D01*
X176952434Y-90363983D01*
X176973669Y-90360833D01*
X176995110Y-90359780D01*
X177507610Y-90359780D01*
X177529051Y-90360833D01*
X177529051Y-90360833D01*
G37*
D16*
X177251360Y-90797280D03*
D10*
G36*
X148296891Y-84362053D02*
G01*
X148318126Y-84365203D01*
X148338950Y-84370419D01*
X148359162Y-84377651D01*
X148378568Y-84386830D01*
X148396981Y-84397866D01*
X148414224Y-84410654D01*
X148430130Y-84425070D01*
X148444546Y-84440976D01*
X148457334Y-84458219D01*
X148468370Y-84476632D01*
X148477549Y-84496038D01*
X148484781Y-84516250D01*
X148489997Y-84537074D01*
X148493147Y-84558309D01*
X148494200Y-84579750D01*
X148494200Y-85092250D01*
X148493147Y-85113691D01*
X148489997Y-85134926D01*
X148484781Y-85155750D01*
X148477549Y-85175962D01*
X148468370Y-85195368D01*
X148457334Y-85213781D01*
X148444546Y-85231024D01*
X148430130Y-85246930D01*
X148414224Y-85261346D01*
X148396981Y-85274134D01*
X148378568Y-85285170D01*
X148359162Y-85294349D01*
X148338950Y-85301581D01*
X148318126Y-85306797D01*
X148296891Y-85309947D01*
X148275450Y-85311000D01*
X147837950Y-85311000D01*
X147816509Y-85309947D01*
X147795274Y-85306797D01*
X147774450Y-85301581D01*
X147754238Y-85294349D01*
X147734832Y-85285170D01*
X147716419Y-85274134D01*
X147699176Y-85261346D01*
X147683270Y-85246930D01*
X147668854Y-85231024D01*
X147656066Y-85213781D01*
X147645030Y-85195368D01*
X147635851Y-85175962D01*
X147628619Y-85155750D01*
X147623403Y-85134926D01*
X147620253Y-85113691D01*
X147619200Y-85092250D01*
X147619200Y-84579750D01*
X147620253Y-84558309D01*
X147623403Y-84537074D01*
X147628619Y-84516250D01*
X147635851Y-84496038D01*
X147645030Y-84476632D01*
X147656066Y-84458219D01*
X147668854Y-84440976D01*
X147683270Y-84425070D01*
X147699176Y-84410654D01*
X147716419Y-84397866D01*
X147734832Y-84386830D01*
X147754238Y-84377651D01*
X147774450Y-84370419D01*
X147795274Y-84365203D01*
X147816509Y-84362053D01*
X147837950Y-84361000D01*
X148275450Y-84361000D01*
X148296891Y-84362053D01*
X148296891Y-84362053D01*
G37*
D16*
X148056700Y-84836000D03*
D10*
G36*
X146721891Y-84362053D02*
G01*
X146743126Y-84365203D01*
X146763950Y-84370419D01*
X146784162Y-84377651D01*
X146803568Y-84386830D01*
X146821981Y-84397866D01*
X146839224Y-84410654D01*
X146855130Y-84425070D01*
X146869546Y-84440976D01*
X146882334Y-84458219D01*
X146893370Y-84476632D01*
X146902549Y-84496038D01*
X146909781Y-84516250D01*
X146914997Y-84537074D01*
X146918147Y-84558309D01*
X146919200Y-84579750D01*
X146919200Y-85092250D01*
X146918147Y-85113691D01*
X146914997Y-85134926D01*
X146909781Y-85155750D01*
X146902549Y-85175962D01*
X146893370Y-85195368D01*
X146882334Y-85213781D01*
X146869546Y-85231024D01*
X146855130Y-85246930D01*
X146839224Y-85261346D01*
X146821981Y-85274134D01*
X146803568Y-85285170D01*
X146784162Y-85294349D01*
X146763950Y-85301581D01*
X146743126Y-85306797D01*
X146721891Y-85309947D01*
X146700450Y-85311000D01*
X146262950Y-85311000D01*
X146241509Y-85309947D01*
X146220274Y-85306797D01*
X146199450Y-85301581D01*
X146179238Y-85294349D01*
X146159832Y-85285170D01*
X146141419Y-85274134D01*
X146124176Y-85261346D01*
X146108270Y-85246930D01*
X146093854Y-85231024D01*
X146081066Y-85213781D01*
X146070030Y-85195368D01*
X146060851Y-85175962D01*
X146053619Y-85155750D01*
X146048403Y-85134926D01*
X146045253Y-85113691D01*
X146044200Y-85092250D01*
X146044200Y-84579750D01*
X146045253Y-84558309D01*
X146048403Y-84537074D01*
X146053619Y-84516250D01*
X146060851Y-84496038D01*
X146070030Y-84476632D01*
X146081066Y-84458219D01*
X146093854Y-84440976D01*
X146108270Y-84425070D01*
X146124176Y-84410654D01*
X146141419Y-84397866D01*
X146159832Y-84386830D01*
X146179238Y-84377651D01*
X146199450Y-84370419D01*
X146220274Y-84365203D01*
X146241509Y-84362053D01*
X146262950Y-84361000D01*
X146700450Y-84361000D01*
X146721891Y-84362053D01*
X146721891Y-84362053D01*
G37*
D16*
X146481700Y-84836000D03*
D10*
G36*
X150036091Y-88349353D02*
G01*
X150057326Y-88352503D01*
X150078150Y-88357719D01*
X150098362Y-88364951D01*
X150117768Y-88374130D01*
X150136181Y-88385166D01*
X150153424Y-88397954D01*
X150169330Y-88412370D01*
X150183746Y-88428276D01*
X150196534Y-88445519D01*
X150207570Y-88463932D01*
X150216749Y-88483338D01*
X150223981Y-88503550D01*
X150229197Y-88524374D01*
X150232347Y-88545609D01*
X150233400Y-88567050D01*
X150233400Y-89004550D01*
X150232347Y-89025991D01*
X150229197Y-89047226D01*
X150223981Y-89068050D01*
X150216749Y-89088262D01*
X150207570Y-89107668D01*
X150196534Y-89126081D01*
X150183746Y-89143324D01*
X150169330Y-89159230D01*
X150153424Y-89173646D01*
X150136181Y-89186434D01*
X150117768Y-89197470D01*
X150098362Y-89206649D01*
X150078150Y-89213881D01*
X150057326Y-89219097D01*
X150036091Y-89222247D01*
X150014650Y-89223300D01*
X149502150Y-89223300D01*
X149480709Y-89222247D01*
X149459474Y-89219097D01*
X149438650Y-89213881D01*
X149418438Y-89206649D01*
X149399032Y-89197470D01*
X149380619Y-89186434D01*
X149363376Y-89173646D01*
X149347470Y-89159230D01*
X149333054Y-89143324D01*
X149320266Y-89126081D01*
X149309230Y-89107668D01*
X149300051Y-89088262D01*
X149292819Y-89068050D01*
X149287603Y-89047226D01*
X149284453Y-89025991D01*
X149283400Y-89004550D01*
X149283400Y-88567050D01*
X149284453Y-88545609D01*
X149287603Y-88524374D01*
X149292819Y-88503550D01*
X149300051Y-88483338D01*
X149309230Y-88463932D01*
X149320266Y-88445519D01*
X149333054Y-88428276D01*
X149347470Y-88412370D01*
X149363376Y-88397954D01*
X149380619Y-88385166D01*
X149399032Y-88374130D01*
X149418438Y-88364951D01*
X149438650Y-88357719D01*
X149459474Y-88352503D01*
X149480709Y-88349353D01*
X149502150Y-88348300D01*
X150014650Y-88348300D01*
X150036091Y-88349353D01*
X150036091Y-88349353D01*
G37*
D16*
X149758400Y-88785800D03*
D10*
G36*
X150036091Y-86774353D02*
G01*
X150057326Y-86777503D01*
X150078150Y-86782719D01*
X150098362Y-86789951D01*
X150117768Y-86799130D01*
X150136181Y-86810166D01*
X150153424Y-86822954D01*
X150169330Y-86837370D01*
X150183746Y-86853276D01*
X150196534Y-86870519D01*
X150207570Y-86888932D01*
X150216749Y-86908338D01*
X150223981Y-86928550D01*
X150229197Y-86949374D01*
X150232347Y-86970609D01*
X150233400Y-86992050D01*
X150233400Y-87429550D01*
X150232347Y-87450991D01*
X150229197Y-87472226D01*
X150223981Y-87493050D01*
X150216749Y-87513262D01*
X150207570Y-87532668D01*
X150196534Y-87551081D01*
X150183746Y-87568324D01*
X150169330Y-87584230D01*
X150153424Y-87598646D01*
X150136181Y-87611434D01*
X150117768Y-87622470D01*
X150098362Y-87631649D01*
X150078150Y-87638881D01*
X150057326Y-87644097D01*
X150036091Y-87647247D01*
X150014650Y-87648300D01*
X149502150Y-87648300D01*
X149480709Y-87647247D01*
X149459474Y-87644097D01*
X149438650Y-87638881D01*
X149418438Y-87631649D01*
X149399032Y-87622470D01*
X149380619Y-87611434D01*
X149363376Y-87598646D01*
X149347470Y-87584230D01*
X149333054Y-87568324D01*
X149320266Y-87551081D01*
X149309230Y-87532668D01*
X149300051Y-87513262D01*
X149292819Y-87493050D01*
X149287603Y-87472226D01*
X149284453Y-87450991D01*
X149283400Y-87429550D01*
X149283400Y-86992050D01*
X149284453Y-86970609D01*
X149287603Y-86949374D01*
X149292819Y-86928550D01*
X149300051Y-86908338D01*
X149309230Y-86888932D01*
X149320266Y-86870519D01*
X149333054Y-86853276D01*
X149347470Y-86837370D01*
X149363376Y-86822954D01*
X149380619Y-86810166D01*
X149399032Y-86799130D01*
X149418438Y-86789951D01*
X149438650Y-86782719D01*
X149459474Y-86777503D01*
X149480709Y-86774353D01*
X149502150Y-86773300D01*
X150014650Y-86773300D01*
X150036091Y-86774353D01*
X150036091Y-86774353D01*
G37*
D16*
X149758400Y-87210800D03*
D10*
G36*
X139917231Y-84849733D02*
G01*
X139938466Y-84852883D01*
X139959290Y-84858099D01*
X139979502Y-84865331D01*
X139998908Y-84874510D01*
X140017321Y-84885546D01*
X140034564Y-84898334D01*
X140050470Y-84912750D01*
X140064886Y-84928656D01*
X140077674Y-84945899D01*
X140088710Y-84964312D01*
X140097889Y-84983718D01*
X140105121Y-85003930D01*
X140110337Y-85024754D01*
X140113487Y-85045989D01*
X140114540Y-85067430D01*
X140114540Y-85579930D01*
X140113487Y-85601371D01*
X140110337Y-85622606D01*
X140105121Y-85643430D01*
X140097889Y-85663642D01*
X140088710Y-85683048D01*
X140077674Y-85701461D01*
X140064886Y-85718704D01*
X140050470Y-85734610D01*
X140034564Y-85749026D01*
X140017321Y-85761814D01*
X139998908Y-85772850D01*
X139979502Y-85782029D01*
X139959290Y-85789261D01*
X139938466Y-85794477D01*
X139917231Y-85797627D01*
X139895790Y-85798680D01*
X139458290Y-85798680D01*
X139436849Y-85797627D01*
X139415614Y-85794477D01*
X139394790Y-85789261D01*
X139374578Y-85782029D01*
X139355172Y-85772850D01*
X139336759Y-85761814D01*
X139319516Y-85749026D01*
X139303610Y-85734610D01*
X139289194Y-85718704D01*
X139276406Y-85701461D01*
X139265370Y-85683048D01*
X139256191Y-85663642D01*
X139248959Y-85643430D01*
X139243743Y-85622606D01*
X139240593Y-85601371D01*
X139239540Y-85579930D01*
X139239540Y-85067430D01*
X139240593Y-85045989D01*
X139243743Y-85024754D01*
X139248959Y-85003930D01*
X139256191Y-84983718D01*
X139265370Y-84964312D01*
X139276406Y-84945899D01*
X139289194Y-84928656D01*
X139303610Y-84912750D01*
X139319516Y-84898334D01*
X139336759Y-84885546D01*
X139355172Y-84874510D01*
X139374578Y-84865331D01*
X139394790Y-84858099D01*
X139415614Y-84852883D01*
X139436849Y-84849733D01*
X139458290Y-84848680D01*
X139895790Y-84848680D01*
X139917231Y-84849733D01*
X139917231Y-84849733D01*
G37*
D16*
X139677040Y-85323680D03*
D10*
G36*
X141492231Y-84849733D02*
G01*
X141513466Y-84852883D01*
X141534290Y-84858099D01*
X141554502Y-84865331D01*
X141573908Y-84874510D01*
X141592321Y-84885546D01*
X141609564Y-84898334D01*
X141625470Y-84912750D01*
X141639886Y-84928656D01*
X141652674Y-84945899D01*
X141663710Y-84964312D01*
X141672889Y-84983718D01*
X141680121Y-85003930D01*
X141685337Y-85024754D01*
X141688487Y-85045989D01*
X141689540Y-85067430D01*
X141689540Y-85579930D01*
X141688487Y-85601371D01*
X141685337Y-85622606D01*
X141680121Y-85643430D01*
X141672889Y-85663642D01*
X141663710Y-85683048D01*
X141652674Y-85701461D01*
X141639886Y-85718704D01*
X141625470Y-85734610D01*
X141609564Y-85749026D01*
X141592321Y-85761814D01*
X141573908Y-85772850D01*
X141554502Y-85782029D01*
X141534290Y-85789261D01*
X141513466Y-85794477D01*
X141492231Y-85797627D01*
X141470790Y-85798680D01*
X141033290Y-85798680D01*
X141011849Y-85797627D01*
X140990614Y-85794477D01*
X140969790Y-85789261D01*
X140949578Y-85782029D01*
X140930172Y-85772850D01*
X140911759Y-85761814D01*
X140894516Y-85749026D01*
X140878610Y-85734610D01*
X140864194Y-85718704D01*
X140851406Y-85701461D01*
X140840370Y-85683048D01*
X140831191Y-85663642D01*
X140823959Y-85643430D01*
X140818743Y-85622606D01*
X140815593Y-85601371D01*
X140814540Y-85579930D01*
X140814540Y-85067430D01*
X140815593Y-85045989D01*
X140818743Y-85024754D01*
X140823959Y-85003930D01*
X140831191Y-84983718D01*
X140840370Y-84964312D01*
X140851406Y-84945899D01*
X140864194Y-84928656D01*
X140878610Y-84912750D01*
X140894516Y-84898334D01*
X140911759Y-84885546D01*
X140930172Y-84874510D01*
X140949578Y-84865331D01*
X140969790Y-84858099D01*
X140990614Y-84852883D01*
X141011849Y-84849733D01*
X141033290Y-84848680D01*
X141470790Y-84848680D01*
X141492231Y-84849733D01*
X141492231Y-84849733D01*
G37*
D16*
X141252040Y-85323680D03*
D10*
G36*
X139927391Y-86206093D02*
G01*
X139948626Y-86209243D01*
X139969450Y-86214459D01*
X139989662Y-86221691D01*
X140009068Y-86230870D01*
X140027481Y-86241906D01*
X140044724Y-86254694D01*
X140060630Y-86269110D01*
X140075046Y-86285016D01*
X140087834Y-86302259D01*
X140098870Y-86320672D01*
X140108049Y-86340078D01*
X140115281Y-86360290D01*
X140120497Y-86381114D01*
X140123647Y-86402349D01*
X140124700Y-86423790D01*
X140124700Y-86936290D01*
X140123647Y-86957731D01*
X140120497Y-86978966D01*
X140115281Y-86999790D01*
X140108049Y-87020002D01*
X140098870Y-87039408D01*
X140087834Y-87057821D01*
X140075046Y-87075064D01*
X140060630Y-87090970D01*
X140044724Y-87105386D01*
X140027481Y-87118174D01*
X140009068Y-87129210D01*
X139989662Y-87138389D01*
X139969450Y-87145621D01*
X139948626Y-87150837D01*
X139927391Y-87153987D01*
X139905950Y-87155040D01*
X139468450Y-87155040D01*
X139447009Y-87153987D01*
X139425774Y-87150837D01*
X139404950Y-87145621D01*
X139384738Y-87138389D01*
X139365332Y-87129210D01*
X139346919Y-87118174D01*
X139329676Y-87105386D01*
X139313770Y-87090970D01*
X139299354Y-87075064D01*
X139286566Y-87057821D01*
X139275530Y-87039408D01*
X139266351Y-87020002D01*
X139259119Y-86999790D01*
X139253903Y-86978966D01*
X139250753Y-86957731D01*
X139249700Y-86936290D01*
X139249700Y-86423790D01*
X139250753Y-86402349D01*
X139253903Y-86381114D01*
X139259119Y-86360290D01*
X139266351Y-86340078D01*
X139275530Y-86320672D01*
X139286566Y-86302259D01*
X139299354Y-86285016D01*
X139313770Y-86269110D01*
X139329676Y-86254694D01*
X139346919Y-86241906D01*
X139365332Y-86230870D01*
X139384738Y-86221691D01*
X139404950Y-86214459D01*
X139425774Y-86209243D01*
X139447009Y-86206093D01*
X139468450Y-86205040D01*
X139905950Y-86205040D01*
X139927391Y-86206093D01*
X139927391Y-86206093D01*
G37*
D16*
X139687200Y-86680040D03*
D10*
G36*
X141502391Y-86206093D02*
G01*
X141523626Y-86209243D01*
X141544450Y-86214459D01*
X141564662Y-86221691D01*
X141584068Y-86230870D01*
X141602481Y-86241906D01*
X141619724Y-86254694D01*
X141635630Y-86269110D01*
X141650046Y-86285016D01*
X141662834Y-86302259D01*
X141673870Y-86320672D01*
X141683049Y-86340078D01*
X141690281Y-86360290D01*
X141695497Y-86381114D01*
X141698647Y-86402349D01*
X141699700Y-86423790D01*
X141699700Y-86936290D01*
X141698647Y-86957731D01*
X141695497Y-86978966D01*
X141690281Y-86999790D01*
X141683049Y-87020002D01*
X141673870Y-87039408D01*
X141662834Y-87057821D01*
X141650046Y-87075064D01*
X141635630Y-87090970D01*
X141619724Y-87105386D01*
X141602481Y-87118174D01*
X141584068Y-87129210D01*
X141564662Y-87138389D01*
X141544450Y-87145621D01*
X141523626Y-87150837D01*
X141502391Y-87153987D01*
X141480950Y-87155040D01*
X141043450Y-87155040D01*
X141022009Y-87153987D01*
X141000774Y-87150837D01*
X140979950Y-87145621D01*
X140959738Y-87138389D01*
X140940332Y-87129210D01*
X140921919Y-87118174D01*
X140904676Y-87105386D01*
X140888770Y-87090970D01*
X140874354Y-87075064D01*
X140861566Y-87057821D01*
X140850530Y-87039408D01*
X140841351Y-87020002D01*
X140834119Y-86999790D01*
X140828903Y-86978966D01*
X140825753Y-86957731D01*
X140824700Y-86936290D01*
X140824700Y-86423790D01*
X140825753Y-86402349D01*
X140828903Y-86381114D01*
X140834119Y-86360290D01*
X140841351Y-86340078D01*
X140850530Y-86320672D01*
X140861566Y-86302259D01*
X140874354Y-86285016D01*
X140888770Y-86269110D01*
X140904676Y-86254694D01*
X140921919Y-86241906D01*
X140940332Y-86230870D01*
X140959738Y-86221691D01*
X140979950Y-86214459D01*
X141000774Y-86209243D01*
X141022009Y-86206093D01*
X141043450Y-86205040D01*
X141480950Y-86205040D01*
X141502391Y-86206093D01*
X141502391Y-86206093D01*
G37*
D16*
X141262200Y-86680040D03*
D10*
G36*
X168313931Y-88981613D02*
G01*
X168335166Y-88984763D01*
X168355990Y-88989979D01*
X168376202Y-88997211D01*
X168395608Y-89006390D01*
X168414021Y-89017426D01*
X168431264Y-89030214D01*
X168447170Y-89044630D01*
X168461586Y-89060536D01*
X168474374Y-89077779D01*
X168485410Y-89096192D01*
X168494589Y-89115598D01*
X168501821Y-89135810D01*
X168507037Y-89156634D01*
X168510187Y-89177869D01*
X168511240Y-89199310D01*
X168511240Y-89636810D01*
X168510187Y-89658251D01*
X168507037Y-89679486D01*
X168501821Y-89700310D01*
X168494589Y-89720522D01*
X168485410Y-89739928D01*
X168474374Y-89758341D01*
X168461586Y-89775584D01*
X168447170Y-89791490D01*
X168431264Y-89805906D01*
X168414021Y-89818694D01*
X168395608Y-89829730D01*
X168376202Y-89838909D01*
X168355990Y-89846141D01*
X168335166Y-89851357D01*
X168313931Y-89854507D01*
X168292490Y-89855560D01*
X167779990Y-89855560D01*
X167758549Y-89854507D01*
X167737314Y-89851357D01*
X167716490Y-89846141D01*
X167696278Y-89838909D01*
X167676872Y-89829730D01*
X167658459Y-89818694D01*
X167641216Y-89805906D01*
X167625310Y-89791490D01*
X167610894Y-89775584D01*
X167598106Y-89758341D01*
X167587070Y-89739928D01*
X167577891Y-89720522D01*
X167570659Y-89700310D01*
X167565443Y-89679486D01*
X167562293Y-89658251D01*
X167561240Y-89636810D01*
X167561240Y-89199310D01*
X167562293Y-89177869D01*
X167565443Y-89156634D01*
X167570659Y-89135810D01*
X167577891Y-89115598D01*
X167587070Y-89096192D01*
X167598106Y-89077779D01*
X167610894Y-89060536D01*
X167625310Y-89044630D01*
X167641216Y-89030214D01*
X167658459Y-89017426D01*
X167676872Y-89006390D01*
X167696278Y-88997211D01*
X167716490Y-88989979D01*
X167737314Y-88984763D01*
X167758549Y-88981613D01*
X167779990Y-88980560D01*
X168292490Y-88980560D01*
X168313931Y-88981613D01*
X168313931Y-88981613D01*
G37*
D16*
X168036240Y-89418060D03*
D10*
G36*
X168313931Y-90556613D02*
G01*
X168335166Y-90559763D01*
X168355990Y-90564979D01*
X168376202Y-90572211D01*
X168395608Y-90581390D01*
X168414021Y-90592426D01*
X168431264Y-90605214D01*
X168447170Y-90619630D01*
X168461586Y-90635536D01*
X168474374Y-90652779D01*
X168485410Y-90671192D01*
X168494589Y-90690598D01*
X168501821Y-90710810D01*
X168507037Y-90731634D01*
X168510187Y-90752869D01*
X168511240Y-90774310D01*
X168511240Y-91211810D01*
X168510187Y-91233251D01*
X168507037Y-91254486D01*
X168501821Y-91275310D01*
X168494589Y-91295522D01*
X168485410Y-91314928D01*
X168474374Y-91333341D01*
X168461586Y-91350584D01*
X168447170Y-91366490D01*
X168431264Y-91380906D01*
X168414021Y-91393694D01*
X168395608Y-91404730D01*
X168376202Y-91413909D01*
X168355990Y-91421141D01*
X168335166Y-91426357D01*
X168313931Y-91429507D01*
X168292490Y-91430560D01*
X167779990Y-91430560D01*
X167758549Y-91429507D01*
X167737314Y-91426357D01*
X167716490Y-91421141D01*
X167696278Y-91413909D01*
X167676872Y-91404730D01*
X167658459Y-91393694D01*
X167641216Y-91380906D01*
X167625310Y-91366490D01*
X167610894Y-91350584D01*
X167598106Y-91333341D01*
X167587070Y-91314928D01*
X167577891Y-91295522D01*
X167570659Y-91275310D01*
X167565443Y-91254486D01*
X167562293Y-91233251D01*
X167561240Y-91211810D01*
X167561240Y-90774310D01*
X167562293Y-90752869D01*
X167565443Y-90731634D01*
X167570659Y-90710810D01*
X167577891Y-90690598D01*
X167587070Y-90671192D01*
X167598106Y-90652779D01*
X167610894Y-90635536D01*
X167625310Y-90619630D01*
X167641216Y-90605214D01*
X167658459Y-90592426D01*
X167676872Y-90581390D01*
X167696278Y-90572211D01*
X167716490Y-90564979D01*
X167737314Y-90559763D01*
X167758549Y-90556613D01*
X167779990Y-90555560D01*
X168292490Y-90555560D01*
X168313931Y-90556613D01*
X168313931Y-90556613D01*
G37*
D16*
X168036240Y-90993060D03*
D10*
G36*
X169782051Y-88981613D02*
G01*
X169803286Y-88984763D01*
X169824110Y-88989979D01*
X169844322Y-88997211D01*
X169863728Y-89006390D01*
X169882141Y-89017426D01*
X169899384Y-89030214D01*
X169915290Y-89044630D01*
X169929706Y-89060536D01*
X169942494Y-89077779D01*
X169953530Y-89096192D01*
X169962709Y-89115598D01*
X169969941Y-89135810D01*
X169975157Y-89156634D01*
X169978307Y-89177869D01*
X169979360Y-89199310D01*
X169979360Y-89636810D01*
X169978307Y-89658251D01*
X169975157Y-89679486D01*
X169969941Y-89700310D01*
X169962709Y-89720522D01*
X169953530Y-89739928D01*
X169942494Y-89758341D01*
X169929706Y-89775584D01*
X169915290Y-89791490D01*
X169899384Y-89805906D01*
X169882141Y-89818694D01*
X169863728Y-89829730D01*
X169844322Y-89838909D01*
X169824110Y-89846141D01*
X169803286Y-89851357D01*
X169782051Y-89854507D01*
X169760610Y-89855560D01*
X169248110Y-89855560D01*
X169226669Y-89854507D01*
X169205434Y-89851357D01*
X169184610Y-89846141D01*
X169164398Y-89838909D01*
X169144992Y-89829730D01*
X169126579Y-89818694D01*
X169109336Y-89805906D01*
X169093430Y-89791490D01*
X169079014Y-89775584D01*
X169066226Y-89758341D01*
X169055190Y-89739928D01*
X169046011Y-89720522D01*
X169038779Y-89700310D01*
X169033563Y-89679486D01*
X169030413Y-89658251D01*
X169029360Y-89636810D01*
X169029360Y-89199310D01*
X169030413Y-89177869D01*
X169033563Y-89156634D01*
X169038779Y-89135810D01*
X169046011Y-89115598D01*
X169055190Y-89096192D01*
X169066226Y-89077779D01*
X169079014Y-89060536D01*
X169093430Y-89044630D01*
X169109336Y-89030214D01*
X169126579Y-89017426D01*
X169144992Y-89006390D01*
X169164398Y-88997211D01*
X169184610Y-88989979D01*
X169205434Y-88984763D01*
X169226669Y-88981613D01*
X169248110Y-88980560D01*
X169760610Y-88980560D01*
X169782051Y-88981613D01*
X169782051Y-88981613D01*
G37*
D16*
X169504360Y-89418060D03*
D10*
G36*
X169782051Y-90556613D02*
G01*
X169803286Y-90559763D01*
X169824110Y-90564979D01*
X169844322Y-90572211D01*
X169863728Y-90581390D01*
X169882141Y-90592426D01*
X169899384Y-90605214D01*
X169915290Y-90619630D01*
X169929706Y-90635536D01*
X169942494Y-90652779D01*
X169953530Y-90671192D01*
X169962709Y-90690598D01*
X169969941Y-90710810D01*
X169975157Y-90731634D01*
X169978307Y-90752869D01*
X169979360Y-90774310D01*
X169979360Y-91211810D01*
X169978307Y-91233251D01*
X169975157Y-91254486D01*
X169969941Y-91275310D01*
X169962709Y-91295522D01*
X169953530Y-91314928D01*
X169942494Y-91333341D01*
X169929706Y-91350584D01*
X169915290Y-91366490D01*
X169899384Y-91380906D01*
X169882141Y-91393694D01*
X169863728Y-91404730D01*
X169844322Y-91413909D01*
X169824110Y-91421141D01*
X169803286Y-91426357D01*
X169782051Y-91429507D01*
X169760610Y-91430560D01*
X169248110Y-91430560D01*
X169226669Y-91429507D01*
X169205434Y-91426357D01*
X169184610Y-91421141D01*
X169164398Y-91413909D01*
X169144992Y-91404730D01*
X169126579Y-91393694D01*
X169109336Y-91380906D01*
X169093430Y-91366490D01*
X169079014Y-91350584D01*
X169066226Y-91333341D01*
X169055190Y-91314928D01*
X169046011Y-91295522D01*
X169038779Y-91275310D01*
X169033563Y-91254486D01*
X169030413Y-91233251D01*
X169029360Y-91211810D01*
X169029360Y-90774310D01*
X169030413Y-90752869D01*
X169033563Y-90731634D01*
X169038779Y-90710810D01*
X169046011Y-90690598D01*
X169055190Y-90671192D01*
X169066226Y-90652779D01*
X169079014Y-90635536D01*
X169093430Y-90619630D01*
X169109336Y-90605214D01*
X169126579Y-90592426D01*
X169144992Y-90581390D01*
X169164398Y-90572211D01*
X169184610Y-90564979D01*
X169205434Y-90559763D01*
X169226669Y-90556613D01*
X169248110Y-90555560D01*
X169760610Y-90555560D01*
X169782051Y-90556613D01*
X169782051Y-90556613D01*
G37*
D16*
X169504360Y-90993060D03*
D10*
G36*
X170714731Y-81415653D02*
G01*
X170735966Y-81418803D01*
X170756790Y-81424019D01*
X170777002Y-81431251D01*
X170796408Y-81440430D01*
X170814821Y-81451466D01*
X170832064Y-81464254D01*
X170847970Y-81478670D01*
X170862386Y-81494576D01*
X170875174Y-81511819D01*
X170886210Y-81530232D01*
X170895389Y-81549638D01*
X170902621Y-81569850D01*
X170907837Y-81590674D01*
X170910987Y-81611909D01*
X170912040Y-81633350D01*
X170912040Y-82145850D01*
X170910987Y-82167291D01*
X170907837Y-82188526D01*
X170902621Y-82209350D01*
X170895389Y-82229562D01*
X170886210Y-82248968D01*
X170875174Y-82267381D01*
X170862386Y-82284624D01*
X170847970Y-82300530D01*
X170832064Y-82314946D01*
X170814821Y-82327734D01*
X170796408Y-82338770D01*
X170777002Y-82347949D01*
X170756790Y-82355181D01*
X170735966Y-82360397D01*
X170714731Y-82363547D01*
X170693290Y-82364600D01*
X170255790Y-82364600D01*
X170234349Y-82363547D01*
X170213114Y-82360397D01*
X170192290Y-82355181D01*
X170172078Y-82347949D01*
X170152672Y-82338770D01*
X170134259Y-82327734D01*
X170117016Y-82314946D01*
X170101110Y-82300530D01*
X170086694Y-82284624D01*
X170073906Y-82267381D01*
X170062870Y-82248968D01*
X170053691Y-82229562D01*
X170046459Y-82209350D01*
X170041243Y-82188526D01*
X170038093Y-82167291D01*
X170037040Y-82145850D01*
X170037040Y-81633350D01*
X170038093Y-81611909D01*
X170041243Y-81590674D01*
X170046459Y-81569850D01*
X170053691Y-81549638D01*
X170062870Y-81530232D01*
X170073906Y-81511819D01*
X170086694Y-81494576D01*
X170101110Y-81478670D01*
X170117016Y-81464254D01*
X170134259Y-81451466D01*
X170152672Y-81440430D01*
X170172078Y-81431251D01*
X170192290Y-81424019D01*
X170213114Y-81418803D01*
X170234349Y-81415653D01*
X170255790Y-81414600D01*
X170693290Y-81414600D01*
X170714731Y-81415653D01*
X170714731Y-81415653D01*
G37*
D16*
X170474540Y-81889600D03*
D10*
G36*
X172289731Y-81415653D02*
G01*
X172310966Y-81418803D01*
X172331790Y-81424019D01*
X172352002Y-81431251D01*
X172371408Y-81440430D01*
X172389821Y-81451466D01*
X172407064Y-81464254D01*
X172422970Y-81478670D01*
X172437386Y-81494576D01*
X172450174Y-81511819D01*
X172461210Y-81530232D01*
X172470389Y-81549638D01*
X172477621Y-81569850D01*
X172482837Y-81590674D01*
X172485987Y-81611909D01*
X172487040Y-81633350D01*
X172487040Y-82145850D01*
X172485987Y-82167291D01*
X172482837Y-82188526D01*
X172477621Y-82209350D01*
X172470389Y-82229562D01*
X172461210Y-82248968D01*
X172450174Y-82267381D01*
X172437386Y-82284624D01*
X172422970Y-82300530D01*
X172407064Y-82314946D01*
X172389821Y-82327734D01*
X172371408Y-82338770D01*
X172352002Y-82347949D01*
X172331790Y-82355181D01*
X172310966Y-82360397D01*
X172289731Y-82363547D01*
X172268290Y-82364600D01*
X171830790Y-82364600D01*
X171809349Y-82363547D01*
X171788114Y-82360397D01*
X171767290Y-82355181D01*
X171747078Y-82347949D01*
X171727672Y-82338770D01*
X171709259Y-82327734D01*
X171692016Y-82314946D01*
X171676110Y-82300530D01*
X171661694Y-82284624D01*
X171648906Y-82267381D01*
X171637870Y-82248968D01*
X171628691Y-82229562D01*
X171621459Y-82209350D01*
X171616243Y-82188526D01*
X171613093Y-82167291D01*
X171612040Y-82145850D01*
X171612040Y-81633350D01*
X171613093Y-81611909D01*
X171616243Y-81590674D01*
X171621459Y-81569850D01*
X171628691Y-81549638D01*
X171637870Y-81530232D01*
X171648906Y-81511819D01*
X171661694Y-81494576D01*
X171676110Y-81478670D01*
X171692016Y-81464254D01*
X171709259Y-81451466D01*
X171727672Y-81440430D01*
X171747078Y-81431251D01*
X171767290Y-81424019D01*
X171788114Y-81418803D01*
X171809349Y-81415653D01*
X171830790Y-81414600D01*
X172268290Y-81414600D01*
X172289731Y-81415653D01*
X172289731Y-81415653D01*
G37*
D16*
X172049540Y-81889600D03*
D10*
G36*
X170699491Y-82792333D02*
G01*
X170720726Y-82795483D01*
X170741550Y-82800699D01*
X170761762Y-82807931D01*
X170781168Y-82817110D01*
X170799581Y-82828146D01*
X170816824Y-82840934D01*
X170832730Y-82855350D01*
X170847146Y-82871256D01*
X170859934Y-82888499D01*
X170870970Y-82906912D01*
X170880149Y-82926318D01*
X170887381Y-82946530D01*
X170892597Y-82967354D01*
X170895747Y-82988589D01*
X170896800Y-83010030D01*
X170896800Y-83522530D01*
X170895747Y-83543971D01*
X170892597Y-83565206D01*
X170887381Y-83586030D01*
X170880149Y-83606242D01*
X170870970Y-83625648D01*
X170859934Y-83644061D01*
X170847146Y-83661304D01*
X170832730Y-83677210D01*
X170816824Y-83691626D01*
X170799581Y-83704414D01*
X170781168Y-83715450D01*
X170761762Y-83724629D01*
X170741550Y-83731861D01*
X170720726Y-83737077D01*
X170699491Y-83740227D01*
X170678050Y-83741280D01*
X170240550Y-83741280D01*
X170219109Y-83740227D01*
X170197874Y-83737077D01*
X170177050Y-83731861D01*
X170156838Y-83724629D01*
X170137432Y-83715450D01*
X170119019Y-83704414D01*
X170101776Y-83691626D01*
X170085870Y-83677210D01*
X170071454Y-83661304D01*
X170058666Y-83644061D01*
X170047630Y-83625648D01*
X170038451Y-83606242D01*
X170031219Y-83586030D01*
X170026003Y-83565206D01*
X170022853Y-83543971D01*
X170021800Y-83522530D01*
X170021800Y-83010030D01*
X170022853Y-82988589D01*
X170026003Y-82967354D01*
X170031219Y-82946530D01*
X170038451Y-82926318D01*
X170047630Y-82906912D01*
X170058666Y-82888499D01*
X170071454Y-82871256D01*
X170085870Y-82855350D01*
X170101776Y-82840934D01*
X170119019Y-82828146D01*
X170137432Y-82817110D01*
X170156838Y-82807931D01*
X170177050Y-82800699D01*
X170197874Y-82795483D01*
X170219109Y-82792333D01*
X170240550Y-82791280D01*
X170678050Y-82791280D01*
X170699491Y-82792333D01*
X170699491Y-82792333D01*
G37*
D16*
X170459300Y-83266280D03*
D10*
G36*
X172274491Y-82792333D02*
G01*
X172295726Y-82795483D01*
X172316550Y-82800699D01*
X172336762Y-82807931D01*
X172356168Y-82817110D01*
X172374581Y-82828146D01*
X172391824Y-82840934D01*
X172407730Y-82855350D01*
X172422146Y-82871256D01*
X172434934Y-82888499D01*
X172445970Y-82906912D01*
X172455149Y-82926318D01*
X172462381Y-82946530D01*
X172467597Y-82967354D01*
X172470747Y-82988589D01*
X172471800Y-83010030D01*
X172471800Y-83522530D01*
X172470747Y-83543971D01*
X172467597Y-83565206D01*
X172462381Y-83586030D01*
X172455149Y-83606242D01*
X172445970Y-83625648D01*
X172434934Y-83644061D01*
X172422146Y-83661304D01*
X172407730Y-83677210D01*
X172391824Y-83691626D01*
X172374581Y-83704414D01*
X172356168Y-83715450D01*
X172336762Y-83724629D01*
X172316550Y-83731861D01*
X172295726Y-83737077D01*
X172274491Y-83740227D01*
X172253050Y-83741280D01*
X171815550Y-83741280D01*
X171794109Y-83740227D01*
X171772874Y-83737077D01*
X171752050Y-83731861D01*
X171731838Y-83724629D01*
X171712432Y-83715450D01*
X171694019Y-83704414D01*
X171676776Y-83691626D01*
X171660870Y-83677210D01*
X171646454Y-83661304D01*
X171633666Y-83644061D01*
X171622630Y-83625648D01*
X171613451Y-83606242D01*
X171606219Y-83586030D01*
X171601003Y-83565206D01*
X171597853Y-83543971D01*
X171596800Y-83522530D01*
X171596800Y-83010030D01*
X171597853Y-82988589D01*
X171601003Y-82967354D01*
X171606219Y-82946530D01*
X171613451Y-82926318D01*
X171622630Y-82906912D01*
X171633666Y-82888499D01*
X171646454Y-82871256D01*
X171660870Y-82855350D01*
X171676776Y-82840934D01*
X171694019Y-82828146D01*
X171712432Y-82817110D01*
X171731838Y-82807931D01*
X171752050Y-82800699D01*
X171772874Y-82795483D01*
X171794109Y-82792333D01*
X171815550Y-82791280D01*
X172253050Y-82791280D01*
X172274491Y-82792333D01*
X172274491Y-82792333D01*
G37*
D16*
X172034300Y-83266280D03*
D10*
G36*
X151162011Y-84768453D02*
G01*
X151183246Y-84771603D01*
X151204070Y-84776819D01*
X151224282Y-84784051D01*
X151243688Y-84793230D01*
X151262101Y-84804266D01*
X151279344Y-84817054D01*
X151295250Y-84831470D01*
X151309666Y-84847376D01*
X151322454Y-84864619D01*
X151333490Y-84883032D01*
X151342669Y-84902438D01*
X151349901Y-84922650D01*
X151355117Y-84943474D01*
X151358267Y-84964709D01*
X151359320Y-84986150D01*
X151359320Y-85498650D01*
X151358267Y-85520091D01*
X151355117Y-85541326D01*
X151349901Y-85562150D01*
X151342669Y-85582362D01*
X151333490Y-85601768D01*
X151322454Y-85620181D01*
X151309666Y-85637424D01*
X151295250Y-85653330D01*
X151279344Y-85667746D01*
X151262101Y-85680534D01*
X151243688Y-85691570D01*
X151224282Y-85700749D01*
X151204070Y-85707981D01*
X151183246Y-85713197D01*
X151162011Y-85716347D01*
X151140570Y-85717400D01*
X150703070Y-85717400D01*
X150681629Y-85716347D01*
X150660394Y-85713197D01*
X150639570Y-85707981D01*
X150619358Y-85700749D01*
X150599952Y-85691570D01*
X150581539Y-85680534D01*
X150564296Y-85667746D01*
X150548390Y-85653330D01*
X150533974Y-85637424D01*
X150521186Y-85620181D01*
X150510150Y-85601768D01*
X150500971Y-85582362D01*
X150493739Y-85562150D01*
X150488523Y-85541326D01*
X150485373Y-85520091D01*
X150484320Y-85498650D01*
X150484320Y-84986150D01*
X150485373Y-84964709D01*
X150488523Y-84943474D01*
X150493739Y-84922650D01*
X150500971Y-84902438D01*
X150510150Y-84883032D01*
X150521186Y-84864619D01*
X150533974Y-84847376D01*
X150548390Y-84831470D01*
X150564296Y-84817054D01*
X150581539Y-84804266D01*
X150599952Y-84793230D01*
X150619358Y-84784051D01*
X150639570Y-84776819D01*
X150660394Y-84771603D01*
X150681629Y-84768453D01*
X150703070Y-84767400D01*
X151140570Y-84767400D01*
X151162011Y-84768453D01*
X151162011Y-84768453D01*
G37*
D16*
X150921820Y-85242400D03*
D10*
G36*
X149587011Y-84768453D02*
G01*
X149608246Y-84771603D01*
X149629070Y-84776819D01*
X149649282Y-84784051D01*
X149668688Y-84793230D01*
X149687101Y-84804266D01*
X149704344Y-84817054D01*
X149720250Y-84831470D01*
X149734666Y-84847376D01*
X149747454Y-84864619D01*
X149758490Y-84883032D01*
X149767669Y-84902438D01*
X149774901Y-84922650D01*
X149780117Y-84943474D01*
X149783267Y-84964709D01*
X149784320Y-84986150D01*
X149784320Y-85498650D01*
X149783267Y-85520091D01*
X149780117Y-85541326D01*
X149774901Y-85562150D01*
X149767669Y-85582362D01*
X149758490Y-85601768D01*
X149747454Y-85620181D01*
X149734666Y-85637424D01*
X149720250Y-85653330D01*
X149704344Y-85667746D01*
X149687101Y-85680534D01*
X149668688Y-85691570D01*
X149649282Y-85700749D01*
X149629070Y-85707981D01*
X149608246Y-85713197D01*
X149587011Y-85716347D01*
X149565570Y-85717400D01*
X149128070Y-85717400D01*
X149106629Y-85716347D01*
X149085394Y-85713197D01*
X149064570Y-85707981D01*
X149044358Y-85700749D01*
X149024952Y-85691570D01*
X149006539Y-85680534D01*
X148989296Y-85667746D01*
X148973390Y-85653330D01*
X148958974Y-85637424D01*
X148946186Y-85620181D01*
X148935150Y-85601768D01*
X148925971Y-85582362D01*
X148918739Y-85562150D01*
X148913523Y-85541326D01*
X148910373Y-85520091D01*
X148909320Y-85498650D01*
X148909320Y-84986150D01*
X148910373Y-84964709D01*
X148913523Y-84943474D01*
X148918739Y-84922650D01*
X148925971Y-84902438D01*
X148935150Y-84883032D01*
X148946186Y-84864619D01*
X148958974Y-84847376D01*
X148973390Y-84831470D01*
X148989296Y-84817054D01*
X149006539Y-84804266D01*
X149024952Y-84793230D01*
X149044358Y-84784051D01*
X149064570Y-84776819D01*
X149085394Y-84771603D01*
X149106629Y-84768453D01*
X149128070Y-84767400D01*
X149565570Y-84767400D01*
X149587011Y-84768453D01*
X149587011Y-84768453D01*
G37*
D16*
X149346820Y-85242400D03*
D10*
G36*
X148689891Y-88349353D02*
G01*
X148711126Y-88352503D01*
X148731950Y-88357719D01*
X148752162Y-88364951D01*
X148771568Y-88374130D01*
X148789981Y-88385166D01*
X148807224Y-88397954D01*
X148823130Y-88412370D01*
X148837546Y-88428276D01*
X148850334Y-88445519D01*
X148861370Y-88463932D01*
X148870549Y-88483338D01*
X148877781Y-88503550D01*
X148882997Y-88524374D01*
X148886147Y-88545609D01*
X148887200Y-88567050D01*
X148887200Y-89004550D01*
X148886147Y-89025991D01*
X148882997Y-89047226D01*
X148877781Y-89068050D01*
X148870549Y-89088262D01*
X148861370Y-89107668D01*
X148850334Y-89126081D01*
X148837546Y-89143324D01*
X148823130Y-89159230D01*
X148807224Y-89173646D01*
X148789981Y-89186434D01*
X148771568Y-89197470D01*
X148752162Y-89206649D01*
X148731950Y-89213881D01*
X148711126Y-89219097D01*
X148689891Y-89222247D01*
X148668450Y-89223300D01*
X148155950Y-89223300D01*
X148134509Y-89222247D01*
X148113274Y-89219097D01*
X148092450Y-89213881D01*
X148072238Y-89206649D01*
X148052832Y-89197470D01*
X148034419Y-89186434D01*
X148017176Y-89173646D01*
X148001270Y-89159230D01*
X147986854Y-89143324D01*
X147974066Y-89126081D01*
X147963030Y-89107668D01*
X147953851Y-89088262D01*
X147946619Y-89068050D01*
X147941403Y-89047226D01*
X147938253Y-89025991D01*
X147937200Y-89004550D01*
X147937200Y-88567050D01*
X147938253Y-88545609D01*
X147941403Y-88524374D01*
X147946619Y-88503550D01*
X147953851Y-88483338D01*
X147963030Y-88463932D01*
X147974066Y-88445519D01*
X147986854Y-88428276D01*
X148001270Y-88412370D01*
X148017176Y-88397954D01*
X148034419Y-88385166D01*
X148052832Y-88374130D01*
X148072238Y-88364951D01*
X148092450Y-88357719D01*
X148113274Y-88352503D01*
X148134509Y-88349353D01*
X148155950Y-88348300D01*
X148668450Y-88348300D01*
X148689891Y-88349353D01*
X148689891Y-88349353D01*
G37*
D16*
X148412200Y-88785800D03*
D10*
G36*
X148689891Y-86774353D02*
G01*
X148711126Y-86777503D01*
X148731950Y-86782719D01*
X148752162Y-86789951D01*
X148771568Y-86799130D01*
X148789981Y-86810166D01*
X148807224Y-86822954D01*
X148823130Y-86837370D01*
X148837546Y-86853276D01*
X148850334Y-86870519D01*
X148861370Y-86888932D01*
X148870549Y-86908338D01*
X148877781Y-86928550D01*
X148882997Y-86949374D01*
X148886147Y-86970609D01*
X148887200Y-86992050D01*
X148887200Y-87429550D01*
X148886147Y-87450991D01*
X148882997Y-87472226D01*
X148877781Y-87493050D01*
X148870549Y-87513262D01*
X148861370Y-87532668D01*
X148850334Y-87551081D01*
X148837546Y-87568324D01*
X148823130Y-87584230D01*
X148807224Y-87598646D01*
X148789981Y-87611434D01*
X148771568Y-87622470D01*
X148752162Y-87631649D01*
X148731950Y-87638881D01*
X148711126Y-87644097D01*
X148689891Y-87647247D01*
X148668450Y-87648300D01*
X148155950Y-87648300D01*
X148134509Y-87647247D01*
X148113274Y-87644097D01*
X148092450Y-87638881D01*
X148072238Y-87631649D01*
X148052832Y-87622470D01*
X148034419Y-87611434D01*
X148017176Y-87598646D01*
X148001270Y-87584230D01*
X147986854Y-87568324D01*
X147974066Y-87551081D01*
X147963030Y-87532668D01*
X147953851Y-87513262D01*
X147946619Y-87493050D01*
X147941403Y-87472226D01*
X147938253Y-87450991D01*
X147937200Y-87429550D01*
X147937200Y-86992050D01*
X147938253Y-86970609D01*
X147941403Y-86949374D01*
X147946619Y-86928550D01*
X147953851Y-86908338D01*
X147963030Y-86888932D01*
X147974066Y-86870519D01*
X147986854Y-86853276D01*
X148001270Y-86837370D01*
X148017176Y-86822954D01*
X148034419Y-86810166D01*
X148052832Y-86799130D01*
X148072238Y-86789951D01*
X148092450Y-86782719D01*
X148113274Y-86777503D01*
X148134509Y-86774353D01*
X148155950Y-86773300D01*
X148668450Y-86773300D01*
X148689891Y-86774353D01*
X148689891Y-86774353D01*
G37*
D16*
X148412200Y-87210800D03*
D10*
G36*
X173414251Y-91961233D02*
G01*
X173435486Y-91964383D01*
X173456310Y-91969599D01*
X173476522Y-91976831D01*
X173495928Y-91986010D01*
X173514341Y-91997046D01*
X173531584Y-92009834D01*
X173547490Y-92024250D01*
X173561906Y-92040156D01*
X173574694Y-92057399D01*
X173585730Y-92075812D01*
X173594909Y-92095218D01*
X173602141Y-92115430D01*
X173607357Y-92136254D01*
X173610507Y-92157489D01*
X173611560Y-92178930D01*
X173611560Y-92616430D01*
X173610507Y-92637871D01*
X173607357Y-92659106D01*
X173602141Y-92679930D01*
X173594909Y-92700142D01*
X173585730Y-92719548D01*
X173574694Y-92737961D01*
X173561906Y-92755204D01*
X173547490Y-92771110D01*
X173531584Y-92785526D01*
X173514341Y-92798314D01*
X173495928Y-92809350D01*
X173476522Y-92818529D01*
X173456310Y-92825761D01*
X173435486Y-92830977D01*
X173414251Y-92834127D01*
X173392810Y-92835180D01*
X172880310Y-92835180D01*
X172858869Y-92834127D01*
X172837634Y-92830977D01*
X172816810Y-92825761D01*
X172796598Y-92818529D01*
X172777192Y-92809350D01*
X172758779Y-92798314D01*
X172741536Y-92785526D01*
X172725630Y-92771110D01*
X172711214Y-92755204D01*
X172698426Y-92737961D01*
X172687390Y-92719548D01*
X172678211Y-92700142D01*
X172670979Y-92679930D01*
X172665763Y-92659106D01*
X172662613Y-92637871D01*
X172661560Y-92616430D01*
X172661560Y-92178930D01*
X172662613Y-92157489D01*
X172665763Y-92136254D01*
X172670979Y-92115430D01*
X172678211Y-92095218D01*
X172687390Y-92075812D01*
X172698426Y-92057399D01*
X172711214Y-92040156D01*
X172725630Y-92024250D01*
X172741536Y-92009834D01*
X172758779Y-91997046D01*
X172777192Y-91986010D01*
X172796598Y-91976831D01*
X172816810Y-91969599D01*
X172837634Y-91964383D01*
X172858869Y-91961233D01*
X172880310Y-91960180D01*
X173392810Y-91960180D01*
X173414251Y-91961233D01*
X173414251Y-91961233D01*
G37*
D16*
X173136560Y-92397680D03*
D10*
G36*
X173414251Y-90386233D02*
G01*
X173435486Y-90389383D01*
X173456310Y-90394599D01*
X173476522Y-90401831D01*
X173495928Y-90411010D01*
X173514341Y-90422046D01*
X173531584Y-90434834D01*
X173547490Y-90449250D01*
X173561906Y-90465156D01*
X173574694Y-90482399D01*
X173585730Y-90500812D01*
X173594909Y-90520218D01*
X173602141Y-90540430D01*
X173607357Y-90561254D01*
X173610507Y-90582489D01*
X173611560Y-90603930D01*
X173611560Y-91041430D01*
X173610507Y-91062871D01*
X173607357Y-91084106D01*
X173602141Y-91104930D01*
X173594909Y-91125142D01*
X173585730Y-91144548D01*
X173574694Y-91162961D01*
X173561906Y-91180204D01*
X173547490Y-91196110D01*
X173531584Y-91210526D01*
X173514341Y-91223314D01*
X173495928Y-91234350D01*
X173476522Y-91243529D01*
X173456310Y-91250761D01*
X173435486Y-91255977D01*
X173414251Y-91259127D01*
X173392810Y-91260180D01*
X172880310Y-91260180D01*
X172858869Y-91259127D01*
X172837634Y-91255977D01*
X172816810Y-91250761D01*
X172796598Y-91243529D01*
X172777192Y-91234350D01*
X172758779Y-91223314D01*
X172741536Y-91210526D01*
X172725630Y-91196110D01*
X172711214Y-91180204D01*
X172698426Y-91162961D01*
X172687390Y-91144548D01*
X172678211Y-91125142D01*
X172670979Y-91104930D01*
X172665763Y-91084106D01*
X172662613Y-91062871D01*
X172661560Y-91041430D01*
X172661560Y-90603930D01*
X172662613Y-90582489D01*
X172665763Y-90561254D01*
X172670979Y-90540430D01*
X172678211Y-90520218D01*
X172687390Y-90500812D01*
X172698426Y-90482399D01*
X172711214Y-90465156D01*
X172725630Y-90449250D01*
X172741536Y-90434834D01*
X172758779Y-90422046D01*
X172777192Y-90411010D01*
X172796598Y-90401831D01*
X172816810Y-90394599D01*
X172837634Y-90389383D01*
X172858869Y-90386233D01*
X172880310Y-90385180D01*
X173392810Y-90385180D01*
X173414251Y-90386233D01*
X173414251Y-90386233D01*
G37*
D16*
X173136560Y-90822680D03*
D10*
G36*
X167856731Y-80005453D02*
G01*
X167877966Y-80008603D01*
X167898790Y-80013819D01*
X167919002Y-80021051D01*
X167938408Y-80030230D01*
X167956821Y-80041266D01*
X167974064Y-80054054D01*
X167989970Y-80068470D01*
X168004386Y-80084376D01*
X168017174Y-80101619D01*
X168028210Y-80120032D01*
X168037389Y-80139438D01*
X168044621Y-80159650D01*
X168049837Y-80180474D01*
X168052987Y-80201709D01*
X168054040Y-80223150D01*
X168054040Y-80660650D01*
X168052987Y-80682091D01*
X168049837Y-80703326D01*
X168044621Y-80724150D01*
X168037389Y-80744362D01*
X168028210Y-80763768D01*
X168017174Y-80782181D01*
X168004386Y-80799424D01*
X167989970Y-80815330D01*
X167974064Y-80829746D01*
X167956821Y-80842534D01*
X167938408Y-80853570D01*
X167919002Y-80862749D01*
X167898790Y-80869981D01*
X167877966Y-80875197D01*
X167856731Y-80878347D01*
X167835290Y-80879400D01*
X167322790Y-80879400D01*
X167301349Y-80878347D01*
X167280114Y-80875197D01*
X167259290Y-80869981D01*
X167239078Y-80862749D01*
X167219672Y-80853570D01*
X167201259Y-80842534D01*
X167184016Y-80829746D01*
X167168110Y-80815330D01*
X167153694Y-80799424D01*
X167140906Y-80782181D01*
X167129870Y-80763768D01*
X167120691Y-80744362D01*
X167113459Y-80724150D01*
X167108243Y-80703326D01*
X167105093Y-80682091D01*
X167104040Y-80660650D01*
X167104040Y-80223150D01*
X167105093Y-80201709D01*
X167108243Y-80180474D01*
X167113459Y-80159650D01*
X167120691Y-80139438D01*
X167129870Y-80120032D01*
X167140906Y-80101619D01*
X167153694Y-80084376D01*
X167168110Y-80068470D01*
X167184016Y-80054054D01*
X167201259Y-80041266D01*
X167219672Y-80030230D01*
X167239078Y-80021051D01*
X167259290Y-80013819D01*
X167280114Y-80008603D01*
X167301349Y-80005453D01*
X167322790Y-80004400D01*
X167835290Y-80004400D01*
X167856731Y-80005453D01*
X167856731Y-80005453D01*
G37*
D16*
X167579040Y-80441900D03*
D10*
G36*
X167856731Y-78430453D02*
G01*
X167877966Y-78433603D01*
X167898790Y-78438819D01*
X167919002Y-78446051D01*
X167938408Y-78455230D01*
X167956821Y-78466266D01*
X167974064Y-78479054D01*
X167989970Y-78493470D01*
X168004386Y-78509376D01*
X168017174Y-78526619D01*
X168028210Y-78545032D01*
X168037389Y-78564438D01*
X168044621Y-78584650D01*
X168049837Y-78605474D01*
X168052987Y-78626709D01*
X168054040Y-78648150D01*
X168054040Y-79085650D01*
X168052987Y-79107091D01*
X168049837Y-79128326D01*
X168044621Y-79149150D01*
X168037389Y-79169362D01*
X168028210Y-79188768D01*
X168017174Y-79207181D01*
X168004386Y-79224424D01*
X167989970Y-79240330D01*
X167974064Y-79254746D01*
X167956821Y-79267534D01*
X167938408Y-79278570D01*
X167919002Y-79287749D01*
X167898790Y-79294981D01*
X167877966Y-79300197D01*
X167856731Y-79303347D01*
X167835290Y-79304400D01*
X167322790Y-79304400D01*
X167301349Y-79303347D01*
X167280114Y-79300197D01*
X167259290Y-79294981D01*
X167239078Y-79287749D01*
X167219672Y-79278570D01*
X167201259Y-79267534D01*
X167184016Y-79254746D01*
X167168110Y-79240330D01*
X167153694Y-79224424D01*
X167140906Y-79207181D01*
X167129870Y-79188768D01*
X167120691Y-79169362D01*
X167113459Y-79149150D01*
X167108243Y-79128326D01*
X167105093Y-79107091D01*
X167104040Y-79085650D01*
X167104040Y-78648150D01*
X167105093Y-78626709D01*
X167108243Y-78605474D01*
X167113459Y-78584650D01*
X167120691Y-78564438D01*
X167129870Y-78545032D01*
X167140906Y-78526619D01*
X167153694Y-78509376D01*
X167168110Y-78493470D01*
X167184016Y-78479054D01*
X167201259Y-78466266D01*
X167219672Y-78455230D01*
X167239078Y-78446051D01*
X167259290Y-78438819D01*
X167280114Y-78433603D01*
X167301349Y-78430453D01*
X167322790Y-78429400D01*
X167835290Y-78429400D01*
X167856731Y-78430453D01*
X167856731Y-78430453D01*
G37*
D16*
X167579040Y-78866900D03*
D22*
X146082780Y-81569560D03*
D10*
G36*
X145582780Y-80819560D02*
G01*
X146082780Y-80819560D01*
X146082780Y-80820162D01*
X146107314Y-80820162D01*
X146156145Y-80824972D01*
X146204270Y-80834544D01*
X146251225Y-80848788D01*
X146296558Y-80867565D01*
X146339831Y-80890696D01*
X146380630Y-80917956D01*
X146418559Y-80949084D01*
X146453256Y-80983781D01*
X146484384Y-81021710D01*
X146511644Y-81062509D01*
X146534775Y-81105782D01*
X146553552Y-81151115D01*
X146567796Y-81198070D01*
X146577368Y-81246195D01*
X146582178Y-81295026D01*
X146582178Y-81319560D01*
X146582780Y-81319560D01*
X146582780Y-81819560D01*
X146582178Y-81819560D01*
X146582178Y-81844094D01*
X146577368Y-81892925D01*
X146567796Y-81941050D01*
X146553552Y-81988005D01*
X146534775Y-82033338D01*
X146511644Y-82076611D01*
X146484384Y-82117410D01*
X146453256Y-82155339D01*
X146418559Y-82190036D01*
X146380630Y-82221164D01*
X146339831Y-82248424D01*
X146296558Y-82271555D01*
X146251225Y-82290332D01*
X146204270Y-82304576D01*
X146156145Y-82314148D01*
X146107314Y-82318958D01*
X146082780Y-82318958D01*
X146082780Y-82319560D01*
X145582780Y-82319560D01*
X145582780Y-80819560D01*
X145582780Y-80819560D01*
G37*
D22*
X144782780Y-81569560D03*
D10*
G36*
X144782780Y-82318958D02*
G01*
X144758246Y-82318958D01*
X144709415Y-82314148D01*
X144661290Y-82304576D01*
X144614335Y-82290332D01*
X144569002Y-82271555D01*
X144525729Y-82248424D01*
X144484930Y-82221164D01*
X144447001Y-82190036D01*
X144412304Y-82155339D01*
X144381176Y-82117410D01*
X144353916Y-82076611D01*
X144330785Y-82033338D01*
X144312008Y-81988005D01*
X144297764Y-81941050D01*
X144288192Y-81892925D01*
X144283382Y-81844094D01*
X144283382Y-81819560D01*
X144282780Y-81819560D01*
X144282780Y-81319560D01*
X144283382Y-81319560D01*
X144283382Y-81295026D01*
X144288192Y-81246195D01*
X144297764Y-81198070D01*
X144312008Y-81151115D01*
X144330785Y-81105782D01*
X144353916Y-81062509D01*
X144381176Y-81021710D01*
X144412304Y-80983781D01*
X144447001Y-80949084D01*
X144484930Y-80917956D01*
X144525729Y-80890696D01*
X144569002Y-80867565D01*
X144614335Y-80848788D01*
X144661290Y-80834544D01*
X144709415Y-80824972D01*
X144758246Y-80820162D01*
X144782780Y-80820162D01*
X144782780Y-80819560D01*
X145282780Y-80819560D01*
X145282780Y-82319560D01*
X144782780Y-82319560D01*
X144782780Y-82318958D01*
X144782780Y-82318958D01*
G37*
D22*
X146057380Y-79413100D03*
D10*
G36*
X145557380Y-78663100D02*
G01*
X146057380Y-78663100D01*
X146057380Y-78663702D01*
X146081914Y-78663702D01*
X146130745Y-78668512D01*
X146178870Y-78678084D01*
X146225825Y-78692328D01*
X146271158Y-78711105D01*
X146314431Y-78734236D01*
X146355230Y-78761496D01*
X146393159Y-78792624D01*
X146427856Y-78827321D01*
X146458984Y-78865250D01*
X146486244Y-78906049D01*
X146509375Y-78949322D01*
X146528152Y-78994655D01*
X146542396Y-79041610D01*
X146551968Y-79089735D01*
X146556778Y-79138566D01*
X146556778Y-79163100D01*
X146557380Y-79163100D01*
X146557380Y-79663100D01*
X146556778Y-79663100D01*
X146556778Y-79687634D01*
X146551968Y-79736465D01*
X146542396Y-79784590D01*
X146528152Y-79831545D01*
X146509375Y-79876878D01*
X146486244Y-79920151D01*
X146458984Y-79960950D01*
X146427856Y-79998879D01*
X146393159Y-80033576D01*
X146355230Y-80064704D01*
X146314431Y-80091964D01*
X146271158Y-80115095D01*
X146225825Y-80133872D01*
X146178870Y-80148116D01*
X146130745Y-80157688D01*
X146081914Y-80162498D01*
X146057380Y-80162498D01*
X146057380Y-80163100D01*
X145557380Y-80163100D01*
X145557380Y-78663100D01*
X145557380Y-78663100D01*
G37*
D22*
X144757380Y-79413100D03*
D10*
G36*
X144757380Y-80162498D02*
G01*
X144732846Y-80162498D01*
X144684015Y-80157688D01*
X144635890Y-80148116D01*
X144588935Y-80133872D01*
X144543602Y-80115095D01*
X144500329Y-80091964D01*
X144459530Y-80064704D01*
X144421601Y-80033576D01*
X144386904Y-79998879D01*
X144355776Y-79960950D01*
X144328516Y-79920151D01*
X144305385Y-79876878D01*
X144286608Y-79831545D01*
X144272364Y-79784590D01*
X144262792Y-79736465D01*
X144257982Y-79687634D01*
X144257982Y-79663100D01*
X144257380Y-79663100D01*
X144257380Y-79163100D01*
X144257982Y-79163100D01*
X144257982Y-79138566D01*
X144262792Y-79089735D01*
X144272364Y-79041610D01*
X144286608Y-78994655D01*
X144305385Y-78949322D01*
X144328516Y-78906049D01*
X144355776Y-78865250D01*
X144386904Y-78827321D01*
X144421601Y-78792624D01*
X144459530Y-78761496D01*
X144500329Y-78734236D01*
X144543602Y-78711105D01*
X144588935Y-78692328D01*
X144635890Y-78678084D01*
X144684015Y-78668512D01*
X144732846Y-78663702D01*
X144757380Y-78663702D01*
X144757380Y-78663100D01*
X145257380Y-78663100D01*
X145257380Y-80163100D01*
X144757380Y-80163100D01*
X144757380Y-80162498D01*
X144757380Y-80162498D01*
G37*
G36*
X140699751Y-81095613D02*
G01*
X140720986Y-81098763D01*
X140741810Y-81103979D01*
X140762022Y-81111211D01*
X140781428Y-81120390D01*
X140799841Y-81131426D01*
X140817084Y-81144214D01*
X140832990Y-81158630D01*
X140847406Y-81174536D01*
X140860194Y-81191779D01*
X140871230Y-81210192D01*
X140880409Y-81229598D01*
X140887641Y-81249810D01*
X140892857Y-81270634D01*
X140896007Y-81291869D01*
X140897060Y-81313310D01*
X140897060Y-81825810D01*
X140896007Y-81847251D01*
X140892857Y-81868486D01*
X140887641Y-81889310D01*
X140880409Y-81909522D01*
X140871230Y-81928928D01*
X140860194Y-81947341D01*
X140847406Y-81964584D01*
X140832990Y-81980490D01*
X140817084Y-81994906D01*
X140799841Y-82007694D01*
X140781428Y-82018730D01*
X140762022Y-82027909D01*
X140741810Y-82035141D01*
X140720986Y-82040357D01*
X140699751Y-82043507D01*
X140678310Y-82044560D01*
X140240810Y-82044560D01*
X140219369Y-82043507D01*
X140198134Y-82040357D01*
X140177310Y-82035141D01*
X140157098Y-82027909D01*
X140137692Y-82018730D01*
X140119279Y-82007694D01*
X140102036Y-81994906D01*
X140086130Y-81980490D01*
X140071714Y-81964584D01*
X140058926Y-81947341D01*
X140047890Y-81928928D01*
X140038711Y-81909522D01*
X140031479Y-81889310D01*
X140026263Y-81868486D01*
X140023113Y-81847251D01*
X140022060Y-81825810D01*
X140022060Y-81313310D01*
X140023113Y-81291869D01*
X140026263Y-81270634D01*
X140031479Y-81249810D01*
X140038711Y-81229598D01*
X140047890Y-81210192D01*
X140058926Y-81191779D01*
X140071714Y-81174536D01*
X140086130Y-81158630D01*
X140102036Y-81144214D01*
X140119279Y-81131426D01*
X140137692Y-81120390D01*
X140157098Y-81111211D01*
X140177310Y-81103979D01*
X140198134Y-81098763D01*
X140219369Y-81095613D01*
X140240810Y-81094560D01*
X140678310Y-81094560D01*
X140699751Y-81095613D01*
X140699751Y-81095613D01*
G37*
D16*
X140459560Y-81569560D03*
D10*
G36*
X139124751Y-81095613D02*
G01*
X139145986Y-81098763D01*
X139166810Y-81103979D01*
X139187022Y-81111211D01*
X139206428Y-81120390D01*
X139224841Y-81131426D01*
X139242084Y-81144214D01*
X139257990Y-81158630D01*
X139272406Y-81174536D01*
X139285194Y-81191779D01*
X139296230Y-81210192D01*
X139305409Y-81229598D01*
X139312641Y-81249810D01*
X139317857Y-81270634D01*
X139321007Y-81291869D01*
X139322060Y-81313310D01*
X139322060Y-81825810D01*
X139321007Y-81847251D01*
X139317857Y-81868486D01*
X139312641Y-81889310D01*
X139305409Y-81909522D01*
X139296230Y-81928928D01*
X139285194Y-81947341D01*
X139272406Y-81964584D01*
X139257990Y-81980490D01*
X139242084Y-81994906D01*
X139224841Y-82007694D01*
X139206428Y-82018730D01*
X139187022Y-82027909D01*
X139166810Y-82035141D01*
X139145986Y-82040357D01*
X139124751Y-82043507D01*
X139103310Y-82044560D01*
X138665810Y-82044560D01*
X138644369Y-82043507D01*
X138623134Y-82040357D01*
X138602310Y-82035141D01*
X138582098Y-82027909D01*
X138562692Y-82018730D01*
X138544279Y-82007694D01*
X138527036Y-81994906D01*
X138511130Y-81980490D01*
X138496714Y-81964584D01*
X138483926Y-81947341D01*
X138472890Y-81928928D01*
X138463711Y-81909522D01*
X138456479Y-81889310D01*
X138451263Y-81868486D01*
X138448113Y-81847251D01*
X138447060Y-81825810D01*
X138447060Y-81313310D01*
X138448113Y-81291869D01*
X138451263Y-81270634D01*
X138456479Y-81249810D01*
X138463711Y-81229598D01*
X138472890Y-81210192D01*
X138483926Y-81191779D01*
X138496714Y-81174536D01*
X138511130Y-81158630D01*
X138527036Y-81144214D01*
X138544279Y-81131426D01*
X138562692Y-81120390D01*
X138582098Y-81111211D01*
X138602310Y-81103979D01*
X138623134Y-81098763D01*
X138644369Y-81095613D01*
X138665810Y-81094560D01*
X139103310Y-81094560D01*
X139124751Y-81095613D01*
X139124751Y-81095613D01*
G37*
D16*
X138884560Y-81569560D03*
D10*
G36*
X140694671Y-78939153D02*
G01*
X140715906Y-78942303D01*
X140736730Y-78947519D01*
X140756942Y-78954751D01*
X140776348Y-78963930D01*
X140794761Y-78974966D01*
X140812004Y-78987754D01*
X140827910Y-79002170D01*
X140842326Y-79018076D01*
X140855114Y-79035319D01*
X140866150Y-79053732D01*
X140875329Y-79073138D01*
X140882561Y-79093350D01*
X140887777Y-79114174D01*
X140890927Y-79135409D01*
X140891980Y-79156850D01*
X140891980Y-79669350D01*
X140890927Y-79690791D01*
X140887777Y-79712026D01*
X140882561Y-79732850D01*
X140875329Y-79753062D01*
X140866150Y-79772468D01*
X140855114Y-79790881D01*
X140842326Y-79808124D01*
X140827910Y-79824030D01*
X140812004Y-79838446D01*
X140794761Y-79851234D01*
X140776348Y-79862270D01*
X140756942Y-79871449D01*
X140736730Y-79878681D01*
X140715906Y-79883897D01*
X140694671Y-79887047D01*
X140673230Y-79888100D01*
X140235730Y-79888100D01*
X140214289Y-79887047D01*
X140193054Y-79883897D01*
X140172230Y-79878681D01*
X140152018Y-79871449D01*
X140132612Y-79862270D01*
X140114199Y-79851234D01*
X140096956Y-79838446D01*
X140081050Y-79824030D01*
X140066634Y-79808124D01*
X140053846Y-79790881D01*
X140042810Y-79772468D01*
X140033631Y-79753062D01*
X140026399Y-79732850D01*
X140021183Y-79712026D01*
X140018033Y-79690791D01*
X140016980Y-79669350D01*
X140016980Y-79156850D01*
X140018033Y-79135409D01*
X140021183Y-79114174D01*
X140026399Y-79093350D01*
X140033631Y-79073138D01*
X140042810Y-79053732D01*
X140053846Y-79035319D01*
X140066634Y-79018076D01*
X140081050Y-79002170D01*
X140096956Y-78987754D01*
X140114199Y-78974966D01*
X140132612Y-78963930D01*
X140152018Y-78954751D01*
X140172230Y-78947519D01*
X140193054Y-78942303D01*
X140214289Y-78939153D01*
X140235730Y-78938100D01*
X140673230Y-78938100D01*
X140694671Y-78939153D01*
X140694671Y-78939153D01*
G37*
D16*
X140454480Y-79413100D03*
D10*
G36*
X139119671Y-78939153D02*
G01*
X139140906Y-78942303D01*
X139161730Y-78947519D01*
X139181942Y-78954751D01*
X139201348Y-78963930D01*
X139219761Y-78974966D01*
X139237004Y-78987754D01*
X139252910Y-79002170D01*
X139267326Y-79018076D01*
X139280114Y-79035319D01*
X139291150Y-79053732D01*
X139300329Y-79073138D01*
X139307561Y-79093350D01*
X139312777Y-79114174D01*
X139315927Y-79135409D01*
X139316980Y-79156850D01*
X139316980Y-79669350D01*
X139315927Y-79690791D01*
X139312777Y-79712026D01*
X139307561Y-79732850D01*
X139300329Y-79753062D01*
X139291150Y-79772468D01*
X139280114Y-79790881D01*
X139267326Y-79808124D01*
X139252910Y-79824030D01*
X139237004Y-79838446D01*
X139219761Y-79851234D01*
X139201348Y-79862270D01*
X139181942Y-79871449D01*
X139161730Y-79878681D01*
X139140906Y-79883897D01*
X139119671Y-79887047D01*
X139098230Y-79888100D01*
X138660730Y-79888100D01*
X138639289Y-79887047D01*
X138618054Y-79883897D01*
X138597230Y-79878681D01*
X138577018Y-79871449D01*
X138557612Y-79862270D01*
X138539199Y-79851234D01*
X138521956Y-79838446D01*
X138506050Y-79824030D01*
X138491634Y-79808124D01*
X138478846Y-79790881D01*
X138467810Y-79772468D01*
X138458631Y-79753062D01*
X138451399Y-79732850D01*
X138446183Y-79712026D01*
X138443033Y-79690791D01*
X138441980Y-79669350D01*
X138441980Y-79156850D01*
X138443033Y-79135409D01*
X138446183Y-79114174D01*
X138451399Y-79093350D01*
X138458631Y-79073138D01*
X138467810Y-79053732D01*
X138478846Y-79035319D01*
X138491634Y-79018076D01*
X138506050Y-79002170D01*
X138521956Y-78987754D01*
X138539199Y-78974966D01*
X138557612Y-78963930D01*
X138577018Y-78954751D01*
X138597230Y-78947519D01*
X138618054Y-78942303D01*
X138639289Y-78939153D01*
X138660730Y-78938100D01*
X139098230Y-78938100D01*
X139119671Y-78939153D01*
X139119671Y-78939153D01*
G37*
D16*
X138879480Y-79413100D03*
D23*
X172341360Y-94023180D03*
X174541360Y-94023180D03*
D24*
X174443960Y-91559380D03*
X175943960Y-91559380D03*
D10*
G36*
X150238542Y-89876474D02*
G01*
X150262203Y-89879984D01*
X150285407Y-89885796D01*
X150307929Y-89893854D01*
X150329553Y-89904082D01*
X150350070Y-89916379D01*
X150369283Y-89930629D01*
X150387007Y-89946693D01*
X150403071Y-89964417D01*
X150417321Y-89983630D01*
X150429618Y-90004147D01*
X150439846Y-90025771D01*
X150447904Y-90048293D01*
X150453716Y-90071497D01*
X150457226Y-90095158D01*
X150458400Y-90119050D01*
X150458400Y-90606550D01*
X150457226Y-90630442D01*
X150453716Y-90654103D01*
X150447904Y-90677307D01*
X150439846Y-90699829D01*
X150429618Y-90721453D01*
X150417321Y-90741970D01*
X150403071Y-90761183D01*
X150387007Y-90778907D01*
X150369283Y-90794971D01*
X150350070Y-90809221D01*
X150329553Y-90821518D01*
X150307929Y-90831746D01*
X150285407Y-90839804D01*
X150262203Y-90845616D01*
X150238542Y-90849126D01*
X150214650Y-90850300D01*
X149302150Y-90850300D01*
X149278258Y-90849126D01*
X149254597Y-90845616D01*
X149231393Y-90839804D01*
X149208871Y-90831746D01*
X149187247Y-90821518D01*
X149166730Y-90809221D01*
X149147517Y-90794971D01*
X149129793Y-90778907D01*
X149113729Y-90761183D01*
X149099479Y-90741970D01*
X149087182Y-90721453D01*
X149076954Y-90699829D01*
X149068896Y-90677307D01*
X149063084Y-90654103D01*
X149059574Y-90630442D01*
X149058400Y-90606550D01*
X149058400Y-90119050D01*
X149059574Y-90095158D01*
X149063084Y-90071497D01*
X149068896Y-90048293D01*
X149076954Y-90025771D01*
X149087182Y-90004147D01*
X149099479Y-89983630D01*
X149113729Y-89964417D01*
X149129793Y-89946693D01*
X149147517Y-89930629D01*
X149166730Y-89916379D01*
X149187247Y-89904082D01*
X149208871Y-89893854D01*
X149231393Y-89885796D01*
X149254597Y-89879984D01*
X149278258Y-89876474D01*
X149302150Y-89875300D01*
X150214650Y-89875300D01*
X150238542Y-89876474D01*
X150238542Y-89876474D01*
G37*
D25*
X149758400Y-90362800D03*
D10*
G36*
X150238542Y-91751474D02*
G01*
X150262203Y-91754984D01*
X150285407Y-91760796D01*
X150307929Y-91768854D01*
X150329553Y-91779082D01*
X150350070Y-91791379D01*
X150369283Y-91805629D01*
X150387007Y-91821693D01*
X150403071Y-91839417D01*
X150417321Y-91858630D01*
X150429618Y-91879147D01*
X150439846Y-91900771D01*
X150447904Y-91923293D01*
X150453716Y-91946497D01*
X150457226Y-91970158D01*
X150458400Y-91994050D01*
X150458400Y-92481550D01*
X150457226Y-92505442D01*
X150453716Y-92529103D01*
X150447904Y-92552307D01*
X150439846Y-92574829D01*
X150429618Y-92596453D01*
X150417321Y-92616970D01*
X150403071Y-92636183D01*
X150387007Y-92653907D01*
X150369283Y-92669971D01*
X150350070Y-92684221D01*
X150329553Y-92696518D01*
X150307929Y-92706746D01*
X150285407Y-92714804D01*
X150262203Y-92720616D01*
X150238542Y-92724126D01*
X150214650Y-92725300D01*
X149302150Y-92725300D01*
X149278258Y-92724126D01*
X149254597Y-92720616D01*
X149231393Y-92714804D01*
X149208871Y-92706746D01*
X149187247Y-92696518D01*
X149166730Y-92684221D01*
X149147517Y-92669971D01*
X149129793Y-92653907D01*
X149113729Y-92636183D01*
X149099479Y-92616970D01*
X149087182Y-92596453D01*
X149076954Y-92574829D01*
X149068896Y-92552307D01*
X149063084Y-92529103D01*
X149059574Y-92505442D01*
X149058400Y-92481550D01*
X149058400Y-91994050D01*
X149059574Y-91970158D01*
X149063084Y-91946497D01*
X149068896Y-91923293D01*
X149076954Y-91900771D01*
X149087182Y-91879147D01*
X149099479Y-91858630D01*
X149113729Y-91839417D01*
X149129793Y-91821693D01*
X149147517Y-91805629D01*
X149166730Y-91791379D01*
X149187247Y-91779082D01*
X149208871Y-91768854D01*
X149231393Y-91760796D01*
X149254597Y-91754984D01*
X149278258Y-91751474D01*
X149302150Y-91750300D01*
X150214650Y-91750300D01*
X150238542Y-91751474D01*
X150238542Y-91751474D01*
G37*
D25*
X149758400Y-92237800D03*
D26*
X131178300Y-94818200D03*
X131178300Y-77038200D03*
D27*
X173088300Y-75768200D03*
X170548300Y-75768200D03*
X168008300Y-75768200D03*
X165468300Y-75768200D03*
X162928300Y-75768200D03*
X160388300Y-75768200D03*
X157848300Y-75768200D03*
X155308300Y-75768200D03*
X152768300Y-75768200D03*
X150228300Y-75768200D03*
X147688300Y-75768200D03*
D28*
X145148300Y-75768200D03*
D27*
X173088300Y-96088200D03*
X170548300Y-96088200D03*
X168008300Y-96088200D03*
X165468300Y-96088200D03*
X162928300Y-96088200D03*
X160388300Y-96088200D03*
X157848300Y-96088200D03*
X155308300Y-96088200D03*
X152768300Y-96088200D03*
X150228300Y-96088200D03*
X147688300Y-96088200D03*
X145148300Y-96088200D03*
X142608300Y-96088200D03*
X140068300Y-96088200D03*
X137528300Y-96088200D03*
D28*
X134988300Y-96088200D03*
D29*
X175397160Y-78978760D03*
X142260320Y-77337920D03*
X142199360Y-76393040D03*
X143134080Y-75864720D03*
X146075400Y-89712800D03*
X145249900Y-89712800D03*
X144424400Y-89712800D03*
X144487900Y-90474800D03*
X144487900Y-91173300D03*
X144487900Y-91998800D03*
X144487900Y-92824300D03*
X144487900Y-93649800D03*
X144551400Y-94538800D03*
X147599400Y-94475300D03*
X154406600Y-91008200D03*
X154406600Y-91821000D03*
X154406600Y-92633800D03*
X154406600Y-93446600D03*
X154406600Y-94259400D03*
X153314400Y-94284800D03*
X152361900Y-94284800D03*
X150876000Y-93472000D03*
X150164800Y-93472000D03*
X149453600Y-93472000D03*
X148742400Y-93472000D03*
X148031200Y-93472000D03*
X148386800Y-94208600D03*
X150901400Y-91008200D03*
X148615400Y-91008200D03*
X147878800Y-91008200D03*
X147701000Y-90068400D03*
X146837400Y-89687400D03*
X154406600Y-90195400D03*
X154406600Y-89382600D03*
X154406600Y-88569800D03*
X154406600Y-87757000D03*
X145338800Y-94640400D03*
X147345400Y-89077800D03*
X147218400Y-88112600D03*
X147218400Y-87350600D03*
X147396200Y-86537800D03*
X151231600Y-87833200D03*
X148132800Y-86207600D03*
X149021800Y-86207600D03*
X149961600Y-86207600D03*
X150698200Y-86436200D03*
X151028400Y-87071200D03*
X146100800Y-94640400D03*
X146862800Y-94665800D03*
X173098460Y-89781380D03*
X142839440Y-84739480D03*
X142844520Y-88000000D03*
X144434560Y-84754720D03*
X144434560Y-88000000D03*
X134244080Y-78938120D03*
X134244080Y-77307440D03*
X137449560Y-78938120D03*
X137449560Y-77307440D03*
X166745920Y-76895960D03*
X170337480Y-84282280D03*
X145308320Y-92227400D03*
X146171920Y-92227400D03*
X132481320Y-80782160D03*
X134589520Y-80639920D03*
X178567080Y-78430120D03*
X177434240Y-80787240D03*
X178521360Y-80929480D03*
X170789600Y-86182200D03*
X172405040Y-84658200D03*
X178577240Y-89519760D03*
X178536600Y-87122000D03*
X172989240Y-87193120D03*
X177942240Y-84221320D03*
X175747680Y-86807040D03*
X175610520Y-89433400D03*
X153710640Y-87325200D03*
X166263320Y-86685120D03*
X164068760Y-87452200D03*
X165567360Y-87477600D03*
X154940000Y-79375000D03*
X156845000Y-79375000D03*
X158750000Y-79375000D03*
X160655000Y-79375000D03*
X162560000Y-79375000D03*
X154940000Y-81280000D03*
X156845000Y-81280000D03*
X158750000Y-81280000D03*
X160655000Y-81280000D03*
X162560000Y-81280000D03*
X154940000Y-83185000D03*
X154940000Y-85090000D03*
X156845000Y-85090000D03*
X156845000Y-83185000D03*
X158750000Y-83185000D03*
X158750000Y-85090000D03*
X160655000Y-85090000D03*
X160655000Y-83185000D03*
X162560000Y-83185000D03*
X162560000Y-85090000D03*
X154940000Y-86995000D03*
X156845000Y-86995000D03*
X158750000Y-86995000D03*
X160655000Y-86995000D03*
X162560000Y-86995000D03*
X162560000Y-88900000D03*
X160655000Y-88900000D03*
X158750000Y-88900000D03*
X156845000Y-88900000D03*
X156845000Y-90805000D03*
X158750000Y-90805000D03*
X160655000Y-90805000D03*
X162560000Y-90805000D03*
X162560000Y-92710000D03*
X160655000Y-92710000D03*
X158750000Y-92710000D03*
X156845000Y-92710000D03*
X156845000Y-94615000D03*
X158750000Y-94615000D03*
X160655000Y-94615000D03*
X162560000Y-94615000D03*
X155194000Y-90932000D03*
X155194000Y-92710000D03*
X152019000Y-87503000D03*
X164846000Y-94488000D03*
X151511000Y-94869000D03*
X148971000Y-94996000D03*
X134886700Y-86233000D03*
X135039100Y-88988900D03*
X136017000Y-93268800D03*
X134620000Y-93522800D03*
X163449000Y-77203300D03*
X141046200Y-93091000D03*
X138569700Y-91440000D03*
X169697400Y-81102200D03*
X166954200Y-84236560D03*
X173266100Y-84213700D03*
X175298100Y-83121500D03*
X174663100Y-83642200D03*
X174104300Y-84302600D03*
X171335700Y-84556600D03*
X170611800Y-85064600D03*
X144653000Y-83642200D03*
X136118600Y-87274400D03*
X135521700Y-88226900D03*
X138785600Y-88239600D03*
X137401300Y-88252300D03*
X136690100Y-87947500D03*
X134480300Y-84277200D03*
X135470900Y-84264500D03*
X136385300Y-84289900D03*
X137541000Y-84289900D03*
X138607800Y-84353400D03*
X139636500Y-84277200D03*
X140601700Y-84366100D03*
X141630400Y-84289900D03*
X139766040Y-88000840D03*
X140543280Y-87614760D03*
X145206720Y-88691720D03*
X146217640Y-88188800D03*
X147558760Y-82382360D03*
X148529040Y-82356960D03*
X149458680Y-82392520D03*
X150936960Y-82783680D03*
X147355560Y-83997800D03*
X166298880Y-88087200D03*
X166385240Y-94604840D03*
X166542720Y-92816680D03*
X171643040Y-94706440D03*
X169204640Y-95016320D03*
X166771320Y-91572080D03*
X166928800Y-90744040D03*
X166938960Y-89712800D03*
X166878000Y-88783160D03*
X168818560Y-87741760D03*
X169590720Y-88295480D03*
X170550840Y-89209880D03*
X170611800Y-90149680D03*
X170987720Y-90932000D03*
X171500800Y-93472000D03*
X172765720Y-78541880D03*
X171871640Y-77231240D03*
X169392600Y-76819760D03*
X173969680Y-77282040D03*
X174315120Y-78435200D03*
X176895760Y-79131160D03*
X176250600Y-82931000D03*
X177444400Y-82753200D03*
X177606960Y-81742280D03*
X171262040Y-81092040D03*
X151119840Y-88630760D03*
X151297640Y-94132400D03*
X136489440Y-89225120D03*
X139379960Y-89235280D03*
X138457940Y-93113860D03*
X132527040Y-82341720D03*
X136042400Y-82270600D03*
X165819651Y-78147349D03*
X168173400Y-82494120D03*
X169143680Y-86700360D03*
X167396160Y-82966560D03*
X167746680Y-87015320D03*
X166908480Y-87279480D03*
X166659560Y-83423760D03*
X142201900Y-86271100D03*
X145059400Y-86233000D03*
X142214600Y-85356700D03*
X145046700Y-85369400D03*
X137388600Y-87045800D03*
X138772900Y-87058500D03*
X137375900Y-85661500D03*
X138823700Y-86029800D03*
X169666920Y-85912960D03*
X166791640Y-81671160D03*
X168656000Y-81752440D03*
X152882600Y-87998300D03*
X135087360Y-79562960D03*
X135051800Y-76697840D03*
X135950960Y-79547720D03*
X135930640Y-76682600D03*
X137703560Y-79832200D03*
X130107840Y-88332160D03*
X172217080Y-80436720D03*
X174010320Y-82712560D03*
X173136560Y-82555080D03*
X170413680Y-91597480D03*
X168737280Y-91826080D03*
X168742360Y-80258920D03*
X168513760Y-77464920D03*
X142189200Y-87223600D03*
X145135600Y-87414100D03*
D30*
X174980600Y-79395320D02*
X175397160Y-78978760D01*
X171003060Y-79395320D02*
X174980600Y-79395320D01*
X173088300Y-76970281D02*
X173088300Y-75768200D01*
X173088300Y-77118542D02*
X173088300Y-76970281D01*
X171003060Y-79203782D02*
X173088300Y-77118542D01*
X171003060Y-79395320D02*
X171003060Y-79203782D01*
X156017279Y-77599221D02*
X157848300Y-75768200D01*
X142988594Y-77599221D02*
X156017279Y-77599221D01*
X142727293Y-77337920D02*
X142988594Y-77599221D01*
X142260320Y-77337920D02*
X142727293Y-77337920D01*
X152956467Y-77246811D02*
X143768868Y-77246811D01*
X155308300Y-75768200D02*
X154435078Y-75768200D01*
X154435078Y-75768200D02*
X152956467Y-77246811D01*
X142529559Y-76723239D02*
X142199360Y-76393040D01*
X142791831Y-76985511D02*
X142529559Y-76723239D01*
X143507568Y-76985511D02*
X142791831Y-76985511D01*
X143768868Y-77246811D02*
X143507568Y-76985511D01*
X152768300Y-75768200D02*
X151642099Y-76894401D01*
X151642099Y-76894401D02*
X144062161Y-76894401D01*
X143464279Y-76296519D02*
X144062161Y-76894401D01*
X143464279Y-76194919D02*
X143464279Y-76296519D01*
X143134080Y-75864720D02*
X143464279Y-76194919D01*
D31*
X173873260Y-91559380D02*
X174443960Y-91559380D01*
X173136560Y-90822680D02*
X173873260Y-91559380D01*
X173098460Y-90784580D02*
X173136560Y-90822680D01*
X173098460Y-89781380D02*
X173098460Y-90784580D01*
D30*
X142839440Y-84739480D02*
X142839440Y-87416640D01*
D31*
X149478900Y-85724900D02*
X149961600Y-86207600D01*
X149478900Y-85217000D02*
X149478900Y-85724900D01*
D30*
X134711053Y-77307440D02*
X137449560Y-77307440D01*
X134244080Y-77307440D02*
X134711053Y-77307440D01*
X136982587Y-78938120D02*
X134244080Y-78938120D01*
X137449560Y-78938120D02*
X136982587Y-78938120D01*
X138404500Y-78938120D02*
X138879480Y-79413100D01*
X137449560Y-78938120D02*
X138404500Y-78938120D01*
X138455400Y-81645760D02*
X137967720Y-81158080D01*
X138871860Y-81645760D02*
X138455400Y-81645760D01*
X138334360Y-81645760D02*
X138871860Y-81645760D01*
X137097159Y-80408559D02*
X138334360Y-81645760D01*
X137097159Y-79290521D02*
X137097159Y-80408559D01*
X137449560Y-78938120D02*
X137097159Y-79290521D01*
X146481700Y-84836000D02*
X146481700Y-84785300D01*
D32*
X135089900Y-86029800D02*
X135578400Y-86029800D01*
X134886700Y-86233000D02*
X135089900Y-86029800D01*
D31*
X134407120Y-89620880D02*
X135039100Y-88988900D01*
X132767840Y-89620880D02*
X134407120Y-89620880D01*
X146100800Y-89687400D02*
X146075400Y-89712800D01*
X146837400Y-89687400D02*
X146100800Y-89687400D01*
X146075400Y-89712800D02*
X145249900Y-89712800D01*
X145249900Y-89712800D02*
X144424400Y-89712800D01*
X144424400Y-90411300D02*
X144487900Y-90474800D01*
X144424400Y-89712800D02*
X144424400Y-90411300D01*
X144487900Y-90474800D02*
X144487900Y-91173300D01*
X144487900Y-91173300D02*
X144487900Y-91998800D01*
X145079720Y-91998800D02*
X145308320Y-92227400D01*
X144487900Y-91998800D02*
X145079720Y-91998800D01*
X146171920Y-92227400D02*
X145308320Y-92227400D01*
X145084800Y-92227400D02*
X144487900Y-92824300D01*
X145308320Y-92227400D02*
X145084800Y-92227400D01*
X144487900Y-91998800D02*
X144487900Y-92824300D01*
X144487900Y-92824300D02*
X144487900Y-93649800D01*
X144487900Y-94475300D02*
X144551400Y-94538800D01*
X144487900Y-93649800D02*
X144487900Y-94475300D01*
X145237200Y-94538800D02*
X145338800Y-94640400D01*
X144551400Y-94538800D02*
X145237200Y-94538800D01*
X145338800Y-94640400D02*
X146100800Y-94640400D01*
X146837400Y-94640400D02*
X146862800Y-94665800D01*
X146100800Y-94640400D02*
X146837400Y-94640400D01*
X147408900Y-94665800D02*
X147599400Y-94475300D01*
X146862800Y-94665800D02*
X147408900Y-94665800D01*
X148120100Y-94475300D02*
X148386800Y-94208600D01*
X147599400Y-94475300D02*
X148120100Y-94475300D01*
X148386800Y-93827600D02*
X148031200Y-93472000D01*
X148386800Y-94208600D02*
X148386800Y-93827600D01*
X147599400Y-93903800D02*
X148031200Y-93472000D01*
X147599400Y-94475300D02*
X147599400Y-93903800D01*
X146837400Y-89585800D02*
X147345400Y-89077800D01*
X146837400Y-89687400D02*
X146837400Y-89585800D01*
X147345400Y-88239600D02*
X147218400Y-88112600D01*
X147345400Y-89077800D02*
X147345400Y-88239600D01*
X147218400Y-88112600D02*
X147218400Y-87350600D01*
X147218400Y-86715600D02*
X147396200Y-86537800D01*
X147218400Y-87350600D02*
X147218400Y-86715600D01*
X147802600Y-86537800D02*
X148132800Y-86207600D01*
X147396200Y-86537800D02*
X147802600Y-86537800D01*
X148132800Y-86207600D02*
X149021800Y-86207600D01*
X149021800Y-86207600D02*
X149961600Y-86207600D01*
X148412200Y-86487000D02*
X148132800Y-86207600D01*
X148412200Y-87210800D02*
X148412200Y-86487000D01*
X147358200Y-87210800D02*
X147218400Y-87350600D01*
X148412200Y-87210800D02*
X147358200Y-87210800D01*
X147739200Y-86537800D02*
X148412200Y-87210800D01*
X147396200Y-86537800D02*
X147739200Y-86537800D01*
X150469600Y-86207600D02*
X150698200Y-86436200D01*
X149961600Y-86207600D02*
X150469600Y-86207600D01*
X150698200Y-86741000D02*
X151028400Y-87071200D01*
X150698200Y-86436200D02*
X150698200Y-86741000D01*
X151028400Y-87630000D02*
X151231600Y-87833200D01*
X151028400Y-87071200D02*
X151028400Y-87630000D01*
X151231600Y-87833200D02*
X151231600Y-88468200D01*
X147320000Y-89687400D02*
X147701000Y-90068400D01*
X146837400Y-89687400D02*
X147320000Y-89687400D01*
X147345400Y-89712800D02*
X147701000Y-90068400D01*
X147345400Y-89077800D02*
X147345400Y-89712800D01*
X147701000Y-90830400D02*
X147878800Y-91008200D01*
X147701000Y-90068400D02*
X147701000Y-90830400D01*
X147878800Y-91008200D02*
X148615400Y-91008200D01*
X150901400Y-91008200D02*
X151638000Y-91008200D01*
X152763300Y-91008200D02*
X152902400Y-91147300D01*
X151638000Y-91008200D02*
X152763300Y-91008200D01*
X154267500Y-91147300D02*
X154406600Y-91008200D01*
X152902400Y-91147300D02*
X154267500Y-91147300D01*
X151688800Y-87833200D02*
X152019000Y-87503000D01*
X151231600Y-87833200D02*
X151688800Y-87833200D01*
X153659840Y-87376000D02*
X153710640Y-87325200D01*
X153974800Y-87325200D02*
X154406600Y-87757000D01*
X153710640Y-87325200D02*
X153974800Y-87325200D01*
X154406600Y-87757000D02*
X154406600Y-88569800D01*
X154406600Y-88569800D02*
X154406600Y-89382600D01*
X154406600Y-89382600D02*
X154406600Y-94259400D01*
X153339800Y-94259400D02*
X153314400Y-94284800D01*
X154406600Y-94259400D02*
X153339800Y-94259400D01*
X153314400Y-94284800D02*
X152361900Y-94284800D01*
X152361900Y-94246700D02*
X151587200Y-93472000D01*
X152361900Y-94284800D02*
X152361900Y-94246700D01*
X154307300Y-93347300D02*
X154406600Y-93446600D01*
X152902400Y-93347300D02*
X154307300Y-93347300D01*
X151587200Y-93472000D02*
X148031200Y-93472000D01*
D30*
X142844520Y-87421720D02*
X142844520Y-88000000D01*
X142839440Y-87416640D02*
X142844520Y-87421720D01*
X144434560Y-85221693D02*
X144434560Y-84754720D01*
X144434560Y-88000000D02*
X144434560Y-85221693D01*
D32*
X135005412Y-91715088D02*
X134543800Y-92176700D01*
X135333710Y-91386790D02*
X135005412Y-91715088D01*
X136581690Y-91386790D02*
X135333710Y-91386790D01*
X136596800Y-91401900D02*
X136581690Y-91386790D01*
X137380800Y-91401900D02*
X136596800Y-91401900D01*
D33*
X144157700Y-94538800D02*
X142608300Y-96088200D01*
X144551400Y-94538800D02*
X144157700Y-94538800D01*
D30*
X166679880Y-76962000D02*
X166745920Y-76895960D01*
D33*
X166438580Y-77203300D02*
X166745920Y-76895960D01*
X163449000Y-77203300D02*
X166438580Y-77203300D01*
X167579040Y-77729080D02*
X166745920Y-76895960D01*
X167579040Y-78866900D02*
X167579040Y-77729080D01*
X152902400Y-93744300D02*
X152361900Y-94284800D01*
X152902400Y-93347300D02*
X152902400Y-93744300D01*
X152902400Y-93872800D02*
X153314400Y-94284800D01*
X152902400Y-93347300D02*
X152902400Y-93872800D01*
X153814500Y-94259400D02*
X152902400Y-93347300D01*
X154406600Y-94259400D02*
X153814500Y-94259400D01*
X154310400Y-93347300D02*
X152902400Y-93347300D01*
X154406600Y-93251100D02*
X154310400Y-93347300D01*
X154406600Y-92633800D02*
X154406600Y-93251100D01*
X151511000Y-93548200D02*
X151587200Y-93472000D01*
X151511000Y-94869000D02*
X151511000Y-93990160D01*
X151688800Y-94284800D02*
X150876000Y-93472000D01*
X152361900Y-94284800D02*
X151688800Y-94284800D01*
X142405100Y-92189400D02*
X141046200Y-92189400D01*
X141046200Y-92189400D02*
X141046200Y-93091000D01*
X134543800Y-93446600D02*
X134620000Y-93522800D01*
X134543800Y-92176700D02*
X134543800Y-93446600D01*
X138531600Y-91401900D02*
X138569700Y-91440000D01*
X137380800Y-91401900D02*
X138531600Y-91401900D01*
X138569700Y-93013002D02*
X138569700Y-91906973D01*
X138687599Y-93130901D02*
X138569700Y-93013002D01*
X140539326Y-93130901D02*
X138687599Y-93130901D01*
X140579227Y-93091000D02*
X140539326Y-93130901D01*
X141046200Y-93091000D02*
X140579227Y-93091000D01*
X138569700Y-91906973D02*
X138569700Y-91440000D01*
X138569700Y-93002100D02*
X138569700Y-91906973D01*
X138303000Y-93268800D02*
X138457940Y-93113860D01*
X136017000Y-93268800D02*
X138303000Y-93268800D01*
X153380441Y-86995001D02*
X153710640Y-87325200D01*
X152526999Y-86995001D02*
X153380441Y-86995001D01*
X152019000Y-87503000D02*
X152526999Y-86995001D01*
X148503640Y-82382360D02*
X148529040Y-82356960D01*
X147558760Y-82382360D02*
X148503640Y-82382360D01*
X149423120Y-82356960D02*
X149458680Y-82392520D01*
X148529040Y-82356960D02*
X149423120Y-82356960D01*
X150545800Y-82392520D02*
X150936960Y-82783680D01*
X149458680Y-82392520D02*
X150545800Y-82392520D01*
X146517360Y-84836000D02*
X147355560Y-83997800D01*
X146481700Y-84836000D02*
X146517360Y-84836000D01*
X144434560Y-83860640D02*
X144434560Y-84754720D01*
X144653000Y-83642200D02*
X144434560Y-83860640D01*
X144515000Y-88000000D02*
X145206720Y-88691720D01*
X144434560Y-88000000D02*
X144515000Y-88000000D01*
D30*
X166385240Y-92974160D02*
X166542720Y-92816680D01*
X173024800Y-96088200D02*
X173088300Y-96088200D01*
X166928800Y-89722960D02*
X166938960Y-89712800D01*
X166938960Y-88844120D02*
X166878000Y-88783160D01*
D32*
X176565561Y-78800961D02*
X176895760Y-79131160D01*
X176327099Y-78800961D02*
X176565561Y-78800961D01*
X175847697Y-78321559D02*
X176327099Y-78800961D01*
X174895734Y-78321559D02*
X175847697Y-78321559D01*
X174782093Y-78435200D02*
X174895734Y-78321559D01*
X174315120Y-78435200D02*
X174782093Y-78435200D01*
X177225959Y-79461359D02*
X177225959Y-79989679D01*
X176895760Y-79131160D02*
X177225959Y-79461359D01*
X177434240Y-80197960D02*
X177434240Y-80787240D01*
X177225959Y-79989679D02*
X177434240Y-80197960D01*
D31*
X168188639Y-83906361D02*
X169278880Y-82816120D01*
X166954200Y-84236560D02*
X167284399Y-83906361D01*
X167284399Y-83906361D02*
X168188639Y-83906361D01*
X169646530Y-81153070D02*
X169697400Y-81102200D01*
X169646530Y-81828548D02*
X169646530Y-81153070D01*
X169278880Y-82196198D02*
X169646530Y-81828548D01*
X169278880Y-82816120D02*
X169278880Y-82196198D01*
X171194090Y-81024090D02*
X171262040Y-81092040D01*
X170003424Y-81024090D02*
X171194090Y-81024090D01*
X169925314Y-81102200D02*
X170003424Y-81024090D01*
X169697400Y-81102200D02*
X169925314Y-81102200D01*
D34*
X169719247Y-84612479D02*
X168281606Y-86050120D01*
X170337480Y-84282280D02*
X170007281Y-84612479D01*
X170007281Y-84612479D02*
X169719247Y-84612479D01*
X166898320Y-86050120D02*
X166263320Y-86685120D01*
X168281606Y-86050120D02*
X166898320Y-86050120D01*
D32*
X166298880Y-88204040D02*
X166878000Y-88783160D01*
X166298880Y-88087200D02*
X166298880Y-88204040D01*
X166878000Y-89651840D02*
X166938960Y-89712800D01*
X166878000Y-88783160D02*
X166878000Y-89651840D01*
X166938960Y-90733880D02*
X166928800Y-90744040D01*
X166938960Y-89712800D02*
X166938960Y-90733880D01*
X166928800Y-91414600D02*
X166771320Y-91572080D01*
X166928800Y-90744040D02*
X166928800Y-91414600D01*
X166771320Y-92588080D02*
X166542720Y-92816680D01*
X166771320Y-91572080D02*
X166771320Y-92588080D01*
X166542720Y-94447360D02*
X166385240Y-94604840D01*
X166542720Y-92816680D02*
X166542720Y-94447360D01*
X164962840Y-94604840D02*
X164846000Y-94488000D01*
X166385240Y-94604840D02*
X164962840Y-94604840D01*
X168793160Y-94604840D02*
X169204640Y-95016320D01*
X166385240Y-94604840D02*
X168793160Y-94604840D01*
X171176067Y-94706440D02*
X171643040Y-94706440D01*
X170188098Y-94706440D02*
X171176067Y-94706440D01*
X169878218Y-95016320D02*
X170188098Y-94706440D01*
X169204640Y-95016320D02*
X169878218Y-95016320D01*
X171643040Y-93614240D02*
X171500800Y-93472000D01*
X171643040Y-94706440D02*
X171643040Y-93614240D01*
X171170601Y-91114881D02*
X170987720Y-90932000D01*
X171170601Y-93141801D02*
X171170601Y-91114881D01*
X171500800Y-93472000D02*
X171170601Y-93141801D01*
X170987720Y-90932000D02*
X170672760Y-90617040D01*
X170611800Y-90556080D02*
X170644820Y-90589100D01*
X170611800Y-90149680D02*
X170611800Y-90556080D01*
D30*
X170644820Y-90589100D02*
X170672760Y-90617040D01*
D32*
X170611800Y-89270840D02*
X170550840Y-89209880D01*
X170611800Y-90149680D02*
X170611800Y-89270840D01*
X169636440Y-88295480D02*
X169590720Y-88295480D01*
X170550840Y-89209880D02*
X169636440Y-88295480D01*
X169372280Y-88295480D02*
X168818560Y-87741760D01*
X169590720Y-88295480D02*
X169372280Y-88295480D01*
X168486479Y-86254993D02*
X168281606Y-86050120D01*
X168486479Y-87409679D02*
X168486479Y-86254993D01*
X168818560Y-87741760D02*
X168486479Y-87409679D01*
D33*
X151511000Y-93990160D02*
X151511000Y-93548200D01*
D31*
X135458200Y-84277200D02*
X135470900Y-84264500D01*
X134480300Y-84277200D02*
X135458200Y-84277200D01*
X136359900Y-84264500D02*
X136385300Y-84289900D01*
X135470900Y-84264500D02*
X136359900Y-84264500D01*
X136385300Y-84289900D02*
X137541000Y-84289900D01*
X138544300Y-84289900D02*
X138607800Y-84353400D01*
X137541000Y-84289900D02*
X138544300Y-84289900D01*
X139560300Y-84353400D02*
X139636500Y-84277200D01*
X138607800Y-84353400D02*
X139560300Y-84353400D01*
X140512800Y-84277200D02*
X140601700Y-84366100D01*
X139636500Y-84277200D02*
X140512800Y-84277200D01*
X141554200Y-84366100D02*
X141630400Y-84289900D01*
X140601700Y-84366100D02*
X141554200Y-84366100D01*
X142389860Y-84289900D02*
X142839440Y-84739480D01*
X141630400Y-84289900D02*
X142389860Y-84289900D01*
D33*
X138457940Y-93113860D02*
X138569700Y-93002100D01*
X167573640Y-80447300D02*
X167579040Y-80441900D01*
X164902400Y-80447300D02*
X166146900Y-80447300D01*
X146057380Y-78255100D02*
X146183049Y-78129431D01*
X146057380Y-79413100D02*
X146057380Y-78255100D01*
X143764000Y-78129431D02*
X146183049Y-78129431D01*
X131358640Y-80289400D02*
X133518609Y-78129431D01*
X131358640Y-83093560D02*
X131358640Y-80289400D01*
X133518609Y-78129431D02*
X143764000Y-78129431D01*
X165801733Y-78129431D02*
X163622689Y-78129431D01*
X165819651Y-78147349D02*
X165801733Y-78129431D01*
X163622689Y-78129431D02*
X162825129Y-78129431D01*
X156236899Y-78129431D02*
X151064929Y-78129431D01*
X162825129Y-78129431D02*
X156236899Y-78129431D01*
X167579040Y-81899760D02*
X168173400Y-82494120D01*
X167579040Y-80441900D02*
X167579040Y-81899760D01*
X143339900Y-90000000D02*
X143339900Y-89128600D01*
X143334110Y-90005790D02*
X143339900Y-90000000D01*
X143334110Y-93965390D02*
X143334110Y-90005790D01*
X143090900Y-94208600D02*
X143334110Y-93965390D01*
X138729800Y-94208600D02*
X143090900Y-94208600D01*
X166650030Y-80290030D02*
X166807300Y-80447300D01*
X166650030Y-78510755D02*
X166650030Y-80290030D01*
X166286624Y-78147349D02*
X166650030Y-78510755D01*
X165819651Y-78147349D02*
X166286624Y-78147349D01*
X166146900Y-80447300D02*
X166807300Y-80447300D01*
X166807300Y-80447300D02*
X167573640Y-80447300D01*
X143339900Y-89128600D02*
X143339900Y-88665238D01*
X143339900Y-88665238D02*
X143640199Y-88364939D01*
X143640199Y-88364939D02*
X143640199Y-83797799D01*
X131743470Y-83478390D02*
X131606290Y-83341210D01*
X143295390Y-83478390D02*
X131743470Y-83478390D01*
X143614799Y-83797799D02*
X143295390Y-83478390D01*
X143640199Y-83797799D02*
X143614799Y-83797799D01*
X131606290Y-83341210D02*
X131358640Y-83093560D01*
X150763271Y-78374151D02*
X150763271Y-78129431D01*
X150876000Y-78486880D02*
X150763271Y-78374151D01*
X150876000Y-79024380D02*
X150876000Y-78486880D01*
X151064929Y-78129431D02*
X150763271Y-78129431D01*
X150763271Y-78129431D02*
X146183049Y-78129431D01*
X172341360Y-93265180D02*
X172341360Y-94023180D01*
X172341360Y-93028910D02*
X172341360Y-93265180D01*
X171784082Y-92471632D02*
X172341360Y-93028910D01*
X171784082Y-89295042D02*
X171784082Y-92471632D01*
X169143680Y-86700360D02*
X169189400Y-86700360D01*
X169189400Y-86700360D02*
X171784082Y-89295042D01*
D30*
X165954800Y-85947300D02*
X166583360Y-85318740D01*
X164902400Y-85947300D02*
X165954800Y-85947300D01*
X168406840Y-85318740D02*
X170459300Y-83266280D01*
X166583360Y-85318740D02*
X168406840Y-85318740D01*
X170474540Y-82076058D02*
X170474540Y-81889600D01*
X169745590Y-82805008D02*
X170474540Y-82076058D01*
X169745590Y-83451770D02*
X169745590Y-82805008D01*
X168350060Y-84847300D02*
X169745590Y-83451770D01*
X164902400Y-84847300D02*
X168350060Y-84847300D01*
X167065961Y-82636361D02*
X167396160Y-82966560D01*
X165965739Y-82636361D02*
X167065961Y-82636361D01*
X165954800Y-82647300D02*
X165965739Y-82636361D01*
X164902400Y-82647300D02*
X165954800Y-82647300D01*
X167746680Y-87015320D02*
X167746680Y-87619298D01*
X167746680Y-87619298D02*
X168388649Y-88261267D01*
X168388649Y-88302349D02*
X169504360Y-89418060D01*
X168388649Y-88261267D02*
X168388649Y-88302349D01*
X165954800Y-83747300D02*
X164902400Y-83747300D01*
X165954800Y-83661547D02*
X165954800Y-83747300D01*
X166192587Y-83423760D02*
X165954800Y-83661547D01*
X166659560Y-83423760D02*
X166192587Y-83423760D01*
X166908480Y-87279480D02*
X167238679Y-87609679D01*
X168036240Y-88407240D02*
X167238679Y-87609679D01*
X168036240Y-89418060D02*
X168036240Y-88407240D01*
X152902400Y-84847300D02*
X152205238Y-84847300D01*
X141671140Y-86271100D02*
X141262200Y-86680040D01*
X142201900Y-86271100D02*
X141671140Y-86271100D01*
X145389599Y-85902801D02*
X145059400Y-86233000D01*
X145653759Y-85902801D02*
X145389599Y-85902801D01*
X145665801Y-84024499D02*
X145665801Y-85890759D01*
X145961100Y-83729200D02*
X145665801Y-84024499D01*
X151859182Y-84847300D02*
X151466882Y-84455000D01*
X146329381Y-83729200D02*
X145961100Y-83729200D01*
X152902400Y-84847300D02*
X151859182Y-84847300D01*
X151466882Y-84455000D02*
X151041730Y-84455000D01*
X151041730Y-84455000D02*
X149978129Y-83391399D01*
X145665801Y-85890759D02*
X145653759Y-85902801D01*
X149978129Y-83391399D02*
X146667182Y-83391399D01*
X146667182Y-83391399D02*
X146329381Y-83729200D01*
X151850000Y-83747300D02*
X152902400Y-83747300D01*
X145046700Y-84112100D02*
X145782010Y-83376790D01*
X151726199Y-83623499D02*
X151850000Y-83747300D01*
X145046700Y-85369400D02*
X145046700Y-84112100D01*
X145782010Y-83376790D02*
X146183408Y-83376790D01*
X146183408Y-83376790D02*
X146560487Y-82999710D01*
X142181580Y-85323680D02*
X142214600Y-85356700D01*
X141252040Y-85323680D02*
X142181580Y-85323680D01*
X150084822Y-82999710D02*
X146560487Y-82999710D01*
X150708611Y-83623499D02*
X150084822Y-82999710D01*
X151726199Y-83623499D02*
X150708611Y-83623499D01*
X136768400Y-87045800D02*
X136252400Y-86529800D01*
X137388600Y-87045800D02*
X136768400Y-87045800D01*
X139151360Y-86680040D02*
X138772900Y-87058500D01*
X139687200Y-86680040D02*
X139151360Y-86680040D01*
X137244200Y-85529800D02*
X137375900Y-85661500D01*
X136252400Y-85529800D02*
X137244200Y-85529800D01*
X138970920Y-86029800D02*
X139677040Y-85323680D01*
X138823700Y-86029800D02*
X138970920Y-86029800D01*
X150220012Y-87672412D02*
X149758400Y-87210800D01*
X150509610Y-87962010D02*
X150220012Y-87672412D01*
X150509610Y-89456484D02*
X150509610Y-87962010D01*
X151100426Y-90047300D02*
X150509610Y-89456484D01*
X152902400Y-90047300D02*
X151100426Y-90047300D01*
X166667780Y-81547300D02*
X166791640Y-81671160D01*
X164902400Y-81547300D02*
X166667780Y-81547300D01*
X172674948Y-91936068D02*
X173136560Y-92397680D01*
X172385350Y-91646470D02*
X172674948Y-91936068D01*
X172385350Y-89098363D02*
X172385350Y-91646470D01*
X169666920Y-86379933D02*
X172385350Y-89098363D01*
X169666920Y-85912960D02*
X169666920Y-86379933D01*
X175943960Y-92159380D02*
X175943960Y-91559380D01*
X175244048Y-92859292D02*
X175943960Y-92159380D01*
X173598172Y-92859292D02*
X175244048Y-92859292D01*
X173136560Y-92397680D02*
X173598172Y-92859292D01*
X176489260Y-91559380D02*
X175943960Y-91559380D01*
X177251360Y-90797280D02*
X176489260Y-91559380D01*
X149758400Y-90362800D02*
X149758400Y-88785800D01*
X148412200Y-88785800D02*
X149758400Y-88785800D01*
X176789748Y-92833892D02*
X177251360Y-92372280D01*
X176566610Y-92833892D02*
X176789748Y-92833892D01*
X175377322Y-94023180D02*
X176566610Y-92833892D01*
X174541360Y-94023180D02*
X175377322Y-94023180D01*
X152882600Y-88927500D02*
X152902400Y-88947300D01*
X152882600Y-87998300D02*
X152882600Y-88927500D01*
X150868200Y-81665500D02*
X151850000Y-82647300D01*
X147396314Y-81665500D02*
X150868200Y-81665500D01*
X135087360Y-79562960D02*
X135178800Y-79562960D01*
X135344559Y-79728719D02*
X135344559Y-80125501D01*
X135178800Y-79562960D02*
X135344559Y-79728719D01*
X135344559Y-80125501D02*
X138167238Y-82948180D01*
X151850000Y-82647300D02*
X152902400Y-82647300D01*
X138167238Y-82948180D02*
X146113635Y-82948180D01*
X146113635Y-82948180D02*
X147396314Y-81665500D01*
X152803940Y-81645760D02*
X152902400Y-81547300D01*
X136326880Y-79923640D02*
X135950960Y-79547720D01*
X136326880Y-80609440D02*
X136326880Y-79923640D01*
X138313210Y-82595770D02*
X136326880Y-80609440D01*
X145904162Y-82595770D02*
X138313210Y-82595770D01*
X146082780Y-82417152D02*
X145904162Y-82595770D01*
X146082780Y-81569560D02*
X146082780Y-82417152D01*
X146878040Y-81569560D02*
X146082780Y-81569560D01*
X147134510Y-81313090D02*
X146878040Y-81569560D01*
X151615790Y-81313090D02*
X147134510Y-81313090D01*
X152902400Y-81547300D02*
X151850000Y-81547300D01*
X151850000Y-81547300D02*
X151615790Y-81313090D01*
X152750320Y-80599380D02*
X152902400Y-80447300D01*
X150876000Y-80599380D02*
X152750320Y-80599380D01*
X137703560Y-80299173D02*
X137703560Y-79832200D01*
X152902400Y-79347300D02*
X151875642Y-79347300D01*
X151875642Y-79347300D02*
X151337272Y-79885670D01*
X151337272Y-79885670D02*
X147114130Y-79885670D01*
X147114130Y-79885670D02*
X146560490Y-80439310D01*
X146560490Y-80439310D02*
X137843697Y-80439310D01*
X137843697Y-80439310D02*
X137703560Y-80299173D01*
X140454480Y-79413100D02*
X141727380Y-79413100D01*
X140459560Y-81569560D02*
X141754920Y-81569560D01*
X143302380Y-79413100D02*
X144757380Y-79413100D01*
X143329920Y-81569560D02*
X144782780Y-81569560D01*
X147669400Y-92247300D02*
X147663900Y-92252800D01*
D35*
X152902400Y-92247300D02*
X147669400Y-92247300D01*
D30*
X130757940Y-85410880D02*
X130107840Y-85410880D01*
X131205440Y-85858380D02*
X130757940Y-85410880D01*
X132407840Y-85858380D02*
X131205440Y-85858380D01*
X130107840Y-86750780D02*
X130107840Y-87480880D01*
X130107840Y-85410880D02*
X130107840Y-86750780D01*
X130107840Y-87480880D02*
X130107840Y-88332160D01*
X130107840Y-89160880D02*
X130107840Y-91230880D01*
X131657740Y-90783380D02*
X132407840Y-90783380D01*
X131210240Y-91230880D02*
X131657740Y-90783380D01*
X130107840Y-91230880D02*
X131210240Y-91230880D01*
X130107840Y-88332160D02*
X130107840Y-89160880D01*
X135578400Y-86807200D02*
X135578400Y-86529800D01*
X134064720Y-88320880D02*
X135578400Y-86807200D01*
X132767840Y-88320880D02*
X134064720Y-88320880D01*
X133718786Y-87670880D02*
X134273910Y-87115756D01*
X132767840Y-87670880D02*
X133718786Y-87670880D01*
X135263500Y-85529800D02*
X135578400Y-85529800D01*
X134358000Y-85529800D02*
X135263500Y-85529800D01*
X134273910Y-85613890D02*
X134358000Y-85529800D01*
X134273910Y-87115756D02*
X134273910Y-85613890D01*
X171003060Y-76222960D02*
X170548300Y-75768200D01*
X171003060Y-78028800D02*
X171003060Y-76222960D01*
X170541448Y-78490412D02*
X171003060Y-78028800D01*
X170289350Y-78742510D02*
X170541448Y-78490412D01*
X170289350Y-79856592D02*
X170289350Y-78742510D01*
X170869478Y-80436720D02*
X170289350Y-79856592D01*
X172217080Y-80436720D02*
X170869478Y-80436720D01*
X173456600Y-83266280D02*
X174010320Y-82712560D01*
X172034300Y-83266280D02*
X173456600Y-83266280D01*
X172471080Y-81889600D02*
X173136560Y-82555080D01*
X172049540Y-81889600D02*
X172471080Y-81889600D01*
X169809260Y-90993060D02*
X170413680Y-91597480D01*
X169504360Y-90993060D02*
X169809260Y-90993060D01*
X168036240Y-91125040D02*
X168737280Y-91826080D01*
X168036240Y-90993060D02*
X168036240Y-91125040D01*
X169428060Y-79573220D02*
X168742360Y-80258920D01*
X169428060Y-79395320D02*
X169428060Y-79573220D01*
X169224960Y-78343660D02*
X169214700Y-78353920D01*
X168864180Y-77464920D02*
X169428060Y-78028800D01*
X168513760Y-77464920D02*
X168864180Y-77464920D01*
D33*
X151784200Y-85947300D02*
X151053900Y-85217000D01*
X152902400Y-85947300D02*
X151784200Y-85947300D01*
X148518312Y-84374388D02*
X148056700Y-84836000D01*
X148604710Y-84287990D02*
X148518312Y-84374388D01*
X150124890Y-84287990D02*
X148604710Y-84287990D01*
X151053900Y-85217000D02*
X150124890Y-84287990D01*
X142242600Y-90451900D02*
X142405100Y-90614400D01*
X139580800Y-90451900D02*
X142242600Y-90451900D01*
X141063900Y-89273200D02*
X142405100Y-90614400D01*
X141063900Y-89128600D02*
X141063900Y-89273200D01*
X141063900Y-88348900D02*
X142189200Y-87223600D01*
X141063900Y-89128600D02*
X141063900Y-88348900D01*
X147595088Y-85297612D02*
X148056700Y-84836000D01*
X147475770Y-85297612D02*
X147595088Y-85297612D01*
X145689481Y-87083901D02*
X147475770Y-85297612D01*
X145465799Y-87083901D02*
X145689481Y-87083901D01*
X145135600Y-87414100D02*
X145465799Y-87083901D01*
X138138378Y-96088200D02*
X137528300Y-96088200D01*
X137528300Y-95283100D02*
X136453800Y-94208600D01*
X137528300Y-96088200D02*
X137528300Y-95283100D01*
D34*
X137051450Y-86347300D02*
X138087100Y-86347300D01*
X136733950Y-86029800D02*
X137051450Y-86347300D01*
X136252400Y-86029800D02*
X136733950Y-86029800D01*
X133762640Y-87020880D02*
X132767840Y-87020880D01*
X138087100Y-85013800D02*
X138049000Y-84975700D01*
X138087100Y-86347300D02*
X138087100Y-85013800D01*
X138049000Y-84975700D02*
X133896100Y-84975700D01*
X133896100Y-84975700D02*
X133845300Y-85026500D01*
X133845300Y-85026500D02*
X133845300Y-86938220D01*
X133845300Y-86938220D02*
X133762640Y-87020880D01*
X137380800Y-89822100D02*
X137380800Y-90451900D01*
X138087100Y-89115800D02*
X137380800Y-89822100D01*
X138087100Y-86347300D02*
X138087100Y-89115800D01*
X136077900Y-90451900D02*
X135953500Y-90576300D01*
X137380800Y-90451900D02*
X136077900Y-90451900D01*
X134569200Y-90576300D02*
X134543800Y-90601700D01*
X135953500Y-90576300D02*
X134569200Y-90576300D01*
D30*
X137180200Y-92151300D02*
X137380800Y-92351900D01*
X135953500Y-92151300D02*
X137180200Y-92151300D01*
D32*
G36*
X142735300Y-95961200D02*
G01*
X142755300Y-95961200D01*
X142755300Y-96215200D01*
X142735300Y-96215200D01*
X142735300Y-96235200D01*
X142481300Y-96235200D01*
X142481300Y-96215200D01*
X142461300Y-96215200D01*
X142461300Y-95961200D01*
X142481300Y-95961200D01*
X142481300Y-95941200D01*
X142735300Y-95941200D01*
X142735300Y-95961200D01*
X142735300Y-95961200D01*
G37*
X142735300Y-95961200D02*
X142755300Y-95961200D01*
X142755300Y-96215200D01*
X142735300Y-96215200D01*
X142735300Y-96235200D01*
X142481300Y-96235200D01*
X142481300Y-96215200D01*
X142461300Y-96215200D01*
X142461300Y-95961200D01*
X142481300Y-95961200D01*
X142481300Y-95941200D01*
X142735300Y-95941200D01*
X142735300Y-95961200D01*
G36*
X163367400Y-79061550D02*
G01*
X163526150Y-79220300D01*
X164775400Y-79220300D01*
X164775400Y-79200300D01*
X165029400Y-79200300D01*
X165029400Y-79220300D01*
X165049400Y-79220300D01*
X165049400Y-79409228D01*
X164002400Y-79409228D01*
X163877918Y-79421488D01*
X163758220Y-79457798D01*
X163727347Y-79474300D01*
X163526150Y-79474300D01*
X163367400Y-79633050D01*
X163364328Y-79747300D01*
X163376588Y-79871782D01*
X163384329Y-79897300D01*
X163376588Y-79922818D01*
X163364328Y-80047300D01*
X163364328Y-80847300D01*
X163376588Y-80971782D01*
X163384329Y-80997300D01*
X163376588Y-81022818D01*
X163364328Y-81147300D01*
X163364328Y-81947300D01*
X163376588Y-82071782D01*
X163384329Y-82097300D01*
X163376588Y-82122818D01*
X163364328Y-82247300D01*
X163364328Y-83047300D01*
X163376588Y-83171782D01*
X163384329Y-83197300D01*
X163376588Y-83222818D01*
X163364328Y-83347300D01*
X163364328Y-84147300D01*
X163376588Y-84271782D01*
X163384329Y-84297300D01*
X163376588Y-84322818D01*
X163364328Y-84447300D01*
X163364328Y-85247300D01*
X163376588Y-85371782D01*
X163384329Y-85397300D01*
X163376588Y-85422818D01*
X163364328Y-85547300D01*
X163364328Y-86347300D01*
X163376588Y-86471782D01*
X163412898Y-86591480D01*
X163471863Y-86701794D01*
X163551215Y-86798485D01*
X163647906Y-86877837D01*
X163758220Y-86936802D01*
X163877918Y-86973112D01*
X164002400Y-86985372D01*
X165802400Y-86985372D01*
X165926882Y-86973112D01*
X165999822Y-86950986D01*
X165980372Y-86997942D01*
X165943280Y-87184416D01*
X165943280Y-87374544D01*
X165980372Y-87561018D01*
X166053131Y-87736674D01*
X166158760Y-87894759D01*
X166293201Y-88029200D01*
X166451286Y-88134829D01*
X166626942Y-88207588D01*
X166813416Y-88244680D01*
X166867893Y-88244680D01*
X167197486Y-88574274D01*
X167174125Y-88593445D01*
X167067569Y-88723285D01*
X166988390Y-88871418D01*
X166939632Y-89032152D01*
X166923168Y-89199310D01*
X166923168Y-89636810D01*
X166934655Y-89753440D01*
X166440472Y-89753440D01*
X166440472Y-89647300D01*
X166428212Y-89522818D01*
X166420471Y-89497300D01*
X166428212Y-89471782D01*
X166440472Y-89347300D01*
X166440472Y-88547300D01*
X166428212Y-88422818D01*
X166391902Y-88303120D01*
X166332937Y-88192806D01*
X166253585Y-88096115D01*
X166156894Y-88016763D01*
X166046580Y-87957798D01*
X165926882Y-87921488D01*
X165802400Y-87909228D01*
X164002400Y-87909228D01*
X163877918Y-87921488D01*
X163758220Y-87957798D01*
X163647906Y-88016763D01*
X163551215Y-88096115D01*
X163471863Y-88192806D01*
X163412898Y-88303120D01*
X163376588Y-88422818D01*
X163364328Y-88547300D01*
X163364328Y-89347300D01*
X163376588Y-89471782D01*
X163384329Y-89497300D01*
X163376588Y-89522818D01*
X163364328Y-89647300D01*
X163364328Y-90447300D01*
X163376588Y-90571782D01*
X163384329Y-90597300D01*
X163376588Y-90622818D01*
X163364328Y-90747300D01*
X163364328Y-91547300D01*
X163376588Y-91671782D01*
X163384329Y-91697300D01*
X163376588Y-91722818D01*
X163364328Y-91847300D01*
X163364328Y-92647300D01*
X163376588Y-92771782D01*
X163384329Y-92797300D01*
X163376588Y-92822818D01*
X163364328Y-92947300D01*
X163367400Y-93061550D01*
X163526150Y-93220300D01*
X163727347Y-93220300D01*
X163758220Y-93236802D01*
X163877918Y-93273112D01*
X164002400Y-93285372D01*
X165049400Y-93285372D01*
X165049400Y-93474300D01*
X165029400Y-93474300D01*
X165029400Y-94223550D01*
X165188150Y-94382300D01*
X165526720Y-94383993D01*
X165526720Y-94603200D01*
X165395350Y-94603200D01*
X165177189Y-94624687D01*
X164897266Y-94709601D01*
X164639286Y-94847494D01*
X164413166Y-95033066D01*
X164227594Y-95259186D01*
X164198300Y-95313991D01*
X164169006Y-95259186D01*
X163983434Y-95033066D01*
X163757314Y-94847494D01*
X163499334Y-94709601D01*
X163219411Y-94624687D01*
X163001250Y-94603200D01*
X162855350Y-94603200D01*
X162637189Y-94624687D01*
X162357266Y-94709601D01*
X162099286Y-94847494D01*
X161873166Y-95033066D01*
X161687594Y-95259186D01*
X161658300Y-95313991D01*
X161629006Y-95259186D01*
X161443434Y-95033066D01*
X161217314Y-94847494D01*
X160959334Y-94709601D01*
X160679411Y-94624687D01*
X160461250Y-94603200D01*
X160315350Y-94603200D01*
X160097189Y-94624687D01*
X159817266Y-94709601D01*
X159559286Y-94847494D01*
X159333166Y-95033066D01*
X159147594Y-95259186D01*
X159118300Y-95313991D01*
X159089006Y-95259186D01*
X158903434Y-95033066D01*
X158677314Y-94847494D01*
X158419334Y-94709601D01*
X158139411Y-94624687D01*
X157921250Y-94603200D01*
X157775350Y-94603200D01*
X157557189Y-94624687D01*
X157277266Y-94709601D01*
X157019286Y-94847494D01*
X156793166Y-95033066D01*
X156607594Y-95259186D01*
X156578300Y-95313991D01*
X156549006Y-95259186D01*
X156363434Y-95033066D01*
X156137314Y-94847494D01*
X155879334Y-94709601D01*
X155599411Y-94624687D01*
X155381250Y-94603200D01*
X155235350Y-94603200D01*
X155017189Y-94624687D01*
X154737266Y-94709601D01*
X154479286Y-94847494D01*
X154253166Y-95033066D01*
X154067594Y-95259186D01*
X154038300Y-95313991D01*
X154009006Y-95259186D01*
X153823434Y-95033066D01*
X153597314Y-94847494D01*
X153339334Y-94709601D01*
X153059411Y-94624687D01*
X152841250Y-94603200D01*
X152695350Y-94603200D01*
X152477189Y-94624687D01*
X152197266Y-94709601D01*
X151939286Y-94847494D01*
X151713166Y-95033066D01*
X151527594Y-95259186D01*
X151498300Y-95313991D01*
X151469006Y-95259186D01*
X151283434Y-95033066D01*
X151057314Y-94847494D01*
X150799334Y-94709601D01*
X150519411Y-94624687D01*
X150301250Y-94603200D01*
X150155350Y-94603200D01*
X149937189Y-94624687D01*
X149657266Y-94709601D01*
X149399286Y-94847494D01*
X149173166Y-95033066D01*
X148987594Y-95259186D01*
X148958300Y-95313991D01*
X148929006Y-95259186D01*
X148743434Y-95033066D01*
X148517314Y-94847494D01*
X148259334Y-94709601D01*
X147979411Y-94624687D01*
X147771106Y-94604171D01*
X147828402Y-94496980D01*
X147864712Y-94377282D01*
X147876972Y-94252800D01*
X147873900Y-94013550D01*
X147715150Y-93854800D01*
X146265900Y-93854800D01*
X146265900Y-94729050D01*
X146424650Y-94887800D01*
X146808409Y-94889248D01*
X146633166Y-95033066D01*
X146447594Y-95259186D01*
X146418300Y-95313991D01*
X146389006Y-95259186D01*
X146203434Y-95033066D01*
X145977314Y-94847494D01*
X145922666Y-94818284D01*
X146011900Y-94729050D01*
X146011900Y-93854800D01*
X144562650Y-93854800D01*
X144403900Y-94013550D01*
X144400828Y-94252800D01*
X144413088Y-94377282D01*
X144449398Y-94496980D01*
X144508363Y-94607294D01*
X144587715Y-94703985D01*
X144589891Y-94705771D01*
X144577266Y-94709601D01*
X144319286Y-94847494D01*
X144093166Y-95033066D01*
X143907594Y-95259186D01*
X143873099Y-95323723D01*
X143803478Y-95206845D01*
X143608569Y-94990612D01*
X143568983Y-94961085D01*
X143587191Y-94951353D01*
X143722559Y-94840259D01*
X143750399Y-94806336D01*
X143931847Y-94624888D01*
X143965769Y-94597049D01*
X144076863Y-94461681D01*
X144159413Y-94307241D01*
X144203527Y-94161815D01*
X144210246Y-94139665D01*
X144220621Y-94034326D01*
X144223110Y-94009057D01*
X144223110Y-94009050D01*
X144227410Y-93965390D01*
X144223110Y-93921730D01*
X144223110Y-93747300D01*
X151364328Y-93747300D01*
X151376588Y-93871782D01*
X151412898Y-93991480D01*
X151471863Y-94101794D01*
X151551215Y-94198485D01*
X151647906Y-94277837D01*
X151758220Y-94336802D01*
X151877918Y-94373112D01*
X152002400Y-94385372D01*
X152616650Y-94382300D01*
X152775400Y-94223550D01*
X152775400Y-93474300D01*
X153029400Y-93474300D01*
X153029400Y-94223550D01*
X153188150Y-94382300D01*
X153802400Y-94385372D01*
X153926882Y-94373112D01*
X154046580Y-94336802D01*
X154156894Y-94277837D01*
X154253585Y-94198485D01*
X154332937Y-94101794D01*
X154391902Y-93991480D01*
X154428212Y-93871782D01*
X154440472Y-93747300D01*
X163364328Y-93747300D01*
X163376588Y-93871782D01*
X163412898Y-93991480D01*
X163471863Y-94101794D01*
X163551215Y-94198485D01*
X163647906Y-94277837D01*
X163758220Y-94336802D01*
X163877918Y-94373112D01*
X164002400Y-94385372D01*
X164616650Y-94382300D01*
X164775400Y-94223550D01*
X164775400Y-93474300D01*
X163526150Y-93474300D01*
X163367400Y-93633050D01*
X163364328Y-93747300D01*
X154440472Y-93747300D01*
X154437400Y-93633050D01*
X154278650Y-93474300D01*
X153029400Y-93474300D01*
X152775400Y-93474300D01*
X151526150Y-93474300D01*
X151367400Y-93633050D01*
X151364328Y-93747300D01*
X144223110Y-93747300D01*
X144223110Y-93202800D01*
X144400828Y-93202800D01*
X144403900Y-93442050D01*
X144562650Y-93600800D01*
X146011900Y-93600800D01*
X146011900Y-92726550D01*
X145853150Y-92567800D01*
X145038900Y-92564728D01*
X144914418Y-92576988D01*
X144794720Y-92613298D01*
X144684406Y-92672263D01*
X144587715Y-92751615D01*
X144508363Y-92848306D01*
X144449398Y-92958620D01*
X144413088Y-93078318D01*
X144400828Y-93202800D01*
X144223110Y-93202800D01*
X144223110Y-91302800D01*
X144400828Y-91302800D01*
X144413088Y-91427282D01*
X144449398Y-91546980D01*
X144508363Y-91657294D01*
X144587715Y-91753985D01*
X144684406Y-91833337D01*
X144794720Y-91892302D01*
X144914418Y-91928612D01*
X145038900Y-91940872D01*
X145853150Y-91937800D01*
X146011900Y-91779050D01*
X146011900Y-90904800D01*
X144562650Y-90904800D01*
X144403900Y-91063550D01*
X144400828Y-91302800D01*
X144223110Y-91302800D01*
X144223110Y-90252800D01*
X144400828Y-90252800D01*
X144403900Y-90492050D01*
X144562650Y-90650800D01*
X146011900Y-90650800D01*
X146011900Y-89776550D01*
X146265900Y-89776550D01*
X146265900Y-90650800D01*
X147715150Y-90650800D01*
X147873900Y-90492050D01*
X147876972Y-90252800D01*
X147864712Y-90128318D01*
X147828402Y-90008620D01*
X147769437Y-89898306D01*
X147690085Y-89801615D01*
X147593394Y-89722263D01*
X147483080Y-89663298D01*
X147363382Y-89626988D01*
X147238900Y-89614728D01*
X146424650Y-89617800D01*
X146265900Y-89776550D01*
X146011900Y-89776550D01*
X145853150Y-89617800D01*
X145038900Y-89614728D01*
X144914418Y-89626988D01*
X144794720Y-89663298D01*
X144684406Y-89722263D01*
X144587715Y-89801615D01*
X144508363Y-89898306D01*
X144449398Y-90008620D01*
X144413088Y-90128318D01*
X144400828Y-90252800D01*
X144223110Y-90252800D01*
X144223110Y-90102452D01*
X144228900Y-90043667D01*
X144228900Y-90043661D01*
X144233200Y-90000001D01*
X144228900Y-89956341D01*
X144228900Y-89901336D01*
X144316085Y-89829785D01*
X144395437Y-89733094D01*
X144454402Y-89622780D01*
X144490712Y-89503082D01*
X144502972Y-89378600D01*
X144502972Y-88878600D01*
X144490712Y-88754118D01*
X144470929Y-88688901D01*
X144508004Y-88566678D01*
X144516335Y-88539214D01*
X144520134Y-88500638D01*
X144529199Y-88408606D01*
X144529199Y-88408599D01*
X144533499Y-88364939D01*
X144529199Y-88321279D01*
X144529199Y-88169752D01*
X144678406Y-88269449D01*
X144854062Y-88342208D01*
X145040536Y-88379300D01*
X145230664Y-88379300D01*
X145417138Y-88342208D01*
X145592794Y-88269449D01*
X145750879Y-88163820D01*
X145885320Y-88029379D01*
X145948913Y-87934205D01*
X146031332Y-87909204D01*
X146185772Y-87826654D01*
X146321140Y-87715560D01*
X146348980Y-87681637D01*
X147303696Y-86726922D01*
X147299128Y-86773300D01*
X147302200Y-86925050D01*
X147460950Y-87083800D01*
X148285200Y-87083800D01*
X148285200Y-86297050D01*
X148126450Y-86138300D01*
X147937200Y-86135228D01*
X147890822Y-86139796D01*
X147894973Y-86135645D01*
X147936939Y-86122915D01*
X148091379Y-86040365D01*
X148202619Y-85949072D01*
X148275450Y-85949072D01*
X148314847Y-85945192D01*
X148319818Y-85961580D01*
X148378783Y-86071894D01*
X148458135Y-86168585D01*
X148554826Y-86247937D01*
X148576648Y-86259602D01*
X148539200Y-86297050D01*
X148539200Y-87083800D01*
X148559200Y-87083800D01*
X148559200Y-87337800D01*
X148539200Y-87337800D01*
X148539200Y-87357800D01*
X148285200Y-87357800D01*
X148285200Y-87337800D01*
X147460950Y-87337800D01*
X147302200Y-87496550D01*
X147299128Y-87648300D01*
X147311388Y-87772782D01*
X147347698Y-87892480D01*
X147406663Y-88002794D01*
X147461300Y-88069370D01*
X147443529Y-88091025D01*
X147364350Y-88239158D01*
X147315592Y-88399892D01*
X147299128Y-88567050D01*
X147299128Y-89004550D01*
X147315592Y-89171708D01*
X147364350Y-89332442D01*
X147443529Y-89480575D01*
X147550085Y-89610415D01*
X147679925Y-89716971D01*
X147828058Y-89796150D01*
X147988792Y-89844908D01*
X148155950Y-89861372D01*
X148463252Y-89861372D01*
X148437272Y-89947015D01*
X148420328Y-90119050D01*
X148420328Y-90606550D01*
X148437272Y-90778585D01*
X148487453Y-90944009D01*
X148568942Y-91096464D01*
X148672692Y-91222883D01*
X148544149Y-91222883D01*
X148543394Y-91222263D01*
X148433080Y-91163298D01*
X148313382Y-91126988D01*
X148188900Y-91114728D01*
X147874557Y-91114728D01*
X147873900Y-91063550D01*
X147715150Y-90904800D01*
X146265900Y-90904800D01*
X146265900Y-91779050D01*
X146424650Y-91937800D01*
X146500828Y-91938087D01*
X146500828Y-92567513D01*
X146424650Y-92567800D01*
X146265900Y-92726550D01*
X146265900Y-93600800D01*
X147715150Y-93600800D01*
X147873900Y-93442050D01*
X147874557Y-93390872D01*
X148188900Y-93390872D01*
X148313382Y-93378612D01*
X148433080Y-93342302D01*
X148543394Y-93283337D01*
X148557553Y-93271717D01*
X148918799Y-93271717D01*
X148964691Y-93296247D01*
X149130115Y-93346428D01*
X149302150Y-93363372D01*
X150214650Y-93363372D01*
X150386685Y-93346428D01*
X150552109Y-93296247D01*
X150598001Y-93271717D01*
X151873319Y-93271717D01*
X151877918Y-93273112D01*
X152002400Y-93285372D01*
X153802400Y-93285372D01*
X153926882Y-93273112D01*
X154046580Y-93236802D01*
X154077453Y-93220300D01*
X154278650Y-93220300D01*
X154437400Y-93061550D01*
X154440472Y-92947300D01*
X154428212Y-92822818D01*
X154420471Y-92797300D01*
X154428212Y-92771782D01*
X154440472Y-92647300D01*
X154440472Y-91847300D01*
X154428212Y-91722818D01*
X154420471Y-91697300D01*
X154428212Y-91671782D01*
X154440472Y-91547300D01*
X154437400Y-91433050D01*
X154278650Y-91274300D01*
X154077453Y-91274300D01*
X154046580Y-91257798D01*
X153926882Y-91221488D01*
X153802400Y-91209228D01*
X152002400Y-91209228D01*
X151877918Y-91221488D01*
X151873319Y-91222883D01*
X150844108Y-91222883D01*
X150947858Y-91096464D01*
X151029347Y-90944009D01*
X151079528Y-90778585D01*
X151081352Y-90760061D01*
X151100425Y-90761940D01*
X151135351Y-90758500D01*
X151364629Y-90758500D01*
X151367400Y-90861550D01*
X151526150Y-91020300D01*
X151727347Y-91020300D01*
X151758220Y-91036802D01*
X151877918Y-91073112D01*
X152002400Y-91085372D01*
X153802400Y-91085372D01*
X153926882Y-91073112D01*
X154046580Y-91036802D01*
X154077453Y-91020300D01*
X154278650Y-91020300D01*
X154437400Y-90861550D01*
X154440472Y-90747300D01*
X154428212Y-90622818D01*
X154420471Y-90597300D01*
X154428212Y-90571782D01*
X154440472Y-90447300D01*
X154440472Y-89647300D01*
X154428212Y-89522818D01*
X154420471Y-89497300D01*
X154428212Y-89471782D01*
X154440472Y-89347300D01*
X154440472Y-88547300D01*
X154428212Y-88422818D01*
X154391902Y-88303120D01*
X154332937Y-88192806D01*
X154253585Y-88096115D01*
X154156894Y-88016763D01*
X154046580Y-87957798D01*
X153926882Y-87921488D01*
X153847800Y-87913699D01*
X153847800Y-87903236D01*
X153810708Y-87716762D01*
X153737949Y-87541106D01*
X153632320Y-87383021D01*
X153497879Y-87248580D01*
X153339794Y-87142951D01*
X153164138Y-87070192D01*
X152977664Y-87033100D01*
X152787536Y-87033100D01*
X152601062Y-87070192D01*
X152425406Y-87142951D01*
X152267321Y-87248580D01*
X152132880Y-87383021D01*
X152027251Y-87541106D01*
X151954492Y-87716762D01*
X151917400Y-87903236D01*
X151917400Y-87917599D01*
X151877918Y-87921488D01*
X151758220Y-87957798D01*
X151647906Y-88016763D01*
X151551215Y-88096115D01*
X151471863Y-88192806D01*
X151412898Y-88303120D01*
X151376588Y-88422818D01*
X151364328Y-88547300D01*
X151364328Y-89305414D01*
X151220810Y-89161897D01*
X151220810Y-87996935D01*
X151224250Y-87962009D01*
X151220810Y-87927083D01*
X151220810Y-87927074D01*
X151210519Y-87822590D01*
X151169852Y-87688529D01*
X151103812Y-87564977D01*
X151014937Y-87456683D01*
X150987800Y-87434412D01*
X150871472Y-87318084D01*
X150871472Y-86992050D01*
X150855008Y-86824892D01*
X150806250Y-86664158D01*
X150727071Y-86516025D01*
X150620515Y-86386185D01*
X150566728Y-86342043D01*
X150703070Y-86355472D01*
X150935136Y-86355472D01*
X151124705Y-86545041D01*
X151152541Y-86578959D01*
X151186458Y-86606794D01*
X151186459Y-86606795D01*
X151190887Y-86610429D01*
X151287909Y-86690053D01*
X151442349Y-86772603D01*
X151499041Y-86789800D01*
X151565020Y-86809815D01*
X151647906Y-86877837D01*
X151758220Y-86936802D01*
X151877918Y-86973112D01*
X152002400Y-86985372D01*
X153802400Y-86985372D01*
X153926882Y-86973112D01*
X154046580Y-86936802D01*
X154156894Y-86877837D01*
X154253585Y-86798485D01*
X154332937Y-86701794D01*
X154391902Y-86591480D01*
X154428212Y-86471782D01*
X154440472Y-86347300D01*
X154440472Y-85547300D01*
X154428212Y-85422818D01*
X154420471Y-85397300D01*
X154428212Y-85371782D01*
X154440472Y-85247300D01*
X154440472Y-84447300D01*
X154428212Y-84322818D01*
X154420471Y-84297300D01*
X154428212Y-84271782D01*
X154440472Y-84147300D01*
X154440472Y-83347300D01*
X154428212Y-83222818D01*
X154420471Y-83197300D01*
X154428212Y-83171782D01*
X154440472Y-83047300D01*
X154440472Y-82247300D01*
X154428212Y-82122818D01*
X154420471Y-82097300D01*
X154428212Y-82071782D01*
X154440472Y-81947300D01*
X154440472Y-81147300D01*
X154428212Y-81022818D01*
X154420471Y-80997300D01*
X154428212Y-80971782D01*
X154440472Y-80847300D01*
X154440472Y-80047300D01*
X154428212Y-79922818D01*
X154420471Y-79897300D01*
X154428212Y-79871782D01*
X154440472Y-79747300D01*
X154440472Y-79018431D01*
X163366241Y-79018431D01*
X163367400Y-79061550D01*
X163367400Y-79061550D01*
G37*
X163367400Y-79061550D02*
X163526150Y-79220300D01*
X164775400Y-79220300D01*
X164775400Y-79200300D01*
X165029400Y-79200300D01*
X165029400Y-79220300D01*
X165049400Y-79220300D01*
X165049400Y-79409228D01*
X164002400Y-79409228D01*
X163877918Y-79421488D01*
X163758220Y-79457798D01*
X163727347Y-79474300D01*
X163526150Y-79474300D01*
X163367400Y-79633050D01*
X163364328Y-79747300D01*
X163376588Y-79871782D01*
X163384329Y-79897300D01*
X163376588Y-79922818D01*
X163364328Y-80047300D01*
X163364328Y-80847300D01*
X163376588Y-80971782D01*
X163384329Y-80997300D01*
X163376588Y-81022818D01*
X163364328Y-81147300D01*
X163364328Y-81947300D01*
X163376588Y-82071782D01*
X163384329Y-82097300D01*
X163376588Y-82122818D01*
X163364328Y-82247300D01*
X163364328Y-83047300D01*
X163376588Y-83171782D01*
X163384329Y-83197300D01*
X163376588Y-83222818D01*
X163364328Y-83347300D01*
X163364328Y-84147300D01*
X163376588Y-84271782D01*
X163384329Y-84297300D01*
X163376588Y-84322818D01*
X163364328Y-84447300D01*
X163364328Y-85247300D01*
X163376588Y-85371782D01*
X163384329Y-85397300D01*
X163376588Y-85422818D01*
X163364328Y-85547300D01*
X163364328Y-86347300D01*
X163376588Y-86471782D01*
X163412898Y-86591480D01*
X163471863Y-86701794D01*
X163551215Y-86798485D01*
X163647906Y-86877837D01*
X163758220Y-86936802D01*
X163877918Y-86973112D01*
X164002400Y-86985372D01*
X165802400Y-86985372D01*
X165926882Y-86973112D01*
X165999822Y-86950986D01*
X165980372Y-86997942D01*
X165943280Y-87184416D01*
X165943280Y-87374544D01*
X165980372Y-87561018D01*
X166053131Y-87736674D01*
X166158760Y-87894759D01*
X166293201Y-88029200D01*
X166451286Y-88134829D01*
X166626942Y-88207588D01*
X166813416Y-88244680D01*
X166867893Y-88244680D01*
X167197486Y-88574274D01*
X167174125Y-88593445D01*
X167067569Y-88723285D01*
X166988390Y-88871418D01*
X166939632Y-89032152D01*
X166923168Y-89199310D01*
X166923168Y-89636810D01*
X166934655Y-89753440D01*
X166440472Y-89753440D01*
X166440472Y-89647300D01*
X166428212Y-89522818D01*
X166420471Y-89497300D01*
X166428212Y-89471782D01*
X166440472Y-89347300D01*
X166440472Y-88547300D01*
X166428212Y-88422818D01*
X166391902Y-88303120D01*
X166332937Y-88192806D01*
X166253585Y-88096115D01*
X166156894Y-88016763D01*
X166046580Y-87957798D01*
X165926882Y-87921488D01*
X165802400Y-87909228D01*
X164002400Y-87909228D01*
X163877918Y-87921488D01*
X163758220Y-87957798D01*
X163647906Y-88016763D01*
X163551215Y-88096115D01*
X163471863Y-88192806D01*
X163412898Y-88303120D01*
X163376588Y-88422818D01*
X163364328Y-88547300D01*
X163364328Y-89347300D01*
X163376588Y-89471782D01*
X163384329Y-89497300D01*
X163376588Y-89522818D01*
X163364328Y-89647300D01*
X163364328Y-90447300D01*
X163376588Y-90571782D01*
X163384329Y-90597300D01*
X163376588Y-90622818D01*
X163364328Y-90747300D01*
X163364328Y-91547300D01*
X163376588Y-91671782D01*
X163384329Y-91697300D01*
X163376588Y-91722818D01*
X163364328Y-91847300D01*
X163364328Y-92647300D01*
X163376588Y-92771782D01*
X163384329Y-92797300D01*
X163376588Y-92822818D01*
X163364328Y-92947300D01*
X163367400Y-93061550D01*
X163526150Y-93220300D01*
X163727347Y-93220300D01*
X163758220Y-93236802D01*
X163877918Y-93273112D01*
X164002400Y-93285372D01*
X165049400Y-93285372D01*
X165049400Y-93474300D01*
X165029400Y-93474300D01*
X165029400Y-94223550D01*
X165188150Y-94382300D01*
X165526720Y-94383993D01*
X165526720Y-94603200D01*
X165395350Y-94603200D01*
X165177189Y-94624687D01*
X164897266Y-94709601D01*
X164639286Y-94847494D01*
X164413166Y-95033066D01*
X164227594Y-95259186D01*
X164198300Y-95313991D01*
X164169006Y-95259186D01*
X163983434Y-95033066D01*
X163757314Y-94847494D01*
X163499334Y-94709601D01*
X163219411Y-94624687D01*
X163001250Y-94603200D01*
X162855350Y-94603200D01*
X162637189Y-94624687D01*
X162357266Y-94709601D01*
X162099286Y-94847494D01*
X161873166Y-95033066D01*
X161687594Y-95259186D01*
X161658300Y-95313991D01*
X161629006Y-95259186D01*
X161443434Y-95033066D01*
X161217314Y-94847494D01*
X160959334Y-94709601D01*
X160679411Y-94624687D01*
X160461250Y-94603200D01*
X160315350Y-94603200D01*
X160097189Y-94624687D01*
X159817266Y-94709601D01*
X159559286Y-94847494D01*
X159333166Y-95033066D01*
X159147594Y-95259186D01*
X159118300Y-95313991D01*
X159089006Y-95259186D01*
X158903434Y-95033066D01*
X158677314Y-94847494D01*
X158419334Y-94709601D01*
X158139411Y-94624687D01*
X157921250Y-94603200D01*
X157775350Y-94603200D01*
X157557189Y-94624687D01*
X157277266Y-94709601D01*
X157019286Y-94847494D01*
X156793166Y-95033066D01*
X156607594Y-95259186D01*
X156578300Y-95313991D01*
X156549006Y-95259186D01*
X156363434Y-95033066D01*
X156137314Y-94847494D01*
X155879334Y-94709601D01*
X155599411Y-94624687D01*
X155381250Y-94603200D01*
X155235350Y-94603200D01*
X155017189Y-94624687D01*
X154737266Y-94709601D01*
X154479286Y-94847494D01*
X154253166Y-95033066D01*
X154067594Y-95259186D01*
X154038300Y-95313991D01*
X154009006Y-95259186D01*
X153823434Y-95033066D01*
X153597314Y-94847494D01*
X153339334Y-94709601D01*
X153059411Y-94624687D01*
X152841250Y-94603200D01*
X152695350Y-94603200D01*
X152477189Y-94624687D01*
X152197266Y-94709601D01*
X151939286Y-94847494D01*
X151713166Y-95033066D01*
X151527594Y-95259186D01*
X151498300Y-95313991D01*
X151469006Y-95259186D01*
X151283434Y-95033066D01*
X151057314Y-94847494D01*
X150799334Y-94709601D01*
X150519411Y-94624687D01*
X150301250Y-94603200D01*
X150155350Y-94603200D01*
X149937189Y-94624687D01*
X149657266Y-94709601D01*
X149399286Y-94847494D01*
X149173166Y-95033066D01*
X148987594Y-95259186D01*
X148958300Y-95313991D01*
X148929006Y-95259186D01*
X148743434Y-95033066D01*
X148517314Y-94847494D01*
X148259334Y-94709601D01*
X147979411Y-94624687D01*
X147771106Y-94604171D01*
X147828402Y-94496980D01*
X147864712Y-94377282D01*
X147876972Y-94252800D01*
X147873900Y-94013550D01*
X147715150Y-93854800D01*
X146265900Y-93854800D01*
X146265900Y-94729050D01*
X146424650Y-94887800D01*
X146808409Y-94889248D01*
X146633166Y-95033066D01*
X146447594Y-95259186D01*
X146418300Y-95313991D01*
X146389006Y-95259186D01*
X146203434Y-95033066D01*
X145977314Y-94847494D01*
X145922666Y-94818284D01*
X146011900Y-94729050D01*
X146011900Y-93854800D01*
X144562650Y-93854800D01*
X144403900Y-94013550D01*
X144400828Y-94252800D01*
X144413088Y-94377282D01*
X144449398Y-94496980D01*
X144508363Y-94607294D01*
X144587715Y-94703985D01*
X144589891Y-94705771D01*
X144577266Y-94709601D01*
X144319286Y-94847494D01*
X144093166Y-95033066D01*
X143907594Y-95259186D01*
X143873099Y-95323723D01*
X143803478Y-95206845D01*
X143608569Y-94990612D01*
X143568983Y-94961085D01*
X143587191Y-94951353D01*
X143722559Y-94840259D01*
X143750399Y-94806336D01*
X143931847Y-94624888D01*
X143965769Y-94597049D01*
X144076863Y-94461681D01*
X144159413Y-94307241D01*
X144203527Y-94161815D01*
X144210246Y-94139665D01*
X144220621Y-94034326D01*
X144223110Y-94009057D01*
X144223110Y-94009050D01*
X144227410Y-93965390D01*
X144223110Y-93921730D01*
X144223110Y-93747300D01*
X151364328Y-93747300D01*
X151376588Y-93871782D01*
X151412898Y-93991480D01*
X151471863Y-94101794D01*
X151551215Y-94198485D01*
X151647906Y-94277837D01*
X151758220Y-94336802D01*
X151877918Y-94373112D01*
X152002400Y-94385372D01*
X152616650Y-94382300D01*
X152775400Y-94223550D01*
X152775400Y-93474300D01*
X153029400Y-93474300D01*
X153029400Y-94223550D01*
X153188150Y-94382300D01*
X153802400Y-94385372D01*
X153926882Y-94373112D01*
X154046580Y-94336802D01*
X154156894Y-94277837D01*
X154253585Y-94198485D01*
X154332937Y-94101794D01*
X154391902Y-93991480D01*
X154428212Y-93871782D01*
X154440472Y-93747300D01*
X163364328Y-93747300D01*
X163376588Y-93871782D01*
X163412898Y-93991480D01*
X163471863Y-94101794D01*
X163551215Y-94198485D01*
X163647906Y-94277837D01*
X163758220Y-94336802D01*
X163877918Y-94373112D01*
X164002400Y-94385372D01*
X164616650Y-94382300D01*
X164775400Y-94223550D01*
X164775400Y-93474300D01*
X163526150Y-93474300D01*
X163367400Y-93633050D01*
X163364328Y-93747300D01*
X154440472Y-93747300D01*
X154437400Y-93633050D01*
X154278650Y-93474300D01*
X153029400Y-93474300D01*
X152775400Y-93474300D01*
X151526150Y-93474300D01*
X151367400Y-93633050D01*
X151364328Y-93747300D01*
X144223110Y-93747300D01*
X144223110Y-93202800D01*
X144400828Y-93202800D01*
X144403900Y-93442050D01*
X144562650Y-93600800D01*
X146011900Y-93600800D01*
X146011900Y-92726550D01*
X145853150Y-92567800D01*
X145038900Y-92564728D01*
X144914418Y-92576988D01*
X144794720Y-92613298D01*
X144684406Y-92672263D01*
X144587715Y-92751615D01*
X144508363Y-92848306D01*
X144449398Y-92958620D01*
X144413088Y-93078318D01*
X144400828Y-93202800D01*
X144223110Y-93202800D01*
X144223110Y-91302800D01*
X144400828Y-91302800D01*
X144413088Y-91427282D01*
X144449398Y-91546980D01*
X144508363Y-91657294D01*
X144587715Y-91753985D01*
X144684406Y-91833337D01*
X144794720Y-91892302D01*
X144914418Y-91928612D01*
X145038900Y-91940872D01*
X145853150Y-91937800D01*
X146011900Y-91779050D01*
X146011900Y-90904800D01*
X144562650Y-90904800D01*
X144403900Y-91063550D01*
X144400828Y-91302800D01*
X144223110Y-91302800D01*
X144223110Y-90252800D01*
X144400828Y-90252800D01*
X144403900Y-90492050D01*
X144562650Y-90650800D01*
X146011900Y-90650800D01*
X146011900Y-89776550D01*
X146265900Y-89776550D01*
X146265900Y-90650800D01*
X147715150Y-90650800D01*
X147873900Y-90492050D01*
X147876972Y-90252800D01*
X147864712Y-90128318D01*
X147828402Y-90008620D01*
X147769437Y-89898306D01*
X147690085Y-89801615D01*
X147593394Y-89722263D01*
X147483080Y-89663298D01*
X147363382Y-89626988D01*
X147238900Y-89614728D01*
X146424650Y-89617800D01*
X146265900Y-89776550D01*
X146011900Y-89776550D01*
X145853150Y-89617800D01*
X145038900Y-89614728D01*
X144914418Y-89626988D01*
X144794720Y-89663298D01*
X144684406Y-89722263D01*
X144587715Y-89801615D01*
X144508363Y-89898306D01*
X144449398Y-90008620D01*
X144413088Y-90128318D01*
X144400828Y-90252800D01*
X144223110Y-90252800D01*
X144223110Y-90102452D01*
X144228900Y-90043667D01*
X144228900Y-90043661D01*
X144233200Y-90000001D01*
X144228900Y-89956341D01*
X144228900Y-89901336D01*
X144316085Y-89829785D01*
X144395437Y-89733094D01*
X144454402Y-89622780D01*
X144490712Y-89503082D01*
X144502972Y-89378600D01*
X144502972Y-88878600D01*
X144490712Y-88754118D01*
X144470929Y-88688901D01*
X144508004Y-88566678D01*
X144516335Y-88539214D01*
X144520134Y-88500638D01*
X144529199Y-88408606D01*
X144529199Y-88408599D01*
X144533499Y-88364939D01*
X144529199Y-88321279D01*
X144529199Y-88169752D01*
X144678406Y-88269449D01*
X144854062Y-88342208D01*
X145040536Y-88379300D01*
X145230664Y-88379300D01*
X145417138Y-88342208D01*
X145592794Y-88269449D01*
X145750879Y-88163820D01*
X145885320Y-88029379D01*
X145948913Y-87934205D01*
X146031332Y-87909204D01*
X146185772Y-87826654D01*
X146321140Y-87715560D01*
X146348980Y-87681637D01*
X147303696Y-86726922D01*
X147299128Y-86773300D01*
X147302200Y-86925050D01*
X147460950Y-87083800D01*
X148285200Y-87083800D01*
X148285200Y-86297050D01*
X148126450Y-86138300D01*
X147937200Y-86135228D01*
X147890822Y-86139796D01*
X147894973Y-86135645D01*
X147936939Y-86122915D01*
X148091379Y-86040365D01*
X148202619Y-85949072D01*
X148275450Y-85949072D01*
X148314847Y-85945192D01*
X148319818Y-85961580D01*
X148378783Y-86071894D01*
X148458135Y-86168585D01*
X148554826Y-86247937D01*
X148576648Y-86259602D01*
X148539200Y-86297050D01*
X148539200Y-87083800D01*
X148559200Y-87083800D01*
X148559200Y-87337800D01*
X148539200Y-87337800D01*
X148539200Y-87357800D01*
X148285200Y-87357800D01*
X148285200Y-87337800D01*
X147460950Y-87337800D01*
X147302200Y-87496550D01*
X147299128Y-87648300D01*
X147311388Y-87772782D01*
X147347698Y-87892480D01*
X147406663Y-88002794D01*
X147461300Y-88069370D01*
X147443529Y-88091025D01*
X147364350Y-88239158D01*
X147315592Y-88399892D01*
X147299128Y-88567050D01*
X147299128Y-89004550D01*
X147315592Y-89171708D01*
X147364350Y-89332442D01*
X147443529Y-89480575D01*
X147550085Y-89610415D01*
X147679925Y-89716971D01*
X147828058Y-89796150D01*
X147988792Y-89844908D01*
X148155950Y-89861372D01*
X148463252Y-89861372D01*
X148437272Y-89947015D01*
X148420328Y-90119050D01*
X148420328Y-90606550D01*
X148437272Y-90778585D01*
X148487453Y-90944009D01*
X148568942Y-91096464D01*
X148672692Y-91222883D01*
X148544149Y-91222883D01*
X148543394Y-91222263D01*
X148433080Y-91163298D01*
X148313382Y-91126988D01*
X148188900Y-91114728D01*
X147874557Y-91114728D01*
X147873900Y-91063550D01*
X147715150Y-90904800D01*
X146265900Y-90904800D01*
X146265900Y-91779050D01*
X146424650Y-91937800D01*
X146500828Y-91938087D01*
X146500828Y-92567513D01*
X146424650Y-92567800D01*
X146265900Y-92726550D01*
X146265900Y-93600800D01*
X147715150Y-93600800D01*
X147873900Y-93442050D01*
X147874557Y-93390872D01*
X148188900Y-93390872D01*
X148313382Y-93378612D01*
X148433080Y-93342302D01*
X148543394Y-93283337D01*
X148557553Y-93271717D01*
X148918799Y-93271717D01*
X148964691Y-93296247D01*
X149130115Y-93346428D01*
X149302150Y-93363372D01*
X150214650Y-93363372D01*
X150386685Y-93346428D01*
X150552109Y-93296247D01*
X150598001Y-93271717D01*
X151873319Y-93271717D01*
X151877918Y-93273112D01*
X152002400Y-93285372D01*
X153802400Y-93285372D01*
X153926882Y-93273112D01*
X154046580Y-93236802D01*
X154077453Y-93220300D01*
X154278650Y-93220300D01*
X154437400Y-93061550D01*
X154440472Y-92947300D01*
X154428212Y-92822818D01*
X154420471Y-92797300D01*
X154428212Y-92771782D01*
X154440472Y-92647300D01*
X154440472Y-91847300D01*
X154428212Y-91722818D01*
X154420471Y-91697300D01*
X154428212Y-91671782D01*
X154440472Y-91547300D01*
X154437400Y-91433050D01*
X154278650Y-91274300D01*
X154077453Y-91274300D01*
X154046580Y-91257798D01*
X153926882Y-91221488D01*
X153802400Y-91209228D01*
X152002400Y-91209228D01*
X151877918Y-91221488D01*
X151873319Y-91222883D01*
X150844108Y-91222883D01*
X150947858Y-91096464D01*
X151029347Y-90944009D01*
X151079528Y-90778585D01*
X151081352Y-90760061D01*
X151100425Y-90761940D01*
X151135351Y-90758500D01*
X151364629Y-90758500D01*
X151367400Y-90861550D01*
X151526150Y-91020300D01*
X151727347Y-91020300D01*
X151758220Y-91036802D01*
X151877918Y-91073112D01*
X152002400Y-91085372D01*
X153802400Y-91085372D01*
X153926882Y-91073112D01*
X154046580Y-91036802D01*
X154077453Y-91020300D01*
X154278650Y-91020300D01*
X154437400Y-90861550D01*
X154440472Y-90747300D01*
X154428212Y-90622818D01*
X154420471Y-90597300D01*
X154428212Y-90571782D01*
X154440472Y-90447300D01*
X154440472Y-89647300D01*
X154428212Y-89522818D01*
X154420471Y-89497300D01*
X154428212Y-89471782D01*
X154440472Y-89347300D01*
X154440472Y-88547300D01*
X154428212Y-88422818D01*
X154391902Y-88303120D01*
X154332937Y-88192806D01*
X154253585Y-88096115D01*
X154156894Y-88016763D01*
X154046580Y-87957798D01*
X153926882Y-87921488D01*
X153847800Y-87913699D01*
X153847800Y-87903236D01*
X153810708Y-87716762D01*
X153737949Y-87541106D01*
X153632320Y-87383021D01*
X153497879Y-87248580D01*
X153339794Y-87142951D01*
X153164138Y-87070192D01*
X152977664Y-87033100D01*
X152787536Y-87033100D01*
X152601062Y-87070192D01*
X152425406Y-87142951D01*
X152267321Y-87248580D01*
X152132880Y-87383021D01*
X152027251Y-87541106D01*
X151954492Y-87716762D01*
X151917400Y-87903236D01*
X151917400Y-87917599D01*
X151877918Y-87921488D01*
X151758220Y-87957798D01*
X151647906Y-88016763D01*
X151551215Y-88096115D01*
X151471863Y-88192806D01*
X151412898Y-88303120D01*
X151376588Y-88422818D01*
X151364328Y-88547300D01*
X151364328Y-89305414D01*
X151220810Y-89161897D01*
X151220810Y-87996935D01*
X151224250Y-87962009D01*
X151220810Y-87927083D01*
X151220810Y-87927074D01*
X151210519Y-87822590D01*
X151169852Y-87688529D01*
X151103812Y-87564977D01*
X151014937Y-87456683D01*
X150987800Y-87434412D01*
X150871472Y-87318084D01*
X150871472Y-86992050D01*
X150855008Y-86824892D01*
X150806250Y-86664158D01*
X150727071Y-86516025D01*
X150620515Y-86386185D01*
X150566728Y-86342043D01*
X150703070Y-86355472D01*
X150935136Y-86355472D01*
X151124705Y-86545041D01*
X151152541Y-86578959D01*
X151186458Y-86606794D01*
X151186459Y-86606795D01*
X151190887Y-86610429D01*
X151287909Y-86690053D01*
X151442349Y-86772603D01*
X151499041Y-86789800D01*
X151565020Y-86809815D01*
X151647906Y-86877837D01*
X151758220Y-86936802D01*
X151877918Y-86973112D01*
X152002400Y-86985372D01*
X153802400Y-86985372D01*
X153926882Y-86973112D01*
X154046580Y-86936802D01*
X154156894Y-86877837D01*
X154253585Y-86798485D01*
X154332937Y-86701794D01*
X154391902Y-86591480D01*
X154428212Y-86471782D01*
X154440472Y-86347300D01*
X154440472Y-85547300D01*
X154428212Y-85422818D01*
X154420471Y-85397300D01*
X154428212Y-85371782D01*
X154440472Y-85247300D01*
X154440472Y-84447300D01*
X154428212Y-84322818D01*
X154420471Y-84297300D01*
X154428212Y-84271782D01*
X154440472Y-84147300D01*
X154440472Y-83347300D01*
X154428212Y-83222818D01*
X154420471Y-83197300D01*
X154428212Y-83171782D01*
X154440472Y-83047300D01*
X154440472Y-82247300D01*
X154428212Y-82122818D01*
X154420471Y-82097300D01*
X154428212Y-82071782D01*
X154440472Y-81947300D01*
X154440472Y-81147300D01*
X154428212Y-81022818D01*
X154420471Y-80997300D01*
X154428212Y-80971782D01*
X154440472Y-80847300D01*
X154440472Y-80047300D01*
X154428212Y-79922818D01*
X154420471Y-79897300D01*
X154428212Y-79871782D01*
X154440472Y-79747300D01*
X154440472Y-79018431D01*
X163366241Y-79018431D01*
X163367400Y-79061550D01*
G36*
X134670800Y-92049700D02*
G01*
X134690800Y-92049700D01*
X134690800Y-92303700D01*
X134670800Y-92303700D01*
X134670800Y-93090450D01*
X134829550Y-93249200D01*
X135018800Y-93252272D01*
X135143282Y-93240012D01*
X135262980Y-93203702D01*
X135355505Y-93154245D01*
X135369358Y-93161650D01*
X135530092Y-93210408D01*
X135697250Y-93226872D01*
X136209750Y-93226872D01*
X136376908Y-93210408D01*
X136466727Y-93183162D01*
X136496306Y-93207437D01*
X136606620Y-93266402D01*
X136726318Y-93302712D01*
X136850800Y-93314972D01*
X137910800Y-93314972D01*
X138035282Y-93302712D01*
X138154980Y-93266402D01*
X138265294Y-93207437D01*
X138361985Y-93128085D01*
X138441337Y-93031394D01*
X138480800Y-92957565D01*
X138520263Y-93031394D01*
X138599615Y-93128085D01*
X138696306Y-93207437D01*
X138806620Y-93266402D01*
X138926318Y-93302712D01*
X139050800Y-93314972D01*
X140110800Y-93314972D01*
X140235282Y-93302712D01*
X140354980Y-93266402D01*
X140404533Y-93239915D01*
X140446718Y-93252712D01*
X140571200Y-93264972D01*
X140760450Y-93261900D01*
X140919200Y-93103150D01*
X140919200Y-92316400D01*
X141173200Y-92316400D01*
X141173200Y-93103150D01*
X141331950Y-93261900D01*
X141521200Y-93264972D01*
X141645682Y-93252712D01*
X141725650Y-93228454D01*
X141805618Y-93252712D01*
X141930100Y-93264972D01*
X142119350Y-93261900D01*
X142278100Y-93103150D01*
X142278100Y-92316400D01*
X141173200Y-92316400D01*
X140919200Y-92316400D01*
X140899200Y-92316400D01*
X140899200Y-92062400D01*
X140919200Y-92062400D01*
X140919200Y-92042400D01*
X141173200Y-92042400D01*
X141173200Y-92062400D01*
X142278100Y-92062400D01*
X142278100Y-92042400D01*
X142445111Y-92042400D01*
X142445110Y-93319600D01*
X138686133Y-93319600D01*
X138676711Y-93320528D01*
X138204800Y-93320528D01*
X138080318Y-93332788D01*
X137960620Y-93369098D01*
X137850306Y-93428063D01*
X137753615Y-93507415D01*
X137674263Y-93604106D01*
X137615298Y-93714420D01*
X137591800Y-93791883D01*
X137568302Y-93714420D01*
X137509337Y-93604106D01*
X137429985Y-93507415D01*
X137333294Y-93428063D01*
X137222980Y-93369098D01*
X137103282Y-93332788D01*
X136978800Y-93320528D01*
X136506882Y-93320528D01*
X136453800Y-93315300D01*
X136400718Y-93320528D01*
X135928800Y-93320528D01*
X135804318Y-93332788D01*
X135684620Y-93369098D01*
X135574306Y-93428063D01*
X135477615Y-93507415D01*
X135398263Y-93604106D01*
X135339298Y-93714420D01*
X135302988Y-93834118D01*
X135290728Y-93958600D01*
X135290728Y-94458600D01*
X135302988Y-94583082D01*
X135308159Y-94600128D01*
X134138300Y-94600128D01*
X134013818Y-94612388D01*
X133894120Y-94648698D01*
X133783806Y-94707663D01*
X133713300Y-94765526D01*
X133713300Y-94568524D01*
X133615882Y-94078768D01*
X133424788Y-93617427D01*
X133327617Y-93472000D01*
X134239000Y-93472000D01*
X134263776Y-93469560D01*
X134287601Y-93462333D01*
X134309557Y-93450597D01*
X134328803Y-93434803D01*
X134344597Y-93415557D01*
X134356333Y-93393601D01*
X134363560Y-93369776D01*
X134366000Y-93345000D01*
X134366000Y-93141250D01*
X134416800Y-93090450D01*
X134416800Y-92303700D01*
X134396800Y-92303700D01*
X134396800Y-92049700D01*
X134416800Y-92049700D01*
X134416800Y-92029700D01*
X134670800Y-92029700D01*
X134670800Y-92049700D01*
X134670800Y-92049700D01*
G37*
X134670800Y-92049700D02*
X134690800Y-92049700D01*
X134690800Y-92303700D01*
X134670800Y-92303700D01*
X134670800Y-93090450D01*
X134829550Y-93249200D01*
X135018800Y-93252272D01*
X135143282Y-93240012D01*
X135262980Y-93203702D01*
X135355505Y-93154245D01*
X135369358Y-93161650D01*
X135530092Y-93210408D01*
X135697250Y-93226872D01*
X136209750Y-93226872D01*
X136376908Y-93210408D01*
X136466727Y-93183162D01*
X136496306Y-93207437D01*
X136606620Y-93266402D01*
X136726318Y-93302712D01*
X136850800Y-93314972D01*
X137910800Y-93314972D01*
X138035282Y-93302712D01*
X138154980Y-93266402D01*
X138265294Y-93207437D01*
X138361985Y-93128085D01*
X138441337Y-93031394D01*
X138480800Y-92957565D01*
X138520263Y-93031394D01*
X138599615Y-93128085D01*
X138696306Y-93207437D01*
X138806620Y-93266402D01*
X138926318Y-93302712D01*
X139050800Y-93314972D01*
X140110800Y-93314972D01*
X140235282Y-93302712D01*
X140354980Y-93266402D01*
X140404533Y-93239915D01*
X140446718Y-93252712D01*
X140571200Y-93264972D01*
X140760450Y-93261900D01*
X140919200Y-93103150D01*
X140919200Y-92316400D01*
X141173200Y-92316400D01*
X141173200Y-93103150D01*
X141331950Y-93261900D01*
X141521200Y-93264972D01*
X141645682Y-93252712D01*
X141725650Y-93228454D01*
X141805618Y-93252712D01*
X141930100Y-93264972D01*
X142119350Y-93261900D01*
X142278100Y-93103150D01*
X142278100Y-92316400D01*
X141173200Y-92316400D01*
X140919200Y-92316400D01*
X140899200Y-92316400D01*
X140899200Y-92062400D01*
X140919200Y-92062400D01*
X140919200Y-92042400D01*
X141173200Y-92042400D01*
X141173200Y-92062400D01*
X142278100Y-92062400D01*
X142278100Y-92042400D01*
X142445111Y-92042400D01*
X142445110Y-93319600D01*
X138686133Y-93319600D01*
X138676711Y-93320528D01*
X138204800Y-93320528D01*
X138080318Y-93332788D01*
X137960620Y-93369098D01*
X137850306Y-93428063D01*
X137753615Y-93507415D01*
X137674263Y-93604106D01*
X137615298Y-93714420D01*
X137591800Y-93791883D01*
X137568302Y-93714420D01*
X137509337Y-93604106D01*
X137429985Y-93507415D01*
X137333294Y-93428063D01*
X137222980Y-93369098D01*
X137103282Y-93332788D01*
X136978800Y-93320528D01*
X136506882Y-93320528D01*
X136453800Y-93315300D01*
X136400718Y-93320528D01*
X135928800Y-93320528D01*
X135804318Y-93332788D01*
X135684620Y-93369098D01*
X135574306Y-93428063D01*
X135477615Y-93507415D01*
X135398263Y-93604106D01*
X135339298Y-93714420D01*
X135302988Y-93834118D01*
X135290728Y-93958600D01*
X135290728Y-94458600D01*
X135302988Y-94583082D01*
X135308159Y-94600128D01*
X134138300Y-94600128D01*
X134013818Y-94612388D01*
X133894120Y-94648698D01*
X133783806Y-94707663D01*
X133713300Y-94765526D01*
X133713300Y-94568524D01*
X133615882Y-94078768D01*
X133424788Y-93617427D01*
X133327617Y-93472000D01*
X134239000Y-93472000D01*
X134263776Y-93469560D01*
X134287601Y-93462333D01*
X134309557Y-93450597D01*
X134328803Y-93434803D01*
X134344597Y-93415557D01*
X134356333Y-93393601D01*
X134363560Y-93369776D01*
X134366000Y-93345000D01*
X134366000Y-93141250D01*
X134416800Y-93090450D01*
X134416800Y-92303700D01*
X134396800Y-92303700D01*
X134396800Y-92049700D01*
X134416800Y-92049700D01*
X134416800Y-92029700D01*
X134670800Y-92029700D01*
X134670800Y-92049700D01*
G36*
X138599615Y-91228085D02*
G01*
X138696306Y-91307437D01*
X138806620Y-91366402D01*
X138923641Y-91401900D01*
X138806620Y-91437398D01*
X138696306Y-91496363D01*
X138599615Y-91575715D01*
X138524903Y-91666753D01*
X138387050Y-91528900D01*
X138304941Y-91528900D01*
X138265294Y-91496363D01*
X138154980Y-91437398D01*
X138037959Y-91401900D01*
X138154980Y-91366402D01*
X138265294Y-91307437D01*
X138304941Y-91274900D01*
X138387050Y-91274900D01*
X138524903Y-91137047D01*
X138599615Y-91228085D01*
X138599615Y-91228085D01*
G37*
X138599615Y-91228085D02*
X138696306Y-91307437D01*
X138806620Y-91366402D01*
X138923641Y-91401900D01*
X138806620Y-91437398D01*
X138696306Y-91496363D01*
X138599615Y-91575715D01*
X138524903Y-91666753D01*
X138387050Y-91528900D01*
X138304941Y-91528900D01*
X138265294Y-91496363D01*
X138154980Y-91437398D01*
X138037959Y-91401900D01*
X138154980Y-91366402D01*
X138265294Y-91307437D01*
X138304941Y-91274900D01*
X138387050Y-91274900D01*
X138524903Y-91137047D01*
X138599615Y-91228085D01*
G36*
X178778300Y-89753440D02*
G01*
X177725100Y-89753440D01*
X177674768Y-89738172D01*
X177507610Y-89721708D01*
X176995110Y-89721708D01*
X176827952Y-89738172D01*
X176777620Y-89753440D01*
X173675852Y-89753440D01*
X173611560Y-89747108D01*
X173422310Y-89750180D01*
X173419050Y-89753440D01*
X173096550Y-89753440D01*
X173096550Y-89133291D01*
X173099990Y-89098363D01*
X173096550Y-89063434D01*
X173096550Y-89063427D01*
X173086259Y-88958943D01*
X173064557Y-88887400D01*
X173045592Y-88824881D01*
X172979552Y-88701330D01*
X172912948Y-88620172D01*
X172912938Y-88620162D01*
X172890676Y-88593036D01*
X172863551Y-88570775D01*
X170563467Y-86270693D01*
X170595028Y-86194498D01*
X170632120Y-86008024D01*
X170632120Y-85817896D01*
X170595028Y-85631422D01*
X170522269Y-85455766D01*
X170416640Y-85297681D01*
X170282199Y-85163240D01*
X170124114Y-85057611D01*
X169948458Y-84984852D01*
X169780020Y-84951348D01*
X170352016Y-84379352D01*
X170678050Y-84379352D01*
X170845208Y-84362888D01*
X171005942Y-84314130D01*
X171154075Y-84234951D01*
X171246800Y-84158854D01*
X171339525Y-84234951D01*
X171487658Y-84314130D01*
X171648392Y-84362888D01*
X171815550Y-84379352D01*
X172253050Y-84379352D01*
X172420208Y-84362888D01*
X172580942Y-84314130D01*
X172729075Y-84234951D01*
X172858915Y-84128395D01*
X172965471Y-83998555D01*
X172976736Y-83977480D01*
X173421674Y-83977480D01*
X173456600Y-83980920D01*
X173491526Y-83977480D01*
X173491536Y-83977480D01*
X173596020Y-83967189D01*
X173730081Y-83926522D01*
X173853633Y-83860482D01*
X173961927Y-83771607D01*
X173984201Y-83744466D01*
X174050907Y-83677760D01*
X174105384Y-83677760D01*
X174291858Y-83640668D01*
X174467514Y-83567909D01*
X174625599Y-83462280D01*
X174760040Y-83327839D01*
X174865669Y-83169754D01*
X174938428Y-82994098D01*
X174975520Y-82807624D01*
X174975520Y-82617496D01*
X174954010Y-82509360D01*
X177104040Y-82509360D01*
X177128816Y-82506920D01*
X177152641Y-82499693D01*
X177174597Y-82487957D01*
X177193843Y-82472163D01*
X177209637Y-82452917D01*
X177221373Y-82430961D01*
X177228600Y-82407136D01*
X177231040Y-82382360D01*
X177231040Y-78968600D01*
X177228600Y-78943824D01*
X177221373Y-78919999D01*
X177209713Y-78898186D01*
X177448134Y-78850761D01*
X177791182Y-78708666D01*
X178099918Y-78502375D01*
X178362475Y-78239818D01*
X178568766Y-77931082D01*
X178710861Y-77588034D01*
X178778301Y-77248988D01*
X178778300Y-89753440D01*
X178778300Y-89753440D01*
G37*
X178778300Y-89753440D02*
X177725100Y-89753440D01*
X177674768Y-89738172D01*
X177507610Y-89721708D01*
X176995110Y-89721708D01*
X176827952Y-89738172D01*
X176777620Y-89753440D01*
X173675852Y-89753440D01*
X173611560Y-89747108D01*
X173422310Y-89750180D01*
X173419050Y-89753440D01*
X173096550Y-89753440D01*
X173096550Y-89133291D01*
X173099990Y-89098363D01*
X173096550Y-89063434D01*
X173096550Y-89063427D01*
X173086259Y-88958943D01*
X173064557Y-88887400D01*
X173045592Y-88824881D01*
X172979552Y-88701330D01*
X172912948Y-88620172D01*
X172912938Y-88620162D01*
X172890676Y-88593036D01*
X172863551Y-88570775D01*
X170563467Y-86270693D01*
X170595028Y-86194498D01*
X170632120Y-86008024D01*
X170632120Y-85817896D01*
X170595028Y-85631422D01*
X170522269Y-85455766D01*
X170416640Y-85297681D01*
X170282199Y-85163240D01*
X170124114Y-85057611D01*
X169948458Y-84984852D01*
X169780020Y-84951348D01*
X170352016Y-84379352D01*
X170678050Y-84379352D01*
X170845208Y-84362888D01*
X171005942Y-84314130D01*
X171154075Y-84234951D01*
X171246800Y-84158854D01*
X171339525Y-84234951D01*
X171487658Y-84314130D01*
X171648392Y-84362888D01*
X171815550Y-84379352D01*
X172253050Y-84379352D01*
X172420208Y-84362888D01*
X172580942Y-84314130D01*
X172729075Y-84234951D01*
X172858915Y-84128395D01*
X172965471Y-83998555D01*
X172976736Y-83977480D01*
X173421674Y-83977480D01*
X173456600Y-83980920D01*
X173491526Y-83977480D01*
X173491536Y-83977480D01*
X173596020Y-83967189D01*
X173730081Y-83926522D01*
X173853633Y-83860482D01*
X173961927Y-83771607D01*
X173984201Y-83744466D01*
X174050907Y-83677760D01*
X174105384Y-83677760D01*
X174291858Y-83640668D01*
X174467514Y-83567909D01*
X174625599Y-83462280D01*
X174760040Y-83327839D01*
X174865669Y-83169754D01*
X174938428Y-82994098D01*
X174975520Y-82807624D01*
X174975520Y-82617496D01*
X174954010Y-82509360D01*
X177104040Y-82509360D01*
X177128816Y-82506920D01*
X177152641Y-82499693D01*
X177174597Y-82487957D01*
X177193843Y-82472163D01*
X177209637Y-82452917D01*
X177221373Y-82430961D01*
X177228600Y-82407136D01*
X177231040Y-82382360D01*
X177231040Y-78968600D01*
X177228600Y-78943824D01*
X177221373Y-78919999D01*
X177209713Y-78898186D01*
X177448134Y-78850761D01*
X177791182Y-78708666D01*
X178099918Y-78502375D01*
X178362475Y-78239818D01*
X178568766Y-77931082D01*
X178710861Y-77588034D01*
X178778301Y-77248988D01*
X178778300Y-89753440D01*
G36*
X170895082Y-89663278D02*
G01*
X170895082Y-89753440D01*
X170605945Y-89753440D01*
X170617432Y-89636810D01*
X170617432Y-89385628D01*
X170895082Y-89663278D01*
X170895082Y-89663278D01*
G37*
X170895082Y-89663278D02*
X170895082Y-89753440D01*
X170605945Y-89753440D01*
X170617432Y-89636810D01*
X170617432Y-89385628D01*
X170895082Y-89663278D01*
G36*
X136240807Y-87523995D02*
G01*
X136263073Y-87551127D01*
X136290204Y-87573393D01*
X136290208Y-87573397D01*
X136346139Y-87619298D01*
X136371367Y-87640002D01*
X136494919Y-87706042D01*
X136628980Y-87746709D01*
X136733464Y-87757000D01*
X136733473Y-87757000D01*
X136734946Y-87757145D01*
X136773321Y-87795520D01*
X136931406Y-87901149D01*
X137107062Y-87973908D01*
X137293536Y-88011000D01*
X137299701Y-88011000D01*
X137299701Y-88789648D01*
X136851377Y-89237973D01*
X136821331Y-89262631D01*
X136722934Y-89382529D01*
X136649818Y-89519318D01*
X136648156Y-89524798D01*
X136606620Y-89537398D01*
X136545423Y-89570109D01*
X136537642Y-89565950D01*
X136376908Y-89517192D01*
X136209750Y-89500728D01*
X135697250Y-89500728D01*
X135530092Y-89517192D01*
X135369358Y-89565950D01*
X135224890Y-89643170D01*
X135127942Y-89591350D01*
X134967208Y-89542592D01*
X134800050Y-89526128D01*
X134366000Y-89526128D01*
X134366000Y-88966263D01*
X134461753Y-88915082D01*
X134570047Y-88826207D01*
X134592322Y-88799065D01*
X136054100Y-87337288D01*
X136240807Y-87523995D01*
X136240807Y-87523995D01*
G37*
X136240807Y-87523995D02*
X136263073Y-87551127D01*
X136290204Y-87573393D01*
X136290208Y-87573397D01*
X136346139Y-87619298D01*
X136371367Y-87640002D01*
X136494919Y-87706042D01*
X136628980Y-87746709D01*
X136733464Y-87757000D01*
X136733473Y-87757000D01*
X136734946Y-87757145D01*
X136773321Y-87795520D01*
X136931406Y-87901149D01*
X137107062Y-87973908D01*
X137293536Y-88011000D01*
X137299701Y-88011000D01*
X137299701Y-88789648D01*
X136851377Y-89237973D01*
X136821331Y-89262631D01*
X136722934Y-89382529D01*
X136649818Y-89519318D01*
X136648156Y-89524798D01*
X136606620Y-89537398D01*
X136545423Y-89570109D01*
X136537642Y-89565950D01*
X136376908Y-89517192D01*
X136209750Y-89500728D01*
X135697250Y-89500728D01*
X135530092Y-89517192D01*
X135369358Y-89565950D01*
X135224890Y-89643170D01*
X135127942Y-89591350D01*
X134967208Y-89542592D01*
X134800050Y-89526128D01*
X134366000Y-89526128D01*
X134366000Y-88966263D01*
X134461753Y-88915082D01*
X134570047Y-88826207D01*
X134592322Y-88799065D01*
X136054100Y-87337288D01*
X136240807Y-87523995D01*
G36*
X140534156Y-87621408D02*
G01*
X140466159Y-87689406D01*
X140432242Y-87717241D01*
X140404407Y-87751158D01*
X140404405Y-87751160D01*
X140321148Y-87852609D01*
X140238598Y-88007048D01*
X140187764Y-88174626D01*
X140180304Y-88250374D01*
X140174900Y-88305233D01*
X140174900Y-88305240D01*
X140170600Y-88348900D01*
X140171556Y-88358609D01*
X140087715Y-88427415D01*
X140008363Y-88524106D01*
X139949398Y-88634420D01*
X139913088Y-88754118D01*
X139900828Y-88878600D01*
X139900828Y-89378600D01*
X139911684Y-89488828D01*
X139050800Y-89488828D01*
X138926318Y-89501088D01*
X138806620Y-89537398D01*
X138723063Y-89582061D01*
X138744966Y-89555372D01*
X138818082Y-89418583D01*
X138863106Y-89270157D01*
X138874500Y-89154473D01*
X138874500Y-89154464D01*
X138878308Y-89115801D01*
X138874500Y-89077138D01*
X138874500Y-88022400D01*
X139054438Y-87986608D01*
X139230094Y-87913849D01*
X139388179Y-87808220D01*
X139409130Y-87787269D01*
X139468450Y-87793112D01*
X139905950Y-87793112D01*
X140073108Y-87776648D01*
X140233842Y-87727890D01*
X140381975Y-87648711D01*
X140474700Y-87572614D01*
X140534156Y-87621408D01*
X140534156Y-87621408D01*
G37*
X140534156Y-87621408D02*
X140466159Y-87689406D01*
X140432242Y-87717241D01*
X140404407Y-87751158D01*
X140404405Y-87751160D01*
X140321148Y-87852609D01*
X140238598Y-88007048D01*
X140187764Y-88174626D01*
X140180304Y-88250374D01*
X140174900Y-88305233D01*
X140174900Y-88305240D01*
X140170600Y-88348900D01*
X140171556Y-88358609D01*
X140087715Y-88427415D01*
X140008363Y-88524106D01*
X139949398Y-88634420D01*
X139913088Y-88754118D01*
X139900828Y-88878600D01*
X139900828Y-89378600D01*
X139911684Y-89488828D01*
X139050800Y-89488828D01*
X138926318Y-89501088D01*
X138806620Y-89537398D01*
X138723063Y-89582061D01*
X138744966Y-89555372D01*
X138818082Y-89418583D01*
X138863106Y-89270157D01*
X138874500Y-89154473D01*
X138874500Y-89154464D01*
X138878308Y-89115801D01*
X138874500Y-89077138D01*
X138874500Y-88022400D01*
X139054438Y-87986608D01*
X139230094Y-87913849D01*
X139388179Y-87808220D01*
X139409130Y-87787269D01*
X139468450Y-87793112D01*
X139905950Y-87793112D01*
X140073108Y-87776648D01*
X140233842Y-87727890D01*
X140381975Y-87648711D01*
X140474700Y-87572614D01*
X140534156Y-87621408D01*
G36*
X168858951Y-87627146D02*
G01*
X169574293Y-88342488D01*
X169434576Y-88342488D01*
X169013315Y-87921227D01*
X168982851Y-87864234D01*
X168974968Y-87854629D01*
X168916246Y-87783075D01*
X168916237Y-87783066D01*
X168893975Y-87755940D01*
X168866849Y-87733678D01*
X168690572Y-87557401D01*
X168858951Y-87627146D01*
X168858951Y-87627146D01*
G37*
X168858951Y-87627146D02*
X169574293Y-88342488D01*
X169434576Y-88342488D01*
X169013315Y-87921227D01*
X168982851Y-87864234D01*
X168974968Y-87854629D01*
X168916246Y-87783075D01*
X168916237Y-87783066D01*
X168893975Y-87755940D01*
X168866849Y-87733678D01*
X168690572Y-87557401D01*
X168858951Y-87627146D01*
G36*
X168393960Y-86085081D02*
G01*
X168300694Y-86224664D01*
X168203874Y-86159971D01*
X168028218Y-86087212D01*
X167841744Y-86050120D01*
X167651616Y-86050120D01*
X167465142Y-86087212D01*
X167289486Y-86159971D01*
X167131401Y-86265600D01*
X167069585Y-86327416D01*
X167003544Y-86314280D01*
X166813416Y-86314280D01*
X166626942Y-86351372D01*
X166506716Y-86401171D01*
X166877948Y-86029940D01*
X168371914Y-86029940D01*
X168406840Y-86033380D01*
X168441766Y-86029940D01*
X168441776Y-86029940D01*
X168449901Y-86029140D01*
X168393960Y-86085081D01*
X168393960Y-86085081D01*
G37*
X168393960Y-86085081D02*
X168300694Y-86224664D01*
X168203874Y-86159971D01*
X168028218Y-86087212D01*
X167841744Y-86050120D01*
X167651616Y-86050120D01*
X167465142Y-86087212D01*
X167289486Y-86159971D01*
X167131401Y-86265600D01*
X167069585Y-86327416D01*
X167003544Y-86314280D01*
X166813416Y-86314280D01*
X166626942Y-86351372D01*
X166506716Y-86401171D01*
X166877948Y-86029940D01*
X168371914Y-86029940D01*
X168406840Y-86033380D01*
X168441766Y-86029940D01*
X168441776Y-86029940D01*
X168449901Y-86029140D01*
X168393960Y-86085081D01*
G36*
X149493820Y-85369400D02*
G01*
X149473820Y-85369400D01*
X149473820Y-85389400D01*
X149219820Y-85389400D01*
X149219820Y-85369400D01*
X149199820Y-85369400D01*
X149199820Y-85176990D01*
X149493820Y-85176990D01*
X149493820Y-85369400D01*
X149493820Y-85369400D01*
G37*
X149493820Y-85369400D02*
X149473820Y-85369400D01*
X149473820Y-85389400D01*
X149219820Y-85389400D01*
X149219820Y-85369400D01*
X149199820Y-85369400D01*
X149199820Y-85176990D01*
X149493820Y-85176990D01*
X149493820Y-85369400D01*
G36*
X138852425Y-84461565D02*
G01*
X138750882Y-84585296D01*
X138744966Y-84574228D01*
X138646569Y-84454331D01*
X138625643Y-84437157D01*
X138608469Y-84416231D01*
X138548956Y-84367390D01*
X138967179Y-84367390D01*
X138852425Y-84461565D01*
X138852425Y-84461565D01*
G37*
X138852425Y-84461565D02*
X138750882Y-84585296D01*
X138744966Y-84574228D01*
X138646569Y-84454331D01*
X138625643Y-84437157D01*
X138608469Y-84416231D01*
X138548956Y-84367390D01*
X138967179Y-84367390D01*
X138852425Y-84461565D01*
G36*
X142751200Y-84554408D02*
G01*
X142671794Y-84501351D01*
X142496138Y-84428592D01*
X142309664Y-84391500D01*
X142119536Y-84391500D01*
X142016302Y-84412035D01*
X141961901Y-84367390D01*
X142751200Y-84367390D01*
X142751200Y-84554408D01*
X142751200Y-84554408D01*
G37*
X142751200Y-84554408D02*
X142671794Y-84501351D01*
X142496138Y-84428592D01*
X142309664Y-84391500D01*
X142119536Y-84391500D01*
X142016302Y-84412035D01*
X141961901Y-84367390D01*
X142751200Y-84367390D01*
X142751200Y-84554408D01*
G36*
X140464540Y-84431106D02*
G01*
X140386901Y-84367390D01*
X140542179Y-84367390D01*
X140464540Y-84431106D01*
X140464540Y-84431106D01*
G37*
X140464540Y-84431106D02*
X140386901Y-84367390D01*
X140542179Y-84367390D01*
X140464540Y-84431106D01*
G36*
X169034390Y-83157181D02*
G01*
X168055473Y-84136100D01*
X167312219Y-84136100D01*
X167409280Y-84039039D01*
X167480962Y-83931760D01*
X167491224Y-83931760D01*
X167677698Y-83894668D01*
X167853354Y-83821909D01*
X168011439Y-83716280D01*
X168145880Y-83581839D01*
X168227745Y-83459320D01*
X168268464Y-83459320D01*
X168454938Y-83422228D01*
X168630594Y-83349469D01*
X168788679Y-83243840D01*
X168923120Y-83109399D01*
X169028749Y-82951314D01*
X169034390Y-82937695D01*
X169034390Y-83157181D01*
X169034390Y-83157181D01*
G37*
X169034390Y-83157181D02*
X168055473Y-84136100D01*
X167312219Y-84136100D01*
X167409280Y-84039039D01*
X167480962Y-83931760D01*
X167491224Y-83931760D01*
X167677698Y-83894668D01*
X167853354Y-83821909D01*
X168011439Y-83716280D01*
X168145880Y-83581839D01*
X168227745Y-83459320D01*
X168268464Y-83459320D01*
X168454938Y-83422228D01*
X168630594Y-83349469D01*
X168788679Y-83243840D01*
X168923120Y-83109399D01*
X169028749Y-82951314D01*
X169034390Y-82937695D01*
X169034390Y-83157181D01*
G36*
X151109211Y-82912299D02*
G01*
X151003199Y-82912299D01*
X150612423Y-82521524D01*
X150590149Y-82494383D01*
X150481855Y-82405508D01*
X150427959Y-82376700D01*
X150573613Y-82376700D01*
X151109211Y-82912299D01*
X151109211Y-82912299D01*
G37*
X151109211Y-82912299D02*
X151003199Y-82912299D01*
X150612423Y-82521524D01*
X150590149Y-82494383D01*
X150481855Y-82405508D01*
X150427959Y-82376700D01*
X150573613Y-82376700D01*
X151109211Y-82912299D01*
G36*
X134232011Y-79105766D02*
G01*
X134159252Y-79281422D01*
X134122160Y-79467896D01*
X134122160Y-79658024D01*
X134159252Y-79844498D01*
X134232011Y-80020154D01*
X134337640Y-80178239D01*
X134472081Y-80312680D01*
X134630166Y-80418309D01*
X134712983Y-80452613D01*
X134750357Y-80522534D01*
X134839233Y-80630828D01*
X134866369Y-80653098D01*
X136802660Y-82589390D01*
X132247640Y-82589390D01*
X132247640Y-80657635D01*
X133886845Y-79018431D01*
X134290366Y-79018431D01*
X134232011Y-79105766D01*
X134232011Y-79105766D01*
G37*
X134232011Y-79105766D02*
X134159252Y-79281422D01*
X134122160Y-79467896D01*
X134122160Y-79658024D01*
X134159252Y-79844498D01*
X134232011Y-80020154D01*
X134337640Y-80178239D01*
X134472081Y-80312680D01*
X134630166Y-80418309D01*
X134712983Y-80452613D01*
X134750357Y-80522534D01*
X134839233Y-80630828D01*
X134866369Y-80653098D01*
X136802660Y-82589390D01*
X132247640Y-82589390D01*
X132247640Y-80657635D01*
X133886845Y-79018431D01*
X134290366Y-79018431D01*
X134232011Y-79105766D01*
G36*
X139011560Y-81442560D02*
G01*
X139031560Y-81442560D01*
X139031560Y-81696560D01*
X139011560Y-81696560D01*
X139011560Y-81716560D01*
X138757560Y-81716560D01*
X138757560Y-81696560D01*
X138737560Y-81696560D01*
X138737560Y-81442560D01*
X138757560Y-81442560D01*
X138757560Y-81422560D01*
X139011560Y-81422560D01*
X139011560Y-81442560D01*
X139011560Y-81442560D01*
G37*
X139011560Y-81442560D02*
X139031560Y-81442560D01*
X139031560Y-81696560D01*
X139011560Y-81696560D01*
X139011560Y-81716560D01*
X138757560Y-81716560D01*
X138757560Y-81696560D01*
X138737560Y-81696560D01*
X138737560Y-81442560D01*
X138757560Y-81442560D01*
X138757560Y-81422560D01*
X139011560Y-81422560D01*
X139011560Y-81442560D01*
G36*
X170208187Y-80781217D02*
G01*
X170088632Y-80792992D01*
X169927898Y-80841750D01*
X169779765Y-80920929D01*
X169649925Y-81027485D01*
X169543369Y-81157325D01*
X169488181Y-81260573D01*
X169405720Y-81137161D01*
X169309419Y-81040860D01*
X169357639Y-81008640D01*
X169492080Y-80874199D01*
X169597709Y-80716114D01*
X169670468Y-80540458D01*
X169677447Y-80505374D01*
X169813968Y-80491928D01*
X169894477Y-80467506D01*
X170208187Y-80781217D01*
X170208187Y-80781217D01*
G37*
X170208187Y-80781217D02*
X170088632Y-80792992D01*
X169927898Y-80841750D01*
X169779765Y-80920929D01*
X169649925Y-81027485D01*
X169543369Y-81157325D01*
X169488181Y-81260573D01*
X169405720Y-81137161D01*
X169309419Y-81040860D01*
X169357639Y-81008640D01*
X169492080Y-80874199D01*
X169597709Y-80716114D01*
X169670468Y-80540458D01*
X169677447Y-80505374D01*
X169813968Y-80491928D01*
X169894477Y-80467506D01*
X170208187Y-80781217D01*
G36*
X139006480Y-79286100D02*
G01*
X139026480Y-79286100D01*
X139026480Y-79540100D01*
X139006480Y-79540100D01*
X139006480Y-79560100D01*
X138752480Y-79560100D01*
X138752480Y-79540100D01*
X138732480Y-79540100D01*
X138732480Y-79286100D01*
X138752480Y-79286100D01*
X138752480Y-79266100D01*
X139006480Y-79266100D01*
X139006480Y-79286100D01*
X139006480Y-79286100D01*
G37*
X139006480Y-79286100D02*
X139026480Y-79286100D01*
X139026480Y-79540100D01*
X139006480Y-79540100D01*
X139006480Y-79560100D01*
X138752480Y-79560100D01*
X138752480Y-79540100D01*
X138732480Y-79540100D01*
X138732480Y-79286100D01*
X138752480Y-79286100D01*
X138752480Y-79266100D01*
X139006480Y-79266100D01*
X139006480Y-79286100D01*
G36*
X137088281Y-79082480D02*
G01*
X136953840Y-79216921D01*
X136888670Y-79314455D01*
X136879068Y-79266182D01*
X136806309Y-79090526D01*
X136758137Y-79018431D01*
X137184137Y-79018431D01*
X137088281Y-79082480D01*
X137088281Y-79082480D01*
G37*
X137088281Y-79082480D02*
X136953840Y-79216921D01*
X136888670Y-79314455D01*
X136879068Y-79266182D01*
X136806309Y-79090526D01*
X136758137Y-79018431D01*
X137184137Y-79018431D01*
X137088281Y-79082480D01*
G36*
X167706040Y-78739900D02*
G01*
X167726040Y-78739900D01*
X167726040Y-78993900D01*
X167706040Y-78993900D01*
X167706040Y-79013900D01*
X167539030Y-79013900D01*
X167539030Y-78719900D01*
X167706040Y-78719900D01*
X167706040Y-78739900D01*
X167706040Y-78739900D01*
G37*
X167706040Y-78739900D02*
X167726040Y-78739900D01*
X167726040Y-78993900D01*
X167706040Y-78993900D01*
X167706040Y-79013900D01*
X167539030Y-79013900D01*
X167539030Y-78719900D01*
X167706040Y-78719900D01*
X167706040Y-78739900D01*
G36*
X176348466Y-75225639D02*
G01*
X176005418Y-75367734D01*
X175696682Y-75574025D01*
X175434125Y-75836582D01*
X175227834Y-76145318D01*
X175085739Y-76488366D01*
X175013300Y-76852544D01*
X175013300Y-77223856D01*
X175085739Y-77588034D01*
X175227834Y-77931082D01*
X175285191Y-78016923D01*
X175115622Y-78050652D01*
X174939966Y-78123411D01*
X174781881Y-78229040D01*
X174647440Y-78363481D01*
X174541811Y-78521566D01*
X174474479Y-78684120D01*
X172528510Y-78684120D01*
X173566501Y-77646130D01*
X173593626Y-77623869D01*
X173615888Y-77596743D01*
X173615898Y-77596733D01*
X173682502Y-77515575D01*
X173748542Y-77392024D01*
X173789209Y-77257962D01*
X173791794Y-77231713D01*
X173799500Y-77153478D01*
X173799500Y-77153471D01*
X173802940Y-77118542D01*
X173799500Y-77083614D01*
X173799500Y-77071879D01*
X173917314Y-77008906D01*
X174143434Y-76823334D01*
X174329006Y-76597214D01*
X174466899Y-76339234D01*
X174551813Y-76059311D01*
X174580485Y-75768200D01*
X174551813Y-75477089D01*
X174466899Y-75197166D01*
X174446071Y-75158200D01*
X176687507Y-75158200D01*
X176348466Y-75225639D01*
X176348466Y-75225639D01*
G37*
X176348466Y-75225639D02*
X176005418Y-75367734D01*
X175696682Y-75574025D01*
X175434125Y-75836582D01*
X175227834Y-76145318D01*
X175085739Y-76488366D01*
X175013300Y-76852544D01*
X175013300Y-77223856D01*
X175085739Y-77588034D01*
X175227834Y-77931082D01*
X175285191Y-78016923D01*
X175115622Y-78050652D01*
X174939966Y-78123411D01*
X174781881Y-78229040D01*
X174647440Y-78363481D01*
X174541811Y-78521566D01*
X174474479Y-78684120D01*
X172528510Y-78684120D01*
X173566501Y-77646130D01*
X173593626Y-77623869D01*
X173615888Y-77596743D01*
X173615898Y-77596733D01*
X173682502Y-77515575D01*
X173748542Y-77392024D01*
X173789209Y-77257962D01*
X173791794Y-77231713D01*
X173799500Y-77153478D01*
X173799500Y-77153471D01*
X173802940Y-77118542D01*
X173799500Y-77083614D01*
X173799500Y-77071879D01*
X173917314Y-77008906D01*
X174143434Y-76823334D01*
X174329006Y-76597214D01*
X174466899Y-76339234D01*
X174551813Y-76059311D01*
X174580485Y-75768200D01*
X174551813Y-75477089D01*
X174466899Y-75197166D01*
X174446071Y-75158200D01*
X176687507Y-75158200D01*
X176348466Y-75225639D01*
G36*
X132534840Y-90656380D02*
G01*
X132554840Y-90656380D01*
X132554840Y-90910380D01*
X132534840Y-90910380D01*
X132534840Y-91997130D01*
X132693590Y-92155880D01*
X133430728Y-92158843D01*
X133430728Y-92395450D01*
X133447192Y-92562608D01*
X133453378Y-92583000D01*
X132395967Y-92583000D01*
X132379073Y-92571712D01*
X131917732Y-92380618D01*
X131695633Y-92336440D01*
X131695024Y-92157597D01*
X132122090Y-92155880D01*
X132280840Y-91997130D01*
X132280840Y-90910380D01*
X132260840Y-90910380D01*
X132260840Y-90656380D01*
X132280840Y-90656380D01*
X132280840Y-90636380D01*
X132534840Y-90636380D01*
X132534840Y-90656380D01*
X132534840Y-90656380D01*
G37*
X132534840Y-90656380D02*
X132554840Y-90656380D01*
X132554840Y-90910380D01*
X132534840Y-90910380D01*
X132534840Y-91997130D01*
X132693590Y-92155880D01*
X133430728Y-92158843D01*
X133430728Y-92395450D01*
X133447192Y-92562608D01*
X133453378Y-92583000D01*
X132395967Y-92583000D01*
X132379073Y-92571712D01*
X131917732Y-92380618D01*
X131695633Y-92336440D01*
X131695024Y-92157597D01*
X132122090Y-92155880D01*
X132280840Y-91997130D01*
X132280840Y-90910380D01*
X132260840Y-90910380D01*
X132260840Y-90656380D01*
X132280840Y-90656380D01*
X132280840Y-90636380D01*
X132534840Y-90636380D01*
X132534840Y-90656380D01*
G36*
X130234840Y-85283880D02*
G01*
X130254840Y-85283880D01*
X130254840Y-85537880D01*
X130234840Y-85537880D01*
X130234840Y-87353880D01*
X130254840Y-87353880D01*
X130254840Y-87607880D01*
X130234840Y-87607880D01*
X130234840Y-89033880D01*
X130254840Y-89033880D01*
X130254840Y-89287880D01*
X130234840Y-89287880D01*
X130234840Y-91103880D01*
X130254840Y-91103880D01*
X130254840Y-91357880D01*
X130234840Y-91357880D01*
X130234840Y-91377880D01*
X129980840Y-91377880D01*
X129980840Y-91357880D01*
X129960840Y-91357880D01*
X129960840Y-91103880D01*
X129980840Y-91103880D01*
X129980840Y-89287880D01*
X129960840Y-89287880D01*
X129960840Y-89033880D01*
X129980840Y-89033880D01*
X129980840Y-87607880D01*
X129960840Y-87607880D01*
X129960840Y-87353880D01*
X129980840Y-87353880D01*
X129980840Y-85537880D01*
X129960840Y-85537880D01*
X129960840Y-85283880D01*
X129980840Y-85283880D01*
X129980840Y-85263880D01*
X130234840Y-85263880D01*
X130234840Y-85283880D01*
X130234840Y-85283880D01*
G37*
X130234840Y-85283880D02*
X130254840Y-85283880D01*
X130254840Y-85537880D01*
X130234840Y-85537880D01*
X130234840Y-87353880D01*
X130254840Y-87353880D01*
X130254840Y-87607880D01*
X130234840Y-87607880D01*
X130234840Y-89033880D01*
X130254840Y-89033880D01*
X130254840Y-89287880D01*
X130234840Y-89287880D01*
X130234840Y-91103880D01*
X130254840Y-91103880D01*
X130254840Y-91357880D01*
X130234840Y-91357880D01*
X130234840Y-91377880D01*
X129980840Y-91377880D01*
X129980840Y-91357880D01*
X129960840Y-91357880D01*
X129960840Y-91103880D01*
X129980840Y-91103880D01*
X129980840Y-89287880D01*
X129960840Y-89287880D01*
X129960840Y-89033880D01*
X129980840Y-89033880D01*
X129980840Y-87607880D01*
X129960840Y-87607880D01*
X129960840Y-87353880D01*
X129980840Y-87353880D01*
X129980840Y-85537880D01*
X129960840Y-85537880D01*
X129960840Y-85283880D01*
X129980840Y-85283880D01*
X129980840Y-85263880D01*
X130234840Y-85263880D01*
X130234840Y-85283880D01*
G36*
X131699803Y-84367390D02*
G01*
X131699810Y-84367390D01*
X131743470Y-84371690D01*
X131787130Y-84367390D01*
X133396144Y-84367390D01*
X133336631Y-84416231D01*
X133313733Y-84444133D01*
X133285831Y-84467031D01*
X133272271Y-84483554D01*
X132693590Y-84485880D01*
X132534840Y-84644630D01*
X132534840Y-85731380D01*
X132554840Y-85731380D01*
X132554840Y-85985380D01*
X132534840Y-85985380D01*
X132534840Y-86005380D01*
X132280840Y-86005380D01*
X132280840Y-85985380D01*
X132260840Y-85985380D01*
X132260840Y-85731380D01*
X132280840Y-85731380D01*
X132280840Y-84644630D01*
X132122090Y-84485880D01*
X131695024Y-84484163D01*
X131695423Y-84366959D01*
X131699803Y-84367390D01*
X131699803Y-84367390D01*
G37*
X131699803Y-84367390D02*
X131699810Y-84367390D01*
X131743470Y-84371690D01*
X131787130Y-84367390D01*
X133396144Y-84367390D01*
X133336631Y-84416231D01*
X133313733Y-84444133D01*
X133285831Y-84467031D01*
X133272271Y-84483554D01*
X132693590Y-84485880D01*
X132534840Y-84644630D01*
X132534840Y-85731380D01*
X132554840Y-85731380D01*
X132554840Y-85985380D01*
X132534840Y-85985380D01*
X132534840Y-86005380D01*
X132280840Y-86005380D01*
X132280840Y-85985380D01*
X132260840Y-85985380D01*
X132260840Y-85731380D01*
X132280840Y-85731380D01*
X132280840Y-84644630D01*
X132122090Y-84485880D01*
X131695024Y-84484163D01*
X131695423Y-84366959D01*
X131699803Y-84367390D01*
M02*
