G04 #@! TF.GenerationSoftware,KiCad,Pcbnew,(5.1.4)-1*
G04 #@! TF.CreationDate,2020-01-22T19:52:42-05:00*
G04 #@! TF.ProjectId,Feather-NEO-M9N-GPS,46656174-6865-4722-9d4e-454f2d4d394e,rev?*
G04 #@! TF.SameCoordinates,Original*
G04 #@! TF.FileFunction,Legend,Top*
G04 #@! TF.FilePolarity,Positive*
%FSLAX46Y46*%
G04 Gerber Fmt 4.6, Leading zero omitted, Abs format (unit mm)*
G04 Created by KiCad (PCBNEW (5.1.4)-1) date 2020-01-22 19:52:42*
%MOMM*%
%LPD*%
G04 APERTURE LIST*
%ADD10C,0.150000*%
%ADD11C,0.177800*%
%ADD12C,0.141418*%
%ADD13C,0.050000*%
%ADD14C,0.100000*%
%ADD15C,0.200000*%
%ADD16C,0.120000*%
G04 APERTURE END LIST*
D10*
X135459624Y-82118460D02*
X135459624Y-81118460D01*
X135840577Y-81118460D01*
X135935815Y-81166080D01*
X135983434Y-81213699D01*
X136031053Y-81308937D01*
X136031053Y-81451794D01*
X135983434Y-81547032D01*
X135935815Y-81594651D01*
X135840577Y-81642270D01*
X135459624Y-81642270D01*
X136459624Y-82118460D02*
X136459624Y-81118460D01*
X136840577Y-81118460D01*
X136935815Y-81166080D01*
X136983434Y-81213699D01*
X137031053Y-81308937D01*
X137031053Y-81451794D01*
X136983434Y-81547032D01*
X136935815Y-81594651D01*
X136840577Y-81642270D01*
X136459624Y-81642270D01*
X137412005Y-82070841D02*
X137554862Y-82118460D01*
X137792958Y-82118460D01*
X137888196Y-82070841D01*
X137935815Y-82023222D01*
X137983434Y-81927984D01*
X137983434Y-81832746D01*
X137935815Y-81737508D01*
X137888196Y-81689889D01*
X137792958Y-81642270D01*
X137602481Y-81594651D01*
X137507243Y-81547032D01*
X137459624Y-81499413D01*
X137412005Y-81404175D01*
X137412005Y-81308937D01*
X137459624Y-81213699D01*
X137507243Y-81166080D01*
X137602481Y-81118460D01*
X137840577Y-81118460D01*
X137983434Y-81166080D01*
X135313586Y-79868020D02*
X135313586Y-78868020D01*
X135694539Y-78868020D01*
X135789777Y-78915640D01*
X135837396Y-78963259D01*
X135885015Y-79058497D01*
X135885015Y-79201354D01*
X135837396Y-79296592D01*
X135789777Y-79344211D01*
X135694539Y-79391830D01*
X135313586Y-79391830D01*
X136218348Y-78868020D02*
X136456443Y-79868020D01*
X136646920Y-79153735D01*
X136837396Y-79868020D01*
X137075491Y-78868020D01*
X138027872Y-79868020D02*
X137694539Y-79391830D01*
X137456443Y-79868020D02*
X137456443Y-78868020D01*
X137837396Y-78868020D01*
X137932634Y-78915640D01*
X137980253Y-78963259D01*
X138027872Y-79058497D01*
X138027872Y-79201354D01*
X137980253Y-79296592D01*
X137932634Y-79344211D01*
X137837396Y-79391830D01*
X137456443Y-79391830D01*
X129680371Y-79970205D02*
X129680371Y-80577348D01*
X129716085Y-80648777D01*
X129751800Y-80684491D01*
X129823228Y-80720205D01*
X129966085Y-80720205D01*
X130037514Y-80684491D01*
X130073228Y-80648777D01*
X130108942Y-80577348D01*
X130108942Y-79970205D01*
X130430371Y-80684491D02*
X130537514Y-80720205D01*
X130716085Y-80720205D01*
X130787514Y-80684491D01*
X130823228Y-80648777D01*
X130858942Y-80577348D01*
X130858942Y-80505920D01*
X130823228Y-80434491D01*
X130787514Y-80398777D01*
X130716085Y-80363062D01*
X130573228Y-80327348D01*
X130501800Y-80291634D01*
X130466085Y-80255920D01*
X130430371Y-80184491D01*
X130430371Y-80113062D01*
X130466085Y-80041634D01*
X130501800Y-80005920D01*
X130573228Y-79970205D01*
X130751800Y-79970205D01*
X130858942Y-80005920D01*
X131430371Y-80327348D02*
X131537514Y-80363062D01*
X131573228Y-80398777D01*
X131608942Y-80470205D01*
X131608942Y-80577348D01*
X131573228Y-80648777D01*
X131537514Y-80684491D01*
X131466085Y-80720205D01*
X131180371Y-80720205D01*
X131180371Y-79970205D01*
X131430371Y-79970205D01*
X131501800Y-80005920D01*
X131537514Y-80041634D01*
X131573228Y-80113062D01*
X131573228Y-80184491D01*
X131537514Y-80255920D01*
X131501800Y-80291634D01*
X131430371Y-80327348D01*
X131180371Y-80327348D01*
X132430371Y-80220205D02*
X132573228Y-80720205D01*
X132716085Y-80363062D01*
X132858942Y-80720205D01*
X133001800Y-80220205D01*
X133287514Y-80720205D02*
X133287514Y-80220205D01*
X133287514Y-79970205D02*
X133251800Y-80005920D01*
X133287514Y-80041634D01*
X133323228Y-80005920D01*
X133287514Y-79970205D01*
X133287514Y-80041634D01*
X133751800Y-80720205D02*
X133680371Y-80684491D01*
X133644657Y-80613062D01*
X133644657Y-79970205D01*
X134144657Y-80720205D02*
X134073228Y-80684491D01*
X134037514Y-80613062D01*
X134037514Y-79970205D01*
X129073228Y-81995205D02*
X129073228Y-81245205D01*
X129501800Y-81995205D01*
X129501800Y-81245205D01*
X130001800Y-81245205D02*
X130144657Y-81245205D01*
X130216085Y-81280920D01*
X130287514Y-81352348D01*
X130323228Y-81495205D01*
X130323228Y-81745205D01*
X130287514Y-81888062D01*
X130216085Y-81959491D01*
X130144657Y-81995205D01*
X130001800Y-81995205D01*
X129930371Y-81959491D01*
X129858942Y-81888062D01*
X129823228Y-81745205D01*
X129823228Y-81495205D01*
X129858942Y-81352348D01*
X129930371Y-81280920D01*
X130001800Y-81245205D01*
X130537514Y-81245205D02*
X130966085Y-81245205D01*
X130751800Y-81995205D02*
X130751800Y-81245205D01*
X131787514Y-81495205D02*
X131787514Y-82245205D01*
X131787514Y-81530920D02*
X131858942Y-81495205D01*
X132001800Y-81495205D01*
X132073228Y-81530920D01*
X132108942Y-81566634D01*
X132144657Y-81638062D01*
X132144657Y-81852348D01*
X132108942Y-81923777D01*
X132073228Y-81959491D01*
X132001800Y-81995205D01*
X131858942Y-81995205D01*
X131787514Y-81959491D01*
X132573228Y-81995205D02*
X132501800Y-81959491D01*
X132466085Y-81923777D01*
X132430371Y-81852348D01*
X132430371Y-81638062D01*
X132466085Y-81566634D01*
X132501800Y-81530920D01*
X132573228Y-81495205D01*
X132680371Y-81495205D01*
X132751800Y-81530920D01*
X132787514Y-81566634D01*
X132823228Y-81638062D01*
X132823228Y-81852348D01*
X132787514Y-81923777D01*
X132751800Y-81959491D01*
X132680371Y-81995205D01*
X132573228Y-81995205D01*
X133073228Y-81495205D02*
X133216085Y-81995205D01*
X133358942Y-81638062D01*
X133501800Y-81995205D01*
X133644657Y-81495205D01*
X134216085Y-81959491D02*
X134144657Y-81995205D01*
X134001800Y-81995205D01*
X133930371Y-81959491D01*
X133894657Y-81888062D01*
X133894657Y-81602348D01*
X133930371Y-81530920D01*
X134001800Y-81495205D01*
X134144657Y-81495205D01*
X134216085Y-81530920D01*
X134251800Y-81602348D01*
X134251800Y-81673777D01*
X133894657Y-81745205D01*
X134573228Y-81995205D02*
X134573228Y-81495205D01*
X134573228Y-81638062D02*
X134608942Y-81566634D01*
X134644657Y-81530920D01*
X134716085Y-81495205D01*
X134787514Y-81495205D01*
X129680371Y-82877348D02*
X129430371Y-82877348D01*
X129430371Y-83270205D02*
X129430371Y-82520205D01*
X129787514Y-82520205D01*
X130358942Y-83234491D02*
X130287514Y-83270205D01*
X130144657Y-83270205D01*
X130073228Y-83234491D01*
X130037514Y-83163062D01*
X130037514Y-82877348D01*
X130073228Y-82805920D01*
X130144657Y-82770205D01*
X130287514Y-82770205D01*
X130358942Y-82805920D01*
X130394657Y-82877348D01*
X130394657Y-82948777D01*
X130037514Y-83020205D01*
X131037514Y-83270205D02*
X131037514Y-82877348D01*
X131001800Y-82805920D01*
X130930371Y-82770205D01*
X130787514Y-82770205D01*
X130716085Y-82805920D01*
X131037514Y-83234491D02*
X130966085Y-83270205D01*
X130787514Y-83270205D01*
X130716085Y-83234491D01*
X130680371Y-83163062D01*
X130680371Y-83091634D01*
X130716085Y-83020205D01*
X130787514Y-82984491D01*
X130966085Y-82984491D01*
X131037514Y-82948777D01*
X131287514Y-82770205D02*
X131573228Y-82770205D01*
X131394657Y-82520205D02*
X131394657Y-83163062D01*
X131430371Y-83234491D01*
X131501800Y-83270205D01*
X131573228Y-83270205D01*
X131823228Y-83270205D02*
X131823228Y-82520205D01*
X132144657Y-83270205D02*
X132144657Y-82877348D01*
X132108942Y-82805920D01*
X132037514Y-82770205D01*
X131930371Y-82770205D01*
X131858942Y-82805920D01*
X131823228Y-82841634D01*
X132787514Y-83234491D02*
X132716085Y-83270205D01*
X132573228Y-83270205D01*
X132501800Y-83234491D01*
X132466085Y-83163062D01*
X132466085Y-82877348D01*
X132501800Y-82805920D01*
X132573228Y-82770205D01*
X132716085Y-82770205D01*
X132787514Y-82805920D01*
X132823228Y-82877348D01*
X132823228Y-82948777D01*
X132466085Y-83020205D01*
X133144657Y-83270205D02*
X133144657Y-82770205D01*
X133144657Y-82913062D02*
X133180371Y-82841634D01*
X133216085Y-82805920D01*
X133287514Y-82770205D01*
X133358942Y-82770205D01*
X133608942Y-83198777D02*
X133644657Y-83234491D01*
X133608942Y-83270205D01*
X133573228Y-83234491D01*
X133608942Y-83198777D01*
X133608942Y-83270205D01*
X133608942Y-82984491D02*
X133573228Y-82555920D01*
X133608942Y-82520205D01*
X133644657Y-82555920D01*
X133608942Y-82984491D01*
X133608942Y-82520205D01*
X133966085Y-83198777D02*
X134001800Y-83234491D01*
X133966085Y-83270205D01*
X133930371Y-83234491D01*
X133966085Y-83198777D01*
X133966085Y-83270205D01*
X133966085Y-82984491D02*
X133930371Y-82555920D01*
X133966085Y-82520205D01*
X134001800Y-82555920D01*
X133966085Y-82984491D01*
X133966085Y-82520205D01*
X134323228Y-83198777D02*
X134358942Y-83234491D01*
X134323228Y-83270205D01*
X134287514Y-83234491D01*
X134323228Y-83198777D01*
X134323228Y-83270205D01*
X134323228Y-82984491D02*
X134287514Y-82555920D01*
X134323228Y-82520205D01*
X134358942Y-82555920D01*
X134323228Y-82984491D01*
X134323228Y-82520205D01*
D11*
X165252400Y-94597300D02*
X163782400Y-94597300D01*
X165252400Y-92747300D02*
X165252400Y-94597300D01*
X165252400Y-78097300D02*
X165252400Y-79947300D01*
X163782400Y-78097300D02*
X165252400Y-78097300D01*
X152552400Y-78097300D02*
X154022400Y-78097300D01*
X152552400Y-79947300D02*
X152552400Y-78097300D01*
X152552400Y-94597300D02*
X152552400Y-92747300D01*
X154022400Y-94597300D02*
X152552400Y-94597300D01*
D12*
X152273109Y-78347300D02*
G75*
G03X152273109Y-78347300I-70709J0D01*
G01*
D13*
X135215400Y-85529800D02*
G75*
G02X135165400Y-85529800I-25000J0D01*
G01*
X135165400Y-85529800D02*
G75*
G02X135215400Y-85529800I25000J0D01*
G01*
D14*
X135915400Y-86754800D02*
X135965400Y-86754800D01*
X135915400Y-85304800D02*
X135965400Y-85304800D01*
X135865400Y-86754800D02*
X135915400Y-86754800D01*
X135865400Y-85304800D02*
X135915400Y-85304800D01*
D13*
X135165400Y-85529800D02*
X135165400Y-85529800D01*
X135215400Y-85529800D02*
X135215400Y-85529800D01*
D15*
X139391800Y-93558600D02*
X136716800Y-93558600D01*
X139391800Y-94858600D02*
X136716800Y-94858600D01*
X139391800Y-94858600D02*
X139391800Y-93558600D01*
X144001900Y-88478600D02*
X141326900Y-88478600D01*
X144001900Y-89778600D02*
X141326900Y-89778600D01*
X144001900Y-89778600D02*
X144001900Y-88478600D01*
D14*
X146138900Y-94452800D02*
G75*
G03X146138900Y-94552800I0J-50000D01*
G01*
X146138900Y-94552800D02*
G75*
G03X146138900Y-94452800I0J50000D01*
G01*
X146138900Y-94552800D02*
X146138900Y-94552800D01*
X146138900Y-94452800D02*
X146138900Y-94452800D01*
X147438900Y-91502800D02*
X147438900Y-91300800D01*
X147438900Y-93195800D02*
X147438900Y-93502800D01*
X144838900Y-93252800D02*
X144838900Y-91300800D01*
D16*
X141556200Y-91564679D02*
X141556200Y-91239121D01*
X140536200Y-91564679D02*
X140536200Y-91239121D01*
X142915100Y-91564679D02*
X142915100Y-91239121D01*
X141895100Y-91564679D02*
X141895100Y-91239121D01*
X135053800Y-91551979D02*
X135053800Y-91226421D01*
X134033800Y-91551979D02*
X134033800Y-91226421D01*
X139380800Y-89791900D02*
X136930800Y-89791900D01*
X137580800Y-93011900D02*
X139380800Y-93011900D01*
X135443500Y-91201021D02*
X135443500Y-91526579D01*
X136463500Y-91201021D02*
X136463500Y-91526579D01*
X128707840Y-84510880D02*
X128967840Y-84510880D01*
X131247840Y-84510880D02*
X133017840Y-84510880D01*
X133017840Y-84510880D02*
X133017840Y-84890880D01*
X133017840Y-92130880D02*
X131247840Y-92130880D01*
X128967840Y-92130880D02*
X128707840Y-92130880D01*
X133017840Y-92130880D02*
X133017840Y-91750880D01*
X151386000Y-79974659D02*
X151386000Y-79649101D01*
X150366000Y-79974659D02*
X150366000Y-79649101D01*
X142379641Y-82079560D02*
X142705199Y-82079560D01*
X142379641Y-81059560D02*
X142705199Y-81059560D01*
X142361701Y-79940880D02*
X142687259Y-79940880D01*
X142361701Y-78920880D02*
X142687259Y-78920880D01*
X170378339Y-78885320D02*
X170052781Y-78885320D01*
X170378339Y-79905320D02*
X170052781Y-79905320D01*
X170378339Y-77518800D02*
X170052781Y-77518800D01*
X170378339Y-78538800D02*
X170052781Y-78538800D01*
X176741360Y-91422001D02*
X176741360Y-91747559D01*
X177761360Y-91422001D02*
X177761360Y-91747559D01*
X147106421Y-85346000D02*
X147431979Y-85346000D01*
X147106421Y-84326000D02*
X147431979Y-84326000D01*
X149248400Y-87835521D02*
X149248400Y-88161079D01*
X150268400Y-87835521D02*
X150268400Y-88161079D01*
X140627319Y-84813680D02*
X140301761Y-84813680D01*
X140627319Y-85833680D02*
X140301761Y-85833680D01*
X140637479Y-86170040D02*
X140311921Y-86170040D01*
X140637479Y-87190040D02*
X140311921Y-87190040D01*
X168546240Y-90368339D02*
X168546240Y-90042781D01*
X167526240Y-90368339D02*
X167526240Y-90042781D01*
X170014360Y-90368339D02*
X170014360Y-90042781D01*
X168994360Y-90368339D02*
X168994360Y-90042781D01*
X171424819Y-81379600D02*
X171099261Y-81379600D01*
X171424819Y-82399600D02*
X171099261Y-82399600D01*
X171409579Y-82756280D02*
X171084021Y-82756280D01*
X171409579Y-83776280D02*
X171084021Y-83776280D01*
X149971541Y-85752400D02*
X150297099Y-85752400D01*
X149971541Y-84732400D02*
X150297099Y-84732400D01*
X147902200Y-87835521D02*
X147902200Y-88161079D01*
X148922200Y-87835521D02*
X148922200Y-88161079D01*
X172626560Y-91447401D02*
X172626560Y-91772959D01*
X173646560Y-91447401D02*
X173646560Y-91772959D01*
X167069040Y-79491621D02*
X167069040Y-79817179D01*
X168089040Y-79491621D02*
X168089040Y-79817179D01*
X146132780Y-82569560D02*
X144732780Y-82569560D01*
X144032780Y-81869560D02*
X144032780Y-81269560D01*
X144732780Y-80569560D02*
X146132780Y-80569560D01*
X146832780Y-81269560D02*
X146832780Y-81869560D01*
X146832780Y-81869560D02*
G75*
G02X146132780Y-82569560I-700000J0D01*
G01*
X146132780Y-80569560D02*
G75*
G02X146832780Y-81269560I0J-700000D01*
G01*
X144032780Y-81269560D02*
G75*
G02X144732780Y-80569560I700000J0D01*
G01*
X144732780Y-82569560D02*
G75*
G02X144032780Y-81869560I0J700000D01*
G01*
X146107380Y-80413100D02*
X144707380Y-80413100D01*
X144007380Y-79713100D02*
X144007380Y-79113100D01*
X144707380Y-78413100D02*
X146107380Y-78413100D01*
X146807380Y-79113100D02*
X146807380Y-79713100D01*
X146807380Y-79713100D02*
G75*
G02X146107380Y-80413100I-700000J0D01*
G01*
X146107380Y-78413100D02*
G75*
G02X146807380Y-79113100I0J-700000D01*
G01*
X144007380Y-79113100D02*
G75*
G02X144707380Y-78413100I700000J0D01*
G01*
X144707380Y-80413100D02*
G75*
G02X144007380Y-79713100I0J700000D01*
G01*
X138187060Y-82304560D02*
X140472060Y-82304560D01*
X138187060Y-80834560D02*
X138187060Y-82304560D01*
X140472060Y-80834560D02*
X138187060Y-80834560D01*
X138181980Y-80148100D02*
X140466980Y-80148100D01*
X138181980Y-78678100D02*
X138181980Y-80148100D01*
X140466980Y-78678100D02*
X138181980Y-78678100D01*
X174941360Y-94873180D02*
X172391360Y-94873180D01*
X174941360Y-93173180D02*
X172391360Y-93173180D01*
X174941360Y-94873180D02*
X174941360Y-93173180D01*
X178723960Y-86559380D02*
G75*
G03X178723960Y-86559380I-3530000J0D01*
G01*
X150468400Y-91558878D02*
X150468400Y-91041722D01*
X149048400Y-91558878D02*
X149048400Y-91041722D01*
D10*
X161508535Y-76978260D02*
X161508535Y-77787784D01*
X161556154Y-77883022D01*
X161603773Y-77930641D01*
X161699011Y-77978260D01*
X161889487Y-77978260D01*
X161984725Y-77930641D01*
X162032344Y-77883022D01*
X162079963Y-77787784D01*
X162079963Y-76978260D01*
X163079963Y-77978260D02*
X162508535Y-77978260D01*
X162794249Y-77978260D02*
X162794249Y-76978260D01*
X162699011Y-77121118D01*
X162603773Y-77216356D01*
X162508535Y-77263975D01*
X152645859Y-77896980D02*
X152645859Y-76896980D01*
X153217287Y-77896980D01*
X153217287Y-76896980D01*
X153693478Y-77373171D02*
X154026811Y-77373171D01*
X154169668Y-77896980D02*
X153693478Y-77896980D01*
X153693478Y-76896980D01*
X154169668Y-76896980D01*
X154788716Y-76896980D02*
X154979192Y-76896980D01*
X155074430Y-76944600D01*
X155169668Y-77039838D01*
X155217287Y-77230314D01*
X155217287Y-77563647D01*
X155169668Y-77754123D01*
X155074430Y-77849361D01*
X154979192Y-77896980D01*
X154788716Y-77896980D01*
X154693478Y-77849361D01*
X154598240Y-77754123D01*
X154550620Y-77563647D01*
X154550620Y-77230314D01*
X154598240Y-77039838D01*
X154693478Y-76944600D01*
X154788716Y-76896980D01*
X155645859Y-77516028D02*
X156407763Y-77516028D01*
X156883954Y-77896980D02*
X156883954Y-76896980D01*
X157217287Y-77611266D01*
X157550620Y-76896980D01*
X157550620Y-77896980D01*
X158074430Y-77896980D02*
X158264906Y-77896980D01*
X158360144Y-77849361D01*
X158407763Y-77801742D01*
X158503001Y-77658885D01*
X158550620Y-77468409D01*
X158550620Y-77087457D01*
X158503001Y-76992219D01*
X158455382Y-76944600D01*
X158360144Y-76896980D01*
X158169668Y-76896980D01*
X158074430Y-76944600D01*
X158026811Y-76992219D01*
X157979192Y-77087457D01*
X157979192Y-77325552D01*
X158026811Y-77420790D01*
X158074430Y-77468409D01*
X158169668Y-77516028D01*
X158360144Y-77516028D01*
X158455382Y-77468409D01*
X158503001Y-77420790D01*
X158550620Y-77325552D01*
X158979192Y-77896980D02*
X158979192Y-76896980D01*
X159550620Y-77896980D01*
X159550620Y-76896980D01*
X136393180Y-85095910D02*
X135393180Y-85095910D01*
X136297942Y-84048291D02*
X136345561Y-84095910D01*
X136393180Y-84238767D01*
X136393180Y-84334005D01*
X136345561Y-84476862D01*
X136250323Y-84572100D01*
X136155085Y-84619720D01*
X135964609Y-84667339D01*
X135821752Y-84667339D01*
X135631276Y-84619720D01*
X135536038Y-84572100D01*
X135440800Y-84476862D01*
X135393180Y-84334005D01*
X135393180Y-84238767D01*
X135440800Y-84095910D01*
X135488419Y-84048291D01*
X136393180Y-83095910D02*
X136393180Y-83667339D01*
X136393180Y-83381624D02*
X135393180Y-83381624D01*
X135536038Y-83476862D01*
X135631276Y-83572100D01*
X135678895Y-83667339D01*
X133978424Y-94752420D02*
X133978424Y-93752420D01*
X134216520Y-93752420D01*
X134359377Y-93800040D01*
X134454615Y-93895278D01*
X134502234Y-93990516D01*
X134549853Y-94180992D01*
X134549853Y-94323849D01*
X134502234Y-94514325D01*
X134454615Y-94609563D01*
X134359377Y-94704801D01*
X134216520Y-94752420D01*
X133978424Y-94752420D01*
X135454615Y-93752420D02*
X134978424Y-93752420D01*
X134930805Y-94228611D01*
X134978424Y-94180992D01*
X135073662Y-94133373D01*
X135311758Y-94133373D01*
X135406996Y-94180992D01*
X135454615Y-94228611D01*
X135502234Y-94323849D01*
X135502234Y-94561944D01*
X135454615Y-94657182D01*
X135406996Y-94704801D01*
X135311758Y-94752420D01*
X135073662Y-94752420D01*
X134978424Y-94704801D01*
X134930805Y-94657182D01*
X144089380Y-88139495D02*
X143089380Y-88139495D01*
X143089380Y-87901400D01*
X143137000Y-87758542D01*
X143232238Y-87663304D01*
X143327476Y-87615685D01*
X143517952Y-87568066D01*
X143660809Y-87568066D01*
X143851285Y-87615685D01*
X143946523Y-87663304D01*
X144041761Y-87758542D01*
X144089380Y-87901400D01*
X144089380Y-88139495D01*
X143422714Y-86710923D02*
X144089380Y-86710923D01*
X143041761Y-86949019D02*
X143756047Y-87187114D01*
X143756047Y-86568066D01*
X143282420Y-93208622D02*
X144091944Y-93208622D01*
X144187182Y-93161003D01*
X144234801Y-93113384D01*
X144282420Y-93018146D01*
X144282420Y-92827670D01*
X144234801Y-92732432D01*
X144187182Y-92684813D01*
X144091944Y-92637194D01*
X143282420Y-92637194D01*
X144187182Y-92161003D02*
X144234801Y-92113384D01*
X144282420Y-92161003D01*
X144234801Y-92208622D01*
X144187182Y-92161003D01*
X144282420Y-92161003D01*
X143758611Y-91351480D02*
X143758611Y-91684813D01*
X144282420Y-91684813D02*
X143282420Y-91684813D01*
X143282420Y-91208622D01*
X144282420Y-90351480D02*
X144282420Y-90827670D01*
X143282420Y-90827670D01*
X141416042Y-93930766D02*
X141463661Y-93978385D01*
X141511280Y-94121242D01*
X141511280Y-94216480D01*
X141463661Y-94359338D01*
X141368423Y-94454576D01*
X141273185Y-94502195D01*
X141082709Y-94549814D01*
X140939852Y-94549814D01*
X140749376Y-94502195D01*
X140654138Y-94454576D01*
X140558900Y-94359338D01*
X140511280Y-94216480D01*
X140511280Y-94121242D01*
X140558900Y-93978385D01*
X140606519Y-93930766D01*
X140511280Y-93597433D02*
X140511280Y-92930766D01*
X141511280Y-93359338D01*
X142749542Y-93867266D02*
X142797161Y-93914885D01*
X142844780Y-94057742D01*
X142844780Y-94152980D01*
X142797161Y-94295838D01*
X142701923Y-94391076D01*
X142606685Y-94438695D01*
X142416209Y-94486314D01*
X142273352Y-94486314D01*
X142082876Y-94438695D01*
X141987638Y-94391076D01*
X141892400Y-94295838D01*
X141844780Y-94152980D01*
X141844780Y-94057742D01*
X141892400Y-93914885D01*
X141940019Y-93867266D01*
X141844780Y-93010123D02*
X141844780Y-93200600D01*
X141892400Y-93295838D01*
X141940019Y-93343457D01*
X142082876Y-93438695D01*
X142273352Y-93486314D01*
X142654304Y-93486314D01*
X142749542Y-93438695D01*
X142797161Y-93391076D01*
X142844780Y-93295838D01*
X142844780Y-93105361D01*
X142797161Y-93010123D01*
X142749542Y-92962504D01*
X142654304Y-92914885D01*
X142416209Y-92914885D01*
X142320971Y-92962504D01*
X142273352Y-93010123D01*
X142225733Y-93105361D01*
X142225733Y-93295838D01*
X142273352Y-93391076D01*
X142320971Y-93438695D01*
X142416209Y-93486314D01*
X134900942Y-89282566D02*
X134948561Y-89330185D01*
X134996180Y-89473042D01*
X134996180Y-89568280D01*
X134948561Y-89711138D01*
X134853323Y-89806376D01*
X134758085Y-89853995D01*
X134567609Y-89901614D01*
X134424752Y-89901614D01*
X134234276Y-89853995D01*
X134139038Y-89806376D01*
X134043800Y-89711138D01*
X133996180Y-89568280D01*
X133996180Y-89473042D01*
X134043800Y-89330185D01*
X134091419Y-89282566D01*
X133996180Y-88377804D02*
X133996180Y-88853995D01*
X134472371Y-88901614D01*
X134424752Y-88853995D01*
X134377133Y-88758757D01*
X134377133Y-88520661D01*
X134424752Y-88425423D01*
X134472371Y-88377804D01*
X134567609Y-88330185D01*
X134805704Y-88330185D01*
X134900942Y-88377804D01*
X134948561Y-88425423D01*
X134996180Y-88520661D01*
X134996180Y-88758757D01*
X134948561Y-88853995D01*
X134900942Y-88901614D01*
X137495375Y-88555580D02*
X137495375Y-89365104D01*
X137542994Y-89460342D01*
X137590613Y-89507961D01*
X137685851Y-89555580D01*
X137876327Y-89555580D01*
X137971565Y-89507961D01*
X138019184Y-89460342D01*
X138066803Y-89365104D01*
X138066803Y-88555580D01*
X138495375Y-88650819D02*
X138542994Y-88603200D01*
X138638232Y-88555580D01*
X138876327Y-88555580D01*
X138971565Y-88603200D01*
X139019184Y-88650819D01*
X139066803Y-88746057D01*
X139066803Y-88841295D01*
X139019184Y-88984152D01*
X138447756Y-89555580D01*
X139066803Y-89555580D01*
X136431280Y-89288857D02*
X135955090Y-89622190D01*
X136431280Y-89860285D02*
X135431280Y-89860285D01*
X135431280Y-89479333D01*
X135478900Y-89384095D01*
X135526519Y-89336476D01*
X135621757Y-89288857D01*
X135764614Y-89288857D01*
X135859852Y-89336476D01*
X135907471Y-89384095D01*
X135955090Y-89479333D01*
X135955090Y-89860285D01*
X136431280Y-88336476D02*
X136431280Y-88907904D01*
X136431280Y-88622190D02*
X135431280Y-88622190D01*
X135574138Y-88717428D01*
X135669376Y-88812666D01*
X135716995Y-88907904D01*
X135431280Y-87431714D02*
X135431280Y-87907904D01*
X135907471Y-87955523D01*
X135859852Y-87907904D01*
X135812233Y-87812666D01*
X135812233Y-87574571D01*
X135859852Y-87479333D01*
X135907471Y-87431714D01*
X136002709Y-87384095D01*
X136240804Y-87384095D01*
X136336042Y-87431714D01*
X136383661Y-87479333D01*
X136431280Y-87574571D01*
X136431280Y-87812666D01*
X136383661Y-87907904D01*
X136336042Y-87955523D01*
X133600866Y-83818480D02*
X133600866Y-84532766D01*
X133553247Y-84675623D01*
X133458009Y-84770861D01*
X133315152Y-84818480D01*
X133219914Y-84818480D01*
X134505628Y-83818480D02*
X134315152Y-83818480D01*
X134219914Y-83866100D01*
X134172295Y-83913719D01*
X134077057Y-84056576D01*
X134029438Y-84247052D01*
X134029438Y-84628004D01*
X134077057Y-84723242D01*
X134124676Y-84770861D01*
X134219914Y-84818480D01*
X134410390Y-84818480D01*
X134505628Y-84770861D01*
X134553247Y-84723242D01*
X134600866Y-84628004D01*
X134600866Y-84389909D01*
X134553247Y-84294671D01*
X134505628Y-84247052D01*
X134410390Y-84199433D01*
X134219914Y-84199433D01*
X134124676Y-84247052D01*
X134077057Y-84294671D01*
X134029438Y-84389909D01*
X149898380Y-80454737D02*
X149422190Y-80788070D01*
X149898380Y-81026165D02*
X148898380Y-81026165D01*
X148898380Y-80645213D01*
X148946000Y-80549975D01*
X148993619Y-80502356D01*
X149088857Y-80454737D01*
X149231714Y-80454737D01*
X149326952Y-80502356D01*
X149374571Y-80549975D01*
X149422190Y-80645213D01*
X149422190Y-81026165D01*
X149898380Y-79502356D02*
X149898380Y-80073784D01*
X149898380Y-79788070D02*
X148898380Y-79788070D01*
X149041238Y-79883308D01*
X149136476Y-79978546D01*
X149184095Y-80073784D01*
X149231714Y-78645213D02*
X149898380Y-78645213D01*
X148850761Y-78883308D02*
X149565047Y-79121403D01*
X149565047Y-78502356D01*
X141899402Y-83821940D02*
X141566069Y-83345750D01*
X141327974Y-83821940D02*
X141327974Y-82821940D01*
X141708926Y-82821940D01*
X141804164Y-82869560D01*
X141851783Y-82917179D01*
X141899402Y-83012417D01*
X141899402Y-83155274D01*
X141851783Y-83250512D01*
X141804164Y-83298131D01*
X141708926Y-83345750D01*
X141327974Y-83345750D01*
X142851783Y-83821940D02*
X142280355Y-83821940D01*
X142566069Y-83821940D02*
X142566069Y-82821940D01*
X142470831Y-82964798D01*
X142375593Y-83060036D01*
X142280355Y-83107655D01*
X143185117Y-82821940D02*
X143804164Y-82821940D01*
X143470831Y-83202893D01*
X143613688Y-83202893D01*
X143708926Y-83250512D01*
X143756545Y-83298131D01*
X143804164Y-83393369D01*
X143804164Y-83631464D01*
X143756545Y-83726702D01*
X143708926Y-83774321D01*
X143613688Y-83821940D01*
X143327974Y-83821940D01*
X143232736Y-83774321D01*
X143185117Y-83726702D01*
X141881062Y-78244960D02*
X141547729Y-77768770D01*
X141309634Y-78244960D02*
X141309634Y-77244960D01*
X141690586Y-77244960D01*
X141785824Y-77292580D01*
X141833443Y-77340199D01*
X141881062Y-77435437D01*
X141881062Y-77578294D01*
X141833443Y-77673532D01*
X141785824Y-77721151D01*
X141690586Y-77768770D01*
X141309634Y-77768770D01*
X142833443Y-78244960D02*
X142262015Y-78244960D01*
X142547729Y-78244960D02*
X142547729Y-77244960D01*
X142452491Y-77387818D01*
X142357253Y-77483056D01*
X142262015Y-77530675D01*
X143214396Y-77340199D02*
X143262015Y-77292580D01*
X143357253Y-77244960D01*
X143595348Y-77244960D01*
X143690586Y-77292580D01*
X143738205Y-77340199D01*
X143785824Y-77435437D01*
X143785824Y-77530675D01*
X143738205Y-77673532D01*
X143166777Y-78244960D01*
X143785824Y-78244960D01*
X172300662Y-79842620D02*
X171967329Y-79366430D01*
X171729234Y-79842620D02*
X171729234Y-78842620D01*
X172110186Y-78842620D01*
X172205424Y-78890240D01*
X172253043Y-78937859D01*
X172300662Y-79033097D01*
X172300662Y-79175954D01*
X172253043Y-79271192D01*
X172205424Y-79318811D01*
X172110186Y-79366430D01*
X171729234Y-79366430D01*
X173253043Y-79842620D02*
X172681615Y-79842620D01*
X172967329Y-79842620D02*
X172967329Y-78842620D01*
X172872091Y-78985478D01*
X172776853Y-79080716D01*
X172681615Y-79128335D01*
X174205424Y-79842620D02*
X173633996Y-79842620D01*
X173919710Y-79842620D02*
X173919710Y-78842620D01*
X173824472Y-78985478D01*
X173729234Y-79080716D01*
X173633996Y-79128335D01*
X172290502Y-78537060D02*
X171957169Y-78060870D01*
X171719074Y-78537060D02*
X171719074Y-77537060D01*
X172100026Y-77537060D01*
X172195264Y-77584680D01*
X172242883Y-77632299D01*
X172290502Y-77727537D01*
X172290502Y-77870394D01*
X172242883Y-77965632D01*
X172195264Y-78013251D01*
X172100026Y-78060870D01*
X171719074Y-78060870D01*
X173242883Y-78537060D02*
X172671455Y-78537060D01*
X172957169Y-78537060D02*
X172957169Y-77537060D01*
X172861931Y-77679918D01*
X172766693Y-77775156D01*
X172671455Y-77822775D01*
X173861931Y-77537060D02*
X173957169Y-77537060D01*
X174052407Y-77584680D01*
X174100026Y-77632299D01*
X174147645Y-77727537D01*
X174195264Y-77918013D01*
X174195264Y-78156108D01*
X174147645Y-78346584D01*
X174100026Y-78441822D01*
X174052407Y-78489441D01*
X173957169Y-78537060D01*
X173861931Y-78537060D01*
X173766693Y-78489441D01*
X173719074Y-78441822D01*
X173671455Y-78346584D01*
X173623836Y-78156108D01*
X173623836Y-77918013D01*
X173671455Y-77727537D01*
X173719074Y-77632299D01*
X173766693Y-77584680D01*
X173861931Y-77537060D01*
X179024540Y-91700646D02*
X178548350Y-92033980D01*
X179024540Y-92272075D02*
X178024540Y-92272075D01*
X178024540Y-91891122D01*
X178072160Y-91795884D01*
X178119779Y-91748265D01*
X178215017Y-91700646D01*
X178357874Y-91700646D01*
X178453112Y-91748265D01*
X178500731Y-91795884D01*
X178548350Y-91891122D01*
X178548350Y-92272075D01*
X179024540Y-91224456D02*
X179024540Y-91033980D01*
X178976921Y-90938741D01*
X178929302Y-90891122D01*
X178786445Y-90795884D01*
X178595969Y-90748265D01*
X178215017Y-90748265D01*
X178119779Y-90795884D01*
X178072160Y-90843503D01*
X178024540Y-90938741D01*
X178024540Y-91129218D01*
X178072160Y-91224456D01*
X178119779Y-91272075D01*
X178215017Y-91319694D01*
X178453112Y-91319694D01*
X178548350Y-91272075D01*
X178595969Y-91224456D01*
X178643588Y-91129218D01*
X178643588Y-90938741D01*
X178595969Y-90843503D01*
X178548350Y-90795884D01*
X178453112Y-90748265D01*
X147788333Y-84056480D02*
X147455000Y-83580290D01*
X147216904Y-84056480D02*
X147216904Y-83056480D01*
X147597857Y-83056480D01*
X147693095Y-83104100D01*
X147740714Y-83151719D01*
X147788333Y-83246957D01*
X147788333Y-83389814D01*
X147740714Y-83485052D01*
X147693095Y-83532671D01*
X147597857Y-83580290D01*
X147216904Y-83580290D01*
X148359761Y-83485052D02*
X148264523Y-83437433D01*
X148216904Y-83389814D01*
X148169285Y-83294576D01*
X148169285Y-83246957D01*
X148216904Y-83151719D01*
X148264523Y-83104100D01*
X148359761Y-83056480D01*
X148550238Y-83056480D01*
X148645476Y-83104100D01*
X148693095Y-83151719D01*
X148740714Y-83246957D01*
X148740714Y-83294576D01*
X148693095Y-83389814D01*
X148645476Y-83437433D01*
X148550238Y-83485052D01*
X148359761Y-83485052D01*
X148264523Y-83532671D01*
X148216904Y-83580290D01*
X148169285Y-83675528D01*
X148169285Y-83866004D01*
X148216904Y-83961242D01*
X148264523Y-84008861D01*
X148359761Y-84056480D01*
X148550238Y-84056480D01*
X148645476Y-84008861D01*
X148693095Y-83961242D01*
X148740714Y-83866004D01*
X148740714Y-83675528D01*
X148693095Y-83580290D01*
X148645476Y-83532671D01*
X148550238Y-83485052D01*
X151569680Y-88266566D02*
X151093490Y-88599900D01*
X151569680Y-88837995D02*
X150569680Y-88837995D01*
X150569680Y-88457042D01*
X150617300Y-88361804D01*
X150664919Y-88314185D01*
X150760157Y-88266566D01*
X150903014Y-88266566D01*
X150998252Y-88314185D01*
X151045871Y-88361804D01*
X151093490Y-88457042D01*
X151093490Y-88837995D01*
X150569680Y-87933233D02*
X150569680Y-87266566D01*
X151569680Y-87695138D01*
X137996633Y-85783680D02*
X137663300Y-85307490D01*
X137425204Y-85783680D02*
X137425204Y-84783680D01*
X137806157Y-84783680D01*
X137901395Y-84831300D01*
X137949014Y-84878919D01*
X137996633Y-84974157D01*
X137996633Y-85117014D01*
X137949014Y-85212252D01*
X137901395Y-85259871D01*
X137806157Y-85307490D01*
X137425204Y-85307490D01*
X138853776Y-84783680D02*
X138663300Y-84783680D01*
X138568061Y-84831300D01*
X138520442Y-84878919D01*
X138425204Y-85021776D01*
X138377585Y-85212252D01*
X138377585Y-85593204D01*
X138425204Y-85688442D01*
X138472823Y-85736061D01*
X138568061Y-85783680D01*
X138758538Y-85783680D01*
X138853776Y-85736061D01*
X138901395Y-85688442D01*
X138949014Y-85593204D01*
X138949014Y-85355109D01*
X138901395Y-85259871D01*
X138853776Y-85212252D01*
X138758538Y-85164633D01*
X138568061Y-85164633D01*
X138472823Y-85212252D01*
X138425204Y-85259871D01*
X138377585Y-85355109D01*
X138263333Y-87371180D02*
X137930000Y-86894990D01*
X137691904Y-87371180D02*
X137691904Y-86371180D01*
X138072857Y-86371180D01*
X138168095Y-86418800D01*
X138215714Y-86466419D01*
X138263333Y-86561657D01*
X138263333Y-86704514D01*
X138215714Y-86799752D01*
X138168095Y-86847371D01*
X138072857Y-86894990D01*
X137691904Y-86894990D01*
X139168095Y-86371180D02*
X138691904Y-86371180D01*
X138644285Y-86847371D01*
X138691904Y-86799752D01*
X138787142Y-86752133D01*
X139025238Y-86752133D01*
X139120476Y-86799752D01*
X139168095Y-86847371D01*
X139215714Y-86942609D01*
X139215714Y-87180704D01*
X139168095Y-87275942D01*
X139120476Y-87323561D01*
X139025238Y-87371180D01*
X138787142Y-87371180D01*
X138691904Y-87323561D01*
X138644285Y-87275942D01*
X168422580Y-92805546D02*
X167946390Y-93138880D01*
X168422580Y-93376975D02*
X167422580Y-93376975D01*
X167422580Y-92996022D01*
X167470200Y-92900784D01*
X167517819Y-92853165D01*
X167613057Y-92805546D01*
X167755914Y-92805546D01*
X167851152Y-92853165D01*
X167898771Y-92900784D01*
X167946390Y-92996022D01*
X167946390Y-93376975D01*
X167755914Y-91948403D02*
X168422580Y-91948403D01*
X167374961Y-92186499D02*
X168089247Y-92424594D01*
X168089247Y-91805546D01*
X170307260Y-93079866D02*
X169831070Y-93413200D01*
X170307260Y-93651295D02*
X169307260Y-93651295D01*
X169307260Y-93270342D01*
X169354880Y-93175104D01*
X169402499Y-93127485D01*
X169497737Y-93079866D01*
X169640594Y-93079866D01*
X169735832Y-93127485D01*
X169783451Y-93175104D01*
X169831070Y-93270342D01*
X169831070Y-93651295D01*
X169307260Y-92746533D02*
X169307260Y-92127485D01*
X169688213Y-92460819D01*
X169688213Y-92317961D01*
X169735832Y-92222723D01*
X169783451Y-92175104D01*
X169878689Y-92127485D01*
X170116784Y-92127485D01*
X170212022Y-92175104D01*
X170259641Y-92222723D01*
X170307260Y-92317961D01*
X170307260Y-92603676D01*
X170259641Y-92698914D01*
X170212022Y-92746533D01*
X173371213Y-82316580D02*
X173037880Y-81840390D01*
X172799784Y-82316580D02*
X172799784Y-81316580D01*
X173180737Y-81316580D01*
X173275975Y-81364200D01*
X173323594Y-81411819D01*
X173371213Y-81507057D01*
X173371213Y-81649914D01*
X173323594Y-81745152D01*
X173275975Y-81792771D01*
X173180737Y-81840390D01*
X172799784Y-81840390D01*
X173752165Y-81411819D02*
X173799784Y-81364200D01*
X173895022Y-81316580D01*
X174133118Y-81316580D01*
X174228356Y-81364200D01*
X174275975Y-81411819D01*
X174323594Y-81507057D01*
X174323594Y-81602295D01*
X174275975Y-81745152D01*
X173704546Y-82316580D01*
X174323594Y-82316580D01*
X171080133Y-85148660D02*
X170746800Y-84672470D01*
X170508704Y-85148660D02*
X170508704Y-84148660D01*
X170889657Y-84148660D01*
X170984895Y-84196280D01*
X171032514Y-84243899D01*
X171080133Y-84339137D01*
X171080133Y-84481994D01*
X171032514Y-84577232D01*
X170984895Y-84624851D01*
X170889657Y-84672470D01*
X170508704Y-84672470D01*
X172032514Y-85148660D02*
X171461085Y-85148660D01*
X171746800Y-85148660D02*
X171746800Y-84148660D01*
X171651561Y-84291518D01*
X171556323Y-84386756D01*
X171461085Y-84434375D01*
X149967653Y-84169542D02*
X149920034Y-84217161D01*
X149777177Y-84264780D01*
X149681939Y-84264780D01*
X149539081Y-84217161D01*
X149443843Y-84121923D01*
X149396224Y-84026685D01*
X149348605Y-83836209D01*
X149348605Y-83693352D01*
X149396224Y-83502876D01*
X149443843Y-83407638D01*
X149539081Y-83312400D01*
X149681939Y-83264780D01*
X149777177Y-83264780D01*
X149920034Y-83312400D01*
X149967653Y-83360019D01*
X150824796Y-83598114D02*
X150824796Y-84264780D01*
X150586700Y-83217161D02*
X150348605Y-83931447D01*
X150967653Y-83931447D01*
X147537442Y-87898266D02*
X147585061Y-87945885D01*
X147632680Y-88088742D01*
X147632680Y-88183980D01*
X147585061Y-88326838D01*
X147489823Y-88422076D01*
X147394585Y-88469695D01*
X147204109Y-88517314D01*
X147061252Y-88517314D01*
X146870776Y-88469695D01*
X146775538Y-88422076D01*
X146680300Y-88326838D01*
X146632680Y-88183980D01*
X146632680Y-88088742D01*
X146680300Y-87945885D01*
X146727919Y-87898266D01*
X146632680Y-87564933D02*
X146632680Y-86945885D01*
X147013633Y-87279219D01*
X147013633Y-87136361D01*
X147061252Y-87041123D01*
X147108871Y-86993504D01*
X147204109Y-86945885D01*
X147442204Y-86945885D01*
X147537442Y-86993504D01*
X147585061Y-87041123D01*
X147632680Y-87136361D01*
X147632680Y-87422076D01*
X147585061Y-87517314D01*
X147537442Y-87564933D01*
X172223702Y-91751446D02*
X172271321Y-91799065D01*
X172318940Y-91941922D01*
X172318940Y-92037160D01*
X172271321Y-92180018D01*
X172176083Y-92275256D01*
X172080845Y-92322875D01*
X171890369Y-92370494D01*
X171747512Y-92370494D01*
X171557036Y-92322875D01*
X171461798Y-92275256D01*
X171366560Y-92180018D01*
X171318940Y-92037160D01*
X171318940Y-91941922D01*
X171366560Y-91799065D01*
X171414179Y-91751446D01*
X171414179Y-91370494D02*
X171366560Y-91322875D01*
X171318940Y-91227637D01*
X171318940Y-90989541D01*
X171366560Y-90894303D01*
X171414179Y-90846684D01*
X171509417Y-90799065D01*
X171604655Y-90799065D01*
X171747512Y-90846684D01*
X172318940Y-91418113D01*
X172318940Y-90799065D01*
X167992062Y-81898786D02*
X168039681Y-81946405D01*
X168087300Y-82089262D01*
X168087300Y-82184500D01*
X168039681Y-82327358D01*
X167944443Y-82422596D01*
X167849205Y-82470215D01*
X167658729Y-82517834D01*
X167515872Y-82517834D01*
X167325396Y-82470215D01*
X167230158Y-82422596D01*
X167134920Y-82327358D01*
X167087300Y-82184500D01*
X167087300Y-82089262D01*
X167134920Y-81946405D01*
X167182539Y-81898786D01*
X168087300Y-80946405D02*
X168087300Y-81517834D01*
X168087300Y-81232120D02*
X167087300Y-81232120D01*
X167230158Y-81327358D01*
X167325396Y-81422596D01*
X167373015Y-81517834D01*
X138933964Y-83821940D02*
X138933964Y-82821940D01*
X139172060Y-82821940D01*
X139314917Y-82869560D01*
X139410155Y-82964798D01*
X139457774Y-83060036D01*
X139505393Y-83250512D01*
X139505393Y-83393369D01*
X139457774Y-83583845D01*
X139410155Y-83679083D01*
X139314917Y-83774321D01*
X139172060Y-83821940D01*
X138933964Y-83821940D01*
X139838726Y-82821940D02*
X140457774Y-82821940D01*
X140124440Y-83202893D01*
X140267298Y-83202893D01*
X140362536Y-83250512D01*
X140410155Y-83298131D01*
X140457774Y-83393369D01*
X140457774Y-83631464D01*
X140410155Y-83726702D01*
X140362536Y-83774321D01*
X140267298Y-83821940D01*
X139981583Y-83821940D01*
X139886345Y-83774321D01*
X139838726Y-83726702D01*
X138931424Y-78227180D02*
X138931424Y-77227180D01*
X139169520Y-77227180D01*
X139312377Y-77274800D01*
X139407615Y-77370038D01*
X139455234Y-77465276D01*
X139502853Y-77655752D01*
X139502853Y-77798609D01*
X139455234Y-77989085D01*
X139407615Y-78084323D01*
X139312377Y-78179561D01*
X139169520Y-78227180D01*
X138931424Y-78227180D01*
X139883805Y-77322419D02*
X139931424Y-77274800D01*
X140026662Y-77227180D01*
X140264758Y-77227180D01*
X140359996Y-77274800D01*
X140407615Y-77322419D01*
X140455234Y-77417657D01*
X140455234Y-77512895D01*
X140407615Y-77655752D01*
X139836186Y-78227180D01*
X140455234Y-78227180D01*
X170544264Y-94551760D02*
X170544264Y-93551760D01*
X170782360Y-93551760D01*
X170925217Y-93599380D01*
X171020455Y-93694618D01*
X171068074Y-93789856D01*
X171115693Y-93980332D01*
X171115693Y-94123189D01*
X171068074Y-94313665D01*
X171020455Y-94408903D01*
X170925217Y-94504141D01*
X170782360Y-94551760D01*
X170544264Y-94551760D01*
X172068074Y-94551760D02*
X171496645Y-94551760D01*
X171782360Y-94551760D02*
X171782360Y-93551760D01*
X171687121Y-93694618D01*
X171591883Y-93789856D01*
X171496645Y-93837475D01*
X177408531Y-81905694D02*
X177456150Y-81762837D01*
X177503769Y-81715218D01*
X177599007Y-81667599D01*
X177741864Y-81667599D01*
X177837102Y-81715218D01*
X177884721Y-81762837D01*
X177932340Y-81858075D01*
X177932340Y-82239027D01*
X176932340Y-82239027D01*
X176932340Y-81905694D01*
X176979960Y-81810456D01*
X177027579Y-81762837D01*
X177122817Y-81715218D01*
X177218055Y-81715218D01*
X177313293Y-81762837D01*
X177360912Y-81810456D01*
X177408531Y-81905694D01*
X177408531Y-82239027D01*
X176932340Y-81381884D02*
X176932340Y-80810456D01*
X177932340Y-81096170D02*
X176932340Y-81096170D01*
X177932340Y-79953313D02*
X177932340Y-80524741D01*
X177932340Y-80239027D02*
X176932340Y-80239027D01*
X177075198Y-80334265D01*
X177170436Y-80429503D01*
X177218055Y-80524741D01*
X150540980Y-93603106D02*
X150540980Y-94079297D01*
X149540980Y-94079297D01*
X150540980Y-92745963D02*
X150540980Y-93317392D01*
X150540980Y-93031678D02*
X149540980Y-93031678D01*
X149683838Y-93126916D01*
X149779076Y-93222154D01*
X149826695Y-93317392D01*
X174545666Y-75118980D02*
X174545666Y-75833266D01*
X174498047Y-75976123D01*
X174402809Y-76071361D01*
X174259952Y-76118980D01*
X174164714Y-76118980D01*
X175545666Y-76118980D02*
X174974238Y-76118980D01*
X175259952Y-76118980D02*
X175259952Y-75118980D01*
X175164714Y-75261838D01*
X175069476Y-75357076D01*
X174974238Y-75404695D01*
X174525346Y-95698060D02*
X174525346Y-96412346D01*
X174477727Y-96555203D01*
X174382489Y-96650441D01*
X174239632Y-96698060D01*
X174144394Y-96698060D01*
X174953918Y-95793299D02*
X175001537Y-95745680D01*
X175096775Y-95698060D01*
X175334870Y-95698060D01*
X175430108Y-95745680D01*
X175477727Y-95793299D01*
X175525346Y-95888537D01*
X175525346Y-95983775D01*
X175477727Y-96126632D01*
X174906299Y-96698060D01*
X175525346Y-96698060D01*
M02*
