M48
; DRILL file {KiCad (5.1.4)-1} date 1/22/2020 7:52:46 PM
; FORMAT={-:-/ absolute / inch / decimal}
; #@! TF.CreationDate,2020-01-22T19:52:46-05:00
; #@! TF.GenerationSoftware,Kicad,Pcbnew,(5.1.4)-1
; #@! TF.FileFunction,Plated,1,2,PTH
FMAT,2
INCH
T1C0.0130
T2C0.0394
T3C0.0866
%
G90
G05
T1
X5.1224Y-3.4776
X5.2158Y-3.1804
X5.2176Y-3.2418
X5.2852Y-3.0436
X5.2852Y-3.1078
X5.2945Y-3.318
X5.2988Y-3.1748
X5.3Y-3.682
X5.3105Y-3.395
X5.3165Y-3.5035
X5.317Y-3.0196
X5.3184Y-3.1324
X5.3335Y-3.3175
X5.3355Y-3.4735
X5.3516Y-3.019
X5.3524Y-3.1318
X5.355Y-3.672
X5.356Y-3.239
X5.359Y-3.436
X5.3695Y-3.3185
X5.3736Y-3.5128
X5.3815Y-3.4625
X5.4085Y-3.3725
X5.409Y-3.427
X5.4095Y-3.4745
X5.4114Y-3.0436
X5.4114Y-3.1078
X5.415Y-3.3185
X5.4214Y-3.143
X5.4511Y-3.6659
X5.4555Y-3.6
X5.457Y-3.321
X5.4635Y-3.4275
X5.464Y-3.474
X5.4655Y-3.387
X5.4874Y-3.5132
X5.4975Y-3.318
X5.5026Y-3.4646
X5.5332Y-3.4494
X5.5355Y-3.3215
X5.553Y-3.665
X5.576Y-3.3185
X5.598Y-3.434
X5.5984Y-3.0076
X5.5985Y-3.3965
X5.599Y-3.3605
X5.6008Y-3.0448
X5.6236Y-3.3362
X5.6238Y-3.4646
X5.6352Y-2.9868
X5.686Y-3.532
X5.6864Y-3.3368
X5.6864Y-3.4646
X5.6885Y-3.562
X5.6885Y-3.5895
X5.6885Y-3.622
X5.6885Y-3.6545
X5.6885Y-3.687
X5.691Y-3.722
X5.695Y-3.293
X5.7105Y-3.361
X5.711Y-3.395
X5.714Y-3.4415
X5.7168Y-3.4918
X5.7185Y-3.532
X5.7208Y-3.631
X5.722Y-3.726
X5.751Y-3.532
X5.752Y-3.726
X5.7548Y-3.631
X5.7566Y-3.472
X5.781Y-3.531
X5.782Y-3.727
X5.796Y-3.439
X5.796Y-3.469
X5.801Y-3.507
X5.8014Y-3.307
X5.803Y-3.407
X5.8094Y-3.2434
X5.811Y-3.7195
X5.815Y-3.546
X5.822Y-3.583
X5.828Y-3.68
X5.832Y-3.394
X5.842Y-3.709
X5.8476Y-3.2424
X5.851Y-3.583
X5.856Y-3.68
X5.865Y-3.74
X5.867Y-3.394
X5.884Y-3.68
X5.8842Y-3.2438
X5.904Y-3.394
X5.912Y-3.68
X5.933Y-3.403
X5.94Y-3.68
X5.941Y-3.583
X5.9424Y-3.2592
X5.946Y-3.428
X5.9496Y-3.4894
X5.954Y-3.458
X5.9566Y-3.706
X5.965Y-3.735
X5.985Y-3.445
X5.9985Y-3.712
X6.019Y-3.4645
X6.036Y-3.712
X6.0516Y-3.438
X6.079Y-3.455
X6.079Y-3.487
X6.079Y-3.519
X6.079Y-3.551
X6.079Y-3.583
X6.079Y-3.615
X6.079Y-3.647
X6.079Y-3.679
X6.079Y-3.711
X6.1Y-3.125
X6.1Y-3.2
X6.1Y-3.275
X6.1Y-3.35
X6.1Y-3.425
X6.11Y-3.58
X6.11Y-3.65
X6.175Y-3.125
X6.175Y-3.2
X6.175Y-3.275
X6.175Y-3.35
X6.175Y-3.425
X6.175Y-3.5
X6.175Y-3.575
X6.175Y-3.65
X6.175Y-3.725
X6.25Y-3.125
X6.25Y-3.2
X6.25Y-3.275
X6.25Y-3.35
X6.25Y-3.425
X6.25Y-3.5
X6.25Y-3.575
X6.25Y-3.65
X6.25Y-3.725
X6.325Y-3.125
X6.325Y-3.2
X6.325Y-3.275
X6.325Y-3.35
X6.325Y-3.425
X6.325Y-3.5
X6.325Y-3.575
X6.325Y-3.65
X6.325Y-3.725
X6.4Y-3.125
X6.4Y-3.2
X6.4Y-3.275
X6.4Y-3.35
X6.4Y-3.425
X6.4Y-3.5
X6.4Y-3.575
X6.4Y-3.65
X6.4Y-3.725
X6.435Y-3.0395
X6.4594Y-3.443
X6.49Y-3.72
X6.5184Y-3.444
X6.5283Y-3.0767
X6.5458Y-3.4128
X6.5472Y-3.468
X6.5506Y-3.7246
X6.5568Y-3.6542
X6.5614Y-3.2844
X6.5648Y-3.0274
X6.5658Y-3.6052
X6.5666Y-3.2154
X6.57Y-3.4954
X6.5712Y-3.4362
X6.572Y-3.5726
X6.5724Y-3.532
X6.573Y-3.3164
X6.5904Y-3.2664
X6.6042Y-3.4258
X6.621Y-3.2478
X6.6344Y-3.0498
X6.64Y-3.2186
X6.6432Y-3.6152
X6.6434Y-3.1598
X6.6464Y-3.4544
X6.6592Y-3.4134
X6.6616Y-3.7408
X6.669Y-3.0244
X6.6768Y-3.4762
X6.6798Y-3.3824
X6.681Y-3.193
X6.7062Y-3.3182
X6.7092Y-3.6062
X6.7146Y-3.5122
X6.717Y-3.349
X6.717Y-3.5492
X6.724Y-3.393
X6.7318Y-3.58
X6.7426Y-3.1926
X6.7455Y-3.329
X6.752Y-3.68
X6.7576Y-3.7286
X6.7666Y-3.0406
X6.7802Y-3.1668
X6.7876Y-3.333
X6.8018Y-3.0922
X6.8106Y-3.4328
X6.8149Y-3.5347
X6.8164Y-3.2502
X6.8215Y-3.3155
X6.8492Y-3.0426
X6.8508Y-3.2564
X6.8545Y-3.319
X6.8628Y-3.088
X6.8765Y-3.293
X6.9015Y-3.2725
X6.9054Y-3.1094
X6.9138Y-3.521
X6.9192Y-3.4176
X6.939Y-3.265
X6.9644Y-3.1154
X6.9856Y-3.1806
X6.986Y-3.258
X6.9924Y-3.2182
X7.0056Y-3.3158
X7.0284Y-3.1862
X7.029Y-3.43
X7.0302Y-3.0878
X7.0306Y-3.5244
T2
X5.7145Y-2.983
X5.8145Y-2.983
X5.9145Y-2.983
X6.0145Y-2.983
X6.1145Y-2.983
X6.2145Y-2.983
X6.3145Y-2.983
X6.4145Y-2.983
X6.5145Y-2.983
X6.6145Y-2.983
X6.7145Y-2.983
X6.8145Y-2.983
X5.3145Y-3.783
X5.4145Y-3.783
X5.5145Y-3.783
X5.6145Y-3.783
X5.7145Y-3.783
X5.8145Y-3.783
X5.9145Y-3.783
X6.0145Y-3.783
X6.1145Y-3.783
X6.2145Y-3.783
X6.3145Y-3.783
X6.4145Y-3.783
X6.5145Y-3.783
X6.6145Y-3.783
X6.7145Y-3.783
X6.8145Y-3.783
T3
X5.1645Y-3.733
X5.1645Y-3.033
T0
M30
