G04 #@! TF.GenerationSoftware,KiCad,Pcbnew,(5.1.4)-1*
G04 #@! TF.CreationDate,2020-01-22T19:52:42-05:00*
G04 #@! TF.ProjectId,Feather-NEO-M9N-GPS,46656174-6865-4722-9d4e-454f2d4d394e,rev?*
G04 #@! TF.SameCoordinates,Original*
G04 #@! TF.FileFunction,Soldermask,Bot*
G04 #@! TF.FilePolarity,Negative*
%FSLAX46Y46*%
G04 Gerber Fmt 4.6, Leading zero omitted, Abs format (unit mm)*
G04 Created by KiCad (PCBNEW (5.1.4)-1) date 2020-01-22 19:52:42*
%MOMM*%
%LPD*%
G04 APERTURE LIST*
%ADD10C,0.100000*%
G04 APERTURE END LIST*
D10*
G36*
X167421560Y-78513940D02*
G01*
X167421560Y-79910940D01*
X167675560Y-79910940D01*
X167675560Y-78513940D01*
X167421560Y-78513940D01*
G37*
G36*
X173198743Y-95193719D02*
G01*
X173264927Y-95200237D01*
X173434766Y-95251757D01*
X173591291Y-95335422D01*
X173627029Y-95364752D01*
X173728486Y-95448014D01*
X173811748Y-95549471D01*
X173841078Y-95585209D01*
X173924743Y-95741734D01*
X173976263Y-95911573D01*
X173993659Y-96088200D01*
X173976263Y-96264827D01*
X173924743Y-96434666D01*
X173841078Y-96591191D01*
X173811748Y-96626929D01*
X173728486Y-96728386D01*
X173627029Y-96811648D01*
X173591291Y-96840978D01*
X173434766Y-96924643D01*
X173264927Y-96976163D01*
X173198743Y-96982681D01*
X173132560Y-96989200D01*
X173044040Y-96989200D01*
X172977857Y-96982681D01*
X172911673Y-96976163D01*
X172741834Y-96924643D01*
X172585309Y-96840978D01*
X172549571Y-96811648D01*
X172448114Y-96728386D01*
X172364852Y-96626929D01*
X172335522Y-96591191D01*
X172251857Y-96434666D01*
X172200337Y-96264827D01*
X172182941Y-96088200D01*
X172200337Y-95911573D01*
X172251857Y-95741734D01*
X172335522Y-95585209D01*
X172364852Y-95549471D01*
X172448114Y-95448014D01*
X172549571Y-95364752D01*
X172585309Y-95335422D01*
X172741834Y-95251757D01*
X172911673Y-95200237D01*
X172977857Y-95193719D01*
X173044040Y-95187200D01*
X173132560Y-95187200D01*
X173198743Y-95193719D01*
X173198743Y-95193719D01*
G37*
G36*
X152878743Y-95193719D02*
G01*
X152944927Y-95200237D01*
X153114766Y-95251757D01*
X153271291Y-95335422D01*
X153307029Y-95364752D01*
X153408486Y-95448014D01*
X153491748Y-95549471D01*
X153521078Y-95585209D01*
X153604743Y-95741734D01*
X153656263Y-95911573D01*
X153673659Y-96088200D01*
X153656263Y-96264827D01*
X153604743Y-96434666D01*
X153521078Y-96591191D01*
X153491748Y-96626929D01*
X153408486Y-96728386D01*
X153307029Y-96811648D01*
X153271291Y-96840978D01*
X153114766Y-96924643D01*
X152944927Y-96976163D01*
X152878743Y-96982681D01*
X152812560Y-96989200D01*
X152724040Y-96989200D01*
X152657857Y-96982681D01*
X152591673Y-96976163D01*
X152421834Y-96924643D01*
X152265309Y-96840978D01*
X152229571Y-96811648D01*
X152128114Y-96728386D01*
X152044852Y-96626929D01*
X152015522Y-96591191D01*
X151931857Y-96434666D01*
X151880337Y-96264827D01*
X151862941Y-96088200D01*
X151880337Y-95911573D01*
X151931857Y-95741734D01*
X152015522Y-95585209D01*
X152044852Y-95549471D01*
X152128114Y-95448014D01*
X152229571Y-95364752D01*
X152265309Y-95335422D01*
X152421834Y-95251757D01*
X152591673Y-95200237D01*
X152657857Y-95193719D01*
X152724040Y-95187200D01*
X152812560Y-95187200D01*
X152878743Y-95193719D01*
X152878743Y-95193719D01*
G37*
G36*
X135889300Y-96989200D02*
G01*
X134087300Y-96989200D01*
X134087300Y-95187200D01*
X135889300Y-95187200D01*
X135889300Y-96989200D01*
X135889300Y-96989200D01*
G37*
G36*
X137638743Y-95193719D02*
G01*
X137704927Y-95200237D01*
X137874766Y-95251757D01*
X138031291Y-95335422D01*
X138067029Y-95364752D01*
X138168486Y-95448014D01*
X138251748Y-95549471D01*
X138281078Y-95585209D01*
X138364743Y-95741734D01*
X138416263Y-95911573D01*
X138433659Y-96088200D01*
X138416263Y-96264827D01*
X138364743Y-96434666D01*
X138281078Y-96591191D01*
X138251748Y-96626929D01*
X138168486Y-96728386D01*
X138067029Y-96811648D01*
X138031291Y-96840978D01*
X137874766Y-96924643D01*
X137704927Y-96976163D01*
X137638743Y-96982681D01*
X137572560Y-96989200D01*
X137484040Y-96989200D01*
X137417857Y-96982681D01*
X137351673Y-96976163D01*
X137181834Y-96924643D01*
X137025309Y-96840978D01*
X136989571Y-96811648D01*
X136888114Y-96728386D01*
X136804852Y-96626929D01*
X136775522Y-96591191D01*
X136691857Y-96434666D01*
X136640337Y-96264827D01*
X136622941Y-96088200D01*
X136640337Y-95911573D01*
X136691857Y-95741734D01*
X136775522Y-95585209D01*
X136804852Y-95549471D01*
X136888114Y-95448014D01*
X136989571Y-95364752D01*
X137025309Y-95335422D01*
X137181834Y-95251757D01*
X137351673Y-95200237D01*
X137417857Y-95193719D01*
X137484040Y-95187200D01*
X137572560Y-95187200D01*
X137638743Y-95193719D01*
X137638743Y-95193719D01*
G37*
G36*
X140178743Y-95193719D02*
G01*
X140244927Y-95200237D01*
X140414766Y-95251757D01*
X140571291Y-95335422D01*
X140607029Y-95364752D01*
X140708486Y-95448014D01*
X140791748Y-95549471D01*
X140821078Y-95585209D01*
X140904743Y-95741734D01*
X140956263Y-95911573D01*
X140973659Y-96088200D01*
X140956263Y-96264827D01*
X140904743Y-96434666D01*
X140821078Y-96591191D01*
X140791748Y-96626929D01*
X140708486Y-96728386D01*
X140607029Y-96811648D01*
X140571291Y-96840978D01*
X140414766Y-96924643D01*
X140244927Y-96976163D01*
X140178743Y-96982681D01*
X140112560Y-96989200D01*
X140024040Y-96989200D01*
X139957857Y-96982681D01*
X139891673Y-96976163D01*
X139721834Y-96924643D01*
X139565309Y-96840978D01*
X139529571Y-96811648D01*
X139428114Y-96728386D01*
X139344852Y-96626929D01*
X139315522Y-96591191D01*
X139231857Y-96434666D01*
X139180337Y-96264827D01*
X139162941Y-96088200D01*
X139180337Y-95911573D01*
X139231857Y-95741734D01*
X139315522Y-95585209D01*
X139344852Y-95549471D01*
X139428114Y-95448014D01*
X139529571Y-95364752D01*
X139565309Y-95335422D01*
X139721834Y-95251757D01*
X139891673Y-95200237D01*
X139957857Y-95193719D01*
X140024040Y-95187200D01*
X140112560Y-95187200D01*
X140178743Y-95193719D01*
X140178743Y-95193719D01*
G37*
G36*
X142718743Y-95193719D02*
G01*
X142784927Y-95200237D01*
X142954766Y-95251757D01*
X143111291Y-95335422D01*
X143147029Y-95364752D01*
X143248486Y-95448014D01*
X143331748Y-95549471D01*
X143361078Y-95585209D01*
X143444743Y-95741734D01*
X143496263Y-95911573D01*
X143513659Y-96088200D01*
X143496263Y-96264827D01*
X143444743Y-96434666D01*
X143361078Y-96591191D01*
X143331748Y-96626929D01*
X143248486Y-96728386D01*
X143147029Y-96811648D01*
X143111291Y-96840978D01*
X142954766Y-96924643D01*
X142784927Y-96976163D01*
X142718743Y-96982681D01*
X142652560Y-96989200D01*
X142564040Y-96989200D01*
X142497857Y-96982681D01*
X142431673Y-96976163D01*
X142261834Y-96924643D01*
X142105309Y-96840978D01*
X142069571Y-96811648D01*
X141968114Y-96728386D01*
X141884852Y-96626929D01*
X141855522Y-96591191D01*
X141771857Y-96434666D01*
X141720337Y-96264827D01*
X141702941Y-96088200D01*
X141720337Y-95911573D01*
X141771857Y-95741734D01*
X141855522Y-95585209D01*
X141884852Y-95549471D01*
X141968114Y-95448014D01*
X142069571Y-95364752D01*
X142105309Y-95335422D01*
X142261834Y-95251757D01*
X142431673Y-95200237D01*
X142497857Y-95193719D01*
X142564040Y-95187200D01*
X142652560Y-95187200D01*
X142718743Y-95193719D01*
X142718743Y-95193719D01*
G37*
G36*
X145258743Y-95193719D02*
G01*
X145324927Y-95200237D01*
X145494766Y-95251757D01*
X145651291Y-95335422D01*
X145687029Y-95364752D01*
X145788486Y-95448014D01*
X145871748Y-95549471D01*
X145901078Y-95585209D01*
X145984743Y-95741734D01*
X146036263Y-95911573D01*
X146053659Y-96088200D01*
X146036263Y-96264827D01*
X145984743Y-96434666D01*
X145901078Y-96591191D01*
X145871748Y-96626929D01*
X145788486Y-96728386D01*
X145687029Y-96811648D01*
X145651291Y-96840978D01*
X145494766Y-96924643D01*
X145324927Y-96976163D01*
X145258743Y-96982681D01*
X145192560Y-96989200D01*
X145104040Y-96989200D01*
X145037857Y-96982681D01*
X144971673Y-96976163D01*
X144801834Y-96924643D01*
X144645309Y-96840978D01*
X144609571Y-96811648D01*
X144508114Y-96728386D01*
X144424852Y-96626929D01*
X144395522Y-96591191D01*
X144311857Y-96434666D01*
X144260337Y-96264827D01*
X144242941Y-96088200D01*
X144260337Y-95911573D01*
X144311857Y-95741734D01*
X144395522Y-95585209D01*
X144424852Y-95549471D01*
X144508114Y-95448014D01*
X144609571Y-95364752D01*
X144645309Y-95335422D01*
X144801834Y-95251757D01*
X144971673Y-95200237D01*
X145037857Y-95193719D01*
X145104040Y-95187200D01*
X145192560Y-95187200D01*
X145258743Y-95193719D01*
X145258743Y-95193719D01*
G37*
G36*
X147798743Y-95193719D02*
G01*
X147864927Y-95200237D01*
X148034766Y-95251757D01*
X148191291Y-95335422D01*
X148227029Y-95364752D01*
X148328486Y-95448014D01*
X148411748Y-95549471D01*
X148441078Y-95585209D01*
X148524743Y-95741734D01*
X148576263Y-95911573D01*
X148593659Y-96088200D01*
X148576263Y-96264827D01*
X148524743Y-96434666D01*
X148441078Y-96591191D01*
X148411748Y-96626929D01*
X148328486Y-96728386D01*
X148227029Y-96811648D01*
X148191291Y-96840978D01*
X148034766Y-96924643D01*
X147864927Y-96976163D01*
X147798743Y-96982681D01*
X147732560Y-96989200D01*
X147644040Y-96989200D01*
X147577857Y-96982681D01*
X147511673Y-96976163D01*
X147341834Y-96924643D01*
X147185309Y-96840978D01*
X147149571Y-96811648D01*
X147048114Y-96728386D01*
X146964852Y-96626929D01*
X146935522Y-96591191D01*
X146851857Y-96434666D01*
X146800337Y-96264827D01*
X146782941Y-96088200D01*
X146800337Y-95911573D01*
X146851857Y-95741734D01*
X146935522Y-95585209D01*
X146964852Y-95549471D01*
X147048114Y-95448014D01*
X147149571Y-95364752D01*
X147185309Y-95335422D01*
X147341834Y-95251757D01*
X147511673Y-95200237D01*
X147577857Y-95193719D01*
X147644040Y-95187200D01*
X147732560Y-95187200D01*
X147798743Y-95193719D01*
X147798743Y-95193719D01*
G37*
G36*
X150338743Y-95193719D02*
G01*
X150404927Y-95200237D01*
X150574766Y-95251757D01*
X150731291Y-95335422D01*
X150767029Y-95364752D01*
X150868486Y-95448014D01*
X150951748Y-95549471D01*
X150981078Y-95585209D01*
X151064743Y-95741734D01*
X151116263Y-95911573D01*
X151133659Y-96088200D01*
X151116263Y-96264827D01*
X151064743Y-96434666D01*
X150981078Y-96591191D01*
X150951748Y-96626929D01*
X150868486Y-96728386D01*
X150767029Y-96811648D01*
X150731291Y-96840978D01*
X150574766Y-96924643D01*
X150404927Y-96976163D01*
X150338743Y-96982681D01*
X150272560Y-96989200D01*
X150184040Y-96989200D01*
X150117857Y-96982681D01*
X150051673Y-96976163D01*
X149881834Y-96924643D01*
X149725309Y-96840978D01*
X149689571Y-96811648D01*
X149588114Y-96728386D01*
X149504852Y-96626929D01*
X149475522Y-96591191D01*
X149391857Y-96434666D01*
X149340337Y-96264827D01*
X149322941Y-96088200D01*
X149340337Y-95911573D01*
X149391857Y-95741734D01*
X149475522Y-95585209D01*
X149504852Y-95549471D01*
X149588114Y-95448014D01*
X149689571Y-95364752D01*
X149725309Y-95335422D01*
X149881834Y-95251757D01*
X150051673Y-95200237D01*
X150117857Y-95193719D01*
X150184040Y-95187200D01*
X150272560Y-95187200D01*
X150338743Y-95193719D01*
X150338743Y-95193719D01*
G37*
G36*
X157958743Y-95193719D02*
G01*
X158024927Y-95200237D01*
X158194766Y-95251757D01*
X158351291Y-95335422D01*
X158387029Y-95364752D01*
X158488486Y-95448014D01*
X158571748Y-95549471D01*
X158601078Y-95585209D01*
X158684743Y-95741734D01*
X158736263Y-95911573D01*
X158753659Y-96088200D01*
X158736263Y-96264827D01*
X158684743Y-96434666D01*
X158601078Y-96591191D01*
X158571748Y-96626929D01*
X158488486Y-96728386D01*
X158387029Y-96811648D01*
X158351291Y-96840978D01*
X158194766Y-96924643D01*
X158024927Y-96976163D01*
X157958743Y-96982681D01*
X157892560Y-96989200D01*
X157804040Y-96989200D01*
X157737857Y-96982681D01*
X157671673Y-96976163D01*
X157501834Y-96924643D01*
X157345309Y-96840978D01*
X157309571Y-96811648D01*
X157208114Y-96728386D01*
X157124852Y-96626929D01*
X157095522Y-96591191D01*
X157011857Y-96434666D01*
X156960337Y-96264827D01*
X156942941Y-96088200D01*
X156960337Y-95911573D01*
X157011857Y-95741734D01*
X157095522Y-95585209D01*
X157124852Y-95549471D01*
X157208114Y-95448014D01*
X157309571Y-95364752D01*
X157345309Y-95335422D01*
X157501834Y-95251757D01*
X157671673Y-95200237D01*
X157737857Y-95193719D01*
X157804040Y-95187200D01*
X157892560Y-95187200D01*
X157958743Y-95193719D01*
X157958743Y-95193719D01*
G37*
G36*
X160498743Y-95193719D02*
G01*
X160564927Y-95200237D01*
X160734766Y-95251757D01*
X160891291Y-95335422D01*
X160927029Y-95364752D01*
X161028486Y-95448014D01*
X161111748Y-95549471D01*
X161141078Y-95585209D01*
X161224743Y-95741734D01*
X161276263Y-95911573D01*
X161293659Y-96088200D01*
X161276263Y-96264827D01*
X161224743Y-96434666D01*
X161141078Y-96591191D01*
X161111748Y-96626929D01*
X161028486Y-96728386D01*
X160927029Y-96811648D01*
X160891291Y-96840978D01*
X160734766Y-96924643D01*
X160564927Y-96976163D01*
X160498743Y-96982681D01*
X160432560Y-96989200D01*
X160344040Y-96989200D01*
X160277857Y-96982681D01*
X160211673Y-96976163D01*
X160041834Y-96924643D01*
X159885309Y-96840978D01*
X159849571Y-96811648D01*
X159748114Y-96728386D01*
X159664852Y-96626929D01*
X159635522Y-96591191D01*
X159551857Y-96434666D01*
X159500337Y-96264827D01*
X159482941Y-96088200D01*
X159500337Y-95911573D01*
X159551857Y-95741734D01*
X159635522Y-95585209D01*
X159664852Y-95549471D01*
X159748114Y-95448014D01*
X159849571Y-95364752D01*
X159885309Y-95335422D01*
X160041834Y-95251757D01*
X160211673Y-95200237D01*
X160277857Y-95193719D01*
X160344040Y-95187200D01*
X160432560Y-95187200D01*
X160498743Y-95193719D01*
X160498743Y-95193719D01*
G37*
G36*
X163038743Y-95193719D02*
G01*
X163104927Y-95200237D01*
X163274766Y-95251757D01*
X163431291Y-95335422D01*
X163467029Y-95364752D01*
X163568486Y-95448014D01*
X163651748Y-95549471D01*
X163681078Y-95585209D01*
X163764743Y-95741734D01*
X163816263Y-95911573D01*
X163833659Y-96088200D01*
X163816263Y-96264827D01*
X163764743Y-96434666D01*
X163681078Y-96591191D01*
X163651748Y-96626929D01*
X163568486Y-96728386D01*
X163467029Y-96811648D01*
X163431291Y-96840978D01*
X163274766Y-96924643D01*
X163104927Y-96976163D01*
X163038743Y-96982681D01*
X162972560Y-96989200D01*
X162884040Y-96989200D01*
X162817857Y-96982681D01*
X162751673Y-96976163D01*
X162581834Y-96924643D01*
X162425309Y-96840978D01*
X162389571Y-96811648D01*
X162288114Y-96728386D01*
X162204852Y-96626929D01*
X162175522Y-96591191D01*
X162091857Y-96434666D01*
X162040337Y-96264827D01*
X162022941Y-96088200D01*
X162040337Y-95911573D01*
X162091857Y-95741734D01*
X162175522Y-95585209D01*
X162204852Y-95549471D01*
X162288114Y-95448014D01*
X162389571Y-95364752D01*
X162425309Y-95335422D01*
X162581834Y-95251757D01*
X162751673Y-95200237D01*
X162817857Y-95193719D01*
X162884040Y-95187200D01*
X162972560Y-95187200D01*
X163038743Y-95193719D01*
X163038743Y-95193719D01*
G37*
G36*
X165578743Y-95193719D02*
G01*
X165644927Y-95200237D01*
X165814766Y-95251757D01*
X165971291Y-95335422D01*
X166007029Y-95364752D01*
X166108486Y-95448014D01*
X166191748Y-95549471D01*
X166221078Y-95585209D01*
X166304743Y-95741734D01*
X166356263Y-95911573D01*
X166373659Y-96088200D01*
X166356263Y-96264827D01*
X166304743Y-96434666D01*
X166221078Y-96591191D01*
X166191748Y-96626929D01*
X166108486Y-96728386D01*
X166007029Y-96811648D01*
X165971291Y-96840978D01*
X165814766Y-96924643D01*
X165644927Y-96976163D01*
X165578743Y-96982681D01*
X165512560Y-96989200D01*
X165424040Y-96989200D01*
X165357857Y-96982681D01*
X165291673Y-96976163D01*
X165121834Y-96924643D01*
X164965309Y-96840978D01*
X164929571Y-96811648D01*
X164828114Y-96728386D01*
X164744852Y-96626929D01*
X164715522Y-96591191D01*
X164631857Y-96434666D01*
X164580337Y-96264827D01*
X164562941Y-96088200D01*
X164580337Y-95911573D01*
X164631857Y-95741734D01*
X164715522Y-95585209D01*
X164744852Y-95549471D01*
X164828114Y-95448014D01*
X164929571Y-95364752D01*
X164965309Y-95335422D01*
X165121834Y-95251757D01*
X165291673Y-95200237D01*
X165357857Y-95193719D01*
X165424040Y-95187200D01*
X165512560Y-95187200D01*
X165578743Y-95193719D01*
X165578743Y-95193719D01*
G37*
G36*
X168118743Y-95193719D02*
G01*
X168184927Y-95200237D01*
X168354766Y-95251757D01*
X168511291Y-95335422D01*
X168547029Y-95364752D01*
X168648486Y-95448014D01*
X168731748Y-95549471D01*
X168761078Y-95585209D01*
X168844743Y-95741734D01*
X168896263Y-95911573D01*
X168913659Y-96088200D01*
X168896263Y-96264827D01*
X168844743Y-96434666D01*
X168761078Y-96591191D01*
X168731748Y-96626929D01*
X168648486Y-96728386D01*
X168547029Y-96811648D01*
X168511291Y-96840978D01*
X168354766Y-96924643D01*
X168184927Y-96976163D01*
X168118743Y-96982681D01*
X168052560Y-96989200D01*
X167964040Y-96989200D01*
X167897857Y-96982681D01*
X167831673Y-96976163D01*
X167661834Y-96924643D01*
X167505309Y-96840978D01*
X167469571Y-96811648D01*
X167368114Y-96728386D01*
X167284852Y-96626929D01*
X167255522Y-96591191D01*
X167171857Y-96434666D01*
X167120337Y-96264827D01*
X167102941Y-96088200D01*
X167120337Y-95911573D01*
X167171857Y-95741734D01*
X167255522Y-95585209D01*
X167284852Y-95549471D01*
X167368114Y-95448014D01*
X167469571Y-95364752D01*
X167505309Y-95335422D01*
X167661834Y-95251757D01*
X167831673Y-95200237D01*
X167897857Y-95193719D01*
X167964040Y-95187200D01*
X168052560Y-95187200D01*
X168118743Y-95193719D01*
X168118743Y-95193719D01*
G37*
G36*
X170658743Y-95193719D02*
G01*
X170724927Y-95200237D01*
X170894766Y-95251757D01*
X171051291Y-95335422D01*
X171087029Y-95364752D01*
X171188486Y-95448014D01*
X171271748Y-95549471D01*
X171301078Y-95585209D01*
X171384743Y-95741734D01*
X171436263Y-95911573D01*
X171453659Y-96088200D01*
X171436263Y-96264827D01*
X171384743Y-96434666D01*
X171301078Y-96591191D01*
X171271748Y-96626929D01*
X171188486Y-96728386D01*
X171087029Y-96811648D01*
X171051291Y-96840978D01*
X170894766Y-96924643D01*
X170724927Y-96976163D01*
X170658743Y-96982681D01*
X170592560Y-96989200D01*
X170504040Y-96989200D01*
X170437857Y-96982681D01*
X170371673Y-96976163D01*
X170201834Y-96924643D01*
X170045309Y-96840978D01*
X170009571Y-96811648D01*
X169908114Y-96728386D01*
X169824852Y-96626929D01*
X169795522Y-96591191D01*
X169711857Y-96434666D01*
X169660337Y-96264827D01*
X169642941Y-96088200D01*
X169660337Y-95911573D01*
X169711857Y-95741734D01*
X169795522Y-95585209D01*
X169824852Y-95549471D01*
X169908114Y-95448014D01*
X170009571Y-95364752D01*
X170045309Y-95335422D01*
X170201834Y-95251757D01*
X170371673Y-95200237D01*
X170437857Y-95193719D01*
X170504040Y-95187200D01*
X170592560Y-95187200D01*
X170658743Y-95193719D01*
X170658743Y-95193719D01*
G37*
G36*
X155418743Y-95193719D02*
G01*
X155484927Y-95200237D01*
X155654766Y-95251757D01*
X155811291Y-95335422D01*
X155847029Y-95364752D01*
X155948486Y-95448014D01*
X156031748Y-95549471D01*
X156061078Y-95585209D01*
X156144743Y-95741734D01*
X156196263Y-95911573D01*
X156213659Y-96088200D01*
X156196263Y-96264827D01*
X156144743Y-96434666D01*
X156061078Y-96591191D01*
X156031748Y-96626929D01*
X155948486Y-96728386D01*
X155847029Y-96811648D01*
X155811291Y-96840978D01*
X155654766Y-96924643D01*
X155484927Y-96976163D01*
X155418743Y-96982681D01*
X155352560Y-96989200D01*
X155264040Y-96989200D01*
X155197857Y-96982681D01*
X155131673Y-96976163D01*
X154961834Y-96924643D01*
X154805309Y-96840978D01*
X154769571Y-96811648D01*
X154668114Y-96728386D01*
X154584852Y-96626929D01*
X154555522Y-96591191D01*
X154471857Y-96434666D01*
X154420337Y-96264827D01*
X154402941Y-96088200D01*
X154420337Y-95911573D01*
X154471857Y-95741734D01*
X154555522Y-95585209D01*
X154584852Y-95549471D01*
X154668114Y-95448014D01*
X154769571Y-95364752D01*
X154805309Y-95335422D01*
X154961834Y-95251757D01*
X155131673Y-95200237D01*
X155197857Y-95193719D01*
X155264040Y-95187200D01*
X155352560Y-95187200D01*
X155418743Y-95193719D01*
X155418743Y-95193719D01*
G37*
G36*
X131747385Y-92942175D02*
G01*
X132102443Y-93089245D01*
X132102445Y-93089246D01*
X132421990Y-93302759D01*
X132693741Y-93574510D01*
X132754384Y-93665269D01*
X132907255Y-93894057D01*
X133054325Y-94249115D01*
X133129300Y-94626042D01*
X133129300Y-95010358D01*
X133054325Y-95387285D01*
X132972342Y-95585209D01*
X132907254Y-95742345D01*
X132693741Y-96061890D01*
X132421990Y-96333641D01*
X132102445Y-96547154D01*
X132102444Y-96547155D01*
X132102443Y-96547155D01*
X131747385Y-96694225D01*
X131370458Y-96769200D01*
X130986142Y-96769200D01*
X130609215Y-96694225D01*
X130254157Y-96547155D01*
X130254156Y-96547155D01*
X130254155Y-96547154D01*
X129934610Y-96333641D01*
X129662859Y-96061890D01*
X129449346Y-95742345D01*
X129384258Y-95585209D01*
X129302275Y-95387285D01*
X129227300Y-95010358D01*
X129227300Y-94626042D01*
X129302275Y-94249115D01*
X129449345Y-93894057D01*
X129602216Y-93665269D01*
X129662859Y-93574510D01*
X129934610Y-93302759D01*
X130254155Y-93089246D01*
X130254157Y-93089245D01*
X130609215Y-92942175D01*
X130986142Y-92867200D01*
X131370458Y-92867200D01*
X131747385Y-92942175D01*
X131747385Y-92942175D01*
G37*
G36*
X177277787Y-93567196D02*
G01*
X177514553Y-93665268D01*
X177514555Y-93665269D01*
X177727639Y-93807647D01*
X177908853Y-93988861D01*
X177982673Y-94099340D01*
X178051232Y-94201947D01*
X178149304Y-94438713D01*
X178199300Y-94690061D01*
X178199300Y-94946339D01*
X178149304Y-95197687D01*
X178070769Y-95387286D01*
X178051231Y-95434455D01*
X177908853Y-95647539D01*
X177727639Y-95828753D01*
X177514555Y-95971131D01*
X177514554Y-95971132D01*
X177514553Y-95971132D01*
X177277787Y-96069204D01*
X177026439Y-96119200D01*
X176770161Y-96119200D01*
X176518813Y-96069204D01*
X176282047Y-95971132D01*
X176282046Y-95971132D01*
X176282045Y-95971131D01*
X176068961Y-95828753D01*
X175887747Y-95647539D01*
X175745369Y-95434455D01*
X175725831Y-95387286D01*
X175647296Y-95197687D01*
X175597300Y-94946339D01*
X175597300Y-94690061D01*
X175647296Y-94438713D01*
X175745368Y-94201947D01*
X175813928Y-94099340D01*
X175887747Y-93988861D01*
X176068961Y-93807647D01*
X176282045Y-93665269D01*
X176282047Y-93665268D01*
X176518813Y-93567196D01*
X176770161Y-93517200D01*
X177026439Y-93517200D01*
X177277787Y-93567196D01*
X177277787Y-93567196D01*
G37*
G36*
X170317739Y-92099234D02*
G01*
X170329990Y-92099836D01*
X170348409Y-92099836D01*
X170370689Y-92102030D01*
X170454773Y-92118756D01*
X170476200Y-92125256D01*
X170555398Y-92158060D01*
X170560843Y-92160971D01*
X170560849Y-92160973D01*
X170569709Y-92165709D01*
X170569713Y-92165712D01*
X170575154Y-92168620D01*
X170646439Y-92216251D01*
X170663744Y-92230452D01*
X170724368Y-92291076D01*
X170738569Y-92308381D01*
X170786200Y-92379666D01*
X170789108Y-92385107D01*
X170789111Y-92385111D01*
X170793847Y-92393971D01*
X170793849Y-92393977D01*
X170796760Y-92399422D01*
X170829564Y-92478620D01*
X170836064Y-92500047D01*
X170852790Y-92584131D01*
X170854984Y-92606411D01*
X170854984Y-92624830D01*
X170855586Y-92637081D01*
X170857392Y-92655419D01*
X170857392Y-93143140D01*
X170855803Y-93159279D01*
X170852888Y-93168888D01*
X170848150Y-93177752D01*
X170841777Y-93185517D01*
X170829334Y-93195728D01*
X170818965Y-93202658D01*
X170801638Y-93219985D01*
X170788025Y-93240360D01*
X170778649Y-93263000D01*
X170773869Y-93287033D01*
X170773870Y-93311537D01*
X170778652Y-93335570D01*
X170788030Y-93358209D01*
X170801645Y-93378582D01*
X170818972Y-93395909D01*
X170829342Y-93402838D01*
X170841777Y-93413043D01*
X170848150Y-93420808D01*
X170852888Y-93429672D01*
X170855803Y-93439281D01*
X170857392Y-93455420D01*
X170857392Y-93943142D01*
X170855586Y-93961479D01*
X170854984Y-93973730D01*
X170854984Y-93992149D01*
X170852790Y-94014429D01*
X170836064Y-94098513D01*
X170829564Y-94119940D01*
X170796760Y-94199138D01*
X170793849Y-94204583D01*
X170793847Y-94204589D01*
X170789111Y-94213449D01*
X170789108Y-94213453D01*
X170786200Y-94218894D01*
X170738569Y-94290179D01*
X170724368Y-94307484D01*
X170663744Y-94368108D01*
X170646439Y-94382309D01*
X170575154Y-94429940D01*
X170569713Y-94432848D01*
X170569709Y-94432851D01*
X170560849Y-94437587D01*
X170560843Y-94437589D01*
X170555398Y-94440500D01*
X170476200Y-94473304D01*
X170454773Y-94479804D01*
X170370689Y-94496530D01*
X170348409Y-94498724D01*
X170329990Y-94498724D01*
X170317739Y-94499326D01*
X170299402Y-94501132D01*
X169811678Y-94501132D01*
X169793341Y-94499326D01*
X169781090Y-94498724D01*
X169762671Y-94498724D01*
X169740391Y-94496530D01*
X169656307Y-94479804D01*
X169634880Y-94473304D01*
X169555682Y-94440500D01*
X169550237Y-94437589D01*
X169550231Y-94437587D01*
X169541371Y-94432851D01*
X169541367Y-94432848D01*
X169535926Y-94429940D01*
X169464641Y-94382309D01*
X169447336Y-94368108D01*
X169386712Y-94307484D01*
X169372511Y-94290179D01*
X169324880Y-94218894D01*
X169321972Y-94213453D01*
X169321969Y-94213449D01*
X169317233Y-94204589D01*
X169317231Y-94204583D01*
X169314320Y-94199138D01*
X169281516Y-94119940D01*
X169275016Y-94098513D01*
X169258290Y-94014429D01*
X169256096Y-93992149D01*
X169256096Y-93973730D01*
X169255494Y-93961479D01*
X169253688Y-93943142D01*
X169253688Y-93455420D01*
X169255277Y-93439281D01*
X169258192Y-93429672D01*
X169262930Y-93420808D01*
X169269303Y-93413043D01*
X169281746Y-93402832D01*
X169292115Y-93395902D01*
X169309442Y-93378575D01*
X169323055Y-93358200D01*
X169332431Y-93335560D01*
X169337211Y-93311527D01*
X169337210Y-93287023D01*
X169332428Y-93262990D01*
X169323050Y-93240351D01*
X169309435Y-93219978D01*
X169292108Y-93202651D01*
X169281738Y-93195722D01*
X169269303Y-93185517D01*
X169262930Y-93177752D01*
X169258192Y-93168888D01*
X169255277Y-93159279D01*
X169253688Y-93143140D01*
X169253688Y-92655419D01*
X169255494Y-92637081D01*
X169256096Y-92624830D01*
X169256096Y-92606411D01*
X169258290Y-92584131D01*
X169275016Y-92500047D01*
X169281516Y-92478620D01*
X169314320Y-92399422D01*
X169317231Y-92393977D01*
X169317233Y-92393971D01*
X169321969Y-92385111D01*
X169321972Y-92385107D01*
X169324880Y-92379666D01*
X169372511Y-92308381D01*
X169386712Y-92291076D01*
X169447336Y-92230452D01*
X169464641Y-92216251D01*
X169535926Y-92168620D01*
X169541367Y-92165712D01*
X169541371Y-92165709D01*
X169550231Y-92160973D01*
X169550237Y-92160971D01*
X169555682Y-92158060D01*
X169634880Y-92125256D01*
X169656307Y-92118756D01*
X169740391Y-92102030D01*
X169762671Y-92099836D01*
X169781090Y-92099836D01*
X169793341Y-92099234D01*
X169811679Y-92097428D01*
X170299401Y-92097428D01*
X170317739Y-92099234D01*
X170317739Y-92099234D01*
G37*
G36*
X168097779Y-92094154D02*
G01*
X168110030Y-92094756D01*
X168128449Y-92094756D01*
X168150729Y-92096950D01*
X168234813Y-92113676D01*
X168256240Y-92120176D01*
X168335438Y-92152980D01*
X168340883Y-92155891D01*
X168340889Y-92155893D01*
X168349749Y-92160629D01*
X168349753Y-92160632D01*
X168355194Y-92163540D01*
X168426479Y-92211171D01*
X168443784Y-92225372D01*
X168504408Y-92285996D01*
X168518609Y-92303301D01*
X168566240Y-92374586D01*
X168569148Y-92380027D01*
X168569151Y-92380031D01*
X168573887Y-92388891D01*
X168573889Y-92388897D01*
X168576800Y-92394342D01*
X168609604Y-92473540D01*
X168616104Y-92494967D01*
X168632830Y-92579051D01*
X168635024Y-92601331D01*
X168635024Y-92619750D01*
X168635626Y-92632001D01*
X168637432Y-92650339D01*
X168637432Y-93138060D01*
X168635843Y-93154199D01*
X168632928Y-93163808D01*
X168628190Y-93172672D01*
X168621817Y-93180437D01*
X168609374Y-93190648D01*
X168599005Y-93197578D01*
X168581678Y-93214905D01*
X168568065Y-93235280D01*
X168558689Y-93257920D01*
X168553909Y-93281953D01*
X168553910Y-93306457D01*
X168558692Y-93330490D01*
X168568070Y-93353129D01*
X168581685Y-93373502D01*
X168599012Y-93390829D01*
X168609382Y-93397758D01*
X168621817Y-93407963D01*
X168628190Y-93415728D01*
X168632928Y-93424592D01*
X168635843Y-93434201D01*
X168637432Y-93450340D01*
X168637432Y-93938062D01*
X168635626Y-93956399D01*
X168635024Y-93968650D01*
X168635024Y-93987069D01*
X168632830Y-94009349D01*
X168616104Y-94093433D01*
X168609604Y-94114860D01*
X168576800Y-94194058D01*
X168573889Y-94199503D01*
X168573887Y-94199509D01*
X168569151Y-94208369D01*
X168569148Y-94208373D01*
X168566240Y-94213814D01*
X168518609Y-94285099D01*
X168504408Y-94302404D01*
X168443784Y-94363028D01*
X168426479Y-94377229D01*
X168355194Y-94424860D01*
X168349753Y-94427768D01*
X168349749Y-94427771D01*
X168340889Y-94432507D01*
X168340883Y-94432509D01*
X168335438Y-94435420D01*
X168256240Y-94468224D01*
X168234813Y-94474724D01*
X168150729Y-94491450D01*
X168128449Y-94493644D01*
X168110030Y-94493644D01*
X168097779Y-94494246D01*
X168079442Y-94496052D01*
X167591718Y-94496052D01*
X167573381Y-94494246D01*
X167561130Y-94493644D01*
X167542711Y-94493644D01*
X167520431Y-94491450D01*
X167436347Y-94474724D01*
X167414920Y-94468224D01*
X167335722Y-94435420D01*
X167330277Y-94432509D01*
X167330271Y-94432507D01*
X167321411Y-94427771D01*
X167321407Y-94427768D01*
X167315966Y-94424860D01*
X167244681Y-94377229D01*
X167227376Y-94363028D01*
X167166752Y-94302404D01*
X167152551Y-94285099D01*
X167104920Y-94213814D01*
X167102012Y-94208373D01*
X167102009Y-94208369D01*
X167097273Y-94199509D01*
X167097271Y-94199503D01*
X167094360Y-94194058D01*
X167061556Y-94114860D01*
X167055056Y-94093433D01*
X167038330Y-94009349D01*
X167036136Y-93987069D01*
X167036136Y-93968650D01*
X167035534Y-93956399D01*
X167033728Y-93938062D01*
X167033728Y-93450340D01*
X167035317Y-93434201D01*
X167038232Y-93424592D01*
X167042970Y-93415728D01*
X167049343Y-93407963D01*
X167061786Y-93397752D01*
X167072155Y-93390822D01*
X167089482Y-93373495D01*
X167103095Y-93353120D01*
X167112471Y-93330480D01*
X167117251Y-93306447D01*
X167117250Y-93281943D01*
X167112468Y-93257910D01*
X167103090Y-93235271D01*
X167089475Y-93214898D01*
X167072148Y-93197571D01*
X167061778Y-93190642D01*
X167049343Y-93180437D01*
X167042970Y-93172672D01*
X167038232Y-93163808D01*
X167035317Y-93154199D01*
X167033728Y-93138060D01*
X167033728Y-92650339D01*
X167035534Y-92632001D01*
X167036136Y-92619750D01*
X167036136Y-92601331D01*
X167038330Y-92579051D01*
X167055056Y-92494967D01*
X167061556Y-92473540D01*
X167094360Y-92394342D01*
X167097271Y-92388897D01*
X167097273Y-92388891D01*
X167102009Y-92380031D01*
X167102012Y-92380027D01*
X167104920Y-92374586D01*
X167152551Y-92303301D01*
X167166752Y-92285996D01*
X167227376Y-92225372D01*
X167244681Y-92211171D01*
X167315966Y-92163540D01*
X167321407Y-92160632D01*
X167321411Y-92160629D01*
X167330271Y-92155893D01*
X167330277Y-92155891D01*
X167335722Y-92152980D01*
X167414920Y-92120176D01*
X167436347Y-92113676D01*
X167520431Y-92096950D01*
X167542711Y-92094756D01*
X167561130Y-92094756D01*
X167573381Y-92094154D01*
X167591719Y-92092348D01*
X168079441Y-92092348D01*
X168097779Y-92094154D01*
X168097779Y-92094154D01*
G37*
G36*
X176157199Y-79622754D02*
G01*
X176169450Y-79623356D01*
X176187869Y-79623356D01*
X176210149Y-79625550D01*
X176294233Y-79642276D01*
X176315660Y-79648776D01*
X176394858Y-79681580D01*
X176400303Y-79684491D01*
X176400309Y-79684493D01*
X176409169Y-79689229D01*
X176409173Y-79689232D01*
X176414614Y-79692140D01*
X176485899Y-79739771D01*
X176503204Y-79753972D01*
X176563828Y-79814596D01*
X176578029Y-79831901D01*
X176625660Y-79903186D01*
X176628568Y-79908627D01*
X176628571Y-79908631D01*
X176633307Y-79917491D01*
X176633309Y-79917497D01*
X176636220Y-79922942D01*
X176669024Y-80002140D01*
X176675524Y-80023567D01*
X176692250Y-80107651D01*
X176694444Y-80129931D01*
X176694444Y-80148350D01*
X176695046Y-80160601D01*
X176696852Y-80178939D01*
X176696852Y-80666660D01*
X176695263Y-80682799D01*
X176692348Y-80692408D01*
X176687610Y-80701272D01*
X176681237Y-80709037D01*
X176668794Y-80719248D01*
X176658425Y-80726178D01*
X176641098Y-80743505D01*
X176627485Y-80763880D01*
X176618109Y-80786520D01*
X176613329Y-80810553D01*
X176613330Y-80835057D01*
X176618112Y-80859090D01*
X176627490Y-80881729D01*
X176641105Y-80902102D01*
X176658432Y-80919429D01*
X176668802Y-80926358D01*
X176681237Y-80936563D01*
X176687610Y-80944328D01*
X176692348Y-80953192D01*
X176695263Y-80962801D01*
X176696852Y-80978940D01*
X176696852Y-81466662D01*
X176695046Y-81484999D01*
X176694444Y-81497250D01*
X176694444Y-81515669D01*
X176692250Y-81537949D01*
X176675524Y-81622033D01*
X176669024Y-81643460D01*
X176636220Y-81722658D01*
X176633309Y-81728103D01*
X176633307Y-81728109D01*
X176628571Y-81736969D01*
X176628568Y-81736973D01*
X176625660Y-81742414D01*
X176578029Y-81813699D01*
X176563828Y-81831004D01*
X176503204Y-81891628D01*
X176485899Y-81905829D01*
X176414614Y-81953460D01*
X176409173Y-81956368D01*
X176409169Y-81956371D01*
X176400309Y-81961107D01*
X176400303Y-81961109D01*
X176394858Y-81964020D01*
X176315660Y-81996824D01*
X176294233Y-82003324D01*
X176210149Y-82020050D01*
X176187869Y-82022244D01*
X176169450Y-82022244D01*
X176157199Y-82022846D01*
X176138862Y-82024652D01*
X175651138Y-82024652D01*
X175632801Y-82022846D01*
X175620550Y-82022244D01*
X175602131Y-82022244D01*
X175579851Y-82020050D01*
X175495767Y-82003324D01*
X175474340Y-81996824D01*
X175395142Y-81964020D01*
X175389697Y-81961109D01*
X175389691Y-81961107D01*
X175380831Y-81956371D01*
X175380827Y-81956368D01*
X175375386Y-81953460D01*
X175304101Y-81905829D01*
X175286796Y-81891628D01*
X175226172Y-81831004D01*
X175211971Y-81813699D01*
X175164340Y-81742414D01*
X175161432Y-81736973D01*
X175161429Y-81736969D01*
X175156693Y-81728109D01*
X175156691Y-81728103D01*
X175153780Y-81722658D01*
X175120976Y-81643460D01*
X175114476Y-81622033D01*
X175097750Y-81537949D01*
X175095556Y-81515669D01*
X175095556Y-81497250D01*
X175094954Y-81484999D01*
X175093148Y-81466662D01*
X175093148Y-80978940D01*
X175094737Y-80962801D01*
X175097652Y-80953192D01*
X175102390Y-80944328D01*
X175108763Y-80936563D01*
X175121206Y-80926352D01*
X175131575Y-80919422D01*
X175148902Y-80902095D01*
X175162515Y-80881720D01*
X175171891Y-80859080D01*
X175176671Y-80835047D01*
X175176670Y-80810543D01*
X175171888Y-80786510D01*
X175162510Y-80763871D01*
X175148895Y-80743498D01*
X175131568Y-80726171D01*
X175121198Y-80719242D01*
X175108763Y-80709037D01*
X175102390Y-80701272D01*
X175097652Y-80692408D01*
X175094737Y-80682799D01*
X175093148Y-80666660D01*
X175093148Y-80178939D01*
X175094954Y-80160601D01*
X175095556Y-80148350D01*
X175095556Y-80129931D01*
X175097750Y-80107651D01*
X175114476Y-80023567D01*
X175120976Y-80002140D01*
X175153780Y-79922942D01*
X175156691Y-79917497D01*
X175156693Y-79917491D01*
X175161429Y-79908631D01*
X175161432Y-79908627D01*
X175164340Y-79903186D01*
X175211971Y-79831901D01*
X175226172Y-79814596D01*
X175286796Y-79753972D01*
X175304101Y-79739771D01*
X175375386Y-79692140D01*
X175380827Y-79689232D01*
X175380831Y-79689229D01*
X175389691Y-79684493D01*
X175389697Y-79684491D01*
X175395142Y-79681580D01*
X175474340Y-79648776D01*
X175495767Y-79642276D01*
X175579851Y-79625550D01*
X175602131Y-79623356D01*
X175620550Y-79623356D01*
X175632801Y-79622754D01*
X175651139Y-79620948D01*
X176138861Y-79620948D01*
X176157199Y-79622754D01*
X176157199Y-79622754D01*
G37*
G36*
X174008359Y-79622754D02*
G01*
X174020610Y-79623356D01*
X174039029Y-79623356D01*
X174061309Y-79625550D01*
X174145393Y-79642276D01*
X174166820Y-79648776D01*
X174246018Y-79681580D01*
X174251463Y-79684491D01*
X174251469Y-79684493D01*
X174260329Y-79689229D01*
X174260333Y-79689232D01*
X174265774Y-79692140D01*
X174337059Y-79739771D01*
X174354364Y-79753972D01*
X174414988Y-79814596D01*
X174429189Y-79831901D01*
X174476820Y-79903186D01*
X174479728Y-79908627D01*
X174479731Y-79908631D01*
X174484467Y-79917491D01*
X174484469Y-79917497D01*
X174487380Y-79922942D01*
X174520184Y-80002140D01*
X174526684Y-80023567D01*
X174543410Y-80107651D01*
X174545604Y-80129931D01*
X174545604Y-80148350D01*
X174546206Y-80160601D01*
X174548012Y-80178939D01*
X174548012Y-80666660D01*
X174546423Y-80682799D01*
X174543508Y-80692408D01*
X174538770Y-80701272D01*
X174532397Y-80709037D01*
X174519954Y-80719248D01*
X174509585Y-80726178D01*
X174492258Y-80743505D01*
X174478645Y-80763880D01*
X174469269Y-80786520D01*
X174464489Y-80810553D01*
X174464490Y-80835057D01*
X174469272Y-80859090D01*
X174478650Y-80881729D01*
X174492265Y-80902102D01*
X174509592Y-80919429D01*
X174519962Y-80926358D01*
X174532397Y-80936563D01*
X174538770Y-80944328D01*
X174543508Y-80953192D01*
X174546423Y-80962801D01*
X174548012Y-80978940D01*
X174548012Y-81466662D01*
X174546206Y-81484999D01*
X174545604Y-81497250D01*
X174545604Y-81515669D01*
X174543410Y-81537949D01*
X174526684Y-81622033D01*
X174520184Y-81643460D01*
X174487380Y-81722658D01*
X174484469Y-81728103D01*
X174484467Y-81728109D01*
X174479731Y-81736969D01*
X174479728Y-81736973D01*
X174476820Y-81742414D01*
X174429189Y-81813699D01*
X174414988Y-81831004D01*
X174354364Y-81891628D01*
X174337059Y-81905829D01*
X174265774Y-81953460D01*
X174260333Y-81956368D01*
X174260329Y-81956371D01*
X174251469Y-81961107D01*
X174251463Y-81961109D01*
X174246018Y-81964020D01*
X174166820Y-81996824D01*
X174145393Y-82003324D01*
X174061309Y-82020050D01*
X174039029Y-82022244D01*
X174020610Y-82022244D01*
X174008359Y-82022846D01*
X173990022Y-82024652D01*
X173502298Y-82024652D01*
X173483961Y-82022846D01*
X173471710Y-82022244D01*
X173453291Y-82022244D01*
X173431011Y-82020050D01*
X173346927Y-82003324D01*
X173325500Y-81996824D01*
X173246302Y-81964020D01*
X173240857Y-81961109D01*
X173240851Y-81961107D01*
X173231991Y-81956371D01*
X173231987Y-81956368D01*
X173226546Y-81953460D01*
X173155261Y-81905829D01*
X173137956Y-81891628D01*
X173077332Y-81831004D01*
X173063131Y-81813699D01*
X173015500Y-81742414D01*
X173012592Y-81736973D01*
X173012589Y-81736969D01*
X173007853Y-81728109D01*
X173007851Y-81728103D01*
X173004940Y-81722658D01*
X172972136Y-81643460D01*
X172965636Y-81622033D01*
X172948910Y-81537949D01*
X172946716Y-81515669D01*
X172946716Y-81497250D01*
X172946114Y-81484999D01*
X172944308Y-81466662D01*
X172944308Y-80978940D01*
X172945897Y-80962801D01*
X172948812Y-80953192D01*
X172953550Y-80944328D01*
X172959923Y-80936563D01*
X172972366Y-80926352D01*
X172982735Y-80919422D01*
X173000062Y-80902095D01*
X173013675Y-80881720D01*
X173023051Y-80859080D01*
X173027831Y-80835047D01*
X173027830Y-80810543D01*
X173023048Y-80786510D01*
X173013670Y-80763871D01*
X173000055Y-80743498D01*
X172982728Y-80726171D01*
X172972358Y-80719242D01*
X172959923Y-80709037D01*
X172953550Y-80701272D01*
X172948812Y-80692408D01*
X172945897Y-80682799D01*
X172944308Y-80666660D01*
X172944308Y-80178939D01*
X172946114Y-80160601D01*
X172946716Y-80148350D01*
X172946716Y-80129931D01*
X172948910Y-80107651D01*
X172965636Y-80023567D01*
X172972136Y-80002140D01*
X173004940Y-79922942D01*
X173007851Y-79917497D01*
X173007853Y-79917491D01*
X173012589Y-79908631D01*
X173012592Y-79908627D01*
X173015500Y-79903186D01*
X173063131Y-79831901D01*
X173077332Y-79814596D01*
X173137956Y-79753972D01*
X173155261Y-79739771D01*
X173226546Y-79692140D01*
X173231987Y-79689232D01*
X173231991Y-79689229D01*
X173240851Y-79684493D01*
X173240857Y-79684491D01*
X173246302Y-79681580D01*
X173325500Y-79648776D01*
X173346927Y-79642276D01*
X173431011Y-79625550D01*
X173453291Y-79623356D01*
X173471710Y-79623356D01*
X173483961Y-79622754D01*
X173502299Y-79620948D01*
X173990021Y-79620948D01*
X174008359Y-79622754D01*
X174008359Y-79622754D01*
G37*
G36*
X148966499Y-78911554D02*
G01*
X148978750Y-78912156D01*
X148997169Y-78912156D01*
X149019449Y-78914350D01*
X149103533Y-78931076D01*
X149124960Y-78937576D01*
X149204158Y-78970380D01*
X149209603Y-78973291D01*
X149209609Y-78973293D01*
X149218469Y-78978029D01*
X149218473Y-78978032D01*
X149223914Y-78980940D01*
X149295199Y-79028571D01*
X149312504Y-79042772D01*
X149373128Y-79103396D01*
X149387329Y-79120701D01*
X149434960Y-79191986D01*
X149437868Y-79197427D01*
X149437871Y-79197431D01*
X149442607Y-79206291D01*
X149442609Y-79206297D01*
X149445520Y-79211742D01*
X149478324Y-79290940D01*
X149484824Y-79312367D01*
X149501550Y-79396451D01*
X149503744Y-79418731D01*
X149503744Y-79437150D01*
X149504346Y-79449401D01*
X149506152Y-79467739D01*
X149506152Y-79955460D01*
X149504563Y-79971599D01*
X149501648Y-79981208D01*
X149496910Y-79990072D01*
X149490537Y-79997837D01*
X149478094Y-80008048D01*
X149467725Y-80014978D01*
X149450398Y-80032305D01*
X149436785Y-80052680D01*
X149427409Y-80075320D01*
X149422629Y-80099353D01*
X149422630Y-80123857D01*
X149427412Y-80147890D01*
X149436790Y-80170529D01*
X149450405Y-80190902D01*
X149467732Y-80208229D01*
X149478102Y-80215158D01*
X149490537Y-80225363D01*
X149496910Y-80233128D01*
X149501648Y-80241992D01*
X149504563Y-80251601D01*
X149506152Y-80267740D01*
X149506152Y-80755462D01*
X149504346Y-80773799D01*
X149503744Y-80786050D01*
X149503744Y-80804469D01*
X149501550Y-80826749D01*
X149484824Y-80910833D01*
X149478324Y-80932260D01*
X149445520Y-81011458D01*
X149442609Y-81016903D01*
X149442607Y-81016909D01*
X149437871Y-81025769D01*
X149437868Y-81025773D01*
X149434960Y-81031214D01*
X149387329Y-81102499D01*
X149373128Y-81119804D01*
X149312504Y-81180428D01*
X149295199Y-81194629D01*
X149223914Y-81242260D01*
X149218473Y-81245168D01*
X149218469Y-81245171D01*
X149209609Y-81249907D01*
X149209603Y-81249909D01*
X149204158Y-81252820D01*
X149124960Y-81285624D01*
X149103533Y-81292124D01*
X149019449Y-81308850D01*
X148997169Y-81311044D01*
X148978750Y-81311044D01*
X148966499Y-81311646D01*
X148948162Y-81313452D01*
X148460438Y-81313452D01*
X148442101Y-81311646D01*
X148429850Y-81311044D01*
X148411431Y-81311044D01*
X148389151Y-81308850D01*
X148305067Y-81292124D01*
X148283640Y-81285624D01*
X148204442Y-81252820D01*
X148198997Y-81249909D01*
X148198991Y-81249907D01*
X148190131Y-81245171D01*
X148190127Y-81245168D01*
X148184686Y-81242260D01*
X148113401Y-81194629D01*
X148096096Y-81180428D01*
X148035472Y-81119804D01*
X148021271Y-81102499D01*
X147973640Y-81031214D01*
X147970732Y-81025773D01*
X147970729Y-81025769D01*
X147965993Y-81016909D01*
X147965991Y-81016903D01*
X147963080Y-81011458D01*
X147930276Y-80932260D01*
X147923776Y-80910833D01*
X147907050Y-80826749D01*
X147904856Y-80804469D01*
X147904856Y-80786050D01*
X147904254Y-80773799D01*
X147902448Y-80755462D01*
X147902448Y-80267740D01*
X147904037Y-80251601D01*
X147906952Y-80241992D01*
X147911690Y-80233128D01*
X147918063Y-80225363D01*
X147930506Y-80215152D01*
X147940875Y-80208222D01*
X147958202Y-80190895D01*
X147971815Y-80170520D01*
X147981191Y-80147880D01*
X147985971Y-80123847D01*
X147985970Y-80099343D01*
X147981188Y-80075310D01*
X147971810Y-80052671D01*
X147958195Y-80032298D01*
X147940868Y-80014971D01*
X147930498Y-80008042D01*
X147918063Y-79997837D01*
X147911690Y-79990072D01*
X147906952Y-79981208D01*
X147904037Y-79971599D01*
X147902448Y-79955460D01*
X147902448Y-79467739D01*
X147904254Y-79449401D01*
X147904856Y-79437150D01*
X147904856Y-79418731D01*
X147907050Y-79396451D01*
X147923776Y-79312367D01*
X147930276Y-79290940D01*
X147963080Y-79211742D01*
X147965991Y-79206297D01*
X147965993Y-79206291D01*
X147970729Y-79197431D01*
X147970732Y-79197427D01*
X147973640Y-79191986D01*
X148021271Y-79120701D01*
X148035472Y-79103396D01*
X148096096Y-79042772D01*
X148113401Y-79028571D01*
X148184686Y-78980940D01*
X148190127Y-78978032D01*
X148190131Y-78978029D01*
X148198991Y-78973293D01*
X148198997Y-78973291D01*
X148204442Y-78970380D01*
X148283640Y-78937576D01*
X148305067Y-78931076D01*
X148389151Y-78914350D01*
X148411431Y-78912156D01*
X148429850Y-78912156D01*
X148442101Y-78911554D01*
X148460439Y-78909748D01*
X148948161Y-78909748D01*
X148966499Y-78911554D01*
X148966499Y-78911554D01*
G37*
G36*
X138914839Y-79631377D02*
G01*
X138924448Y-79634292D01*
X138933312Y-79639030D01*
X138941077Y-79645403D01*
X138951288Y-79657846D01*
X138958218Y-79668215D01*
X138975545Y-79685542D01*
X138995920Y-79699155D01*
X139018560Y-79708531D01*
X139042593Y-79713311D01*
X139067097Y-79713310D01*
X139091130Y-79708528D01*
X139113769Y-79699150D01*
X139134142Y-79685535D01*
X139151469Y-79668208D01*
X139158398Y-79657838D01*
X139168603Y-79645403D01*
X139176368Y-79639030D01*
X139185232Y-79634292D01*
X139194841Y-79631377D01*
X139210980Y-79629788D01*
X139698701Y-79629788D01*
X139717039Y-79631594D01*
X139729290Y-79632196D01*
X139747709Y-79632196D01*
X139769989Y-79634390D01*
X139854073Y-79651116D01*
X139875500Y-79657616D01*
X139954698Y-79690420D01*
X139960143Y-79693331D01*
X139960149Y-79693333D01*
X139969009Y-79698069D01*
X139969013Y-79698072D01*
X139974454Y-79700980D01*
X140045739Y-79748611D01*
X140063044Y-79762812D01*
X140123668Y-79823436D01*
X140137869Y-79840741D01*
X140185500Y-79912026D01*
X140188408Y-79917467D01*
X140188411Y-79917471D01*
X140193147Y-79926331D01*
X140193149Y-79926337D01*
X140196060Y-79931782D01*
X140228864Y-80010980D01*
X140235364Y-80032407D01*
X140252090Y-80116491D01*
X140254284Y-80138771D01*
X140254284Y-80157190D01*
X140254886Y-80169441D01*
X140256692Y-80187779D01*
X140256692Y-80675502D01*
X140254886Y-80693839D01*
X140254284Y-80706090D01*
X140254284Y-80724509D01*
X140252090Y-80746789D01*
X140235364Y-80830873D01*
X140228864Y-80852300D01*
X140196060Y-80931498D01*
X140193149Y-80936943D01*
X140193147Y-80936949D01*
X140188411Y-80945809D01*
X140188408Y-80945813D01*
X140185500Y-80951254D01*
X140137869Y-81022539D01*
X140123668Y-81039844D01*
X140063044Y-81100468D01*
X140045739Y-81114669D01*
X139974454Y-81162300D01*
X139969013Y-81165208D01*
X139969009Y-81165211D01*
X139960149Y-81169947D01*
X139960143Y-81169949D01*
X139954698Y-81172860D01*
X139875500Y-81205664D01*
X139854073Y-81212164D01*
X139769989Y-81228890D01*
X139747709Y-81231084D01*
X139729290Y-81231084D01*
X139717039Y-81231686D01*
X139698702Y-81233492D01*
X139210980Y-81233492D01*
X139194841Y-81231903D01*
X139185232Y-81228988D01*
X139176368Y-81224250D01*
X139168603Y-81217877D01*
X139158392Y-81205434D01*
X139151462Y-81195065D01*
X139134135Y-81177738D01*
X139113760Y-81164125D01*
X139091120Y-81154749D01*
X139067087Y-81149969D01*
X139042583Y-81149970D01*
X139018550Y-81154752D01*
X138995911Y-81164130D01*
X138975538Y-81177745D01*
X138958211Y-81195072D01*
X138951282Y-81205442D01*
X138941077Y-81217877D01*
X138933312Y-81224250D01*
X138924448Y-81228988D01*
X138914839Y-81231903D01*
X138898700Y-81233492D01*
X138410978Y-81233492D01*
X138392641Y-81231686D01*
X138380390Y-81231084D01*
X138361971Y-81231084D01*
X138339691Y-81228890D01*
X138255607Y-81212164D01*
X138234180Y-81205664D01*
X138154982Y-81172860D01*
X138149537Y-81169949D01*
X138149531Y-81169947D01*
X138140671Y-81165211D01*
X138140667Y-81165208D01*
X138135226Y-81162300D01*
X138063941Y-81114669D01*
X138046636Y-81100468D01*
X137986012Y-81039844D01*
X137971811Y-81022539D01*
X137924180Y-80951254D01*
X137921272Y-80945813D01*
X137921269Y-80945809D01*
X137916533Y-80936949D01*
X137916531Y-80936943D01*
X137913620Y-80931498D01*
X137880816Y-80852300D01*
X137874316Y-80830873D01*
X137857590Y-80746789D01*
X137855396Y-80724509D01*
X137855396Y-80706090D01*
X137854794Y-80693839D01*
X137852988Y-80675502D01*
X137852988Y-80187779D01*
X137854794Y-80169441D01*
X137855396Y-80157190D01*
X137855396Y-80138771D01*
X137857590Y-80116491D01*
X137874316Y-80032407D01*
X137880816Y-80010980D01*
X137913620Y-79931782D01*
X137916531Y-79926337D01*
X137916533Y-79926331D01*
X137921269Y-79917471D01*
X137921272Y-79917467D01*
X137924180Y-79912026D01*
X137971811Y-79840741D01*
X137986012Y-79823436D01*
X138046636Y-79762812D01*
X138063941Y-79748611D01*
X138135226Y-79700980D01*
X138140667Y-79698072D01*
X138140671Y-79698069D01*
X138149531Y-79693333D01*
X138149537Y-79693331D01*
X138154982Y-79690420D01*
X138234180Y-79657616D01*
X138255607Y-79651116D01*
X138339691Y-79634390D01*
X138361971Y-79632196D01*
X138380390Y-79632196D01*
X138392641Y-79631594D01*
X138410979Y-79629788D01*
X138898700Y-79629788D01*
X138914839Y-79631377D01*
X138914839Y-79631377D01*
G37*
G36*
X168285160Y-80647540D02*
G01*
X166811960Y-80647540D01*
X166811960Y-77777340D01*
X168285160Y-77777340D01*
X168285160Y-80647540D01*
X168285160Y-80647540D01*
G37*
G36*
X131747385Y-75162175D02*
G01*
X132037276Y-75282252D01*
X132102445Y-75309246D01*
X132421990Y-75522759D01*
X132693741Y-75794510D01*
X132849518Y-76027647D01*
X132907255Y-76114057D01*
X133054325Y-76469115D01*
X133129300Y-76846042D01*
X133129300Y-77230358D01*
X133054325Y-77607285D01*
X132955117Y-77846793D01*
X132907254Y-77962345D01*
X132693741Y-78281890D01*
X132421990Y-78553641D01*
X132102445Y-78767154D01*
X132102444Y-78767155D01*
X132102443Y-78767155D01*
X131747385Y-78914225D01*
X131370458Y-78989200D01*
X130986142Y-78989200D01*
X130609215Y-78914225D01*
X130254157Y-78767155D01*
X130254156Y-78767155D01*
X130254155Y-78767154D01*
X129934610Y-78553641D01*
X129662859Y-78281890D01*
X129449346Y-77962345D01*
X129401483Y-77846793D01*
X129302275Y-77607285D01*
X129227300Y-77230358D01*
X129227300Y-76846042D01*
X129302275Y-76469115D01*
X129449345Y-76114057D01*
X129507082Y-76027647D01*
X129662859Y-75794510D01*
X129934610Y-75522759D01*
X130254155Y-75309246D01*
X130319324Y-75282252D01*
X130609215Y-75162175D01*
X130986142Y-75087200D01*
X131370458Y-75087200D01*
X131747385Y-75162175D01*
X131747385Y-75162175D01*
G37*
G36*
X138914839Y-77355537D02*
G01*
X138924448Y-77358452D01*
X138933312Y-77363190D01*
X138941077Y-77369563D01*
X138951288Y-77382006D01*
X138958218Y-77392375D01*
X138975545Y-77409702D01*
X138995920Y-77423315D01*
X139018560Y-77432691D01*
X139042593Y-77437471D01*
X139067097Y-77437470D01*
X139091130Y-77432688D01*
X139113769Y-77423310D01*
X139134142Y-77409695D01*
X139151469Y-77392368D01*
X139158398Y-77381998D01*
X139168603Y-77369563D01*
X139176368Y-77363190D01*
X139185232Y-77358452D01*
X139194841Y-77355537D01*
X139210980Y-77353948D01*
X139698701Y-77353948D01*
X139717039Y-77355754D01*
X139729290Y-77356356D01*
X139747709Y-77356356D01*
X139769989Y-77358550D01*
X139854073Y-77375276D01*
X139875500Y-77381776D01*
X139954698Y-77414580D01*
X139960143Y-77417491D01*
X139960149Y-77417493D01*
X139969009Y-77422229D01*
X139969013Y-77422232D01*
X139974454Y-77425140D01*
X140045739Y-77472771D01*
X140063044Y-77486972D01*
X140123668Y-77547596D01*
X140137869Y-77564901D01*
X140185500Y-77636186D01*
X140188408Y-77641627D01*
X140188411Y-77641631D01*
X140193147Y-77650491D01*
X140193149Y-77650497D01*
X140196060Y-77655942D01*
X140228864Y-77735140D01*
X140235364Y-77756567D01*
X140252090Y-77840651D01*
X140254284Y-77862931D01*
X140254284Y-77881350D01*
X140254886Y-77893601D01*
X140256692Y-77911939D01*
X140256692Y-78399662D01*
X140254886Y-78417999D01*
X140254284Y-78430250D01*
X140254284Y-78448669D01*
X140252090Y-78470949D01*
X140235364Y-78555033D01*
X140228864Y-78576460D01*
X140196060Y-78655658D01*
X140193149Y-78661103D01*
X140193147Y-78661109D01*
X140188411Y-78669969D01*
X140188408Y-78669973D01*
X140185500Y-78675414D01*
X140137869Y-78746699D01*
X140123668Y-78764004D01*
X140063044Y-78824628D01*
X140045739Y-78838829D01*
X139974454Y-78886460D01*
X139969013Y-78889368D01*
X139969009Y-78889371D01*
X139960149Y-78894107D01*
X139960143Y-78894109D01*
X139954698Y-78897020D01*
X139875500Y-78929824D01*
X139854073Y-78936324D01*
X139769989Y-78953050D01*
X139747709Y-78955244D01*
X139729290Y-78955244D01*
X139717039Y-78955846D01*
X139698702Y-78957652D01*
X139210980Y-78957652D01*
X139194841Y-78956063D01*
X139185232Y-78953148D01*
X139176368Y-78948410D01*
X139168603Y-78942037D01*
X139158392Y-78929594D01*
X139151462Y-78919225D01*
X139134135Y-78901898D01*
X139113760Y-78888285D01*
X139091120Y-78878909D01*
X139067087Y-78874129D01*
X139042583Y-78874130D01*
X139018550Y-78878912D01*
X138995911Y-78888290D01*
X138975538Y-78901905D01*
X138958211Y-78919232D01*
X138951282Y-78929602D01*
X138941077Y-78942037D01*
X138933312Y-78948410D01*
X138924448Y-78953148D01*
X138914839Y-78956063D01*
X138898700Y-78957652D01*
X138410978Y-78957652D01*
X138392641Y-78955846D01*
X138380390Y-78955244D01*
X138361971Y-78955244D01*
X138339691Y-78953050D01*
X138255607Y-78936324D01*
X138234180Y-78929824D01*
X138154982Y-78897020D01*
X138149537Y-78894109D01*
X138149531Y-78894107D01*
X138140671Y-78889371D01*
X138140667Y-78889368D01*
X138135226Y-78886460D01*
X138063941Y-78838829D01*
X138046636Y-78824628D01*
X137986012Y-78764004D01*
X137971811Y-78746699D01*
X137924180Y-78675414D01*
X137921272Y-78669973D01*
X137921269Y-78669969D01*
X137916533Y-78661109D01*
X137916531Y-78661103D01*
X137913620Y-78655658D01*
X137880816Y-78576460D01*
X137874316Y-78555033D01*
X137857590Y-78470949D01*
X137855396Y-78448669D01*
X137855396Y-78430250D01*
X137854794Y-78417999D01*
X137852988Y-78399662D01*
X137852988Y-77911939D01*
X137854794Y-77893601D01*
X137855396Y-77881350D01*
X137855396Y-77862931D01*
X137857590Y-77840651D01*
X137874316Y-77756567D01*
X137880816Y-77735140D01*
X137913620Y-77655942D01*
X137916531Y-77650497D01*
X137916533Y-77650491D01*
X137921269Y-77641631D01*
X137921272Y-77641627D01*
X137924180Y-77636186D01*
X137971811Y-77564901D01*
X137986012Y-77547596D01*
X138046636Y-77486972D01*
X138063941Y-77472771D01*
X138135226Y-77425140D01*
X138140667Y-77422232D01*
X138140671Y-77422229D01*
X138149531Y-77417493D01*
X138149537Y-77417491D01*
X138154982Y-77414580D01*
X138234180Y-77381776D01*
X138255607Y-77375276D01*
X138339691Y-77358550D01*
X138361971Y-77356356D01*
X138380390Y-77356356D01*
X138392641Y-77355754D01*
X138410979Y-77353948D01*
X138898700Y-77353948D01*
X138914839Y-77355537D01*
X138914839Y-77355537D01*
G37*
G36*
X177277787Y-75787196D02*
G01*
X177514553Y-75885268D01*
X177514555Y-75885269D01*
X177727639Y-76027647D01*
X177908853Y-76208861D01*
X178042171Y-76408385D01*
X178051232Y-76421947D01*
X178149304Y-76658713D01*
X178199300Y-76910061D01*
X178199300Y-77166339D01*
X178149304Y-77417687D01*
X178070769Y-77607286D01*
X178051231Y-77654455D01*
X177908853Y-77867539D01*
X177727639Y-78048753D01*
X177514555Y-78191131D01*
X177514554Y-78191132D01*
X177514553Y-78191132D01*
X177277787Y-78289204D01*
X177026439Y-78339200D01*
X176770161Y-78339200D01*
X176518813Y-78289204D01*
X176282047Y-78191132D01*
X176282046Y-78191132D01*
X176282045Y-78191131D01*
X176068961Y-78048753D01*
X175887747Y-77867539D01*
X175745369Y-77654455D01*
X175725831Y-77607286D01*
X175647296Y-77417687D01*
X175597300Y-77166339D01*
X175597300Y-76910061D01*
X175647296Y-76658713D01*
X175745368Y-76421947D01*
X175754430Y-76408385D01*
X175887747Y-76208861D01*
X176068961Y-76027647D01*
X176282045Y-75885269D01*
X176282047Y-75885268D01*
X176518813Y-75787196D01*
X176770161Y-75737200D01*
X177026439Y-75737200D01*
X177277787Y-75787196D01*
X177277787Y-75787196D01*
G37*
G36*
X138914839Y-75150817D02*
G01*
X138924448Y-75153732D01*
X138933312Y-75158470D01*
X138941077Y-75164843D01*
X138951288Y-75177286D01*
X138958218Y-75187655D01*
X138975545Y-75204982D01*
X138995920Y-75218595D01*
X139018560Y-75227971D01*
X139042593Y-75232751D01*
X139067097Y-75232750D01*
X139091130Y-75227968D01*
X139113769Y-75218590D01*
X139134142Y-75204975D01*
X139151469Y-75187648D01*
X139158398Y-75177278D01*
X139168603Y-75164843D01*
X139176368Y-75158470D01*
X139185232Y-75153732D01*
X139194841Y-75150817D01*
X139210980Y-75149228D01*
X139698701Y-75149228D01*
X139717039Y-75151034D01*
X139729290Y-75151636D01*
X139747709Y-75151636D01*
X139769989Y-75153830D01*
X139854073Y-75170556D01*
X139875500Y-75177056D01*
X139954698Y-75209860D01*
X139960143Y-75212771D01*
X139960149Y-75212773D01*
X139969009Y-75217509D01*
X139969013Y-75217512D01*
X139974454Y-75220420D01*
X140045739Y-75268051D01*
X140063044Y-75282252D01*
X140123668Y-75342876D01*
X140137869Y-75360181D01*
X140185500Y-75431466D01*
X140188408Y-75436907D01*
X140188411Y-75436911D01*
X140193147Y-75445771D01*
X140193149Y-75445777D01*
X140196060Y-75451222D01*
X140228864Y-75530420D01*
X140235364Y-75551847D01*
X140252090Y-75635931D01*
X140254284Y-75658211D01*
X140254284Y-75676630D01*
X140254886Y-75688881D01*
X140256692Y-75707219D01*
X140256692Y-76194942D01*
X140254886Y-76213279D01*
X140254284Y-76225530D01*
X140254284Y-76243949D01*
X140252090Y-76266229D01*
X140235364Y-76350313D01*
X140228864Y-76371740D01*
X140196060Y-76450938D01*
X140193149Y-76456383D01*
X140193147Y-76456389D01*
X140188411Y-76465249D01*
X140188408Y-76465253D01*
X140185500Y-76470694D01*
X140137869Y-76541979D01*
X140123668Y-76559284D01*
X140063044Y-76619908D01*
X140045739Y-76634109D01*
X139974454Y-76681740D01*
X139969013Y-76684648D01*
X139969009Y-76684651D01*
X139960149Y-76689387D01*
X139960143Y-76689389D01*
X139954698Y-76692300D01*
X139875500Y-76725104D01*
X139854073Y-76731604D01*
X139769989Y-76748330D01*
X139747709Y-76750524D01*
X139729290Y-76750524D01*
X139717039Y-76751126D01*
X139698702Y-76752932D01*
X139210980Y-76752932D01*
X139194841Y-76751343D01*
X139185232Y-76748428D01*
X139176368Y-76743690D01*
X139168603Y-76737317D01*
X139158392Y-76724874D01*
X139151462Y-76714505D01*
X139134135Y-76697178D01*
X139113760Y-76683565D01*
X139091120Y-76674189D01*
X139067087Y-76669409D01*
X139042583Y-76669410D01*
X139018550Y-76674192D01*
X138995911Y-76683570D01*
X138975538Y-76697185D01*
X138958211Y-76714512D01*
X138951282Y-76724882D01*
X138941077Y-76737317D01*
X138933312Y-76743690D01*
X138924448Y-76748428D01*
X138914839Y-76751343D01*
X138898700Y-76752932D01*
X138410978Y-76752932D01*
X138392641Y-76751126D01*
X138380390Y-76750524D01*
X138361971Y-76750524D01*
X138339691Y-76748330D01*
X138255607Y-76731604D01*
X138234180Y-76725104D01*
X138154982Y-76692300D01*
X138149537Y-76689389D01*
X138149531Y-76689387D01*
X138140671Y-76684651D01*
X138140667Y-76684648D01*
X138135226Y-76681740D01*
X138063941Y-76634109D01*
X138046636Y-76619908D01*
X137986012Y-76559284D01*
X137971811Y-76541979D01*
X137924180Y-76470694D01*
X137921272Y-76465253D01*
X137921269Y-76465249D01*
X137916533Y-76456389D01*
X137916531Y-76456383D01*
X137913620Y-76450938D01*
X137880816Y-76371740D01*
X137874316Y-76350313D01*
X137857590Y-76266229D01*
X137855396Y-76243949D01*
X137855396Y-76225530D01*
X137854794Y-76213279D01*
X137852988Y-76194942D01*
X137852988Y-75707219D01*
X137854794Y-75688881D01*
X137855396Y-75676630D01*
X137855396Y-75658211D01*
X137857590Y-75635931D01*
X137874316Y-75551847D01*
X137880816Y-75530420D01*
X137913620Y-75451222D01*
X137916531Y-75445777D01*
X137916533Y-75445771D01*
X137921269Y-75436911D01*
X137921272Y-75436907D01*
X137924180Y-75431466D01*
X137971811Y-75360181D01*
X137986012Y-75342876D01*
X138046636Y-75282252D01*
X138063941Y-75268051D01*
X138135226Y-75220420D01*
X138140667Y-75217512D01*
X138140671Y-75217509D01*
X138149531Y-75212773D01*
X138149537Y-75212771D01*
X138154982Y-75209860D01*
X138234180Y-75177056D01*
X138255607Y-75170556D01*
X138339691Y-75153830D01*
X138361971Y-75151636D01*
X138380390Y-75151636D01*
X138392641Y-75151034D01*
X138410979Y-75149228D01*
X138898700Y-75149228D01*
X138914839Y-75150817D01*
X138914839Y-75150817D01*
G37*
G36*
X173198743Y-74873719D02*
G01*
X173264927Y-74880237D01*
X173434766Y-74931757D01*
X173591291Y-75015422D01*
X173627029Y-75044752D01*
X173728486Y-75128014D01*
X173810515Y-75227968D01*
X173841078Y-75265209D01*
X173924743Y-75421734D01*
X173976263Y-75591573D01*
X173993659Y-75768200D01*
X173976263Y-75944827D01*
X173924743Y-76114666D01*
X173841078Y-76271191D01*
X173811748Y-76306929D01*
X173728486Y-76408386D01*
X173654486Y-76469115D01*
X173591291Y-76520978D01*
X173434766Y-76604643D01*
X173264927Y-76656163D01*
X173198742Y-76662682D01*
X173132560Y-76669200D01*
X173044040Y-76669200D01*
X172977858Y-76662682D01*
X172911673Y-76656163D01*
X172741834Y-76604643D01*
X172585309Y-76520978D01*
X172522114Y-76469115D01*
X172448114Y-76408386D01*
X172364852Y-76306929D01*
X172335522Y-76271191D01*
X172251857Y-76114666D01*
X172200337Y-75944827D01*
X172182941Y-75768200D01*
X172200337Y-75591573D01*
X172251857Y-75421734D01*
X172335522Y-75265209D01*
X172366085Y-75227968D01*
X172448114Y-75128014D01*
X172549571Y-75044752D01*
X172585309Y-75015422D01*
X172741834Y-74931757D01*
X172911673Y-74880237D01*
X172977857Y-74873719D01*
X173044040Y-74867200D01*
X173132560Y-74867200D01*
X173198743Y-74873719D01*
X173198743Y-74873719D01*
G37*
G36*
X155418743Y-74873719D02*
G01*
X155484927Y-74880237D01*
X155654766Y-74931757D01*
X155811291Y-75015422D01*
X155847029Y-75044752D01*
X155948486Y-75128014D01*
X156030515Y-75227968D01*
X156061078Y-75265209D01*
X156144743Y-75421734D01*
X156196263Y-75591573D01*
X156213659Y-75768200D01*
X156196263Y-75944827D01*
X156144743Y-76114666D01*
X156061078Y-76271191D01*
X156031748Y-76306929D01*
X155948486Y-76408386D01*
X155874486Y-76469115D01*
X155811291Y-76520978D01*
X155654766Y-76604643D01*
X155484927Y-76656163D01*
X155418742Y-76662682D01*
X155352560Y-76669200D01*
X155264040Y-76669200D01*
X155197858Y-76662682D01*
X155131673Y-76656163D01*
X154961834Y-76604643D01*
X154805309Y-76520978D01*
X154742114Y-76469115D01*
X154668114Y-76408386D01*
X154584852Y-76306929D01*
X154555522Y-76271191D01*
X154471857Y-76114666D01*
X154420337Y-75944827D01*
X154402941Y-75768200D01*
X154420337Y-75591573D01*
X154471857Y-75421734D01*
X154555522Y-75265209D01*
X154586085Y-75227968D01*
X154668114Y-75128014D01*
X154769571Y-75044752D01*
X154805309Y-75015422D01*
X154961834Y-74931757D01*
X155131673Y-74880237D01*
X155197857Y-74873719D01*
X155264040Y-74867200D01*
X155352560Y-74867200D01*
X155418743Y-74873719D01*
X155418743Y-74873719D01*
G37*
G36*
X157958743Y-74873719D02*
G01*
X158024927Y-74880237D01*
X158194766Y-74931757D01*
X158351291Y-75015422D01*
X158387029Y-75044752D01*
X158488486Y-75128014D01*
X158570515Y-75227968D01*
X158601078Y-75265209D01*
X158684743Y-75421734D01*
X158736263Y-75591573D01*
X158753659Y-75768200D01*
X158736263Y-75944827D01*
X158684743Y-76114666D01*
X158601078Y-76271191D01*
X158571748Y-76306929D01*
X158488486Y-76408386D01*
X158414486Y-76469115D01*
X158351291Y-76520978D01*
X158194766Y-76604643D01*
X158024927Y-76656163D01*
X157958742Y-76662682D01*
X157892560Y-76669200D01*
X157804040Y-76669200D01*
X157737858Y-76662682D01*
X157671673Y-76656163D01*
X157501834Y-76604643D01*
X157345309Y-76520978D01*
X157282114Y-76469115D01*
X157208114Y-76408386D01*
X157124852Y-76306929D01*
X157095522Y-76271191D01*
X157011857Y-76114666D01*
X156960337Y-75944827D01*
X156942941Y-75768200D01*
X156960337Y-75591573D01*
X157011857Y-75421734D01*
X157095522Y-75265209D01*
X157126085Y-75227968D01*
X157208114Y-75128014D01*
X157309571Y-75044752D01*
X157345309Y-75015422D01*
X157501834Y-74931757D01*
X157671673Y-74880237D01*
X157737857Y-74873719D01*
X157804040Y-74867200D01*
X157892560Y-74867200D01*
X157958743Y-74873719D01*
X157958743Y-74873719D01*
G37*
G36*
X160498743Y-74873719D02*
G01*
X160564927Y-74880237D01*
X160734766Y-74931757D01*
X160891291Y-75015422D01*
X160927029Y-75044752D01*
X161028486Y-75128014D01*
X161110515Y-75227968D01*
X161141078Y-75265209D01*
X161224743Y-75421734D01*
X161276263Y-75591573D01*
X161293659Y-75768200D01*
X161276263Y-75944827D01*
X161224743Y-76114666D01*
X161141078Y-76271191D01*
X161111748Y-76306929D01*
X161028486Y-76408386D01*
X160954486Y-76469115D01*
X160891291Y-76520978D01*
X160734766Y-76604643D01*
X160564927Y-76656163D01*
X160498742Y-76662682D01*
X160432560Y-76669200D01*
X160344040Y-76669200D01*
X160277858Y-76662682D01*
X160211673Y-76656163D01*
X160041834Y-76604643D01*
X159885309Y-76520978D01*
X159822114Y-76469115D01*
X159748114Y-76408386D01*
X159664852Y-76306929D01*
X159635522Y-76271191D01*
X159551857Y-76114666D01*
X159500337Y-75944827D01*
X159482941Y-75768200D01*
X159500337Y-75591573D01*
X159551857Y-75421734D01*
X159635522Y-75265209D01*
X159666085Y-75227968D01*
X159748114Y-75128014D01*
X159849571Y-75044752D01*
X159885309Y-75015422D01*
X160041834Y-74931757D01*
X160211673Y-74880237D01*
X160277857Y-74873719D01*
X160344040Y-74867200D01*
X160432560Y-74867200D01*
X160498743Y-74873719D01*
X160498743Y-74873719D01*
G37*
G36*
X163038743Y-74873719D02*
G01*
X163104927Y-74880237D01*
X163274766Y-74931757D01*
X163431291Y-75015422D01*
X163467029Y-75044752D01*
X163568486Y-75128014D01*
X163650515Y-75227968D01*
X163681078Y-75265209D01*
X163764743Y-75421734D01*
X163816263Y-75591573D01*
X163833659Y-75768200D01*
X163816263Y-75944827D01*
X163764743Y-76114666D01*
X163681078Y-76271191D01*
X163651748Y-76306929D01*
X163568486Y-76408386D01*
X163494486Y-76469115D01*
X163431291Y-76520978D01*
X163274766Y-76604643D01*
X163104927Y-76656163D01*
X163038742Y-76662682D01*
X162972560Y-76669200D01*
X162884040Y-76669200D01*
X162817858Y-76662682D01*
X162751673Y-76656163D01*
X162581834Y-76604643D01*
X162425309Y-76520978D01*
X162362114Y-76469115D01*
X162288114Y-76408386D01*
X162204852Y-76306929D01*
X162175522Y-76271191D01*
X162091857Y-76114666D01*
X162040337Y-75944827D01*
X162022941Y-75768200D01*
X162040337Y-75591573D01*
X162091857Y-75421734D01*
X162175522Y-75265209D01*
X162206085Y-75227968D01*
X162288114Y-75128014D01*
X162389571Y-75044752D01*
X162425309Y-75015422D01*
X162581834Y-74931757D01*
X162751673Y-74880237D01*
X162817857Y-74873719D01*
X162884040Y-74867200D01*
X162972560Y-74867200D01*
X163038743Y-74873719D01*
X163038743Y-74873719D01*
G37*
G36*
X165578743Y-74873719D02*
G01*
X165644927Y-74880237D01*
X165814766Y-74931757D01*
X165971291Y-75015422D01*
X166007029Y-75044752D01*
X166108486Y-75128014D01*
X166190515Y-75227968D01*
X166221078Y-75265209D01*
X166304743Y-75421734D01*
X166356263Y-75591573D01*
X166373659Y-75768200D01*
X166356263Y-75944827D01*
X166304743Y-76114666D01*
X166221078Y-76271191D01*
X166191748Y-76306929D01*
X166108486Y-76408386D01*
X166034486Y-76469115D01*
X165971291Y-76520978D01*
X165814766Y-76604643D01*
X165644927Y-76656163D01*
X165578742Y-76662682D01*
X165512560Y-76669200D01*
X165424040Y-76669200D01*
X165357858Y-76662682D01*
X165291673Y-76656163D01*
X165121834Y-76604643D01*
X164965309Y-76520978D01*
X164902114Y-76469115D01*
X164828114Y-76408386D01*
X164744852Y-76306929D01*
X164715522Y-76271191D01*
X164631857Y-76114666D01*
X164580337Y-75944827D01*
X164562941Y-75768200D01*
X164580337Y-75591573D01*
X164631857Y-75421734D01*
X164715522Y-75265209D01*
X164746085Y-75227968D01*
X164828114Y-75128014D01*
X164929571Y-75044752D01*
X164965309Y-75015422D01*
X165121834Y-74931757D01*
X165291673Y-74880237D01*
X165357857Y-74873719D01*
X165424040Y-74867200D01*
X165512560Y-74867200D01*
X165578743Y-74873719D01*
X165578743Y-74873719D01*
G37*
G36*
X168118743Y-74873719D02*
G01*
X168184927Y-74880237D01*
X168354766Y-74931757D01*
X168511291Y-75015422D01*
X168547029Y-75044752D01*
X168648486Y-75128014D01*
X168730515Y-75227968D01*
X168761078Y-75265209D01*
X168844743Y-75421734D01*
X168896263Y-75591573D01*
X168913659Y-75768200D01*
X168896263Y-75944827D01*
X168844743Y-76114666D01*
X168761078Y-76271191D01*
X168731748Y-76306929D01*
X168648486Y-76408386D01*
X168574486Y-76469115D01*
X168511291Y-76520978D01*
X168354766Y-76604643D01*
X168184927Y-76656163D01*
X168118742Y-76662682D01*
X168052560Y-76669200D01*
X167964040Y-76669200D01*
X167897858Y-76662682D01*
X167831673Y-76656163D01*
X167661834Y-76604643D01*
X167505309Y-76520978D01*
X167442114Y-76469115D01*
X167368114Y-76408386D01*
X167284852Y-76306929D01*
X167255522Y-76271191D01*
X167171857Y-76114666D01*
X167120337Y-75944827D01*
X167102941Y-75768200D01*
X167120337Y-75591573D01*
X167171857Y-75421734D01*
X167255522Y-75265209D01*
X167286085Y-75227968D01*
X167368114Y-75128014D01*
X167469571Y-75044752D01*
X167505309Y-75015422D01*
X167661834Y-74931757D01*
X167831673Y-74880237D01*
X167897857Y-74873719D01*
X167964040Y-74867200D01*
X168052560Y-74867200D01*
X168118743Y-74873719D01*
X168118743Y-74873719D01*
G37*
G36*
X152878743Y-74873719D02*
G01*
X152944927Y-74880237D01*
X153114766Y-74931757D01*
X153271291Y-75015422D01*
X153307029Y-75044752D01*
X153408486Y-75128014D01*
X153490515Y-75227968D01*
X153521078Y-75265209D01*
X153604743Y-75421734D01*
X153656263Y-75591573D01*
X153673659Y-75768200D01*
X153656263Y-75944827D01*
X153604743Y-76114666D01*
X153521078Y-76271191D01*
X153491748Y-76306929D01*
X153408486Y-76408386D01*
X153334486Y-76469115D01*
X153271291Y-76520978D01*
X153114766Y-76604643D01*
X152944927Y-76656163D01*
X152878742Y-76662682D01*
X152812560Y-76669200D01*
X152724040Y-76669200D01*
X152657858Y-76662682D01*
X152591673Y-76656163D01*
X152421834Y-76604643D01*
X152265309Y-76520978D01*
X152202114Y-76469115D01*
X152128114Y-76408386D01*
X152044852Y-76306929D01*
X152015522Y-76271191D01*
X151931857Y-76114666D01*
X151880337Y-75944827D01*
X151862941Y-75768200D01*
X151880337Y-75591573D01*
X151931857Y-75421734D01*
X152015522Y-75265209D01*
X152046085Y-75227968D01*
X152128114Y-75128014D01*
X152229571Y-75044752D01*
X152265309Y-75015422D01*
X152421834Y-74931757D01*
X152591673Y-74880237D01*
X152657857Y-74873719D01*
X152724040Y-74867200D01*
X152812560Y-74867200D01*
X152878743Y-74873719D01*
X152878743Y-74873719D01*
G37*
G36*
X150338743Y-74873719D02*
G01*
X150404927Y-74880237D01*
X150574766Y-74931757D01*
X150731291Y-75015422D01*
X150767029Y-75044752D01*
X150868486Y-75128014D01*
X150950515Y-75227968D01*
X150981078Y-75265209D01*
X151064743Y-75421734D01*
X151116263Y-75591573D01*
X151133659Y-75768200D01*
X151116263Y-75944827D01*
X151064743Y-76114666D01*
X150981078Y-76271191D01*
X150951748Y-76306929D01*
X150868486Y-76408386D01*
X150794486Y-76469115D01*
X150731291Y-76520978D01*
X150574766Y-76604643D01*
X150404927Y-76656163D01*
X150338742Y-76662682D01*
X150272560Y-76669200D01*
X150184040Y-76669200D01*
X150117858Y-76662682D01*
X150051673Y-76656163D01*
X149881834Y-76604643D01*
X149725309Y-76520978D01*
X149662114Y-76469115D01*
X149588114Y-76408386D01*
X149504852Y-76306929D01*
X149475522Y-76271191D01*
X149391857Y-76114666D01*
X149340337Y-75944827D01*
X149322941Y-75768200D01*
X149340337Y-75591573D01*
X149391857Y-75421734D01*
X149475522Y-75265209D01*
X149506085Y-75227968D01*
X149588114Y-75128014D01*
X149689571Y-75044752D01*
X149725309Y-75015422D01*
X149881834Y-74931757D01*
X150051673Y-74880237D01*
X150117857Y-74873719D01*
X150184040Y-74867200D01*
X150272560Y-74867200D01*
X150338743Y-74873719D01*
X150338743Y-74873719D01*
G37*
G36*
X147798743Y-74873719D02*
G01*
X147864927Y-74880237D01*
X148034766Y-74931757D01*
X148191291Y-75015422D01*
X148227029Y-75044752D01*
X148328486Y-75128014D01*
X148410515Y-75227968D01*
X148441078Y-75265209D01*
X148524743Y-75421734D01*
X148576263Y-75591573D01*
X148593659Y-75768200D01*
X148576263Y-75944827D01*
X148524743Y-76114666D01*
X148441078Y-76271191D01*
X148411748Y-76306929D01*
X148328486Y-76408386D01*
X148254486Y-76469115D01*
X148191291Y-76520978D01*
X148034766Y-76604643D01*
X147864927Y-76656163D01*
X147798742Y-76662682D01*
X147732560Y-76669200D01*
X147644040Y-76669200D01*
X147577858Y-76662682D01*
X147511673Y-76656163D01*
X147341834Y-76604643D01*
X147185309Y-76520978D01*
X147122114Y-76469115D01*
X147048114Y-76408386D01*
X146964852Y-76306929D01*
X146935522Y-76271191D01*
X146851857Y-76114666D01*
X146800337Y-75944827D01*
X146782941Y-75768200D01*
X146800337Y-75591573D01*
X146851857Y-75421734D01*
X146935522Y-75265209D01*
X146966085Y-75227968D01*
X147048114Y-75128014D01*
X147149571Y-75044752D01*
X147185309Y-75015422D01*
X147341834Y-74931757D01*
X147511673Y-74880237D01*
X147577857Y-74873719D01*
X147644040Y-74867200D01*
X147732560Y-74867200D01*
X147798743Y-74873719D01*
X147798743Y-74873719D01*
G37*
G36*
X146049300Y-76669200D02*
G01*
X144247300Y-76669200D01*
X144247300Y-74867200D01*
X146049300Y-74867200D01*
X146049300Y-76669200D01*
X146049300Y-76669200D01*
G37*
G36*
X170658743Y-74873719D02*
G01*
X170724927Y-74880237D01*
X170894766Y-74931757D01*
X171051291Y-75015422D01*
X171087029Y-75044752D01*
X171188486Y-75128014D01*
X171270515Y-75227968D01*
X171301078Y-75265209D01*
X171384743Y-75421734D01*
X171436263Y-75591573D01*
X171453659Y-75768200D01*
X171436263Y-75944827D01*
X171384743Y-76114666D01*
X171301078Y-76271191D01*
X171271748Y-76306929D01*
X171188486Y-76408386D01*
X171114486Y-76469115D01*
X171051291Y-76520978D01*
X170894766Y-76604643D01*
X170724927Y-76656163D01*
X170658742Y-76662682D01*
X170592560Y-76669200D01*
X170504040Y-76669200D01*
X170437858Y-76662682D01*
X170371673Y-76656163D01*
X170201834Y-76604643D01*
X170045309Y-76520978D01*
X169982114Y-76469115D01*
X169908114Y-76408386D01*
X169824852Y-76306929D01*
X169795522Y-76271191D01*
X169711857Y-76114666D01*
X169660337Y-75944827D01*
X169642941Y-75768200D01*
X169660337Y-75591573D01*
X169711857Y-75421734D01*
X169795522Y-75265209D01*
X169826085Y-75227968D01*
X169908114Y-75128014D01*
X170009571Y-75044752D01*
X170045309Y-75015422D01*
X170201834Y-74931757D01*
X170371673Y-74880237D01*
X170437857Y-74873719D01*
X170504040Y-74867200D01*
X170592560Y-74867200D01*
X170658743Y-74873719D01*
X170658743Y-74873719D01*
G37*
M02*
