G04 #@! TF.GenerationSoftware,KiCad,Pcbnew,(5.1.4)-1*
G04 #@! TF.CreationDate,2020-01-22T19:52:42-05:00*
G04 #@! TF.ProjectId,Feather-NEO-M9N-GPS,46656174-6865-4722-9d4e-454f2d4d394e,rev?*
G04 #@! TF.SameCoordinates,Original*
G04 #@! TF.FileFunction,Soldermask,Top*
G04 #@! TF.FilePolarity,Negative*
%FSLAX46Y46*%
G04 Gerber Fmt 4.6, Leading zero omitted, Abs format (unit mm)*
G04 Created by KiCad (PCBNEW (5.1.4)-1) date 2020-01-22 19:52:42*
%MOMM*%
%LPD*%
G04 APERTURE LIST*
%ADD10C,0.100000*%
G04 APERTURE END LIST*
D10*
G36*
X173198743Y-95193719D02*
G01*
X173264927Y-95200237D01*
X173434766Y-95251757D01*
X173591291Y-95335422D01*
X173627029Y-95364752D01*
X173728486Y-95448014D01*
X173811748Y-95549471D01*
X173841078Y-95585209D01*
X173924743Y-95741734D01*
X173976263Y-95911573D01*
X173993659Y-96088200D01*
X173976263Y-96264827D01*
X173924743Y-96434666D01*
X173841078Y-96591191D01*
X173811748Y-96626929D01*
X173728486Y-96728386D01*
X173627029Y-96811648D01*
X173591291Y-96840978D01*
X173434766Y-96924643D01*
X173264927Y-96976163D01*
X173198743Y-96982681D01*
X173132560Y-96989200D01*
X173044040Y-96989200D01*
X172977857Y-96982681D01*
X172911673Y-96976163D01*
X172741834Y-96924643D01*
X172585309Y-96840978D01*
X172549571Y-96811648D01*
X172448114Y-96728386D01*
X172364852Y-96626929D01*
X172335522Y-96591191D01*
X172251857Y-96434666D01*
X172200337Y-96264827D01*
X172182941Y-96088200D01*
X172200337Y-95911573D01*
X172251857Y-95741734D01*
X172335522Y-95585209D01*
X172364852Y-95549471D01*
X172448114Y-95448014D01*
X172549571Y-95364752D01*
X172585309Y-95335422D01*
X172741834Y-95251757D01*
X172911673Y-95200237D01*
X172977857Y-95193719D01*
X173044040Y-95187200D01*
X173132560Y-95187200D01*
X173198743Y-95193719D01*
X173198743Y-95193719D01*
G37*
G36*
X152878743Y-95193719D02*
G01*
X152944927Y-95200237D01*
X153114766Y-95251757D01*
X153271291Y-95335422D01*
X153307029Y-95364752D01*
X153408486Y-95448014D01*
X153491748Y-95549471D01*
X153521078Y-95585209D01*
X153604743Y-95741734D01*
X153656263Y-95911573D01*
X153673659Y-96088200D01*
X153656263Y-96264827D01*
X153604743Y-96434666D01*
X153521078Y-96591191D01*
X153491748Y-96626929D01*
X153408486Y-96728386D01*
X153307029Y-96811648D01*
X153271291Y-96840978D01*
X153114766Y-96924643D01*
X152944927Y-96976163D01*
X152878743Y-96982681D01*
X152812560Y-96989200D01*
X152724040Y-96989200D01*
X152657857Y-96982681D01*
X152591673Y-96976163D01*
X152421834Y-96924643D01*
X152265309Y-96840978D01*
X152229571Y-96811648D01*
X152128114Y-96728386D01*
X152044852Y-96626929D01*
X152015522Y-96591191D01*
X151931857Y-96434666D01*
X151880337Y-96264827D01*
X151862941Y-96088200D01*
X151880337Y-95911573D01*
X151931857Y-95741734D01*
X152015522Y-95585209D01*
X152044852Y-95549471D01*
X152128114Y-95448014D01*
X152229571Y-95364752D01*
X152265309Y-95335422D01*
X152421834Y-95251757D01*
X152591673Y-95200237D01*
X152657857Y-95193719D01*
X152724040Y-95187200D01*
X152812560Y-95187200D01*
X152878743Y-95193719D01*
X152878743Y-95193719D01*
G37*
G36*
X135889300Y-96989200D02*
G01*
X134087300Y-96989200D01*
X134087300Y-95187200D01*
X135889300Y-95187200D01*
X135889300Y-96989200D01*
X135889300Y-96989200D01*
G37*
G36*
X137638743Y-95193719D02*
G01*
X137704927Y-95200237D01*
X137874766Y-95251757D01*
X138031291Y-95335422D01*
X138067029Y-95364752D01*
X138168486Y-95448014D01*
X138251748Y-95549471D01*
X138281078Y-95585209D01*
X138364743Y-95741734D01*
X138416263Y-95911573D01*
X138433659Y-96088200D01*
X138416263Y-96264827D01*
X138364743Y-96434666D01*
X138281078Y-96591191D01*
X138251748Y-96626929D01*
X138168486Y-96728386D01*
X138067029Y-96811648D01*
X138031291Y-96840978D01*
X137874766Y-96924643D01*
X137704927Y-96976163D01*
X137638743Y-96982681D01*
X137572560Y-96989200D01*
X137484040Y-96989200D01*
X137417857Y-96982681D01*
X137351673Y-96976163D01*
X137181834Y-96924643D01*
X137025309Y-96840978D01*
X136989571Y-96811648D01*
X136888114Y-96728386D01*
X136804852Y-96626929D01*
X136775522Y-96591191D01*
X136691857Y-96434666D01*
X136640337Y-96264827D01*
X136622941Y-96088200D01*
X136640337Y-95911573D01*
X136691857Y-95741734D01*
X136775522Y-95585209D01*
X136804852Y-95549471D01*
X136888114Y-95448014D01*
X136989571Y-95364752D01*
X137025309Y-95335422D01*
X137181834Y-95251757D01*
X137351673Y-95200237D01*
X137417857Y-95193719D01*
X137484040Y-95187200D01*
X137572560Y-95187200D01*
X137638743Y-95193719D01*
X137638743Y-95193719D01*
G37*
G36*
X140178743Y-95193719D02*
G01*
X140244927Y-95200237D01*
X140414766Y-95251757D01*
X140571291Y-95335422D01*
X140607029Y-95364752D01*
X140708486Y-95448014D01*
X140791748Y-95549471D01*
X140821078Y-95585209D01*
X140904743Y-95741734D01*
X140956263Y-95911573D01*
X140973659Y-96088200D01*
X140956263Y-96264827D01*
X140904743Y-96434666D01*
X140821078Y-96591191D01*
X140791748Y-96626929D01*
X140708486Y-96728386D01*
X140607029Y-96811648D01*
X140571291Y-96840978D01*
X140414766Y-96924643D01*
X140244927Y-96976163D01*
X140178743Y-96982681D01*
X140112560Y-96989200D01*
X140024040Y-96989200D01*
X139957857Y-96982681D01*
X139891673Y-96976163D01*
X139721834Y-96924643D01*
X139565309Y-96840978D01*
X139529571Y-96811648D01*
X139428114Y-96728386D01*
X139344852Y-96626929D01*
X139315522Y-96591191D01*
X139231857Y-96434666D01*
X139180337Y-96264827D01*
X139162941Y-96088200D01*
X139180337Y-95911573D01*
X139231857Y-95741734D01*
X139315522Y-95585209D01*
X139344852Y-95549471D01*
X139428114Y-95448014D01*
X139529571Y-95364752D01*
X139565309Y-95335422D01*
X139721834Y-95251757D01*
X139891673Y-95200237D01*
X139957857Y-95193719D01*
X140024040Y-95187200D01*
X140112560Y-95187200D01*
X140178743Y-95193719D01*
X140178743Y-95193719D01*
G37*
G36*
X142718743Y-95193719D02*
G01*
X142784927Y-95200237D01*
X142954766Y-95251757D01*
X143111291Y-95335422D01*
X143147029Y-95364752D01*
X143248486Y-95448014D01*
X143331748Y-95549471D01*
X143361078Y-95585209D01*
X143444743Y-95741734D01*
X143496263Y-95911573D01*
X143513659Y-96088200D01*
X143496263Y-96264827D01*
X143444743Y-96434666D01*
X143361078Y-96591191D01*
X143331748Y-96626929D01*
X143248486Y-96728386D01*
X143147029Y-96811648D01*
X143111291Y-96840978D01*
X142954766Y-96924643D01*
X142784927Y-96976163D01*
X142718743Y-96982681D01*
X142652560Y-96989200D01*
X142564040Y-96989200D01*
X142497857Y-96982681D01*
X142431673Y-96976163D01*
X142261834Y-96924643D01*
X142105309Y-96840978D01*
X142069571Y-96811648D01*
X141968114Y-96728386D01*
X141884852Y-96626929D01*
X141855522Y-96591191D01*
X141771857Y-96434666D01*
X141720337Y-96264827D01*
X141702941Y-96088200D01*
X141720337Y-95911573D01*
X141771857Y-95741734D01*
X141855522Y-95585209D01*
X141884852Y-95549471D01*
X141968114Y-95448014D01*
X142069571Y-95364752D01*
X142105309Y-95335422D01*
X142261834Y-95251757D01*
X142431673Y-95200237D01*
X142497857Y-95193719D01*
X142564040Y-95187200D01*
X142652560Y-95187200D01*
X142718743Y-95193719D01*
X142718743Y-95193719D01*
G37*
G36*
X145258743Y-95193719D02*
G01*
X145324927Y-95200237D01*
X145494766Y-95251757D01*
X145651291Y-95335422D01*
X145687029Y-95364752D01*
X145788486Y-95448014D01*
X145871748Y-95549471D01*
X145901078Y-95585209D01*
X145984743Y-95741734D01*
X146036263Y-95911573D01*
X146053659Y-96088200D01*
X146036263Y-96264827D01*
X145984743Y-96434666D01*
X145901078Y-96591191D01*
X145871748Y-96626929D01*
X145788486Y-96728386D01*
X145687029Y-96811648D01*
X145651291Y-96840978D01*
X145494766Y-96924643D01*
X145324927Y-96976163D01*
X145258743Y-96982681D01*
X145192560Y-96989200D01*
X145104040Y-96989200D01*
X145037857Y-96982681D01*
X144971673Y-96976163D01*
X144801834Y-96924643D01*
X144645309Y-96840978D01*
X144609571Y-96811648D01*
X144508114Y-96728386D01*
X144424852Y-96626929D01*
X144395522Y-96591191D01*
X144311857Y-96434666D01*
X144260337Y-96264827D01*
X144242941Y-96088200D01*
X144260337Y-95911573D01*
X144311857Y-95741734D01*
X144395522Y-95585209D01*
X144424852Y-95549471D01*
X144508114Y-95448014D01*
X144609571Y-95364752D01*
X144645309Y-95335422D01*
X144801834Y-95251757D01*
X144971673Y-95200237D01*
X145037857Y-95193719D01*
X145104040Y-95187200D01*
X145192560Y-95187200D01*
X145258743Y-95193719D01*
X145258743Y-95193719D01*
G37*
G36*
X147798743Y-95193719D02*
G01*
X147864927Y-95200237D01*
X148034766Y-95251757D01*
X148191291Y-95335422D01*
X148227029Y-95364752D01*
X148328486Y-95448014D01*
X148411748Y-95549471D01*
X148441078Y-95585209D01*
X148524743Y-95741734D01*
X148576263Y-95911573D01*
X148593659Y-96088200D01*
X148576263Y-96264827D01*
X148524743Y-96434666D01*
X148441078Y-96591191D01*
X148411748Y-96626929D01*
X148328486Y-96728386D01*
X148227029Y-96811648D01*
X148191291Y-96840978D01*
X148034766Y-96924643D01*
X147864927Y-96976163D01*
X147798743Y-96982681D01*
X147732560Y-96989200D01*
X147644040Y-96989200D01*
X147577857Y-96982681D01*
X147511673Y-96976163D01*
X147341834Y-96924643D01*
X147185309Y-96840978D01*
X147149571Y-96811648D01*
X147048114Y-96728386D01*
X146964852Y-96626929D01*
X146935522Y-96591191D01*
X146851857Y-96434666D01*
X146800337Y-96264827D01*
X146782941Y-96088200D01*
X146800337Y-95911573D01*
X146851857Y-95741734D01*
X146935522Y-95585209D01*
X146964852Y-95549471D01*
X147048114Y-95448014D01*
X147149571Y-95364752D01*
X147185309Y-95335422D01*
X147341834Y-95251757D01*
X147511673Y-95200237D01*
X147577857Y-95193719D01*
X147644040Y-95187200D01*
X147732560Y-95187200D01*
X147798743Y-95193719D01*
X147798743Y-95193719D01*
G37*
G36*
X150338743Y-95193719D02*
G01*
X150404927Y-95200237D01*
X150574766Y-95251757D01*
X150731291Y-95335422D01*
X150767029Y-95364752D01*
X150868486Y-95448014D01*
X150951748Y-95549471D01*
X150981078Y-95585209D01*
X151064743Y-95741734D01*
X151116263Y-95911573D01*
X151133659Y-96088200D01*
X151116263Y-96264827D01*
X151064743Y-96434666D01*
X150981078Y-96591191D01*
X150951748Y-96626929D01*
X150868486Y-96728386D01*
X150767029Y-96811648D01*
X150731291Y-96840978D01*
X150574766Y-96924643D01*
X150404927Y-96976163D01*
X150338743Y-96982681D01*
X150272560Y-96989200D01*
X150184040Y-96989200D01*
X150117857Y-96982681D01*
X150051673Y-96976163D01*
X149881834Y-96924643D01*
X149725309Y-96840978D01*
X149689571Y-96811648D01*
X149588114Y-96728386D01*
X149504852Y-96626929D01*
X149475522Y-96591191D01*
X149391857Y-96434666D01*
X149340337Y-96264827D01*
X149322941Y-96088200D01*
X149340337Y-95911573D01*
X149391857Y-95741734D01*
X149475522Y-95585209D01*
X149504852Y-95549471D01*
X149588114Y-95448014D01*
X149689571Y-95364752D01*
X149725309Y-95335422D01*
X149881834Y-95251757D01*
X150051673Y-95200237D01*
X150117857Y-95193719D01*
X150184040Y-95187200D01*
X150272560Y-95187200D01*
X150338743Y-95193719D01*
X150338743Y-95193719D01*
G37*
G36*
X157958743Y-95193719D02*
G01*
X158024927Y-95200237D01*
X158194766Y-95251757D01*
X158351291Y-95335422D01*
X158387029Y-95364752D01*
X158488486Y-95448014D01*
X158571748Y-95549471D01*
X158601078Y-95585209D01*
X158684743Y-95741734D01*
X158736263Y-95911573D01*
X158753659Y-96088200D01*
X158736263Y-96264827D01*
X158684743Y-96434666D01*
X158601078Y-96591191D01*
X158571748Y-96626929D01*
X158488486Y-96728386D01*
X158387029Y-96811648D01*
X158351291Y-96840978D01*
X158194766Y-96924643D01*
X158024927Y-96976163D01*
X157958743Y-96982681D01*
X157892560Y-96989200D01*
X157804040Y-96989200D01*
X157737857Y-96982681D01*
X157671673Y-96976163D01*
X157501834Y-96924643D01*
X157345309Y-96840978D01*
X157309571Y-96811648D01*
X157208114Y-96728386D01*
X157124852Y-96626929D01*
X157095522Y-96591191D01*
X157011857Y-96434666D01*
X156960337Y-96264827D01*
X156942941Y-96088200D01*
X156960337Y-95911573D01*
X157011857Y-95741734D01*
X157095522Y-95585209D01*
X157124852Y-95549471D01*
X157208114Y-95448014D01*
X157309571Y-95364752D01*
X157345309Y-95335422D01*
X157501834Y-95251757D01*
X157671673Y-95200237D01*
X157737857Y-95193719D01*
X157804040Y-95187200D01*
X157892560Y-95187200D01*
X157958743Y-95193719D01*
X157958743Y-95193719D01*
G37*
G36*
X155418743Y-95193719D02*
G01*
X155484927Y-95200237D01*
X155654766Y-95251757D01*
X155811291Y-95335422D01*
X155847029Y-95364752D01*
X155948486Y-95448014D01*
X156031748Y-95549471D01*
X156061078Y-95585209D01*
X156144743Y-95741734D01*
X156196263Y-95911573D01*
X156213659Y-96088200D01*
X156196263Y-96264827D01*
X156144743Y-96434666D01*
X156061078Y-96591191D01*
X156031748Y-96626929D01*
X155948486Y-96728386D01*
X155847029Y-96811648D01*
X155811291Y-96840978D01*
X155654766Y-96924643D01*
X155484927Y-96976163D01*
X155418743Y-96982681D01*
X155352560Y-96989200D01*
X155264040Y-96989200D01*
X155197857Y-96982681D01*
X155131673Y-96976163D01*
X154961834Y-96924643D01*
X154805309Y-96840978D01*
X154769571Y-96811648D01*
X154668114Y-96728386D01*
X154584852Y-96626929D01*
X154555522Y-96591191D01*
X154471857Y-96434666D01*
X154420337Y-96264827D01*
X154402941Y-96088200D01*
X154420337Y-95911573D01*
X154471857Y-95741734D01*
X154555522Y-95585209D01*
X154584852Y-95549471D01*
X154668114Y-95448014D01*
X154769571Y-95364752D01*
X154805309Y-95335422D01*
X154961834Y-95251757D01*
X155131673Y-95200237D01*
X155197857Y-95193719D01*
X155264040Y-95187200D01*
X155352560Y-95187200D01*
X155418743Y-95193719D01*
X155418743Y-95193719D01*
G37*
G36*
X170658743Y-95193719D02*
G01*
X170724927Y-95200237D01*
X170894766Y-95251757D01*
X171051291Y-95335422D01*
X171087029Y-95364752D01*
X171188486Y-95448014D01*
X171271748Y-95549471D01*
X171301078Y-95585209D01*
X171384743Y-95741734D01*
X171436263Y-95911573D01*
X171453659Y-96088200D01*
X171436263Y-96264827D01*
X171384743Y-96434666D01*
X171301078Y-96591191D01*
X171271748Y-96626929D01*
X171188486Y-96728386D01*
X171087029Y-96811648D01*
X171051291Y-96840978D01*
X170894766Y-96924643D01*
X170724927Y-96976163D01*
X170658743Y-96982681D01*
X170592560Y-96989200D01*
X170504040Y-96989200D01*
X170437857Y-96982681D01*
X170371673Y-96976163D01*
X170201834Y-96924643D01*
X170045309Y-96840978D01*
X170009571Y-96811648D01*
X169908114Y-96728386D01*
X169824852Y-96626929D01*
X169795522Y-96591191D01*
X169711857Y-96434666D01*
X169660337Y-96264827D01*
X169642941Y-96088200D01*
X169660337Y-95911573D01*
X169711857Y-95741734D01*
X169795522Y-95585209D01*
X169824852Y-95549471D01*
X169908114Y-95448014D01*
X170009571Y-95364752D01*
X170045309Y-95335422D01*
X170201834Y-95251757D01*
X170371673Y-95200237D01*
X170437857Y-95193719D01*
X170504040Y-95187200D01*
X170592560Y-95187200D01*
X170658743Y-95193719D01*
X170658743Y-95193719D01*
G37*
G36*
X168118743Y-95193719D02*
G01*
X168184927Y-95200237D01*
X168354766Y-95251757D01*
X168511291Y-95335422D01*
X168547029Y-95364752D01*
X168648486Y-95448014D01*
X168731748Y-95549471D01*
X168761078Y-95585209D01*
X168844743Y-95741734D01*
X168896263Y-95911573D01*
X168913659Y-96088200D01*
X168896263Y-96264827D01*
X168844743Y-96434666D01*
X168761078Y-96591191D01*
X168731748Y-96626929D01*
X168648486Y-96728386D01*
X168547029Y-96811648D01*
X168511291Y-96840978D01*
X168354766Y-96924643D01*
X168184927Y-96976163D01*
X168118743Y-96982681D01*
X168052560Y-96989200D01*
X167964040Y-96989200D01*
X167897857Y-96982681D01*
X167831673Y-96976163D01*
X167661834Y-96924643D01*
X167505309Y-96840978D01*
X167469571Y-96811648D01*
X167368114Y-96728386D01*
X167284852Y-96626929D01*
X167255522Y-96591191D01*
X167171857Y-96434666D01*
X167120337Y-96264827D01*
X167102941Y-96088200D01*
X167120337Y-95911573D01*
X167171857Y-95741734D01*
X167255522Y-95585209D01*
X167284852Y-95549471D01*
X167368114Y-95448014D01*
X167469571Y-95364752D01*
X167505309Y-95335422D01*
X167661834Y-95251757D01*
X167831673Y-95200237D01*
X167897857Y-95193719D01*
X167964040Y-95187200D01*
X168052560Y-95187200D01*
X168118743Y-95193719D01*
X168118743Y-95193719D01*
G37*
G36*
X163038743Y-95193719D02*
G01*
X163104927Y-95200237D01*
X163274766Y-95251757D01*
X163431291Y-95335422D01*
X163467029Y-95364752D01*
X163568486Y-95448014D01*
X163651748Y-95549471D01*
X163681078Y-95585209D01*
X163764743Y-95741734D01*
X163816263Y-95911573D01*
X163833659Y-96088200D01*
X163816263Y-96264827D01*
X163764743Y-96434666D01*
X163681078Y-96591191D01*
X163651748Y-96626929D01*
X163568486Y-96728386D01*
X163467029Y-96811648D01*
X163431291Y-96840978D01*
X163274766Y-96924643D01*
X163104927Y-96976163D01*
X163038743Y-96982681D01*
X162972560Y-96989200D01*
X162884040Y-96989200D01*
X162817857Y-96982681D01*
X162751673Y-96976163D01*
X162581834Y-96924643D01*
X162425309Y-96840978D01*
X162389571Y-96811648D01*
X162288114Y-96728386D01*
X162204852Y-96626929D01*
X162175522Y-96591191D01*
X162091857Y-96434666D01*
X162040337Y-96264827D01*
X162022941Y-96088200D01*
X162040337Y-95911573D01*
X162091857Y-95741734D01*
X162175522Y-95585209D01*
X162204852Y-95549471D01*
X162288114Y-95448014D01*
X162389571Y-95364752D01*
X162425309Y-95335422D01*
X162581834Y-95251757D01*
X162751673Y-95200237D01*
X162817857Y-95193719D01*
X162884040Y-95187200D01*
X162972560Y-95187200D01*
X163038743Y-95193719D01*
X163038743Y-95193719D01*
G37*
G36*
X160498743Y-95193719D02*
G01*
X160564927Y-95200237D01*
X160734766Y-95251757D01*
X160891291Y-95335422D01*
X160927029Y-95364752D01*
X161028486Y-95448014D01*
X161111748Y-95549471D01*
X161141078Y-95585209D01*
X161224743Y-95741734D01*
X161276263Y-95911573D01*
X161293659Y-96088200D01*
X161276263Y-96264827D01*
X161224743Y-96434666D01*
X161141078Y-96591191D01*
X161111748Y-96626929D01*
X161028486Y-96728386D01*
X160927029Y-96811648D01*
X160891291Y-96840978D01*
X160734766Y-96924643D01*
X160564927Y-96976163D01*
X160498743Y-96982681D01*
X160432560Y-96989200D01*
X160344040Y-96989200D01*
X160277857Y-96982681D01*
X160211673Y-96976163D01*
X160041834Y-96924643D01*
X159885309Y-96840978D01*
X159849571Y-96811648D01*
X159748114Y-96728386D01*
X159664852Y-96626929D01*
X159635522Y-96591191D01*
X159551857Y-96434666D01*
X159500337Y-96264827D01*
X159482941Y-96088200D01*
X159500337Y-95911573D01*
X159551857Y-95741734D01*
X159635522Y-95585209D01*
X159664852Y-95549471D01*
X159748114Y-95448014D01*
X159849571Y-95364752D01*
X159885309Y-95335422D01*
X160041834Y-95251757D01*
X160211673Y-95200237D01*
X160277857Y-95193719D01*
X160344040Y-95187200D01*
X160432560Y-95187200D01*
X160498743Y-95193719D01*
X160498743Y-95193719D01*
G37*
G36*
X165578743Y-95193719D02*
G01*
X165644927Y-95200237D01*
X165814766Y-95251757D01*
X165971291Y-95335422D01*
X166007029Y-95364752D01*
X166108486Y-95448014D01*
X166191748Y-95549471D01*
X166221078Y-95585209D01*
X166304743Y-95741734D01*
X166356263Y-95911573D01*
X166373659Y-96088200D01*
X166356263Y-96264827D01*
X166304743Y-96434666D01*
X166221078Y-96591191D01*
X166191748Y-96626929D01*
X166108486Y-96728386D01*
X166007029Y-96811648D01*
X165971291Y-96840978D01*
X165814766Y-96924643D01*
X165644927Y-96976163D01*
X165578743Y-96982681D01*
X165512560Y-96989200D01*
X165424040Y-96989200D01*
X165357857Y-96982681D01*
X165291673Y-96976163D01*
X165121834Y-96924643D01*
X164965309Y-96840978D01*
X164929571Y-96811648D01*
X164828114Y-96728386D01*
X164744852Y-96626929D01*
X164715522Y-96591191D01*
X164631857Y-96434666D01*
X164580337Y-96264827D01*
X164562941Y-96088200D01*
X164580337Y-95911573D01*
X164631857Y-95741734D01*
X164715522Y-95585209D01*
X164744852Y-95549471D01*
X164828114Y-95448014D01*
X164929571Y-95364752D01*
X164965309Y-95335422D01*
X165121834Y-95251757D01*
X165291673Y-95200237D01*
X165357857Y-95193719D01*
X165424040Y-95187200D01*
X165512560Y-95187200D01*
X165578743Y-95193719D01*
X165578743Y-95193719D01*
G37*
G36*
X131747385Y-92942175D02*
G01*
X132102443Y-93089245D01*
X132102445Y-93089246D01*
X132421990Y-93302759D01*
X132693741Y-93574510D01*
X132849518Y-93807647D01*
X132907255Y-93894057D01*
X133054325Y-94249115D01*
X133129300Y-94626042D01*
X133129300Y-95010358D01*
X133054325Y-95387285D01*
X132972342Y-95585209D01*
X132907254Y-95742345D01*
X132693741Y-96061890D01*
X132421990Y-96333641D01*
X132102445Y-96547154D01*
X132102444Y-96547155D01*
X132102443Y-96547155D01*
X131747385Y-96694225D01*
X131370458Y-96769200D01*
X130986142Y-96769200D01*
X130609215Y-96694225D01*
X130254157Y-96547155D01*
X130254156Y-96547155D01*
X130254155Y-96547154D01*
X129934610Y-96333641D01*
X129662859Y-96061890D01*
X129449346Y-95742345D01*
X129384258Y-95585209D01*
X129302275Y-95387285D01*
X129227300Y-95010358D01*
X129227300Y-94626042D01*
X129302275Y-94249115D01*
X129449345Y-93894057D01*
X129507082Y-93807647D01*
X129662859Y-93574510D01*
X129934610Y-93302759D01*
X130254155Y-93089246D01*
X130254157Y-93089245D01*
X130609215Y-92942175D01*
X130986142Y-92867200D01*
X131370458Y-92867200D01*
X131747385Y-92942175D01*
X131747385Y-92942175D01*
G37*
G36*
X177277787Y-93567196D02*
G01*
X177514553Y-93665268D01*
X177514555Y-93665269D01*
X177599728Y-93722180D01*
X177727639Y-93807647D01*
X177908853Y-93988861D01*
X178051232Y-94201947D01*
X178149304Y-94438713D01*
X178199300Y-94690061D01*
X178199300Y-94946339D01*
X178149304Y-95197687D01*
X178070769Y-95387286D01*
X178051231Y-95434455D01*
X177908853Y-95647539D01*
X177727639Y-95828753D01*
X177514555Y-95971131D01*
X177514554Y-95971132D01*
X177514553Y-95971132D01*
X177277787Y-96069204D01*
X177026439Y-96119200D01*
X176770161Y-96119200D01*
X176518813Y-96069204D01*
X176282047Y-95971132D01*
X176282046Y-95971132D01*
X176282045Y-95971131D01*
X176068961Y-95828753D01*
X175887747Y-95647539D01*
X175745369Y-95434455D01*
X175725831Y-95387286D01*
X175647296Y-95197687D01*
X175597300Y-94946339D01*
X175597300Y-94690061D01*
X175647296Y-94438713D01*
X175745368Y-94201947D01*
X175887747Y-93988861D01*
X176068961Y-93807647D01*
X176196872Y-93722180D01*
X176282045Y-93665269D01*
X176282047Y-93665268D01*
X176518813Y-93567196D01*
X176770161Y-93517200D01*
X177026439Y-93517200D01*
X177277787Y-93567196D01*
X177277787Y-93567196D01*
G37*
G36*
X139305800Y-94509600D02*
G01*
X138153800Y-94509600D01*
X138153800Y-93907600D01*
X139305800Y-93907600D01*
X139305800Y-94509600D01*
X139305800Y-94509600D01*
G37*
G36*
X137029800Y-94509600D02*
G01*
X135877800Y-94509600D01*
X135877800Y-93907600D01*
X137029800Y-93907600D01*
X137029800Y-94509600D01*
X137029800Y-94509600D01*
G37*
G36*
X174842360Y-94324180D02*
G01*
X174240360Y-94324180D01*
X174240360Y-93722180D01*
X174842360Y-93722180D01*
X174842360Y-94324180D01*
X174842360Y-94324180D01*
G37*
G36*
X172642360Y-94324180D02*
G01*
X172040360Y-94324180D01*
X172040360Y-93722180D01*
X172642360Y-93722180D01*
X172642360Y-94324180D01*
X172642360Y-94324180D01*
G37*
G36*
X147289900Y-94303800D02*
G01*
X144987900Y-94303800D01*
X144987900Y-93151800D01*
X147289900Y-93151800D01*
X147289900Y-94303800D01*
X147289900Y-94303800D01*
G37*
G36*
X165904000Y-93848900D02*
G01*
X163900800Y-93848900D01*
X163900800Y-88445700D01*
X165904000Y-88445700D01*
X165904000Y-93848900D01*
X165904000Y-93848900D01*
G37*
G36*
X153904000Y-93848900D02*
G01*
X151900800Y-93848900D01*
X151900800Y-88445700D01*
X153904000Y-88445700D01*
X153904000Y-93848900D01*
X153904000Y-93848900D01*
G37*
G36*
X173516151Y-91913265D02*
G01*
X173550129Y-91923573D01*
X173581450Y-91940314D01*
X173608899Y-91962841D01*
X173631426Y-91990290D01*
X173648167Y-92021611D01*
X173658475Y-92055589D01*
X173662560Y-92097070D01*
X173662560Y-92698290D01*
X173658475Y-92739771D01*
X173648167Y-92773749D01*
X173631426Y-92805070D01*
X173608899Y-92832519D01*
X173581450Y-92855046D01*
X173550129Y-92871787D01*
X173516151Y-92882095D01*
X173474670Y-92886180D01*
X172798450Y-92886180D01*
X172756969Y-92882095D01*
X172722991Y-92871787D01*
X172691670Y-92855046D01*
X172664221Y-92832519D01*
X172641694Y-92805070D01*
X172624953Y-92773749D01*
X172614645Y-92739771D01*
X172610560Y-92698290D01*
X172610560Y-92097070D01*
X172614645Y-92055589D01*
X172624953Y-92021611D01*
X172641694Y-91990290D01*
X172664221Y-91962841D01*
X172691670Y-91940314D01*
X172722991Y-91923573D01*
X172756969Y-91913265D01*
X172798450Y-91909180D01*
X173474670Y-91909180D01*
X173516151Y-91913265D01*
X173516151Y-91913265D01*
G37*
G36*
X177630951Y-91887865D02*
G01*
X177664929Y-91898173D01*
X177696250Y-91914914D01*
X177723699Y-91937441D01*
X177746226Y-91964890D01*
X177762967Y-91996211D01*
X177773275Y-92030189D01*
X177777360Y-92071670D01*
X177777360Y-92672890D01*
X177773275Y-92714371D01*
X177762967Y-92748349D01*
X177746226Y-92779670D01*
X177723699Y-92807119D01*
X177696250Y-92829646D01*
X177664929Y-92846387D01*
X177630951Y-92856695D01*
X177589470Y-92860780D01*
X176913250Y-92860780D01*
X176871769Y-92856695D01*
X176837791Y-92846387D01*
X176806470Y-92829646D01*
X176779021Y-92807119D01*
X176756494Y-92779670D01*
X176739753Y-92748349D01*
X176729445Y-92714371D01*
X176725360Y-92672890D01*
X176725360Y-92071670D01*
X176729445Y-92030189D01*
X176739753Y-91996211D01*
X176756494Y-91964890D01*
X176779021Y-91937441D01*
X176806470Y-91914914D01*
X176837791Y-91898173D01*
X176871769Y-91887865D01*
X176913250Y-91883780D01*
X177589470Y-91883780D01*
X177630951Y-91887865D01*
X177630951Y-91887865D01*
G37*
G36*
X148239900Y-92803800D02*
G01*
X147087900Y-92803800D01*
X147087900Y-91701800D01*
X148239900Y-91701800D01*
X148239900Y-92803800D01*
X148239900Y-92803800D01*
G37*
G36*
X150342868Y-91703865D02*
G01*
X150381538Y-91715596D01*
X150417177Y-91734646D01*
X150448417Y-91760283D01*
X150474054Y-91791523D01*
X150493104Y-91827162D01*
X150504835Y-91865832D01*
X150509400Y-91912188D01*
X150509400Y-92563412D01*
X150504835Y-92609768D01*
X150493104Y-92648438D01*
X150474054Y-92684077D01*
X150448417Y-92715317D01*
X150417177Y-92740954D01*
X150381538Y-92760004D01*
X150342868Y-92771735D01*
X150296512Y-92776300D01*
X149220288Y-92776300D01*
X149173932Y-92771735D01*
X149135262Y-92760004D01*
X149099623Y-92740954D01*
X149068383Y-92715317D01*
X149042746Y-92684077D01*
X149023696Y-92648438D01*
X149011965Y-92609768D01*
X149007400Y-92563412D01*
X149007400Y-91912188D01*
X149011965Y-91865832D01*
X149023696Y-91827162D01*
X149042746Y-91791523D01*
X149068383Y-91760283D01*
X149099623Y-91734646D01*
X149135262Y-91715596D01*
X149173932Y-91703865D01*
X149220288Y-91699300D01*
X150296512Y-91699300D01*
X150342868Y-91703865D01*
X150342868Y-91703865D01*
G37*
G36*
X137961800Y-92727900D02*
G01*
X136799800Y-92727900D01*
X136799800Y-90075900D01*
X137961800Y-90075900D01*
X137961800Y-92727900D01*
X137961800Y-92727900D01*
G37*
G36*
X140161800Y-92727900D02*
G01*
X138999800Y-92727900D01*
X138999800Y-91975900D01*
X140161800Y-91975900D01*
X140161800Y-92727900D01*
X140161800Y-92727900D01*
G37*
G36*
X141425791Y-91704985D02*
G01*
X141459769Y-91715293D01*
X141491090Y-91732034D01*
X141518539Y-91754561D01*
X141541066Y-91782010D01*
X141557807Y-91813331D01*
X141568115Y-91847309D01*
X141572200Y-91888790D01*
X141572200Y-92490010D01*
X141568115Y-92531491D01*
X141557807Y-92565469D01*
X141541066Y-92596790D01*
X141518539Y-92624239D01*
X141491090Y-92646766D01*
X141459769Y-92663507D01*
X141425791Y-92673815D01*
X141384310Y-92677900D01*
X140708090Y-92677900D01*
X140666609Y-92673815D01*
X140632631Y-92663507D01*
X140601310Y-92646766D01*
X140573861Y-92624239D01*
X140551334Y-92596790D01*
X140534593Y-92565469D01*
X140524285Y-92531491D01*
X140520200Y-92490010D01*
X140520200Y-91888790D01*
X140524285Y-91847309D01*
X140534593Y-91813331D01*
X140551334Y-91782010D01*
X140573861Y-91754561D01*
X140601310Y-91732034D01*
X140632631Y-91715293D01*
X140666609Y-91704985D01*
X140708090Y-91700900D01*
X141384310Y-91700900D01*
X141425791Y-91704985D01*
X141425791Y-91704985D01*
G37*
G36*
X142784691Y-91704985D02*
G01*
X142818669Y-91715293D01*
X142849990Y-91732034D01*
X142877439Y-91754561D01*
X142899966Y-91782010D01*
X142916707Y-91813331D01*
X142927015Y-91847309D01*
X142931100Y-91888790D01*
X142931100Y-92490010D01*
X142927015Y-92531491D01*
X142916707Y-92565469D01*
X142899966Y-92596790D01*
X142877439Y-92624239D01*
X142849990Y-92646766D01*
X142818669Y-92663507D01*
X142784691Y-92673815D01*
X142743210Y-92677900D01*
X142066990Y-92677900D01*
X142025509Y-92673815D01*
X141991531Y-92663507D01*
X141960210Y-92646766D01*
X141932761Y-92624239D01*
X141910234Y-92596790D01*
X141893493Y-92565469D01*
X141883185Y-92531491D01*
X141879100Y-92490010D01*
X141879100Y-91888790D01*
X141883185Y-91847309D01*
X141893493Y-91813331D01*
X141910234Y-91782010D01*
X141932761Y-91754561D01*
X141960210Y-91732034D01*
X141991531Y-91715293D01*
X142025509Y-91704985D01*
X142066990Y-91700900D01*
X142743210Y-91700900D01*
X142784691Y-91704985D01*
X142784691Y-91704985D01*
G37*
G36*
X134923391Y-91692285D02*
G01*
X134957369Y-91702593D01*
X134988690Y-91719334D01*
X135016139Y-91741861D01*
X135038666Y-91769310D01*
X135055407Y-91800631D01*
X135065715Y-91834609D01*
X135069800Y-91876090D01*
X135069800Y-92477310D01*
X135065715Y-92518791D01*
X135055407Y-92552769D01*
X135038666Y-92584090D01*
X135016139Y-92611539D01*
X134988690Y-92634066D01*
X134957369Y-92650807D01*
X134923391Y-92661115D01*
X134881910Y-92665200D01*
X134205690Y-92665200D01*
X134164209Y-92661115D01*
X134130231Y-92650807D01*
X134098910Y-92634066D01*
X134071461Y-92611539D01*
X134048934Y-92584090D01*
X134032193Y-92552769D01*
X134021885Y-92518791D01*
X134017800Y-92477310D01*
X134017800Y-91876090D01*
X134021885Y-91834609D01*
X134032193Y-91800631D01*
X134048934Y-91769310D01*
X134071461Y-91741861D01*
X134098910Y-91719334D01*
X134130231Y-91702593D01*
X134164209Y-91692285D01*
X134205690Y-91688200D01*
X134881910Y-91688200D01*
X134923391Y-91692285D01*
X134923391Y-91692285D01*
G37*
G36*
X136333091Y-91666885D02*
G01*
X136367069Y-91677193D01*
X136398390Y-91693934D01*
X136425839Y-91716461D01*
X136448366Y-91743910D01*
X136465107Y-91775231D01*
X136475415Y-91809209D01*
X136479500Y-91850690D01*
X136479500Y-92451910D01*
X136475415Y-92493391D01*
X136465107Y-92527369D01*
X136448366Y-92558690D01*
X136425839Y-92586139D01*
X136398390Y-92608666D01*
X136367069Y-92625407D01*
X136333091Y-92635715D01*
X136291610Y-92639800D01*
X135615390Y-92639800D01*
X135573909Y-92635715D01*
X135539931Y-92625407D01*
X135508610Y-92608666D01*
X135481161Y-92586139D01*
X135458634Y-92558690D01*
X135441893Y-92527369D01*
X135431585Y-92493391D01*
X135427500Y-92451910D01*
X135427500Y-91850690D01*
X135431585Y-91809209D01*
X135441893Y-91775231D01*
X135458634Y-91743910D01*
X135481161Y-91716461D01*
X135508610Y-91693934D01*
X135539931Y-91677193D01*
X135573909Y-91666885D01*
X135615390Y-91662800D01*
X136291610Y-91662800D01*
X136333091Y-91666885D01*
X136333091Y-91666885D01*
G37*
G36*
X176394960Y-92610380D02*
G01*
X175492960Y-92610380D01*
X175492960Y-90508380D01*
X176394960Y-90508380D01*
X176394960Y-92610380D01*
X176394960Y-92610380D01*
G37*
G36*
X174894960Y-92610380D02*
G01*
X173992960Y-92610380D01*
X173992960Y-90508380D01*
X174894960Y-90508380D01*
X174894960Y-92610380D01*
X174894960Y-92610380D01*
G37*
G36*
X131108840Y-84944881D02*
G01*
X131111242Y-84969267D01*
X131118355Y-84992716D01*
X131129906Y-85014327D01*
X131145451Y-85033269D01*
X131164393Y-85048814D01*
X131186004Y-85060365D01*
X131209453Y-85067478D01*
X131233839Y-85069880D01*
X133508840Y-85069880D01*
X133508840Y-91571880D01*
X131233839Y-91571880D01*
X131209453Y-91574282D01*
X131186004Y-91581395D01*
X131164393Y-91592946D01*
X131145451Y-91608491D01*
X131129906Y-91627433D01*
X131118355Y-91649044D01*
X131111242Y-91672493D01*
X131108840Y-91696879D01*
X131108840Y-92469380D01*
X129106840Y-92469380D01*
X129106840Y-88522380D01*
X131108840Y-88522380D01*
X131108840Y-89869881D01*
X131111242Y-89894267D01*
X131118355Y-89917716D01*
X131129906Y-89939327D01*
X131145451Y-89958269D01*
X131164393Y-89973814D01*
X131186004Y-89985365D01*
X131209453Y-89992478D01*
X131233839Y-89994880D01*
X131901841Y-89994880D01*
X131926227Y-89992478D01*
X131949676Y-89985365D01*
X131971287Y-89973814D01*
X131990229Y-89958269D01*
X132005774Y-89939327D01*
X132017325Y-89917716D01*
X132024438Y-89894267D01*
X132026840Y-89869881D01*
X132026840Y-86771879D01*
X132024438Y-86747493D01*
X132017325Y-86724044D01*
X132005774Y-86702433D01*
X131990229Y-86683491D01*
X131971287Y-86667946D01*
X131949676Y-86656395D01*
X131926227Y-86649282D01*
X131901841Y-86646880D01*
X131233839Y-86646880D01*
X131209453Y-86649282D01*
X131186004Y-86656395D01*
X131164393Y-86667946D01*
X131145451Y-86683491D01*
X131129906Y-86702433D01*
X131118355Y-86724044D01*
X131111242Y-86747493D01*
X131108840Y-86771879D01*
X131108840Y-88119380D01*
X129106840Y-88119380D01*
X129106840Y-84172380D01*
X131108840Y-84172380D01*
X131108840Y-84944881D01*
X131108840Y-84944881D01*
G37*
G36*
X168415831Y-90508645D02*
G01*
X168449809Y-90518953D01*
X168481130Y-90535694D01*
X168508579Y-90558221D01*
X168531106Y-90585670D01*
X168547847Y-90616991D01*
X168558155Y-90650969D01*
X168562240Y-90692450D01*
X168562240Y-91293670D01*
X168558155Y-91335151D01*
X168547847Y-91369129D01*
X168531106Y-91400450D01*
X168508579Y-91427899D01*
X168481130Y-91450426D01*
X168449809Y-91467167D01*
X168415831Y-91477475D01*
X168374350Y-91481560D01*
X167698130Y-91481560D01*
X167656649Y-91477475D01*
X167622671Y-91467167D01*
X167591350Y-91450426D01*
X167563901Y-91427899D01*
X167541374Y-91400450D01*
X167524633Y-91369129D01*
X167514325Y-91335151D01*
X167510240Y-91293670D01*
X167510240Y-90692450D01*
X167514325Y-90650969D01*
X167524633Y-90616991D01*
X167541374Y-90585670D01*
X167563901Y-90558221D01*
X167591350Y-90535694D01*
X167622671Y-90518953D01*
X167656649Y-90508645D01*
X167698130Y-90504560D01*
X168374350Y-90504560D01*
X168415831Y-90508645D01*
X168415831Y-90508645D01*
G37*
G36*
X169883951Y-90508645D02*
G01*
X169917929Y-90518953D01*
X169949250Y-90535694D01*
X169976699Y-90558221D01*
X169999226Y-90585670D01*
X170015967Y-90616991D01*
X170026275Y-90650969D01*
X170030360Y-90692450D01*
X170030360Y-91293670D01*
X170026275Y-91335151D01*
X170015967Y-91369129D01*
X169999226Y-91400450D01*
X169976699Y-91427899D01*
X169949250Y-91450426D01*
X169917929Y-91467167D01*
X169883951Y-91477475D01*
X169842470Y-91481560D01*
X169166250Y-91481560D01*
X169124769Y-91477475D01*
X169090791Y-91467167D01*
X169059470Y-91450426D01*
X169032021Y-91427899D01*
X169009494Y-91400450D01*
X168992753Y-91369129D01*
X168982445Y-91335151D01*
X168978360Y-91293670D01*
X168978360Y-90692450D01*
X168982445Y-90650969D01*
X168992753Y-90616991D01*
X169009494Y-90585670D01*
X169032021Y-90558221D01*
X169059470Y-90535694D01*
X169090791Y-90518953D01*
X169124769Y-90508645D01*
X169166250Y-90504560D01*
X169842470Y-90504560D01*
X169883951Y-90508645D01*
X169883951Y-90508645D01*
G37*
G36*
X147289900Y-91353800D02*
G01*
X144987900Y-91353800D01*
X144987900Y-90201800D01*
X147289900Y-90201800D01*
X147289900Y-91353800D01*
X147289900Y-91353800D01*
G37*
G36*
X173516151Y-90338265D02*
G01*
X173550129Y-90348573D01*
X173581450Y-90365314D01*
X173608899Y-90387841D01*
X173631426Y-90415290D01*
X173648167Y-90446611D01*
X173658475Y-90480589D01*
X173662560Y-90522070D01*
X173662560Y-91123290D01*
X173658475Y-91164771D01*
X173648167Y-91198749D01*
X173631426Y-91230070D01*
X173608899Y-91257519D01*
X173581450Y-91280046D01*
X173550129Y-91296787D01*
X173516151Y-91307095D01*
X173474670Y-91311180D01*
X172798450Y-91311180D01*
X172756969Y-91307095D01*
X172722991Y-91296787D01*
X172691670Y-91280046D01*
X172664221Y-91257519D01*
X172641694Y-91230070D01*
X172624953Y-91198749D01*
X172614645Y-91164771D01*
X172610560Y-91123290D01*
X172610560Y-90522070D01*
X172614645Y-90480589D01*
X172624953Y-90446611D01*
X172641694Y-90415290D01*
X172664221Y-90387841D01*
X172691670Y-90365314D01*
X172722991Y-90348573D01*
X172756969Y-90338265D01*
X172798450Y-90334180D01*
X173474670Y-90334180D01*
X173516151Y-90338265D01*
X173516151Y-90338265D01*
G37*
G36*
X177630951Y-90312865D02*
G01*
X177664929Y-90323173D01*
X177696250Y-90339914D01*
X177723699Y-90362441D01*
X177746226Y-90389890D01*
X177762967Y-90421211D01*
X177773275Y-90455189D01*
X177777360Y-90496670D01*
X177777360Y-91097890D01*
X177773275Y-91139371D01*
X177762967Y-91173349D01*
X177746226Y-91204670D01*
X177723699Y-91232119D01*
X177696250Y-91254646D01*
X177664929Y-91271387D01*
X177630951Y-91281695D01*
X177589470Y-91285780D01*
X176913250Y-91285780D01*
X176871769Y-91281695D01*
X176837791Y-91271387D01*
X176806470Y-91254646D01*
X176779021Y-91232119D01*
X176756494Y-91204670D01*
X176739753Y-91173349D01*
X176729445Y-91139371D01*
X176725360Y-91097890D01*
X176725360Y-90496670D01*
X176729445Y-90455189D01*
X176739753Y-90421211D01*
X176756494Y-90389890D01*
X176779021Y-90362441D01*
X176806470Y-90339914D01*
X176837791Y-90323173D01*
X176871769Y-90312865D01*
X176913250Y-90308780D01*
X177589470Y-90308780D01*
X177630951Y-90312865D01*
X177630951Y-90312865D01*
G37*
G36*
X141425791Y-90129985D02*
G01*
X141459769Y-90140293D01*
X141491090Y-90157034D01*
X141518539Y-90179561D01*
X141541066Y-90207010D01*
X141557807Y-90238331D01*
X141568115Y-90272309D01*
X141572200Y-90313790D01*
X141572200Y-90915010D01*
X141568115Y-90956491D01*
X141557807Y-90990469D01*
X141541066Y-91021790D01*
X141518539Y-91049239D01*
X141491090Y-91071766D01*
X141459769Y-91088507D01*
X141425791Y-91098815D01*
X141384310Y-91102900D01*
X140708090Y-91102900D01*
X140666609Y-91098815D01*
X140632631Y-91088507D01*
X140601310Y-91071766D01*
X140573861Y-91049239D01*
X140551334Y-91021790D01*
X140534593Y-90990469D01*
X140524285Y-90956491D01*
X140520200Y-90915010D01*
X140520200Y-90313790D01*
X140524285Y-90272309D01*
X140534593Y-90238331D01*
X140551334Y-90207010D01*
X140573861Y-90179561D01*
X140601310Y-90157034D01*
X140632631Y-90140293D01*
X140666609Y-90129985D01*
X140708090Y-90125900D01*
X141384310Y-90125900D01*
X141425791Y-90129985D01*
X141425791Y-90129985D01*
G37*
G36*
X142784691Y-90129985D02*
G01*
X142818669Y-90140293D01*
X142849990Y-90157034D01*
X142877439Y-90179561D01*
X142899966Y-90207010D01*
X142916707Y-90238331D01*
X142927015Y-90272309D01*
X142931100Y-90313790D01*
X142931100Y-90915010D01*
X142927015Y-90956491D01*
X142916707Y-90990469D01*
X142899966Y-91021790D01*
X142877439Y-91049239D01*
X142849990Y-91071766D01*
X142818669Y-91088507D01*
X142784691Y-91098815D01*
X142743210Y-91102900D01*
X142066990Y-91102900D01*
X142025509Y-91098815D01*
X141991531Y-91088507D01*
X141960210Y-91071766D01*
X141932761Y-91049239D01*
X141910234Y-91021790D01*
X141893493Y-90990469D01*
X141883185Y-90956491D01*
X141879100Y-90915010D01*
X141879100Y-90313790D01*
X141883185Y-90272309D01*
X141893493Y-90238331D01*
X141910234Y-90207010D01*
X141932761Y-90179561D01*
X141960210Y-90157034D01*
X141991531Y-90140293D01*
X142025509Y-90129985D01*
X142066990Y-90125900D01*
X142743210Y-90125900D01*
X142784691Y-90129985D01*
X142784691Y-90129985D01*
G37*
G36*
X134923391Y-90117285D02*
G01*
X134957369Y-90127593D01*
X134988690Y-90144334D01*
X135016139Y-90166861D01*
X135038666Y-90194310D01*
X135055407Y-90225631D01*
X135065715Y-90259609D01*
X135069800Y-90301090D01*
X135069800Y-90902310D01*
X135065715Y-90943791D01*
X135055407Y-90977769D01*
X135038666Y-91009090D01*
X135016139Y-91036539D01*
X134988690Y-91059066D01*
X134957369Y-91075807D01*
X134923391Y-91086115D01*
X134881910Y-91090200D01*
X134205690Y-91090200D01*
X134164209Y-91086115D01*
X134130231Y-91075807D01*
X134098910Y-91059066D01*
X134071461Y-91036539D01*
X134048934Y-91009090D01*
X134032193Y-90977769D01*
X134021885Y-90943791D01*
X134017800Y-90902310D01*
X134017800Y-90301090D01*
X134021885Y-90259609D01*
X134032193Y-90225631D01*
X134048934Y-90194310D01*
X134071461Y-90166861D01*
X134098910Y-90144334D01*
X134130231Y-90127593D01*
X134164209Y-90117285D01*
X134205690Y-90113200D01*
X134881910Y-90113200D01*
X134923391Y-90117285D01*
X134923391Y-90117285D01*
G37*
G36*
X136333091Y-90091885D02*
G01*
X136367069Y-90102193D01*
X136398390Y-90118934D01*
X136425839Y-90141461D01*
X136448366Y-90168910D01*
X136465107Y-90200231D01*
X136475415Y-90234209D01*
X136479500Y-90275690D01*
X136479500Y-90876910D01*
X136475415Y-90918391D01*
X136465107Y-90952369D01*
X136448366Y-90983690D01*
X136425839Y-91011139D01*
X136398390Y-91033666D01*
X136367069Y-91050407D01*
X136333091Y-91060715D01*
X136291610Y-91064800D01*
X135615390Y-91064800D01*
X135573909Y-91060715D01*
X135539931Y-91050407D01*
X135508610Y-91033666D01*
X135481161Y-91011139D01*
X135458634Y-90983690D01*
X135441893Y-90952369D01*
X135431585Y-90918391D01*
X135427500Y-90876910D01*
X135427500Y-90275690D01*
X135431585Y-90234209D01*
X135441893Y-90200231D01*
X135458634Y-90168910D01*
X135481161Y-90141461D01*
X135508610Y-90118934D01*
X135539931Y-90102193D01*
X135573909Y-90091885D01*
X135615390Y-90087800D01*
X136291610Y-90087800D01*
X136333091Y-90091885D01*
X136333091Y-90091885D01*
G37*
G36*
X150342868Y-89828865D02*
G01*
X150381538Y-89840596D01*
X150417177Y-89859646D01*
X150448417Y-89885283D01*
X150474054Y-89916523D01*
X150493104Y-89952162D01*
X150504835Y-89990832D01*
X150509400Y-90037188D01*
X150509400Y-90688412D01*
X150504835Y-90734768D01*
X150493104Y-90773438D01*
X150474054Y-90809077D01*
X150448417Y-90840317D01*
X150417177Y-90865954D01*
X150381538Y-90885004D01*
X150342868Y-90896735D01*
X150296512Y-90901300D01*
X149220288Y-90901300D01*
X149173932Y-90896735D01*
X149135262Y-90885004D01*
X149099623Y-90865954D01*
X149068383Y-90840317D01*
X149042746Y-90809077D01*
X149023696Y-90773438D01*
X149011965Y-90734768D01*
X149007400Y-90688412D01*
X149007400Y-90037188D01*
X149011965Y-89990832D01*
X149023696Y-89952162D01*
X149042746Y-89916523D01*
X149068383Y-89885283D01*
X149099623Y-89859646D01*
X149135262Y-89840596D01*
X149173932Y-89828865D01*
X149220288Y-89824300D01*
X150296512Y-89824300D01*
X150342868Y-89828865D01*
X150342868Y-89828865D01*
G37*
G36*
X140161800Y-90827900D02*
G01*
X138999800Y-90827900D01*
X138999800Y-90075900D01*
X140161800Y-90075900D01*
X140161800Y-90827900D01*
X140161800Y-90827900D01*
G37*
G36*
X168415831Y-88933645D02*
G01*
X168449809Y-88943953D01*
X168481130Y-88960694D01*
X168508579Y-88983221D01*
X168531106Y-89010670D01*
X168547847Y-89041991D01*
X168558155Y-89075969D01*
X168562240Y-89117450D01*
X168562240Y-89718670D01*
X168558155Y-89760151D01*
X168547847Y-89794129D01*
X168531106Y-89825450D01*
X168508579Y-89852899D01*
X168481130Y-89875426D01*
X168449809Y-89892167D01*
X168415831Y-89902475D01*
X168374350Y-89906560D01*
X167698130Y-89906560D01*
X167656649Y-89902475D01*
X167622671Y-89892167D01*
X167591350Y-89875426D01*
X167563901Y-89852899D01*
X167541374Y-89825450D01*
X167524633Y-89794129D01*
X167514325Y-89760151D01*
X167510240Y-89718670D01*
X167510240Y-89117450D01*
X167514325Y-89075969D01*
X167524633Y-89041991D01*
X167541374Y-89010670D01*
X167563901Y-88983221D01*
X167591350Y-88960694D01*
X167622671Y-88943953D01*
X167656649Y-88933645D01*
X167698130Y-88929560D01*
X168374350Y-88929560D01*
X168415831Y-88933645D01*
X168415831Y-88933645D01*
G37*
G36*
X169883951Y-88933645D02*
G01*
X169917929Y-88943953D01*
X169949250Y-88960694D01*
X169976699Y-88983221D01*
X169999226Y-89010670D01*
X170015967Y-89041991D01*
X170026275Y-89075969D01*
X170030360Y-89117450D01*
X170030360Y-89718670D01*
X170026275Y-89760151D01*
X170015967Y-89794129D01*
X169999226Y-89825450D01*
X169976699Y-89852899D01*
X169949250Y-89875426D01*
X169917929Y-89892167D01*
X169883951Y-89902475D01*
X169842470Y-89906560D01*
X169166250Y-89906560D01*
X169124769Y-89902475D01*
X169090791Y-89892167D01*
X169059470Y-89875426D01*
X169032021Y-89852899D01*
X169009494Y-89825450D01*
X168992753Y-89794129D01*
X168982445Y-89760151D01*
X168978360Y-89718670D01*
X168978360Y-89117450D01*
X168982445Y-89075969D01*
X168992753Y-89041991D01*
X169009494Y-89010670D01*
X169032021Y-88983221D01*
X169059470Y-88960694D01*
X169090791Y-88943953D01*
X169124769Y-88933645D01*
X169166250Y-88929560D01*
X169842470Y-88929560D01*
X169883951Y-88933645D01*
X169883951Y-88933645D01*
G37*
G36*
X141639900Y-89429600D02*
G01*
X140487900Y-89429600D01*
X140487900Y-88827600D01*
X141639900Y-88827600D01*
X141639900Y-89429600D01*
X141639900Y-89429600D01*
G37*
G36*
X143915900Y-89429600D02*
G01*
X142763900Y-89429600D01*
X142763900Y-88827600D01*
X143915900Y-88827600D01*
X143915900Y-89429600D01*
X143915900Y-89429600D01*
G37*
G36*
X150137991Y-88301385D02*
G01*
X150171969Y-88311693D01*
X150203290Y-88328434D01*
X150230739Y-88350961D01*
X150253266Y-88378410D01*
X150270007Y-88409731D01*
X150280315Y-88443709D01*
X150284400Y-88485190D01*
X150284400Y-89086410D01*
X150280315Y-89127891D01*
X150270007Y-89161869D01*
X150253266Y-89193190D01*
X150230739Y-89220639D01*
X150203290Y-89243166D01*
X150171969Y-89259907D01*
X150137991Y-89270215D01*
X150096510Y-89274300D01*
X149420290Y-89274300D01*
X149378809Y-89270215D01*
X149344831Y-89259907D01*
X149313510Y-89243166D01*
X149286061Y-89220639D01*
X149263534Y-89193190D01*
X149246793Y-89161869D01*
X149236485Y-89127891D01*
X149232400Y-89086410D01*
X149232400Y-88485190D01*
X149236485Y-88443709D01*
X149246793Y-88409731D01*
X149263534Y-88378410D01*
X149286061Y-88350961D01*
X149313510Y-88328434D01*
X149344831Y-88311693D01*
X149378809Y-88301385D01*
X149420290Y-88297300D01*
X150096510Y-88297300D01*
X150137991Y-88301385D01*
X150137991Y-88301385D01*
G37*
G36*
X148791791Y-88301385D02*
G01*
X148825769Y-88311693D01*
X148857090Y-88328434D01*
X148884539Y-88350961D01*
X148907066Y-88378410D01*
X148923807Y-88409731D01*
X148934115Y-88443709D01*
X148938200Y-88485190D01*
X148938200Y-89086410D01*
X148934115Y-89127891D01*
X148923807Y-89161869D01*
X148907066Y-89193190D01*
X148884539Y-89220639D01*
X148857090Y-89243166D01*
X148825769Y-89259907D01*
X148791791Y-89270215D01*
X148750310Y-89274300D01*
X148074090Y-89274300D01*
X148032609Y-89270215D01*
X147998631Y-89259907D01*
X147967310Y-89243166D01*
X147939861Y-89220639D01*
X147917334Y-89193190D01*
X147900593Y-89161869D01*
X147890285Y-89127891D01*
X147886200Y-89086410D01*
X147886200Y-88485190D01*
X147890285Y-88443709D01*
X147900593Y-88409731D01*
X147917334Y-88378410D01*
X147939861Y-88350961D01*
X147967310Y-88328434D01*
X147998631Y-88311693D01*
X148032609Y-88301385D01*
X148074090Y-88297300D01*
X148750310Y-88297300D01*
X148791791Y-88301385D01*
X148791791Y-88301385D01*
G37*
G36*
X150137991Y-86726385D02*
G01*
X150171969Y-86736693D01*
X150203290Y-86753434D01*
X150230739Y-86775961D01*
X150253266Y-86803410D01*
X150270007Y-86834731D01*
X150280315Y-86868709D01*
X150284400Y-86910190D01*
X150284400Y-87511410D01*
X150280315Y-87552891D01*
X150270007Y-87586869D01*
X150253266Y-87618190D01*
X150230739Y-87645639D01*
X150203290Y-87668166D01*
X150171969Y-87684907D01*
X150137991Y-87695215D01*
X150096510Y-87699300D01*
X149420290Y-87699300D01*
X149378809Y-87695215D01*
X149344831Y-87684907D01*
X149313510Y-87668166D01*
X149286061Y-87645639D01*
X149263534Y-87618190D01*
X149246793Y-87586869D01*
X149236485Y-87552891D01*
X149232400Y-87511410D01*
X149232400Y-86910190D01*
X149236485Y-86868709D01*
X149246793Y-86834731D01*
X149263534Y-86803410D01*
X149286061Y-86775961D01*
X149313510Y-86753434D01*
X149344831Y-86736693D01*
X149378809Y-86726385D01*
X149420290Y-86722300D01*
X150096510Y-86722300D01*
X150137991Y-86726385D01*
X150137991Y-86726385D01*
G37*
G36*
X148791791Y-86726385D02*
G01*
X148825769Y-86736693D01*
X148857090Y-86753434D01*
X148884539Y-86775961D01*
X148907066Y-86803410D01*
X148923807Y-86834731D01*
X148934115Y-86868709D01*
X148938200Y-86910190D01*
X148938200Y-87511410D01*
X148934115Y-87552891D01*
X148923807Y-87586869D01*
X148907066Y-87618190D01*
X148884539Y-87645639D01*
X148857090Y-87668166D01*
X148825769Y-87684907D01*
X148791791Y-87695215D01*
X148750310Y-87699300D01*
X148074090Y-87699300D01*
X148032609Y-87695215D01*
X147998631Y-87684907D01*
X147967310Y-87668166D01*
X147939861Y-87645639D01*
X147917334Y-87618190D01*
X147900593Y-87586869D01*
X147890285Y-87552891D01*
X147886200Y-87511410D01*
X147886200Y-86910190D01*
X147890285Y-86868709D01*
X147900593Y-86834731D01*
X147917334Y-86803410D01*
X147939861Y-86775961D01*
X147967310Y-86753434D01*
X147998631Y-86736693D01*
X148032609Y-86726385D01*
X148074090Y-86722300D01*
X148750310Y-86722300D01*
X148791791Y-86726385D01*
X148791791Y-86726385D01*
G37*
G36*
X141604291Y-86158125D02*
G01*
X141638269Y-86168433D01*
X141669590Y-86185174D01*
X141697039Y-86207701D01*
X141719566Y-86235150D01*
X141736307Y-86266471D01*
X141746615Y-86300449D01*
X141750700Y-86341930D01*
X141750700Y-87018150D01*
X141746615Y-87059631D01*
X141736307Y-87093609D01*
X141719566Y-87124930D01*
X141697039Y-87152379D01*
X141669590Y-87174906D01*
X141638269Y-87191647D01*
X141604291Y-87201955D01*
X141562810Y-87206040D01*
X140961590Y-87206040D01*
X140920109Y-87201955D01*
X140886131Y-87191647D01*
X140854810Y-87174906D01*
X140827361Y-87152379D01*
X140804834Y-87124930D01*
X140788093Y-87093609D01*
X140777785Y-87059631D01*
X140773700Y-87018150D01*
X140773700Y-86341930D01*
X140777785Y-86300449D01*
X140788093Y-86266471D01*
X140804834Y-86235150D01*
X140827361Y-86207701D01*
X140854810Y-86185174D01*
X140886131Y-86168433D01*
X140920109Y-86158125D01*
X140961590Y-86154040D01*
X141562810Y-86154040D01*
X141604291Y-86158125D01*
X141604291Y-86158125D01*
G37*
G36*
X140029291Y-86158125D02*
G01*
X140063269Y-86168433D01*
X140094590Y-86185174D01*
X140122039Y-86207701D01*
X140144566Y-86235150D01*
X140161307Y-86266471D01*
X140171615Y-86300449D01*
X140175700Y-86341930D01*
X140175700Y-87018150D01*
X140171615Y-87059631D01*
X140161307Y-87093609D01*
X140144566Y-87124930D01*
X140122039Y-87152379D01*
X140094590Y-87174906D01*
X140063269Y-87191647D01*
X140029291Y-87201955D01*
X139987810Y-87206040D01*
X139386590Y-87206040D01*
X139345109Y-87201955D01*
X139311131Y-87191647D01*
X139279810Y-87174906D01*
X139252361Y-87152379D01*
X139229834Y-87124930D01*
X139213093Y-87093609D01*
X139202785Y-87059631D01*
X139198700Y-87018150D01*
X139198700Y-86341930D01*
X139202785Y-86300449D01*
X139213093Y-86266471D01*
X139229834Y-86235150D01*
X139252361Y-86207701D01*
X139279810Y-86185174D01*
X139311131Y-86168433D01*
X139345109Y-86158125D01*
X139386590Y-86154040D01*
X139987810Y-86154040D01*
X140029291Y-86158125D01*
X140029291Y-86158125D01*
G37*
G36*
X136465900Y-86705800D02*
G01*
X135364900Y-86705800D01*
X135364900Y-85353800D01*
X136465900Y-85353800D01*
X136465900Y-86705800D01*
X136465900Y-86705800D01*
G37*
G36*
X165904000Y-86448900D02*
G01*
X163900800Y-86448900D01*
X163900800Y-78845700D01*
X165904000Y-78845700D01*
X165904000Y-86448900D01*
X165904000Y-86448900D01*
G37*
G36*
X153904000Y-86448900D02*
G01*
X151900800Y-86448900D01*
X151900800Y-78845700D01*
X153904000Y-78845700D01*
X153904000Y-86448900D01*
X153904000Y-86448900D01*
G37*
G36*
X140019131Y-84801765D02*
G01*
X140053109Y-84812073D01*
X140084430Y-84828814D01*
X140111879Y-84851341D01*
X140134406Y-84878790D01*
X140151147Y-84910111D01*
X140161455Y-84944089D01*
X140165540Y-84985570D01*
X140165540Y-85661790D01*
X140161455Y-85703271D01*
X140151147Y-85737249D01*
X140134406Y-85768570D01*
X140111879Y-85796019D01*
X140084430Y-85818546D01*
X140053109Y-85835287D01*
X140019131Y-85845595D01*
X139977650Y-85849680D01*
X139376430Y-85849680D01*
X139334949Y-85845595D01*
X139300971Y-85835287D01*
X139269650Y-85818546D01*
X139242201Y-85796019D01*
X139219674Y-85768570D01*
X139202933Y-85737249D01*
X139192625Y-85703271D01*
X139188540Y-85661790D01*
X139188540Y-84985570D01*
X139192625Y-84944089D01*
X139202933Y-84910111D01*
X139219674Y-84878790D01*
X139242201Y-84851341D01*
X139269650Y-84828814D01*
X139300971Y-84812073D01*
X139334949Y-84801765D01*
X139376430Y-84797680D01*
X139977650Y-84797680D01*
X140019131Y-84801765D01*
X140019131Y-84801765D01*
G37*
G36*
X141594131Y-84801765D02*
G01*
X141628109Y-84812073D01*
X141659430Y-84828814D01*
X141686879Y-84851341D01*
X141709406Y-84878790D01*
X141726147Y-84910111D01*
X141736455Y-84944089D01*
X141740540Y-84985570D01*
X141740540Y-85661790D01*
X141736455Y-85703271D01*
X141726147Y-85737249D01*
X141709406Y-85768570D01*
X141686879Y-85796019D01*
X141659430Y-85818546D01*
X141628109Y-85835287D01*
X141594131Y-85845595D01*
X141552650Y-85849680D01*
X140951430Y-85849680D01*
X140909949Y-85845595D01*
X140875971Y-85835287D01*
X140844650Y-85818546D01*
X140817201Y-85796019D01*
X140794674Y-85768570D01*
X140777933Y-85737249D01*
X140767625Y-85703271D01*
X140763540Y-85661790D01*
X140763540Y-84985570D01*
X140767625Y-84944089D01*
X140777933Y-84910111D01*
X140794674Y-84878790D01*
X140817201Y-84851341D01*
X140844650Y-84828814D01*
X140875971Y-84812073D01*
X140909949Y-84801765D01*
X140951430Y-84797680D01*
X141552650Y-84797680D01*
X141594131Y-84801765D01*
X141594131Y-84801765D01*
G37*
G36*
X149688911Y-84720485D02*
G01*
X149722889Y-84730793D01*
X149754210Y-84747534D01*
X149781659Y-84770061D01*
X149804186Y-84797510D01*
X149820927Y-84828831D01*
X149831235Y-84862809D01*
X149835320Y-84904290D01*
X149835320Y-85580510D01*
X149831235Y-85621991D01*
X149820927Y-85655969D01*
X149804186Y-85687290D01*
X149781659Y-85714739D01*
X149754210Y-85737266D01*
X149722889Y-85754007D01*
X149688911Y-85764315D01*
X149647430Y-85768400D01*
X149046210Y-85768400D01*
X149004729Y-85764315D01*
X148970751Y-85754007D01*
X148939430Y-85737266D01*
X148911981Y-85714739D01*
X148889454Y-85687290D01*
X148872713Y-85655969D01*
X148862405Y-85621991D01*
X148858320Y-85580510D01*
X148858320Y-84904290D01*
X148862405Y-84862809D01*
X148872713Y-84828831D01*
X148889454Y-84797510D01*
X148911981Y-84770061D01*
X148939430Y-84747534D01*
X148970751Y-84730793D01*
X149004729Y-84720485D01*
X149046210Y-84716400D01*
X149647430Y-84716400D01*
X149688911Y-84720485D01*
X149688911Y-84720485D01*
G37*
G36*
X151263911Y-84720485D02*
G01*
X151297889Y-84730793D01*
X151329210Y-84747534D01*
X151356659Y-84770061D01*
X151379186Y-84797510D01*
X151395927Y-84828831D01*
X151406235Y-84862809D01*
X151410320Y-84904290D01*
X151410320Y-85580510D01*
X151406235Y-85621991D01*
X151395927Y-85655969D01*
X151379186Y-85687290D01*
X151356659Y-85714739D01*
X151329210Y-85737266D01*
X151297889Y-85754007D01*
X151263911Y-85764315D01*
X151222430Y-85768400D01*
X150621210Y-85768400D01*
X150579729Y-85764315D01*
X150545751Y-85754007D01*
X150514430Y-85737266D01*
X150486981Y-85714739D01*
X150464454Y-85687290D01*
X150447713Y-85655969D01*
X150437405Y-85621991D01*
X150433320Y-85580510D01*
X150433320Y-84904290D01*
X150437405Y-84862809D01*
X150447713Y-84828831D01*
X150464454Y-84797510D01*
X150486981Y-84770061D01*
X150514430Y-84747534D01*
X150545751Y-84730793D01*
X150579729Y-84720485D01*
X150621210Y-84716400D01*
X151222430Y-84716400D01*
X151263911Y-84720485D01*
X151263911Y-84720485D01*
G37*
G36*
X148398791Y-84314085D02*
G01*
X148432769Y-84324393D01*
X148464090Y-84341134D01*
X148491539Y-84363661D01*
X148514066Y-84391110D01*
X148530807Y-84422431D01*
X148541115Y-84456409D01*
X148545200Y-84497890D01*
X148545200Y-85174110D01*
X148541115Y-85215591D01*
X148530807Y-85249569D01*
X148514066Y-85280890D01*
X148491539Y-85308339D01*
X148464090Y-85330866D01*
X148432769Y-85347607D01*
X148398791Y-85357915D01*
X148357310Y-85362000D01*
X147756090Y-85362000D01*
X147714609Y-85357915D01*
X147680631Y-85347607D01*
X147649310Y-85330866D01*
X147621861Y-85308339D01*
X147599334Y-85280890D01*
X147582593Y-85249569D01*
X147572285Y-85215591D01*
X147568200Y-85174110D01*
X147568200Y-84497890D01*
X147572285Y-84456409D01*
X147582593Y-84422431D01*
X147599334Y-84391110D01*
X147621861Y-84363661D01*
X147649310Y-84341134D01*
X147680631Y-84324393D01*
X147714609Y-84314085D01*
X147756090Y-84310000D01*
X148357310Y-84310000D01*
X148398791Y-84314085D01*
X148398791Y-84314085D01*
G37*
G36*
X146823791Y-84314085D02*
G01*
X146857769Y-84324393D01*
X146889090Y-84341134D01*
X146916539Y-84363661D01*
X146939066Y-84391110D01*
X146955807Y-84422431D01*
X146966115Y-84456409D01*
X146970200Y-84497890D01*
X146970200Y-85174110D01*
X146966115Y-85215591D01*
X146955807Y-85249569D01*
X146939066Y-85280890D01*
X146916539Y-85308339D01*
X146889090Y-85330866D01*
X146857769Y-85347607D01*
X146823791Y-85357915D01*
X146782310Y-85362000D01*
X146181090Y-85362000D01*
X146139609Y-85357915D01*
X146105631Y-85347607D01*
X146074310Y-85330866D01*
X146046861Y-85308339D01*
X146024334Y-85280890D01*
X146007593Y-85249569D01*
X145997285Y-85215591D01*
X145993200Y-85174110D01*
X145993200Y-84497890D01*
X145997285Y-84456409D01*
X146007593Y-84422431D01*
X146024334Y-84391110D01*
X146046861Y-84363661D01*
X146074310Y-84341134D01*
X146105631Y-84324393D01*
X146139609Y-84314085D01*
X146181090Y-84310000D01*
X146782310Y-84310000D01*
X146823791Y-84314085D01*
X146823791Y-84314085D01*
G37*
G36*
X170801391Y-82744365D02*
G01*
X170835369Y-82754673D01*
X170866690Y-82771414D01*
X170894139Y-82793941D01*
X170916666Y-82821390D01*
X170933407Y-82852711D01*
X170943715Y-82886689D01*
X170947800Y-82928170D01*
X170947800Y-83604390D01*
X170943715Y-83645871D01*
X170933407Y-83679849D01*
X170916666Y-83711170D01*
X170894139Y-83738619D01*
X170866690Y-83761146D01*
X170835369Y-83777887D01*
X170801391Y-83788195D01*
X170759910Y-83792280D01*
X170158690Y-83792280D01*
X170117209Y-83788195D01*
X170083231Y-83777887D01*
X170051910Y-83761146D01*
X170024461Y-83738619D01*
X170001934Y-83711170D01*
X169985193Y-83679849D01*
X169974885Y-83645871D01*
X169970800Y-83604390D01*
X169970800Y-82928170D01*
X169974885Y-82886689D01*
X169985193Y-82852711D01*
X170001934Y-82821390D01*
X170024461Y-82793941D01*
X170051910Y-82771414D01*
X170083231Y-82754673D01*
X170117209Y-82744365D01*
X170158690Y-82740280D01*
X170759910Y-82740280D01*
X170801391Y-82744365D01*
X170801391Y-82744365D01*
G37*
G36*
X172376391Y-82744365D02*
G01*
X172410369Y-82754673D01*
X172441690Y-82771414D01*
X172469139Y-82793941D01*
X172491666Y-82821390D01*
X172508407Y-82852711D01*
X172518715Y-82886689D01*
X172522800Y-82928170D01*
X172522800Y-83604390D01*
X172518715Y-83645871D01*
X172508407Y-83679849D01*
X172491666Y-83711170D01*
X172469139Y-83738619D01*
X172441690Y-83761146D01*
X172410369Y-83777887D01*
X172376391Y-83788195D01*
X172334910Y-83792280D01*
X171733690Y-83792280D01*
X171692209Y-83788195D01*
X171658231Y-83777887D01*
X171626910Y-83761146D01*
X171599461Y-83738619D01*
X171576934Y-83711170D01*
X171560193Y-83679849D01*
X171549885Y-83645871D01*
X171545800Y-83604390D01*
X171545800Y-82928170D01*
X171549885Y-82886689D01*
X171560193Y-82852711D01*
X171576934Y-82821390D01*
X171599461Y-82793941D01*
X171626910Y-82771414D01*
X171658231Y-82754673D01*
X171692209Y-82744365D01*
X171733690Y-82740280D01*
X172334910Y-82740280D01*
X172376391Y-82744365D01*
X172376391Y-82744365D01*
G37*
G36*
X172391631Y-81367685D02*
G01*
X172425609Y-81377993D01*
X172456930Y-81394734D01*
X172484379Y-81417261D01*
X172506906Y-81444710D01*
X172523647Y-81476031D01*
X172533955Y-81510009D01*
X172538040Y-81551490D01*
X172538040Y-82227710D01*
X172533955Y-82269191D01*
X172523647Y-82303169D01*
X172506906Y-82334490D01*
X172484379Y-82361939D01*
X172456930Y-82384466D01*
X172425609Y-82401207D01*
X172391631Y-82411515D01*
X172350150Y-82415600D01*
X171748930Y-82415600D01*
X171707449Y-82411515D01*
X171673471Y-82401207D01*
X171642150Y-82384466D01*
X171614701Y-82361939D01*
X171592174Y-82334490D01*
X171575433Y-82303169D01*
X171565125Y-82269191D01*
X171561040Y-82227710D01*
X171561040Y-81551490D01*
X171565125Y-81510009D01*
X171575433Y-81476031D01*
X171592174Y-81444710D01*
X171614701Y-81417261D01*
X171642150Y-81394734D01*
X171673471Y-81377993D01*
X171707449Y-81367685D01*
X171748930Y-81363600D01*
X172350150Y-81363600D01*
X172391631Y-81367685D01*
X172391631Y-81367685D01*
G37*
G36*
X170816631Y-81367685D02*
G01*
X170850609Y-81377993D01*
X170881930Y-81394734D01*
X170909379Y-81417261D01*
X170931906Y-81444710D01*
X170948647Y-81476031D01*
X170958955Y-81510009D01*
X170963040Y-81551490D01*
X170963040Y-82227710D01*
X170958955Y-82269191D01*
X170948647Y-82303169D01*
X170931906Y-82334490D01*
X170909379Y-82361939D01*
X170881930Y-82384466D01*
X170850609Y-82401207D01*
X170816631Y-82411515D01*
X170775150Y-82415600D01*
X170173930Y-82415600D01*
X170132449Y-82411515D01*
X170098471Y-82401207D01*
X170067150Y-82384466D01*
X170039701Y-82361939D01*
X170017174Y-82334490D01*
X170000433Y-82303169D01*
X169990125Y-82269191D01*
X169986040Y-82227710D01*
X169986040Y-81551490D01*
X169990125Y-81510009D01*
X170000433Y-81476031D01*
X170017174Y-81444710D01*
X170039701Y-81417261D01*
X170067150Y-81394734D01*
X170098471Y-81377993D01*
X170132449Y-81367685D01*
X170173930Y-81363600D01*
X170775150Y-81363600D01*
X170816631Y-81367685D01*
X170816631Y-81367685D01*
G37*
G36*
X145292779Y-80769297D02*
G01*
X145302388Y-80772212D01*
X145311252Y-80776950D01*
X145319017Y-80783323D01*
X145329228Y-80795766D01*
X145336158Y-80806135D01*
X145353485Y-80823462D01*
X145373860Y-80837075D01*
X145396500Y-80846451D01*
X145420533Y-80851231D01*
X145445037Y-80851230D01*
X145469070Y-80846448D01*
X145491709Y-80837070D01*
X145512082Y-80823455D01*
X145529409Y-80806128D01*
X145536338Y-80795758D01*
X145546543Y-80783323D01*
X145554308Y-80776950D01*
X145563172Y-80772212D01*
X145572781Y-80769297D01*
X145588920Y-80767708D01*
X146076641Y-80767708D01*
X146094979Y-80769514D01*
X146107230Y-80770116D01*
X146125649Y-80770116D01*
X146147929Y-80772310D01*
X146232013Y-80789036D01*
X146253440Y-80795536D01*
X146332638Y-80828340D01*
X146338083Y-80831251D01*
X146338089Y-80831253D01*
X146346949Y-80835989D01*
X146346953Y-80835992D01*
X146352394Y-80838900D01*
X146423679Y-80886531D01*
X146440984Y-80900732D01*
X146501608Y-80961356D01*
X146515809Y-80978661D01*
X146563440Y-81049946D01*
X146566348Y-81055387D01*
X146566351Y-81055391D01*
X146571087Y-81064251D01*
X146571089Y-81064257D01*
X146574000Y-81069702D01*
X146606804Y-81148900D01*
X146613304Y-81170327D01*
X146630030Y-81254411D01*
X146632224Y-81276691D01*
X146632224Y-81295110D01*
X146632826Y-81307361D01*
X146634632Y-81325699D01*
X146634632Y-81813422D01*
X146632826Y-81831759D01*
X146632224Y-81844010D01*
X146632224Y-81862429D01*
X146630030Y-81884709D01*
X146613304Y-81968793D01*
X146606804Y-81990220D01*
X146574000Y-82069418D01*
X146571089Y-82074863D01*
X146571087Y-82074869D01*
X146566351Y-82083729D01*
X146566348Y-82083733D01*
X146563440Y-82089174D01*
X146515809Y-82160459D01*
X146501608Y-82177764D01*
X146440984Y-82238388D01*
X146423679Y-82252589D01*
X146352394Y-82300220D01*
X146346953Y-82303128D01*
X146346949Y-82303131D01*
X146338089Y-82307867D01*
X146338083Y-82307869D01*
X146332638Y-82310780D01*
X146253440Y-82343584D01*
X146232013Y-82350084D01*
X146147929Y-82366810D01*
X146125649Y-82369004D01*
X146107230Y-82369004D01*
X146094979Y-82369606D01*
X146076642Y-82371412D01*
X145588920Y-82371412D01*
X145572781Y-82369823D01*
X145563172Y-82366908D01*
X145554308Y-82362170D01*
X145546543Y-82355797D01*
X145536332Y-82343354D01*
X145529402Y-82332985D01*
X145512075Y-82315658D01*
X145491700Y-82302045D01*
X145469060Y-82292669D01*
X145445027Y-82287889D01*
X145420523Y-82287890D01*
X145396490Y-82292672D01*
X145373851Y-82302050D01*
X145353478Y-82315665D01*
X145336151Y-82332992D01*
X145329222Y-82343362D01*
X145319017Y-82355797D01*
X145311252Y-82362170D01*
X145302388Y-82366908D01*
X145292779Y-82369823D01*
X145276640Y-82371412D01*
X144788918Y-82371412D01*
X144770581Y-82369606D01*
X144758330Y-82369004D01*
X144739911Y-82369004D01*
X144717631Y-82366810D01*
X144633547Y-82350084D01*
X144612120Y-82343584D01*
X144532922Y-82310780D01*
X144527477Y-82307869D01*
X144527471Y-82307867D01*
X144518611Y-82303131D01*
X144518607Y-82303128D01*
X144513166Y-82300220D01*
X144441881Y-82252589D01*
X144424576Y-82238388D01*
X144363952Y-82177764D01*
X144349751Y-82160459D01*
X144302120Y-82089174D01*
X144299212Y-82083733D01*
X144299209Y-82083729D01*
X144294473Y-82074869D01*
X144294471Y-82074863D01*
X144291560Y-82069418D01*
X144258756Y-81990220D01*
X144252256Y-81968793D01*
X144235530Y-81884709D01*
X144233336Y-81862429D01*
X144233336Y-81844010D01*
X144232734Y-81831759D01*
X144230928Y-81813422D01*
X144230928Y-81325699D01*
X144232734Y-81307361D01*
X144233336Y-81295110D01*
X144233336Y-81276691D01*
X144235530Y-81254411D01*
X144252256Y-81170327D01*
X144258756Y-81148900D01*
X144291560Y-81069702D01*
X144294471Y-81064257D01*
X144294473Y-81064251D01*
X144299209Y-81055391D01*
X144299212Y-81055387D01*
X144302120Y-81049946D01*
X144349751Y-80978661D01*
X144363952Y-80961356D01*
X144424576Y-80900732D01*
X144441881Y-80886531D01*
X144513166Y-80838900D01*
X144518607Y-80835992D01*
X144518611Y-80835989D01*
X144527471Y-80831253D01*
X144527477Y-80831251D01*
X144532922Y-80828340D01*
X144612120Y-80795536D01*
X144633547Y-80789036D01*
X144717631Y-80772310D01*
X144739911Y-80770116D01*
X144758330Y-80770116D01*
X144770581Y-80769514D01*
X144788919Y-80767708D01*
X145276640Y-80767708D01*
X145292779Y-80769297D01*
X145292779Y-80769297D01*
G37*
G36*
X140801651Y-81047645D02*
G01*
X140835629Y-81057953D01*
X140866950Y-81074694D01*
X140894399Y-81097221D01*
X140916926Y-81124670D01*
X140933667Y-81155991D01*
X140943975Y-81189969D01*
X140948060Y-81231450D01*
X140948060Y-81907670D01*
X140943975Y-81949151D01*
X140933667Y-81983129D01*
X140916926Y-82014450D01*
X140894399Y-82041899D01*
X140866950Y-82064426D01*
X140835629Y-82081167D01*
X140801651Y-82091475D01*
X140760170Y-82095560D01*
X140158950Y-82095560D01*
X140117469Y-82091475D01*
X140083491Y-82081167D01*
X140052170Y-82064426D01*
X140024721Y-82041899D01*
X140002194Y-82014450D01*
X139985453Y-81983129D01*
X139975145Y-81949151D01*
X139971060Y-81907670D01*
X139971060Y-81231450D01*
X139975145Y-81189969D01*
X139985453Y-81155991D01*
X140002194Y-81124670D01*
X140024721Y-81097221D01*
X140052170Y-81074694D01*
X140083491Y-81057953D01*
X140117469Y-81047645D01*
X140158950Y-81043560D01*
X140760170Y-81043560D01*
X140801651Y-81047645D01*
X140801651Y-81047645D01*
G37*
G36*
X142097011Y-81047645D02*
G01*
X142130989Y-81057953D01*
X142162310Y-81074694D01*
X142189759Y-81097221D01*
X142212286Y-81124670D01*
X142229027Y-81155991D01*
X142239335Y-81189969D01*
X142243420Y-81231450D01*
X142243420Y-81907670D01*
X142239335Y-81949151D01*
X142229027Y-81983129D01*
X142212286Y-82014450D01*
X142189759Y-82041899D01*
X142162310Y-82064426D01*
X142130989Y-82081167D01*
X142097011Y-82091475D01*
X142055530Y-82095560D01*
X141454310Y-82095560D01*
X141412829Y-82091475D01*
X141378851Y-82081167D01*
X141347530Y-82064426D01*
X141320081Y-82041899D01*
X141297554Y-82014450D01*
X141280813Y-81983129D01*
X141270505Y-81949151D01*
X141266420Y-81907670D01*
X141266420Y-81231450D01*
X141270505Y-81189969D01*
X141280813Y-81155991D01*
X141297554Y-81124670D01*
X141320081Y-81097221D01*
X141347530Y-81074694D01*
X141378851Y-81057953D01*
X141412829Y-81047645D01*
X141454310Y-81043560D01*
X142055530Y-81043560D01*
X142097011Y-81047645D01*
X142097011Y-81047645D01*
G37*
G36*
X139226651Y-81047645D02*
G01*
X139260629Y-81057953D01*
X139291950Y-81074694D01*
X139319399Y-81097221D01*
X139341926Y-81124670D01*
X139358667Y-81155991D01*
X139368975Y-81189969D01*
X139373060Y-81231450D01*
X139373060Y-81907670D01*
X139368975Y-81949151D01*
X139358667Y-81983129D01*
X139341926Y-82014450D01*
X139319399Y-82041899D01*
X139291950Y-82064426D01*
X139260629Y-82081167D01*
X139226651Y-82091475D01*
X139185170Y-82095560D01*
X138583950Y-82095560D01*
X138542469Y-82091475D01*
X138508491Y-82081167D01*
X138477170Y-82064426D01*
X138449721Y-82041899D01*
X138427194Y-82014450D01*
X138410453Y-81983129D01*
X138400145Y-81949151D01*
X138396060Y-81907670D01*
X138396060Y-81231450D01*
X138400145Y-81189969D01*
X138410453Y-81155991D01*
X138427194Y-81124670D01*
X138449721Y-81097221D01*
X138477170Y-81074694D01*
X138508491Y-81057953D01*
X138542469Y-81047645D01*
X138583950Y-81043560D01*
X139185170Y-81043560D01*
X139226651Y-81047645D01*
X139226651Y-81047645D01*
G37*
G36*
X143672011Y-81047645D02*
G01*
X143705989Y-81057953D01*
X143737310Y-81074694D01*
X143764759Y-81097221D01*
X143787286Y-81124670D01*
X143804027Y-81155991D01*
X143814335Y-81189969D01*
X143818420Y-81231450D01*
X143818420Y-81907670D01*
X143814335Y-81949151D01*
X143804027Y-81983129D01*
X143787286Y-82014450D01*
X143764759Y-82041899D01*
X143737310Y-82064426D01*
X143705989Y-82081167D01*
X143672011Y-82091475D01*
X143630530Y-82095560D01*
X143029310Y-82095560D01*
X142987829Y-82091475D01*
X142953851Y-82081167D01*
X142922530Y-82064426D01*
X142895081Y-82041899D01*
X142872554Y-82014450D01*
X142855813Y-81983129D01*
X142845505Y-81949151D01*
X142841420Y-81907670D01*
X142841420Y-81231450D01*
X142845505Y-81189969D01*
X142855813Y-81155991D01*
X142872554Y-81124670D01*
X142895081Y-81097221D01*
X142922530Y-81074694D01*
X142953851Y-81057953D01*
X142987829Y-81047645D01*
X143029310Y-81043560D01*
X143630530Y-81043560D01*
X143672011Y-81047645D01*
X143672011Y-81047645D01*
G37*
G36*
X151255591Y-80114965D02*
G01*
X151289569Y-80125273D01*
X151320890Y-80142014D01*
X151348339Y-80164541D01*
X151370866Y-80191990D01*
X151387607Y-80223311D01*
X151397915Y-80257289D01*
X151402000Y-80298770D01*
X151402000Y-80899990D01*
X151397915Y-80941471D01*
X151387607Y-80975449D01*
X151370866Y-81006770D01*
X151348339Y-81034219D01*
X151320890Y-81056746D01*
X151289569Y-81073487D01*
X151255591Y-81083795D01*
X151214110Y-81087880D01*
X150537890Y-81087880D01*
X150496409Y-81083795D01*
X150462431Y-81073487D01*
X150431110Y-81056746D01*
X150403661Y-81034219D01*
X150381134Y-81006770D01*
X150364393Y-80975449D01*
X150354085Y-80941471D01*
X150350000Y-80899990D01*
X150350000Y-80298770D01*
X150354085Y-80257289D01*
X150364393Y-80223311D01*
X150381134Y-80191990D01*
X150403661Y-80164541D01*
X150431110Y-80142014D01*
X150462431Y-80125273D01*
X150496409Y-80114965D01*
X150537890Y-80110880D01*
X151214110Y-80110880D01*
X151255591Y-80114965D01*
X151255591Y-80114965D01*
G37*
G36*
X167958631Y-79957485D02*
G01*
X167992609Y-79967793D01*
X168023930Y-79984534D01*
X168051379Y-80007061D01*
X168073906Y-80034510D01*
X168090647Y-80065831D01*
X168100955Y-80099809D01*
X168105040Y-80141290D01*
X168105040Y-80742510D01*
X168100955Y-80783991D01*
X168090647Y-80817969D01*
X168073906Y-80849290D01*
X168051379Y-80876739D01*
X168023930Y-80899266D01*
X167992609Y-80916007D01*
X167958631Y-80926315D01*
X167917150Y-80930400D01*
X167240930Y-80930400D01*
X167199449Y-80926315D01*
X167165471Y-80916007D01*
X167134150Y-80899266D01*
X167106701Y-80876739D01*
X167084174Y-80849290D01*
X167067433Y-80817969D01*
X167057125Y-80783991D01*
X167053040Y-80742510D01*
X167053040Y-80141290D01*
X167057125Y-80099809D01*
X167067433Y-80065831D01*
X167084174Y-80034510D01*
X167106701Y-80007061D01*
X167134150Y-79984534D01*
X167165471Y-79967793D01*
X167199449Y-79957485D01*
X167240930Y-79953400D01*
X167917150Y-79953400D01*
X167958631Y-79957485D01*
X167958631Y-79957485D01*
G37*
G36*
X145267379Y-78612837D02*
G01*
X145276988Y-78615752D01*
X145285852Y-78620490D01*
X145293617Y-78626863D01*
X145303828Y-78639306D01*
X145310758Y-78649675D01*
X145328085Y-78667002D01*
X145348460Y-78680615D01*
X145371100Y-78689991D01*
X145395133Y-78694771D01*
X145419637Y-78694770D01*
X145443670Y-78689988D01*
X145466309Y-78680610D01*
X145486682Y-78666995D01*
X145504009Y-78649668D01*
X145510938Y-78639298D01*
X145521143Y-78626863D01*
X145528908Y-78620490D01*
X145537772Y-78615752D01*
X145547381Y-78612837D01*
X145563520Y-78611248D01*
X146051241Y-78611248D01*
X146069579Y-78613054D01*
X146081830Y-78613656D01*
X146100249Y-78613656D01*
X146122529Y-78615850D01*
X146206613Y-78632576D01*
X146228040Y-78639076D01*
X146307238Y-78671880D01*
X146312683Y-78674791D01*
X146312689Y-78674793D01*
X146321549Y-78679529D01*
X146321553Y-78679532D01*
X146326994Y-78682440D01*
X146398279Y-78730071D01*
X146415584Y-78744272D01*
X146476208Y-78804896D01*
X146490409Y-78822201D01*
X146538040Y-78893486D01*
X146540948Y-78898927D01*
X146540951Y-78898931D01*
X146545687Y-78907791D01*
X146545689Y-78907797D01*
X146548600Y-78913242D01*
X146581404Y-78992440D01*
X146587904Y-79013867D01*
X146604630Y-79097951D01*
X146606824Y-79120231D01*
X146606824Y-79138650D01*
X146607426Y-79150901D01*
X146609232Y-79169239D01*
X146609232Y-79656962D01*
X146607426Y-79675299D01*
X146606824Y-79687550D01*
X146606824Y-79705969D01*
X146604630Y-79728249D01*
X146587904Y-79812333D01*
X146581404Y-79833760D01*
X146548600Y-79912958D01*
X146545689Y-79918403D01*
X146545687Y-79918409D01*
X146540951Y-79927269D01*
X146540948Y-79927273D01*
X146538040Y-79932714D01*
X146490409Y-80003999D01*
X146476208Y-80021304D01*
X146415584Y-80081928D01*
X146398279Y-80096129D01*
X146326994Y-80143760D01*
X146321553Y-80146668D01*
X146321549Y-80146671D01*
X146312689Y-80151407D01*
X146312683Y-80151409D01*
X146307238Y-80154320D01*
X146228040Y-80187124D01*
X146206613Y-80193624D01*
X146122529Y-80210350D01*
X146100249Y-80212544D01*
X146081830Y-80212544D01*
X146069579Y-80213146D01*
X146051242Y-80214952D01*
X145563520Y-80214952D01*
X145547381Y-80213363D01*
X145537772Y-80210448D01*
X145528908Y-80205710D01*
X145521143Y-80199337D01*
X145510932Y-80186894D01*
X145504002Y-80176525D01*
X145486675Y-80159198D01*
X145466300Y-80145585D01*
X145443660Y-80136209D01*
X145419627Y-80131429D01*
X145395123Y-80131430D01*
X145371090Y-80136212D01*
X145348451Y-80145590D01*
X145328078Y-80159205D01*
X145310751Y-80176532D01*
X145303822Y-80186902D01*
X145293617Y-80199337D01*
X145285852Y-80205710D01*
X145276988Y-80210448D01*
X145267379Y-80213363D01*
X145251240Y-80214952D01*
X144763518Y-80214952D01*
X144745181Y-80213146D01*
X144732930Y-80212544D01*
X144714511Y-80212544D01*
X144692231Y-80210350D01*
X144608147Y-80193624D01*
X144586720Y-80187124D01*
X144507522Y-80154320D01*
X144502077Y-80151409D01*
X144502071Y-80151407D01*
X144493211Y-80146671D01*
X144493207Y-80146668D01*
X144487766Y-80143760D01*
X144416481Y-80096129D01*
X144399176Y-80081928D01*
X144338552Y-80021304D01*
X144324351Y-80003999D01*
X144276720Y-79932714D01*
X144273812Y-79927273D01*
X144273809Y-79927269D01*
X144269073Y-79918409D01*
X144269071Y-79918403D01*
X144266160Y-79912958D01*
X144233356Y-79833760D01*
X144226856Y-79812333D01*
X144210130Y-79728249D01*
X144207936Y-79705969D01*
X144207936Y-79687550D01*
X144207334Y-79675299D01*
X144205528Y-79656962D01*
X144205528Y-79169239D01*
X144207334Y-79150901D01*
X144207936Y-79138650D01*
X144207936Y-79120231D01*
X144210130Y-79097951D01*
X144226856Y-79013867D01*
X144233356Y-78992440D01*
X144266160Y-78913242D01*
X144269071Y-78907797D01*
X144269073Y-78907791D01*
X144273809Y-78898931D01*
X144273812Y-78898927D01*
X144276720Y-78893486D01*
X144324351Y-78822201D01*
X144338552Y-78804896D01*
X144399176Y-78744272D01*
X144416481Y-78730071D01*
X144487766Y-78682440D01*
X144493207Y-78679532D01*
X144493211Y-78679529D01*
X144502071Y-78674793D01*
X144502077Y-78674791D01*
X144507522Y-78671880D01*
X144586720Y-78639076D01*
X144608147Y-78632576D01*
X144692231Y-78615850D01*
X144714511Y-78613656D01*
X144732930Y-78613656D01*
X144745181Y-78613054D01*
X144763519Y-78611248D01*
X145251240Y-78611248D01*
X145267379Y-78612837D01*
X145267379Y-78612837D01*
G37*
G36*
X142079071Y-78908965D02*
G01*
X142113049Y-78919273D01*
X142144370Y-78936014D01*
X142171819Y-78958541D01*
X142194346Y-78985990D01*
X142211087Y-79017311D01*
X142221395Y-79051289D01*
X142225480Y-79092770D01*
X142225480Y-79768990D01*
X142221395Y-79810471D01*
X142211087Y-79844449D01*
X142194346Y-79875770D01*
X142171819Y-79903219D01*
X142144370Y-79925746D01*
X142113049Y-79942487D01*
X142079071Y-79952795D01*
X142037590Y-79956880D01*
X141436370Y-79956880D01*
X141394889Y-79952795D01*
X141360911Y-79942487D01*
X141329590Y-79925746D01*
X141302141Y-79903219D01*
X141279614Y-79875770D01*
X141262873Y-79844449D01*
X141252565Y-79810471D01*
X141248480Y-79768990D01*
X141248480Y-79092770D01*
X141252565Y-79051289D01*
X141262873Y-79017311D01*
X141279614Y-78985990D01*
X141302141Y-78958541D01*
X141329590Y-78936014D01*
X141360911Y-78919273D01*
X141394889Y-78908965D01*
X141436370Y-78904880D01*
X142037590Y-78904880D01*
X142079071Y-78908965D01*
X142079071Y-78908965D01*
G37*
G36*
X143654071Y-78908965D02*
G01*
X143688049Y-78919273D01*
X143719370Y-78936014D01*
X143746819Y-78958541D01*
X143769346Y-78985990D01*
X143786087Y-79017311D01*
X143796395Y-79051289D01*
X143800480Y-79092770D01*
X143800480Y-79768990D01*
X143796395Y-79810471D01*
X143786087Y-79844449D01*
X143769346Y-79875770D01*
X143746819Y-79903219D01*
X143719370Y-79925746D01*
X143688049Y-79942487D01*
X143654071Y-79952795D01*
X143612590Y-79956880D01*
X143011370Y-79956880D01*
X142969889Y-79952795D01*
X142935911Y-79942487D01*
X142904590Y-79925746D01*
X142877141Y-79903219D01*
X142854614Y-79875770D01*
X142837873Y-79844449D01*
X142827565Y-79810471D01*
X142823480Y-79768990D01*
X142823480Y-79092770D01*
X142827565Y-79051289D01*
X142837873Y-79017311D01*
X142854614Y-78985990D01*
X142877141Y-78958541D01*
X142904590Y-78936014D01*
X142935911Y-78919273D01*
X142969889Y-78908965D01*
X143011370Y-78904880D01*
X143612590Y-78904880D01*
X143654071Y-78908965D01*
X143654071Y-78908965D01*
G37*
G36*
X140796571Y-78891185D02*
G01*
X140830549Y-78901493D01*
X140861870Y-78918234D01*
X140889319Y-78940761D01*
X140911846Y-78968210D01*
X140928587Y-78999531D01*
X140938895Y-79033509D01*
X140942980Y-79074990D01*
X140942980Y-79751210D01*
X140938895Y-79792691D01*
X140928587Y-79826669D01*
X140911846Y-79857990D01*
X140889319Y-79885439D01*
X140861870Y-79907966D01*
X140830549Y-79924707D01*
X140796571Y-79935015D01*
X140755090Y-79939100D01*
X140153870Y-79939100D01*
X140112389Y-79935015D01*
X140078411Y-79924707D01*
X140047090Y-79907966D01*
X140019641Y-79885439D01*
X139997114Y-79857990D01*
X139980373Y-79826669D01*
X139970065Y-79792691D01*
X139965980Y-79751210D01*
X139965980Y-79074990D01*
X139970065Y-79033509D01*
X139980373Y-78999531D01*
X139997114Y-78968210D01*
X140019641Y-78940761D01*
X140047090Y-78918234D01*
X140078411Y-78901493D01*
X140112389Y-78891185D01*
X140153870Y-78887100D01*
X140755090Y-78887100D01*
X140796571Y-78891185D01*
X140796571Y-78891185D01*
G37*
G36*
X139221571Y-78891185D02*
G01*
X139255549Y-78901493D01*
X139286870Y-78918234D01*
X139314319Y-78940761D01*
X139336846Y-78968210D01*
X139353587Y-78999531D01*
X139363895Y-79033509D01*
X139367980Y-79074990D01*
X139367980Y-79751210D01*
X139363895Y-79792691D01*
X139353587Y-79826669D01*
X139336846Y-79857990D01*
X139314319Y-79885439D01*
X139286870Y-79907966D01*
X139255549Y-79924707D01*
X139221571Y-79935015D01*
X139180090Y-79939100D01*
X138578870Y-79939100D01*
X138537389Y-79935015D01*
X138503411Y-79924707D01*
X138472090Y-79907966D01*
X138444641Y-79885439D01*
X138422114Y-79857990D01*
X138405373Y-79826669D01*
X138395065Y-79792691D01*
X138390980Y-79751210D01*
X138390980Y-79074990D01*
X138395065Y-79033509D01*
X138405373Y-78999531D01*
X138422114Y-78968210D01*
X138444641Y-78940761D01*
X138472090Y-78918234D01*
X138503411Y-78901493D01*
X138537389Y-78891185D01*
X138578870Y-78887100D01*
X139180090Y-78887100D01*
X139221571Y-78891185D01*
X139221571Y-78891185D01*
G37*
G36*
X169770151Y-78873405D02*
G01*
X169804129Y-78883713D01*
X169835450Y-78900454D01*
X169862899Y-78922981D01*
X169885426Y-78950430D01*
X169902167Y-78981751D01*
X169912475Y-79015729D01*
X169916560Y-79057210D01*
X169916560Y-79733430D01*
X169912475Y-79774911D01*
X169902167Y-79808889D01*
X169885426Y-79840210D01*
X169862899Y-79867659D01*
X169835450Y-79890186D01*
X169804129Y-79906927D01*
X169770151Y-79917235D01*
X169728670Y-79921320D01*
X169127450Y-79921320D01*
X169085969Y-79917235D01*
X169051991Y-79906927D01*
X169020670Y-79890186D01*
X168993221Y-79867659D01*
X168970694Y-79840210D01*
X168953953Y-79808889D01*
X168943645Y-79774911D01*
X168939560Y-79733430D01*
X168939560Y-79057210D01*
X168943645Y-79015729D01*
X168953953Y-78981751D01*
X168970694Y-78950430D01*
X168993221Y-78922981D01*
X169020670Y-78900454D01*
X169051991Y-78883713D01*
X169085969Y-78873405D01*
X169127450Y-78869320D01*
X169728670Y-78869320D01*
X169770151Y-78873405D01*
X169770151Y-78873405D01*
G37*
G36*
X171345151Y-78873405D02*
G01*
X171379129Y-78883713D01*
X171410450Y-78900454D01*
X171437899Y-78922981D01*
X171460426Y-78950430D01*
X171477167Y-78981751D01*
X171487475Y-79015729D01*
X171491560Y-79057210D01*
X171491560Y-79733430D01*
X171487475Y-79774911D01*
X171477167Y-79808889D01*
X171460426Y-79840210D01*
X171437899Y-79867659D01*
X171410450Y-79890186D01*
X171379129Y-79906927D01*
X171345151Y-79917235D01*
X171303670Y-79921320D01*
X170702450Y-79921320D01*
X170660969Y-79917235D01*
X170626991Y-79906927D01*
X170595670Y-79890186D01*
X170568221Y-79867659D01*
X170545694Y-79840210D01*
X170528953Y-79808889D01*
X170518645Y-79774911D01*
X170514560Y-79733430D01*
X170514560Y-79057210D01*
X170518645Y-79015729D01*
X170528953Y-78981751D01*
X170545694Y-78950430D01*
X170568221Y-78922981D01*
X170595670Y-78900454D01*
X170626991Y-78883713D01*
X170660969Y-78873405D01*
X170702450Y-78869320D01*
X171303670Y-78869320D01*
X171345151Y-78873405D01*
X171345151Y-78873405D01*
G37*
G36*
X151255591Y-78539965D02*
G01*
X151289569Y-78550273D01*
X151320890Y-78567014D01*
X151348339Y-78589541D01*
X151370866Y-78616990D01*
X151387607Y-78648311D01*
X151397915Y-78682289D01*
X151402000Y-78723770D01*
X151402000Y-79324990D01*
X151397915Y-79366471D01*
X151387607Y-79400449D01*
X151370866Y-79431770D01*
X151348339Y-79459219D01*
X151320890Y-79481746D01*
X151289569Y-79498487D01*
X151255591Y-79508795D01*
X151214110Y-79512880D01*
X150537890Y-79512880D01*
X150496409Y-79508795D01*
X150462431Y-79498487D01*
X150431110Y-79481746D01*
X150403661Y-79459219D01*
X150381134Y-79431770D01*
X150364393Y-79400449D01*
X150354085Y-79366471D01*
X150350000Y-79324990D01*
X150350000Y-78723770D01*
X150354085Y-78682289D01*
X150364393Y-78648311D01*
X150381134Y-78616990D01*
X150403661Y-78589541D01*
X150431110Y-78567014D01*
X150462431Y-78550273D01*
X150496409Y-78539965D01*
X150537890Y-78535880D01*
X151214110Y-78535880D01*
X151255591Y-78539965D01*
X151255591Y-78539965D01*
G37*
G36*
X167958631Y-78382485D02*
G01*
X167992609Y-78392793D01*
X168023930Y-78409534D01*
X168051379Y-78432061D01*
X168073906Y-78459510D01*
X168090647Y-78490831D01*
X168100955Y-78524809D01*
X168105040Y-78566290D01*
X168105040Y-79167510D01*
X168100955Y-79208991D01*
X168090647Y-79242969D01*
X168073906Y-79274290D01*
X168051379Y-79301739D01*
X168023930Y-79324266D01*
X167992609Y-79341007D01*
X167958631Y-79351315D01*
X167917150Y-79355400D01*
X167240930Y-79355400D01*
X167199449Y-79351315D01*
X167165471Y-79341007D01*
X167134150Y-79324266D01*
X167106701Y-79301739D01*
X167084174Y-79274290D01*
X167067433Y-79242969D01*
X167057125Y-79208991D01*
X167053040Y-79167510D01*
X167053040Y-78566290D01*
X167057125Y-78524809D01*
X167067433Y-78490831D01*
X167084174Y-78459510D01*
X167106701Y-78432061D01*
X167134150Y-78409534D01*
X167165471Y-78392793D01*
X167199449Y-78382485D01*
X167240930Y-78378400D01*
X167917150Y-78378400D01*
X167958631Y-78382485D01*
X167958631Y-78382485D01*
G37*
G36*
X131747385Y-75162175D02*
G01*
X132102443Y-75309245D01*
X132102445Y-75309246D01*
X132421990Y-75522759D01*
X132693741Y-75794510D01*
X132849518Y-76027647D01*
X132907255Y-76114057D01*
X133054325Y-76469115D01*
X133129300Y-76846042D01*
X133129300Y-77230358D01*
X133054325Y-77607285D01*
X133019777Y-77690690D01*
X132907254Y-77962345D01*
X132693741Y-78281890D01*
X132421990Y-78553641D01*
X132102445Y-78767154D01*
X132102444Y-78767155D01*
X132102443Y-78767155D01*
X131747385Y-78914225D01*
X131370458Y-78989200D01*
X130986142Y-78989200D01*
X130609215Y-78914225D01*
X130254157Y-78767155D01*
X130254156Y-78767155D01*
X130254155Y-78767154D01*
X129934610Y-78553641D01*
X129662859Y-78281890D01*
X129449346Y-77962345D01*
X129336823Y-77690690D01*
X129302275Y-77607285D01*
X129227300Y-77230358D01*
X129227300Y-76846042D01*
X129302275Y-76469115D01*
X129449345Y-76114057D01*
X129507082Y-76027647D01*
X129662859Y-75794510D01*
X129934610Y-75522759D01*
X130254155Y-75309246D01*
X130254157Y-75309245D01*
X130609215Y-75162175D01*
X130986142Y-75087200D01*
X131370458Y-75087200D01*
X131747385Y-75162175D01*
X131747385Y-75162175D01*
G37*
G36*
X171345151Y-77506885D02*
G01*
X171379129Y-77517193D01*
X171410450Y-77533934D01*
X171437899Y-77556461D01*
X171460426Y-77583910D01*
X171477167Y-77615231D01*
X171487475Y-77649209D01*
X171491560Y-77690690D01*
X171491560Y-78366910D01*
X171487475Y-78408391D01*
X171477167Y-78442369D01*
X171460426Y-78473690D01*
X171437899Y-78501139D01*
X171410450Y-78523666D01*
X171379129Y-78540407D01*
X171345151Y-78550715D01*
X171303670Y-78554800D01*
X170702450Y-78554800D01*
X170660969Y-78550715D01*
X170626991Y-78540407D01*
X170595670Y-78523666D01*
X170568221Y-78501139D01*
X170545694Y-78473690D01*
X170528953Y-78442369D01*
X170518645Y-78408391D01*
X170514560Y-78366910D01*
X170514560Y-77690690D01*
X170518645Y-77649209D01*
X170528953Y-77615231D01*
X170545694Y-77583910D01*
X170568221Y-77556461D01*
X170595670Y-77533934D01*
X170626991Y-77517193D01*
X170660969Y-77506885D01*
X170702450Y-77502800D01*
X171303670Y-77502800D01*
X171345151Y-77506885D01*
X171345151Y-77506885D01*
G37*
G36*
X169770151Y-77506885D02*
G01*
X169804129Y-77517193D01*
X169835450Y-77533934D01*
X169862899Y-77556461D01*
X169885426Y-77583910D01*
X169902167Y-77615231D01*
X169912475Y-77649209D01*
X169916560Y-77690690D01*
X169916560Y-78366910D01*
X169912475Y-78408391D01*
X169902167Y-78442369D01*
X169885426Y-78473690D01*
X169862899Y-78501139D01*
X169835450Y-78523666D01*
X169804129Y-78540407D01*
X169770151Y-78550715D01*
X169728670Y-78554800D01*
X169127450Y-78554800D01*
X169085969Y-78550715D01*
X169051991Y-78540407D01*
X169020670Y-78523666D01*
X168993221Y-78501139D01*
X168970694Y-78473690D01*
X168953953Y-78442369D01*
X168943645Y-78408391D01*
X168939560Y-78366910D01*
X168939560Y-77690690D01*
X168943645Y-77649209D01*
X168953953Y-77615231D01*
X168970694Y-77583910D01*
X168993221Y-77556461D01*
X169020670Y-77533934D01*
X169051991Y-77517193D01*
X169085969Y-77506885D01*
X169127450Y-77502800D01*
X169728670Y-77502800D01*
X169770151Y-77506885D01*
X169770151Y-77506885D01*
G37*
G36*
X177277787Y-75787196D02*
G01*
X177514553Y-75885268D01*
X177514555Y-75885269D01*
X177727639Y-76027647D01*
X177908853Y-76208861D01*
X178042171Y-76408385D01*
X178051232Y-76421947D01*
X178149304Y-76658713D01*
X178199300Y-76910061D01*
X178199300Y-77166339D01*
X178149304Y-77417687D01*
X178051232Y-77654453D01*
X178051231Y-77654455D01*
X177908853Y-77867539D01*
X177727639Y-78048753D01*
X177514555Y-78191131D01*
X177514554Y-78191132D01*
X177514553Y-78191132D01*
X177277787Y-78289204D01*
X177026439Y-78339200D01*
X176770161Y-78339200D01*
X176518813Y-78289204D01*
X176282047Y-78191132D01*
X176282046Y-78191132D01*
X176282045Y-78191131D01*
X176068961Y-78048753D01*
X175887747Y-77867539D01*
X175745369Y-77654455D01*
X175745368Y-77654453D01*
X175647296Y-77417687D01*
X175597300Y-77166339D01*
X175597300Y-76910061D01*
X175647296Y-76658713D01*
X175745368Y-76421947D01*
X175754430Y-76408385D01*
X175887747Y-76208861D01*
X176068961Y-76027647D01*
X176282045Y-75885269D01*
X176282047Y-75885268D01*
X176518813Y-75787196D01*
X176770161Y-75737200D01*
X177026439Y-75737200D01*
X177277787Y-75787196D01*
X177277787Y-75787196D01*
G37*
G36*
X147798743Y-74873719D02*
G01*
X147864927Y-74880237D01*
X148034766Y-74931757D01*
X148191291Y-75015422D01*
X148227029Y-75044752D01*
X148328486Y-75128014D01*
X148411748Y-75229471D01*
X148441078Y-75265209D01*
X148524743Y-75421734D01*
X148576263Y-75591573D01*
X148593659Y-75768200D01*
X148576263Y-75944827D01*
X148524743Y-76114666D01*
X148441078Y-76271191D01*
X148411748Y-76306929D01*
X148328486Y-76408386D01*
X148254486Y-76469115D01*
X148191291Y-76520978D01*
X148034766Y-76604643D01*
X147864927Y-76656163D01*
X147798742Y-76662682D01*
X147732560Y-76669200D01*
X147644040Y-76669200D01*
X147577858Y-76662682D01*
X147511673Y-76656163D01*
X147341834Y-76604643D01*
X147185309Y-76520978D01*
X147122114Y-76469115D01*
X147048114Y-76408386D01*
X146964852Y-76306929D01*
X146935522Y-76271191D01*
X146851857Y-76114666D01*
X146800337Y-75944827D01*
X146782941Y-75768200D01*
X146800337Y-75591573D01*
X146851857Y-75421734D01*
X146935522Y-75265209D01*
X146964852Y-75229471D01*
X147048114Y-75128014D01*
X147149571Y-75044752D01*
X147185309Y-75015422D01*
X147341834Y-74931757D01*
X147511673Y-74880237D01*
X147577857Y-74873719D01*
X147644040Y-74867200D01*
X147732560Y-74867200D01*
X147798743Y-74873719D01*
X147798743Y-74873719D01*
G37*
G36*
X173198743Y-74873719D02*
G01*
X173264927Y-74880237D01*
X173434766Y-74931757D01*
X173591291Y-75015422D01*
X173627029Y-75044752D01*
X173728486Y-75128014D01*
X173811748Y-75229471D01*
X173841078Y-75265209D01*
X173924743Y-75421734D01*
X173976263Y-75591573D01*
X173993659Y-75768200D01*
X173976263Y-75944827D01*
X173924743Y-76114666D01*
X173841078Y-76271191D01*
X173811748Y-76306929D01*
X173728486Y-76408386D01*
X173654486Y-76469115D01*
X173591291Y-76520978D01*
X173434766Y-76604643D01*
X173264927Y-76656163D01*
X173198742Y-76662682D01*
X173132560Y-76669200D01*
X173044040Y-76669200D01*
X172977858Y-76662682D01*
X172911673Y-76656163D01*
X172741834Y-76604643D01*
X172585309Y-76520978D01*
X172522114Y-76469115D01*
X172448114Y-76408386D01*
X172364852Y-76306929D01*
X172335522Y-76271191D01*
X172251857Y-76114666D01*
X172200337Y-75944827D01*
X172182941Y-75768200D01*
X172200337Y-75591573D01*
X172251857Y-75421734D01*
X172335522Y-75265209D01*
X172364852Y-75229471D01*
X172448114Y-75128014D01*
X172549571Y-75044752D01*
X172585309Y-75015422D01*
X172741834Y-74931757D01*
X172911673Y-74880237D01*
X172977857Y-74873719D01*
X173044040Y-74867200D01*
X173132560Y-74867200D01*
X173198743Y-74873719D01*
X173198743Y-74873719D01*
G37*
G36*
X170658743Y-74873719D02*
G01*
X170724927Y-74880237D01*
X170894766Y-74931757D01*
X171051291Y-75015422D01*
X171087029Y-75044752D01*
X171188486Y-75128014D01*
X171271748Y-75229471D01*
X171301078Y-75265209D01*
X171384743Y-75421734D01*
X171436263Y-75591573D01*
X171453659Y-75768200D01*
X171436263Y-75944827D01*
X171384743Y-76114666D01*
X171301078Y-76271191D01*
X171271748Y-76306929D01*
X171188486Y-76408386D01*
X171114486Y-76469115D01*
X171051291Y-76520978D01*
X170894766Y-76604643D01*
X170724927Y-76656163D01*
X170658742Y-76662682D01*
X170592560Y-76669200D01*
X170504040Y-76669200D01*
X170437858Y-76662682D01*
X170371673Y-76656163D01*
X170201834Y-76604643D01*
X170045309Y-76520978D01*
X169982114Y-76469115D01*
X169908114Y-76408386D01*
X169824852Y-76306929D01*
X169795522Y-76271191D01*
X169711857Y-76114666D01*
X169660337Y-75944827D01*
X169642941Y-75768200D01*
X169660337Y-75591573D01*
X169711857Y-75421734D01*
X169795522Y-75265209D01*
X169824852Y-75229471D01*
X169908114Y-75128014D01*
X170009571Y-75044752D01*
X170045309Y-75015422D01*
X170201834Y-74931757D01*
X170371673Y-74880237D01*
X170437857Y-74873719D01*
X170504040Y-74867200D01*
X170592560Y-74867200D01*
X170658743Y-74873719D01*
X170658743Y-74873719D01*
G37*
G36*
X168118743Y-74873719D02*
G01*
X168184927Y-74880237D01*
X168354766Y-74931757D01*
X168511291Y-75015422D01*
X168547029Y-75044752D01*
X168648486Y-75128014D01*
X168731748Y-75229471D01*
X168761078Y-75265209D01*
X168844743Y-75421734D01*
X168896263Y-75591573D01*
X168913659Y-75768200D01*
X168896263Y-75944827D01*
X168844743Y-76114666D01*
X168761078Y-76271191D01*
X168731748Y-76306929D01*
X168648486Y-76408386D01*
X168574486Y-76469115D01*
X168511291Y-76520978D01*
X168354766Y-76604643D01*
X168184927Y-76656163D01*
X168118742Y-76662682D01*
X168052560Y-76669200D01*
X167964040Y-76669200D01*
X167897858Y-76662682D01*
X167831673Y-76656163D01*
X167661834Y-76604643D01*
X167505309Y-76520978D01*
X167442114Y-76469115D01*
X167368114Y-76408386D01*
X167284852Y-76306929D01*
X167255522Y-76271191D01*
X167171857Y-76114666D01*
X167120337Y-75944827D01*
X167102941Y-75768200D01*
X167120337Y-75591573D01*
X167171857Y-75421734D01*
X167255522Y-75265209D01*
X167284852Y-75229471D01*
X167368114Y-75128014D01*
X167469571Y-75044752D01*
X167505309Y-75015422D01*
X167661834Y-74931757D01*
X167831673Y-74880237D01*
X167897857Y-74873719D01*
X167964040Y-74867200D01*
X168052560Y-74867200D01*
X168118743Y-74873719D01*
X168118743Y-74873719D01*
G37*
G36*
X165578743Y-74873719D02*
G01*
X165644927Y-74880237D01*
X165814766Y-74931757D01*
X165971291Y-75015422D01*
X166007029Y-75044752D01*
X166108486Y-75128014D01*
X166191748Y-75229471D01*
X166221078Y-75265209D01*
X166304743Y-75421734D01*
X166356263Y-75591573D01*
X166373659Y-75768200D01*
X166356263Y-75944827D01*
X166304743Y-76114666D01*
X166221078Y-76271191D01*
X166191748Y-76306929D01*
X166108486Y-76408386D01*
X166034486Y-76469115D01*
X165971291Y-76520978D01*
X165814766Y-76604643D01*
X165644927Y-76656163D01*
X165578742Y-76662682D01*
X165512560Y-76669200D01*
X165424040Y-76669200D01*
X165357858Y-76662682D01*
X165291673Y-76656163D01*
X165121834Y-76604643D01*
X164965309Y-76520978D01*
X164902114Y-76469115D01*
X164828114Y-76408386D01*
X164744852Y-76306929D01*
X164715522Y-76271191D01*
X164631857Y-76114666D01*
X164580337Y-75944827D01*
X164562941Y-75768200D01*
X164580337Y-75591573D01*
X164631857Y-75421734D01*
X164715522Y-75265209D01*
X164744852Y-75229471D01*
X164828114Y-75128014D01*
X164929571Y-75044752D01*
X164965309Y-75015422D01*
X165121834Y-74931757D01*
X165291673Y-74880237D01*
X165357857Y-74873719D01*
X165424040Y-74867200D01*
X165512560Y-74867200D01*
X165578743Y-74873719D01*
X165578743Y-74873719D01*
G37*
G36*
X163038743Y-74873719D02*
G01*
X163104927Y-74880237D01*
X163274766Y-74931757D01*
X163431291Y-75015422D01*
X163467029Y-75044752D01*
X163568486Y-75128014D01*
X163651748Y-75229471D01*
X163681078Y-75265209D01*
X163764743Y-75421734D01*
X163816263Y-75591573D01*
X163833659Y-75768200D01*
X163816263Y-75944827D01*
X163764743Y-76114666D01*
X163681078Y-76271191D01*
X163651748Y-76306929D01*
X163568486Y-76408386D01*
X163494486Y-76469115D01*
X163431291Y-76520978D01*
X163274766Y-76604643D01*
X163104927Y-76656163D01*
X163038742Y-76662682D01*
X162972560Y-76669200D01*
X162884040Y-76669200D01*
X162817858Y-76662682D01*
X162751673Y-76656163D01*
X162581834Y-76604643D01*
X162425309Y-76520978D01*
X162362114Y-76469115D01*
X162288114Y-76408386D01*
X162204852Y-76306929D01*
X162175522Y-76271191D01*
X162091857Y-76114666D01*
X162040337Y-75944827D01*
X162022941Y-75768200D01*
X162040337Y-75591573D01*
X162091857Y-75421734D01*
X162175522Y-75265209D01*
X162204852Y-75229471D01*
X162288114Y-75128014D01*
X162389571Y-75044752D01*
X162425309Y-75015422D01*
X162581834Y-74931757D01*
X162751673Y-74880237D01*
X162817857Y-74873719D01*
X162884040Y-74867200D01*
X162972560Y-74867200D01*
X163038743Y-74873719D01*
X163038743Y-74873719D01*
G37*
G36*
X160498743Y-74873719D02*
G01*
X160564927Y-74880237D01*
X160734766Y-74931757D01*
X160891291Y-75015422D01*
X160927029Y-75044752D01*
X161028486Y-75128014D01*
X161111748Y-75229471D01*
X161141078Y-75265209D01*
X161224743Y-75421734D01*
X161276263Y-75591573D01*
X161293659Y-75768200D01*
X161276263Y-75944827D01*
X161224743Y-76114666D01*
X161141078Y-76271191D01*
X161111748Y-76306929D01*
X161028486Y-76408386D01*
X160954486Y-76469115D01*
X160891291Y-76520978D01*
X160734766Y-76604643D01*
X160564927Y-76656163D01*
X160498742Y-76662682D01*
X160432560Y-76669200D01*
X160344040Y-76669200D01*
X160277858Y-76662682D01*
X160211673Y-76656163D01*
X160041834Y-76604643D01*
X159885309Y-76520978D01*
X159822114Y-76469115D01*
X159748114Y-76408386D01*
X159664852Y-76306929D01*
X159635522Y-76271191D01*
X159551857Y-76114666D01*
X159500337Y-75944827D01*
X159482941Y-75768200D01*
X159500337Y-75591573D01*
X159551857Y-75421734D01*
X159635522Y-75265209D01*
X159664852Y-75229471D01*
X159748114Y-75128014D01*
X159849571Y-75044752D01*
X159885309Y-75015422D01*
X160041834Y-74931757D01*
X160211673Y-74880237D01*
X160277857Y-74873719D01*
X160344040Y-74867200D01*
X160432560Y-74867200D01*
X160498743Y-74873719D01*
X160498743Y-74873719D01*
G37*
G36*
X157958743Y-74873719D02*
G01*
X158024927Y-74880237D01*
X158194766Y-74931757D01*
X158351291Y-75015422D01*
X158387029Y-75044752D01*
X158488486Y-75128014D01*
X158571748Y-75229471D01*
X158601078Y-75265209D01*
X158684743Y-75421734D01*
X158736263Y-75591573D01*
X158753659Y-75768200D01*
X158736263Y-75944827D01*
X158684743Y-76114666D01*
X158601078Y-76271191D01*
X158571748Y-76306929D01*
X158488486Y-76408386D01*
X158414486Y-76469115D01*
X158351291Y-76520978D01*
X158194766Y-76604643D01*
X158024927Y-76656163D01*
X157958742Y-76662682D01*
X157892560Y-76669200D01*
X157804040Y-76669200D01*
X157737858Y-76662682D01*
X157671673Y-76656163D01*
X157501834Y-76604643D01*
X157345309Y-76520978D01*
X157282114Y-76469115D01*
X157208114Y-76408386D01*
X157124852Y-76306929D01*
X157095522Y-76271191D01*
X157011857Y-76114666D01*
X156960337Y-75944827D01*
X156942941Y-75768200D01*
X156960337Y-75591573D01*
X157011857Y-75421734D01*
X157095522Y-75265209D01*
X157124852Y-75229471D01*
X157208114Y-75128014D01*
X157309571Y-75044752D01*
X157345309Y-75015422D01*
X157501834Y-74931757D01*
X157671673Y-74880237D01*
X157737857Y-74873719D01*
X157804040Y-74867200D01*
X157892560Y-74867200D01*
X157958743Y-74873719D01*
X157958743Y-74873719D01*
G37*
G36*
X155418743Y-74873719D02*
G01*
X155484927Y-74880237D01*
X155654766Y-74931757D01*
X155811291Y-75015422D01*
X155847029Y-75044752D01*
X155948486Y-75128014D01*
X156031748Y-75229471D01*
X156061078Y-75265209D01*
X156144743Y-75421734D01*
X156196263Y-75591573D01*
X156213659Y-75768200D01*
X156196263Y-75944827D01*
X156144743Y-76114666D01*
X156061078Y-76271191D01*
X156031748Y-76306929D01*
X155948486Y-76408386D01*
X155874486Y-76469115D01*
X155811291Y-76520978D01*
X155654766Y-76604643D01*
X155484927Y-76656163D01*
X155418742Y-76662682D01*
X155352560Y-76669200D01*
X155264040Y-76669200D01*
X155197858Y-76662682D01*
X155131673Y-76656163D01*
X154961834Y-76604643D01*
X154805309Y-76520978D01*
X154742114Y-76469115D01*
X154668114Y-76408386D01*
X154584852Y-76306929D01*
X154555522Y-76271191D01*
X154471857Y-76114666D01*
X154420337Y-75944827D01*
X154402941Y-75768200D01*
X154420337Y-75591573D01*
X154471857Y-75421734D01*
X154555522Y-75265209D01*
X154584852Y-75229471D01*
X154668114Y-75128014D01*
X154769571Y-75044752D01*
X154805309Y-75015422D01*
X154961834Y-74931757D01*
X155131673Y-74880237D01*
X155197857Y-74873719D01*
X155264040Y-74867200D01*
X155352560Y-74867200D01*
X155418743Y-74873719D01*
X155418743Y-74873719D01*
G37*
G36*
X152878743Y-74873719D02*
G01*
X152944927Y-74880237D01*
X153114766Y-74931757D01*
X153271291Y-75015422D01*
X153307029Y-75044752D01*
X153408486Y-75128014D01*
X153491748Y-75229471D01*
X153521078Y-75265209D01*
X153604743Y-75421734D01*
X153656263Y-75591573D01*
X153673659Y-75768200D01*
X153656263Y-75944827D01*
X153604743Y-76114666D01*
X153521078Y-76271191D01*
X153491748Y-76306929D01*
X153408486Y-76408386D01*
X153334486Y-76469115D01*
X153271291Y-76520978D01*
X153114766Y-76604643D01*
X152944927Y-76656163D01*
X152878742Y-76662682D01*
X152812560Y-76669200D01*
X152724040Y-76669200D01*
X152657858Y-76662682D01*
X152591673Y-76656163D01*
X152421834Y-76604643D01*
X152265309Y-76520978D01*
X152202114Y-76469115D01*
X152128114Y-76408386D01*
X152044852Y-76306929D01*
X152015522Y-76271191D01*
X151931857Y-76114666D01*
X151880337Y-75944827D01*
X151862941Y-75768200D01*
X151880337Y-75591573D01*
X151931857Y-75421734D01*
X152015522Y-75265209D01*
X152044852Y-75229471D01*
X152128114Y-75128014D01*
X152229571Y-75044752D01*
X152265309Y-75015422D01*
X152421834Y-74931757D01*
X152591673Y-74880237D01*
X152657857Y-74873719D01*
X152724040Y-74867200D01*
X152812560Y-74867200D01*
X152878743Y-74873719D01*
X152878743Y-74873719D01*
G37*
G36*
X150338743Y-74873719D02*
G01*
X150404927Y-74880237D01*
X150574766Y-74931757D01*
X150731291Y-75015422D01*
X150767029Y-75044752D01*
X150868486Y-75128014D01*
X150951748Y-75229471D01*
X150981078Y-75265209D01*
X151064743Y-75421734D01*
X151116263Y-75591573D01*
X151133659Y-75768200D01*
X151116263Y-75944827D01*
X151064743Y-76114666D01*
X150981078Y-76271191D01*
X150951748Y-76306929D01*
X150868486Y-76408386D01*
X150794486Y-76469115D01*
X150731291Y-76520978D01*
X150574766Y-76604643D01*
X150404927Y-76656163D01*
X150338742Y-76662682D01*
X150272560Y-76669200D01*
X150184040Y-76669200D01*
X150117858Y-76662682D01*
X150051673Y-76656163D01*
X149881834Y-76604643D01*
X149725309Y-76520978D01*
X149662114Y-76469115D01*
X149588114Y-76408386D01*
X149504852Y-76306929D01*
X149475522Y-76271191D01*
X149391857Y-76114666D01*
X149340337Y-75944827D01*
X149322941Y-75768200D01*
X149340337Y-75591573D01*
X149391857Y-75421734D01*
X149475522Y-75265209D01*
X149504852Y-75229471D01*
X149588114Y-75128014D01*
X149689571Y-75044752D01*
X149725309Y-75015422D01*
X149881834Y-74931757D01*
X150051673Y-74880237D01*
X150117857Y-74873719D01*
X150184040Y-74867200D01*
X150272560Y-74867200D01*
X150338743Y-74873719D01*
X150338743Y-74873719D01*
G37*
G36*
X146049300Y-76669200D02*
G01*
X144247300Y-76669200D01*
X144247300Y-74867200D01*
X146049300Y-74867200D01*
X146049300Y-76669200D01*
X146049300Y-76669200D01*
G37*
M02*
