G04 #@! TF.GenerationSoftware,KiCad,Pcbnew,(5.1.4)-1*
G04 #@! TF.CreationDate,2020-01-22T19:52:42-05:00*
G04 #@! TF.ProjectId,Feather-NEO-M9N-GPS,46656174-6865-4722-9d4e-454f2d4d394e,rev?*
G04 #@! TF.SameCoordinates,Original*
G04 #@! TF.FileFunction,Copper,L2,Bot*
G04 #@! TF.FilePolarity,Positive*
%FSLAX46Y46*%
G04 Gerber Fmt 4.6, Leading zero omitted, Abs format (unit mm)*
G04 Created by KiCad (PCBNEW (5.1.4)-1) date 2020-01-22 19:52:42*
%MOMM*%
%LPD*%
G04 APERTURE LIST*
%ADD10C,0.100000*%
%ADD11C,0.500000*%
%ADD12R,1.270000X0.635000*%
%ADD13C,3.800000*%
%ADD14O,1.700000X1.700000*%
%ADD15R,1.700000X1.700000*%
%ADD16C,0.660400*%
%ADD17C,0.152400*%
%ADD18C,0.508000*%
%ADD19C,0.254000*%
G04 APERTURE END LIST*
D10*
G36*
X167675560Y-78501240D02*
G01*
X167675560Y-78907640D01*
X167421560Y-78907640D01*
X167421560Y-78501240D01*
X167675560Y-78501240D01*
G37*
G36*
X167675560Y-79517240D02*
G01*
X167675560Y-79923640D01*
X167421560Y-79923640D01*
X167421560Y-79517240D01*
X167675560Y-79517240D01*
G37*
G36*
X173446160Y-81072800D02*
G01*
X173446160Y-80572800D01*
X174046160Y-80572800D01*
X174046160Y-81072800D01*
X173446160Y-81072800D01*
G37*
G36*
X175595000Y-81072800D02*
G01*
X175595000Y-80572800D01*
X176195000Y-80572800D01*
X176195000Y-81072800D01*
X175595000Y-81072800D01*
G37*
D11*
X148704300Y-79461600D03*
D10*
G36*
X147954902Y-79461600D02*
G01*
X147954902Y-79437066D01*
X147959712Y-79388235D01*
X147969284Y-79340110D01*
X147983528Y-79293155D01*
X148002305Y-79247822D01*
X148025436Y-79204549D01*
X148052696Y-79163750D01*
X148083824Y-79125821D01*
X148118521Y-79091124D01*
X148156450Y-79059996D01*
X148197249Y-79032736D01*
X148240522Y-79009605D01*
X148285855Y-78990828D01*
X148332810Y-78976584D01*
X148380935Y-78967012D01*
X148429766Y-78962202D01*
X148454300Y-78962202D01*
X148454300Y-78961600D01*
X148954300Y-78961600D01*
X148954300Y-78962202D01*
X148978834Y-78962202D01*
X149027665Y-78967012D01*
X149075790Y-78976584D01*
X149122745Y-78990828D01*
X149168078Y-79009605D01*
X149211351Y-79032736D01*
X149252150Y-79059996D01*
X149290079Y-79091124D01*
X149324776Y-79125821D01*
X149355904Y-79163750D01*
X149383164Y-79204549D01*
X149406295Y-79247822D01*
X149425072Y-79293155D01*
X149439316Y-79340110D01*
X149448888Y-79388235D01*
X149453698Y-79437066D01*
X149453698Y-79461600D01*
X149454300Y-79461600D01*
X149454300Y-79961600D01*
X147954300Y-79961600D01*
X147954300Y-79461600D01*
X147954902Y-79461600D01*
X147954902Y-79461600D01*
G37*
D11*
X148704300Y-80761600D03*
D10*
G36*
X149454300Y-80261600D02*
G01*
X149454300Y-80761600D01*
X149453698Y-80761600D01*
X149453698Y-80786134D01*
X149448888Y-80834965D01*
X149439316Y-80883090D01*
X149425072Y-80930045D01*
X149406295Y-80975378D01*
X149383164Y-81018651D01*
X149355904Y-81059450D01*
X149324776Y-81097379D01*
X149290079Y-81132076D01*
X149252150Y-81163204D01*
X149211351Y-81190464D01*
X149168078Y-81213595D01*
X149122745Y-81232372D01*
X149075790Y-81246616D01*
X149027665Y-81256188D01*
X148978834Y-81260998D01*
X148954300Y-81260998D01*
X148954300Y-81261600D01*
X148454300Y-81261600D01*
X148454300Y-81260998D01*
X148429766Y-81260998D01*
X148380935Y-81256188D01*
X148332810Y-81246616D01*
X148285855Y-81232372D01*
X148240522Y-81213595D01*
X148197249Y-81190464D01*
X148156450Y-81163204D01*
X148118521Y-81132076D01*
X148083824Y-81097379D01*
X148052696Y-81059450D01*
X148025436Y-81018651D01*
X148002305Y-80975378D01*
X147983528Y-80930045D01*
X147969284Y-80883090D01*
X147959712Y-80834965D01*
X147954902Y-80786134D01*
X147954902Y-80761600D01*
X147954300Y-80761600D01*
X147954300Y-80261600D01*
X149454300Y-80261600D01*
X149454300Y-80261600D01*
G37*
D12*
X167548560Y-80228440D03*
X167548560Y-79212440D03*
X167548560Y-78196440D03*
D11*
X139704840Y-80431640D03*
D10*
G36*
X139704840Y-79682242D02*
G01*
X139729374Y-79682242D01*
X139778205Y-79687052D01*
X139826330Y-79696624D01*
X139873285Y-79710868D01*
X139918618Y-79729645D01*
X139961891Y-79752776D01*
X140002690Y-79780036D01*
X140040619Y-79811164D01*
X140075316Y-79845861D01*
X140106444Y-79883790D01*
X140133704Y-79924589D01*
X140156835Y-79967862D01*
X140175612Y-80013195D01*
X140189856Y-80060150D01*
X140199428Y-80108275D01*
X140204238Y-80157106D01*
X140204238Y-80181640D01*
X140204840Y-80181640D01*
X140204840Y-80681640D01*
X140204238Y-80681640D01*
X140204238Y-80706174D01*
X140199428Y-80755005D01*
X140189856Y-80803130D01*
X140175612Y-80850085D01*
X140156835Y-80895418D01*
X140133704Y-80938691D01*
X140106444Y-80979490D01*
X140075316Y-81017419D01*
X140040619Y-81052116D01*
X140002690Y-81083244D01*
X139961891Y-81110504D01*
X139918618Y-81133635D01*
X139873285Y-81152412D01*
X139826330Y-81166656D01*
X139778205Y-81176228D01*
X139729374Y-81181038D01*
X139704840Y-81181038D01*
X139704840Y-81181640D01*
X139204840Y-81181640D01*
X139204840Y-79681640D01*
X139704840Y-79681640D01*
X139704840Y-79682242D01*
X139704840Y-79682242D01*
G37*
D11*
X138404840Y-80431640D03*
D10*
G36*
X138904840Y-81181640D02*
G01*
X138404840Y-81181640D01*
X138404840Y-81181038D01*
X138380306Y-81181038D01*
X138331475Y-81176228D01*
X138283350Y-81166656D01*
X138236395Y-81152412D01*
X138191062Y-81133635D01*
X138147789Y-81110504D01*
X138106990Y-81083244D01*
X138069061Y-81052116D01*
X138034364Y-81017419D01*
X138003236Y-80979490D01*
X137975976Y-80938691D01*
X137952845Y-80895418D01*
X137934068Y-80850085D01*
X137919824Y-80803130D01*
X137910252Y-80755005D01*
X137905442Y-80706174D01*
X137905442Y-80681640D01*
X137904840Y-80681640D01*
X137904840Y-80181640D01*
X137905442Y-80181640D01*
X137905442Y-80157106D01*
X137910252Y-80108275D01*
X137919824Y-80060150D01*
X137934068Y-80013195D01*
X137952845Y-79967862D01*
X137975976Y-79924589D01*
X138003236Y-79883790D01*
X138034364Y-79845861D01*
X138069061Y-79811164D01*
X138106990Y-79780036D01*
X138147789Y-79752776D01*
X138191062Y-79729645D01*
X138236395Y-79710868D01*
X138283350Y-79696624D01*
X138331475Y-79687052D01*
X138380306Y-79682242D01*
X138404840Y-79682242D01*
X138404840Y-79681640D01*
X138904840Y-79681640D01*
X138904840Y-81181640D01*
X138904840Y-81181640D01*
G37*
D11*
X139704840Y-78155800D03*
D10*
G36*
X139704840Y-77406402D02*
G01*
X139729374Y-77406402D01*
X139778205Y-77411212D01*
X139826330Y-77420784D01*
X139873285Y-77435028D01*
X139918618Y-77453805D01*
X139961891Y-77476936D01*
X140002690Y-77504196D01*
X140040619Y-77535324D01*
X140075316Y-77570021D01*
X140106444Y-77607950D01*
X140133704Y-77648749D01*
X140156835Y-77692022D01*
X140175612Y-77737355D01*
X140189856Y-77784310D01*
X140199428Y-77832435D01*
X140204238Y-77881266D01*
X140204238Y-77905800D01*
X140204840Y-77905800D01*
X140204840Y-78405800D01*
X140204238Y-78405800D01*
X140204238Y-78430334D01*
X140199428Y-78479165D01*
X140189856Y-78527290D01*
X140175612Y-78574245D01*
X140156835Y-78619578D01*
X140133704Y-78662851D01*
X140106444Y-78703650D01*
X140075316Y-78741579D01*
X140040619Y-78776276D01*
X140002690Y-78807404D01*
X139961891Y-78834664D01*
X139918618Y-78857795D01*
X139873285Y-78876572D01*
X139826330Y-78890816D01*
X139778205Y-78900388D01*
X139729374Y-78905198D01*
X139704840Y-78905198D01*
X139704840Y-78905800D01*
X139204840Y-78905800D01*
X139204840Y-77405800D01*
X139704840Y-77405800D01*
X139704840Y-77406402D01*
X139704840Y-77406402D01*
G37*
D11*
X138404840Y-78155800D03*
D10*
G36*
X138904840Y-78905800D02*
G01*
X138404840Y-78905800D01*
X138404840Y-78905198D01*
X138380306Y-78905198D01*
X138331475Y-78900388D01*
X138283350Y-78890816D01*
X138236395Y-78876572D01*
X138191062Y-78857795D01*
X138147789Y-78834664D01*
X138106990Y-78807404D01*
X138069061Y-78776276D01*
X138034364Y-78741579D01*
X138003236Y-78703650D01*
X137975976Y-78662851D01*
X137952845Y-78619578D01*
X137934068Y-78574245D01*
X137919824Y-78527290D01*
X137910252Y-78479165D01*
X137905442Y-78430334D01*
X137905442Y-78405800D01*
X137904840Y-78405800D01*
X137904840Y-77905800D01*
X137905442Y-77905800D01*
X137905442Y-77881266D01*
X137910252Y-77832435D01*
X137919824Y-77784310D01*
X137934068Y-77737355D01*
X137952845Y-77692022D01*
X137975976Y-77648749D01*
X138003236Y-77607950D01*
X138034364Y-77570021D01*
X138069061Y-77535324D01*
X138106990Y-77504196D01*
X138147789Y-77476936D01*
X138191062Y-77453805D01*
X138236395Y-77435028D01*
X138283350Y-77420784D01*
X138331475Y-77411212D01*
X138380306Y-77406402D01*
X138404840Y-77406402D01*
X138404840Y-77405800D01*
X138904840Y-77405800D01*
X138904840Y-78905800D01*
X138904840Y-78905800D01*
G37*
D11*
X139704840Y-75951080D03*
D10*
G36*
X139704840Y-75201682D02*
G01*
X139729374Y-75201682D01*
X139778205Y-75206492D01*
X139826330Y-75216064D01*
X139873285Y-75230308D01*
X139918618Y-75249085D01*
X139961891Y-75272216D01*
X140002690Y-75299476D01*
X140040619Y-75330604D01*
X140075316Y-75365301D01*
X140106444Y-75403230D01*
X140133704Y-75444029D01*
X140156835Y-75487302D01*
X140175612Y-75532635D01*
X140189856Y-75579590D01*
X140199428Y-75627715D01*
X140204238Y-75676546D01*
X140204238Y-75701080D01*
X140204840Y-75701080D01*
X140204840Y-76201080D01*
X140204238Y-76201080D01*
X140204238Y-76225614D01*
X140199428Y-76274445D01*
X140189856Y-76322570D01*
X140175612Y-76369525D01*
X140156835Y-76414858D01*
X140133704Y-76458131D01*
X140106444Y-76498930D01*
X140075316Y-76536859D01*
X140040619Y-76571556D01*
X140002690Y-76602684D01*
X139961891Y-76629944D01*
X139918618Y-76653075D01*
X139873285Y-76671852D01*
X139826330Y-76686096D01*
X139778205Y-76695668D01*
X139729374Y-76700478D01*
X139704840Y-76700478D01*
X139704840Y-76701080D01*
X139204840Y-76701080D01*
X139204840Y-75201080D01*
X139704840Y-75201080D01*
X139704840Y-75201682D01*
X139704840Y-75201682D01*
G37*
D11*
X138404840Y-75951080D03*
D10*
G36*
X138904840Y-76701080D02*
G01*
X138404840Y-76701080D01*
X138404840Y-76700478D01*
X138380306Y-76700478D01*
X138331475Y-76695668D01*
X138283350Y-76686096D01*
X138236395Y-76671852D01*
X138191062Y-76653075D01*
X138147789Y-76629944D01*
X138106990Y-76602684D01*
X138069061Y-76571556D01*
X138034364Y-76536859D01*
X138003236Y-76498930D01*
X137975976Y-76458131D01*
X137952845Y-76414858D01*
X137934068Y-76369525D01*
X137919824Y-76322570D01*
X137910252Y-76274445D01*
X137905442Y-76225614D01*
X137905442Y-76201080D01*
X137904840Y-76201080D01*
X137904840Y-75701080D01*
X137905442Y-75701080D01*
X137905442Y-75676546D01*
X137910252Y-75627715D01*
X137919824Y-75579590D01*
X137934068Y-75532635D01*
X137952845Y-75487302D01*
X137975976Y-75444029D01*
X138003236Y-75403230D01*
X138034364Y-75365301D01*
X138069061Y-75330604D01*
X138106990Y-75299476D01*
X138147789Y-75272216D01*
X138191062Y-75249085D01*
X138236395Y-75230308D01*
X138283350Y-75216064D01*
X138331475Y-75206492D01*
X138380306Y-75201682D01*
X138404840Y-75201682D01*
X138404840Y-75201080D01*
X138904840Y-75201080D01*
X138904840Y-76701080D01*
X138904840Y-76701080D01*
G37*
D11*
X167835580Y-92644200D03*
D10*
G36*
X167086182Y-92644200D02*
G01*
X167086182Y-92619666D01*
X167090992Y-92570835D01*
X167100564Y-92522710D01*
X167114808Y-92475755D01*
X167133585Y-92430422D01*
X167156716Y-92387149D01*
X167183976Y-92346350D01*
X167215104Y-92308421D01*
X167249801Y-92273724D01*
X167287730Y-92242596D01*
X167328529Y-92215336D01*
X167371802Y-92192205D01*
X167417135Y-92173428D01*
X167464090Y-92159184D01*
X167512215Y-92149612D01*
X167561046Y-92144802D01*
X167585580Y-92144802D01*
X167585580Y-92144200D01*
X168085580Y-92144200D01*
X168085580Y-92144802D01*
X168110114Y-92144802D01*
X168158945Y-92149612D01*
X168207070Y-92159184D01*
X168254025Y-92173428D01*
X168299358Y-92192205D01*
X168342631Y-92215336D01*
X168383430Y-92242596D01*
X168421359Y-92273724D01*
X168456056Y-92308421D01*
X168487184Y-92346350D01*
X168514444Y-92387149D01*
X168537575Y-92430422D01*
X168556352Y-92475755D01*
X168570596Y-92522710D01*
X168580168Y-92570835D01*
X168584978Y-92619666D01*
X168584978Y-92644200D01*
X168585580Y-92644200D01*
X168585580Y-93144200D01*
X167085580Y-93144200D01*
X167085580Y-92644200D01*
X167086182Y-92644200D01*
X167086182Y-92644200D01*
G37*
D11*
X167835580Y-93944200D03*
D10*
G36*
X168585580Y-93444200D02*
G01*
X168585580Y-93944200D01*
X168584978Y-93944200D01*
X168584978Y-93968734D01*
X168580168Y-94017565D01*
X168570596Y-94065690D01*
X168556352Y-94112645D01*
X168537575Y-94157978D01*
X168514444Y-94201251D01*
X168487184Y-94242050D01*
X168456056Y-94279979D01*
X168421359Y-94314676D01*
X168383430Y-94345804D01*
X168342631Y-94373064D01*
X168299358Y-94396195D01*
X168254025Y-94414972D01*
X168207070Y-94429216D01*
X168158945Y-94438788D01*
X168110114Y-94443598D01*
X168085580Y-94443598D01*
X168085580Y-94444200D01*
X167585580Y-94444200D01*
X167585580Y-94443598D01*
X167561046Y-94443598D01*
X167512215Y-94438788D01*
X167464090Y-94429216D01*
X167417135Y-94414972D01*
X167371802Y-94396195D01*
X167328529Y-94373064D01*
X167287730Y-94345804D01*
X167249801Y-94314676D01*
X167215104Y-94279979D01*
X167183976Y-94242050D01*
X167156716Y-94201251D01*
X167133585Y-94157978D01*
X167114808Y-94112645D01*
X167100564Y-94065690D01*
X167090992Y-94017565D01*
X167086182Y-93968734D01*
X167086182Y-93944200D01*
X167085580Y-93944200D01*
X167085580Y-93444200D01*
X168585580Y-93444200D01*
X168585580Y-93444200D01*
G37*
D11*
X170055540Y-93949280D03*
D10*
G36*
X170804938Y-93949280D02*
G01*
X170804938Y-93973814D01*
X170800128Y-94022645D01*
X170790556Y-94070770D01*
X170776312Y-94117725D01*
X170757535Y-94163058D01*
X170734404Y-94206331D01*
X170707144Y-94247130D01*
X170676016Y-94285059D01*
X170641319Y-94319756D01*
X170603390Y-94350884D01*
X170562591Y-94378144D01*
X170519318Y-94401275D01*
X170473985Y-94420052D01*
X170427030Y-94434296D01*
X170378905Y-94443868D01*
X170330074Y-94448678D01*
X170305540Y-94448678D01*
X170305540Y-94449280D01*
X169805540Y-94449280D01*
X169805540Y-94448678D01*
X169781006Y-94448678D01*
X169732175Y-94443868D01*
X169684050Y-94434296D01*
X169637095Y-94420052D01*
X169591762Y-94401275D01*
X169548489Y-94378144D01*
X169507690Y-94350884D01*
X169469761Y-94319756D01*
X169435064Y-94285059D01*
X169403936Y-94247130D01*
X169376676Y-94206331D01*
X169353545Y-94163058D01*
X169334768Y-94117725D01*
X169320524Y-94070770D01*
X169310952Y-94022645D01*
X169306142Y-93973814D01*
X169306142Y-93949280D01*
X169305540Y-93949280D01*
X169305540Y-93449280D01*
X170805540Y-93449280D01*
X170805540Y-93949280D01*
X170804938Y-93949280D01*
X170804938Y-93949280D01*
G37*
D11*
X170055540Y-92649280D03*
D10*
G36*
X169305540Y-93149280D02*
G01*
X169305540Y-92649280D01*
X169306142Y-92649280D01*
X169306142Y-92624746D01*
X169310952Y-92575915D01*
X169320524Y-92527790D01*
X169334768Y-92480835D01*
X169353545Y-92435502D01*
X169376676Y-92392229D01*
X169403936Y-92351430D01*
X169435064Y-92313501D01*
X169469761Y-92278804D01*
X169507690Y-92247676D01*
X169548489Y-92220416D01*
X169591762Y-92197285D01*
X169637095Y-92178508D01*
X169684050Y-92164264D01*
X169732175Y-92154692D01*
X169781006Y-92149882D01*
X169805540Y-92149882D01*
X169805540Y-92149280D01*
X170305540Y-92149280D01*
X170305540Y-92149882D01*
X170330074Y-92149882D01*
X170378905Y-92154692D01*
X170427030Y-92164264D01*
X170473985Y-92178508D01*
X170519318Y-92197285D01*
X170562591Y-92220416D01*
X170603390Y-92247676D01*
X170641319Y-92278804D01*
X170676016Y-92313501D01*
X170707144Y-92351430D01*
X170734404Y-92392229D01*
X170757535Y-92435502D01*
X170776312Y-92480835D01*
X170790556Y-92527790D01*
X170800128Y-92575915D01*
X170804938Y-92624746D01*
X170804938Y-92649280D01*
X170805540Y-92649280D01*
X170805540Y-93149280D01*
X169305540Y-93149280D01*
X169305540Y-93149280D01*
G37*
D11*
X173746160Y-80172800D03*
D10*
G36*
X172996160Y-80672800D02*
G01*
X172996160Y-80172800D01*
X172996762Y-80172800D01*
X172996762Y-80148266D01*
X173001572Y-80099435D01*
X173011144Y-80051310D01*
X173025388Y-80004355D01*
X173044165Y-79959022D01*
X173067296Y-79915749D01*
X173094556Y-79874950D01*
X173125684Y-79837021D01*
X173160381Y-79802324D01*
X173198310Y-79771196D01*
X173239109Y-79743936D01*
X173282382Y-79720805D01*
X173327715Y-79702028D01*
X173374670Y-79687784D01*
X173422795Y-79678212D01*
X173471626Y-79673402D01*
X173496160Y-79673402D01*
X173496160Y-79672800D01*
X173996160Y-79672800D01*
X173996160Y-79673402D01*
X174020694Y-79673402D01*
X174069525Y-79678212D01*
X174117650Y-79687784D01*
X174164605Y-79702028D01*
X174209938Y-79720805D01*
X174253211Y-79743936D01*
X174294010Y-79771196D01*
X174331939Y-79802324D01*
X174366636Y-79837021D01*
X174397764Y-79874950D01*
X174425024Y-79915749D01*
X174448155Y-79959022D01*
X174466932Y-80004355D01*
X174481176Y-80051310D01*
X174490748Y-80099435D01*
X174495558Y-80148266D01*
X174495558Y-80172800D01*
X174496160Y-80172800D01*
X174496160Y-80672800D01*
X172996160Y-80672800D01*
X172996160Y-80672800D01*
G37*
D11*
X173746160Y-81472800D03*
D10*
G36*
X174495558Y-81472800D02*
G01*
X174495558Y-81497334D01*
X174490748Y-81546165D01*
X174481176Y-81594290D01*
X174466932Y-81641245D01*
X174448155Y-81686578D01*
X174425024Y-81729851D01*
X174397764Y-81770650D01*
X174366636Y-81808579D01*
X174331939Y-81843276D01*
X174294010Y-81874404D01*
X174253211Y-81901664D01*
X174209938Y-81924795D01*
X174164605Y-81943572D01*
X174117650Y-81957816D01*
X174069525Y-81967388D01*
X174020694Y-81972198D01*
X173996160Y-81972198D01*
X173996160Y-81972800D01*
X173496160Y-81972800D01*
X173496160Y-81972198D01*
X173471626Y-81972198D01*
X173422795Y-81967388D01*
X173374670Y-81957816D01*
X173327715Y-81943572D01*
X173282382Y-81924795D01*
X173239109Y-81901664D01*
X173198310Y-81874404D01*
X173160381Y-81843276D01*
X173125684Y-81808579D01*
X173094556Y-81770650D01*
X173067296Y-81729851D01*
X173044165Y-81686578D01*
X173025388Y-81641245D01*
X173011144Y-81594290D01*
X173001572Y-81546165D01*
X172996762Y-81497334D01*
X172996762Y-81472800D01*
X172996160Y-81472800D01*
X172996160Y-80972800D01*
X174496160Y-80972800D01*
X174496160Y-81472800D01*
X174495558Y-81472800D01*
X174495558Y-81472800D01*
G37*
D11*
X175895000Y-80172800D03*
D10*
G36*
X175145000Y-80672800D02*
G01*
X175145000Y-80172800D01*
X175145602Y-80172800D01*
X175145602Y-80148266D01*
X175150412Y-80099435D01*
X175159984Y-80051310D01*
X175174228Y-80004355D01*
X175193005Y-79959022D01*
X175216136Y-79915749D01*
X175243396Y-79874950D01*
X175274524Y-79837021D01*
X175309221Y-79802324D01*
X175347150Y-79771196D01*
X175387949Y-79743936D01*
X175431222Y-79720805D01*
X175476555Y-79702028D01*
X175523510Y-79687784D01*
X175571635Y-79678212D01*
X175620466Y-79673402D01*
X175645000Y-79673402D01*
X175645000Y-79672800D01*
X176145000Y-79672800D01*
X176145000Y-79673402D01*
X176169534Y-79673402D01*
X176218365Y-79678212D01*
X176266490Y-79687784D01*
X176313445Y-79702028D01*
X176358778Y-79720805D01*
X176402051Y-79743936D01*
X176442850Y-79771196D01*
X176480779Y-79802324D01*
X176515476Y-79837021D01*
X176546604Y-79874950D01*
X176573864Y-79915749D01*
X176596995Y-79959022D01*
X176615772Y-80004355D01*
X176630016Y-80051310D01*
X176639588Y-80099435D01*
X176644398Y-80148266D01*
X176644398Y-80172800D01*
X176645000Y-80172800D01*
X176645000Y-80672800D01*
X175145000Y-80672800D01*
X175145000Y-80672800D01*
G37*
D11*
X175895000Y-81472800D03*
D10*
G36*
X176644398Y-81472800D02*
G01*
X176644398Y-81497334D01*
X176639588Y-81546165D01*
X176630016Y-81594290D01*
X176615772Y-81641245D01*
X176596995Y-81686578D01*
X176573864Y-81729851D01*
X176546604Y-81770650D01*
X176515476Y-81808579D01*
X176480779Y-81843276D01*
X176442850Y-81874404D01*
X176402051Y-81901664D01*
X176358778Y-81924795D01*
X176313445Y-81943572D01*
X176266490Y-81957816D01*
X176218365Y-81967388D01*
X176169534Y-81972198D01*
X176145000Y-81972198D01*
X176145000Y-81972800D01*
X175645000Y-81972800D01*
X175645000Y-81972198D01*
X175620466Y-81972198D01*
X175571635Y-81967388D01*
X175523510Y-81957816D01*
X175476555Y-81943572D01*
X175431222Y-81924795D01*
X175387949Y-81901664D01*
X175347150Y-81874404D01*
X175309221Y-81843276D01*
X175274524Y-81808579D01*
X175243396Y-81770650D01*
X175216136Y-81729851D01*
X175193005Y-81686578D01*
X175174228Y-81641245D01*
X175159984Y-81594290D01*
X175150412Y-81546165D01*
X175145602Y-81497334D01*
X175145602Y-81472800D01*
X175145000Y-81472800D01*
X175145000Y-80972800D01*
X176645000Y-80972800D01*
X176645000Y-81472800D01*
X176644398Y-81472800D01*
X176644398Y-81472800D01*
G37*
D13*
X131178300Y-94818200D03*
X131178300Y-77038200D03*
D14*
X173088300Y-75768200D03*
X170548300Y-75768200D03*
X168008300Y-75768200D03*
X165468300Y-75768200D03*
X162928300Y-75768200D03*
X160388300Y-75768200D03*
X157848300Y-75768200D03*
X155308300Y-75768200D03*
X152768300Y-75768200D03*
X150228300Y-75768200D03*
X147688300Y-75768200D03*
D15*
X145148300Y-75768200D03*
D14*
X173088300Y-96088200D03*
X170548300Y-96088200D03*
X168008300Y-96088200D03*
X165468300Y-96088200D03*
X162928300Y-96088200D03*
X160388300Y-96088200D03*
X157848300Y-96088200D03*
X155308300Y-96088200D03*
X152768300Y-96088200D03*
X150228300Y-96088200D03*
X147688300Y-96088200D03*
X145148300Y-96088200D03*
X142608300Y-96088200D03*
X140068300Y-96088200D03*
X137528300Y-96088200D03*
D15*
X134988300Y-96088200D03*
D16*
X175397160Y-78978760D03*
X142260320Y-77337920D03*
X142199360Y-76393040D03*
X143134080Y-75864720D03*
X146075400Y-89712800D03*
X145249900Y-89712800D03*
X144424400Y-89712800D03*
X144487900Y-90474800D03*
X144487900Y-91173300D03*
X144487900Y-91998800D03*
X144487900Y-92824300D03*
X144487900Y-93649800D03*
X144551400Y-94538800D03*
X147599400Y-94475300D03*
X154406600Y-91008200D03*
X154406600Y-91821000D03*
X154406600Y-92633800D03*
X154406600Y-93446600D03*
X154406600Y-94259400D03*
X153314400Y-94284800D03*
X152361900Y-94284800D03*
X150876000Y-93472000D03*
X150164800Y-93472000D03*
X149453600Y-93472000D03*
X148742400Y-93472000D03*
X148031200Y-93472000D03*
X148386800Y-94208600D03*
X150901400Y-91008200D03*
X148615400Y-91008200D03*
X147878800Y-91008200D03*
X147701000Y-90068400D03*
X146837400Y-89687400D03*
X154406600Y-90195400D03*
X154406600Y-89382600D03*
X154406600Y-88569800D03*
X154406600Y-87757000D03*
X145338800Y-94640400D03*
X147345400Y-89077800D03*
X147218400Y-88112600D03*
X147218400Y-87350600D03*
X147396200Y-86537800D03*
X151231600Y-87833200D03*
X148132800Y-86207600D03*
X149021800Y-86207600D03*
X149961600Y-86207600D03*
X150698200Y-86436200D03*
X151028400Y-87071200D03*
X146100800Y-94640400D03*
X146862800Y-94665800D03*
X173098460Y-89781380D03*
X142839440Y-84739480D03*
X142844520Y-88000000D03*
X144434560Y-84754720D03*
X144434560Y-88000000D03*
X134244080Y-78938120D03*
X134244080Y-77307440D03*
X137449560Y-78938120D03*
X137449560Y-77307440D03*
X166745920Y-76895960D03*
X170337480Y-84282280D03*
X145308320Y-92227400D03*
X146171920Y-92227400D03*
X132481320Y-80782160D03*
X134589520Y-80639920D03*
X178567080Y-78430120D03*
X177434240Y-80787240D03*
X178521360Y-80929480D03*
X170789600Y-86182200D03*
X172405040Y-84658200D03*
X178577240Y-89519760D03*
X178536600Y-87122000D03*
X172989240Y-87193120D03*
X177942240Y-84221320D03*
X175747680Y-86807040D03*
X175610520Y-89433400D03*
X153710640Y-87325200D03*
X166263320Y-86685120D03*
X164068760Y-87452200D03*
X165567360Y-87477600D03*
X154940000Y-79375000D03*
X156845000Y-79375000D03*
X158750000Y-79375000D03*
X160655000Y-79375000D03*
X162560000Y-79375000D03*
X154940000Y-81280000D03*
X156845000Y-81280000D03*
X158750000Y-81280000D03*
X160655000Y-81280000D03*
X162560000Y-81280000D03*
X154940000Y-83185000D03*
X154940000Y-85090000D03*
X156845000Y-85090000D03*
X156845000Y-83185000D03*
X158750000Y-83185000D03*
X158750000Y-85090000D03*
X160655000Y-85090000D03*
X160655000Y-83185000D03*
X162560000Y-83185000D03*
X162560000Y-85090000D03*
X154940000Y-86995000D03*
X156845000Y-86995000D03*
X158750000Y-86995000D03*
X160655000Y-86995000D03*
X162560000Y-86995000D03*
X162560000Y-88900000D03*
X160655000Y-88900000D03*
X158750000Y-88900000D03*
X156845000Y-88900000D03*
X156845000Y-90805000D03*
X158750000Y-90805000D03*
X160655000Y-90805000D03*
X162560000Y-90805000D03*
X162560000Y-92710000D03*
X160655000Y-92710000D03*
X158750000Y-92710000D03*
X156845000Y-92710000D03*
X156845000Y-94615000D03*
X158750000Y-94615000D03*
X160655000Y-94615000D03*
X162560000Y-94615000D03*
X155194000Y-90932000D03*
X155194000Y-92710000D03*
X152019000Y-87503000D03*
X164846000Y-94488000D03*
X151511000Y-94869000D03*
X148971000Y-94996000D03*
X134886700Y-86233000D03*
X135039100Y-88988900D03*
X136017000Y-93268800D03*
X134620000Y-93522800D03*
X163449000Y-77203300D03*
X141046200Y-93091000D03*
X138569700Y-91440000D03*
X169697400Y-81102200D03*
X166954200Y-84236560D03*
X173266100Y-84213700D03*
X175298100Y-83121500D03*
X174663100Y-83642200D03*
X174104300Y-84302600D03*
X171335700Y-84556600D03*
X170611800Y-85064600D03*
X144653000Y-83642200D03*
X136118600Y-87274400D03*
X135521700Y-88226900D03*
X138785600Y-88239600D03*
X137401300Y-88252300D03*
X136690100Y-87947500D03*
X134480300Y-84277200D03*
X135470900Y-84264500D03*
X136385300Y-84289900D03*
X137541000Y-84289900D03*
X138607800Y-84353400D03*
X139636500Y-84277200D03*
X140601700Y-84366100D03*
X141630400Y-84289900D03*
X139766040Y-88000840D03*
X140543280Y-87614760D03*
X145206720Y-88691720D03*
X146217640Y-88188800D03*
X147558760Y-82382360D03*
X148529040Y-82356960D03*
X149458680Y-82392520D03*
X150936960Y-82783680D03*
X147355560Y-83997800D03*
X166298880Y-88087200D03*
X166385240Y-94604840D03*
X166542720Y-92816680D03*
X171643040Y-94706440D03*
X169204640Y-95016320D03*
X166771320Y-91572080D03*
X166928800Y-90744040D03*
X166938960Y-89712800D03*
X166878000Y-88783160D03*
X168818560Y-87741760D03*
X169590720Y-88295480D03*
X170550840Y-89209880D03*
X170611800Y-90149680D03*
X170987720Y-90932000D03*
X171500800Y-93472000D03*
X172765720Y-78541880D03*
X171871640Y-77231240D03*
X169392600Y-76819760D03*
X173969680Y-77282040D03*
X174315120Y-78435200D03*
X176895760Y-79131160D03*
X176250600Y-82931000D03*
X177444400Y-82753200D03*
X177606960Y-81742280D03*
X171262040Y-81092040D03*
X151119840Y-88630760D03*
X151297640Y-94132400D03*
X136489440Y-89225120D03*
X139379960Y-89235280D03*
X138457940Y-93113860D03*
X132527040Y-82341720D03*
X136042400Y-82270600D03*
X165819651Y-78147349D03*
X168173400Y-82494120D03*
X169143680Y-86700360D03*
X167396160Y-82966560D03*
X167746680Y-87015320D03*
X166908480Y-87279480D03*
X166659560Y-83423760D03*
X142201900Y-86271100D03*
X145059400Y-86233000D03*
X142214600Y-85356700D03*
X145046700Y-85369400D03*
X137388600Y-87045800D03*
X138772900Y-87058500D03*
X137375900Y-85661500D03*
X138823700Y-86029800D03*
X169666920Y-85912960D03*
X166791640Y-81671160D03*
X168656000Y-81752440D03*
X152882600Y-87998300D03*
X135087360Y-79562960D03*
X135051800Y-76697840D03*
X135950960Y-79547720D03*
X135930640Y-76682600D03*
X137703560Y-79832200D03*
X130107840Y-88332160D03*
X172217080Y-80436720D03*
X174010320Y-82712560D03*
X173136560Y-82555080D03*
X170413680Y-91597480D03*
X168737280Y-91826080D03*
X168742360Y-80258920D03*
X168513760Y-77464920D03*
X142189200Y-87223600D03*
X145135600Y-87414100D03*
D17*
X175895000Y-79476600D02*
X175397160Y-78978760D01*
X175895000Y-80172800D02*
X175895000Y-79476600D01*
X148704300Y-79461600D02*
X149984700Y-78181200D01*
X157975300Y-78181200D02*
X160388300Y-75768200D01*
X149984700Y-78181200D02*
X157975300Y-78181200D01*
X139704840Y-79893400D02*
X139704840Y-80431640D01*
X142260320Y-77337920D02*
X139704840Y-79893400D01*
X141467600Y-76393040D02*
X139704840Y-78155800D01*
X142199360Y-76393040D02*
X141467600Y-76393040D01*
X142803881Y-75534521D02*
X143134080Y-75864720D01*
X140721399Y-75534521D02*
X142803881Y-75534521D01*
X139704840Y-75951080D02*
X140304840Y-75951080D01*
X140304840Y-75951080D02*
X140721399Y-75534521D01*
D18*
X166884742Y-79212440D02*
X167548560Y-79212440D01*
X165819651Y-78147349D02*
X166884742Y-79212440D01*
X168173400Y-82494120D02*
X168198800Y-82519520D01*
X168813481Y-86370161D02*
X169143680Y-86700360D01*
X168503599Y-82824319D02*
X168658701Y-82824319D01*
X168173400Y-82494120D02*
X168503599Y-82824319D01*
X168658701Y-82824319D02*
X169136710Y-83302328D01*
X169136710Y-83302328D02*
X169136710Y-85282552D01*
X169136710Y-85282552D02*
X168813481Y-85605781D01*
X168813481Y-85605781D02*
X168813481Y-86370161D01*
D17*
X168273119Y-86488881D02*
X167746680Y-87015320D01*
X167396160Y-82966560D02*
X168273119Y-83843519D01*
X168273119Y-83843519D02*
X168273119Y-86488881D01*
X166659560Y-83659126D02*
X166659560Y-83423760D01*
X167199726Y-83667600D02*
X167598818Y-83667600D01*
X166659560Y-83423760D02*
X166955886Y-83423760D01*
X166955886Y-83423760D02*
X167199726Y-83667600D01*
X167598818Y-83667600D02*
X167920709Y-83989491D01*
X167920709Y-85943817D02*
X167894000Y-85970526D01*
X167920709Y-83989491D02*
X167920709Y-85943817D01*
X166908480Y-86812507D02*
X166908480Y-87279480D01*
X167750461Y-85970526D02*
X166908480Y-86812507D01*
X167894000Y-85970526D02*
X167750461Y-85970526D01*
X142240000Y-86233000D02*
X142201900Y-86271100D01*
X145059400Y-86233000D02*
X142240000Y-86233000D01*
X144579727Y-85369400D02*
X145046700Y-85369400D01*
X142694273Y-85369400D02*
X144579727Y-85369400D01*
X142681573Y-85356700D02*
X142694273Y-85369400D01*
X142214600Y-85356700D02*
X142681573Y-85356700D01*
X138760200Y-87045800D02*
X138772900Y-87058500D01*
X137388600Y-87045800D02*
X138760200Y-87045800D01*
X137744200Y-86029800D02*
X137375900Y-85661500D01*
X138823700Y-86029800D02*
X137744200Y-86029800D01*
X169575480Y-82671920D02*
X168656000Y-81752440D01*
X168574720Y-81671160D02*
X168656000Y-81752440D01*
X166791640Y-81671160D02*
X168574720Y-81671160D01*
X169666920Y-85445987D02*
X169666920Y-85912960D01*
X169666920Y-83082708D02*
X169666920Y-85445987D01*
X169575480Y-82991268D02*
X169666920Y-83082708D01*
X169575480Y-82671920D02*
X169575480Y-82991268D01*
X150139400Y-82196700D02*
X148704300Y-80761600D01*
X150139400Y-84725926D02*
X150139400Y-82196700D01*
X152882600Y-87469126D02*
X150139400Y-84725926D01*
X152882600Y-87998300D02*
X152882600Y-87469126D01*
X135087360Y-76733400D02*
X135051800Y-76697840D01*
X135087360Y-79562960D02*
X135087360Y-76733400D01*
X137804840Y-75951080D02*
X138404840Y-75951080D01*
X135764686Y-75951080D02*
X137804840Y-75951080D01*
X135324239Y-76391527D02*
X135764686Y-75951080D01*
X135324239Y-76537161D02*
X135324239Y-76391527D01*
X135163560Y-76697840D02*
X135324239Y-76537161D01*
X135051800Y-76697840D02*
X135163560Y-76697840D01*
X135930640Y-79527400D02*
X135950960Y-79547720D01*
X135930640Y-76682600D02*
X135930640Y-79527400D01*
X138404840Y-77308208D02*
X138404840Y-78155800D01*
X138404840Y-77295404D02*
X138404840Y-77308208D01*
X137792036Y-76682600D02*
X138404840Y-77295404D01*
X135930640Y-76682600D02*
X137792036Y-76682600D01*
X138303240Y-80330040D02*
X138404840Y-80431640D01*
X137703560Y-79832200D02*
X138303240Y-80330040D01*
X172481000Y-80172800D02*
X172217080Y-80436720D01*
X173746160Y-80172800D02*
X172481000Y-80172800D01*
X170055540Y-95595440D02*
X170548300Y-96088200D01*
X170055540Y-93949280D02*
X170055540Y-95595440D01*
X167835580Y-95915480D02*
X168008300Y-96088200D01*
X167835580Y-93944200D02*
X167835580Y-95915480D01*
X175250080Y-81472800D02*
X175895000Y-81472800D01*
X174010320Y-82712560D02*
X175250080Y-81472800D01*
X173136560Y-82082400D02*
X173746160Y-81472800D01*
X173136560Y-82555080D02*
X173136560Y-82082400D01*
X170413680Y-92291140D02*
X170055540Y-92649280D01*
X170413680Y-91597480D02*
X170413680Y-92291140D01*
X168653700Y-91826080D02*
X167835580Y-92644200D01*
X168737280Y-91826080D02*
X168653700Y-91826080D01*
X167579040Y-80258920D02*
X167548560Y-80228440D01*
X168742360Y-80258920D02*
X167579040Y-80258920D01*
X168280080Y-77464920D02*
X167548560Y-78196440D01*
X168513760Y-77464920D02*
X168280080Y-77464920D01*
D18*
X142656173Y-87223600D02*
X142668873Y-87210900D01*
X142189200Y-87223600D02*
X142656173Y-87223600D01*
X142663974Y-87215799D02*
X142656173Y-87223600D01*
X144810977Y-87215799D02*
X142663974Y-87215799D01*
X145009278Y-87414100D02*
X144810977Y-87215799D01*
X145135600Y-87414100D02*
X145009278Y-87414100D01*
D19*
G36*
X137374376Y-75221205D02*
G01*
X137366641Y-75239880D01*
X135799611Y-75239880D01*
X135764685Y-75236440D01*
X135729759Y-75239880D01*
X135729750Y-75239880D01*
X135625266Y-75250171D01*
X135491205Y-75290838D01*
X135367653Y-75356878D01*
X135259359Y-75445753D01*
X135237084Y-75472895D01*
X134977339Y-75732640D01*
X134956736Y-75732640D01*
X134770262Y-75769732D01*
X134594606Y-75842491D01*
X134436521Y-75948120D01*
X134302080Y-76082561D01*
X134196451Y-76240646D01*
X134123692Y-76416302D01*
X134086600Y-76602776D01*
X134086600Y-76792904D01*
X134123692Y-76979378D01*
X134196451Y-77155034D01*
X134302080Y-77313119D01*
X134376161Y-77387200D01*
X134376160Y-78909161D01*
X134337640Y-78947681D01*
X134232011Y-79105766D01*
X134159252Y-79281422D01*
X134122160Y-79467896D01*
X134122160Y-79658024D01*
X134159252Y-79844498D01*
X134232011Y-80020154D01*
X134337640Y-80178239D01*
X134472081Y-80312680D01*
X134630166Y-80418309D01*
X134805822Y-80491068D01*
X134992296Y-80528160D01*
X135182424Y-80528160D01*
X135368898Y-80491068D01*
X135537556Y-80421208D01*
X135669422Y-80475828D01*
X135855896Y-80512920D01*
X136046024Y-80512920D01*
X136232498Y-80475828D01*
X136408154Y-80403069D01*
X136566239Y-80297440D01*
X136700680Y-80162999D01*
X136765850Y-80065465D01*
X136775452Y-80113738D01*
X136848211Y-80289394D01*
X136953840Y-80447479D01*
X137088281Y-80581920D01*
X137246366Y-80687549D01*
X137268242Y-80696610D01*
X137269176Y-80706090D01*
X137269176Y-80730649D01*
X137281436Y-80855130D01*
X137300558Y-80951263D01*
X137336867Y-81070959D01*
X137374376Y-81161515D01*
X137433342Y-81271832D01*
X137487798Y-81353331D01*
X137567150Y-81450022D01*
X137636458Y-81519330D01*
X137733149Y-81598682D01*
X137814648Y-81653138D01*
X137924965Y-81712104D01*
X138015521Y-81749613D01*
X138135217Y-81785922D01*
X138231350Y-81805044D01*
X138355831Y-81817304D01*
X138380390Y-81817304D01*
X138404840Y-81819712D01*
X138904840Y-81819712D01*
X139029322Y-81807452D01*
X139054840Y-81799711D01*
X139080358Y-81807452D01*
X139204840Y-81819712D01*
X139704840Y-81819712D01*
X139729290Y-81817304D01*
X139753849Y-81817304D01*
X139878330Y-81805044D01*
X139974463Y-81785922D01*
X140094159Y-81749613D01*
X140184715Y-81712104D01*
X140295032Y-81653138D01*
X140376531Y-81598682D01*
X140473222Y-81519330D01*
X140542530Y-81450022D01*
X140621882Y-81353331D01*
X140676338Y-81271832D01*
X140735304Y-81161515D01*
X140772813Y-81070959D01*
X140809122Y-80951263D01*
X140828244Y-80855130D01*
X140840504Y-80730649D01*
X140840504Y-80706090D01*
X140842912Y-80681640D01*
X140842912Y-80181640D01*
X140840504Y-80157190D01*
X140840504Y-80132631D01*
X140828244Y-80008150D01*
X140809122Y-79912017D01*
X140781865Y-79822162D01*
X142065310Y-78538718D01*
X142067843Y-78540797D01*
X142089799Y-78552533D01*
X142113624Y-78559760D01*
X142138400Y-78562200D01*
X147761112Y-78562200D01*
X147685918Y-78623910D01*
X147616610Y-78693218D01*
X147537258Y-78789909D01*
X147482802Y-78871408D01*
X147423836Y-78981725D01*
X147386327Y-79072281D01*
X147350018Y-79191977D01*
X147330896Y-79288110D01*
X147318636Y-79412591D01*
X147318636Y-79437150D01*
X147316228Y-79461600D01*
X147316228Y-79961600D01*
X147328488Y-80086082D01*
X147336229Y-80111600D01*
X147328488Y-80137118D01*
X147316228Y-80261600D01*
X147316228Y-80761600D01*
X147318636Y-80786050D01*
X147318636Y-80810609D01*
X147330896Y-80935090D01*
X147350018Y-81031223D01*
X147386327Y-81150919D01*
X147423836Y-81241475D01*
X147482802Y-81351792D01*
X147537258Y-81433291D01*
X147616610Y-81529982D01*
X147685918Y-81599290D01*
X147782609Y-81678642D01*
X147864108Y-81733098D01*
X147974425Y-81792064D01*
X148064981Y-81829573D01*
X148184677Y-81865882D01*
X148280810Y-81885004D01*
X148405291Y-81897264D01*
X148429850Y-81897264D01*
X148454300Y-81899672D01*
X148836585Y-81899672D01*
X149428201Y-82491289D01*
X149428200Y-84691000D01*
X149424760Y-84725926D01*
X149428200Y-84760852D01*
X149428200Y-84760861D01*
X149438491Y-84865345D01*
X149479158Y-84999406D01*
X149545198Y-85122958D01*
X149634073Y-85231252D01*
X149661210Y-85253523D01*
X152004271Y-87596585D01*
X151954492Y-87716762D01*
X151917400Y-87903236D01*
X151917400Y-88093364D01*
X151954492Y-88279838D01*
X152027251Y-88455494D01*
X152132880Y-88613579D01*
X152267321Y-88748020D01*
X152425406Y-88853649D01*
X152601062Y-88926408D01*
X152787536Y-88963500D01*
X152977664Y-88963500D01*
X153164138Y-88926408D01*
X153339794Y-88853649D01*
X153497879Y-88748020D01*
X153632320Y-88613579D01*
X153737949Y-88455494D01*
X153810708Y-88279838D01*
X153847800Y-88093364D01*
X153847800Y-87903236D01*
X153810708Y-87716762D01*
X153737949Y-87541106D01*
X153632320Y-87383021D01*
X153584001Y-87334702D01*
X153583509Y-87329706D01*
X153547057Y-87209539D01*
X153542842Y-87195644D01*
X153476802Y-87072093D01*
X153410198Y-86990935D01*
X153410193Y-86990930D01*
X153387927Y-86963799D01*
X153360796Y-86941533D01*
X150850600Y-84431339D01*
X150850600Y-82231628D01*
X150854040Y-82196700D01*
X150850600Y-82161771D01*
X150850600Y-82161764D01*
X150840309Y-82057280D01*
X150799642Y-81923219D01*
X150733602Y-81799667D01*
X150644727Y-81691373D01*
X150617591Y-81669103D01*
X150040225Y-81091738D01*
X150058582Y-81031223D01*
X150077704Y-80935090D01*
X150089964Y-80810609D01*
X150089964Y-80786050D01*
X150092372Y-80761600D01*
X150092372Y-80261600D01*
X150080112Y-80137118D01*
X150072371Y-80111600D01*
X150080112Y-80086082D01*
X150092372Y-79961600D01*
X150092372Y-79461600D01*
X150089964Y-79437150D01*
X150089964Y-79412591D01*
X150077704Y-79288110D01*
X150058582Y-79191977D01*
X150040225Y-79131462D01*
X150279288Y-78892400D01*
X157940374Y-78892400D01*
X157975300Y-78895840D01*
X158010226Y-78892400D01*
X158010236Y-78892400D01*
X158114720Y-78882109D01*
X158248781Y-78841442D01*
X158372333Y-78775402D01*
X158480627Y-78686527D01*
X158502902Y-78659385D01*
X159969354Y-77192934D01*
X160097189Y-77231713D01*
X160315350Y-77253200D01*
X160461250Y-77253200D01*
X160679411Y-77231713D01*
X160959334Y-77146799D01*
X161217314Y-77008906D01*
X161443434Y-76823334D01*
X161629006Y-76597214D01*
X161658300Y-76542409D01*
X161687594Y-76597214D01*
X161873166Y-76823334D01*
X162099286Y-77008906D01*
X162357266Y-77146799D01*
X162637189Y-77231713D01*
X162855350Y-77253200D01*
X163001250Y-77253200D01*
X163219411Y-77231713D01*
X163499334Y-77146799D01*
X163757314Y-77008906D01*
X163983434Y-76823334D01*
X164169006Y-76597214D01*
X164198300Y-76542409D01*
X164227594Y-76597214D01*
X164413166Y-76823334D01*
X164639286Y-77008906D01*
X164897266Y-77146799D01*
X165177189Y-77231713D01*
X165395350Y-77253200D01*
X165456129Y-77253200D01*
X165362457Y-77292000D01*
X165204372Y-77397629D01*
X165069931Y-77532070D01*
X164964302Y-77690155D01*
X164891543Y-77865811D01*
X164854451Y-78052285D01*
X164854451Y-78242413D01*
X164891543Y-78428887D01*
X164964302Y-78604543D01*
X165069931Y-78762628D01*
X165204372Y-78897069D01*
X165362457Y-79002698D01*
X165456873Y-79041806D01*
X166225247Y-79810181D01*
X166253083Y-79844099D01*
X166279903Y-79866110D01*
X166275488Y-79910940D01*
X166275488Y-80545940D01*
X166287748Y-80670422D01*
X166324058Y-80790120D01*
X166337184Y-80814677D01*
X166334446Y-80815811D01*
X166176361Y-80921440D01*
X166041920Y-81055881D01*
X165936291Y-81213966D01*
X165863532Y-81389622D01*
X165826440Y-81576096D01*
X165826440Y-81766224D01*
X165863532Y-81952698D01*
X165936291Y-82128354D01*
X166041920Y-82286439D01*
X166176361Y-82420880D01*
X166322614Y-82518603D01*
X166202366Y-82568411D01*
X166044281Y-82674040D01*
X165909840Y-82808481D01*
X165804211Y-82966566D01*
X165731452Y-83142222D01*
X165694360Y-83328696D01*
X165694360Y-83518824D01*
X165731452Y-83705298D01*
X165804211Y-83880954D01*
X165909840Y-84039039D01*
X166044281Y-84173480D01*
X166202366Y-84279109D01*
X166378022Y-84351868D01*
X166564496Y-84388960D01*
X166754624Y-84388960D01*
X166941098Y-84351868D01*
X166968302Y-84340600D01*
X167060306Y-84368509D01*
X167164790Y-84378800D01*
X167164797Y-84378800D01*
X167199726Y-84382240D01*
X167209509Y-84381276D01*
X167209510Y-85505689D01*
X166430290Y-86284910D01*
X166403153Y-86307181D01*
X166314278Y-86415475D01*
X166248238Y-86539027D01*
X166232695Y-86590266D01*
X166158760Y-86664201D01*
X166053131Y-86822286D01*
X165980372Y-86997942D01*
X165943280Y-87184416D01*
X165943280Y-87374544D01*
X165980372Y-87561018D01*
X166053131Y-87736674D01*
X166158760Y-87894759D01*
X166293201Y-88029200D01*
X166451286Y-88134829D01*
X166626942Y-88207588D01*
X166813416Y-88244680D01*
X167003544Y-88244680D01*
X167190018Y-88207588D01*
X167365674Y-88134829D01*
X167523759Y-88029200D01*
X167585575Y-87967384D01*
X167651616Y-87980520D01*
X167841744Y-87980520D01*
X168028218Y-87943428D01*
X168203874Y-87870669D01*
X168361959Y-87765040D01*
X168496400Y-87630599D01*
X168589666Y-87491016D01*
X168686486Y-87555709D01*
X168862142Y-87628468D01*
X169048616Y-87665560D01*
X169238744Y-87665560D01*
X169425218Y-87628468D01*
X169600874Y-87555709D01*
X169758959Y-87450080D01*
X169893400Y-87315639D01*
X169999029Y-87157554D01*
X170071788Y-86981898D01*
X170108880Y-86795424D01*
X170108880Y-86774619D01*
X170124114Y-86768309D01*
X170282199Y-86662680D01*
X170416640Y-86528239D01*
X170522269Y-86370154D01*
X170595028Y-86194498D01*
X170632120Y-86008024D01*
X170632120Y-85817896D01*
X170595028Y-85631422D01*
X170522269Y-85455766D01*
X170416640Y-85297681D01*
X170378120Y-85259161D01*
X170378120Y-83117636D01*
X170381560Y-83082708D01*
X170378120Y-83047780D01*
X170378120Y-83047772D01*
X170367829Y-82943288D01*
X170327162Y-82809227D01*
X170286680Y-82733491D01*
X170286680Y-82706845D01*
X170290120Y-82671919D01*
X170286680Y-82636993D01*
X170286680Y-82636984D01*
X170276389Y-82532500D01*
X170235722Y-82398439D01*
X170169682Y-82274887D01*
X170126130Y-82221819D01*
X170103077Y-82193729D01*
X170103073Y-82193725D01*
X170080806Y-82166593D01*
X170053675Y-82144327D01*
X169621200Y-81711852D01*
X169621200Y-81657376D01*
X169584108Y-81470902D01*
X169511349Y-81295246D01*
X169405720Y-81137161D01*
X169309419Y-81040860D01*
X169357639Y-81008640D01*
X169492080Y-80874199D01*
X169597709Y-80716114D01*
X169670468Y-80540458D01*
X169707560Y-80353984D01*
X169707560Y-80163856D01*
X169670468Y-79977382D01*
X169597709Y-79801726D01*
X169492080Y-79643641D01*
X169357639Y-79509200D01*
X169199554Y-79403571D01*
X169023898Y-79330812D01*
X168837424Y-79293720D01*
X168821632Y-79293720D01*
X168821632Y-78894940D01*
X168809372Y-78770458D01*
X168789346Y-78704440D01*
X168809372Y-78638422D01*
X168821632Y-78513940D01*
X168821632Y-78382120D01*
X168970954Y-78320269D01*
X169129039Y-78214640D01*
X169263480Y-78080199D01*
X169369109Y-77922114D01*
X169441868Y-77746458D01*
X169478960Y-77559984D01*
X169478960Y-77369856D01*
X169441868Y-77183382D01*
X169369109Y-77007726D01*
X169263480Y-76849641D01*
X169141748Y-76727909D01*
X169249006Y-76597214D01*
X169278300Y-76542409D01*
X169307594Y-76597214D01*
X169493166Y-76823334D01*
X169719286Y-77008906D01*
X169977266Y-77146799D01*
X170257189Y-77231713D01*
X170475350Y-77253200D01*
X170621250Y-77253200D01*
X170839411Y-77231713D01*
X171119334Y-77146799D01*
X171377314Y-77008906D01*
X171603434Y-76823334D01*
X171789006Y-76597214D01*
X171818300Y-76542409D01*
X171847594Y-76597214D01*
X172033166Y-76823334D01*
X172259286Y-77008906D01*
X172517266Y-77146799D01*
X172797189Y-77231713D01*
X173015350Y-77253200D01*
X173161250Y-77253200D01*
X173379411Y-77231713D01*
X173659334Y-77146799D01*
X173917314Y-77008906D01*
X174143434Y-76823334D01*
X174329006Y-76597214D01*
X174466899Y-76339234D01*
X174551813Y-76059311D01*
X174580485Y-75768200D01*
X174551813Y-75477089D01*
X174466899Y-75197166D01*
X174446071Y-75158200D01*
X176687507Y-75158200D01*
X176348466Y-75225639D01*
X176005418Y-75367734D01*
X175696682Y-75574025D01*
X175434125Y-75836582D01*
X175227834Y-76145318D01*
X175085739Y-76488366D01*
X175013300Y-76852544D01*
X175013300Y-77223856D01*
X175085739Y-77588034D01*
X175227834Y-77931082D01*
X175285191Y-78016923D01*
X175115622Y-78050652D01*
X174939966Y-78123411D01*
X174781881Y-78229040D01*
X174647440Y-78363481D01*
X174541811Y-78521566D01*
X174469052Y-78697222D01*
X174431960Y-78883696D01*
X174431960Y-79073824D01*
X174442854Y-79128592D01*
X174385479Y-79104827D01*
X174265783Y-79068518D01*
X174169650Y-79049396D01*
X174045169Y-79037136D01*
X174020610Y-79037136D01*
X173996160Y-79034728D01*
X173496160Y-79034728D01*
X173471710Y-79037136D01*
X173447151Y-79037136D01*
X173322670Y-79049396D01*
X173226537Y-79068518D01*
X173106841Y-79104827D01*
X173016285Y-79142336D01*
X172905968Y-79201302D01*
X172824469Y-79255758D01*
X172727778Y-79335110D01*
X172658470Y-79404418D01*
X172611542Y-79461600D01*
X172515925Y-79461600D01*
X172480999Y-79458160D01*
X172446073Y-79461600D01*
X172446064Y-79461600D01*
X172341580Y-79471891D01*
X172330661Y-79475203D01*
X172312144Y-79471520D01*
X172122016Y-79471520D01*
X171935542Y-79508612D01*
X171759886Y-79581371D01*
X171601801Y-79687000D01*
X171467360Y-79821441D01*
X171361731Y-79979526D01*
X171288972Y-80155182D01*
X171251880Y-80341656D01*
X171251880Y-80531784D01*
X171288972Y-80718258D01*
X171361731Y-80893914D01*
X171467360Y-81051999D01*
X171601801Y-81186440D01*
X171759886Y-81292069D01*
X171935542Y-81364828D01*
X172122016Y-81401920D01*
X172312144Y-81401920D01*
X172358088Y-81392781D01*
X172358088Y-81472800D01*
X172360496Y-81497250D01*
X172360496Y-81521809D01*
X172372756Y-81646290D01*
X172391878Y-81742423D01*
X172428187Y-81862119D01*
X172438829Y-81887812D01*
X172386840Y-81939801D01*
X172281211Y-82097886D01*
X172208452Y-82273542D01*
X172171360Y-82460016D01*
X172171360Y-82650144D01*
X172208452Y-82836618D01*
X172281211Y-83012274D01*
X172386840Y-83170359D01*
X172521281Y-83304800D01*
X172679366Y-83410429D01*
X172855022Y-83483188D01*
X173041496Y-83520280D01*
X173231624Y-83520280D01*
X173418098Y-83483188D01*
X173423181Y-83481083D01*
X173553126Y-83567909D01*
X173728782Y-83640668D01*
X173915256Y-83677760D01*
X174105384Y-83677760D01*
X174291858Y-83640668D01*
X174467514Y-83567909D01*
X174625599Y-83462280D01*
X174760040Y-83327839D01*
X174865669Y-83169754D01*
X174938428Y-82994098D01*
X174975520Y-82807624D01*
X174975520Y-82753148D01*
X175207749Y-82520919D01*
X175255681Y-82540773D01*
X175375377Y-82577082D01*
X175471510Y-82596204D01*
X175595991Y-82608464D01*
X175620550Y-82608464D01*
X175645000Y-82610872D01*
X176145000Y-82610872D01*
X176169450Y-82608464D01*
X176194009Y-82608464D01*
X176318490Y-82596204D01*
X176414623Y-82577082D01*
X176534319Y-82540773D01*
X176624875Y-82503264D01*
X176735192Y-82444298D01*
X176816691Y-82389842D01*
X176913382Y-82310490D01*
X176982690Y-82241182D01*
X177062042Y-82144491D01*
X177116498Y-82062992D01*
X177175464Y-81952675D01*
X177212973Y-81862119D01*
X177249282Y-81742423D01*
X177268404Y-81646290D01*
X177280664Y-81521809D01*
X177280664Y-81497250D01*
X177283072Y-81472800D01*
X177283072Y-80972800D01*
X177270812Y-80848318D01*
X177263071Y-80822800D01*
X177270812Y-80797282D01*
X177283072Y-80672800D01*
X177283072Y-80172800D01*
X177280664Y-80148350D01*
X177280664Y-80123791D01*
X177268404Y-79999310D01*
X177249282Y-79903177D01*
X177212973Y-79783481D01*
X177175464Y-79692925D01*
X177116498Y-79582608D01*
X177062042Y-79501109D01*
X176982690Y-79404418D01*
X176913382Y-79335110D01*
X176816691Y-79255758D01*
X176735192Y-79201302D01*
X176624875Y-79142336D01*
X176534319Y-79104827D01*
X176496586Y-79093381D01*
X176489202Y-79079567D01*
X176400327Y-78971273D01*
X176373190Y-78949002D01*
X176362360Y-78938172D01*
X176362360Y-78883696D01*
X176356111Y-78852282D01*
X176712644Y-78923200D01*
X177083956Y-78923200D01*
X177448134Y-78850761D01*
X177791182Y-78708666D01*
X178099918Y-78502375D01*
X178362475Y-78239818D01*
X178568766Y-77931082D01*
X178710861Y-77588034D01*
X178778301Y-77248988D01*
X178778300Y-94607407D01*
X178710861Y-94268366D01*
X178568766Y-93925318D01*
X178362475Y-93616582D01*
X178099918Y-93354025D01*
X177791182Y-93147734D01*
X177448134Y-93005639D01*
X177083956Y-92933200D01*
X176712644Y-92933200D01*
X176348466Y-93005639D01*
X176005418Y-93147734D01*
X175696682Y-93354025D01*
X175434125Y-93616582D01*
X175227834Y-93925318D01*
X175085739Y-94268366D01*
X175013300Y-94632544D01*
X175013300Y-95003856D01*
X175085739Y-95368034D01*
X175227834Y-95711082D01*
X175434125Y-96019818D01*
X175696682Y-96282375D01*
X176005418Y-96488666D01*
X176348466Y-96630761D01*
X176687507Y-96698200D01*
X174439996Y-96698200D01*
X174529781Y-96445091D01*
X174409114Y-96215200D01*
X173215300Y-96215200D01*
X173215300Y-96235200D01*
X172961300Y-96235200D01*
X172961300Y-96215200D01*
X172941300Y-96215200D01*
X172941300Y-95961200D01*
X172961300Y-95961200D01*
X172961300Y-94768045D01*
X173215300Y-94768045D01*
X173215300Y-95961200D01*
X174409114Y-95961200D01*
X174529781Y-95731309D01*
X174432457Y-95456948D01*
X174283478Y-95206845D01*
X174088569Y-94990612D01*
X173855220Y-94816559D01*
X173592399Y-94691375D01*
X173445190Y-94646724D01*
X173215300Y-94768045D01*
X172961300Y-94768045D01*
X172731410Y-94646724D01*
X172584201Y-94691375D01*
X172321380Y-94816559D01*
X172088031Y-94990612D01*
X171893122Y-95206845D01*
X171823501Y-95323723D01*
X171789006Y-95259186D01*
X171603434Y-95033066D01*
X171377314Y-94847494D01*
X171140160Y-94720732D01*
X171143230Y-94717662D01*
X171222582Y-94620971D01*
X171277038Y-94539472D01*
X171336004Y-94429155D01*
X171373513Y-94338599D01*
X171409822Y-94218903D01*
X171428944Y-94122770D01*
X171441204Y-93998289D01*
X171441204Y-93973730D01*
X171443612Y-93949280D01*
X171443612Y-93449280D01*
X171431352Y-93324798D01*
X171423611Y-93299280D01*
X171431352Y-93273762D01*
X171443612Y-93149280D01*
X171443612Y-92649280D01*
X171441204Y-92624830D01*
X171441204Y-92600271D01*
X171428944Y-92475790D01*
X171409822Y-92379657D01*
X171373513Y-92259961D01*
X171336004Y-92169405D01*
X171277038Y-92059088D01*
X171270965Y-92049999D01*
X171341788Y-91879018D01*
X171378880Y-91692544D01*
X171378880Y-91502416D01*
X171341788Y-91315942D01*
X171269029Y-91140286D01*
X171163400Y-90982201D01*
X171028959Y-90847760D01*
X170870874Y-90742131D01*
X170695218Y-90669372D01*
X170508744Y-90632280D01*
X170318616Y-90632280D01*
X170132142Y-90669372D01*
X169956486Y-90742131D01*
X169798401Y-90847760D01*
X169663960Y-90982201D01*
X169558331Y-91140286D01*
X169513003Y-91249717D01*
X169487000Y-91210801D01*
X169352559Y-91076360D01*
X169194474Y-90970731D01*
X169018818Y-90897972D01*
X168832344Y-90860880D01*
X168642216Y-90860880D01*
X168455742Y-90897972D01*
X168280086Y-90970731D01*
X168122001Y-91076360D01*
X167987560Y-91210801D01*
X167881931Y-91368886D01*
X167825084Y-91506128D01*
X167585580Y-91506128D01*
X167561130Y-91508536D01*
X167536571Y-91508536D01*
X167412090Y-91520796D01*
X167315957Y-91539918D01*
X167196261Y-91576227D01*
X167105705Y-91613736D01*
X166995388Y-91672702D01*
X166913889Y-91727158D01*
X166817198Y-91806510D01*
X166747890Y-91875818D01*
X166668538Y-91972509D01*
X166614082Y-92054008D01*
X166555116Y-92164325D01*
X166517607Y-92254881D01*
X166481298Y-92374577D01*
X166462176Y-92470710D01*
X166449916Y-92595191D01*
X166449916Y-92619750D01*
X166447508Y-92644200D01*
X166447508Y-93144200D01*
X166459768Y-93268682D01*
X166467509Y-93294200D01*
X166459768Y-93319718D01*
X166447508Y-93444200D01*
X166447508Y-93944200D01*
X166449916Y-93968650D01*
X166449916Y-93993209D01*
X166462176Y-94117690D01*
X166481298Y-94213823D01*
X166517607Y-94333519D01*
X166555116Y-94424075D01*
X166614082Y-94534392D01*
X166668538Y-94615891D01*
X166747890Y-94712582D01*
X166817198Y-94781890D01*
X166913889Y-94861242D01*
X166995388Y-94915698D01*
X167056425Y-94948323D01*
X166953166Y-95033066D01*
X166767594Y-95259186D01*
X166738300Y-95313991D01*
X166709006Y-95259186D01*
X166523434Y-95033066D01*
X166297314Y-94847494D01*
X166039334Y-94709601D01*
X165759411Y-94624687D01*
X165541250Y-94603200D01*
X165395350Y-94603200D01*
X165177189Y-94624687D01*
X164897266Y-94709601D01*
X164639286Y-94847494D01*
X164413166Y-95033066D01*
X164227594Y-95259186D01*
X164198300Y-95313991D01*
X164169006Y-95259186D01*
X163983434Y-95033066D01*
X163757314Y-94847494D01*
X163499334Y-94709601D01*
X163219411Y-94624687D01*
X163001250Y-94603200D01*
X162855350Y-94603200D01*
X162637189Y-94624687D01*
X162357266Y-94709601D01*
X162099286Y-94847494D01*
X161873166Y-95033066D01*
X161687594Y-95259186D01*
X161658300Y-95313991D01*
X161629006Y-95259186D01*
X161443434Y-95033066D01*
X161217314Y-94847494D01*
X160959334Y-94709601D01*
X160679411Y-94624687D01*
X160461250Y-94603200D01*
X160315350Y-94603200D01*
X160097189Y-94624687D01*
X159817266Y-94709601D01*
X159559286Y-94847494D01*
X159333166Y-95033066D01*
X159147594Y-95259186D01*
X159118300Y-95313991D01*
X159089006Y-95259186D01*
X158903434Y-95033066D01*
X158677314Y-94847494D01*
X158419334Y-94709601D01*
X158139411Y-94624687D01*
X157921250Y-94603200D01*
X157775350Y-94603200D01*
X157557189Y-94624687D01*
X157277266Y-94709601D01*
X157019286Y-94847494D01*
X156793166Y-95033066D01*
X156607594Y-95259186D01*
X156578300Y-95313991D01*
X156549006Y-95259186D01*
X156363434Y-95033066D01*
X156137314Y-94847494D01*
X155879334Y-94709601D01*
X155599411Y-94624687D01*
X155381250Y-94603200D01*
X155235350Y-94603200D01*
X155017189Y-94624687D01*
X154737266Y-94709601D01*
X154479286Y-94847494D01*
X154253166Y-95033066D01*
X154067594Y-95259186D01*
X154038300Y-95313991D01*
X154009006Y-95259186D01*
X153823434Y-95033066D01*
X153597314Y-94847494D01*
X153339334Y-94709601D01*
X153059411Y-94624687D01*
X152841250Y-94603200D01*
X152695350Y-94603200D01*
X152477189Y-94624687D01*
X152197266Y-94709601D01*
X151939286Y-94847494D01*
X151713166Y-95033066D01*
X151527594Y-95259186D01*
X151498300Y-95313991D01*
X151469006Y-95259186D01*
X151283434Y-95033066D01*
X151057314Y-94847494D01*
X150799334Y-94709601D01*
X150519411Y-94624687D01*
X150301250Y-94603200D01*
X150155350Y-94603200D01*
X149937189Y-94624687D01*
X149657266Y-94709601D01*
X149399286Y-94847494D01*
X149173166Y-95033066D01*
X148987594Y-95259186D01*
X148958300Y-95313991D01*
X148929006Y-95259186D01*
X148743434Y-95033066D01*
X148517314Y-94847494D01*
X148259334Y-94709601D01*
X147979411Y-94624687D01*
X147761250Y-94603200D01*
X147615350Y-94603200D01*
X147397189Y-94624687D01*
X147117266Y-94709601D01*
X146859286Y-94847494D01*
X146633166Y-95033066D01*
X146447594Y-95259186D01*
X146418300Y-95313991D01*
X146389006Y-95259186D01*
X146203434Y-95033066D01*
X145977314Y-94847494D01*
X145719334Y-94709601D01*
X145439411Y-94624687D01*
X145221250Y-94603200D01*
X145075350Y-94603200D01*
X144857189Y-94624687D01*
X144577266Y-94709601D01*
X144319286Y-94847494D01*
X144093166Y-95033066D01*
X143907594Y-95259186D01*
X143873099Y-95323723D01*
X143803478Y-95206845D01*
X143608569Y-94990612D01*
X143375220Y-94816559D01*
X143112399Y-94691375D01*
X142965190Y-94646724D01*
X142735300Y-94768045D01*
X142735300Y-95961200D01*
X142755300Y-95961200D01*
X142755300Y-96215200D01*
X142735300Y-96215200D01*
X142735300Y-96235200D01*
X142481300Y-96235200D01*
X142481300Y-96215200D01*
X142461300Y-96215200D01*
X142461300Y-95961200D01*
X142481300Y-95961200D01*
X142481300Y-94768045D01*
X142251410Y-94646724D01*
X142104201Y-94691375D01*
X141841380Y-94816559D01*
X141608031Y-94990612D01*
X141413122Y-95206845D01*
X141343501Y-95323723D01*
X141309006Y-95259186D01*
X141123434Y-95033066D01*
X140897314Y-94847494D01*
X140639334Y-94709601D01*
X140359411Y-94624687D01*
X140141250Y-94603200D01*
X139995350Y-94603200D01*
X139777189Y-94624687D01*
X139497266Y-94709601D01*
X139239286Y-94847494D01*
X139013166Y-95033066D01*
X138827594Y-95259186D01*
X138798300Y-95313991D01*
X138769006Y-95259186D01*
X138583434Y-95033066D01*
X138357314Y-94847494D01*
X138099334Y-94709601D01*
X137819411Y-94624687D01*
X137601250Y-94603200D01*
X137455350Y-94603200D01*
X137237189Y-94624687D01*
X136957266Y-94709601D01*
X136699286Y-94847494D01*
X136473166Y-95033066D01*
X136448693Y-95062887D01*
X136427802Y-94994020D01*
X136368837Y-94883706D01*
X136289485Y-94787015D01*
X136192794Y-94707663D01*
X136082480Y-94648698D01*
X135962782Y-94612388D01*
X135838300Y-94600128D01*
X134138300Y-94600128D01*
X134013818Y-94612388D01*
X133894120Y-94648698D01*
X133783806Y-94707663D01*
X133713300Y-94765526D01*
X133713300Y-94568524D01*
X133615882Y-94078768D01*
X133424788Y-93617427D01*
X133327617Y-93472000D01*
X134239000Y-93472000D01*
X134263776Y-93469560D01*
X134287601Y-93462333D01*
X134309557Y-93450597D01*
X134328803Y-93434803D01*
X134344597Y-93415557D01*
X134356333Y-93393601D01*
X134363560Y-93369776D01*
X134366000Y-93345000D01*
X134366000Y-85566436D01*
X136410700Y-85566436D01*
X136410700Y-85756564D01*
X136447792Y-85943038D01*
X136520551Y-86118694D01*
X136626180Y-86276779D01*
X136709401Y-86360000D01*
X136638880Y-86430521D01*
X136533251Y-86588606D01*
X136460492Y-86764262D01*
X136423400Y-86950736D01*
X136423400Y-87140864D01*
X136460492Y-87327338D01*
X136533251Y-87502994D01*
X136638880Y-87661079D01*
X136773321Y-87795520D01*
X136931406Y-87901149D01*
X137107062Y-87973908D01*
X137293536Y-88011000D01*
X137483664Y-88011000D01*
X137670138Y-87973908D01*
X137845794Y-87901149D01*
X138003879Y-87795520D01*
X138042399Y-87757000D01*
X138106401Y-87757000D01*
X138157621Y-87808220D01*
X138315706Y-87913849D01*
X138491362Y-87986608D01*
X138677836Y-88023700D01*
X138867964Y-88023700D01*
X139054438Y-87986608D01*
X139230094Y-87913849D01*
X139388179Y-87808220D01*
X139522620Y-87673779D01*
X139628249Y-87515694D01*
X139701008Y-87340038D01*
X139738100Y-87153564D01*
X139738100Y-87128536D01*
X141224000Y-87128536D01*
X141224000Y-87318664D01*
X141261092Y-87505138D01*
X141333851Y-87680794D01*
X141439480Y-87838879D01*
X141573921Y-87973320D01*
X141732006Y-88078949D01*
X141907662Y-88151708D01*
X142094136Y-88188800D01*
X142284264Y-88188800D01*
X142470738Y-88151708D01*
X142565153Y-88112600D01*
X142612513Y-88112600D01*
X142656173Y-88116900D01*
X142699833Y-88112600D01*
X142699840Y-88112600D01*
X142779043Y-88104799D01*
X144449559Y-88104799D01*
X144512987Y-88156853D01*
X144513775Y-88157274D01*
X144520321Y-88163820D01*
X144678406Y-88269449D01*
X144854062Y-88342208D01*
X145040536Y-88379300D01*
X145230664Y-88379300D01*
X145417138Y-88342208D01*
X145592794Y-88269449D01*
X145750879Y-88163820D01*
X145885320Y-88029379D01*
X145990949Y-87871294D01*
X146063708Y-87695638D01*
X146100800Y-87509164D01*
X146100800Y-87319036D01*
X146063708Y-87132562D01*
X145990949Y-86956906D01*
X145885320Y-86798821D01*
X145859452Y-86772953D01*
X145914749Y-86690194D01*
X145987508Y-86514538D01*
X146024600Y-86328064D01*
X146024600Y-86137936D01*
X145987508Y-85951462D01*
X145918918Y-85785870D01*
X145974808Y-85650938D01*
X146011900Y-85464464D01*
X146011900Y-85274336D01*
X145974808Y-85087862D01*
X145902049Y-84912206D01*
X145796420Y-84754121D01*
X145661979Y-84619680D01*
X145503894Y-84514051D01*
X145328238Y-84441292D01*
X145141764Y-84404200D01*
X144951636Y-84404200D01*
X144765162Y-84441292D01*
X144589506Y-84514051D01*
X144431421Y-84619680D01*
X144392901Y-84658200D01*
X142881099Y-84658200D01*
X142829879Y-84606980D01*
X142671794Y-84501351D01*
X142496138Y-84428592D01*
X142309664Y-84391500D01*
X142119536Y-84391500D01*
X141933062Y-84428592D01*
X141757406Y-84501351D01*
X141599321Y-84606980D01*
X141464880Y-84741421D01*
X141359251Y-84899506D01*
X141286492Y-85075162D01*
X141249400Y-85261636D01*
X141249400Y-85451764D01*
X141286492Y-85638238D01*
X141354394Y-85802168D01*
X141346551Y-85813906D01*
X141273792Y-85989562D01*
X141236700Y-86176036D01*
X141236700Y-86366164D01*
X141273792Y-86552638D01*
X141346551Y-86728294D01*
X141352934Y-86737847D01*
X141333851Y-86766406D01*
X141261092Y-86942062D01*
X141224000Y-87128536D01*
X139738100Y-87128536D01*
X139738100Y-86963436D01*
X139701008Y-86776962D01*
X139628249Y-86601306D01*
X139615459Y-86582164D01*
X139679049Y-86486994D01*
X139751808Y-86311338D01*
X139788900Y-86124864D01*
X139788900Y-85934736D01*
X139751808Y-85748262D01*
X139679049Y-85572606D01*
X139573420Y-85414521D01*
X139438979Y-85280080D01*
X139280894Y-85174451D01*
X139105238Y-85101692D01*
X138918764Y-85064600D01*
X138728636Y-85064600D01*
X138542162Y-85101692D01*
X138366506Y-85174451D01*
X138250883Y-85251708D01*
X138231249Y-85204306D01*
X138125620Y-85046221D01*
X137991179Y-84911780D01*
X137833094Y-84806151D01*
X137657438Y-84733392D01*
X137470964Y-84696300D01*
X137280836Y-84696300D01*
X137094362Y-84733392D01*
X136918706Y-84806151D01*
X136760621Y-84911780D01*
X136626180Y-85046221D01*
X136520551Y-85204306D01*
X136447792Y-85379962D01*
X136410700Y-85566436D01*
X134366000Y-85566436D01*
X134366000Y-83185000D01*
X134363560Y-83160224D01*
X134356333Y-83136399D01*
X134344597Y-83114443D01*
X134328803Y-83095197D01*
X134309557Y-83079403D01*
X134287601Y-83067667D01*
X134263776Y-83060440D01*
X134239000Y-83058000D01*
X129298300Y-83058000D01*
X129298300Y-78743231D01*
X129562332Y-79007263D01*
X129977527Y-79284688D01*
X130438868Y-79475782D01*
X130928624Y-79573200D01*
X131427976Y-79573200D01*
X131917732Y-79475782D01*
X132379073Y-79284688D01*
X132794268Y-79007263D01*
X133147363Y-78654168D01*
X133424788Y-78238973D01*
X133615882Y-77777632D01*
X133713300Y-77287876D01*
X133713300Y-76788524D01*
X133615882Y-76298768D01*
X133424788Y-75837427D01*
X133147363Y-75422232D01*
X132883331Y-75158200D01*
X137408053Y-75158200D01*
X137374376Y-75221205D01*
X137374376Y-75221205D01*
G37*
X137374376Y-75221205D02*
X137366641Y-75239880D01*
X135799611Y-75239880D01*
X135764685Y-75236440D01*
X135729759Y-75239880D01*
X135729750Y-75239880D01*
X135625266Y-75250171D01*
X135491205Y-75290838D01*
X135367653Y-75356878D01*
X135259359Y-75445753D01*
X135237084Y-75472895D01*
X134977339Y-75732640D01*
X134956736Y-75732640D01*
X134770262Y-75769732D01*
X134594606Y-75842491D01*
X134436521Y-75948120D01*
X134302080Y-76082561D01*
X134196451Y-76240646D01*
X134123692Y-76416302D01*
X134086600Y-76602776D01*
X134086600Y-76792904D01*
X134123692Y-76979378D01*
X134196451Y-77155034D01*
X134302080Y-77313119D01*
X134376161Y-77387200D01*
X134376160Y-78909161D01*
X134337640Y-78947681D01*
X134232011Y-79105766D01*
X134159252Y-79281422D01*
X134122160Y-79467896D01*
X134122160Y-79658024D01*
X134159252Y-79844498D01*
X134232011Y-80020154D01*
X134337640Y-80178239D01*
X134472081Y-80312680D01*
X134630166Y-80418309D01*
X134805822Y-80491068D01*
X134992296Y-80528160D01*
X135182424Y-80528160D01*
X135368898Y-80491068D01*
X135537556Y-80421208D01*
X135669422Y-80475828D01*
X135855896Y-80512920D01*
X136046024Y-80512920D01*
X136232498Y-80475828D01*
X136408154Y-80403069D01*
X136566239Y-80297440D01*
X136700680Y-80162999D01*
X136765850Y-80065465D01*
X136775452Y-80113738D01*
X136848211Y-80289394D01*
X136953840Y-80447479D01*
X137088281Y-80581920D01*
X137246366Y-80687549D01*
X137268242Y-80696610D01*
X137269176Y-80706090D01*
X137269176Y-80730649D01*
X137281436Y-80855130D01*
X137300558Y-80951263D01*
X137336867Y-81070959D01*
X137374376Y-81161515D01*
X137433342Y-81271832D01*
X137487798Y-81353331D01*
X137567150Y-81450022D01*
X137636458Y-81519330D01*
X137733149Y-81598682D01*
X137814648Y-81653138D01*
X137924965Y-81712104D01*
X138015521Y-81749613D01*
X138135217Y-81785922D01*
X138231350Y-81805044D01*
X138355831Y-81817304D01*
X138380390Y-81817304D01*
X138404840Y-81819712D01*
X138904840Y-81819712D01*
X139029322Y-81807452D01*
X139054840Y-81799711D01*
X139080358Y-81807452D01*
X139204840Y-81819712D01*
X139704840Y-81819712D01*
X139729290Y-81817304D01*
X139753849Y-81817304D01*
X139878330Y-81805044D01*
X139974463Y-81785922D01*
X140094159Y-81749613D01*
X140184715Y-81712104D01*
X140295032Y-81653138D01*
X140376531Y-81598682D01*
X140473222Y-81519330D01*
X140542530Y-81450022D01*
X140621882Y-81353331D01*
X140676338Y-81271832D01*
X140735304Y-81161515D01*
X140772813Y-81070959D01*
X140809122Y-80951263D01*
X140828244Y-80855130D01*
X140840504Y-80730649D01*
X140840504Y-80706090D01*
X140842912Y-80681640D01*
X140842912Y-80181640D01*
X140840504Y-80157190D01*
X140840504Y-80132631D01*
X140828244Y-80008150D01*
X140809122Y-79912017D01*
X140781865Y-79822162D01*
X142065310Y-78538718D01*
X142067843Y-78540797D01*
X142089799Y-78552533D01*
X142113624Y-78559760D01*
X142138400Y-78562200D01*
X147761112Y-78562200D01*
X147685918Y-78623910D01*
X147616610Y-78693218D01*
X147537258Y-78789909D01*
X147482802Y-78871408D01*
X147423836Y-78981725D01*
X147386327Y-79072281D01*
X147350018Y-79191977D01*
X147330896Y-79288110D01*
X147318636Y-79412591D01*
X147318636Y-79437150D01*
X147316228Y-79461600D01*
X147316228Y-79961600D01*
X147328488Y-80086082D01*
X147336229Y-80111600D01*
X147328488Y-80137118D01*
X147316228Y-80261600D01*
X147316228Y-80761600D01*
X147318636Y-80786050D01*
X147318636Y-80810609D01*
X147330896Y-80935090D01*
X147350018Y-81031223D01*
X147386327Y-81150919D01*
X147423836Y-81241475D01*
X147482802Y-81351792D01*
X147537258Y-81433291D01*
X147616610Y-81529982D01*
X147685918Y-81599290D01*
X147782609Y-81678642D01*
X147864108Y-81733098D01*
X147974425Y-81792064D01*
X148064981Y-81829573D01*
X148184677Y-81865882D01*
X148280810Y-81885004D01*
X148405291Y-81897264D01*
X148429850Y-81897264D01*
X148454300Y-81899672D01*
X148836585Y-81899672D01*
X149428201Y-82491289D01*
X149428200Y-84691000D01*
X149424760Y-84725926D01*
X149428200Y-84760852D01*
X149428200Y-84760861D01*
X149438491Y-84865345D01*
X149479158Y-84999406D01*
X149545198Y-85122958D01*
X149634073Y-85231252D01*
X149661210Y-85253523D01*
X152004271Y-87596585D01*
X151954492Y-87716762D01*
X151917400Y-87903236D01*
X151917400Y-88093364D01*
X151954492Y-88279838D01*
X152027251Y-88455494D01*
X152132880Y-88613579D01*
X152267321Y-88748020D01*
X152425406Y-88853649D01*
X152601062Y-88926408D01*
X152787536Y-88963500D01*
X152977664Y-88963500D01*
X153164138Y-88926408D01*
X153339794Y-88853649D01*
X153497879Y-88748020D01*
X153632320Y-88613579D01*
X153737949Y-88455494D01*
X153810708Y-88279838D01*
X153847800Y-88093364D01*
X153847800Y-87903236D01*
X153810708Y-87716762D01*
X153737949Y-87541106D01*
X153632320Y-87383021D01*
X153584001Y-87334702D01*
X153583509Y-87329706D01*
X153547057Y-87209539D01*
X153542842Y-87195644D01*
X153476802Y-87072093D01*
X153410198Y-86990935D01*
X153410193Y-86990930D01*
X153387927Y-86963799D01*
X153360796Y-86941533D01*
X150850600Y-84431339D01*
X150850600Y-82231628D01*
X150854040Y-82196700D01*
X150850600Y-82161771D01*
X150850600Y-82161764D01*
X150840309Y-82057280D01*
X150799642Y-81923219D01*
X150733602Y-81799667D01*
X150644727Y-81691373D01*
X150617591Y-81669103D01*
X150040225Y-81091738D01*
X150058582Y-81031223D01*
X150077704Y-80935090D01*
X150089964Y-80810609D01*
X150089964Y-80786050D01*
X150092372Y-80761600D01*
X150092372Y-80261600D01*
X150080112Y-80137118D01*
X150072371Y-80111600D01*
X150080112Y-80086082D01*
X150092372Y-79961600D01*
X150092372Y-79461600D01*
X150089964Y-79437150D01*
X150089964Y-79412591D01*
X150077704Y-79288110D01*
X150058582Y-79191977D01*
X150040225Y-79131462D01*
X150279288Y-78892400D01*
X157940374Y-78892400D01*
X157975300Y-78895840D01*
X158010226Y-78892400D01*
X158010236Y-78892400D01*
X158114720Y-78882109D01*
X158248781Y-78841442D01*
X158372333Y-78775402D01*
X158480627Y-78686527D01*
X158502902Y-78659385D01*
X159969354Y-77192934D01*
X160097189Y-77231713D01*
X160315350Y-77253200D01*
X160461250Y-77253200D01*
X160679411Y-77231713D01*
X160959334Y-77146799D01*
X161217314Y-77008906D01*
X161443434Y-76823334D01*
X161629006Y-76597214D01*
X161658300Y-76542409D01*
X161687594Y-76597214D01*
X161873166Y-76823334D01*
X162099286Y-77008906D01*
X162357266Y-77146799D01*
X162637189Y-77231713D01*
X162855350Y-77253200D01*
X163001250Y-77253200D01*
X163219411Y-77231713D01*
X163499334Y-77146799D01*
X163757314Y-77008906D01*
X163983434Y-76823334D01*
X164169006Y-76597214D01*
X164198300Y-76542409D01*
X164227594Y-76597214D01*
X164413166Y-76823334D01*
X164639286Y-77008906D01*
X164897266Y-77146799D01*
X165177189Y-77231713D01*
X165395350Y-77253200D01*
X165456129Y-77253200D01*
X165362457Y-77292000D01*
X165204372Y-77397629D01*
X165069931Y-77532070D01*
X164964302Y-77690155D01*
X164891543Y-77865811D01*
X164854451Y-78052285D01*
X164854451Y-78242413D01*
X164891543Y-78428887D01*
X164964302Y-78604543D01*
X165069931Y-78762628D01*
X165204372Y-78897069D01*
X165362457Y-79002698D01*
X165456873Y-79041806D01*
X166225247Y-79810181D01*
X166253083Y-79844099D01*
X166279903Y-79866110D01*
X166275488Y-79910940D01*
X166275488Y-80545940D01*
X166287748Y-80670422D01*
X166324058Y-80790120D01*
X166337184Y-80814677D01*
X166334446Y-80815811D01*
X166176361Y-80921440D01*
X166041920Y-81055881D01*
X165936291Y-81213966D01*
X165863532Y-81389622D01*
X165826440Y-81576096D01*
X165826440Y-81766224D01*
X165863532Y-81952698D01*
X165936291Y-82128354D01*
X166041920Y-82286439D01*
X166176361Y-82420880D01*
X166322614Y-82518603D01*
X166202366Y-82568411D01*
X166044281Y-82674040D01*
X165909840Y-82808481D01*
X165804211Y-82966566D01*
X165731452Y-83142222D01*
X165694360Y-83328696D01*
X165694360Y-83518824D01*
X165731452Y-83705298D01*
X165804211Y-83880954D01*
X165909840Y-84039039D01*
X166044281Y-84173480D01*
X166202366Y-84279109D01*
X166378022Y-84351868D01*
X166564496Y-84388960D01*
X166754624Y-84388960D01*
X166941098Y-84351868D01*
X166968302Y-84340600D01*
X167060306Y-84368509D01*
X167164790Y-84378800D01*
X167164797Y-84378800D01*
X167199726Y-84382240D01*
X167209509Y-84381276D01*
X167209510Y-85505689D01*
X166430290Y-86284910D01*
X166403153Y-86307181D01*
X166314278Y-86415475D01*
X166248238Y-86539027D01*
X166232695Y-86590266D01*
X166158760Y-86664201D01*
X166053131Y-86822286D01*
X165980372Y-86997942D01*
X165943280Y-87184416D01*
X165943280Y-87374544D01*
X165980372Y-87561018D01*
X166053131Y-87736674D01*
X166158760Y-87894759D01*
X166293201Y-88029200D01*
X166451286Y-88134829D01*
X166626942Y-88207588D01*
X166813416Y-88244680D01*
X167003544Y-88244680D01*
X167190018Y-88207588D01*
X167365674Y-88134829D01*
X167523759Y-88029200D01*
X167585575Y-87967384D01*
X167651616Y-87980520D01*
X167841744Y-87980520D01*
X168028218Y-87943428D01*
X168203874Y-87870669D01*
X168361959Y-87765040D01*
X168496400Y-87630599D01*
X168589666Y-87491016D01*
X168686486Y-87555709D01*
X168862142Y-87628468D01*
X169048616Y-87665560D01*
X169238744Y-87665560D01*
X169425218Y-87628468D01*
X169600874Y-87555709D01*
X169758959Y-87450080D01*
X169893400Y-87315639D01*
X169999029Y-87157554D01*
X170071788Y-86981898D01*
X170108880Y-86795424D01*
X170108880Y-86774619D01*
X170124114Y-86768309D01*
X170282199Y-86662680D01*
X170416640Y-86528239D01*
X170522269Y-86370154D01*
X170595028Y-86194498D01*
X170632120Y-86008024D01*
X170632120Y-85817896D01*
X170595028Y-85631422D01*
X170522269Y-85455766D01*
X170416640Y-85297681D01*
X170378120Y-85259161D01*
X170378120Y-83117636D01*
X170381560Y-83082708D01*
X170378120Y-83047780D01*
X170378120Y-83047772D01*
X170367829Y-82943288D01*
X170327162Y-82809227D01*
X170286680Y-82733491D01*
X170286680Y-82706845D01*
X170290120Y-82671919D01*
X170286680Y-82636993D01*
X170286680Y-82636984D01*
X170276389Y-82532500D01*
X170235722Y-82398439D01*
X170169682Y-82274887D01*
X170126130Y-82221819D01*
X170103077Y-82193729D01*
X170103073Y-82193725D01*
X170080806Y-82166593D01*
X170053675Y-82144327D01*
X169621200Y-81711852D01*
X169621200Y-81657376D01*
X169584108Y-81470902D01*
X169511349Y-81295246D01*
X169405720Y-81137161D01*
X169309419Y-81040860D01*
X169357639Y-81008640D01*
X169492080Y-80874199D01*
X169597709Y-80716114D01*
X169670468Y-80540458D01*
X169707560Y-80353984D01*
X169707560Y-80163856D01*
X169670468Y-79977382D01*
X169597709Y-79801726D01*
X169492080Y-79643641D01*
X169357639Y-79509200D01*
X169199554Y-79403571D01*
X169023898Y-79330812D01*
X168837424Y-79293720D01*
X168821632Y-79293720D01*
X168821632Y-78894940D01*
X168809372Y-78770458D01*
X168789346Y-78704440D01*
X168809372Y-78638422D01*
X168821632Y-78513940D01*
X168821632Y-78382120D01*
X168970954Y-78320269D01*
X169129039Y-78214640D01*
X169263480Y-78080199D01*
X169369109Y-77922114D01*
X169441868Y-77746458D01*
X169478960Y-77559984D01*
X169478960Y-77369856D01*
X169441868Y-77183382D01*
X169369109Y-77007726D01*
X169263480Y-76849641D01*
X169141748Y-76727909D01*
X169249006Y-76597214D01*
X169278300Y-76542409D01*
X169307594Y-76597214D01*
X169493166Y-76823334D01*
X169719286Y-77008906D01*
X169977266Y-77146799D01*
X170257189Y-77231713D01*
X170475350Y-77253200D01*
X170621250Y-77253200D01*
X170839411Y-77231713D01*
X171119334Y-77146799D01*
X171377314Y-77008906D01*
X171603434Y-76823334D01*
X171789006Y-76597214D01*
X171818300Y-76542409D01*
X171847594Y-76597214D01*
X172033166Y-76823334D01*
X172259286Y-77008906D01*
X172517266Y-77146799D01*
X172797189Y-77231713D01*
X173015350Y-77253200D01*
X173161250Y-77253200D01*
X173379411Y-77231713D01*
X173659334Y-77146799D01*
X173917314Y-77008906D01*
X174143434Y-76823334D01*
X174329006Y-76597214D01*
X174466899Y-76339234D01*
X174551813Y-76059311D01*
X174580485Y-75768200D01*
X174551813Y-75477089D01*
X174466899Y-75197166D01*
X174446071Y-75158200D01*
X176687507Y-75158200D01*
X176348466Y-75225639D01*
X176005418Y-75367734D01*
X175696682Y-75574025D01*
X175434125Y-75836582D01*
X175227834Y-76145318D01*
X175085739Y-76488366D01*
X175013300Y-76852544D01*
X175013300Y-77223856D01*
X175085739Y-77588034D01*
X175227834Y-77931082D01*
X175285191Y-78016923D01*
X175115622Y-78050652D01*
X174939966Y-78123411D01*
X174781881Y-78229040D01*
X174647440Y-78363481D01*
X174541811Y-78521566D01*
X174469052Y-78697222D01*
X174431960Y-78883696D01*
X174431960Y-79073824D01*
X174442854Y-79128592D01*
X174385479Y-79104827D01*
X174265783Y-79068518D01*
X174169650Y-79049396D01*
X174045169Y-79037136D01*
X174020610Y-79037136D01*
X173996160Y-79034728D01*
X173496160Y-79034728D01*
X173471710Y-79037136D01*
X173447151Y-79037136D01*
X173322670Y-79049396D01*
X173226537Y-79068518D01*
X173106841Y-79104827D01*
X173016285Y-79142336D01*
X172905968Y-79201302D01*
X172824469Y-79255758D01*
X172727778Y-79335110D01*
X172658470Y-79404418D01*
X172611542Y-79461600D01*
X172515925Y-79461600D01*
X172480999Y-79458160D01*
X172446073Y-79461600D01*
X172446064Y-79461600D01*
X172341580Y-79471891D01*
X172330661Y-79475203D01*
X172312144Y-79471520D01*
X172122016Y-79471520D01*
X171935542Y-79508612D01*
X171759886Y-79581371D01*
X171601801Y-79687000D01*
X171467360Y-79821441D01*
X171361731Y-79979526D01*
X171288972Y-80155182D01*
X171251880Y-80341656D01*
X171251880Y-80531784D01*
X171288972Y-80718258D01*
X171361731Y-80893914D01*
X171467360Y-81051999D01*
X171601801Y-81186440D01*
X171759886Y-81292069D01*
X171935542Y-81364828D01*
X172122016Y-81401920D01*
X172312144Y-81401920D01*
X172358088Y-81392781D01*
X172358088Y-81472800D01*
X172360496Y-81497250D01*
X172360496Y-81521809D01*
X172372756Y-81646290D01*
X172391878Y-81742423D01*
X172428187Y-81862119D01*
X172438829Y-81887812D01*
X172386840Y-81939801D01*
X172281211Y-82097886D01*
X172208452Y-82273542D01*
X172171360Y-82460016D01*
X172171360Y-82650144D01*
X172208452Y-82836618D01*
X172281211Y-83012274D01*
X172386840Y-83170359D01*
X172521281Y-83304800D01*
X172679366Y-83410429D01*
X172855022Y-83483188D01*
X173041496Y-83520280D01*
X173231624Y-83520280D01*
X173418098Y-83483188D01*
X173423181Y-83481083D01*
X173553126Y-83567909D01*
X173728782Y-83640668D01*
X173915256Y-83677760D01*
X174105384Y-83677760D01*
X174291858Y-83640668D01*
X174467514Y-83567909D01*
X174625599Y-83462280D01*
X174760040Y-83327839D01*
X174865669Y-83169754D01*
X174938428Y-82994098D01*
X174975520Y-82807624D01*
X174975520Y-82753148D01*
X175207749Y-82520919D01*
X175255681Y-82540773D01*
X175375377Y-82577082D01*
X175471510Y-82596204D01*
X175595991Y-82608464D01*
X175620550Y-82608464D01*
X175645000Y-82610872D01*
X176145000Y-82610872D01*
X176169450Y-82608464D01*
X176194009Y-82608464D01*
X176318490Y-82596204D01*
X176414623Y-82577082D01*
X176534319Y-82540773D01*
X176624875Y-82503264D01*
X176735192Y-82444298D01*
X176816691Y-82389842D01*
X176913382Y-82310490D01*
X176982690Y-82241182D01*
X177062042Y-82144491D01*
X177116498Y-82062992D01*
X177175464Y-81952675D01*
X177212973Y-81862119D01*
X177249282Y-81742423D01*
X177268404Y-81646290D01*
X177280664Y-81521809D01*
X177280664Y-81497250D01*
X177283072Y-81472800D01*
X177283072Y-80972800D01*
X177270812Y-80848318D01*
X177263071Y-80822800D01*
X177270812Y-80797282D01*
X177283072Y-80672800D01*
X177283072Y-80172800D01*
X177280664Y-80148350D01*
X177280664Y-80123791D01*
X177268404Y-79999310D01*
X177249282Y-79903177D01*
X177212973Y-79783481D01*
X177175464Y-79692925D01*
X177116498Y-79582608D01*
X177062042Y-79501109D01*
X176982690Y-79404418D01*
X176913382Y-79335110D01*
X176816691Y-79255758D01*
X176735192Y-79201302D01*
X176624875Y-79142336D01*
X176534319Y-79104827D01*
X176496586Y-79093381D01*
X176489202Y-79079567D01*
X176400327Y-78971273D01*
X176373190Y-78949002D01*
X176362360Y-78938172D01*
X176362360Y-78883696D01*
X176356111Y-78852282D01*
X176712644Y-78923200D01*
X177083956Y-78923200D01*
X177448134Y-78850761D01*
X177791182Y-78708666D01*
X178099918Y-78502375D01*
X178362475Y-78239818D01*
X178568766Y-77931082D01*
X178710861Y-77588034D01*
X178778301Y-77248988D01*
X178778300Y-94607407D01*
X178710861Y-94268366D01*
X178568766Y-93925318D01*
X178362475Y-93616582D01*
X178099918Y-93354025D01*
X177791182Y-93147734D01*
X177448134Y-93005639D01*
X177083956Y-92933200D01*
X176712644Y-92933200D01*
X176348466Y-93005639D01*
X176005418Y-93147734D01*
X175696682Y-93354025D01*
X175434125Y-93616582D01*
X175227834Y-93925318D01*
X175085739Y-94268366D01*
X175013300Y-94632544D01*
X175013300Y-95003856D01*
X175085739Y-95368034D01*
X175227834Y-95711082D01*
X175434125Y-96019818D01*
X175696682Y-96282375D01*
X176005418Y-96488666D01*
X176348466Y-96630761D01*
X176687507Y-96698200D01*
X174439996Y-96698200D01*
X174529781Y-96445091D01*
X174409114Y-96215200D01*
X173215300Y-96215200D01*
X173215300Y-96235200D01*
X172961300Y-96235200D01*
X172961300Y-96215200D01*
X172941300Y-96215200D01*
X172941300Y-95961200D01*
X172961300Y-95961200D01*
X172961300Y-94768045D01*
X173215300Y-94768045D01*
X173215300Y-95961200D01*
X174409114Y-95961200D01*
X174529781Y-95731309D01*
X174432457Y-95456948D01*
X174283478Y-95206845D01*
X174088569Y-94990612D01*
X173855220Y-94816559D01*
X173592399Y-94691375D01*
X173445190Y-94646724D01*
X173215300Y-94768045D01*
X172961300Y-94768045D01*
X172731410Y-94646724D01*
X172584201Y-94691375D01*
X172321380Y-94816559D01*
X172088031Y-94990612D01*
X171893122Y-95206845D01*
X171823501Y-95323723D01*
X171789006Y-95259186D01*
X171603434Y-95033066D01*
X171377314Y-94847494D01*
X171140160Y-94720732D01*
X171143230Y-94717662D01*
X171222582Y-94620971D01*
X171277038Y-94539472D01*
X171336004Y-94429155D01*
X171373513Y-94338599D01*
X171409822Y-94218903D01*
X171428944Y-94122770D01*
X171441204Y-93998289D01*
X171441204Y-93973730D01*
X171443612Y-93949280D01*
X171443612Y-93449280D01*
X171431352Y-93324798D01*
X171423611Y-93299280D01*
X171431352Y-93273762D01*
X171443612Y-93149280D01*
X171443612Y-92649280D01*
X171441204Y-92624830D01*
X171441204Y-92600271D01*
X171428944Y-92475790D01*
X171409822Y-92379657D01*
X171373513Y-92259961D01*
X171336004Y-92169405D01*
X171277038Y-92059088D01*
X171270965Y-92049999D01*
X171341788Y-91879018D01*
X171378880Y-91692544D01*
X171378880Y-91502416D01*
X171341788Y-91315942D01*
X171269029Y-91140286D01*
X171163400Y-90982201D01*
X171028959Y-90847760D01*
X170870874Y-90742131D01*
X170695218Y-90669372D01*
X170508744Y-90632280D01*
X170318616Y-90632280D01*
X170132142Y-90669372D01*
X169956486Y-90742131D01*
X169798401Y-90847760D01*
X169663960Y-90982201D01*
X169558331Y-91140286D01*
X169513003Y-91249717D01*
X169487000Y-91210801D01*
X169352559Y-91076360D01*
X169194474Y-90970731D01*
X169018818Y-90897972D01*
X168832344Y-90860880D01*
X168642216Y-90860880D01*
X168455742Y-90897972D01*
X168280086Y-90970731D01*
X168122001Y-91076360D01*
X167987560Y-91210801D01*
X167881931Y-91368886D01*
X167825084Y-91506128D01*
X167585580Y-91506128D01*
X167561130Y-91508536D01*
X167536571Y-91508536D01*
X167412090Y-91520796D01*
X167315957Y-91539918D01*
X167196261Y-91576227D01*
X167105705Y-91613736D01*
X166995388Y-91672702D01*
X166913889Y-91727158D01*
X166817198Y-91806510D01*
X166747890Y-91875818D01*
X166668538Y-91972509D01*
X166614082Y-92054008D01*
X166555116Y-92164325D01*
X166517607Y-92254881D01*
X166481298Y-92374577D01*
X166462176Y-92470710D01*
X166449916Y-92595191D01*
X166449916Y-92619750D01*
X166447508Y-92644200D01*
X166447508Y-93144200D01*
X166459768Y-93268682D01*
X166467509Y-93294200D01*
X166459768Y-93319718D01*
X166447508Y-93444200D01*
X166447508Y-93944200D01*
X166449916Y-93968650D01*
X166449916Y-93993209D01*
X166462176Y-94117690D01*
X166481298Y-94213823D01*
X166517607Y-94333519D01*
X166555116Y-94424075D01*
X166614082Y-94534392D01*
X166668538Y-94615891D01*
X166747890Y-94712582D01*
X166817198Y-94781890D01*
X166913889Y-94861242D01*
X166995388Y-94915698D01*
X167056425Y-94948323D01*
X166953166Y-95033066D01*
X166767594Y-95259186D01*
X166738300Y-95313991D01*
X166709006Y-95259186D01*
X166523434Y-95033066D01*
X166297314Y-94847494D01*
X166039334Y-94709601D01*
X165759411Y-94624687D01*
X165541250Y-94603200D01*
X165395350Y-94603200D01*
X165177189Y-94624687D01*
X164897266Y-94709601D01*
X164639286Y-94847494D01*
X164413166Y-95033066D01*
X164227594Y-95259186D01*
X164198300Y-95313991D01*
X164169006Y-95259186D01*
X163983434Y-95033066D01*
X163757314Y-94847494D01*
X163499334Y-94709601D01*
X163219411Y-94624687D01*
X163001250Y-94603200D01*
X162855350Y-94603200D01*
X162637189Y-94624687D01*
X162357266Y-94709601D01*
X162099286Y-94847494D01*
X161873166Y-95033066D01*
X161687594Y-95259186D01*
X161658300Y-95313991D01*
X161629006Y-95259186D01*
X161443434Y-95033066D01*
X161217314Y-94847494D01*
X160959334Y-94709601D01*
X160679411Y-94624687D01*
X160461250Y-94603200D01*
X160315350Y-94603200D01*
X160097189Y-94624687D01*
X159817266Y-94709601D01*
X159559286Y-94847494D01*
X159333166Y-95033066D01*
X159147594Y-95259186D01*
X159118300Y-95313991D01*
X159089006Y-95259186D01*
X158903434Y-95033066D01*
X158677314Y-94847494D01*
X158419334Y-94709601D01*
X158139411Y-94624687D01*
X157921250Y-94603200D01*
X157775350Y-94603200D01*
X157557189Y-94624687D01*
X157277266Y-94709601D01*
X157019286Y-94847494D01*
X156793166Y-95033066D01*
X156607594Y-95259186D01*
X156578300Y-95313991D01*
X156549006Y-95259186D01*
X156363434Y-95033066D01*
X156137314Y-94847494D01*
X155879334Y-94709601D01*
X155599411Y-94624687D01*
X155381250Y-94603200D01*
X155235350Y-94603200D01*
X155017189Y-94624687D01*
X154737266Y-94709601D01*
X154479286Y-94847494D01*
X154253166Y-95033066D01*
X154067594Y-95259186D01*
X154038300Y-95313991D01*
X154009006Y-95259186D01*
X153823434Y-95033066D01*
X153597314Y-94847494D01*
X153339334Y-94709601D01*
X153059411Y-94624687D01*
X152841250Y-94603200D01*
X152695350Y-94603200D01*
X152477189Y-94624687D01*
X152197266Y-94709601D01*
X151939286Y-94847494D01*
X151713166Y-95033066D01*
X151527594Y-95259186D01*
X151498300Y-95313991D01*
X151469006Y-95259186D01*
X151283434Y-95033066D01*
X151057314Y-94847494D01*
X150799334Y-94709601D01*
X150519411Y-94624687D01*
X150301250Y-94603200D01*
X150155350Y-94603200D01*
X149937189Y-94624687D01*
X149657266Y-94709601D01*
X149399286Y-94847494D01*
X149173166Y-95033066D01*
X148987594Y-95259186D01*
X148958300Y-95313991D01*
X148929006Y-95259186D01*
X148743434Y-95033066D01*
X148517314Y-94847494D01*
X148259334Y-94709601D01*
X147979411Y-94624687D01*
X147761250Y-94603200D01*
X147615350Y-94603200D01*
X147397189Y-94624687D01*
X147117266Y-94709601D01*
X146859286Y-94847494D01*
X146633166Y-95033066D01*
X146447594Y-95259186D01*
X146418300Y-95313991D01*
X146389006Y-95259186D01*
X146203434Y-95033066D01*
X145977314Y-94847494D01*
X145719334Y-94709601D01*
X145439411Y-94624687D01*
X145221250Y-94603200D01*
X145075350Y-94603200D01*
X144857189Y-94624687D01*
X144577266Y-94709601D01*
X144319286Y-94847494D01*
X144093166Y-95033066D01*
X143907594Y-95259186D01*
X143873099Y-95323723D01*
X143803478Y-95206845D01*
X143608569Y-94990612D01*
X143375220Y-94816559D01*
X143112399Y-94691375D01*
X142965190Y-94646724D01*
X142735300Y-94768045D01*
X142735300Y-95961200D01*
X142755300Y-95961200D01*
X142755300Y-96215200D01*
X142735300Y-96215200D01*
X142735300Y-96235200D01*
X142481300Y-96235200D01*
X142481300Y-96215200D01*
X142461300Y-96215200D01*
X142461300Y-95961200D01*
X142481300Y-95961200D01*
X142481300Y-94768045D01*
X142251410Y-94646724D01*
X142104201Y-94691375D01*
X141841380Y-94816559D01*
X141608031Y-94990612D01*
X141413122Y-95206845D01*
X141343501Y-95323723D01*
X141309006Y-95259186D01*
X141123434Y-95033066D01*
X140897314Y-94847494D01*
X140639334Y-94709601D01*
X140359411Y-94624687D01*
X140141250Y-94603200D01*
X139995350Y-94603200D01*
X139777189Y-94624687D01*
X139497266Y-94709601D01*
X139239286Y-94847494D01*
X139013166Y-95033066D01*
X138827594Y-95259186D01*
X138798300Y-95313991D01*
X138769006Y-95259186D01*
X138583434Y-95033066D01*
X138357314Y-94847494D01*
X138099334Y-94709601D01*
X137819411Y-94624687D01*
X137601250Y-94603200D01*
X137455350Y-94603200D01*
X137237189Y-94624687D01*
X136957266Y-94709601D01*
X136699286Y-94847494D01*
X136473166Y-95033066D01*
X136448693Y-95062887D01*
X136427802Y-94994020D01*
X136368837Y-94883706D01*
X136289485Y-94787015D01*
X136192794Y-94707663D01*
X136082480Y-94648698D01*
X135962782Y-94612388D01*
X135838300Y-94600128D01*
X134138300Y-94600128D01*
X134013818Y-94612388D01*
X133894120Y-94648698D01*
X133783806Y-94707663D01*
X133713300Y-94765526D01*
X133713300Y-94568524D01*
X133615882Y-94078768D01*
X133424788Y-93617427D01*
X133327617Y-93472000D01*
X134239000Y-93472000D01*
X134263776Y-93469560D01*
X134287601Y-93462333D01*
X134309557Y-93450597D01*
X134328803Y-93434803D01*
X134344597Y-93415557D01*
X134356333Y-93393601D01*
X134363560Y-93369776D01*
X134366000Y-93345000D01*
X134366000Y-85566436D01*
X136410700Y-85566436D01*
X136410700Y-85756564D01*
X136447792Y-85943038D01*
X136520551Y-86118694D01*
X136626180Y-86276779D01*
X136709401Y-86360000D01*
X136638880Y-86430521D01*
X136533251Y-86588606D01*
X136460492Y-86764262D01*
X136423400Y-86950736D01*
X136423400Y-87140864D01*
X136460492Y-87327338D01*
X136533251Y-87502994D01*
X136638880Y-87661079D01*
X136773321Y-87795520D01*
X136931406Y-87901149D01*
X137107062Y-87973908D01*
X137293536Y-88011000D01*
X137483664Y-88011000D01*
X137670138Y-87973908D01*
X137845794Y-87901149D01*
X138003879Y-87795520D01*
X138042399Y-87757000D01*
X138106401Y-87757000D01*
X138157621Y-87808220D01*
X138315706Y-87913849D01*
X138491362Y-87986608D01*
X138677836Y-88023700D01*
X138867964Y-88023700D01*
X139054438Y-87986608D01*
X139230094Y-87913849D01*
X139388179Y-87808220D01*
X139522620Y-87673779D01*
X139628249Y-87515694D01*
X139701008Y-87340038D01*
X139738100Y-87153564D01*
X139738100Y-87128536D01*
X141224000Y-87128536D01*
X141224000Y-87318664D01*
X141261092Y-87505138D01*
X141333851Y-87680794D01*
X141439480Y-87838879D01*
X141573921Y-87973320D01*
X141732006Y-88078949D01*
X141907662Y-88151708D01*
X142094136Y-88188800D01*
X142284264Y-88188800D01*
X142470738Y-88151708D01*
X142565153Y-88112600D01*
X142612513Y-88112600D01*
X142656173Y-88116900D01*
X142699833Y-88112600D01*
X142699840Y-88112600D01*
X142779043Y-88104799D01*
X144449559Y-88104799D01*
X144512987Y-88156853D01*
X144513775Y-88157274D01*
X144520321Y-88163820D01*
X144678406Y-88269449D01*
X144854062Y-88342208D01*
X145040536Y-88379300D01*
X145230664Y-88379300D01*
X145417138Y-88342208D01*
X145592794Y-88269449D01*
X145750879Y-88163820D01*
X145885320Y-88029379D01*
X145990949Y-87871294D01*
X146063708Y-87695638D01*
X146100800Y-87509164D01*
X146100800Y-87319036D01*
X146063708Y-87132562D01*
X145990949Y-86956906D01*
X145885320Y-86798821D01*
X145859452Y-86772953D01*
X145914749Y-86690194D01*
X145987508Y-86514538D01*
X146024600Y-86328064D01*
X146024600Y-86137936D01*
X145987508Y-85951462D01*
X145918918Y-85785870D01*
X145974808Y-85650938D01*
X146011900Y-85464464D01*
X146011900Y-85274336D01*
X145974808Y-85087862D01*
X145902049Y-84912206D01*
X145796420Y-84754121D01*
X145661979Y-84619680D01*
X145503894Y-84514051D01*
X145328238Y-84441292D01*
X145141764Y-84404200D01*
X144951636Y-84404200D01*
X144765162Y-84441292D01*
X144589506Y-84514051D01*
X144431421Y-84619680D01*
X144392901Y-84658200D01*
X142881099Y-84658200D01*
X142829879Y-84606980D01*
X142671794Y-84501351D01*
X142496138Y-84428592D01*
X142309664Y-84391500D01*
X142119536Y-84391500D01*
X141933062Y-84428592D01*
X141757406Y-84501351D01*
X141599321Y-84606980D01*
X141464880Y-84741421D01*
X141359251Y-84899506D01*
X141286492Y-85075162D01*
X141249400Y-85261636D01*
X141249400Y-85451764D01*
X141286492Y-85638238D01*
X141354394Y-85802168D01*
X141346551Y-85813906D01*
X141273792Y-85989562D01*
X141236700Y-86176036D01*
X141236700Y-86366164D01*
X141273792Y-86552638D01*
X141346551Y-86728294D01*
X141352934Y-86737847D01*
X141333851Y-86766406D01*
X141261092Y-86942062D01*
X141224000Y-87128536D01*
X139738100Y-87128536D01*
X139738100Y-86963436D01*
X139701008Y-86776962D01*
X139628249Y-86601306D01*
X139615459Y-86582164D01*
X139679049Y-86486994D01*
X139751808Y-86311338D01*
X139788900Y-86124864D01*
X139788900Y-85934736D01*
X139751808Y-85748262D01*
X139679049Y-85572606D01*
X139573420Y-85414521D01*
X139438979Y-85280080D01*
X139280894Y-85174451D01*
X139105238Y-85101692D01*
X138918764Y-85064600D01*
X138728636Y-85064600D01*
X138542162Y-85101692D01*
X138366506Y-85174451D01*
X138250883Y-85251708D01*
X138231249Y-85204306D01*
X138125620Y-85046221D01*
X137991179Y-84911780D01*
X137833094Y-84806151D01*
X137657438Y-84733392D01*
X137470964Y-84696300D01*
X137280836Y-84696300D01*
X137094362Y-84733392D01*
X136918706Y-84806151D01*
X136760621Y-84911780D01*
X136626180Y-85046221D01*
X136520551Y-85204306D01*
X136447792Y-85379962D01*
X136410700Y-85566436D01*
X134366000Y-85566436D01*
X134366000Y-83185000D01*
X134363560Y-83160224D01*
X134356333Y-83136399D01*
X134344597Y-83114443D01*
X134328803Y-83095197D01*
X134309557Y-83079403D01*
X134287601Y-83067667D01*
X134263776Y-83060440D01*
X134239000Y-83058000D01*
X129298300Y-83058000D01*
X129298300Y-78743231D01*
X129562332Y-79007263D01*
X129977527Y-79284688D01*
X130438868Y-79475782D01*
X130928624Y-79573200D01*
X131427976Y-79573200D01*
X131917732Y-79475782D01*
X132379073Y-79284688D01*
X132794268Y-79007263D01*
X133147363Y-78654168D01*
X133424788Y-78238973D01*
X133615882Y-77777632D01*
X133713300Y-77287876D01*
X133713300Y-76788524D01*
X133615882Y-76298768D01*
X133424788Y-75837427D01*
X133147363Y-75422232D01*
X132883331Y-75158200D01*
X137408053Y-75158200D01*
X137374376Y-75221205D01*
G36*
X168967850Y-94717662D02*
G01*
X169037158Y-94786970D01*
X169133849Y-94866322D01*
X169215348Y-94920778D01*
X169325665Y-94979744D01*
X169344341Y-94987480D01*
X169344341Y-95214410D01*
X169307594Y-95259186D01*
X169278300Y-95313991D01*
X169249006Y-95259186D01*
X169063434Y-95033066D01*
X168837314Y-94847494D01*
X168798986Y-94827007D01*
X168853962Y-94781890D01*
X168923270Y-94712582D01*
X168943475Y-94687961D01*
X168967850Y-94717662D01*
X168967850Y-94717662D01*
G37*
X168967850Y-94717662D02*
X169037158Y-94786970D01*
X169133849Y-94866322D01*
X169215348Y-94920778D01*
X169325665Y-94979744D01*
X169344341Y-94987480D01*
X169344341Y-95214410D01*
X169307594Y-95259186D01*
X169278300Y-95313991D01*
X169249006Y-95259186D01*
X169063434Y-95033066D01*
X168837314Y-94847494D01*
X168798986Y-94827007D01*
X168853962Y-94781890D01*
X168923270Y-94712582D01*
X168943475Y-94687961D01*
X168967850Y-94717662D01*
G36*
X137374376Y-77425925D02*
G01*
X137336867Y-77516481D01*
X137300558Y-77636177D01*
X137281436Y-77732310D01*
X137269176Y-77856791D01*
X137269176Y-77881350D01*
X137266768Y-77905800D01*
X137266768Y-78405800D01*
X137269176Y-78430250D01*
X137269176Y-78454809D01*
X137281436Y-78579290D01*
X137300558Y-78675423D01*
X137336867Y-78795119D01*
X137374376Y-78885675D01*
X137391072Y-78916912D01*
X137246366Y-78976851D01*
X137088281Y-79082480D01*
X136953840Y-79216921D01*
X136888670Y-79314455D01*
X136879068Y-79266182D01*
X136806309Y-79090526D01*
X136700680Y-78932441D01*
X136641840Y-78873601D01*
X136641840Y-77393800D01*
X137391547Y-77393800D01*
X137374376Y-77425925D01*
X137374376Y-77425925D01*
G37*
X137374376Y-77425925D02*
X137336867Y-77516481D01*
X137300558Y-77636177D01*
X137281436Y-77732310D01*
X137269176Y-77856791D01*
X137269176Y-77881350D01*
X137266768Y-77905800D01*
X137266768Y-78405800D01*
X137269176Y-78430250D01*
X137269176Y-78454809D01*
X137281436Y-78579290D01*
X137300558Y-78675423D01*
X137336867Y-78795119D01*
X137374376Y-78885675D01*
X137391072Y-78916912D01*
X137246366Y-78976851D01*
X137088281Y-79082480D01*
X136953840Y-79216921D01*
X136888670Y-79314455D01*
X136879068Y-79266182D01*
X136806309Y-79090526D01*
X136700680Y-78932441D01*
X136641840Y-78873601D01*
X136641840Y-77393800D01*
X137391547Y-77393800D01*
X137374376Y-77425925D01*
G36*
X166767594Y-76597214D02*
G01*
X166953166Y-76823334D01*
X167179286Y-77008906D01*
X167437266Y-77146799D01*
X167556303Y-77182909D01*
X167498344Y-77240868D01*
X166913560Y-77240868D01*
X166789078Y-77253128D01*
X166669380Y-77289438D01*
X166559066Y-77348403D01*
X166463848Y-77426547D01*
X166434930Y-77397629D01*
X166276845Y-77292000D01*
X166101189Y-77219241D01*
X165919599Y-77183120D01*
X166039334Y-77146799D01*
X166297314Y-77008906D01*
X166523434Y-76823334D01*
X166709006Y-76597214D01*
X166738300Y-76542409D01*
X166767594Y-76597214D01*
X166767594Y-76597214D01*
G37*
X166767594Y-76597214D02*
X166953166Y-76823334D01*
X167179286Y-77008906D01*
X167437266Y-77146799D01*
X167556303Y-77182909D01*
X167498344Y-77240868D01*
X166913560Y-77240868D01*
X166789078Y-77253128D01*
X166669380Y-77289438D01*
X166559066Y-77348403D01*
X166463848Y-77426547D01*
X166434930Y-77397629D01*
X166276845Y-77292000D01*
X166101189Y-77219241D01*
X165919599Y-77183120D01*
X166039334Y-77146799D01*
X166297314Y-77008906D01*
X166523434Y-76823334D01*
X166709006Y-76597214D01*
X166738300Y-76542409D01*
X166767594Y-76597214D01*
G36*
X133552192Y-83995662D02*
G01*
X133515100Y-84182136D01*
X133515100Y-84372264D01*
X133552192Y-84558738D01*
X133604000Y-84683814D01*
X133604000Y-92583000D01*
X132395967Y-92583000D01*
X132379073Y-92571712D01*
X131917732Y-92380618D01*
X131427976Y-92283200D01*
X130928624Y-92283200D01*
X130438868Y-92380618D01*
X129977527Y-92571712D01*
X129960633Y-92583000D01*
X129298300Y-92583000D01*
X129298300Y-83947000D01*
X133572348Y-83947000D01*
X133552192Y-83995662D01*
X133552192Y-83995662D01*
G37*
X133552192Y-83995662D02*
X133515100Y-84182136D01*
X133515100Y-84372264D01*
X133552192Y-84558738D01*
X133604000Y-84683814D01*
X133604000Y-92583000D01*
X132395967Y-92583000D01*
X132379073Y-92571712D01*
X131917732Y-92380618D01*
X131427976Y-92283200D01*
X130928624Y-92283200D01*
X130438868Y-92380618D01*
X129977527Y-92571712D01*
X129960633Y-92583000D01*
X129298300Y-92583000D01*
X129298300Y-83947000D01*
X133572348Y-83947000D01*
X133552192Y-83995662D01*
M02*
