G04 #@! TF.GenerationSoftware,KiCad,Pcbnew,(5.1.4)-1*
G04 #@! TF.CreationDate,2020-01-31T22:29:49-05:00*
G04 #@! TF.ProjectId,Feather-NEO-M9N-GPS,46656174-6865-4722-9d4e-454f2d4d394e,rev?*
G04 #@! TF.SameCoordinates,Original*
G04 #@! TF.FileFunction,Soldermask,Bot*
G04 #@! TF.FilePolarity,Negative*
%FSLAX46Y46*%
G04 Gerber Fmt 4.6, Leading zero omitted, Abs format (unit mm)*
G04 Created by KiCad (PCBNEW (5.1.4)-1) date 2020-01-31 22:29:49*
%MOMM*%
%LPD*%
G04 APERTURE LIST*
%ADD10C,0.100000*%
G04 APERTURE END LIST*
D10*
G36*
X167741600Y-78143100D02*
G01*
X167741600Y-79540100D01*
X167995600Y-79540100D01*
X167995600Y-78143100D01*
X167741600Y-78143100D01*
G37*
G36*
X165578743Y-95193719D02*
G01*
X165644927Y-95200237D01*
X165814766Y-95251757D01*
X165971291Y-95335422D01*
X166007029Y-95364752D01*
X166108486Y-95448014D01*
X166191748Y-95549471D01*
X166221078Y-95585209D01*
X166304743Y-95741734D01*
X166356263Y-95911573D01*
X166373659Y-96088200D01*
X166356263Y-96264827D01*
X166304743Y-96434666D01*
X166221078Y-96591191D01*
X166191748Y-96626929D01*
X166108486Y-96728386D01*
X166007029Y-96811648D01*
X165971291Y-96840978D01*
X165814766Y-96924643D01*
X165644927Y-96976163D01*
X165578743Y-96982681D01*
X165512560Y-96989200D01*
X165424040Y-96989200D01*
X165357857Y-96982681D01*
X165291673Y-96976163D01*
X165121834Y-96924643D01*
X164965309Y-96840978D01*
X164929571Y-96811648D01*
X164828114Y-96728386D01*
X164744852Y-96626929D01*
X164715522Y-96591191D01*
X164631857Y-96434666D01*
X164580337Y-96264827D01*
X164562941Y-96088200D01*
X164580337Y-95911573D01*
X164631857Y-95741734D01*
X164715522Y-95585209D01*
X164744852Y-95549471D01*
X164828114Y-95448014D01*
X164929571Y-95364752D01*
X164965309Y-95335422D01*
X165121834Y-95251757D01*
X165291673Y-95200237D01*
X165357857Y-95193719D01*
X165424040Y-95187200D01*
X165512560Y-95187200D01*
X165578743Y-95193719D01*
X165578743Y-95193719D01*
G37*
G36*
X152878743Y-95193719D02*
G01*
X152944927Y-95200237D01*
X153114766Y-95251757D01*
X153271291Y-95335422D01*
X153307029Y-95364752D01*
X153408486Y-95448014D01*
X153491748Y-95549471D01*
X153521078Y-95585209D01*
X153604743Y-95741734D01*
X153656263Y-95911573D01*
X153673659Y-96088200D01*
X153656263Y-96264827D01*
X153604743Y-96434666D01*
X153521078Y-96591191D01*
X153491748Y-96626929D01*
X153408486Y-96728386D01*
X153307029Y-96811648D01*
X153271291Y-96840978D01*
X153114766Y-96924643D01*
X152944927Y-96976163D01*
X152878743Y-96982681D01*
X152812560Y-96989200D01*
X152724040Y-96989200D01*
X152657857Y-96982681D01*
X152591673Y-96976163D01*
X152421834Y-96924643D01*
X152265309Y-96840978D01*
X152229571Y-96811648D01*
X152128114Y-96728386D01*
X152044852Y-96626929D01*
X152015522Y-96591191D01*
X151931857Y-96434666D01*
X151880337Y-96264827D01*
X151862941Y-96088200D01*
X151880337Y-95911573D01*
X151931857Y-95741734D01*
X152015522Y-95585209D01*
X152044852Y-95549471D01*
X152128114Y-95448014D01*
X152229571Y-95364752D01*
X152265309Y-95335422D01*
X152421834Y-95251757D01*
X152591673Y-95200237D01*
X152657857Y-95193719D01*
X152724040Y-95187200D01*
X152812560Y-95187200D01*
X152878743Y-95193719D01*
X152878743Y-95193719D01*
G37*
G36*
X168118743Y-95193719D02*
G01*
X168184927Y-95200237D01*
X168354766Y-95251757D01*
X168511291Y-95335422D01*
X168547029Y-95364752D01*
X168648486Y-95448014D01*
X168731748Y-95549471D01*
X168761078Y-95585209D01*
X168844743Y-95741734D01*
X168896263Y-95911573D01*
X168913659Y-96088200D01*
X168896263Y-96264827D01*
X168844743Y-96434666D01*
X168761078Y-96591191D01*
X168731748Y-96626929D01*
X168648486Y-96728386D01*
X168547029Y-96811648D01*
X168511291Y-96840978D01*
X168354766Y-96924643D01*
X168184927Y-96976163D01*
X168118743Y-96982681D01*
X168052560Y-96989200D01*
X167964040Y-96989200D01*
X167897857Y-96982681D01*
X167831673Y-96976163D01*
X167661834Y-96924643D01*
X167505309Y-96840978D01*
X167469571Y-96811648D01*
X167368114Y-96728386D01*
X167284852Y-96626929D01*
X167255522Y-96591191D01*
X167171857Y-96434666D01*
X167120337Y-96264827D01*
X167102941Y-96088200D01*
X167120337Y-95911573D01*
X167171857Y-95741734D01*
X167255522Y-95585209D01*
X167284852Y-95549471D01*
X167368114Y-95448014D01*
X167469571Y-95364752D01*
X167505309Y-95335422D01*
X167661834Y-95251757D01*
X167831673Y-95200237D01*
X167897857Y-95193719D01*
X167964040Y-95187200D01*
X168052560Y-95187200D01*
X168118743Y-95193719D01*
X168118743Y-95193719D01*
G37*
G36*
X163038743Y-95193719D02*
G01*
X163104927Y-95200237D01*
X163274766Y-95251757D01*
X163431291Y-95335422D01*
X163467029Y-95364752D01*
X163568486Y-95448014D01*
X163651748Y-95549471D01*
X163681078Y-95585209D01*
X163764743Y-95741734D01*
X163816263Y-95911573D01*
X163833659Y-96088200D01*
X163816263Y-96264827D01*
X163764743Y-96434666D01*
X163681078Y-96591191D01*
X163651748Y-96626929D01*
X163568486Y-96728386D01*
X163467029Y-96811648D01*
X163431291Y-96840978D01*
X163274766Y-96924643D01*
X163104927Y-96976163D01*
X163038743Y-96982681D01*
X162972560Y-96989200D01*
X162884040Y-96989200D01*
X162817857Y-96982681D01*
X162751673Y-96976163D01*
X162581834Y-96924643D01*
X162425309Y-96840978D01*
X162389571Y-96811648D01*
X162288114Y-96728386D01*
X162204852Y-96626929D01*
X162175522Y-96591191D01*
X162091857Y-96434666D01*
X162040337Y-96264827D01*
X162022941Y-96088200D01*
X162040337Y-95911573D01*
X162091857Y-95741734D01*
X162175522Y-95585209D01*
X162204852Y-95549471D01*
X162288114Y-95448014D01*
X162389571Y-95364752D01*
X162425309Y-95335422D01*
X162581834Y-95251757D01*
X162751673Y-95200237D01*
X162817857Y-95193719D01*
X162884040Y-95187200D01*
X162972560Y-95187200D01*
X163038743Y-95193719D01*
X163038743Y-95193719D01*
G37*
G36*
X160498743Y-95193719D02*
G01*
X160564927Y-95200237D01*
X160734766Y-95251757D01*
X160891291Y-95335422D01*
X160927029Y-95364752D01*
X161028486Y-95448014D01*
X161111748Y-95549471D01*
X161141078Y-95585209D01*
X161224743Y-95741734D01*
X161276263Y-95911573D01*
X161293659Y-96088200D01*
X161276263Y-96264827D01*
X161224743Y-96434666D01*
X161141078Y-96591191D01*
X161111748Y-96626929D01*
X161028486Y-96728386D01*
X160927029Y-96811648D01*
X160891291Y-96840978D01*
X160734766Y-96924643D01*
X160564927Y-96976163D01*
X160498743Y-96982681D01*
X160432560Y-96989200D01*
X160344040Y-96989200D01*
X160277857Y-96982681D01*
X160211673Y-96976163D01*
X160041834Y-96924643D01*
X159885309Y-96840978D01*
X159849571Y-96811648D01*
X159748114Y-96728386D01*
X159664852Y-96626929D01*
X159635522Y-96591191D01*
X159551857Y-96434666D01*
X159500337Y-96264827D01*
X159482941Y-96088200D01*
X159500337Y-95911573D01*
X159551857Y-95741734D01*
X159635522Y-95585209D01*
X159664852Y-95549471D01*
X159748114Y-95448014D01*
X159849571Y-95364752D01*
X159885309Y-95335422D01*
X160041834Y-95251757D01*
X160211673Y-95200237D01*
X160277857Y-95193719D01*
X160344040Y-95187200D01*
X160432560Y-95187200D01*
X160498743Y-95193719D01*
X160498743Y-95193719D01*
G37*
G36*
X157958743Y-95193719D02*
G01*
X158024927Y-95200237D01*
X158194766Y-95251757D01*
X158351291Y-95335422D01*
X158387029Y-95364752D01*
X158488486Y-95448014D01*
X158571748Y-95549471D01*
X158601078Y-95585209D01*
X158684743Y-95741734D01*
X158736263Y-95911573D01*
X158753659Y-96088200D01*
X158736263Y-96264827D01*
X158684743Y-96434666D01*
X158601078Y-96591191D01*
X158571748Y-96626929D01*
X158488486Y-96728386D01*
X158387029Y-96811648D01*
X158351291Y-96840978D01*
X158194766Y-96924643D01*
X158024927Y-96976163D01*
X157958743Y-96982681D01*
X157892560Y-96989200D01*
X157804040Y-96989200D01*
X157737857Y-96982681D01*
X157671673Y-96976163D01*
X157501834Y-96924643D01*
X157345309Y-96840978D01*
X157309571Y-96811648D01*
X157208114Y-96728386D01*
X157124852Y-96626929D01*
X157095522Y-96591191D01*
X157011857Y-96434666D01*
X156960337Y-96264827D01*
X156942941Y-96088200D01*
X156960337Y-95911573D01*
X157011857Y-95741734D01*
X157095522Y-95585209D01*
X157124852Y-95549471D01*
X157208114Y-95448014D01*
X157309571Y-95364752D01*
X157345309Y-95335422D01*
X157501834Y-95251757D01*
X157671673Y-95200237D01*
X157737857Y-95193719D01*
X157804040Y-95187200D01*
X157892560Y-95187200D01*
X157958743Y-95193719D01*
X157958743Y-95193719D01*
G37*
G36*
X155418743Y-95193719D02*
G01*
X155484927Y-95200237D01*
X155654766Y-95251757D01*
X155811291Y-95335422D01*
X155847029Y-95364752D01*
X155948486Y-95448014D01*
X156031748Y-95549471D01*
X156061078Y-95585209D01*
X156144743Y-95741734D01*
X156196263Y-95911573D01*
X156213659Y-96088200D01*
X156196263Y-96264827D01*
X156144743Y-96434666D01*
X156061078Y-96591191D01*
X156031748Y-96626929D01*
X155948486Y-96728386D01*
X155847029Y-96811648D01*
X155811291Y-96840978D01*
X155654766Y-96924643D01*
X155484927Y-96976163D01*
X155418743Y-96982681D01*
X155352560Y-96989200D01*
X155264040Y-96989200D01*
X155197857Y-96982681D01*
X155131673Y-96976163D01*
X154961834Y-96924643D01*
X154805309Y-96840978D01*
X154769571Y-96811648D01*
X154668114Y-96728386D01*
X154584852Y-96626929D01*
X154555522Y-96591191D01*
X154471857Y-96434666D01*
X154420337Y-96264827D01*
X154402941Y-96088200D01*
X154420337Y-95911573D01*
X154471857Y-95741734D01*
X154555522Y-95585209D01*
X154584852Y-95549471D01*
X154668114Y-95448014D01*
X154769571Y-95364752D01*
X154805309Y-95335422D01*
X154961834Y-95251757D01*
X155131673Y-95200237D01*
X155197857Y-95193719D01*
X155264040Y-95187200D01*
X155352560Y-95187200D01*
X155418743Y-95193719D01*
X155418743Y-95193719D01*
G37*
G36*
X170658743Y-95193719D02*
G01*
X170724927Y-95200237D01*
X170894766Y-95251757D01*
X171051291Y-95335422D01*
X171087029Y-95364752D01*
X171188486Y-95448014D01*
X171271748Y-95549471D01*
X171301078Y-95585209D01*
X171384743Y-95741734D01*
X171436263Y-95911573D01*
X171453659Y-96088200D01*
X171436263Y-96264827D01*
X171384743Y-96434666D01*
X171301078Y-96591191D01*
X171271748Y-96626929D01*
X171188486Y-96728386D01*
X171087029Y-96811648D01*
X171051291Y-96840978D01*
X170894766Y-96924643D01*
X170724927Y-96976163D01*
X170658743Y-96982681D01*
X170592560Y-96989200D01*
X170504040Y-96989200D01*
X170437857Y-96982681D01*
X170371673Y-96976163D01*
X170201834Y-96924643D01*
X170045309Y-96840978D01*
X170009571Y-96811648D01*
X169908114Y-96728386D01*
X169824852Y-96626929D01*
X169795522Y-96591191D01*
X169711857Y-96434666D01*
X169660337Y-96264827D01*
X169642941Y-96088200D01*
X169660337Y-95911573D01*
X169711857Y-95741734D01*
X169795522Y-95585209D01*
X169824852Y-95549471D01*
X169908114Y-95448014D01*
X170009571Y-95364752D01*
X170045309Y-95335422D01*
X170201834Y-95251757D01*
X170371673Y-95200237D01*
X170437857Y-95193719D01*
X170504040Y-95187200D01*
X170592560Y-95187200D01*
X170658743Y-95193719D01*
X170658743Y-95193719D01*
G37*
G36*
X173198743Y-95193719D02*
G01*
X173264927Y-95200237D01*
X173434766Y-95251757D01*
X173591291Y-95335422D01*
X173627029Y-95364752D01*
X173728486Y-95448014D01*
X173811748Y-95549471D01*
X173841078Y-95585209D01*
X173924743Y-95741734D01*
X173976263Y-95911573D01*
X173993659Y-96088200D01*
X173976263Y-96264827D01*
X173924743Y-96434666D01*
X173841078Y-96591191D01*
X173811748Y-96626929D01*
X173728486Y-96728386D01*
X173627029Y-96811648D01*
X173591291Y-96840978D01*
X173434766Y-96924643D01*
X173264927Y-96976163D01*
X173198743Y-96982681D01*
X173132560Y-96989200D01*
X173044040Y-96989200D01*
X172977857Y-96982681D01*
X172911673Y-96976163D01*
X172741834Y-96924643D01*
X172585309Y-96840978D01*
X172549571Y-96811648D01*
X172448114Y-96728386D01*
X172364852Y-96626929D01*
X172335522Y-96591191D01*
X172251857Y-96434666D01*
X172200337Y-96264827D01*
X172182941Y-96088200D01*
X172200337Y-95911573D01*
X172251857Y-95741734D01*
X172335522Y-95585209D01*
X172364852Y-95549471D01*
X172448114Y-95448014D01*
X172549571Y-95364752D01*
X172585309Y-95335422D01*
X172741834Y-95251757D01*
X172911673Y-95200237D01*
X172977857Y-95193719D01*
X173044040Y-95187200D01*
X173132560Y-95187200D01*
X173198743Y-95193719D01*
X173198743Y-95193719D01*
G37*
G36*
X135889300Y-96989200D02*
G01*
X134087300Y-96989200D01*
X134087300Y-95187200D01*
X135889300Y-95187200D01*
X135889300Y-96989200D01*
X135889300Y-96989200D01*
G37*
G36*
X137638743Y-95193719D02*
G01*
X137704927Y-95200237D01*
X137874766Y-95251757D01*
X138031291Y-95335422D01*
X138067029Y-95364752D01*
X138168486Y-95448014D01*
X138251748Y-95549471D01*
X138281078Y-95585209D01*
X138364743Y-95741734D01*
X138416263Y-95911573D01*
X138433659Y-96088200D01*
X138416263Y-96264827D01*
X138364743Y-96434666D01*
X138281078Y-96591191D01*
X138251748Y-96626929D01*
X138168486Y-96728386D01*
X138067029Y-96811648D01*
X138031291Y-96840978D01*
X137874766Y-96924643D01*
X137704927Y-96976163D01*
X137638743Y-96982681D01*
X137572560Y-96989200D01*
X137484040Y-96989200D01*
X137417857Y-96982681D01*
X137351673Y-96976163D01*
X137181834Y-96924643D01*
X137025309Y-96840978D01*
X136989571Y-96811648D01*
X136888114Y-96728386D01*
X136804852Y-96626929D01*
X136775522Y-96591191D01*
X136691857Y-96434666D01*
X136640337Y-96264827D01*
X136622941Y-96088200D01*
X136640337Y-95911573D01*
X136691857Y-95741734D01*
X136775522Y-95585209D01*
X136804852Y-95549471D01*
X136888114Y-95448014D01*
X136989571Y-95364752D01*
X137025309Y-95335422D01*
X137181834Y-95251757D01*
X137351673Y-95200237D01*
X137417857Y-95193719D01*
X137484040Y-95187200D01*
X137572560Y-95187200D01*
X137638743Y-95193719D01*
X137638743Y-95193719D01*
G37*
G36*
X140178743Y-95193719D02*
G01*
X140244927Y-95200237D01*
X140414766Y-95251757D01*
X140571291Y-95335422D01*
X140607029Y-95364752D01*
X140708486Y-95448014D01*
X140791748Y-95549471D01*
X140821078Y-95585209D01*
X140904743Y-95741734D01*
X140956263Y-95911573D01*
X140973659Y-96088200D01*
X140956263Y-96264827D01*
X140904743Y-96434666D01*
X140821078Y-96591191D01*
X140791748Y-96626929D01*
X140708486Y-96728386D01*
X140607029Y-96811648D01*
X140571291Y-96840978D01*
X140414766Y-96924643D01*
X140244927Y-96976163D01*
X140178743Y-96982681D01*
X140112560Y-96989200D01*
X140024040Y-96989200D01*
X139957857Y-96982681D01*
X139891673Y-96976163D01*
X139721834Y-96924643D01*
X139565309Y-96840978D01*
X139529571Y-96811648D01*
X139428114Y-96728386D01*
X139344852Y-96626929D01*
X139315522Y-96591191D01*
X139231857Y-96434666D01*
X139180337Y-96264827D01*
X139162941Y-96088200D01*
X139180337Y-95911573D01*
X139231857Y-95741734D01*
X139315522Y-95585209D01*
X139344852Y-95549471D01*
X139428114Y-95448014D01*
X139529571Y-95364752D01*
X139565309Y-95335422D01*
X139721834Y-95251757D01*
X139891673Y-95200237D01*
X139957857Y-95193719D01*
X140024040Y-95187200D01*
X140112560Y-95187200D01*
X140178743Y-95193719D01*
X140178743Y-95193719D01*
G37*
G36*
X145258743Y-95193719D02*
G01*
X145324927Y-95200237D01*
X145494766Y-95251757D01*
X145651291Y-95335422D01*
X145687029Y-95364752D01*
X145788486Y-95448014D01*
X145871748Y-95549471D01*
X145901078Y-95585209D01*
X145984743Y-95741734D01*
X146036263Y-95911573D01*
X146053659Y-96088200D01*
X146036263Y-96264827D01*
X145984743Y-96434666D01*
X145901078Y-96591191D01*
X145871748Y-96626929D01*
X145788486Y-96728386D01*
X145687029Y-96811648D01*
X145651291Y-96840978D01*
X145494766Y-96924643D01*
X145324927Y-96976163D01*
X145258743Y-96982681D01*
X145192560Y-96989200D01*
X145104040Y-96989200D01*
X145037857Y-96982681D01*
X144971673Y-96976163D01*
X144801834Y-96924643D01*
X144645309Y-96840978D01*
X144609571Y-96811648D01*
X144508114Y-96728386D01*
X144424852Y-96626929D01*
X144395522Y-96591191D01*
X144311857Y-96434666D01*
X144260337Y-96264827D01*
X144242941Y-96088200D01*
X144260337Y-95911573D01*
X144311857Y-95741734D01*
X144395522Y-95585209D01*
X144424852Y-95549471D01*
X144508114Y-95448014D01*
X144609571Y-95364752D01*
X144645309Y-95335422D01*
X144801834Y-95251757D01*
X144971673Y-95200237D01*
X145037857Y-95193719D01*
X145104040Y-95187200D01*
X145192560Y-95187200D01*
X145258743Y-95193719D01*
X145258743Y-95193719D01*
G37*
G36*
X150338743Y-95193719D02*
G01*
X150404927Y-95200237D01*
X150574766Y-95251757D01*
X150731291Y-95335422D01*
X150767029Y-95364752D01*
X150868486Y-95448014D01*
X150951748Y-95549471D01*
X150981078Y-95585209D01*
X151064743Y-95741734D01*
X151116263Y-95911573D01*
X151133659Y-96088200D01*
X151116263Y-96264827D01*
X151064743Y-96434666D01*
X150981078Y-96591191D01*
X150951748Y-96626929D01*
X150868486Y-96728386D01*
X150767029Y-96811648D01*
X150731291Y-96840978D01*
X150574766Y-96924643D01*
X150404927Y-96976163D01*
X150338743Y-96982681D01*
X150272560Y-96989200D01*
X150184040Y-96989200D01*
X150117857Y-96982681D01*
X150051673Y-96976163D01*
X149881834Y-96924643D01*
X149725309Y-96840978D01*
X149689571Y-96811648D01*
X149588114Y-96728386D01*
X149504852Y-96626929D01*
X149475522Y-96591191D01*
X149391857Y-96434666D01*
X149340337Y-96264827D01*
X149322941Y-96088200D01*
X149340337Y-95911573D01*
X149391857Y-95741734D01*
X149475522Y-95585209D01*
X149504852Y-95549471D01*
X149588114Y-95448014D01*
X149689571Y-95364752D01*
X149725309Y-95335422D01*
X149881834Y-95251757D01*
X150051673Y-95200237D01*
X150117857Y-95193719D01*
X150184040Y-95187200D01*
X150272560Y-95187200D01*
X150338743Y-95193719D01*
X150338743Y-95193719D01*
G37*
G36*
X147798743Y-95193719D02*
G01*
X147864927Y-95200237D01*
X148034766Y-95251757D01*
X148191291Y-95335422D01*
X148227029Y-95364752D01*
X148328486Y-95448014D01*
X148411748Y-95549471D01*
X148441078Y-95585209D01*
X148524743Y-95741734D01*
X148576263Y-95911573D01*
X148593659Y-96088200D01*
X148576263Y-96264827D01*
X148524743Y-96434666D01*
X148441078Y-96591191D01*
X148411748Y-96626929D01*
X148328486Y-96728386D01*
X148227029Y-96811648D01*
X148191291Y-96840978D01*
X148034766Y-96924643D01*
X147864927Y-96976163D01*
X147798743Y-96982681D01*
X147732560Y-96989200D01*
X147644040Y-96989200D01*
X147577857Y-96982681D01*
X147511673Y-96976163D01*
X147341834Y-96924643D01*
X147185309Y-96840978D01*
X147149571Y-96811648D01*
X147048114Y-96728386D01*
X146964852Y-96626929D01*
X146935522Y-96591191D01*
X146851857Y-96434666D01*
X146800337Y-96264827D01*
X146782941Y-96088200D01*
X146800337Y-95911573D01*
X146851857Y-95741734D01*
X146935522Y-95585209D01*
X146964852Y-95549471D01*
X147048114Y-95448014D01*
X147149571Y-95364752D01*
X147185309Y-95335422D01*
X147341834Y-95251757D01*
X147511673Y-95200237D01*
X147577857Y-95193719D01*
X147644040Y-95187200D01*
X147732560Y-95187200D01*
X147798743Y-95193719D01*
X147798743Y-95193719D01*
G37*
G36*
X142718743Y-95193719D02*
G01*
X142784927Y-95200237D01*
X142954766Y-95251757D01*
X143111291Y-95335422D01*
X143147029Y-95364752D01*
X143248486Y-95448014D01*
X143331748Y-95549471D01*
X143361078Y-95585209D01*
X143444743Y-95741734D01*
X143496263Y-95911573D01*
X143513659Y-96088200D01*
X143496263Y-96264827D01*
X143444743Y-96434666D01*
X143361078Y-96591191D01*
X143331748Y-96626929D01*
X143248486Y-96728386D01*
X143147029Y-96811648D01*
X143111291Y-96840978D01*
X142954766Y-96924643D01*
X142784927Y-96976163D01*
X142718743Y-96982681D01*
X142652560Y-96989200D01*
X142564040Y-96989200D01*
X142497857Y-96982681D01*
X142431673Y-96976163D01*
X142261834Y-96924643D01*
X142105309Y-96840978D01*
X142069571Y-96811648D01*
X141968114Y-96728386D01*
X141884852Y-96626929D01*
X141855522Y-96591191D01*
X141771857Y-96434666D01*
X141720337Y-96264827D01*
X141702941Y-96088200D01*
X141720337Y-95911573D01*
X141771857Y-95741734D01*
X141855522Y-95585209D01*
X141884852Y-95549471D01*
X141968114Y-95448014D01*
X142069571Y-95364752D01*
X142105309Y-95335422D01*
X142261834Y-95251757D01*
X142431673Y-95200237D01*
X142497857Y-95193719D01*
X142564040Y-95187200D01*
X142652560Y-95187200D01*
X142718743Y-95193719D01*
X142718743Y-95193719D01*
G37*
G36*
X131747385Y-92942175D02*
G01*
X132102443Y-93089245D01*
X132102445Y-93089246D01*
X132421990Y-93302759D01*
X132693741Y-93574510D01*
X132754384Y-93665269D01*
X132907255Y-93894057D01*
X133054325Y-94249115D01*
X133129300Y-94626042D01*
X133129300Y-95010358D01*
X133054325Y-95387285D01*
X132972342Y-95585209D01*
X132907254Y-95742345D01*
X132693741Y-96061890D01*
X132421990Y-96333641D01*
X132102445Y-96547154D01*
X132102444Y-96547155D01*
X132102443Y-96547155D01*
X131747385Y-96694225D01*
X131370458Y-96769200D01*
X130986142Y-96769200D01*
X130609215Y-96694225D01*
X130254157Y-96547155D01*
X130254156Y-96547155D01*
X130254155Y-96547154D01*
X129934610Y-96333641D01*
X129662859Y-96061890D01*
X129449346Y-95742345D01*
X129384258Y-95585209D01*
X129302275Y-95387285D01*
X129227300Y-95010358D01*
X129227300Y-94626042D01*
X129302275Y-94249115D01*
X129449345Y-93894057D01*
X129602216Y-93665269D01*
X129662859Y-93574510D01*
X129934610Y-93302759D01*
X130254155Y-93089246D01*
X130254157Y-93089245D01*
X130609215Y-92942175D01*
X130986142Y-92867200D01*
X131370458Y-92867200D01*
X131747385Y-92942175D01*
X131747385Y-92942175D01*
G37*
G36*
X177277787Y-93567196D02*
G01*
X177514553Y-93665268D01*
X177514555Y-93665269D01*
X177727639Y-93807647D01*
X177908853Y-93988861D01*
X177982673Y-94099340D01*
X178051232Y-94201947D01*
X178149304Y-94438713D01*
X178199300Y-94690061D01*
X178199300Y-94946339D01*
X178149304Y-95197687D01*
X178070769Y-95387286D01*
X178051231Y-95434455D01*
X177908853Y-95647539D01*
X177727639Y-95828753D01*
X177514555Y-95971131D01*
X177514554Y-95971132D01*
X177514553Y-95971132D01*
X177277787Y-96069204D01*
X177026439Y-96119200D01*
X176770161Y-96119200D01*
X176518813Y-96069204D01*
X176282047Y-95971132D01*
X176282046Y-95971132D01*
X176282045Y-95971131D01*
X176068961Y-95828753D01*
X175887747Y-95647539D01*
X175745369Y-95434455D01*
X175725831Y-95387286D01*
X175647296Y-95197687D01*
X175597300Y-94946339D01*
X175597300Y-94690061D01*
X175647296Y-94438713D01*
X175745368Y-94201947D01*
X175813928Y-94099340D01*
X175887747Y-93988861D01*
X176068961Y-93807647D01*
X176282045Y-93665269D01*
X176282047Y-93665268D01*
X176518813Y-93567196D01*
X176770161Y-93517200D01*
X177026439Y-93517200D01*
X177277787Y-93567196D01*
X177277787Y-93567196D01*
G37*
G36*
X170317739Y-92099234D02*
G01*
X170329990Y-92099836D01*
X170348409Y-92099836D01*
X170370689Y-92102030D01*
X170454773Y-92118756D01*
X170476200Y-92125256D01*
X170555398Y-92158060D01*
X170560843Y-92160971D01*
X170560849Y-92160973D01*
X170569709Y-92165709D01*
X170569713Y-92165712D01*
X170575154Y-92168620D01*
X170646439Y-92216251D01*
X170663744Y-92230452D01*
X170724368Y-92291076D01*
X170738569Y-92308381D01*
X170786200Y-92379666D01*
X170789108Y-92385107D01*
X170789111Y-92385111D01*
X170793847Y-92393971D01*
X170793849Y-92393977D01*
X170796760Y-92399422D01*
X170829564Y-92478620D01*
X170836064Y-92500047D01*
X170852790Y-92584131D01*
X170854984Y-92606411D01*
X170854984Y-92624830D01*
X170855586Y-92637081D01*
X170857392Y-92655419D01*
X170857392Y-93143140D01*
X170855803Y-93159279D01*
X170852888Y-93168888D01*
X170848150Y-93177752D01*
X170841777Y-93185517D01*
X170829334Y-93195728D01*
X170818965Y-93202658D01*
X170801638Y-93219985D01*
X170788025Y-93240360D01*
X170778649Y-93263000D01*
X170773869Y-93287033D01*
X170773870Y-93311537D01*
X170778652Y-93335570D01*
X170788030Y-93358209D01*
X170801645Y-93378582D01*
X170818972Y-93395909D01*
X170829342Y-93402838D01*
X170841777Y-93413043D01*
X170848150Y-93420808D01*
X170852888Y-93429672D01*
X170855803Y-93439281D01*
X170857392Y-93455420D01*
X170857392Y-93943142D01*
X170855586Y-93961479D01*
X170854984Y-93973730D01*
X170854984Y-93992149D01*
X170852790Y-94014429D01*
X170836064Y-94098513D01*
X170829564Y-94119940D01*
X170796760Y-94199138D01*
X170793849Y-94204583D01*
X170793847Y-94204589D01*
X170789111Y-94213449D01*
X170789108Y-94213453D01*
X170786200Y-94218894D01*
X170738569Y-94290179D01*
X170724368Y-94307484D01*
X170663744Y-94368108D01*
X170646439Y-94382309D01*
X170575154Y-94429940D01*
X170569713Y-94432848D01*
X170569709Y-94432851D01*
X170560849Y-94437587D01*
X170560843Y-94437589D01*
X170555398Y-94440500D01*
X170476200Y-94473304D01*
X170454773Y-94479804D01*
X170370689Y-94496530D01*
X170348409Y-94498724D01*
X170329990Y-94498724D01*
X170317739Y-94499326D01*
X170299402Y-94501132D01*
X169811678Y-94501132D01*
X169793341Y-94499326D01*
X169781090Y-94498724D01*
X169762671Y-94498724D01*
X169740391Y-94496530D01*
X169656307Y-94479804D01*
X169634880Y-94473304D01*
X169555682Y-94440500D01*
X169550237Y-94437589D01*
X169550231Y-94437587D01*
X169541371Y-94432851D01*
X169541367Y-94432848D01*
X169535926Y-94429940D01*
X169464641Y-94382309D01*
X169447336Y-94368108D01*
X169386712Y-94307484D01*
X169372511Y-94290179D01*
X169324880Y-94218894D01*
X169321972Y-94213453D01*
X169321969Y-94213449D01*
X169317233Y-94204589D01*
X169317231Y-94204583D01*
X169314320Y-94199138D01*
X169281516Y-94119940D01*
X169275016Y-94098513D01*
X169258290Y-94014429D01*
X169256096Y-93992149D01*
X169256096Y-93973730D01*
X169255494Y-93961479D01*
X169253688Y-93943142D01*
X169253688Y-93455420D01*
X169255277Y-93439281D01*
X169258192Y-93429672D01*
X169262930Y-93420808D01*
X169269303Y-93413043D01*
X169281746Y-93402832D01*
X169292115Y-93395902D01*
X169309442Y-93378575D01*
X169323055Y-93358200D01*
X169332431Y-93335560D01*
X169337211Y-93311527D01*
X169337210Y-93287023D01*
X169332428Y-93262990D01*
X169323050Y-93240351D01*
X169309435Y-93219978D01*
X169292108Y-93202651D01*
X169281738Y-93195722D01*
X169269303Y-93185517D01*
X169262930Y-93177752D01*
X169258192Y-93168888D01*
X169255277Y-93159279D01*
X169253688Y-93143140D01*
X169253688Y-92655419D01*
X169255494Y-92637081D01*
X169256096Y-92624830D01*
X169256096Y-92606411D01*
X169258290Y-92584131D01*
X169275016Y-92500047D01*
X169281516Y-92478620D01*
X169314320Y-92399422D01*
X169317231Y-92393977D01*
X169317233Y-92393971D01*
X169321969Y-92385111D01*
X169321972Y-92385107D01*
X169324880Y-92379666D01*
X169372511Y-92308381D01*
X169386712Y-92291076D01*
X169447336Y-92230452D01*
X169464641Y-92216251D01*
X169535926Y-92168620D01*
X169541367Y-92165712D01*
X169541371Y-92165709D01*
X169550231Y-92160973D01*
X169550237Y-92160971D01*
X169555682Y-92158060D01*
X169634880Y-92125256D01*
X169656307Y-92118756D01*
X169740391Y-92102030D01*
X169762671Y-92099836D01*
X169781090Y-92099836D01*
X169793341Y-92099234D01*
X169811679Y-92097428D01*
X170299401Y-92097428D01*
X170317739Y-92099234D01*
X170317739Y-92099234D01*
G37*
G36*
X168097779Y-92094154D02*
G01*
X168110030Y-92094756D01*
X168128449Y-92094756D01*
X168150729Y-92096950D01*
X168234813Y-92113676D01*
X168256240Y-92120176D01*
X168335438Y-92152980D01*
X168340883Y-92155891D01*
X168340889Y-92155893D01*
X168349749Y-92160629D01*
X168349753Y-92160632D01*
X168355194Y-92163540D01*
X168426479Y-92211171D01*
X168443784Y-92225372D01*
X168504408Y-92285996D01*
X168518609Y-92303301D01*
X168566240Y-92374586D01*
X168569148Y-92380027D01*
X168569151Y-92380031D01*
X168573887Y-92388891D01*
X168573889Y-92388897D01*
X168576800Y-92394342D01*
X168609604Y-92473540D01*
X168616104Y-92494967D01*
X168632830Y-92579051D01*
X168635024Y-92601331D01*
X168635024Y-92619750D01*
X168635626Y-92632001D01*
X168637432Y-92650339D01*
X168637432Y-93138060D01*
X168635843Y-93154199D01*
X168632928Y-93163808D01*
X168628190Y-93172672D01*
X168621817Y-93180437D01*
X168609374Y-93190648D01*
X168599005Y-93197578D01*
X168581678Y-93214905D01*
X168568065Y-93235280D01*
X168558689Y-93257920D01*
X168553909Y-93281953D01*
X168553910Y-93306457D01*
X168558692Y-93330490D01*
X168568070Y-93353129D01*
X168581685Y-93373502D01*
X168599012Y-93390829D01*
X168609382Y-93397758D01*
X168621817Y-93407963D01*
X168628190Y-93415728D01*
X168632928Y-93424592D01*
X168635843Y-93434201D01*
X168637432Y-93450340D01*
X168637432Y-93938062D01*
X168635626Y-93956399D01*
X168635024Y-93968650D01*
X168635024Y-93987069D01*
X168632830Y-94009349D01*
X168616104Y-94093433D01*
X168609604Y-94114860D01*
X168576800Y-94194058D01*
X168573889Y-94199503D01*
X168573887Y-94199509D01*
X168569151Y-94208369D01*
X168569148Y-94208373D01*
X168566240Y-94213814D01*
X168518609Y-94285099D01*
X168504408Y-94302404D01*
X168443784Y-94363028D01*
X168426479Y-94377229D01*
X168355194Y-94424860D01*
X168349753Y-94427768D01*
X168349749Y-94427771D01*
X168340889Y-94432507D01*
X168340883Y-94432509D01*
X168335438Y-94435420D01*
X168256240Y-94468224D01*
X168234813Y-94474724D01*
X168150729Y-94491450D01*
X168128449Y-94493644D01*
X168110030Y-94493644D01*
X168097779Y-94494246D01*
X168079442Y-94496052D01*
X167591718Y-94496052D01*
X167573381Y-94494246D01*
X167561130Y-94493644D01*
X167542711Y-94493644D01*
X167520431Y-94491450D01*
X167436347Y-94474724D01*
X167414920Y-94468224D01*
X167335722Y-94435420D01*
X167330277Y-94432509D01*
X167330271Y-94432507D01*
X167321411Y-94427771D01*
X167321407Y-94427768D01*
X167315966Y-94424860D01*
X167244681Y-94377229D01*
X167227376Y-94363028D01*
X167166752Y-94302404D01*
X167152551Y-94285099D01*
X167104920Y-94213814D01*
X167102012Y-94208373D01*
X167102009Y-94208369D01*
X167097273Y-94199509D01*
X167097271Y-94199503D01*
X167094360Y-94194058D01*
X167061556Y-94114860D01*
X167055056Y-94093433D01*
X167038330Y-94009349D01*
X167036136Y-93987069D01*
X167036136Y-93968650D01*
X167035534Y-93956399D01*
X167033728Y-93938062D01*
X167033728Y-93450340D01*
X167035317Y-93434201D01*
X167038232Y-93424592D01*
X167042970Y-93415728D01*
X167049343Y-93407963D01*
X167061786Y-93397752D01*
X167072155Y-93390822D01*
X167089482Y-93373495D01*
X167103095Y-93353120D01*
X167112471Y-93330480D01*
X167117251Y-93306447D01*
X167117250Y-93281943D01*
X167112468Y-93257910D01*
X167103090Y-93235271D01*
X167089475Y-93214898D01*
X167072148Y-93197571D01*
X167061778Y-93190642D01*
X167049343Y-93180437D01*
X167042970Y-93172672D01*
X167038232Y-93163808D01*
X167035317Y-93154199D01*
X167033728Y-93138060D01*
X167033728Y-92650339D01*
X167035534Y-92632001D01*
X167036136Y-92619750D01*
X167036136Y-92601331D01*
X167038330Y-92579051D01*
X167055056Y-92494967D01*
X167061556Y-92473540D01*
X167094360Y-92394342D01*
X167097271Y-92388897D01*
X167097273Y-92388891D01*
X167102009Y-92380031D01*
X167102012Y-92380027D01*
X167104920Y-92374586D01*
X167152551Y-92303301D01*
X167166752Y-92285996D01*
X167227376Y-92225372D01*
X167244681Y-92211171D01*
X167315966Y-92163540D01*
X167321407Y-92160632D01*
X167321411Y-92160629D01*
X167330271Y-92155893D01*
X167330277Y-92155891D01*
X167335722Y-92152980D01*
X167414920Y-92120176D01*
X167436347Y-92113676D01*
X167520431Y-92096950D01*
X167542711Y-92094756D01*
X167561130Y-92094756D01*
X167573381Y-92094154D01*
X167591719Y-92092348D01*
X168079441Y-92092348D01*
X168097779Y-92094154D01*
X168097779Y-92094154D01*
G37*
G36*
X167635499Y-88220654D02*
G01*
X167647750Y-88221256D01*
X167666169Y-88221256D01*
X167688449Y-88223450D01*
X167772533Y-88240176D01*
X167793960Y-88246676D01*
X167873158Y-88279480D01*
X167878603Y-88282391D01*
X167878609Y-88282393D01*
X167887469Y-88287129D01*
X167887473Y-88287132D01*
X167892914Y-88290040D01*
X167964199Y-88337671D01*
X167981504Y-88351872D01*
X168042128Y-88412496D01*
X168056329Y-88429801D01*
X168103960Y-88501086D01*
X168106868Y-88506527D01*
X168106871Y-88506531D01*
X168111607Y-88515391D01*
X168111609Y-88515397D01*
X168114520Y-88520842D01*
X168147324Y-88600040D01*
X168153824Y-88621467D01*
X168170550Y-88705551D01*
X168172744Y-88727831D01*
X168172744Y-88746250D01*
X168173346Y-88758501D01*
X168175152Y-88776839D01*
X168175152Y-89264560D01*
X168173563Y-89280699D01*
X168170648Y-89290308D01*
X168165910Y-89299172D01*
X168159537Y-89306937D01*
X168147094Y-89317148D01*
X168136725Y-89324078D01*
X168119398Y-89341405D01*
X168105785Y-89361780D01*
X168096409Y-89384420D01*
X168091629Y-89408453D01*
X168091630Y-89432957D01*
X168096412Y-89456990D01*
X168105790Y-89479629D01*
X168119405Y-89500002D01*
X168136732Y-89517329D01*
X168147102Y-89524258D01*
X168159537Y-89534463D01*
X168165910Y-89542228D01*
X168170648Y-89551092D01*
X168173563Y-89560701D01*
X168175152Y-89576840D01*
X168175152Y-90064562D01*
X168173346Y-90082899D01*
X168172744Y-90095150D01*
X168172744Y-90113569D01*
X168170550Y-90135849D01*
X168153824Y-90219933D01*
X168147324Y-90241360D01*
X168114520Y-90320558D01*
X168111609Y-90326003D01*
X168111607Y-90326009D01*
X168106871Y-90334869D01*
X168106868Y-90334873D01*
X168103960Y-90340314D01*
X168056329Y-90411599D01*
X168042128Y-90428904D01*
X167981504Y-90489528D01*
X167964199Y-90503729D01*
X167892914Y-90551360D01*
X167887473Y-90554268D01*
X167887469Y-90554271D01*
X167878609Y-90559007D01*
X167878603Y-90559009D01*
X167873158Y-90561920D01*
X167793960Y-90594724D01*
X167772533Y-90601224D01*
X167688449Y-90617950D01*
X167666169Y-90620144D01*
X167647750Y-90620144D01*
X167635499Y-90620746D01*
X167617162Y-90622552D01*
X167129438Y-90622552D01*
X167111101Y-90620746D01*
X167098850Y-90620144D01*
X167080431Y-90620144D01*
X167058151Y-90617950D01*
X166974067Y-90601224D01*
X166952640Y-90594724D01*
X166873442Y-90561920D01*
X166867997Y-90559009D01*
X166867991Y-90559007D01*
X166859131Y-90554271D01*
X166859127Y-90554268D01*
X166853686Y-90551360D01*
X166782401Y-90503729D01*
X166765096Y-90489528D01*
X166704472Y-90428904D01*
X166690271Y-90411599D01*
X166642640Y-90340314D01*
X166639732Y-90334873D01*
X166639729Y-90334869D01*
X166634993Y-90326009D01*
X166634991Y-90326003D01*
X166632080Y-90320558D01*
X166599276Y-90241360D01*
X166592776Y-90219933D01*
X166576050Y-90135849D01*
X166573856Y-90113569D01*
X166573856Y-90095150D01*
X166573254Y-90082899D01*
X166571448Y-90064562D01*
X166571448Y-89576840D01*
X166573037Y-89560701D01*
X166575952Y-89551092D01*
X166580690Y-89542228D01*
X166587063Y-89534463D01*
X166599506Y-89524252D01*
X166609875Y-89517322D01*
X166627202Y-89499995D01*
X166640815Y-89479620D01*
X166650191Y-89456980D01*
X166654971Y-89432947D01*
X166654970Y-89408443D01*
X166650188Y-89384410D01*
X166640810Y-89361771D01*
X166627195Y-89341398D01*
X166609868Y-89324071D01*
X166599498Y-89317142D01*
X166587063Y-89306937D01*
X166580690Y-89299172D01*
X166575952Y-89290308D01*
X166573037Y-89280699D01*
X166571448Y-89264560D01*
X166571448Y-88776839D01*
X166573254Y-88758501D01*
X166573856Y-88746250D01*
X166573856Y-88727831D01*
X166576050Y-88705551D01*
X166592776Y-88621467D01*
X166599276Y-88600040D01*
X166632080Y-88520842D01*
X166634991Y-88515397D01*
X166634993Y-88515391D01*
X166639729Y-88506531D01*
X166639732Y-88506527D01*
X166642640Y-88501086D01*
X166690271Y-88429801D01*
X166704472Y-88412496D01*
X166765096Y-88351872D01*
X166782401Y-88337671D01*
X166853686Y-88290040D01*
X166859127Y-88287132D01*
X166859131Y-88287129D01*
X166867991Y-88282393D01*
X166867997Y-88282391D01*
X166873442Y-88279480D01*
X166952640Y-88246676D01*
X166974067Y-88240176D01*
X167058151Y-88223450D01*
X167080431Y-88221256D01*
X167098850Y-88221256D01*
X167111101Y-88220654D01*
X167129439Y-88218848D01*
X167617161Y-88218848D01*
X167635499Y-88220654D01*
X167635499Y-88220654D01*
G37*
G36*
X169896099Y-88220654D02*
G01*
X169908350Y-88221256D01*
X169926769Y-88221256D01*
X169949049Y-88223450D01*
X170033133Y-88240176D01*
X170054560Y-88246676D01*
X170133758Y-88279480D01*
X170139203Y-88282391D01*
X170139209Y-88282393D01*
X170148069Y-88287129D01*
X170148073Y-88287132D01*
X170153514Y-88290040D01*
X170224799Y-88337671D01*
X170242104Y-88351872D01*
X170302728Y-88412496D01*
X170316929Y-88429801D01*
X170364560Y-88501086D01*
X170367468Y-88506527D01*
X170367471Y-88506531D01*
X170372207Y-88515391D01*
X170372209Y-88515397D01*
X170375120Y-88520842D01*
X170407924Y-88600040D01*
X170414424Y-88621467D01*
X170431150Y-88705551D01*
X170433344Y-88727831D01*
X170433344Y-88746250D01*
X170433946Y-88758501D01*
X170435752Y-88776839D01*
X170435752Y-89264560D01*
X170434163Y-89280699D01*
X170431248Y-89290308D01*
X170426510Y-89299172D01*
X170420137Y-89306937D01*
X170407694Y-89317148D01*
X170397325Y-89324078D01*
X170379998Y-89341405D01*
X170366385Y-89361780D01*
X170357009Y-89384420D01*
X170352229Y-89408453D01*
X170352230Y-89432957D01*
X170357012Y-89456990D01*
X170366390Y-89479629D01*
X170380005Y-89500002D01*
X170397332Y-89517329D01*
X170407702Y-89524258D01*
X170420137Y-89534463D01*
X170426510Y-89542228D01*
X170431248Y-89551092D01*
X170434163Y-89560701D01*
X170435752Y-89576840D01*
X170435752Y-90064562D01*
X170433946Y-90082899D01*
X170433344Y-90095150D01*
X170433344Y-90113569D01*
X170431150Y-90135849D01*
X170414424Y-90219933D01*
X170407924Y-90241360D01*
X170375120Y-90320558D01*
X170372209Y-90326003D01*
X170372207Y-90326009D01*
X170367471Y-90334869D01*
X170367468Y-90334873D01*
X170364560Y-90340314D01*
X170316929Y-90411599D01*
X170302728Y-90428904D01*
X170242104Y-90489528D01*
X170224799Y-90503729D01*
X170153514Y-90551360D01*
X170148073Y-90554268D01*
X170148069Y-90554271D01*
X170139209Y-90559007D01*
X170139203Y-90559009D01*
X170133758Y-90561920D01*
X170054560Y-90594724D01*
X170033133Y-90601224D01*
X169949049Y-90617950D01*
X169926769Y-90620144D01*
X169908350Y-90620144D01*
X169896099Y-90620746D01*
X169877762Y-90622552D01*
X169390038Y-90622552D01*
X169371701Y-90620746D01*
X169359450Y-90620144D01*
X169341031Y-90620144D01*
X169318751Y-90617950D01*
X169234667Y-90601224D01*
X169213240Y-90594724D01*
X169134042Y-90561920D01*
X169128597Y-90559009D01*
X169128591Y-90559007D01*
X169119731Y-90554271D01*
X169119727Y-90554268D01*
X169114286Y-90551360D01*
X169043001Y-90503729D01*
X169025696Y-90489528D01*
X168965072Y-90428904D01*
X168950871Y-90411599D01*
X168903240Y-90340314D01*
X168900332Y-90334873D01*
X168900329Y-90334869D01*
X168895593Y-90326009D01*
X168895591Y-90326003D01*
X168892680Y-90320558D01*
X168859876Y-90241360D01*
X168853376Y-90219933D01*
X168836650Y-90135849D01*
X168834456Y-90113569D01*
X168834456Y-90095150D01*
X168833854Y-90082899D01*
X168832048Y-90064562D01*
X168832048Y-89576840D01*
X168833637Y-89560701D01*
X168836552Y-89551092D01*
X168841290Y-89542228D01*
X168847663Y-89534463D01*
X168860106Y-89524252D01*
X168870475Y-89517322D01*
X168887802Y-89499995D01*
X168901415Y-89479620D01*
X168910791Y-89456980D01*
X168915571Y-89432947D01*
X168915570Y-89408443D01*
X168910788Y-89384410D01*
X168901410Y-89361771D01*
X168887795Y-89341398D01*
X168870468Y-89324071D01*
X168860098Y-89317142D01*
X168847663Y-89306937D01*
X168841290Y-89299172D01*
X168836552Y-89290308D01*
X168833637Y-89280699D01*
X168832048Y-89264560D01*
X168832048Y-88776839D01*
X168833854Y-88758501D01*
X168834456Y-88746250D01*
X168834456Y-88727831D01*
X168836650Y-88705551D01*
X168853376Y-88621467D01*
X168859876Y-88600040D01*
X168892680Y-88520842D01*
X168895591Y-88515397D01*
X168895593Y-88515391D01*
X168900329Y-88506531D01*
X168900332Y-88506527D01*
X168903240Y-88501086D01*
X168950871Y-88429801D01*
X168965072Y-88412496D01*
X169025696Y-88351872D01*
X169043001Y-88337671D01*
X169114286Y-88290040D01*
X169119727Y-88287132D01*
X169119731Y-88287129D01*
X169128591Y-88282393D01*
X169128597Y-88282391D01*
X169134042Y-88279480D01*
X169213240Y-88246676D01*
X169234667Y-88240176D01*
X169318751Y-88223450D01*
X169341031Y-88221256D01*
X169359450Y-88221256D01*
X169371701Y-88220654D01*
X169390039Y-88218848D01*
X169877761Y-88218848D01*
X169896099Y-88220654D01*
X169896099Y-88220654D01*
G37*
G36*
X164820299Y-86182037D02*
G01*
X164829908Y-86184952D01*
X164838772Y-86189690D01*
X164846537Y-86196063D01*
X164856748Y-86208506D01*
X164863678Y-86218875D01*
X164881005Y-86236202D01*
X164901380Y-86249815D01*
X164924020Y-86259191D01*
X164948053Y-86263971D01*
X164972557Y-86263970D01*
X164996590Y-86259188D01*
X165019229Y-86249810D01*
X165039602Y-86236195D01*
X165056929Y-86218868D01*
X165063858Y-86208498D01*
X165074063Y-86196063D01*
X165081828Y-86189690D01*
X165090692Y-86184952D01*
X165100301Y-86182037D01*
X165116440Y-86180448D01*
X165604161Y-86180448D01*
X165622499Y-86182254D01*
X165634750Y-86182856D01*
X165653169Y-86182856D01*
X165675449Y-86185050D01*
X165759533Y-86201776D01*
X165780960Y-86208276D01*
X165860158Y-86241080D01*
X165865603Y-86243991D01*
X165865609Y-86243993D01*
X165874469Y-86248729D01*
X165874473Y-86248732D01*
X165879914Y-86251640D01*
X165951199Y-86299271D01*
X165968504Y-86313472D01*
X166029128Y-86374096D01*
X166043329Y-86391401D01*
X166090960Y-86462686D01*
X166093868Y-86468127D01*
X166093871Y-86468131D01*
X166098607Y-86476991D01*
X166098609Y-86476997D01*
X166101520Y-86482442D01*
X166134324Y-86561640D01*
X166140824Y-86583067D01*
X166157550Y-86667151D01*
X166159744Y-86689431D01*
X166159744Y-86707850D01*
X166160346Y-86720101D01*
X166162152Y-86738439D01*
X166162152Y-87226162D01*
X166160346Y-87244499D01*
X166159744Y-87256750D01*
X166159744Y-87275169D01*
X166157550Y-87297449D01*
X166140824Y-87381533D01*
X166134324Y-87402960D01*
X166101520Y-87482158D01*
X166098609Y-87487603D01*
X166098607Y-87487609D01*
X166093871Y-87496469D01*
X166093868Y-87496473D01*
X166090960Y-87501914D01*
X166043329Y-87573199D01*
X166029128Y-87590504D01*
X165968504Y-87651128D01*
X165951199Y-87665329D01*
X165879914Y-87712960D01*
X165874473Y-87715868D01*
X165874469Y-87715871D01*
X165865609Y-87720607D01*
X165865603Y-87720609D01*
X165860158Y-87723520D01*
X165780960Y-87756324D01*
X165759533Y-87762824D01*
X165675449Y-87779550D01*
X165653169Y-87781744D01*
X165634750Y-87781744D01*
X165622499Y-87782346D01*
X165604162Y-87784152D01*
X165116440Y-87784152D01*
X165100301Y-87782563D01*
X165090692Y-87779648D01*
X165081828Y-87774910D01*
X165074063Y-87768537D01*
X165063852Y-87756094D01*
X165056922Y-87745725D01*
X165039595Y-87728398D01*
X165019220Y-87714785D01*
X164996580Y-87705409D01*
X164972547Y-87700629D01*
X164948043Y-87700630D01*
X164924010Y-87705412D01*
X164901371Y-87714790D01*
X164880998Y-87728405D01*
X164863671Y-87745732D01*
X164856742Y-87756102D01*
X164846537Y-87768537D01*
X164838772Y-87774910D01*
X164829908Y-87779648D01*
X164820299Y-87782563D01*
X164804160Y-87784152D01*
X164316438Y-87784152D01*
X164298101Y-87782346D01*
X164285850Y-87781744D01*
X164267431Y-87781744D01*
X164245151Y-87779550D01*
X164161067Y-87762824D01*
X164139640Y-87756324D01*
X164060442Y-87723520D01*
X164054997Y-87720609D01*
X164054991Y-87720607D01*
X164046131Y-87715871D01*
X164046127Y-87715868D01*
X164040686Y-87712960D01*
X163969401Y-87665329D01*
X163952096Y-87651128D01*
X163891472Y-87590504D01*
X163877271Y-87573199D01*
X163829640Y-87501914D01*
X163826732Y-87496473D01*
X163826729Y-87496469D01*
X163821993Y-87487609D01*
X163821991Y-87487603D01*
X163819080Y-87482158D01*
X163786276Y-87402960D01*
X163779776Y-87381533D01*
X163763050Y-87297449D01*
X163760856Y-87275169D01*
X163760856Y-87256750D01*
X163760254Y-87244499D01*
X163758448Y-87226162D01*
X163758448Y-86738439D01*
X163760254Y-86720101D01*
X163760856Y-86707850D01*
X163760856Y-86689431D01*
X163763050Y-86667151D01*
X163779776Y-86583067D01*
X163786276Y-86561640D01*
X163819080Y-86482442D01*
X163821991Y-86476997D01*
X163821993Y-86476991D01*
X163826729Y-86468131D01*
X163826732Y-86468127D01*
X163829640Y-86462686D01*
X163877271Y-86391401D01*
X163891472Y-86374096D01*
X163952096Y-86313472D01*
X163969401Y-86299271D01*
X164040686Y-86251640D01*
X164046127Y-86248732D01*
X164046131Y-86248729D01*
X164054991Y-86243993D01*
X164054997Y-86243991D01*
X164060442Y-86241080D01*
X164139640Y-86208276D01*
X164161067Y-86201776D01*
X164245151Y-86185050D01*
X164267431Y-86182856D01*
X164285850Y-86182856D01*
X164298101Y-86182254D01*
X164316439Y-86180448D01*
X164804160Y-86180448D01*
X164820299Y-86182037D01*
X164820299Y-86182037D01*
G37*
G36*
X137642299Y-81825937D02*
G01*
X137651908Y-81828852D01*
X137660772Y-81833590D01*
X137668537Y-81839963D01*
X137678748Y-81852406D01*
X137685678Y-81862775D01*
X137703005Y-81880102D01*
X137723380Y-81893715D01*
X137746020Y-81903091D01*
X137770053Y-81907871D01*
X137794557Y-81907870D01*
X137818590Y-81903088D01*
X137841229Y-81893710D01*
X137861602Y-81880095D01*
X137878929Y-81862768D01*
X137885858Y-81852398D01*
X137896063Y-81839963D01*
X137903828Y-81833590D01*
X137912692Y-81828852D01*
X137922301Y-81825937D01*
X137938440Y-81824348D01*
X138426161Y-81824348D01*
X138444499Y-81826154D01*
X138456750Y-81826756D01*
X138475169Y-81826756D01*
X138497449Y-81828950D01*
X138581533Y-81845676D01*
X138602960Y-81852176D01*
X138682158Y-81884980D01*
X138687603Y-81887891D01*
X138687609Y-81887893D01*
X138696469Y-81892629D01*
X138696473Y-81892632D01*
X138701914Y-81895540D01*
X138773199Y-81943171D01*
X138790504Y-81957372D01*
X138851128Y-82017996D01*
X138865329Y-82035301D01*
X138912960Y-82106586D01*
X138915868Y-82112027D01*
X138915871Y-82112031D01*
X138920607Y-82120891D01*
X138920609Y-82120897D01*
X138923520Y-82126342D01*
X138956324Y-82205540D01*
X138962824Y-82226967D01*
X138979550Y-82311051D01*
X138981744Y-82333331D01*
X138981744Y-82351750D01*
X138982346Y-82364001D01*
X138984152Y-82382339D01*
X138984152Y-82870062D01*
X138982346Y-82888399D01*
X138981744Y-82900650D01*
X138981744Y-82919069D01*
X138979550Y-82941349D01*
X138962824Y-83025433D01*
X138956324Y-83046860D01*
X138923520Y-83126058D01*
X138920609Y-83131503D01*
X138920607Y-83131509D01*
X138915871Y-83140369D01*
X138915868Y-83140373D01*
X138912960Y-83145814D01*
X138865329Y-83217099D01*
X138851128Y-83234404D01*
X138790504Y-83295028D01*
X138773199Y-83309229D01*
X138701914Y-83356860D01*
X138696473Y-83359768D01*
X138696469Y-83359771D01*
X138687609Y-83364507D01*
X138687603Y-83364509D01*
X138682158Y-83367420D01*
X138602960Y-83400224D01*
X138581533Y-83406724D01*
X138497449Y-83423450D01*
X138475169Y-83425644D01*
X138456750Y-83425644D01*
X138444499Y-83426246D01*
X138426162Y-83428052D01*
X137938440Y-83428052D01*
X137922301Y-83426463D01*
X137912692Y-83423548D01*
X137903828Y-83418810D01*
X137896063Y-83412437D01*
X137885852Y-83399994D01*
X137878922Y-83389625D01*
X137861595Y-83372298D01*
X137841220Y-83358685D01*
X137818580Y-83349309D01*
X137794547Y-83344529D01*
X137770043Y-83344530D01*
X137746010Y-83349312D01*
X137723371Y-83358690D01*
X137702998Y-83372305D01*
X137685671Y-83389632D01*
X137678742Y-83400002D01*
X137668537Y-83412437D01*
X137660772Y-83418810D01*
X137651908Y-83423548D01*
X137642299Y-83426463D01*
X137626160Y-83428052D01*
X137138438Y-83428052D01*
X137120101Y-83426246D01*
X137107850Y-83425644D01*
X137089431Y-83425644D01*
X137067151Y-83423450D01*
X136983067Y-83406724D01*
X136961640Y-83400224D01*
X136882442Y-83367420D01*
X136876997Y-83364509D01*
X136876991Y-83364507D01*
X136868131Y-83359771D01*
X136868127Y-83359768D01*
X136862686Y-83356860D01*
X136791401Y-83309229D01*
X136774096Y-83295028D01*
X136713472Y-83234404D01*
X136699271Y-83217099D01*
X136651640Y-83145814D01*
X136648732Y-83140373D01*
X136648729Y-83140369D01*
X136643993Y-83131509D01*
X136643991Y-83131503D01*
X136641080Y-83126058D01*
X136608276Y-83046860D01*
X136601776Y-83025433D01*
X136585050Y-82941349D01*
X136582856Y-82919069D01*
X136582856Y-82900650D01*
X136582254Y-82888399D01*
X136580448Y-82870062D01*
X136580448Y-82382339D01*
X136582254Y-82364001D01*
X136582856Y-82351750D01*
X136582856Y-82333331D01*
X136585050Y-82311051D01*
X136601776Y-82226967D01*
X136608276Y-82205540D01*
X136641080Y-82126342D01*
X136643991Y-82120897D01*
X136643993Y-82120891D01*
X136648729Y-82112031D01*
X136648732Y-82112027D01*
X136651640Y-82106586D01*
X136699271Y-82035301D01*
X136713472Y-82017996D01*
X136774096Y-81957372D01*
X136791401Y-81943171D01*
X136862686Y-81895540D01*
X136868127Y-81892632D01*
X136868131Y-81892629D01*
X136876991Y-81887893D01*
X136876997Y-81887891D01*
X136882442Y-81884980D01*
X136961640Y-81852176D01*
X136983067Y-81845676D01*
X137067151Y-81828950D01*
X137089431Y-81826756D01*
X137107850Y-81826756D01*
X137120101Y-81826154D01*
X137138439Y-81824348D01*
X137626160Y-81824348D01*
X137642299Y-81825937D01*
X137642299Y-81825937D01*
G37*
G36*
X174008359Y-79622754D02*
G01*
X174020610Y-79623356D01*
X174039029Y-79623356D01*
X174061309Y-79625550D01*
X174145393Y-79642276D01*
X174166820Y-79648776D01*
X174246018Y-79681580D01*
X174251463Y-79684491D01*
X174251469Y-79684493D01*
X174260329Y-79689229D01*
X174260333Y-79689232D01*
X174265774Y-79692140D01*
X174337059Y-79739771D01*
X174354364Y-79753972D01*
X174414988Y-79814596D01*
X174429189Y-79831901D01*
X174476820Y-79903186D01*
X174479728Y-79908627D01*
X174479731Y-79908631D01*
X174484467Y-79917491D01*
X174484469Y-79917497D01*
X174487380Y-79922942D01*
X174520184Y-80002140D01*
X174526684Y-80023567D01*
X174543410Y-80107651D01*
X174545604Y-80129931D01*
X174545604Y-80148350D01*
X174546206Y-80160601D01*
X174548012Y-80178939D01*
X174548012Y-80666660D01*
X174546423Y-80682799D01*
X174543508Y-80692408D01*
X174538770Y-80701272D01*
X174532397Y-80709037D01*
X174519954Y-80719248D01*
X174509585Y-80726178D01*
X174492258Y-80743505D01*
X174478645Y-80763880D01*
X174469269Y-80786520D01*
X174464489Y-80810553D01*
X174464490Y-80835057D01*
X174469272Y-80859090D01*
X174478650Y-80881729D01*
X174492265Y-80902102D01*
X174509592Y-80919429D01*
X174519962Y-80926358D01*
X174532397Y-80936563D01*
X174538770Y-80944328D01*
X174543508Y-80953192D01*
X174546423Y-80962801D01*
X174548012Y-80978940D01*
X174548012Y-81466662D01*
X174546206Y-81484999D01*
X174545604Y-81497250D01*
X174545604Y-81515669D01*
X174543410Y-81537949D01*
X174526684Y-81622033D01*
X174520184Y-81643460D01*
X174487380Y-81722658D01*
X174484469Y-81728103D01*
X174484467Y-81728109D01*
X174479731Y-81736969D01*
X174479728Y-81736973D01*
X174476820Y-81742414D01*
X174429189Y-81813699D01*
X174414988Y-81831004D01*
X174354364Y-81891628D01*
X174337059Y-81905829D01*
X174265774Y-81953460D01*
X174260333Y-81956368D01*
X174260329Y-81956371D01*
X174251469Y-81961107D01*
X174251463Y-81961109D01*
X174246018Y-81964020D01*
X174166820Y-81996824D01*
X174145393Y-82003324D01*
X174061309Y-82020050D01*
X174039029Y-82022244D01*
X174020610Y-82022244D01*
X174008359Y-82022846D01*
X173990022Y-82024652D01*
X173502298Y-82024652D01*
X173483961Y-82022846D01*
X173471710Y-82022244D01*
X173453291Y-82022244D01*
X173431011Y-82020050D01*
X173346927Y-82003324D01*
X173325500Y-81996824D01*
X173246302Y-81964020D01*
X173240857Y-81961109D01*
X173240851Y-81961107D01*
X173231991Y-81956371D01*
X173231987Y-81956368D01*
X173226546Y-81953460D01*
X173155261Y-81905829D01*
X173137956Y-81891628D01*
X173077332Y-81831004D01*
X173063131Y-81813699D01*
X173015500Y-81742414D01*
X173012592Y-81736973D01*
X173012589Y-81736969D01*
X173007853Y-81728109D01*
X173007851Y-81728103D01*
X173004940Y-81722658D01*
X172972136Y-81643460D01*
X172965636Y-81622033D01*
X172948910Y-81537949D01*
X172946716Y-81515669D01*
X172946716Y-81497250D01*
X172946114Y-81484999D01*
X172944308Y-81466662D01*
X172944308Y-80978940D01*
X172945897Y-80962801D01*
X172948812Y-80953192D01*
X172953550Y-80944328D01*
X172959923Y-80936563D01*
X172972366Y-80926352D01*
X172982735Y-80919422D01*
X173000062Y-80902095D01*
X173013675Y-80881720D01*
X173023051Y-80859080D01*
X173027831Y-80835047D01*
X173027830Y-80810543D01*
X173023048Y-80786510D01*
X173013670Y-80763871D01*
X173000055Y-80743498D01*
X172982728Y-80726171D01*
X172972358Y-80719242D01*
X172959923Y-80709037D01*
X172953550Y-80701272D01*
X172948812Y-80692408D01*
X172945897Y-80682799D01*
X172944308Y-80666660D01*
X172944308Y-80178939D01*
X172946114Y-80160601D01*
X172946716Y-80148350D01*
X172946716Y-80129931D01*
X172948910Y-80107651D01*
X172965636Y-80023567D01*
X172972136Y-80002140D01*
X173004940Y-79922942D01*
X173007851Y-79917497D01*
X173007853Y-79917491D01*
X173012589Y-79908631D01*
X173012592Y-79908627D01*
X173015500Y-79903186D01*
X173063131Y-79831901D01*
X173077332Y-79814596D01*
X173137956Y-79753972D01*
X173155261Y-79739771D01*
X173226546Y-79692140D01*
X173231987Y-79689232D01*
X173231991Y-79689229D01*
X173240851Y-79684493D01*
X173240857Y-79684491D01*
X173246302Y-79681580D01*
X173325500Y-79648776D01*
X173346927Y-79642276D01*
X173431011Y-79625550D01*
X173453291Y-79623356D01*
X173471710Y-79623356D01*
X173483961Y-79622754D01*
X173502299Y-79620948D01*
X173990021Y-79620948D01*
X174008359Y-79622754D01*
X174008359Y-79622754D01*
G37*
G36*
X176157199Y-79622754D02*
G01*
X176169450Y-79623356D01*
X176187869Y-79623356D01*
X176210149Y-79625550D01*
X176294233Y-79642276D01*
X176315660Y-79648776D01*
X176394858Y-79681580D01*
X176400303Y-79684491D01*
X176400309Y-79684493D01*
X176409169Y-79689229D01*
X176409173Y-79689232D01*
X176414614Y-79692140D01*
X176485899Y-79739771D01*
X176503204Y-79753972D01*
X176563828Y-79814596D01*
X176578029Y-79831901D01*
X176625660Y-79903186D01*
X176628568Y-79908627D01*
X176628571Y-79908631D01*
X176633307Y-79917491D01*
X176633309Y-79917497D01*
X176636220Y-79922942D01*
X176669024Y-80002140D01*
X176675524Y-80023567D01*
X176692250Y-80107651D01*
X176694444Y-80129931D01*
X176694444Y-80148350D01*
X176695046Y-80160601D01*
X176696852Y-80178939D01*
X176696852Y-80666660D01*
X176695263Y-80682799D01*
X176692348Y-80692408D01*
X176687610Y-80701272D01*
X176681237Y-80709037D01*
X176668794Y-80719248D01*
X176658425Y-80726178D01*
X176641098Y-80743505D01*
X176627485Y-80763880D01*
X176618109Y-80786520D01*
X176613329Y-80810553D01*
X176613330Y-80835057D01*
X176618112Y-80859090D01*
X176627490Y-80881729D01*
X176641105Y-80902102D01*
X176658432Y-80919429D01*
X176668802Y-80926358D01*
X176681237Y-80936563D01*
X176687610Y-80944328D01*
X176692348Y-80953192D01*
X176695263Y-80962801D01*
X176696852Y-80978940D01*
X176696852Y-81466662D01*
X176695046Y-81484999D01*
X176694444Y-81497250D01*
X176694444Y-81515669D01*
X176692250Y-81537949D01*
X176675524Y-81622033D01*
X176669024Y-81643460D01*
X176636220Y-81722658D01*
X176633309Y-81728103D01*
X176633307Y-81728109D01*
X176628571Y-81736969D01*
X176628568Y-81736973D01*
X176625660Y-81742414D01*
X176578029Y-81813699D01*
X176563828Y-81831004D01*
X176503204Y-81891628D01*
X176485899Y-81905829D01*
X176414614Y-81953460D01*
X176409173Y-81956368D01*
X176409169Y-81956371D01*
X176400309Y-81961107D01*
X176400303Y-81961109D01*
X176394858Y-81964020D01*
X176315660Y-81996824D01*
X176294233Y-82003324D01*
X176210149Y-82020050D01*
X176187869Y-82022244D01*
X176169450Y-82022244D01*
X176157199Y-82022846D01*
X176138862Y-82024652D01*
X175651138Y-82024652D01*
X175632801Y-82022846D01*
X175620550Y-82022244D01*
X175602131Y-82022244D01*
X175579851Y-82020050D01*
X175495767Y-82003324D01*
X175474340Y-81996824D01*
X175395142Y-81964020D01*
X175389697Y-81961109D01*
X175389691Y-81961107D01*
X175380831Y-81956371D01*
X175380827Y-81956368D01*
X175375386Y-81953460D01*
X175304101Y-81905829D01*
X175286796Y-81891628D01*
X175226172Y-81831004D01*
X175211971Y-81813699D01*
X175164340Y-81742414D01*
X175161432Y-81736973D01*
X175161429Y-81736969D01*
X175156693Y-81728109D01*
X175156691Y-81728103D01*
X175153780Y-81722658D01*
X175120976Y-81643460D01*
X175114476Y-81622033D01*
X175097750Y-81537949D01*
X175095556Y-81515669D01*
X175095556Y-81497250D01*
X175094954Y-81484999D01*
X175093148Y-81466662D01*
X175093148Y-80978940D01*
X175094737Y-80962801D01*
X175097652Y-80953192D01*
X175102390Y-80944328D01*
X175108763Y-80936563D01*
X175121206Y-80926352D01*
X175131575Y-80919422D01*
X175148902Y-80902095D01*
X175162515Y-80881720D01*
X175171891Y-80859080D01*
X175176671Y-80835047D01*
X175176670Y-80810543D01*
X175171888Y-80786510D01*
X175162510Y-80763871D01*
X175148895Y-80743498D01*
X175131568Y-80726171D01*
X175121198Y-80719242D01*
X175108763Y-80709037D01*
X175102390Y-80701272D01*
X175097652Y-80692408D01*
X175094737Y-80682799D01*
X175093148Y-80666660D01*
X175093148Y-80178939D01*
X175094954Y-80160601D01*
X175095556Y-80148350D01*
X175095556Y-80129931D01*
X175097750Y-80107651D01*
X175114476Y-80023567D01*
X175120976Y-80002140D01*
X175153780Y-79922942D01*
X175156691Y-79917497D01*
X175156693Y-79917491D01*
X175161429Y-79908631D01*
X175161432Y-79908627D01*
X175164340Y-79903186D01*
X175211971Y-79831901D01*
X175226172Y-79814596D01*
X175286796Y-79753972D01*
X175304101Y-79739771D01*
X175375386Y-79692140D01*
X175380827Y-79689232D01*
X175380831Y-79689229D01*
X175389691Y-79684493D01*
X175389697Y-79684491D01*
X175395142Y-79681580D01*
X175474340Y-79648776D01*
X175495767Y-79642276D01*
X175579851Y-79625550D01*
X175602131Y-79623356D01*
X175620550Y-79623356D01*
X175632801Y-79622754D01*
X175651139Y-79620948D01*
X176138861Y-79620948D01*
X176157199Y-79622754D01*
X176157199Y-79622754D01*
G37*
G36*
X137576499Y-79654237D02*
G01*
X137586108Y-79657152D01*
X137594972Y-79661890D01*
X137600851Y-79666715D01*
X137602737Y-79668263D01*
X137608120Y-79674822D01*
X137612948Y-79680706D01*
X137619878Y-79691075D01*
X137637205Y-79708402D01*
X137657580Y-79722015D01*
X137680220Y-79731391D01*
X137704253Y-79736171D01*
X137728757Y-79736170D01*
X137752790Y-79731388D01*
X137775429Y-79722010D01*
X137795802Y-79708395D01*
X137813129Y-79691068D01*
X137820058Y-79680698D01*
X137830263Y-79668263D01*
X137838028Y-79661890D01*
X137846892Y-79657152D01*
X137856501Y-79654237D01*
X137872640Y-79652648D01*
X138360361Y-79652648D01*
X138378699Y-79654454D01*
X138390950Y-79655056D01*
X138409369Y-79655056D01*
X138431649Y-79657250D01*
X138515733Y-79673976D01*
X138537160Y-79680476D01*
X138616358Y-79713280D01*
X138621803Y-79716191D01*
X138621809Y-79716193D01*
X138630669Y-79720929D01*
X138630673Y-79720932D01*
X138636114Y-79723840D01*
X138707399Y-79771471D01*
X138724704Y-79785672D01*
X138785328Y-79846296D01*
X138799529Y-79863601D01*
X138847160Y-79934886D01*
X138850068Y-79940327D01*
X138850071Y-79940331D01*
X138854807Y-79949191D01*
X138854809Y-79949197D01*
X138857720Y-79954642D01*
X138890524Y-80033840D01*
X138897024Y-80055267D01*
X138913750Y-80139351D01*
X138915944Y-80161631D01*
X138915944Y-80180050D01*
X138916546Y-80192301D01*
X138918352Y-80210639D01*
X138918352Y-80698362D01*
X138916546Y-80716699D01*
X138915944Y-80728950D01*
X138915944Y-80747369D01*
X138913750Y-80769649D01*
X138897024Y-80853733D01*
X138890524Y-80875160D01*
X138857720Y-80954358D01*
X138854809Y-80959803D01*
X138854807Y-80959809D01*
X138850071Y-80968669D01*
X138850068Y-80968673D01*
X138847160Y-80974114D01*
X138799529Y-81045399D01*
X138785328Y-81062704D01*
X138724704Y-81123328D01*
X138707399Y-81137529D01*
X138636114Y-81185160D01*
X138630673Y-81188068D01*
X138630669Y-81188071D01*
X138621809Y-81192807D01*
X138621803Y-81192809D01*
X138616358Y-81195720D01*
X138537160Y-81228524D01*
X138515733Y-81235024D01*
X138431649Y-81251750D01*
X138409369Y-81253944D01*
X138390950Y-81253944D01*
X138378699Y-81254546D01*
X138360362Y-81256352D01*
X137872640Y-81256352D01*
X137856501Y-81254763D01*
X137846892Y-81251848D01*
X137838028Y-81247110D01*
X137830263Y-81240737D01*
X137820052Y-81228294D01*
X137813122Y-81217925D01*
X137795795Y-81200598D01*
X137775420Y-81186985D01*
X137752780Y-81177609D01*
X137728747Y-81172829D01*
X137704243Y-81172830D01*
X137680210Y-81177612D01*
X137657571Y-81186990D01*
X137637198Y-81200605D01*
X137619871Y-81217932D01*
X137612942Y-81228302D01*
X137602737Y-81240737D01*
X137594972Y-81247110D01*
X137586108Y-81251848D01*
X137576499Y-81254763D01*
X137560360Y-81256352D01*
X137072638Y-81256352D01*
X137054301Y-81254546D01*
X137042050Y-81253944D01*
X137023631Y-81253944D01*
X137001351Y-81251750D01*
X136917267Y-81235024D01*
X136895840Y-81228524D01*
X136816642Y-81195720D01*
X136811197Y-81192809D01*
X136811191Y-81192807D01*
X136802331Y-81188071D01*
X136802327Y-81188068D01*
X136796886Y-81185160D01*
X136725601Y-81137529D01*
X136708296Y-81123328D01*
X136647672Y-81062704D01*
X136633471Y-81045399D01*
X136585840Y-80974114D01*
X136582932Y-80968673D01*
X136582929Y-80968669D01*
X136578193Y-80959809D01*
X136578191Y-80959803D01*
X136575280Y-80954358D01*
X136542476Y-80875160D01*
X136535976Y-80853733D01*
X136519250Y-80769649D01*
X136517056Y-80747369D01*
X136517056Y-80728950D01*
X136516454Y-80716699D01*
X136514648Y-80698362D01*
X136514648Y-80210639D01*
X136516454Y-80192301D01*
X136517056Y-80180050D01*
X136517056Y-80161631D01*
X136519250Y-80139351D01*
X136535976Y-80055267D01*
X136542476Y-80033840D01*
X136575280Y-79954642D01*
X136578191Y-79949197D01*
X136578193Y-79949191D01*
X136582929Y-79940331D01*
X136582932Y-79940327D01*
X136585840Y-79934886D01*
X136633471Y-79863601D01*
X136647672Y-79846296D01*
X136708296Y-79785672D01*
X136725601Y-79771471D01*
X136796886Y-79723840D01*
X136802327Y-79720932D01*
X136802331Y-79720929D01*
X136811191Y-79716193D01*
X136811197Y-79716191D01*
X136816642Y-79713280D01*
X136895840Y-79680476D01*
X136917267Y-79673976D01*
X137001351Y-79657250D01*
X137023631Y-79655056D01*
X137042050Y-79655056D01*
X137054301Y-79654454D01*
X137072639Y-79652648D01*
X137560360Y-79652648D01*
X137576499Y-79654237D01*
X137576499Y-79654237D01*
G37*
G36*
X143657899Y-78378154D02*
G01*
X143670150Y-78378756D01*
X143688569Y-78378756D01*
X143710849Y-78380950D01*
X143794933Y-78397676D01*
X143816360Y-78404176D01*
X143895558Y-78436980D01*
X143901003Y-78439891D01*
X143901009Y-78439893D01*
X143909869Y-78444629D01*
X143909873Y-78444632D01*
X143915314Y-78447540D01*
X143986599Y-78495171D01*
X144003904Y-78509372D01*
X144064528Y-78569996D01*
X144078729Y-78587301D01*
X144126360Y-78658586D01*
X144129268Y-78664027D01*
X144129271Y-78664031D01*
X144134007Y-78672891D01*
X144134009Y-78672897D01*
X144136920Y-78678342D01*
X144169724Y-78757540D01*
X144176224Y-78778967D01*
X144192950Y-78863051D01*
X144195144Y-78885331D01*
X144195144Y-78903750D01*
X144195746Y-78916001D01*
X144197552Y-78934339D01*
X144197552Y-79422060D01*
X144195963Y-79438199D01*
X144193048Y-79447808D01*
X144188310Y-79456672D01*
X144181937Y-79464437D01*
X144169494Y-79474648D01*
X144159125Y-79481578D01*
X144141798Y-79498905D01*
X144128185Y-79519280D01*
X144118809Y-79541920D01*
X144114029Y-79565953D01*
X144114030Y-79590457D01*
X144118812Y-79614490D01*
X144128190Y-79637129D01*
X144141805Y-79657502D01*
X144159132Y-79674829D01*
X144169502Y-79681758D01*
X144181937Y-79691963D01*
X144188310Y-79699728D01*
X144193048Y-79708592D01*
X144195963Y-79718201D01*
X144197552Y-79734340D01*
X144197552Y-80222062D01*
X144195746Y-80240399D01*
X144195144Y-80252650D01*
X144195144Y-80271069D01*
X144192950Y-80293349D01*
X144176224Y-80377433D01*
X144169724Y-80398860D01*
X144136920Y-80478058D01*
X144134009Y-80483503D01*
X144134007Y-80483509D01*
X144129271Y-80492369D01*
X144129268Y-80492373D01*
X144126360Y-80497814D01*
X144078729Y-80569099D01*
X144064528Y-80586404D01*
X144003904Y-80647028D01*
X143986599Y-80661229D01*
X143915314Y-80708860D01*
X143909873Y-80711768D01*
X143909869Y-80711771D01*
X143901009Y-80716507D01*
X143901003Y-80716509D01*
X143895558Y-80719420D01*
X143816360Y-80752224D01*
X143794933Y-80758724D01*
X143710849Y-80775450D01*
X143688569Y-80777644D01*
X143670150Y-80777644D01*
X143657899Y-80778246D01*
X143639562Y-80780052D01*
X143151838Y-80780052D01*
X143133501Y-80778246D01*
X143121250Y-80777644D01*
X143102831Y-80777644D01*
X143080551Y-80775450D01*
X142996467Y-80758724D01*
X142975040Y-80752224D01*
X142895842Y-80719420D01*
X142890397Y-80716509D01*
X142890391Y-80716507D01*
X142881531Y-80711771D01*
X142881527Y-80711768D01*
X142876086Y-80708860D01*
X142804801Y-80661229D01*
X142787496Y-80647028D01*
X142726872Y-80586404D01*
X142712671Y-80569099D01*
X142665040Y-80497814D01*
X142662132Y-80492373D01*
X142662129Y-80492369D01*
X142657393Y-80483509D01*
X142657391Y-80483503D01*
X142654480Y-80478058D01*
X142621676Y-80398860D01*
X142615176Y-80377433D01*
X142598450Y-80293349D01*
X142596256Y-80271069D01*
X142596256Y-80252650D01*
X142595654Y-80240399D01*
X142593848Y-80222062D01*
X142593848Y-79734340D01*
X142595437Y-79718201D01*
X142598352Y-79708592D01*
X142603090Y-79699728D01*
X142609463Y-79691963D01*
X142621906Y-79681752D01*
X142632275Y-79674822D01*
X142649602Y-79657495D01*
X142663215Y-79637120D01*
X142672591Y-79614480D01*
X142677371Y-79590447D01*
X142677370Y-79565943D01*
X142672588Y-79541910D01*
X142663210Y-79519271D01*
X142649595Y-79498898D01*
X142632268Y-79481571D01*
X142621898Y-79474642D01*
X142609463Y-79464437D01*
X142603090Y-79456672D01*
X142598352Y-79447808D01*
X142595437Y-79438199D01*
X142593848Y-79422060D01*
X142593848Y-78934339D01*
X142595654Y-78916001D01*
X142596256Y-78903750D01*
X142596256Y-78885331D01*
X142598450Y-78863051D01*
X142615176Y-78778967D01*
X142621676Y-78757540D01*
X142654480Y-78678342D01*
X142657391Y-78672897D01*
X142657393Y-78672891D01*
X142662129Y-78664031D01*
X142662132Y-78664027D01*
X142665040Y-78658586D01*
X142712671Y-78587301D01*
X142726872Y-78569996D01*
X142787496Y-78509372D01*
X142804801Y-78495171D01*
X142876086Y-78447540D01*
X142881527Y-78444632D01*
X142881531Y-78444629D01*
X142890391Y-78439893D01*
X142890397Y-78439891D01*
X142895842Y-78436980D01*
X142975040Y-78404176D01*
X142996467Y-78397676D01*
X143080551Y-78380950D01*
X143102831Y-78378756D01*
X143121250Y-78378756D01*
X143133501Y-78378154D01*
X143151839Y-78376348D01*
X143639561Y-78376348D01*
X143657899Y-78378154D01*
X143657899Y-78378154D01*
G37*
G36*
X168605200Y-80276700D02*
G01*
X167132000Y-80276700D01*
X167132000Y-77406500D01*
X168605200Y-77406500D01*
X168605200Y-80276700D01*
X168605200Y-80276700D01*
G37*
G36*
X164384299Y-77387554D02*
G01*
X164396550Y-77388156D01*
X164414969Y-77388156D01*
X164437249Y-77390350D01*
X164521333Y-77407076D01*
X164542760Y-77413576D01*
X164621958Y-77446380D01*
X164627403Y-77449291D01*
X164627409Y-77449293D01*
X164636269Y-77454029D01*
X164636273Y-77454032D01*
X164641714Y-77456940D01*
X164712999Y-77504571D01*
X164730304Y-77518772D01*
X164790928Y-77579396D01*
X164805129Y-77596701D01*
X164852760Y-77667986D01*
X164855668Y-77673427D01*
X164855671Y-77673431D01*
X164860407Y-77682291D01*
X164860409Y-77682297D01*
X164863320Y-77687742D01*
X164896124Y-77766940D01*
X164902624Y-77788367D01*
X164919350Y-77872451D01*
X164921544Y-77894731D01*
X164921544Y-77913150D01*
X164922146Y-77925401D01*
X164923952Y-77943739D01*
X164923952Y-78431460D01*
X164922363Y-78447599D01*
X164919448Y-78457208D01*
X164914710Y-78466072D01*
X164908337Y-78473837D01*
X164895894Y-78484048D01*
X164885525Y-78490978D01*
X164868198Y-78508305D01*
X164854585Y-78528680D01*
X164845209Y-78551320D01*
X164840429Y-78575353D01*
X164840430Y-78599857D01*
X164845212Y-78623890D01*
X164854590Y-78646529D01*
X164868205Y-78666902D01*
X164885532Y-78684229D01*
X164895902Y-78691158D01*
X164908337Y-78701363D01*
X164914710Y-78709128D01*
X164919448Y-78717992D01*
X164922363Y-78727601D01*
X164923952Y-78743740D01*
X164923952Y-79231462D01*
X164922146Y-79249799D01*
X164921544Y-79262050D01*
X164921544Y-79280469D01*
X164919350Y-79302749D01*
X164902624Y-79386833D01*
X164896124Y-79408260D01*
X164863320Y-79487458D01*
X164860409Y-79492903D01*
X164860407Y-79492909D01*
X164855671Y-79501769D01*
X164855668Y-79501773D01*
X164852760Y-79507214D01*
X164805129Y-79578499D01*
X164790928Y-79595804D01*
X164730304Y-79656428D01*
X164712999Y-79670629D01*
X164641714Y-79718260D01*
X164636273Y-79721168D01*
X164636269Y-79721171D01*
X164627409Y-79725907D01*
X164627403Y-79725909D01*
X164621958Y-79728820D01*
X164542760Y-79761624D01*
X164521333Y-79768124D01*
X164437249Y-79784850D01*
X164414969Y-79787044D01*
X164396550Y-79787044D01*
X164384299Y-79787646D01*
X164365962Y-79789452D01*
X163878238Y-79789452D01*
X163859901Y-79787646D01*
X163847650Y-79787044D01*
X163829231Y-79787044D01*
X163806951Y-79784850D01*
X163722867Y-79768124D01*
X163701440Y-79761624D01*
X163622242Y-79728820D01*
X163616797Y-79725909D01*
X163616791Y-79725907D01*
X163607931Y-79721171D01*
X163607927Y-79721168D01*
X163602486Y-79718260D01*
X163531201Y-79670629D01*
X163513896Y-79656428D01*
X163453272Y-79595804D01*
X163439071Y-79578499D01*
X163391440Y-79507214D01*
X163388532Y-79501773D01*
X163388529Y-79501769D01*
X163383793Y-79492909D01*
X163383791Y-79492903D01*
X163380880Y-79487458D01*
X163348076Y-79408260D01*
X163341576Y-79386833D01*
X163324850Y-79302749D01*
X163322656Y-79280469D01*
X163322656Y-79262050D01*
X163322054Y-79249799D01*
X163320248Y-79231462D01*
X163320248Y-78743740D01*
X163321837Y-78727601D01*
X163324752Y-78717992D01*
X163329490Y-78709128D01*
X163335863Y-78701363D01*
X163348306Y-78691152D01*
X163358675Y-78684222D01*
X163376002Y-78666895D01*
X163389615Y-78646520D01*
X163398991Y-78623880D01*
X163403771Y-78599847D01*
X163403770Y-78575343D01*
X163398988Y-78551310D01*
X163389610Y-78528671D01*
X163375995Y-78508298D01*
X163358668Y-78490971D01*
X163348298Y-78484042D01*
X163335863Y-78473837D01*
X163329490Y-78466072D01*
X163324752Y-78457208D01*
X163321837Y-78447599D01*
X163320248Y-78431460D01*
X163320248Y-77943739D01*
X163322054Y-77925401D01*
X163322656Y-77913150D01*
X163322656Y-77894731D01*
X163324850Y-77872451D01*
X163341576Y-77788367D01*
X163348076Y-77766940D01*
X163380880Y-77687742D01*
X163383791Y-77682297D01*
X163383793Y-77682291D01*
X163388529Y-77673431D01*
X163388532Y-77673427D01*
X163391440Y-77667986D01*
X163439071Y-77596701D01*
X163453272Y-77579396D01*
X163513896Y-77518772D01*
X163531201Y-77504571D01*
X163602486Y-77456940D01*
X163607927Y-77454032D01*
X163607931Y-77454029D01*
X163616791Y-77449293D01*
X163616797Y-77449291D01*
X163622242Y-77446380D01*
X163701440Y-77413576D01*
X163722867Y-77407076D01*
X163806951Y-77390350D01*
X163829231Y-77388156D01*
X163847650Y-77388156D01*
X163859901Y-77387554D01*
X163878239Y-77385748D01*
X164365961Y-77385748D01*
X164384299Y-77387554D01*
X164384299Y-77387554D01*
G37*
G36*
X137705799Y-77520637D02*
G01*
X137715408Y-77523552D01*
X137724272Y-77528290D01*
X137732037Y-77534663D01*
X137742248Y-77547106D01*
X137749178Y-77557475D01*
X137766505Y-77574802D01*
X137786880Y-77588415D01*
X137809520Y-77597791D01*
X137833553Y-77602571D01*
X137858057Y-77602570D01*
X137882090Y-77597788D01*
X137904729Y-77588410D01*
X137925102Y-77574795D01*
X137942429Y-77557468D01*
X137949358Y-77547098D01*
X137959563Y-77534663D01*
X137967328Y-77528290D01*
X137976192Y-77523552D01*
X137985801Y-77520637D01*
X138001940Y-77519048D01*
X138489661Y-77519048D01*
X138507999Y-77520854D01*
X138520250Y-77521456D01*
X138538669Y-77521456D01*
X138560949Y-77523650D01*
X138645033Y-77540376D01*
X138666460Y-77546876D01*
X138745658Y-77579680D01*
X138751103Y-77582591D01*
X138751109Y-77582593D01*
X138759969Y-77587329D01*
X138759973Y-77587332D01*
X138765414Y-77590240D01*
X138836699Y-77637871D01*
X138854004Y-77652072D01*
X138914628Y-77712696D01*
X138928829Y-77730001D01*
X138976460Y-77801286D01*
X138979368Y-77806727D01*
X138979371Y-77806731D01*
X138984107Y-77815591D01*
X138984109Y-77815597D01*
X138987020Y-77821042D01*
X139019824Y-77900240D01*
X139026324Y-77921667D01*
X139043050Y-78005751D01*
X139045244Y-78028031D01*
X139045244Y-78046450D01*
X139045846Y-78058701D01*
X139047652Y-78077039D01*
X139047652Y-78564762D01*
X139045846Y-78583099D01*
X139045244Y-78595350D01*
X139045244Y-78613769D01*
X139043050Y-78636049D01*
X139026324Y-78720133D01*
X139019824Y-78741560D01*
X138987020Y-78820758D01*
X138984109Y-78826203D01*
X138984107Y-78826209D01*
X138979371Y-78835069D01*
X138979368Y-78835073D01*
X138976460Y-78840514D01*
X138928829Y-78911799D01*
X138914628Y-78929104D01*
X138854004Y-78989728D01*
X138836699Y-79003929D01*
X138765414Y-79051560D01*
X138759973Y-79054468D01*
X138759969Y-79054471D01*
X138751109Y-79059207D01*
X138751103Y-79059209D01*
X138745658Y-79062120D01*
X138666460Y-79094924D01*
X138645033Y-79101424D01*
X138560949Y-79118150D01*
X138538669Y-79120344D01*
X138520250Y-79120344D01*
X138507999Y-79120946D01*
X138489662Y-79122752D01*
X138001940Y-79122752D01*
X137985801Y-79121163D01*
X137976192Y-79118248D01*
X137967328Y-79113510D01*
X137959563Y-79107137D01*
X137949352Y-79094694D01*
X137942422Y-79084325D01*
X137925095Y-79066998D01*
X137904720Y-79053385D01*
X137882080Y-79044009D01*
X137858047Y-79039229D01*
X137833543Y-79039230D01*
X137809510Y-79044012D01*
X137786871Y-79053390D01*
X137766498Y-79067005D01*
X137749171Y-79084332D01*
X137742242Y-79094702D01*
X137732037Y-79107137D01*
X137724272Y-79113510D01*
X137715408Y-79118248D01*
X137705799Y-79121163D01*
X137689660Y-79122752D01*
X137201938Y-79122752D01*
X137183601Y-79120946D01*
X137171350Y-79120344D01*
X137152931Y-79120344D01*
X137130651Y-79118150D01*
X137046567Y-79101424D01*
X137025140Y-79094924D01*
X136945942Y-79062120D01*
X136940497Y-79059209D01*
X136940491Y-79059207D01*
X136931631Y-79054471D01*
X136931627Y-79054468D01*
X136926186Y-79051560D01*
X136854901Y-79003929D01*
X136837596Y-78989728D01*
X136776972Y-78929104D01*
X136762771Y-78911799D01*
X136715140Y-78840514D01*
X136712232Y-78835073D01*
X136712229Y-78835069D01*
X136707493Y-78826209D01*
X136707491Y-78826203D01*
X136704580Y-78820758D01*
X136671776Y-78741560D01*
X136665276Y-78720133D01*
X136648550Y-78636049D01*
X136646356Y-78613769D01*
X136646356Y-78595350D01*
X136645754Y-78583099D01*
X136643948Y-78564762D01*
X136643948Y-78077039D01*
X136645754Y-78058701D01*
X136646356Y-78046450D01*
X136646356Y-78028031D01*
X136648550Y-78005751D01*
X136665276Y-77921667D01*
X136671776Y-77900240D01*
X136704580Y-77821042D01*
X136707491Y-77815597D01*
X136707493Y-77815591D01*
X136712229Y-77806731D01*
X136712232Y-77806727D01*
X136715140Y-77801286D01*
X136762771Y-77730001D01*
X136776972Y-77712696D01*
X136837596Y-77652072D01*
X136854901Y-77637871D01*
X136926186Y-77590240D01*
X136931627Y-77587332D01*
X136931631Y-77587329D01*
X136940491Y-77582593D01*
X136940497Y-77582591D01*
X136945942Y-77579680D01*
X137025140Y-77546876D01*
X137046567Y-77540376D01*
X137130651Y-77523650D01*
X137152931Y-77521456D01*
X137171350Y-77521456D01*
X137183601Y-77520854D01*
X137201939Y-77519048D01*
X137689660Y-77519048D01*
X137705799Y-77520637D01*
X137705799Y-77520637D01*
G37*
G36*
X131747385Y-75162175D02*
G01*
X132097576Y-75307229D01*
X132102445Y-75309246D01*
X132421990Y-75522759D01*
X132693741Y-75794510D01*
X132849518Y-76027647D01*
X132907255Y-76114057D01*
X133054325Y-76469115D01*
X133129300Y-76846042D01*
X133129300Y-77230358D01*
X133054325Y-77607285D01*
X132923588Y-77922911D01*
X132907254Y-77962345D01*
X132693741Y-78281890D01*
X132421990Y-78553641D01*
X132102445Y-78767154D01*
X132102444Y-78767155D01*
X132102443Y-78767155D01*
X131747385Y-78914225D01*
X131370458Y-78989200D01*
X130986142Y-78989200D01*
X130609215Y-78914225D01*
X130254157Y-78767155D01*
X130254156Y-78767155D01*
X130254155Y-78767154D01*
X129934610Y-78553641D01*
X129662859Y-78281890D01*
X129449346Y-77962345D01*
X129433012Y-77922911D01*
X129302275Y-77607285D01*
X129227300Y-77230358D01*
X129227300Y-76846042D01*
X129302275Y-76469115D01*
X129449345Y-76114057D01*
X129507082Y-76027647D01*
X129662859Y-75794510D01*
X129934610Y-75522759D01*
X130254155Y-75309246D01*
X130259024Y-75307229D01*
X130609215Y-75162175D01*
X130986142Y-75087200D01*
X131370458Y-75087200D01*
X131747385Y-75162175D01*
X131747385Y-75162175D01*
G37*
G36*
X177277787Y-75787196D02*
G01*
X177409706Y-75841839D01*
X177514555Y-75885269D01*
X177727639Y-76027647D01*
X177908853Y-76208861D01*
X178042171Y-76408385D01*
X178051232Y-76421947D01*
X178149304Y-76658713D01*
X178199300Y-76910061D01*
X178199300Y-77166339D01*
X178149304Y-77417687D01*
X178056479Y-77641785D01*
X178051231Y-77654455D01*
X177908853Y-77867539D01*
X177727639Y-78048753D01*
X177514555Y-78191131D01*
X177514554Y-78191132D01*
X177514553Y-78191132D01*
X177277787Y-78289204D01*
X177026439Y-78339200D01*
X176770161Y-78339200D01*
X176518813Y-78289204D01*
X176282047Y-78191132D01*
X176282046Y-78191132D01*
X176282045Y-78191131D01*
X176068961Y-78048753D01*
X175887747Y-77867539D01*
X175745369Y-77654455D01*
X175740121Y-77641785D01*
X175647296Y-77417687D01*
X175597300Y-77166339D01*
X175597300Y-76910061D01*
X175647296Y-76658713D01*
X175745368Y-76421947D01*
X175754430Y-76408385D01*
X175887747Y-76208861D01*
X176068961Y-76027647D01*
X176282045Y-75885269D01*
X176386894Y-75841839D01*
X176518813Y-75787196D01*
X176770161Y-75737200D01*
X177026439Y-75737200D01*
X177277787Y-75787196D01*
X177277787Y-75787196D01*
G37*
G36*
X137540699Y-75285437D02*
G01*
X137550308Y-75288352D01*
X137559172Y-75293090D01*
X137566937Y-75299463D01*
X137577148Y-75311906D01*
X137584078Y-75322275D01*
X137601405Y-75339602D01*
X137621780Y-75353215D01*
X137644420Y-75362591D01*
X137668453Y-75367371D01*
X137692957Y-75367370D01*
X137716990Y-75362588D01*
X137739629Y-75353210D01*
X137760002Y-75339595D01*
X137777329Y-75322268D01*
X137784258Y-75311898D01*
X137794463Y-75299463D01*
X137802228Y-75293090D01*
X137811092Y-75288352D01*
X137820701Y-75285437D01*
X137836840Y-75283848D01*
X138324561Y-75283848D01*
X138342899Y-75285654D01*
X138355150Y-75286256D01*
X138373569Y-75286256D01*
X138395849Y-75288450D01*
X138479933Y-75305176D01*
X138501360Y-75311676D01*
X138580558Y-75344480D01*
X138586003Y-75347391D01*
X138586009Y-75347393D01*
X138594869Y-75352129D01*
X138594873Y-75352132D01*
X138600314Y-75355040D01*
X138671599Y-75402671D01*
X138688904Y-75416872D01*
X138749528Y-75477496D01*
X138763729Y-75494801D01*
X138811360Y-75566086D01*
X138814268Y-75571527D01*
X138814271Y-75571531D01*
X138819007Y-75580391D01*
X138819009Y-75580397D01*
X138821920Y-75585842D01*
X138854724Y-75665040D01*
X138861224Y-75686467D01*
X138877950Y-75770551D01*
X138880144Y-75792831D01*
X138880144Y-75811250D01*
X138880746Y-75823501D01*
X138882552Y-75841839D01*
X138882552Y-76329562D01*
X138880746Y-76347899D01*
X138880144Y-76360150D01*
X138880144Y-76378569D01*
X138877950Y-76400849D01*
X138861224Y-76484933D01*
X138854724Y-76506360D01*
X138821920Y-76585558D01*
X138819009Y-76591003D01*
X138819007Y-76591009D01*
X138814271Y-76599869D01*
X138814268Y-76599873D01*
X138811360Y-76605314D01*
X138763729Y-76676599D01*
X138749528Y-76693904D01*
X138688904Y-76754528D01*
X138671599Y-76768729D01*
X138600314Y-76816360D01*
X138594873Y-76819268D01*
X138594869Y-76819271D01*
X138586009Y-76824007D01*
X138586003Y-76824009D01*
X138580558Y-76826920D01*
X138501360Y-76859724D01*
X138479933Y-76866224D01*
X138395849Y-76882950D01*
X138373569Y-76885144D01*
X138355150Y-76885144D01*
X138342899Y-76885746D01*
X138324562Y-76887552D01*
X137836840Y-76887552D01*
X137820701Y-76885963D01*
X137811092Y-76883048D01*
X137802228Y-76878310D01*
X137794463Y-76871937D01*
X137784252Y-76859494D01*
X137777322Y-76849125D01*
X137759995Y-76831798D01*
X137739620Y-76818185D01*
X137716980Y-76808809D01*
X137692947Y-76804029D01*
X137668443Y-76804030D01*
X137644410Y-76808812D01*
X137621771Y-76818190D01*
X137601398Y-76831805D01*
X137584071Y-76849132D01*
X137577142Y-76859502D01*
X137566937Y-76871937D01*
X137559172Y-76878310D01*
X137550308Y-76883048D01*
X137540699Y-76885963D01*
X137524560Y-76887552D01*
X137036838Y-76887552D01*
X137018501Y-76885746D01*
X137006250Y-76885144D01*
X136987831Y-76885144D01*
X136965551Y-76882950D01*
X136881467Y-76866224D01*
X136860040Y-76859724D01*
X136780842Y-76826920D01*
X136775397Y-76824009D01*
X136775391Y-76824007D01*
X136766531Y-76819271D01*
X136766527Y-76819268D01*
X136761086Y-76816360D01*
X136689801Y-76768729D01*
X136672496Y-76754528D01*
X136611872Y-76693904D01*
X136597671Y-76676599D01*
X136550040Y-76605314D01*
X136547132Y-76599873D01*
X136547129Y-76599869D01*
X136542393Y-76591009D01*
X136542391Y-76591003D01*
X136539480Y-76585558D01*
X136506676Y-76506360D01*
X136500176Y-76484933D01*
X136483450Y-76400849D01*
X136481256Y-76378569D01*
X136481256Y-76360150D01*
X136480654Y-76347899D01*
X136478848Y-76329562D01*
X136478848Y-75841839D01*
X136480654Y-75823501D01*
X136481256Y-75811250D01*
X136481256Y-75792831D01*
X136483450Y-75770551D01*
X136500176Y-75686467D01*
X136506676Y-75665040D01*
X136539480Y-75585842D01*
X136542391Y-75580397D01*
X136542393Y-75580391D01*
X136547129Y-75571531D01*
X136547132Y-75571527D01*
X136550040Y-75566086D01*
X136597671Y-75494801D01*
X136611872Y-75477496D01*
X136672496Y-75416872D01*
X136689801Y-75402671D01*
X136761086Y-75355040D01*
X136766527Y-75352132D01*
X136766531Y-75352129D01*
X136775391Y-75347393D01*
X136775397Y-75347391D01*
X136780842Y-75344480D01*
X136860040Y-75311676D01*
X136881467Y-75305176D01*
X136965551Y-75288450D01*
X136987831Y-75286256D01*
X137006250Y-75286256D01*
X137018501Y-75285654D01*
X137036839Y-75283848D01*
X137524560Y-75283848D01*
X137540699Y-75285437D01*
X137540699Y-75285437D01*
G37*
G36*
X173198743Y-74873719D02*
G01*
X173264927Y-74880237D01*
X173434766Y-74931757D01*
X173591291Y-75015422D01*
X173627029Y-75044752D01*
X173728486Y-75128014D01*
X173811748Y-75229471D01*
X173841078Y-75265209D01*
X173924743Y-75421734D01*
X173976263Y-75591573D01*
X173993659Y-75768200D01*
X173976263Y-75944827D01*
X173924743Y-76114666D01*
X173841078Y-76271191D01*
X173811748Y-76306929D01*
X173728486Y-76408386D01*
X173654486Y-76469115D01*
X173591291Y-76520978D01*
X173591289Y-76520979D01*
X173443698Y-76599869D01*
X173434766Y-76604643D01*
X173264927Y-76656163D01*
X173198742Y-76662682D01*
X173132560Y-76669200D01*
X173044040Y-76669200D01*
X172977858Y-76662682D01*
X172911673Y-76656163D01*
X172741834Y-76604643D01*
X172732903Y-76599869D01*
X172585311Y-76520979D01*
X172585309Y-76520978D01*
X172522114Y-76469115D01*
X172448114Y-76408386D01*
X172364852Y-76306929D01*
X172335522Y-76271191D01*
X172251857Y-76114666D01*
X172200337Y-75944827D01*
X172182941Y-75768200D01*
X172200337Y-75591573D01*
X172251857Y-75421734D01*
X172335522Y-75265209D01*
X172364852Y-75229471D01*
X172448114Y-75128014D01*
X172549571Y-75044752D01*
X172585309Y-75015422D01*
X172741834Y-74931757D01*
X172911673Y-74880237D01*
X172977857Y-74873719D01*
X173044040Y-74867200D01*
X173132560Y-74867200D01*
X173198743Y-74873719D01*
X173198743Y-74873719D01*
G37*
G36*
X170658743Y-74873719D02*
G01*
X170724927Y-74880237D01*
X170894766Y-74931757D01*
X171051291Y-75015422D01*
X171087029Y-75044752D01*
X171188486Y-75128014D01*
X171271748Y-75229471D01*
X171301078Y-75265209D01*
X171384743Y-75421734D01*
X171436263Y-75591573D01*
X171453659Y-75768200D01*
X171436263Y-75944827D01*
X171384743Y-76114666D01*
X171301078Y-76271191D01*
X171271748Y-76306929D01*
X171188486Y-76408386D01*
X171114486Y-76469115D01*
X171051291Y-76520978D01*
X171051289Y-76520979D01*
X170903698Y-76599869D01*
X170894766Y-76604643D01*
X170724927Y-76656163D01*
X170658742Y-76662682D01*
X170592560Y-76669200D01*
X170504040Y-76669200D01*
X170437858Y-76662682D01*
X170371673Y-76656163D01*
X170201834Y-76604643D01*
X170192903Y-76599869D01*
X170045311Y-76520979D01*
X170045309Y-76520978D01*
X169982114Y-76469115D01*
X169908114Y-76408386D01*
X169824852Y-76306929D01*
X169795522Y-76271191D01*
X169711857Y-76114666D01*
X169660337Y-75944827D01*
X169642941Y-75768200D01*
X169660337Y-75591573D01*
X169711857Y-75421734D01*
X169795522Y-75265209D01*
X169824852Y-75229471D01*
X169908114Y-75128014D01*
X170009571Y-75044752D01*
X170045309Y-75015422D01*
X170201834Y-74931757D01*
X170371673Y-74880237D01*
X170437857Y-74873719D01*
X170504040Y-74867200D01*
X170592560Y-74867200D01*
X170658743Y-74873719D01*
X170658743Y-74873719D01*
G37*
G36*
X168118743Y-74873719D02*
G01*
X168184927Y-74880237D01*
X168354766Y-74931757D01*
X168511291Y-75015422D01*
X168547029Y-75044752D01*
X168648486Y-75128014D01*
X168731748Y-75229471D01*
X168761078Y-75265209D01*
X168844743Y-75421734D01*
X168896263Y-75591573D01*
X168913659Y-75768200D01*
X168896263Y-75944827D01*
X168844743Y-76114666D01*
X168761078Y-76271191D01*
X168731748Y-76306929D01*
X168648486Y-76408386D01*
X168574486Y-76469115D01*
X168511291Y-76520978D01*
X168511289Y-76520979D01*
X168363698Y-76599869D01*
X168354766Y-76604643D01*
X168184927Y-76656163D01*
X168118742Y-76662682D01*
X168052560Y-76669200D01*
X167964040Y-76669200D01*
X167897858Y-76662682D01*
X167831673Y-76656163D01*
X167661834Y-76604643D01*
X167652903Y-76599869D01*
X167505311Y-76520979D01*
X167505309Y-76520978D01*
X167442114Y-76469115D01*
X167368114Y-76408386D01*
X167284852Y-76306929D01*
X167255522Y-76271191D01*
X167171857Y-76114666D01*
X167120337Y-75944827D01*
X167102941Y-75768200D01*
X167120337Y-75591573D01*
X167171857Y-75421734D01*
X167255522Y-75265209D01*
X167284852Y-75229471D01*
X167368114Y-75128014D01*
X167469571Y-75044752D01*
X167505309Y-75015422D01*
X167661834Y-74931757D01*
X167831673Y-74880237D01*
X167897857Y-74873719D01*
X167964040Y-74867200D01*
X168052560Y-74867200D01*
X168118743Y-74873719D01*
X168118743Y-74873719D01*
G37*
G36*
X163038743Y-74873719D02*
G01*
X163104927Y-74880237D01*
X163274766Y-74931757D01*
X163431291Y-75015422D01*
X163467029Y-75044752D01*
X163568486Y-75128014D01*
X163651748Y-75229471D01*
X163681078Y-75265209D01*
X163764743Y-75421734D01*
X163816263Y-75591573D01*
X163833659Y-75768200D01*
X163816263Y-75944827D01*
X163764743Y-76114666D01*
X163681078Y-76271191D01*
X163651748Y-76306929D01*
X163568486Y-76408386D01*
X163494486Y-76469115D01*
X163431291Y-76520978D01*
X163431289Y-76520979D01*
X163283698Y-76599869D01*
X163274766Y-76604643D01*
X163104927Y-76656163D01*
X163038742Y-76662682D01*
X162972560Y-76669200D01*
X162884040Y-76669200D01*
X162817858Y-76662682D01*
X162751673Y-76656163D01*
X162581834Y-76604643D01*
X162572903Y-76599869D01*
X162425311Y-76520979D01*
X162425309Y-76520978D01*
X162362114Y-76469115D01*
X162288114Y-76408386D01*
X162204852Y-76306929D01*
X162175522Y-76271191D01*
X162091857Y-76114666D01*
X162040337Y-75944827D01*
X162022941Y-75768200D01*
X162040337Y-75591573D01*
X162091857Y-75421734D01*
X162175522Y-75265209D01*
X162204852Y-75229471D01*
X162288114Y-75128014D01*
X162389571Y-75044752D01*
X162425309Y-75015422D01*
X162581834Y-74931757D01*
X162751673Y-74880237D01*
X162817857Y-74873719D01*
X162884040Y-74867200D01*
X162972560Y-74867200D01*
X163038743Y-74873719D01*
X163038743Y-74873719D01*
G37*
G36*
X150338743Y-74873719D02*
G01*
X150404927Y-74880237D01*
X150574766Y-74931757D01*
X150731291Y-75015422D01*
X150767029Y-75044752D01*
X150868486Y-75128014D01*
X150951748Y-75229471D01*
X150981078Y-75265209D01*
X151064743Y-75421734D01*
X151116263Y-75591573D01*
X151133659Y-75768200D01*
X151116263Y-75944827D01*
X151064743Y-76114666D01*
X150981078Y-76271191D01*
X150951748Y-76306929D01*
X150868486Y-76408386D01*
X150794486Y-76469115D01*
X150731291Y-76520978D01*
X150731289Y-76520979D01*
X150583698Y-76599869D01*
X150574766Y-76604643D01*
X150404927Y-76656163D01*
X150338742Y-76662682D01*
X150272560Y-76669200D01*
X150184040Y-76669200D01*
X150117858Y-76662682D01*
X150051673Y-76656163D01*
X149881834Y-76604643D01*
X149872903Y-76599869D01*
X149725311Y-76520979D01*
X149725309Y-76520978D01*
X149662114Y-76469115D01*
X149588114Y-76408386D01*
X149504852Y-76306929D01*
X149475522Y-76271191D01*
X149391857Y-76114666D01*
X149340337Y-75944827D01*
X149322941Y-75768200D01*
X149340337Y-75591573D01*
X149391857Y-75421734D01*
X149475522Y-75265209D01*
X149504852Y-75229471D01*
X149588114Y-75128014D01*
X149689571Y-75044752D01*
X149725309Y-75015422D01*
X149881834Y-74931757D01*
X150051673Y-74880237D01*
X150117857Y-74873719D01*
X150184040Y-74867200D01*
X150272560Y-74867200D01*
X150338743Y-74873719D01*
X150338743Y-74873719D01*
G37*
G36*
X147798743Y-74873719D02*
G01*
X147864927Y-74880237D01*
X148034766Y-74931757D01*
X148191291Y-75015422D01*
X148227029Y-75044752D01*
X148328486Y-75128014D01*
X148411748Y-75229471D01*
X148441078Y-75265209D01*
X148524743Y-75421734D01*
X148576263Y-75591573D01*
X148593659Y-75768200D01*
X148576263Y-75944827D01*
X148524743Y-76114666D01*
X148441078Y-76271191D01*
X148411748Y-76306929D01*
X148328486Y-76408386D01*
X148254486Y-76469115D01*
X148191291Y-76520978D01*
X148191289Y-76520979D01*
X148043698Y-76599869D01*
X148034766Y-76604643D01*
X147864927Y-76656163D01*
X147798742Y-76662682D01*
X147732560Y-76669200D01*
X147644040Y-76669200D01*
X147577858Y-76662682D01*
X147511673Y-76656163D01*
X147341834Y-76604643D01*
X147332903Y-76599869D01*
X147185311Y-76520979D01*
X147185309Y-76520978D01*
X147122114Y-76469115D01*
X147048114Y-76408386D01*
X146964852Y-76306929D01*
X146935522Y-76271191D01*
X146851857Y-76114666D01*
X146800337Y-75944827D01*
X146782941Y-75768200D01*
X146800337Y-75591573D01*
X146851857Y-75421734D01*
X146935522Y-75265209D01*
X146964852Y-75229471D01*
X147048114Y-75128014D01*
X147149571Y-75044752D01*
X147185309Y-75015422D01*
X147341834Y-74931757D01*
X147511673Y-74880237D01*
X147577857Y-74873719D01*
X147644040Y-74867200D01*
X147732560Y-74867200D01*
X147798743Y-74873719D01*
X147798743Y-74873719D01*
G37*
G36*
X146049300Y-76669200D02*
G01*
X144247300Y-76669200D01*
X144247300Y-74867200D01*
X146049300Y-74867200D01*
X146049300Y-76669200D01*
X146049300Y-76669200D01*
G37*
G36*
X155418743Y-74873719D02*
G01*
X155484927Y-74880237D01*
X155654766Y-74931757D01*
X155811291Y-75015422D01*
X155847029Y-75044752D01*
X155948486Y-75128014D01*
X156031748Y-75229471D01*
X156061078Y-75265209D01*
X156144743Y-75421734D01*
X156196263Y-75591573D01*
X156213659Y-75768200D01*
X156196263Y-75944827D01*
X156144743Y-76114666D01*
X156061078Y-76271191D01*
X156031748Y-76306929D01*
X155948486Y-76408386D01*
X155874486Y-76469115D01*
X155811291Y-76520978D01*
X155811289Y-76520979D01*
X155663698Y-76599869D01*
X155654766Y-76604643D01*
X155484927Y-76656163D01*
X155418742Y-76662682D01*
X155352560Y-76669200D01*
X155264040Y-76669200D01*
X155197858Y-76662682D01*
X155131673Y-76656163D01*
X154961834Y-76604643D01*
X154952903Y-76599869D01*
X154805311Y-76520979D01*
X154805309Y-76520978D01*
X154742114Y-76469115D01*
X154668114Y-76408386D01*
X154584852Y-76306929D01*
X154555522Y-76271191D01*
X154471857Y-76114666D01*
X154420337Y-75944827D01*
X154402941Y-75768200D01*
X154420337Y-75591573D01*
X154471857Y-75421734D01*
X154555522Y-75265209D01*
X154584852Y-75229471D01*
X154668114Y-75128014D01*
X154769571Y-75044752D01*
X154805309Y-75015422D01*
X154961834Y-74931757D01*
X155131673Y-74880237D01*
X155197857Y-74873719D01*
X155264040Y-74867200D01*
X155352560Y-74867200D01*
X155418743Y-74873719D01*
X155418743Y-74873719D01*
G37*
G36*
X157958743Y-74873719D02*
G01*
X158024927Y-74880237D01*
X158194766Y-74931757D01*
X158351291Y-75015422D01*
X158387029Y-75044752D01*
X158488486Y-75128014D01*
X158571748Y-75229471D01*
X158601078Y-75265209D01*
X158684743Y-75421734D01*
X158736263Y-75591573D01*
X158753659Y-75768200D01*
X158736263Y-75944827D01*
X158684743Y-76114666D01*
X158601078Y-76271191D01*
X158571748Y-76306929D01*
X158488486Y-76408386D01*
X158414486Y-76469115D01*
X158351291Y-76520978D01*
X158351289Y-76520979D01*
X158203698Y-76599869D01*
X158194766Y-76604643D01*
X158024927Y-76656163D01*
X157958742Y-76662682D01*
X157892560Y-76669200D01*
X157804040Y-76669200D01*
X157737858Y-76662682D01*
X157671673Y-76656163D01*
X157501834Y-76604643D01*
X157492903Y-76599869D01*
X157345311Y-76520979D01*
X157345309Y-76520978D01*
X157282114Y-76469115D01*
X157208114Y-76408386D01*
X157124852Y-76306929D01*
X157095522Y-76271191D01*
X157011857Y-76114666D01*
X156960337Y-75944827D01*
X156942941Y-75768200D01*
X156960337Y-75591573D01*
X157011857Y-75421734D01*
X157095522Y-75265209D01*
X157124852Y-75229471D01*
X157208114Y-75128014D01*
X157309571Y-75044752D01*
X157345309Y-75015422D01*
X157501834Y-74931757D01*
X157671673Y-74880237D01*
X157737857Y-74873719D01*
X157804040Y-74867200D01*
X157892560Y-74867200D01*
X157958743Y-74873719D01*
X157958743Y-74873719D01*
G37*
G36*
X160498743Y-74873719D02*
G01*
X160564927Y-74880237D01*
X160734766Y-74931757D01*
X160891291Y-75015422D01*
X160927029Y-75044752D01*
X161028486Y-75128014D01*
X161111748Y-75229471D01*
X161141078Y-75265209D01*
X161224743Y-75421734D01*
X161276263Y-75591573D01*
X161293659Y-75768200D01*
X161276263Y-75944827D01*
X161224743Y-76114666D01*
X161141078Y-76271191D01*
X161111748Y-76306929D01*
X161028486Y-76408386D01*
X160954486Y-76469115D01*
X160891291Y-76520978D01*
X160891289Y-76520979D01*
X160743698Y-76599869D01*
X160734766Y-76604643D01*
X160564927Y-76656163D01*
X160498742Y-76662682D01*
X160432560Y-76669200D01*
X160344040Y-76669200D01*
X160277858Y-76662682D01*
X160211673Y-76656163D01*
X160041834Y-76604643D01*
X160032903Y-76599869D01*
X159885311Y-76520979D01*
X159885309Y-76520978D01*
X159822114Y-76469115D01*
X159748114Y-76408386D01*
X159664852Y-76306929D01*
X159635522Y-76271191D01*
X159551857Y-76114666D01*
X159500337Y-75944827D01*
X159482941Y-75768200D01*
X159500337Y-75591573D01*
X159551857Y-75421734D01*
X159635522Y-75265209D01*
X159664852Y-75229471D01*
X159748114Y-75128014D01*
X159849571Y-75044752D01*
X159885309Y-75015422D01*
X160041834Y-74931757D01*
X160211673Y-74880237D01*
X160277857Y-74873719D01*
X160344040Y-74867200D01*
X160432560Y-74867200D01*
X160498743Y-74873719D01*
X160498743Y-74873719D01*
G37*
G36*
X165578743Y-74873719D02*
G01*
X165644927Y-74880237D01*
X165814766Y-74931757D01*
X165971291Y-75015422D01*
X166007029Y-75044752D01*
X166108486Y-75128014D01*
X166191748Y-75229471D01*
X166221078Y-75265209D01*
X166304743Y-75421734D01*
X166356263Y-75591573D01*
X166373659Y-75768200D01*
X166356263Y-75944827D01*
X166304743Y-76114666D01*
X166221078Y-76271191D01*
X166191748Y-76306929D01*
X166108486Y-76408386D01*
X166034486Y-76469115D01*
X165971291Y-76520978D01*
X165971289Y-76520979D01*
X165823698Y-76599869D01*
X165814766Y-76604643D01*
X165644927Y-76656163D01*
X165578742Y-76662682D01*
X165512560Y-76669200D01*
X165424040Y-76669200D01*
X165357858Y-76662682D01*
X165291673Y-76656163D01*
X165121834Y-76604643D01*
X165112903Y-76599869D01*
X164965311Y-76520979D01*
X164965309Y-76520978D01*
X164902114Y-76469115D01*
X164828114Y-76408386D01*
X164744852Y-76306929D01*
X164715522Y-76271191D01*
X164631857Y-76114666D01*
X164580337Y-75944827D01*
X164562941Y-75768200D01*
X164580337Y-75591573D01*
X164631857Y-75421734D01*
X164715522Y-75265209D01*
X164744852Y-75229471D01*
X164828114Y-75128014D01*
X164929571Y-75044752D01*
X164965309Y-75015422D01*
X165121834Y-74931757D01*
X165291673Y-74880237D01*
X165357857Y-74873719D01*
X165424040Y-74867200D01*
X165512560Y-74867200D01*
X165578743Y-74873719D01*
X165578743Y-74873719D01*
G37*
G36*
X152878743Y-74873719D02*
G01*
X152944927Y-74880237D01*
X153114766Y-74931757D01*
X153271291Y-75015422D01*
X153307029Y-75044752D01*
X153408486Y-75128014D01*
X153491748Y-75229471D01*
X153521078Y-75265209D01*
X153604743Y-75421734D01*
X153656263Y-75591573D01*
X153673659Y-75768200D01*
X153656263Y-75944827D01*
X153604743Y-76114666D01*
X153521078Y-76271191D01*
X153491748Y-76306929D01*
X153408486Y-76408386D01*
X153334486Y-76469115D01*
X153271291Y-76520978D01*
X153271289Y-76520979D01*
X153123698Y-76599869D01*
X153114766Y-76604643D01*
X152944927Y-76656163D01*
X152878742Y-76662682D01*
X152812560Y-76669200D01*
X152724040Y-76669200D01*
X152657858Y-76662682D01*
X152591673Y-76656163D01*
X152421834Y-76604643D01*
X152412903Y-76599869D01*
X152265311Y-76520979D01*
X152265309Y-76520978D01*
X152202114Y-76469115D01*
X152128114Y-76408386D01*
X152044852Y-76306929D01*
X152015522Y-76271191D01*
X151931857Y-76114666D01*
X151880337Y-75944827D01*
X151862941Y-75768200D01*
X151880337Y-75591573D01*
X151931857Y-75421734D01*
X152015522Y-75265209D01*
X152044852Y-75229471D01*
X152128114Y-75128014D01*
X152229571Y-75044752D01*
X152265309Y-75015422D01*
X152421834Y-74931757D01*
X152591673Y-74880237D01*
X152657857Y-74873719D01*
X152724040Y-74867200D01*
X152812560Y-74867200D01*
X152878743Y-74873719D01*
X152878743Y-74873719D01*
G37*
M02*
