G04 #@! TF.GenerationSoftware,KiCad,Pcbnew,(5.1.4)-1*
G04 #@! TF.CreationDate,2020-01-31T22:29:49-05:00*
G04 #@! TF.ProjectId,Feather-NEO-M9N-GPS,46656174-6865-4722-9d4e-454f2d4d394e,rev?*
G04 #@! TF.SameCoordinates,Original*
G04 #@! TF.FileFunction,Legend,Bot*
G04 #@! TF.FilePolarity,Positive*
%FSLAX46Y46*%
G04 Gerber Fmt 4.6, Leading zero omitted, Abs format (unit mm)*
G04 Created by KiCad (PCBNEW (5.1.4)-1) date 2020-01-31 22:29:49*
%MOMM*%
%LPD*%
G04 APERTURE LIST*
%ADD10C,0.150000*%
%ADD11C,0.120000*%
%ADD12C,0.203200*%
G04 APERTURE END LIST*
D10*
X165798476Y-79654660D02*
X165608000Y-79654660D01*
X165512761Y-79607041D01*
X165465142Y-79559422D01*
X165369904Y-79416565D01*
X165322285Y-79226089D01*
X165322285Y-78845137D01*
X165369904Y-78749899D01*
X165417523Y-78702280D01*
X165512761Y-78654660D01*
X165703238Y-78654660D01*
X165798476Y-78702280D01*
X165846095Y-78749899D01*
X165893714Y-78845137D01*
X165893714Y-79083232D01*
X165846095Y-79178470D01*
X165798476Y-79226089D01*
X165703238Y-79273708D01*
X165512761Y-79273708D01*
X165417523Y-79226089D01*
X165369904Y-79178470D01*
X165322285Y-79083232D01*
X140538176Y-83116680D02*
X141109604Y-83116680D01*
X140823890Y-83116680D02*
X140823890Y-82116680D01*
X140919128Y-82259538D01*
X141014366Y-82354776D01*
X141109604Y-82402395D01*
X139919128Y-82116680D02*
X139823890Y-82116680D01*
X139728652Y-82164300D01*
X139681033Y-82211919D01*
X139633414Y-82307157D01*
X139585795Y-82497633D01*
X139585795Y-82735728D01*
X139633414Y-82926204D01*
X139681033Y-83021442D01*
X139728652Y-83069061D01*
X139823890Y-83116680D01*
X139919128Y-83116680D01*
X140014366Y-83069061D01*
X140061985Y-83021442D01*
X140109604Y-82926204D01*
X140157223Y-82735728D01*
X140157223Y-82497633D01*
X140109604Y-82307157D01*
X140061985Y-82211919D01*
X140014366Y-82164300D01*
X139919128Y-82116680D01*
X140791036Y-89658180D02*
X141124369Y-89181990D01*
X141362464Y-89658180D02*
X141362464Y-88658180D01*
X140981512Y-88658180D01*
X140886274Y-88705800D01*
X140838655Y-88753419D01*
X140791036Y-88848657D01*
X140791036Y-88991514D01*
X140838655Y-89086752D01*
X140886274Y-89134371D01*
X140981512Y-89181990D01*
X141362464Y-89181990D01*
X139981512Y-89610561D02*
X140076750Y-89658180D01*
X140267226Y-89658180D01*
X140362464Y-89610561D01*
X140410083Y-89515323D01*
X140410083Y-89134371D01*
X140362464Y-89039133D01*
X140267226Y-88991514D01*
X140076750Y-88991514D01*
X139981512Y-89039133D01*
X139933893Y-89134371D01*
X139933893Y-89229609D01*
X140410083Y-89324847D01*
X139600560Y-88991514D02*
X139362464Y-89658180D01*
X139124369Y-88991514D01*
X138791036Y-88753419D02*
X138743417Y-88705800D01*
X138648179Y-88658180D01*
X138410083Y-88658180D01*
X138314845Y-88705800D01*
X138267226Y-88753419D01*
X138219607Y-88848657D01*
X138219607Y-88943895D01*
X138267226Y-89086752D01*
X138838655Y-89658180D01*
X138219607Y-89658180D01*
X137791036Y-89562942D02*
X137743417Y-89610561D01*
X137791036Y-89658180D01*
X137838655Y-89610561D01*
X137791036Y-89562942D01*
X137791036Y-89658180D01*
X137362464Y-88753419D02*
X137314845Y-88705800D01*
X137219607Y-88658180D01*
X136981512Y-88658180D01*
X136886274Y-88705800D01*
X136838655Y-88753419D01*
X136791036Y-88848657D01*
X136791036Y-88943895D01*
X136838655Y-89086752D01*
X137410083Y-89658180D01*
X136791036Y-89658180D01*
X140410083Y-91022466D02*
X139933893Y-91022466D01*
X140505321Y-91308180D02*
X140171988Y-90308180D01*
X139838655Y-91308180D01*
X139171988Y-90784371D02*
X139029131Y-90831990D01*
X138981512Y-90879609D01*
X138933893Y-90974847D01*
X138933893Y-91117704D01*
X138981512Y-91212942D01*
X139029131Y-91260561D01*
X139124369Y-91308180D01*
X139505321Y-91308180D01*
X139505321Y-90308180D01*
X139171988Y-90308180D01*
X139076750Y-90355800D01*
X139029131Y-90403419D01*
X138981512Y-90498657D01*
X138981512Y-90593895D01*
X139029131Y-90689133D01*
X139076750Y-90736752D01*
X139171988Y-90784371D01*
X139505321Y-90784371D01*
X138600560Y-90308180D02*
X138362464Y-91308180D01*
X138171988Y-90593895D01*
X137981512Y-91308180D01*
X137743417Y-90308180D01*
X141767226Y-92958180D02*
X142338655Y-92958180D01*
X142052940Y-92958180D02*
X142052940Y-91958180D01*
X142148179Y-92101038D01*
X142243417Y-92196276D01*
X142338655Y-92243895D01*
X140624369Y-91910561D02*
X141481512Y-93196276D01*
X140386274Y-91958180D02*
X139767226Y-91958180D01*
X140100560Y-92339133D01*
X139957702Y-92339133D01*
X139862464Y-92386752D01*
X139814845Y-92434371D01*
X139767226Y-92529609D01*
X139767226Y-92767704D01*
X139814845Y-92862942D01*
X139862464Y-92910561D01*
X139957702Y-92958180D01*
X140243417Y-92958180D01*
X140338655Y-92910561D01*
X140386274Y-92862942D01*
X138814845Y-92958180D02*
X139386274Y-92958180D01*
X139100560Y-92958180D02*
X139100560Y-91958180D01*
X139195798Y-92101038D01*
X139291036Y-92196276D01*
X139386274Y-92243895D01*
X137671988Y-91910561D02*
X138529131Y-93196276D01*
X137386274Y-92053419D02*
X137338655Y-92005800D01*
X137243417Y-91958180D01*
X137005321Y-91958180D01*
X136910083Y-92005800D01*
X136862464Y-92053419D01*
X136814845Y-92148657D01*
X136814845Y-92243895D01*
X136862464Y-92386752D01*
X137433893Y-92958180D01*
X136814845Y-92958180D01*
X136195798Y-91958180D02*
X136100560Y-91958180D01*
X136005321Y-92005800D01*
X135957702Y-92053419D01*
X135910083Y-92148657D01*
X135862464Y-92339133D01*
X135862464Y-92577228D01*
X135910083Y-92767704D01*
X135957702Y-92862942D01*
X136005321Y-92910561D01*
X136100560Y-92958180D01*
X136195798Y-92958180D01*
X136291036Y-92910561D01*
X136338655Y-92862942D01*
X136386274Y-92767704D01*
X136433893Y-92577228D01*
X136433893Y-92339133D01*
X136386274Y-92148657D01*
X136338655Y-92053419D01*
X136291036Y-92005800D01*
X136195798Y-91958180D01*
X160843433Y-80279314D02*
X160843433Y-80945980D01*
X161272004Y-80279314D02*
X161272004Y-80803123D01*
X161224385Y-80898361D01*
X161129147Y-80945980D01*
X160986290Y-80945980D01*
X160891052Y-80898361D01*
X160843433Y-80850742D01*
X160367242Y-80565028D02*
X159605338Y-80565028D01*
X159129147Y-80945980D02*
X159129147Y-79945980D01*
X159129147Y-80326933D02*
X159033909Y-80279314D01*
X158843433Y-80279314D01*
X158748195Y-80326933D01*
X158700576Y-80374552D01*
X158652957Y-80469790D01*
X158652957Y-80755504D01*
X158700576Y-80850742D01*
X158748195Y-80898361D01*
X158843433Y-80945980D01*
X159033909Y-80945980D01*
X159129147Y-80898361D01*
X158081528Y-80945980D02*
X158176766Y-80898361D01*
X158224385Y-80803123D01*
X158224385Y-79945980D01*
X157557719Y-80945980D02*
X157652957Y-80898361D01*
X157700576Y-80850742D01*
X157748195Y-80755504D01*
X157748195Y-80469790D01*
X157700576Y-80374552D01*
X157652957Y-80326933D01*
X157557719Y-80279314D01*
X157414861Y-80279314D01*
X157319623Y-80326933D01*
X157272004Y-80374552D01*
X157224385Y-80469790D01*
X157224385Y-80755504D01*
X157272004Y-80850742D01*
X157319623Y-80898361D01*
X157414861Y-80945980D01*
X157557719Y-80945980D01*
X156891052Y-80945980D02*
X156367242Y-80279314D01*
X156891052Y-80279314D02*
X156367242Y-80945980D01*
X154700576Y-79993600D02*
X154795814Y-79945980D01*
X154938671Y-79945980D01*
X155081528Y-79993600D01*
X155176766Y-80088838D01*
X155224385Y-80184076D01*
X155272004Y-80374552D01*
X155272004Y-80517409D01*
X155224385Y-80707885D01*
X155176766Y-80803123D01*
X155081528Y-80898361D01*
X154938671Y-80945980D01*
X154843433Y-80945980D01*
X154700576Y-80898361D01*
X154652957Y-80850742D01*
X154652957Y-80517409D01*
X154843433Y-80517409D01*
X154224385Y-80945980D02*
X154224385Y-79945980D01*
X153843433Y-79945980D01*
X153748195Y-79993600D01*
X153700576Y-80041219D01*
X153652957Y-80136457D01*
X153652957Y-80279314D01*
X153700576Y-80374552D01*
X153748195Y-80422171D01*
X153843433Y-80469790D01*
X154224385Y-80469790D01*
X153272004Y-80898361D02*
X153129147Y-80945980D01*
X152891052Y-80945980D01*
X152795814Y-80898361D01*
X152748195Y-80850742D01*
X152700576Y-80755504D01*
X152700576Y-80660266D01*
X152748195Y-80565028D01*
X152795814Y-80517409D01*
X152891052Y-80469790D01*
X153081528Y-80422171D01*
X153176766Y-80374552D01*
X153224385Y-80326933D01*
X153272004Y-80231695D01*
X153272004Y-80136457D01*
X153224385Y-80041219D01*
X153176766Y-79993600D01*
X153081528Y-79945980D01*
X152843433Y-79945980D01*
X152700576Y-79993600D01*
X160462480Y-82595980D02*
X160462480Y-81595980D01*
X159891052Y-82595980D01*
X159891052Y-81595980D01*
X159414861Y-82072171D02*
X159081528Y-82072171D01*
X158938671Y-82595980D02*
X159414861Y-82595980D01*
X159414861Y-81595980D01*
X158938671Y-81595980D01*
X158319623Y-81595980D02*
X158129147Y-81595980D01*
X158033909Y-81643600D01*
X157938671Y-81738838D01*
X157891052Y-81929314D01*
X157891052Y-82262647D01*
X157938671Y-82453123D01*
X158033909Y-82548361D01*
X158129147Y-82595980D01*
X158319623Y-82595980D01*
X158414861Y-82548361D01*
X158510100Y-82453123D01*
X158557719Y-82262647D01*
X158557719Y-81929314D01*
X158510100Y-81738838D01*
X158414861Y-81643600D01*
X158319623Y-81595980D01*
X157462480Y-82215028D02*
X156700576Y-82215028D01*
X156224385Y-82595980D02*
X156224385Y-81595980D01*
X155891052Y-82310266D01*
X155557719Y-81595980D01*
X155557719Y-82595980D01*
X155033909Y-82595980D02*
X154843433Y-82595980D01*
X154748195Y-82548361D01*
X154700576Y-82500742D01*
X154605338Y-82357885D01*
X154557719Y-82167409D01*
X154557719Y-81786457D01*
X154605338Y-81691219D01*
X154652957Y-81643600D01*
X154748195Y-81595980D01*
X154938671Y-81595980D01*
X155033909Y-81643600D01*
X155081528Y-81691219D01*
X155129147Y-81786457D01*
X155129147Y-82024552D01*
X155081528Y-82119790D01*
X155033909Y-82167409D01*
X154938671Y-82215028D01*
X154748195Y-82215028D01*
X154652957Y-82167409D01*
X154605338Y-82119790D01*
X154557719Y-82024552D01*
X154129147Y-82595980D02*
X154129147Y-81595980D01*
X153557719Y-82595980D01*
X153557719Y-81595980D01*
X160891052Y-83722171D02*
X161224385Y-83722171D01*
X161224385Y-84245980D02*
X161224385Y-83245980D01*
X160748195Y-83245980D01*
X159986290Y-84198361D02*
X160081528Y-84245980D01*
X160272004Y-84245980D01*
X160367242Y-84198361D01*
X160414861Y-84103123D01*
X160414861Y-83722171D01*
X160367242Y-83626933D01*
X160272004Y-83579314D01*
X160081528Y-83579314D01*
X159986290Y-83626933D01*
X159938671Y-83722171D01*
X159938671Y-83817409D01*
X160414861Y-83912647D01*
X159081528Y-84245980D02*
X159081528Y-83722171D01*
X159129147Y-83626933D01*
X159224385Y-83579314D01*
X159414861Y-83579314D01*
X159510100Y-83626933D01*
X159081528Y-84198361D02*
X159176766Y-84245980D01*
X159414861Y-84245980D01*
X159510100Y-84198361D01*
X159557719Y-84103123D01*
X159557719Y-84007885D01*
X159510100Y-83912647D01*
X159414861Y-83865028D01*
X159176766Y-83865028D01*
X159081528Y-83817409D01*
X158748195Y-83579314D02*
X158367242Y-83579314D01*
X158605338Y-83245980D02*
X158605338Y-84103123D01*
X158557719Y-84198361D01*
X158462480Y-84245980D01*
X158367242Y-84245980D01*
X158033909Y-84245980D02*
X158033909Y-83245980D01*
X157605338Y-84245980D02*
X157605338Y-83722171D01*
X157652957Y-83626933D01*
X157748195Y-83579314D01*
X157891052Y-83579314D01*
X157986290Y-83626933D01*
X158033909Y-83674552D01*
X156748195Y-84198361D02*
X156843433Y-84245980D01*
X157033909Y-84245980D01*
X157129147Y-84198361D01*
X157176766Y-84103123D01*
X157176766Y-83722171D01*
X157129147Y-83626933D01*
X157033909Y-83579314D01*
X156843433Y-83579314D01*
X156748195Y-83626933D01*
X156700576Y-83722171D01*
X156700576Y-83817409D01*
X157176766Y-83912647D01*
X156272004Y-84245980D02*
X156272004Y-83579314D01*
X156272004Y-83769790D02*
X156224385Y-83674552D01*
X156176766Y-83626933D01*
X156081528Y-83579314D01*
X155986290Y-83579314D01*
X155748195Y-83579314D02*
X155557719Y-84245980D01*
X155367242Y-83769790D01*
X155176766Y-84245980D01*
X154986290Y-83579314D01*
X154605338Y-84245980D02*
X154605338Y-83579314D01*
X154605338Y-83245980D02*
X154652957Y-83293600D01*
X154605338Y-83341219D01*
X154557719Y-83293600D01*
X154605338Y-83245980D01*
X154605338Y-83341219D01*
X154129147Y-83579314D02*
X154129147Y-84245980D01*
X154129147Y-83674552D02*
X154081528Y-83626933D01*
X153986290Y-83579314D01*
X153843433Y-83579314D01*
X153748195Y-83626933D01*
X153700576Y-83722171D01*
X153700576Y-84245980D01*
X152795814Y-83579314D02*
X152795814Y-84388838D01*
X152843433Y-84484076D01*
X152891052Y-84531695D01*
X152986290Y-84579314D01*
X153129147Y-84579314D01*
X153224385Y-84531695D01*
X152795814Y-84198361D02*
X152891052Y-84245980D01*
X153081528Y-84245980D01*
X153176766Y-84198361D01*
X153224385Y-84150742D01*
X153272004Y-84055504D01*
X153272004Y-83769790D01*
X153224385Y-83674552D01*
X153176766Y-83626933D01*
X153081528Y-83579314D01*
X152891052Y-83579314D01*
X152795814Y-83626933D01*
X172290881Y-77186540D02*
X172195643Y-77186540D01*
X172100405Y-77234160D01*
X172052786Y-77281779D01*
X172005167Y-77377017D01*
X171957548Y-77567493D01*
X171957548Y-77805588D01*
X172005167Y-77996064D01*
X172052786Y-78091302D01*
X172100405Y-78138921D01*
X172195643Y-78186540D01*
X172290881Y-78186540D01*
X172386120Y-78138921D01*
X172433739Y-78091302D01*
X172481358Y-77996064D01*
X172528977Y-77805588D01*
X172528977Y-77567493D01*
X172481358Y-77377017D01*
X172433739Y-77281779D01*
X172386120Y-77234160D01*
X172290881Y-77186540D01*
X171624215Y-78186540D02*
X171100405Y-77519874D01*
X171624215Y-77519874D02*
X171100405Y-78186540D01*
X170290881Y-77519874D02*
X170290881Y-78186540D01*
X170528977Y-77138921D02*
X170767072Y-77853207D01*
X170148024Y-77853207D01*
X169814691Y-77281779D02*
X169767072Y-77234160D01*
X169671834Y-77186540D01*
X169433739Y-77186540D01*
X169338500Y-77234160D01*
X169290881Y-77281779D01*
X169243262Y-77377017D01*
X169243262Y-77472255D01*
X169290881Y-77615112D01*
X169862310Y-78186540D01*
X169243262Y-78186540D01*
X174416838Y-99477580D02*
X174416838Y-100287104D01*
X174369219Y-100382342D01*
X174321600Y-100429961D01*
X174226361Y-100477580D01*
X174035885Y-100477580D01*
X173940647Y-100429961D01*
X173893028Y-100382342D01*
X173845409Y-100287104D01*
X173845409Y-99477580D01*
X173416838Y-100191866D02*
X172940647Y-100191866D01*
X173512076Y-100477580D02*
X173178742Y-99477580D01*
X172845409Y-100477580D01*
X171940647Y-100477580D02*
X172273980Y-100001390D01*
X172512076Y-100477580D02*
X172512076Y-99477580D01*
X172131123Y-99477580D01*
X172035885Y-99525200D01*
X171988266Y-99572819D01*
X171940647Y-99668057D01*
X171940647Y-99810914D01*
X171988266Y-99906152D01*
X172035885Y-99953771D01*
X172131123Y-100001390D01*
X172512076Y-100001390D01*
X171654933Y-99477580D02*
X171083504Y-99477580D01*
X171369219Y-100477580D02*
X171369219Y-99477580D01*
X140309576Y-80856080D02*
X140881004Y-80856080D01*
X140595290Y-80856080D02*
X140595290Y-79856080D01*
X140690528Y-79998938D01*
X140785766Y-80094176D01*
X140881004Y-80141795D01*
X139357195Y-80856080D02*
X139928623Y-80856080D01*
X139642909Y-80856080D02*
X139642909Y-79856080D01*
X139738147Y-79998938D01*
X139833385Y-80094176D01*
X139928623Y-80141795D01*
X140411176Y-78722480D02*
X140982604Y-78722480D01*
X140696890Y-78722480D02*
X140696890Y-77722480D01*
X140792128Y-77865338D01*
X140887366Y-77960576D01*
X140982604Y-78008195D01*
X140030223Y-77817719D02*
X139982604Y-77770100D01*
X139887366Y-77722480D01*
X139649271Y-77722480D01*
X139554033Y-77770100D01*
X139506414Y-77817719D01*
X139458795Y-77912957D01*
X139458795Y-78008195D01*
X139506414Y-78151052D01*
X140077842Y-78722480D01*
X139458795Y-78722480D01*
X140207976Y-76525380D02*
X140779404Y-76525380D01*
X140493690Y-76525380D02*
X140493690Y-75525380D01*
X140588928Y-75668238D01*
X140684166Y-75763476D01*
X140779404Y-75811095D01*
X139874642Y-75525380D02*
X139255595Y-75525380D01*
X139588928Y-75906333D01*
X139446071Y-75906333D01*
X139350833Y-75953952D01*
X139303214Y-76001571D01*
X139255595Y-76096809D01*
X139255595Y-76334904D01*
X139303214Y-76430142D01*
X139350833Y-76477761D01*
X139446071Y-76525380D01*
X139731785Y-76525380D01*
X139827023Y-76477761D01*
X139874642Y-76430142D01*
D11*
X164260300Y-87982300D02*
X165660300Y-87982300D01*
X166360300Y-87282300D02*
X166360300Y-86682300D01*
X165660300Y-85982300D02*
X164260300Y-85982300D01*
X163560300Y-86682300D02*
X163560300Y-87282300D01*
X163560300Y-87282300D02*
G75*
G03X164260300Y-87982300I700000J0D01*
G01*
X164260300Y-85982300D02*
G75*
G03X163560300Y-86682300I0J-700000D01*
G01*
X166360300Y-86682300D02*
G75*
G03X165660300Y-85982300I-700000J0D01*
G01*
X165660300Y-87982300D02*
G75*
G03X166360300Y-87282300I0J700000D01*
G01*
X163122100Y-77887600D02*
X163122100Y-79287600D01*
X163822100Y-79987600D02*
X164422100Y-79987600D01*
X165122100Y-79287600D02*
X165122100Y-77887600D01*
X164422100Y-77187600D02*
X163822100Y-77187600D01*
X163822100Y-77187600D02*
G75*
G03X163122100Y-77887600I0J-700000D01*
G01*
X165122100Y-77887600D02*
G75*
G03X164422100Y-77187600I-700000J0D01*
G01*
X164422100Y-79987600D02*
G75*
G03X165122100Y-79287600I0J700000D01*
G01*
X163122100Y-79287600D02*
G75*
G03X163822100Y-79987600I700000J0D01*
G01*
X142395700Y-78878200D02*
X142395700Y-80278200D01*
X143095700Y-80978200D02*
X143695700Y-80978200D01*
X144395700Y-80278200D02*
X144395700Y-78878200D01*
X143695700Y-78178200D02*
X143095700Y-78178200D01*
X143095700Y-78178200D02*
G75*
G03X142395700Y-78878200I0J-700000D01*
G01*
X144395700Y-78878200D02*
G75*
G03X143695700Y-78178200I-700000J0D01*
G01*
X143695700Y-80978200D02*
G75*
G03X144395700Y-80278200I0J700000D01*
G01*
X142395700Y-80278200D02*
G75*
G03X143095700Y-80978200I700000J0D01*
G01*
X168633900Y-88720700D02*
X168633900Y-90120700D01*
X169333900Y-90820700D02*
X169933900Y-90820700D01*
X170633900Y-90120700D02*
X170633900Y-88720700D01*
X169933900Y-88020700D02*
X169333900Y-88020700D01*
X169333900Y-88020700D02*
G75*
G03X168633900Y-88720700I0J-700000D01*
G01*
X170633900Y-88720700D02*
G75*
G03X169933900Y-88020700I-700000J0D01*
G01*
X169933900Y-90820700D02*
G75*
G03X170633900Y-90120700I0J700000D01*
G01*
X168633900Y-90120700D02*
G75*
G03X169333900Y-90820700I700000J0D01*
G01*
X168373300Y-90120700D02*
X168373300Y-88720700D01*
X167673300Y-88020700D02*
X167073300Y-88020700D01*
X166373300Y-88720700D02*
X166373300Y-90120700D01*
X167073300Y-90820700D02*
X167673300Y-90820700D01*
X167673300Y-90820700D02*
G75*
G03X168373300Y-90120700I0J700000D01*
G01*
X166373300Y-90120700D02*
G75*
G03X167073300Y-90820700I700000J0D01*
G01*
X167073300Y-88020700D02*
G75*
G03X166373300Y-88720700I0J-700000D01*
G01*
X168373300Y-88720700D02*
G75*
G03X167673300Y-88020700I-700000J0D01*
G01*
X137082300Y-83626200D02*
X138482300Y-83626200D01*
X139182300Y-82926200D02*
X139182300Y-82326200D01*
X138482300Y-81626200D02*
X137082300Y-81626200D01*
X136382300Y-82326200D02*
X136382300Y-82926200D01*
X136382300Y-82926200D02*
G75*
G03X137082300Y-83626200I700000J0D01*
G01*
X137082300Y-81626200D02*
G75*
G03X136382300Y-82326200I0J-700000D01*
G01*
X139182300Y-82326200D02*
G75*
G03X138482300Y-81626200I-700000J0D01*
G01*
X138482300Y-83626200D02*
G75*
G03X139182300Y-82926200I0J700000D01*
G01*
D12*
X166852600Y-77571600D02*
X166852600Y-80111600D01*
X168427400Y-77114400D02*
X167309800Y-77114400D01*
X168427400Y-80568800D02*
X167309800Y-80568800D01*
X168427400Y-80568800D02*
G75*
G03X168884600Y-80111600I0J457200D01*
G01*
X168884600Y-77571600D02*
G75*
G03X168427400Y-77114400I-457200J0D01*
G01*
X166852600Y-77571600D02*
G75*
G02X167309800Y-77114400I457200J0D01*
G01*
X167309800Y-80568800D02*
G75*
G02X166852600Y-80111600I0J457200D01*
G01*
X168884600Y-80111600D02*
X168884600Y-77571600D01*
D11*
X137016500Y-81454500D02*
X138416500Y-81454500D01*
X139116500Y-80754500D02*
X139116500Y-80154500D01*
X138416500Y-79454500D02*
X137016500Y-79454500D01*
X136316500Y-80154500D02*
X136316500Y-80754500D01*
X136316500Y-80754500D02*
G75*
G03X137016500Y-81454500I700000J0D01*
G01*
X137016500Y-79454500D02*
G75*
G03X136316500Y-80154500I0J-700000D01*
G01*
X139116500Y-80154500D02*
G75*
G03X138416500Y-79454500I-700000J0D01*
G01*
X138416500Y-81454500D02*
G75*
G03X139116500Y-80754500I0J700000D01*
G01*
X137145800Y-79320900D02*
X138545800Y-79320900D01*
X139245800Y-78620900D02*
X139245800Y-78020900D01*
X138545800Y-77320900D02*
X137145800Y-77320900D01*
X136445800Y-78020900D02*
X136445800Y-78620900D01*
X136445800Y-78620900D02*
G75*
G03X137145800Y-79320900I700000J0D01*
G01*
X137145800Y-77320900D02*
G75*
G03X136445800Y-78020900I0J-700000D01*
G01*
X139245800Y-78020900D02*
G75*
G03X138545800Y-77320900I-700000J0D01*
G01*
X138545800Y-79320900D02*
G75*
G03X139245800Y-78620900I0J700000D01*
G01*
X136980700Y-77085700D02*
X138380700Y-77085700D01*
X139080700Y-76385700D02*
X139080700Y-75785700D01*
X138380700Y-75085700D02*
X136980700Y-75085700D01*
X136280700Y-75785700D02*
X136280700Y-76385700D01*
X136280700Y-76385700D02*
G75*
G03X136980700Y-77085700I700000J0D01*
G01*
X136980700Y-75085700D02*
G75*
G03X136280700Y-75785700I0J-700000D01*
G01*
X139080700Y-75785700D02*
G75*
G03X138380700Y-75085700I-700000J0D01*
G01*
X138380700Y-77085700D02*
G75*
G03X139080700Y-76385700I0J700000D01*
G01*
X168835580Y-93994200D02*
X168835580Y-92594200D01*
X168135580Y-91894200D02*
X167535580Y-91894200D01*
X166835580Y-92594200D02*
X166835580Y-93994200D01*
X167535580Y-94694200D02*
X168135580Y-94694200D01*
X168135580Y-94694200D02*
G75*
G03X168835580Y-93994200I0J700000D01*
G01*
X166835580Y-93994200D02*
G75*
G03X167535580Y-94694200I700000J0D01*
G01*
X167535580Y-91894200D02*
G75*
G03X166835580Y-92594200I0J-700000D01*
G01*
X168835580Y-92594200D02*
G75*
G03X168135580Y-91894200I-700000J0D01*
G01*
X169055540Y-92599280D02*
X169055540Y-93999280D01*
X169755540Y-94699280D02*
X170355540Y-94699280D01*
X171055540Y-93999280D02*
X171055540Y-92599280D01*
X170355540Y-91899280D02*
X169755540Y-91899280D01*
X169755540Y-91899280D02*
G75*
G03X169055540Y-92599280I0J-700000D01*
G01*
X171055540Y-92599280D02*
G75*
G03X170355540Y-91899280I-700000J0D01*
G01*
X170355540Y-94699280D02*
G75*
G03X171055540Y-93999280I0J700000D01*
G01*
X169055540Y-93999280D02*
G75*
G03X169755540Y-94699280I700000J0D01*
G01*
X174746160Y-81522800D02*
X174746160Y-80122800D01*
X174046160Y-79422800D02*
X173446160Y-79422800D01*
X172746160Y-80122800D02*
X172746160Y-81522800D01*
X173446160Y-82222800D02*
X174046160Y-82222800D01*
X174046160Y-82222800D02*
G75*
G03X174746160Y-81522800I0J700000D01*
G01*
X172746160Y-81522800D02*
G75*
G03X173446160Y-82222800I700000J0D01*
G01*
X173446160Y-79422800D02*
G75*
G03X172746160Y-80122800I0J-700000D01*
G01*
X174746160Y-80122800D02*
G75*
G03X174046160Y-79422800I-700000J0D01*
G01*
X176895000Y-81522800D02*
X176895000Y-80122800D01*
X176195000Y-79422800D02*
X175595000Y-79422800D01*
X174895000Y-80122800D02*
X174895000Y-81522800D01*
X175595000Y-82222800D02*
X176195000Y-82222800D01*
X176195000Y-82222800D02*
G75*
G03X176895000Y-81522800I0J700000D01*
G01*
X174895000Y-81522800D02*
G75*
G03X175595000Y-82222800I700000J0D01*
G01*
X175595000Y-79422800D02*
G75*
G03X174895000Y-80122800I0J-700000D01*
G01*
X176895000Y-80122800D02*
G75*
G03X176195000Y-79422800I-700000J0D01*
G01*
D10*
X163375814Y-87387061D02*
X163232957Y-87434680D01*
X162994861Y-87434680D01*
X162899623Y-87387061D01*
X162852004Y-87339442D01*
X162804385Y-87244204D01*
X162804385Y-87148966D01*
X162852004Y-87053728D01*
X162899623Y-87006109D01*
X162994861Y-86958490D01*
X163185338Y-86910871D01*
X163280576Y-86863252D01*
X163328195Y-86815633D01*
X163375814Y-86720395D01*
X163375814Y-86625157D01*
X163328195Y-86529919D01*
X163280576Y-86482300D01*
X163185338Y-86434680D01*
X162947242Y-86434680D01*
X162804385Y-86482300D01*
X161804385Y-87339442D02*
X161852004Y-87387061D01*
X161994861Y-87434680D01*
X162090100Y-87434680D01*
X162232957Y-87387061D01*
X162328195Y-87291823D01*
X162375814Y-87196585D01*
X162423433Y-87006109D01*
X162423433Y-86863252D01*
X162375814Y-86672776D01*
X162328195Y-86577538D01*
X162232957Y-86482300D01*
X162090100Y-86434680D01*
X161994861Y-86434680D01*
X161852004Y-86482300D01*
X161804385Y-86529919D01*
X161375814Y-87434680D02*
X161375814Y-86434680D01*
X160804385Y-87434680D02*
X161232957Y-86863252D01*
X160804385Y-86434680D02*
X161375814Y-87006109D01*
X162367790Y-77710700D02*
X161367790Y-77710700D01*
X161558266Y-78982842D02*
X161605885Y-79030461D01*
X161748742Y-79078080D01*
X161843980Y-79078080D01*
X161986838Y-79030461D01*
X162082076Y-78935223D01*
X162129695Y-78839985D01*
X162177314Y-78649509D01*
X162177314Y-78506652D01*
X162129695Y-78316176D01*
X162082076Y-78220938D01*
X161986838Y-78125700D01*
X161843980Y-78078080D01*
X161748742Y-78078080D01*
X161605885Y-78125700D01*
X161558266Y-78173319D01*
X161367790Y-77710700D02*
X160415409Y-77710700D01*
X161177314Y-79030461D02*
X161034457Y-79078080D01*
X160796361Y-79078080D01*
X160701123Y-79030461D01*
X160653504Y-78982842D01*
X160605885Y-78887604D01*
X160605885Y-78792366D01*
X160653504Y-78697128D01*
X160701123Y-78649509D01*
X160796361Y-78601890D01*
X160986838Y-78554271D01*
X161082076Y-78506652D01*
X161129695Y-78459033D01*
X161177314Y-78363795D01*
X161177314Y-78268557D01*
X161129695Y-78173319D01*
X161082076Y-78125700D01*
X160986838Y-78078080D01*
X160748742Y-78078080D01*
X160605885Y-78125700D01*
X146606449Y-80165841D02*
X146463592Y-80213460D01*
X146225497Y-80213460D01*
X146130259Y-80165841D01*
X146082640Y-80118222D01*
X146035020Y-80022984D01*
X146035020Y-79927746D01*
X146082640Y-79832508D01*
X146130259Y-79784889D01*
X146225497Y-79737270D01*
X146415973Y-79689651D01*
X146511211Y-79642032D01*
X146558830Y-79594413D01*
X146606449Y-79499175D01*
X146606449Y-79403937D01*
X146558830Y-79308699D01*
X146511211Y-79261080D01*
X146415973Y-79213460D01*
X146177878Y-79213460D01*
X146035020Y-79261080D01*
X145606449Y-80213460D02*
X145606449Y-79213460D01*
X145225497Y-79213460D01*
X145130259Y-79261080D01*
X145082640Y-79308699D01*
X145035020Y-79403937D01*
X145035020Y-79546794D01*
X145082640Y-79642032D01*
X145130259Y-79689651D01*
X145225497Y-79737270D01*
X145606449Y-79737270D01*
X144606449Y-80213460D02*
X144606449Y-79213460D01*
X174189828Y-89631780D02*
X174189828Y-88631780D01*
X173856495Y-89346066D01*
X173523161Y-88631780D01*
X173523161Y-89631780D01*
X172856495Y-88631780D02*
X172666019Y-88631780D01*
X172570780Y-88679400D01*
X172475542Y-88774638D01*
X172427923Y-88965114D01*
X172427923Y-89298447D01*
X172475542Y-89488923D01*
X172570780Y-89584161D01*
X172666019Y-89631780D01*
X172856495Y-89631780D01*
X172951733Y-89584161D01*
X173046971Y-89488923D01*
X173094590Y-89298447D01*
X173094590Y-88965114D01*
X173046971Y-88774638D01*
X172951733Y-88679400D01*
X172856495Y-88631780D01*
X172046971Y-89584161D02*
X171904114Y-89631780D01*
X171666019Y-89631780D01*
X171570780Y-89584161D01*
X171523161Y-89536542D01*
X171475542Y-89441304D01*
X171475542Y-89346066D01*
X171523161Y-89250828D01*
X171570780Y-89203209D01*
X171666019Y-89155590D01*
X171856495Y-89107971D01*
X171951733Y-89060352D01*
X171999352Y-89012733D01*
X172046971Y-88917495D01*
X172046971Y-88822257D01*
X171999352Y-88727019D01*
X171951733Y-88679400D01*
X171856495Y-88631780D01*
X171618400Y-88631780D01*
X171475542Y-88679400D01*
X171046971Y-89631780D02*
X171046971Y-88631780D01*
X166011028Y-89949280D02*
X166011028Y-88949280D01*
X165677695Y-89663566D01*
X165344361Y-88949280D01*
X165344361Y-89949280D01*
X164868171Y-89949280D02*
X164868171Y-88949280D01*
X164439600Y-89901661D02*
X164296742Y-89949280D01*
X164058647Y-89949280D01*
X163963409Y-89901661D01*
X163915790Y-89854042D01*
X163868171Y-89758804D01*
X163868171Y-89663566D01*
X163915790Y-89568328D01*
X163963409Y-89520709D01*
X164058647Y-89473090D01*
X164249123Y-89425471D01*
X164344361Y-89377852D01*
X164391980Y-89330233D01*
X164439600Y-89234995D01*
X164439600Y-89139757D01*
X164391980Y-89044519D01*
X164344361Y-88996900D01*
X164249123Y-88949280D01*
X164011028Y-88949280D01*
X163868171Y-88996900D01*
X163249123Y-88949280D02*
X163058647Y-88949280D01*
X162963409Y-88996900D01*
X162868171Y-89092138D01*
X162820552Y-89282614D01*
X162820552Y-89615947D01*
X162868171Y-89806423D01*
X162963409Y-89901661D01*
X163058647Y-89949280D01*
X163249123Y-89949280D01*
X163344361Y-89901661D01*
X163439600Y-89806423D01*
X163487219Y-89615947D01*
X163487219Y-89282614D01*
X163439600Y-89092138D01*
X163344361Y-88996900D01*
X163249123Y-88949280D01*
X136234085Y-81939800D02*
X135234085Y-81939800D01*
X135424561Y-83307180D02*
X135757895Y-82830990D01*
X135995990Y-83307180D02*
X135995990Y-82307180D01*
X135615038Y-82307180D01*
X135519800Y-82354800D01*
X135472180Y-82402419D01*
X135424561Y-82497657D01*
X135424561Y-82640514D01*
X135472180Y-82735752D01*
X135519800Y-82783371D01*
X135615038Y-82830990D01*
X135995990Y-82830990D01*
X135234085Y-81939800D02*
X134281704Y-81939800D01*
X135043609Y-83259561D02*
X134900752Y-83307180D01*
X134662657Y-83307180D01*
X134567419Y-83259561D01*
X134519800Y-83211942D01*
X134472180Y-83116704D01*
X134472180Y-83021466D01*
X134519800Y-82926228D01*
X134567419Y-82878609D01*
X134662657Y-82830990D01*
X134853133Y-82783371D01*
X134948371Y-82735752D01*
X134995990Y-82688133D01*
X135043609Y-82592895D01*
X135043609Y-82497657D01*
X134995990Y-82402419D01*
X134948371Y-82354800D01*
X134853133Y-82307180D01*
X134615038Y-82307180D01*
X134472180Y-82354800D01*
X134281704Y-81939800D02*
X133519800Y-81939800D01*
X134186466Y-82307180D02*
X133615038Y-82307180D01*
X133900752Y-83307180D02*
X133900752Y-82307180D01*
X133519800Y-81939800D02*
X132757895Y-81939800D01*
X132757895Y-81939800D02*
X131757895Y-81939800D01*
X131995990Y-82354800D02*
X132091228Y-82307180D01*
X132234085Y-82307180D01*
X132376942Y-82354800D01*
X132472180Y-82450038D01*
X132519800Y-82545276D01*
X132567419Y-82735752D01*
X132567419Y-82878609D01*
X132519800Y-83069085D01*
X132472180Y-83164323D01*
X132376942Y-83259561D01*
X132234085Y-83307180D01*
X132138847Y-83307180D01*
X131995990Y-83259561D01*
X131948371Y-83211942D01*
X131948371Y-82878609D01*
X132138847Y-82878609D01*
X131757895Y-81939800D02*
X130757895Y-81939800D01*
X131519800Y-83307180D02*
X131519800Y-82307180D01*
X131138847Y-82307180D01*
X131043609Y-82354800D01*
X130995990Y-82402419D01*
X130948371Y-82497657D01*
X130948371Y-82640514D01*
X130995990Y-82735752D01*
X131043609Y-82783371D01*
X131138847Y-82830990D01*
X131519800Y-82830990D01*
X130757895Y-81939800D02*
X129805514Y-81939800D01*
X130567419Y-83259561D02*
X130424561Y-83307180D01*
X130186466Y-83307180D01*
X130091228Y-83259561D01*
X130043609Y-83211942D01*
X129995990Y-83116704D01*
X129995990Y-83021466D01*
X130043609Y-82926228D01*
X130091228Y-82878609D01*
X130186466Y-82830990D01*
X130376942Y-82783371D01*
X130472180Y-82735752D01*
X130519800Y-82688133D01*
X130567419Y-82592895D01*
X130567419Y-82497657D01*
X130519800Y-82402419D01*
X130472180Y-82354800D01*
X130376942Y-82307180D01*
X130138847Y-82307180D01*
X129995990Y-82354800D01*
X171283190Y-79834620D02*
X171283190Y-78834620D01*
X170854619Y-78929859D02*
X170807000Y-78882240D01*
X170711761Y-78834620D01*
X170473666Y-78834620D01*
X170378428Y-78882240D01*
X170330809Y-78929859D01*
X170283190Y-79025097D01*
X170283190Y-79120335D01*
X170330809Y-79263192D01*
X170902238Y-79834620D01*
X170283190Y-79834620D01*
X169283190Y-79739382D02*
X169330809Y-79787001D01*
X169473666Y-79834620D01*
X169568904Y-79834620D01*
X169711761Y-79787001D01*
X169807000Y-79691763D01*
X169854619Y-79596525D01*
X169902238Y-79406049D01*
X169902238Y-79263192D01*
X169854619Y-79072716D01*
X169807000Y-78977478D01*
X169711761Y-78882240D01*
X169568904Y-78834620D01*
X169473666Y-78834620D01*
X169330809Y-78882240D01*
X169283190Y-78929859D01*
X136220534Y-79544580D02*
X135268153Y-79544580D01*
X136030058Y-80864341D02*
X135887200Y-80911960D01*
X135649105Y-80911960D01*
X135553867Y-80864341D01*
X135506248Y-80816722D01*
X135458629Y-80721484D01*
X135458629Y-80626246D01*
X135506248Y-80531008D01*
X135553867Y-80483389D01*
X135649105Y-80435770D01*
X135839581Y-80388151D01*
X135934820Y-80340532D01*
X135982439Y-80292913D01*
X136030058Y-80197675D01*
X136030058Y-80102437D01*
X135982439Y-80007199D01*
X135934820Y-79959580D01*
X135839581Y-79911960D01*
X135601486Y-79911960D01*
X135458629Y-79959580D01*
X135268153Y-79544580D02*
X134411010Y-79544580D01*
X135077677Y-80626246D02*
X134601486Y-80626246D01*
X135172915Y-80911960D02*
X134839581Y-79911960D01*
X134506248Y-80911960D01*
X134411010Y-79544580D02*
X133553867Y-79544580D01*
X133839581Y-80388151D02*
X134172915Y-80388151D01*
X134172915Y-80911960D02*
X134172915Y-79911960D01*
X133696724Y-79911960D01*
X133553867Y-79544580D02*
X132649105Y-79544580D01*
X133315772Y-80388151D02*
X132982439Y-80388151D01*
X132839581Y-80911960D02*
X133315772Y-80911960D01*
X133315772Y-79911960D01*
X132839581Y-79911960D01*
X136111739Y-78778360D02*
X136111739Y-77778360D01*
X135730786Y-77778360D01*
X135635548Y-77825980D01*
X135587929Y-77873599D01*
X135540310Y-77968837D01*
X135540310Y-78111694D01*
X135587929Y-78206932D01*
X135635548Y-78254551D01*
X135730786Y-78302170D01*
X136111739Y-78302170D01*
X135111739Y-78778360D02*
X135111739Y-77778360D01*
X134730786Y-77778360D01*
X134635548Y-77825980D01*
X134587929Y-77873599D01*
X134540310Y-77968837D01*
X134540310Y-78111694D01*
X134587929Y-78206932D01*
X134635548Y-78254551D01*
X134730786Y-78302170D01*
X135111739Y-78302170D01*
X134159358Y-78730741D02*
X134016501Y-78778360D01*
X133778405Y-78778360D01*
X133683167Y-78730741D01*
X133635548Y-78683122D01*
X133587929Y-78587884D01*
X133587929Y-78492646D01*
X133635548Y-78397408D01*
X133683167Y-78349789D01*
X133778405Y-78302170D01*
X133968882Y-78254551D01*
X134064120Y-78206932D01*
X134111739Y-78159313D01*
X134159358Y-78064075D01*
X134159358Y-77968837D01*
X134111739Y-77873599D01*
X134064120Y-77825980D01*
X133968882Y-77778360D01*
X133730786Y-77778360D01*
X133587929Y-77825980D01*
X135946639Y-76548240D02*
X135946639Y-75548240D01*
X135470449Y-76548240D02*
X135470449Y-75548240D01*
X134899020Y-76548240D01*
X134899020Y-75548240D01*
X134565687Y-75548240D02*
X133994258Y-75548240D01*
X134279973Y-76548240D02*
X134279973Y-75548240D01*
X165495266Y-94140280D02*
X165828600Y-93664090D01*
X166066695Y-94140280D02*
X166066695Y-93140280D01*
X165685742Y-93140280D01*
X165590504Y-93187900D01*
X165542885Y-93235519D01*
X165495266Y-93330757D01*
X165495266Y-93473614D01*
X165542885Y-93568852D01*
X165590504Y-93616471D01*
X165685742Y-93664090D01*
X166066695Y-93664090D01*
X165161933Y-93140280D02*
X164495266Y-94140280D01*
X164495266Y-93140280D02*
X165161933Y-94140280D01*
X173405704Y-93076780D02*
X172834276Y-93076780D01*
X173119990Y-94076780D02*
X173119990Y-93076780D01*
X172596180Y-93076780D02*
X171929514Y-94076780D01*
X171929514Y-93076780D02*
X172596180Y-94076780D01*
X174443876Y-83335761D02*
X174301019Y-83383380D01*
X174062923Y-83383380D01*
X173967685Y-83335761D01*
X173920066Y-83288142D01*
X173872447Y-83192904D01*
X173872447Y-83097666D01*
X173920066Y-83002428D01*
X173967685Y-82954809D01*
X174062923Y-82907190D01*
X174253400Y-82859571D01*
X174348638Y-82811952D01*
X174396257Y-82764333D01*
X174443876Y-82669095D01*
X174443876Y-82573857D01*
X174396257Y-82478619D01*
X174348638Y-82431000D01*
X174253400Y-82383380D01*
X174015304Y-82383380D01*
X173872447Y-82431000D01*
X172872447Y-83288142D02*
X172920066Y-83335761D01*
X173062923Y-83383380D01*
X173158161Y-83383380D01*
X173301019Y-83335761D01*
X173396257Y-83240523D01*
X173443876Y-83145285D01*
X173491495Y-82954809D01*
X173491495Y-82811952D01*
X173443876Y-82621476D01*
X173396257Y-82526238D01*
X173301019Y-82431000D01*
X173158161Y-82383380D01*
X173062923Y-82383380D01*
X172920066Y-82431000D01*
X172872447Y-82478619D01*
X171967685Y-83383380D02*
X172443876Y-83383380D01*
X172443876Y-82383380D01*
X177693485Y-83297661D02*
X177550628Y-83345280D01*
X177312533Y-83345280D01*
X177217295Y-83297661D01*
X177169676Y-83250042D01*
X177122057Y-83154804D01*
X177122057Y-83059566D01*
X177169676Y-82964328D01*
X177217295Y-82916709D01*
X177312533Y-82869090D01*
X177503009Y-82821471D01*
X177598247Y-82773852D01*
X177645866Y-82726233D01*
X177693485Y-82630995D01*
X177693485Y-82535757D01*
X177645866Y-82440519D01*
X177598247Y-82392900D01*
X177503009Y-82345280D01*
X177264914Y-82345280D01*
X177122057Y-82392900D01*
X176693485Y-83345280D02*
X176693485Y-82345280D01*
X176455390Y-82345280D01*
X176312533Y-82392900D01*
X176217295Y-82488138D01*
X176169676Y-82583376D01*
X176122057Y-82773852D01*
X176122057Y-82916709D01*
X176169676Y-83107185D01*
X176217295Y-83202423D01*
X176312533Y-83297661D01*
X176455390Y-83345280D01*
X176693485Y-83345280D01*
X175741104Y-83059566D02*
X175264914Y-83059566D01*
X175836342Y-83345280D02*
X175503009Y-82345280D01*
X175169676Y-83345280D01*
M02*
