G04 #@! TF.GenerationSoftware,KiCad,Pcbnew,(5.1.4)-1*
G04 #@! TF.CreationDate,2020-01-31T22:29:49-05:00*
G04 #@! TF.ProjectId,Feather-NEO-M9N-GPS,46656174-6865-4722-9d4e-454f2d4d394e,rev?*
G04 #@! TF.SameCoordinates,Original*
G04 #@! TF.FileFunction,Paste,Top*
G04 #@! TF.FilePolarity,Positive*
%FSLAX46Y46*%
G04 Gerber Fmt 4.6, Leading zero omitted, Abs format (unit mm)*
G04 Created by KiCad (PCBNEW (5.1.4)-1) date 2020-01-31 22:29:49*
%MOMM*%
%LPD*%
G04 APERTURE LIST*
%ADD10C,0.100000*%
%ADD11C,0.875000*%
%ADD12R,0.325000X0.250000*%
%ADD13C,0.590000*%
%ADD14R,1.050000X0.500000*%
%ADD15R,1.050000X1.000000*%
%ADD16R,2.200000X1.050000*%
%ADD17R,1.060000X0.650000*%
%ADD18R,1.900000X1.175000*%
%ADD19R,1.900000X2.375000*%
%ADD20R,2.100000X1.475000*%
%ADD21R,1.380000X0.450000*%
%ADD22R,0.500000X0.500000*%
%ADD23R,0.800000X2.000000*%
%ADD24C,0.975000*%
G04 APERTURE END LIST*
D10*
G36*
X164102400Y-89247300D02*
G01*
X165002400Y-89247300D01*
X165002400Y-88647300D01*
X164102400Y-88647300D01*
X164102400Y-89247300D01*
G37*
G36*
X165002400Y-89347300D02*
G01*
X166202400Y-89347300D01*
X166202400Y-88547300D01*
X165002400Y-88547300D01*
X165002400Y-89347300D01*
G37*
G36*
X164102400Y-90347300D02*
G01*
X165002400Y-90347300D01*
X165002400Y-89747300D01*
X164102400Y-89747300D01*
X164102400Y-90347300D01*
G37*
G36*
X165002400Y-90447300D02*
G01*
X166202400Y-90447300D01*
X166202400Y-89647300D01*
X165002400Y-89647300D01*
X165002400Y-90447300D01*
G37*
G36*
X164102400Y-91447300D02*
G01*
X165002400Y-91447300D01*
X165002400Y-90847300D01*
X164102400Y-90847300D01*
X164102400Y-91447300D01*
G37*
G36*
X165002400Y-91547300D02*
G01*
X166202400Y-91547300D01*
X166202400Y-90747300D01*
X165002400Y-90747300D01*
X165002400Y-91547300D01*
G37*
G36*
X164102400Y-92547300D02*
G01*
X165002400Y-92547300D01*
X165002400Y-91947300D01*
X164102400Y-91947300D01*
X164102400Y-92547300D01*
G37*
G36*
X165002400Y-92647300D02*
G01*
X166202400Y-92647300D01*
X166202400Y-91847300D01*
X165002400Y-91847300D01*
X165002400Y-92647300D01*
G37*
G36*
X164102400Y-93647300D02*
G01*
X165002400Y-93647300D01*
X165002400Y-93047300D01*
X164102400Y-93047300D01*
X164102400Y-93647300D01*
G37*
G36*
X165002400Y-93747300D02*
G01*
X166202400Y-93747300D01*
X166202400Y-92947300D01*
X165002400Y-92947300D01*
X165002400Y-93747300D01*
G37*
G36*
X164102400Y-79647300D02*
G01*
X165002400Y-79647300D01*
X165002400Y-79047300D01*
X164102400Y-79047300D01*
X164102400Y-79647300D01*
G37*
G36*
X165002400Y-79747300D02*
G01*
X166202400Y-79747300D01*
X166202400Y-78947300D01*
X165002400Y-78947300D01*
X165002400Y-79747300D01*
G37*
G36*
X164102400Y-80747300D02*
G01*
X165002400Y-80747300D01*
X165002400Y-80147300D01*
X164102400Y-80147300D01*
X164102400Y-80747300D01*
G37*
G36*
X165002400Y-80847300D02*
G01*
X166202400Y-80847300D01*
X166202400Y-80047300D01*
X165002400Y-80047300D01*
X165002400Y-80847300D01*
G37*
G36*
X164102400Y-81847300D02*
G01*
X165002400Y-81847300D01*
X165002400Y-81247300D01*
X164102400Y-81247300D01*
X164102400Y-81847300D01*
G37*
G36*
X165002400Y-81947300D02*
G01*
X166202400Y-81947300D01*
X166202400Y-81147300D01*
X165002400Y-81147300D01*
X165002400Y-81947300D01*
G37*
G36*
X164102400Y-82947300D02*
G01*
X165002400Y-82947300D01*
X165002400Y-82347300D01*
X164102400Y-82347300D01*
X164102400Y-82947300D01*
G37*
G36*
X165002400Y-83047300D02*
G01*
X166202400Y-83047300D01*
X166202400Y-82247300D01*
X165002400Y-82247300D01*
X165002400Y-83047300D01*
G37*
G36*
X164102400Y-84047300D02*
G01*
X165002400Y-84047300D01*
X165002400Y-83447300D01*
X164102400Y-83447300D01*
X164102400Y-84047300D01*
G37*
G36*
X165002400Y-84147300D02*
G01*
X166202400Y-84147300D01*
X166202400Y-83347300D01*
X165002400Y-83347300D01*
X165002400Y-84147300D01*
G37*
G36*
X164102400Y-85147300D02*
G01*
X165002400Y-85147300D01*
X165002400Y-84547300D01*
X164102400Y-84547300D01*
X164102400Y-85147300D01*
G37*
G36*
X165002400Y-85247300D02*
G01*
X166202400Y-85247300D01*
X166202400Y-84447300D01*
X165002400Y-84447300D01*
X165002400Y-85247300D01*
G37*
G36*
X164102400Y-86247300D02*
G01*
X165002400Y-86247300D01*
X165002400Y-85647300D01*
X164102400Y-85647300D01*
X164102400Y-86247300D01*
G37*
G36*
X165002400Y-86347300D02*
G01*
X166202400Y-86347300D01*
X166202400Y-85547300D01*
X165002400Y-85547300D01*
X165002400Y-86347300D01*
G37*
G36*
X153702400Y-93047300D02*
G01*
X152802400Y-93047300D01*
X152802400Y-93647300D01*
X153702400Y-93647300D01*
X153702400Y-93047300D01*
G37*
G36*
X152802400Y-92947300D02*
G01*
X151602400Y-92947300D01*
X151602400Y-93747300D01*
X152802400Y-93747300D01*
X152802400Y-92947300D01*
G37*
G36*
X153702400Y-91947300D02*
G01*
X152802400Y-91947300D01*
X152802400Y-92547300D01*
X153702400Y-92547300D01*
X153702400Y-91947300D01*
G37*
G36*
X152802400Y-91847300D02*
G01*
X151602400Y-91847300D01*
X151602400Y-92647300D01*
X152802400Y-92647300D01*
X152802400Y-91847300D01*
G37*
G36*
X153702400Y-90847300D02*
G01*
X152802400Y-90847300D01*
X152802400Y-91447300D01*
X153702400Y-91447300D01*
X153702400Y-90847300D01*
G37*
G36*
X152802400Y-90747300D02*
G01*
X151602400Y-90747300D01*
X151602400Y-91547300D01*
X152802400Y-91547300D01*
X152802400Y-90747300D01*
G37*
G36*
X153702400Y-89747300D02*
G01*
X152802400Y-89747300D01*
X152802400Y-90347300D01*
X153702400Y-90347300D01*
X153702400Y-89747300D01*
G37*
G36*
X152802400Y-89647300D02*
G01*
X151602400Y-89647300D01*
X151602400Y-90447300D01*
X152802400Y-90447300D01*
X152802400Y-89647300D01*
G37*
G36*
X153702400Y-88647300D02*
G01*
X152802400Y-88647300D01*
X152802400Y-89247300D01*
X153702400Y-89247300D01*
X153702400Y-88647300D01*
G37*
G36*
X152802400Y-88547300D02*
G01*
X151602400Y-88547300D01*
X151602400Y-89347300D01*
X152802400Y-89347300D01*
X152802400Y-88547300D01*
G37*
G36*
X153702400Y-85647300D02*
G01*
X152802400Y-85647300D01*
X152802400Y-86247300D01*
X153702400Y-86247300D01*
X153702400Y-85647300D01*
G37*
G36*
X152802400Y-85547300D02*
G01*
X151602400Y-85547300D01*
X151602400Y-86347300D01*
X152802400Y-86347300D01*
X152802400Y-85547300D01*
G37*
G36*
X153702400Y-84547300D02*
G01*
X152802400Y-84547300D01*
X152802400Y-85147300D01*
X153702400Y-85147300D01*
X153702400Y-84547300D01*
G37*
G36*
X152802400Y-84447300D02*
G01*
X151602400Y-84447300D01*
X151602400Y-85247300D01*
X152802400Y-85247300D01*
X152802400Y-84447300D01*
G37*
G36*
X153702400Y-83447300D02*
G01*
X152802400Y-83447300D01*
X152802400Y-84047300D01*
X153702400Y-84047300D01*
X153702400Y-83447300D01*
G37*
G36*
X152802400Y-83347300D02*
G01*
X151602400Y-83347300D01*
X151602400Y-84147300D01*
X152802400Y-84147300D01*
X152802400Y-83347300D01*
G37*
G36*
X153702400Y-82347300D02*
G01*
X152802400Y-82347300D01*
X152802400Y-82947300D01*
X153702400Y-82947300D01*
X153702400Y-82347300D01*
G37*
G36*
X152802400Y-82247300D02*
G01*
X151602400Y-82247300D01*
X151602400Y-83047300D01*
X152802400Y-83047300D01*
X152802400Y-82247300D01*
G37*
G36*
X153702400Y-81247300D02*
G01*
X152802400Y-81247300D01*
X152802400Y-81847300D01*
X153702400Y-81847300D01*
X153702400Y-81247300D01*
G37*
G36*
X152802400Y-81147300D02*
G01*
X151602400Y-81147300D01*
X151602400Y-81947300D01*
X152802400Y-81947300D01*
X152802400Y-81147300D01*
G37*
G36*
X153702400Y-80147300D02*
G01*
X152802400Y-80147300D01*
X152802400Y-80747300D01*
X153702400Y-80747300D01*
X153702400Y-80147300D01*
G37*
G36*
X152802400Y-80047300D02*
G01*
X151602400Y-80047300D01*
X151602400Y-80847300D01*
X152802400Y-80847300D01*
X152802400Y-80047300D01*
G37*
G36*
X153702400Y-79047300D02*
G01*
X152802400Y-79047300D01*
X152802400Y-79647300D01*
X153702400Y-79647300D01*
X153702400Y-79047300D01*
G37*
G36*
X152802400Y-78947300D02*
G01*
X151602400Y-78947300D01*
X151602400Y-79747300D01*
X152802400Y-79747300D01*
X152802400Y-78947300D01*
G37*
G36*
X146226791Y-77961253D02*
G01*
X146248026Y-77964403D01*
X146268850Y-77969619D01*
X146289062Y-77976851D01*
X146308468Y-77986030D01*
X146326881Y-77997066D01*
X146344124Y-78009854D01*
X146360030Y-78024270D01*
X146374446Y-78040176D01*
X146387234Y-78057419D01*
X146398270Y-78075832D01*
X146407449Y-78095238D01*
X146414681Y-78115450D01*
X146419897Y-78136274D01*
X146423047Y-78157509D01*
X146424100Y-78178950D01*
X146424100Y-78691450D01*
X146423047Y-78712891D01*
X146419897Y-78734126D01*
X146414681Y-78754950D01*
X146407449Y-78775162D01*
X146398270Y-78794568D01*
X146387234Y-78812981D01*
X146374446Y-78830224D01*
X146360030Y-78846130D01*
X146344124Y-78860546D01*
X146326881Y-78873334D01*
X146308468Y-78884370D01*
X146289062Y-78893549D01*
X146268850Y-78900781D01*
X146248026Y-78905997D01*
X146226791Y-78909147D01*
X146205350Y-78910200D01*
X145767850Y-78910200D01*
X145746409Y-78909147D01*
X145725174Y-78905997D01*
X145704350Y-78900781D01*
X145684138Y-78893549D01*
X145664732Y-78884370D01*
X145646319Y-78873334D01*
X145629076Y-78860546D01*
X145613170Y-78846130D01*
X145598754Y-78830224D01*
X145585966Y-78812981D01*
X145574930Y-78794568D01*
X145565751Y-78775162D01*
X145558519Y-78754950D01*
X145553303Y-78734126D01*
X145550153Y-78712891D01*
X145549100Y-78691450D01*
X145549100Y-78178950D01*
X145550153Y-78157509D01*
X145553303Y-78136274D01*
X145558519Y-78115450D01*
X145565751Y-78095238D01*
X145574930Y-78075832D01*
X145585966Y-78057419D01*
X145598754Y-78040176D01*
X145613170Y-78024270D01*
X145629076Y-78009854D01*
X145646319Y-77997066D01*
X145664732Y-77986030D01*
X145684138Y-77976851D01*
X145704350Y-77969619D01*
X145725174Y-77964403D01*
X145746409Y-77961253D01*
X145767850Y-77960200D01*
X146205350Y-77960200D01*
X146226791Y-77961253D01*
X146226791Y-77961253D01*
G37*
D11*
X145986600Y-78435200D03*
D10*
G36*
X144651791Y-77961253D02*
G01*
X144673026Y-77964403D01*
X144693850Y-77969619D01*
X144714062Y-77976851D01*
X144733468Y-77986030D01*
X144751881Y-77997066D01*
X144769124Y-78009854D01*
X144785030Y-78024270D01*
X144799446Y-78040176D01*
X144812234Y-78057419D01*
X144823270Y-78075832D01*
X144832449Y-78095238D01*
X144839681Y-78115450D01*
X144844897Y-78136274D01*
X144848047Y-78157509D01*
X144849100Y-78178950D01*
X144849100Y-78691450D01*
X144848047Y-78712891D01*
X144844897Y-78734126D01*
X144839681Y-78754950D01*
X144832449Y-78775162D01*
X144823270Y-78794568D01*
X144812234Y-78812981D01*
X144799446Y-78830224D01*
X144785030Y-78846130D01*
X144769124Y-78860546D01*
X144751881Y-78873334D01*
X144733468Y-78884370D01*
X144714062Y-78893549D01*
X144693850Y-78900781D01*
X144673026Y-78905997D01*
X144651791Y-78909147D01*
X144630350Y-78910200D01*
X144192850Y-78910200D01*
X144171409Y-78909147D01*
X144150174Y-78905997D01*
X144129350Y-78900781D01*
X144109138Y-78893549D01*
X144089732Y-78884370D01*
X144071319Y-78873334D01*
X144054076Y-78860546D01*
X144038170Y-78846130D01*
X144023754Y-78830224D01*
X144010966Y-78812981D01*
X143999930Y-78794568D01*
X143990751Y-78775162D01*
X143983519Y-78754950D01*
X143978303Y-78734126D01*
X143975153Y-78712891D01*
X143974100Y-78691450D01*
X143974100Y-78178950D01*
X143975153Y-78157509D01*
X143978303Y-78136274D01*
X143983519Y-78115450D01*
X143990751Y-78095238D01*
X143999930Y-78075832D01*
X144010966Y-78057419D01*
X144023754Y-78040176D01*
X144038170Y-78024270D01*
X144054076Y-78009854D01*
X144071319Y-77997066D01*
X144089732Y-77986030D01*
X144109138Y-77976851D01*
X144129350Y-77969619D01*
X144150174Y-77964403D01*
X144171409Y-77961253D01*
X144192850Y-77960200D01*
X144630350Y-77960200D01*
X144651791Y-77961253D01*
X144651791Y-77961253D01*
G37*
D11*
X144411600Y-78435200D03*
D12*
X136252400Y-85529800D03*
X136252400Y-86029800D03*
X136252400Y-86529800D03*
X135578400Y-86529800D03*
X135578400Y-86029800D03*
X135578400Y-85529800D03*
D10*
G36*
X150504418Y-78941410D02*
G01*
X150518736Y-78943534D01*
X150532777Y-78947051D01*
X150546406Y-78951928D01*
X150559491Y-78958117D01*
X150571907Y-78965558D01*
X150583533Y-78974181D01*
X150594258Y-78983902D01*
X150603979Y-78994627D01*
X150612602Y-79006253D01*
X150620043Y-79018669D01*
X150626232Y-79031754D01*
X150631109Y-79045383D01*
X150634626Y-79059424D01*
X150636750Y-79073742D01*
X150637460Y-79088200D01*
X150637460Y-79433200D01*
X150636750Y-79447658D01*
X150634626Y-79461976D01*
X150631109Y-79476017D01*
X150626232Y-79489646D01*
X150620043Y-79502731D01*
X150612602Y-79515147D01*
X150603979Y-79526773D01*
X150594258Y-79537498D01*
X150583533Y-79547219D01*
X150571907Y-79555842D01*
X150559491Y-79563283D01*
X150546406Y-79569472D01*
X150532777Y-79574349D01*
X150518736Y-79577866D01*
X150504418Y-79579990D01*
X150489960Y-79580700D01*
X150194960Y-79580700D01*
X150180502Y-79579990D01*
X150166184Y-79577866D01*
X150152143Y-79574349D01*
X150138514Y-79569472D01*
X150125429Y-79563283D01*
X150113013Y-79555842D01*
X150101387Y-79547219D01*
X150090662Y-79537498D01*
X150080941Y-79526773D01*
X150072318Y-79515147D01*
X150064877Y-79502731D01*
X150058688Y-79489646D01*
X150053811Y-79476017D01*
X150050294Y-79461976D01*
X150048170Y-79447658D01*
X150047460Y-79433200D01*
X150047460Y-79088200D01*
X150048170Y-79073742D01*
X150050294Y-79059424D01*
X150053811Y-79045383D01*
X150058688Y-79031754D01*
X150064877Y-79018669D01*
X150072318Y-79006253D01*
X150080941Y-78994627D01*
X150090662Y-78983902D01*
X150101387Y-78974181D01*
X150113013Y-78965558D01*
X150125429Y-78958117D01*
X150138514Y-78951928D01*
X150152143Y-78947051D01*
X150166184Y-78943534D01*
X150180502Y-78941410D01*
X150194960Y-78940700D01*
X150489960Y-78940700D01*
X150504418Y-78941410D01*
X150504418Y-78941410D01*
G37*
D13*
X150342460Y-79260700D03*
D10*
G36*
X149534418Y-78941410D02*
G01*
X149548736Y-78943534D01*
X149562777Y-78947051D01*
X149576406Y-78951928D01*
X149589491Y-78958117D01*
X149601907Y-78965558D01*
X149613533Y-78974181D01*
X149624258Y-78983902D01*
X149633979Y-78994627D01*
X149642602Y-79006253D01*
X149650043Y-79018669D01*
X149656232Y-79031754D01*
X149661109Y-79045383D01*
X149664626Y-79059424D01*
X149666750Y-79073742D01*
X149667460Y-79088200D01*
X149667460Y-79433200D01*
X149666750Y-79447658D01*
X149664626Y-79461976D01*
X149661109Y-79476017D01*
X149656232Y-79489646D01*
X149650043Y-79502731D01*
X149642602Y-79515147D01*
X149633979Y-79526773D01*
X149624258Y-79537498D01*
X149613533Y-79547219D01*
X149601907Y-79555842D01*
X149589491Y-79563283D01*
X149576406Y-79569472D01*
X149562777Y-79574349D01*
X149548736Y-79577866D01*
X149534418Y-79579990D01*
X149519960Y-79580700D01*
X149224960Y-79580700D01*
X149210502Y-79579990D01*
X149196184Y-79577866D01*
X149182143Y-79574349D01*
X149168514Y-79569472D01*
X149155429Y-79563283D01*
X149143013Y-79555842D01*
X149131387Y-79547219D01*
X149120662Y-79537498D01*
X149110941Y-79526773D01*
X149102318Y-79515147D01*
X149094877Y-79502731D01*
X149088688Y-79489646D01*
X149083811Y-79476017D01*
X149080294Y-79461976D01*
X149078170Y-79447658D01*
X149077460Y-79433200D01*
X149077460Y-79088200D01*
X149078170Y-79073742D01*
X149080294Y-79059424D01*
X149083811Y-79045383D01*
X149088688Y-79031754D01*
X149094877Y-79018669D01*
X149102318Y-79006253D01*
X149110941Y-78994627D01*
X149120662Y-78983902D01*
X149131387Y-78974181D01*
X149143013Y-78965558D01*
X149155429Y-78958117D01*
X149168514Y-78951928D01*
X149182143Y-78947051D01*
X149196184Y-78943534D01*
X149210502Y-78941410D01*
X149224960Y-78940700D01*
X149519960Y-78940700D01*
X149534418Y-78941410D01*
X149534418Y-78941410D01*
G37*
D13*
X149372460Y-79260700D03*
D10*
G36*
X167037558Y-84863842D02*
G01*
X167051876Y-84865966D01*
X167065917Y-84869483D01*
X167079546Y-84874360D01*
X167092631Y-84880549D01*
X167105047Y-84887990D01*
X167116673Y-84896613D01*
X167127398Y-84906334D01*
X167137119Y-84917059D01*
X167145742Y-84928685D01*
X167153183Y-84941101D01*
X167159372Y-84954186D01*
X167164249Y-84967815D01*
X167167766Y-84981856D01*
X167169890Y-84996174D01*
X167170600Y-85010632D01*
X167170600Y-85355632D01*
X167169890Y-85370090D01*
X167167766Y-85384408D01*
X167164249Y-85398449D01*
X167159372Y-85412078D01*
X167153183Y-85425163D01*
X167145742Y-85437579D01*
X167137119Y-85449205D01*
X167127398Y-85459930D01*
X167116673Y-85469651D01*
X167105047Y-85478274D01*
X167092631Y-85485715D01*
X167079546Y-85491904D01*
X167065917Y-85496781D01*
X167051876Y-85500298D01*
X167037558Y-85502422D01*
X167023100Y-85503132D01*
X166728100Y-85503132D01*
X166713642Y-85502422D01*
X166699324Y-85500298D01*
X166685283Y-85496781D01*
X166671654Y-85491904D01*
X166658569Y-85485715D01*
X166646153Y-85478274D01*
X166634527Y-85469651D01*
X166623802Y-85459930D01*
X166614081Y-85449205D01*
X166605458Y-85437579D01*
X166598017Y-85425163D01*
X166591828Y-85412078D01*
X166586951Y-85398449D01*
X166583434Y-85384408D01*
X166581310Y-85370090D01*
X166580600Y-85355632D01*
X166580600Y-85010632D01*
X166581310Y-84996174D01*
X166583434Y-84981856D01*
X166586951Y-84967815D01*
X166591828Y-84954186D01*
X166598017Y-84941101D01*
X166605458Y-84928685D01*
X166614081Y-84917059D01*
X166623802Y-84906334D01*
X166634527Y-84896613D01*
X166646153Y-84887990D01*
X166658569Y-84880549D01*
X166671654Y-84874360D01*
X166685283Y-84869483D01*
X166699324Y-84865966D01*
X166713642Y-84863842D01*
X166728100Y-84863132D01*
X167023100Y-84863132D01*
X167037558Y-84863842D01*
X167037558Y-84863842D01*
G37*
D13*
X166875600Y-85183132D03*
D10*
G36*
X168007558Y-84863842D02*
G01*
X168021876Y-84865966D01*
X168035917Y-84869483D01*
X168049546Y-84874360D01*
X168062631Y-84880549D01*
X168075047Y-84887990D01*
X168086673Y-84896613D01*
X168097398Y-84906334D01*
X168107119Y-84917059D01*
X168115742Y-84928685D01*
X168123183Y-84941101D01*
X168129372Y-84954186D01*
X168134249Y-84967815D01*
X168137766Y-84981856D01*
X168139890Y-84996174D01*
X168140600Y-85010632D01*
X168140600Y-85355632D01*
X168139890Y-85370090D01*
X168137766Y-85384408D01*
X168134249Y-85398449D01*
X168129372Y-85412078D01*
X168123183Y-85425163D01*
X168115742Y-85437579D01*
X168107119Y-85449205D01*
X168097398Y-85459930D01*
X168086673Y-85469651D01*
X168075047Y-85478274D01*
X168062631Y-85485715D01*
X168049546Y-85491904D01*
X168035917Y-85496781D01*
X168021876Y-85500298D01*
X168007558Y-85502422D01*
X167993100Y-85503132D01*
X167698100Y-85503132D01*
X167683642Y-85502422D01*
X167669324Y-85500298D01*
X167655283Y-85496781D01*
X167641654Y-85491904D01*
X167628569Y-85485715D01*
X167616153Y-85478274D01*
X167604527Y-85469651D01*
X167593802Y-85459930D01*
X167584081Y-85449205D01*
X167575458Y-85437579D01*
X167568017Y-85425163D01*
X167561828Y-85412078D01*
X167556951Y-85398449D01*
X167553434Y-85384408D01*
X167551310Y-85370090D01*
X167550600Y-85355632D01*
X167550600Y-85010632D01*
X167551310Y-84996174D01*
X167553434Y-84981856D01*
X167556951Y-84967815D01*
X167561828Y-84954186D01*
X167568017Y-84941101D01*
X167575458Y-84928685D01*
X167584081Y-84917059D01*
X167593802Y-84906334D01*
X167604527Y-84896613D01*
X167616153Y-84887990D01*
X167628569Y-84880549D01*
X167641654Y-84874360D01*
X167655283Y-84869483D01*
X167669324Y-84865966D01*
X167683642Y-84863842D01*
X167698100Y-84863132D01*
X167993100Y-84863132D01*
X168007558Y-84863842D01*
X168007558Y-84863842D01*
G37*
D13*
X167845600Y-85183132D03*
D10*
G36*
X167037558Y-86091510D02*
G01*
X167051876Y-86093634D01*
X167065917Y-86097151D01*
X167079546Y-86102028D01*
X167092631Y-86108217D01*
X167105047Y-86115658D01*
X167116673Y-86124281D01*
X167127398Y-86134002D01*
X167137119Y-86144727D01*
X167145742Y-86156353D01*
X167153183Y-86168769D01*
X167159372Y-86181854D01*
X167164249Y-86195483D01*
X167167766Y-86209524D01*
X167169890Y-86223842D01*
X167170600Y-86238300D01*
X167170600Y-86583300D01*
X167169890Y-86597758D01*
X167167766Y-86612076D01*
X167164249Y-86626117D01*
X167159372Y-86639746D01*
X167153183Y-86652831D01*
X167145742Y-86665247D01*
X167137119Y-86676873D01*
X167127398Y-86687598D01*
X167116673Y-86697319D01*
X167105047Y-86705942D01*
X167092631Y-86713383D01*
X167079546Y-86719572D01*
X167065917Y-86724449D01*
X167051876Y-86727966D01*
X167037558Y-86730090D01*
X167023100Y-86730800D01*
X166728100Y-86730800D01*
X166713642Y-86730090D01*
X166699324Y-86727966D01*
X166685283Y-86724449D01*
X166671654Y-86719572D01*
X166658569Y-86713383D01*
X166646153Y-86705942D01*
X166634527Y-86697319D01*
X166623802Y-86687598D01*
X166614081Y-86676873D01*
X166605458Y-86665247D01*
X166598017Y-86652831D01*
X166591828Y-86639746D01*
X166586951Y-86626117D01*
X166583434Y-86612076D01*
X166581310Y-86597758D01*
X166580600Y-86583300D01*
X166580600Y-86238300D01*
X166581310Y-86223842D01*
X166583434Y-86209524D01*
X166586951Y-86195483D01*
X166591828Y-86181854D01*
X166598017Y-86168769D01*
X166605458Y-86156353D01*
X166614081Y-86144727D01*
X166623802Y-86134002D01*
X166634527Y-86124281D01*
X166646153Y-86115658D01*
X166658569Y-86108217D01*
X166671654Y-86102028D01*
X166685283Y-86097151D01*
X166699324Y-86093634D01*
X166713642Y-86091510D01*
X166728100Y-86090800D01*
X167023100Y-86090800D01*
X167037558Y-86091510D01*
X167037558Y-86091510D01*
G37*
D13*
X166875600Y-86410800D03*
D10*
G36*
X168007558Y-86091510D02*
G01*
X168021876Y-86093634D01*
X168035917Y-86097151D01*
X168049546Y-86102028D01*
X168062631Y-86108217D01*
X168075047Y-86115658D01*
X168086673Y-86124281D01*
X168097398Y-86134002D01*
X168107119Y-86144727D01*
X168115742Y-86156353D01*
X168123183Y-86168769D01*
X168129372Y-86181854D01*
X168134249Y-86195483D01*
X168137766Y-86209524D01*
X168139890Y-86223842D01*
X168140600Y-86238300D01*
X168140600Y-86583300D01*
X168139890Y-86597758D01*
X168137766Y-86612076D01*
X168134249Y-86626117D01*
X168129372Y-86639746D01*
X168123183Y-86652831D01*
X168115742Y-86665247D01*
X168107119Y-86676873D01*
X168097398Y-86687598D01*
X168086673Y-86697319D01*
X168075047Y-86705942D01*
X168062631Y-86713383D01*
X168049546Y-86719572D01*
X168035917Y-86724449D01*
X168021876Y-86727966D01*
X168007558Y-86730090D01*
X167993100Y-86730800D01*
X167698100Y-86730800D01*
X167683642Y-86730090D01*
X167669324Y-86727966D01*
X167655283Y-86724449D01*
X167641654Y-86719572D01*
X167628569Y-86713383D01*
X167616153Y-86705942D01*
X167604527Y-86697319D01*
X167593802Y-86687598D01*
X167584081Y-86676873D01*
X167575458Y-86665247D01*
X167568017Y-86652831D01*
X167561828Y-86639746D01*
X167556951Y-86626117D01*
X167553434Y-86612076D01*
X167551310Y-86597758D01*
X167550600Y-86583300D01*
X167550600Y-86238300D01*
X167551310Y-86223842D01*
X167553434Y-86209524D01*
X167556951Y-86195483D01*
X167561828Y-86181854D01*
X167568017Y-86168769D01*
X167575458Y-86156353D01*
X167584081Y-86144727D01*
X167593802Y-86134002D01*
X167604527Y-86124281D01*
X167616153Y-86115658D01*
X167628569Y-86108217D01*
X167641654Y-86102028D01*
X167655283Y-86097151D01*
X167669324Y-86093634D01*
X167683642Y-86091510D01*
X167698100Y-86090800D01*
X167993100Y-86090800D01*
X168007558Y-86091510D01*
X168007558Y-86091510D01*
G37*
D13*
X167845600Y-86410800D03*
D14*
X136453800Y-94208600D03*
X138729800Y-94208600D03*
X140962300Y-88887300D03*
X143238300Y-88887300D03*
D15*
X147663900Y-92252800D03*
D16*
X146138900Y-90777800D03*
X146138900Y-93727800D03*
D10*
G36*
X150504418Y-79957410D02*
G01*
X150518736Y-79959534D01*
X150532777Y-79963051D01*
X150546406Y-79967928D01*
X150559491Y-79974117D01*
X150571907Y-79981558D01*
X150583533Y-79990181D01*
X150594258Y-79999902D01*
X150603979Y-80010627D01*
X150612602Y-80022253D01*
X150620043Y-80034669D01*
X150626232Y-80047754D01*
X150631109Y-80061383D01*
X150634626Y-80075424D01*
X150636750Y-80089742D01*
X150637460Y-80104200D01*
X150637460Y-80449200D01*
X150636750Y-80463658D01*
X150634626Y-80477976D01*
X150631109Y-80492017D01*
X150626232Y-80505646D01*
X150620043Y-80518731D01*
X150612602Y-80531147D01*
X150603979Y-80542773D01*
X150594258Y-80553498D01*
X150583533Y-80563219D01*
X150571907Y-80571842D01*
X150559491Y-80579283D01*
X150546406Y-80585472D01*
X150532777Y-80590349D01*
X150518736Y-80593866D01*
X150504418Y-80595990D01*
X150489960Y-80596700D01*
X150194960Y-80596700D01*
X150180502Y-80595990D01*
X150166184Y-80593866D01*
X150152143Y-80590349D01*
X150138514Y-80585472D01*
X150125429Y-80579283D01*
X150113013Y-80571842D01*
X150101387Y-80563219D01*
X150090662Y-80553498D01*
X150080941Y-80542773D01*
X150072318Y-80531147D01*
X150064877Y-80518731D01*
X150058688Y-80505646D01*
X150053811Y-80492017D01*
X150050294Y-80477976D01*
X150048170Y-80463658D01*
X150047460Y-80449200D01*
X150047460Y-80104200D01*
X150048170Y-80089742D01*
X150050294Y-80075424D01*
X150053811Y-80061383D01*
X150058688Y-80047754D01*
X150064877Y-80034669D01*
X150072318Y-80022253D01*
X150080941Y-80010627D01*
X150090662Y-79999902D01*
X150101387Y-79990181D01*
X150113013Y-79981558D01*
X150125429Y-79974117D01*
X150138514Y-79967928D01*
X150152143Y-79963051D01*
X150166184Y-79959534D01*
X150180502Y-79957410D01*
X150194960Y-79956700D01*
X150489960Y-79956700D01*
X150504418Y-79957410D01*
X150504418Y-79957410D01*
G37*
D13*
X150342460Y-80276700D03*
D10*
G36*
X149534418Y-79957410D02*
G01*
X149548736Y-79959534D01*
X149562777Y-79963051D01*
X149576406Y-79967928D01*
X149589491Y-79974117D01*
X149601907Y-79981558D01*
X149613533Y-79990181D01*
X149624258Y-79999902D01*
X149633979Y-80010627D01*
X149642602Y-80022253D01*
X149650043Y-80034669D01*
X149656232Y-80047754D01*
X149661109Y-80061383D01*
X149664626Y-80075424D01*
X149666750Y-80089742D01*
X149667460Y-80104200D01*
X149667460Y-80449200D01*
X149666750Y-80463658D01*
X149664626Y-80477976D01*
X149661109Y-80492017D01*
X149656232Y-80505646D01*
X149650043Y-80518731D01*
X149642602Y-80531147D01*
X149633979Y-80542773D01*
X149624258Y-80553498D01*
X149613533Y-80563219D01*
X149601907Y-80571842D01*
X149589491Y-80579283D01*
X149576406Y-80585472D01*
X149562777Y-80590349D01*
X149548736Y-80593866D01*
X149534418Y-80595990D01*
X149519960Y-80596700D01*
X149224960Y-80596700D01*
X149210502Y-80595990D01*
X149196184Y-80593866D01*
X149182143Y-80590349D01*
X149168514Y-80585472D01*
X149155429Y-80579283D01*
X149143013Y-80571842D01*
X149131387Y-80563219D01*
X149120662Y-80553498D01*
X149110941Y-80542773D01*
X149102318Y-80531147D01*
X149094877Y-80518731D01*
X149088688Y-80505646D01*
X149083811Y-80492017D01*
X149080294Y-80477976D01*
X149078170Y-80463658D01*
X149077460Y-80449200D01*
X149077460Y-80104200D01*
X149078170Y-80089742D01*
X149080294Y-80075424D01*
X149083811Y-80061383D01*
X149088688Y-80047754D01*
X149094877Y-80034669D01*
X149102318Y-80022253D01*
X149110941Y-80010627D01*
X149120662Y-79999902D01*
X149131387Y-79990181D01*
X149143013Y-79981558D01*
X149155429Y-79974117D01*
X149168514Y-79967928D01*
X149182143Y-79963051D01*
X149196184Y-79959534D01*
X149210502Y-79957410D01*
X149224960Y-79956700D01*
X149519960Y-79956700D01*
X149534418Y-79957410D01*
X149534418Y-79957410D01*
G37*
D13*
X149372460Y-80276700D03*
D10*
G36*
X150504418Y-80973410D02*
G01*
X150518736Y-80975534D01*
X150532777Y-80979051D01*
X150546406Y-80983928D01*
X150559491Y-80990117D01*
X150571907Y-80997558D01*
X150583533Y-81006181D01*
X150594258Y-81015902D01*
X150603979Y-81026627D01*
X150612602Y-81038253D01*
X150620043Y-81050669D01*
X150626232Y-81063754D01*
X150631109Y-81077383D01*
X150634626Y-81091424D01*
X150636750Y-81105742D01*
X150637460Y-81120200D01*
X150637460Y-81465200D01*
X150636750Y-81479658D01*
X150634626Y-81493976D01*
X150631109Y-81508017D01*
X150626232Y-81521646D01*
X150620043Y-81534731D01*
X150612602Y-81547147D01*
X150603979Y-81558773D01*
X150594258Y-81569498D01*
X150583533Y-81579219D01*
X150571907Y-81587842D01*
X150559491Y-81595283D01*
X150546406Y-81601472D01*
X150532777Y-81606349D01*
X150518736Y-81609866D01*
X150504418Y-81611990D01*
X150489960Y-81612700D01*
X150194960Y-81612700D01*
X150180502Y-81611990D01*
X150166184Y-81609866D01*
X150152143Y-81606349D01*
X150138514Y-81601472D01*
X150125429Y-81595283D01*
X150113013Y-81587842D01*
X150101387Y-81579219D01*
X150090662Y-81569498D01*
X150080941Y-81558773D01*
X150072318Y-81547147D01*
X150064877Y-81534731D01*
X150058688Y-81521646D01*
X150053811Y-81508017D01*
X150050294Y-81493976D01*
X150048170Y-81479658D01*
X150047460Y-81465200D01*
X150047460Y-81120200D01*
X150048170Y-81105742D01*
X150050294Y-81091424D01*
X150053811Y-81077383D01*
X150058688Y-81063754D01*
X150064877Y-81050669D01*
X150072318Y-81038253D01*
X150080941Y-81026627D01*
X150090662Y-81015902D01*
X150101387Y-81006181D01*
X150113013Y-80997558D01*
X150125429Y-80990117D01*
X150138514Y-80983928D01*
X150152143Y-80979051D01*
X150166184Y-80975534D01*
X150180502Y-80973410D01*
X150194960Y-80972700D01*
X150489960Y-80972700D01*
X150504418Y-80973410D01*
X150504418Y-80973410D01*
G37*
D13*
X150342460Y-81292700D03*
D10*
G36*
X149534418Y-80973410D02*
G01*
X149548736Y-80975534D01*
X149562777Y-80979051D01*
X149576406Y-80983928D01*
X149589491Y-80990117D01*
X149601907Y-80997558D01*
X149613533Y-81006181D01*
X149624258Y-81015902D01*
X149633979Y-81026627D01*
X149642602Y-81038253D01*
X149650043Y-81050669D01*
X149656232Y-81063754D01*
X149661109Y-81077383D01*
X149664626Y-81091424D01*
X149666750Y-81105742D01*
X149667460Y-81120200D01*
X149667460Y-81465200D01*
X149666750Y-81479658D01*
X149664626Y-81493976D01*
X149661109Y-81508017D01*
X149656232Y-81521646D01*
X149650043Y-81534731D01*
X149642602Y-81547147D01*
X149633979Y-81558773D01*
X149624258Y-81569498D01*
X149613533Y-81579219D01*
X149601907Y-81587842D01*
X149589491Y-81595283D01*
X149576406Y-81601472D01*
X149562777Y-81606349D01*
X149548736Y-81609866D01*
X149534418Y-81611990D01*
X149519960Y-81612700D01*
X149224960Y-81612700D01*
X149210502Y-81611990D01*
X149196184Y-81609866D01*
X149182143Y-81606349D01*
X149168514Y-81601472D01*
X149155429Y-81595283D01*
X149143013Y-81587842D01*
X149131387Y-81579219D01*
X149120662Y-81569498D01*
X149110941Y-81558773D01*
X149102318Y-81547147D01*
X149094877Y-81534731D01*
X149088688Y-81521646D01*
X149083811Y-81508017D01*
X149080294Y-81493976D01*
X149078170Y-81479658D01*
X149077460Y-81465200D01*
X149077460Y-81120200D01*
X149078170Y-81105742D01*
X149080294Y-81091424D01*
X149083811Y-81077383D01*
X149088688Y-81063754D01*
X149094877Y-81050669D01*
X149102318Y-81038253D01*
X149110941Y-81026627D01*
X149120662Y-81015902D01*
X149131387Y-81006181D01*
X149143013Y-80997558D01*
X149155429Y-80990117D01*
X149168514Y-80983928D01*
X149182143Y-80979051D01*
X149196184Y-80975534D01*
X149210502Y-80973410D01*
X149224960Y-80972700D01*
X149519960Y-80972700D01*
X149534418Y-80973410D01*
X149534418Y-80973410D01*
G37*
D13*
X149372460Y-81292700D03*
D10*
G36*
X150504418Y-81989410D02*
G01*
X150518736Y-81991534D01*
X150532777Y-81995051D01*
X150546406Y-81999928D01*
X150559491Y-82006117D01*
X150571907Y-82013558D01*
X150583533Y-82022181D01*
X150594258Y-82031902D01*
X150603979Y-82042627D01*
X150612602Y-82054253D01*
X150620043Y-82066669D01*
X150626232Y-82079754D01*
X150631109Y-82093383D01*
X150634626Y-82107424D01*
X150636750Y-82121742D01*
X150637460Y-82136200D01*
X150637460Y-82481200D01*
X150636750Y-82495658D01*
X150634626Y-82509976D01*
X150631109Y-82524017D01*
X150626232Y-82537646D01*
X150620043Y-82550731D01*
X150612602Y-82563147D01*
X150603979Y-82574773D01*
X150594258Y-82585498D01*
X150583533Y-82595219D01*
X150571907Y-82603842D01*
X150559491Y-82611283D01*
X150546406Y-82617472D01*
X150532777Y-82622349D01*
X150518736Y-82625866D01*
X150504418Y-82627990D01*
X150489960Y-82628700D01*
X150194960Y-82628700D01*
X150180502Y-82627990D01*
X150166184Y-82625866D01*
X150152143Y-82622349D01*
X150138514Y-82617472D01*
X150125429Y-82611283D01*
X150113013Y-82603842D01*
X150101387Y-82595219D01*
X150090662Y-82585498D01*
X150080941Y-82574773D01*
X150072318Y-82563147D01*
X150064877Y-82550731D01*
X150058688Y-82537646D01*
X150053811Y-82524017D01*
X150050294Y-82509976D01*
X150048170Y-82495658D01*
X150047460Y-82481200D01*
X150047460Y-82136200D01*
X150048170Y-82121742D01*
X150050294Y-82107424D01*
X150053811Y-82093383D01*
X150058688Y-82079754D01*
X150064877Y-82066669D01*
X150072318Y-82054253D01*
X150080941Y-82042627D01*
X150090662Y-82031902D01*
X150101387Y-82022181D01*
X150113013Y-82013558D01*
X150125429Y-82006117D01*
X150138514Y-81999928D01*
X150152143Y-81995051D01*
X150166184Y-81991534D01*
X150180502Y-81989410D01*
X150194960Y-81988700D01*
X150489960Y-81988700D01*
X150504418Y-81989410D01*
X150504418Y-81989410D01*
G37*
D13*
X150342460Y-82308700D03*
D10*
G36*
X149534418Y-81989410D02*
G01*
X149548736Y-81991534D01*
X149562777Y-81995051D01*
X149576406Y-81999928D01*
X149589491Y-82006117D01*
X149601907Y-82013558D01*
X149613533Y-82022181D01*
X149624258Y-82031902D01*
X149633979Y-82042627D01*
X149642602Y-82054253D01*
X149650043Y-82066669D01*
X149656232Y-82079754D01*
X149661109Y-82093383D01*
X149664626Y-82107424D01*
X149666750Y-82121742D01*
X149667460Y-82136200D01*
X149667460Y-82481200D01*
X149666750Y-82495658D01*
X149664626Y-82509976D01*
X149661109Y-82524017D01*
X149656232Y-82537646D01*
X149650043Y-82550731D01*
X149642602Y-82563147D01*
X149633979Y-82574773D01*
X149624258Y-82585498D01*
X149613533Y-82595219D01*
X149601907Y-82603842D01*
X149589491Y-82611283D01*
X149576406Y-82617472D01*
X149562777Y-82622349D01*
X149548736Y-82625866D01*
X149534418Y-82627990D01*
X149519960Y-82628700D01*
X149224960Y-82628700D01*
X149210502Y-82627990D01*
X149196184Y-82625866D01*
X149182143Y-82622349D01*
X149168514Y-82617472D01*
X149155429Y-82611283D01*
X149143013Y-82603842D01*
X149131387Y-82595219D01*
X149120662Y-82585498D01*
X149110941Y-82574773D01*
X149102318Y-82563147D01*
X149094877Y-82550731D01*
X149088688Y-82537646D01*
X149083811Y-82524017D01*
X149080294Y-82509976D01*
X149078170Y-82495658D01*
X149077460Y-82481200D01*
X149077460Y-82136200D01*
X149078170Y-82121742D01*
X149080294Y-82107424D01*
X149083811Y-82093383D01*
X149088688Y-82079754D01*
X149094877Y-82066669D01*
X149102318Y-82054253D01*
X149110941Y-82042627D01*
X149120662Y-82031902D01*
X149131387Y-82022181D01*
X149143013Y-82013558D01*
X149155429Y-82006117D01*
X149168514Y-81999928D01*
X149182143Y-81995051D01*
X149196184Y-81991534D01*
X149210502Y-81989410D01*
X149224960Y-81988700D01*
X149519960Y-81988700D01*
X149534418Y-81989410D01*
X149534418Y-81989410D01*
G37*
D13*
X149372460Y-82308700D03*
D10*
G36*
X167037558Y-83636176D02*
G01*
X167051876Y-83638300D01*
X167065917Y-83641817D01*
X167079546Y-83646694D01*
X167092631Y-83652883D01*
X167105047Y-83660324D01*
X167116673Y-83668947D01*
X167127398Y-83678668D01*
X167137119Y-83689393D01*
X167145742Y-83701019D01*
X167153183Y-83713435D01*
X167159372Y-83726520D01*
X167164249Y-83740149D01*
X167167766Y-83754190D01*
X167169890Y-83768508D01*
X167170600Y-83782966D01*
X167170600Y-84127966D01*
X167169890Y-84142424D01*
X167167766Y-84156742D01*
X167164249Y-84170783D01*
X167159372Y-84184412D01*
X167153183Y-84197497D01*
X167145742Y-84209913D01*
X167137119Y-84221539D01*
X167127398Y-84232264D01*
X167116673Y-84241985D01*
X167105047Y-84250608D01*
X167092631Y-84258049D01*
X167079546Y-84264238D01*
X167065917Y-84269115D01*
X167051876Y-84272632D01*
X167037558Y-84274756D01*
X167023100Y-84275466D01*
X166728100Y-84275466D01*
X166713642Y-84274756D01*
X166699324Y-84272632D01*
X166685283Y-84269115D01*
X166671654Y-84264238D01*
X166658569Y-84258049D01*
X166646153Y-84250608D01*
X166634527Y-84241985D01*
X166623802Y-84232264D01*
X166614081Y-84221539D01*
X166605458Y-84209913D01*
X166598017Y-84197497D01*
X166591828Y-84184412D01*
X166586951Y-84170783D01*
X166583434Y-84156742D01*
X166581310Y-84142424D01*
X166580600Y-84127966D01*
X166580600Y-83782966D01*
X166581310Y-83768508D01*
X166583434Y-83754190D01*
X166586951Y-83740149D01*
X166591828Y-83726520D01*
X166598017Y-83713435D01*
X166605458Y-83701019D01*
X166614081Y-83689393D01*
X166623802Y-83678668D01*
X166634527Y-83668947D01*
X166646153Y-83660324D01*
X166658569Y-83652883D01*
X166671654Y-83646694D01*
X166685283Y-83641817D01*
X166699324Y-83638300D01*
X166713642Y-83636176D01*
X166728100Y-83635466D01*
X167023100Y-83635466D01*
X167037558Y-83636176D01*
X167037558Y-83636176D01*
G37*
D13*
X166875600Y-83955466D03*
D10*
G36*
X168007558Y-83636176D02*
G01*
X168021876Y-83638300D01*
X168035917Y-83641817D01*
X168049546Y-83646694D01*
X168062631Y-83652883D01*
X168075047Y-83660324D01*
X168086673Y-83668947D01*
X168097398Y-83678668D01*
X168107119Y-83689393D01*
X168115742Y-83701019D01*
X168123183Y-83713435D01*
X168129372Y-83726520D01*
X168134249Y-83740149D01*
X168137766Y-83754190D01*
X168139890Y-83768508D01*
X168140600Y-83782966D01*
X168140600Y-84127966D01*
X168139890Y-84142424D01*
X168137766Y-84156742D01*
X168134249Y-84170783D01*
X168129372Y-84184412D01*
X168123183Y-84197497D01*
X168115742Y-84209913D01*
X168107119Y-84221539D01*
X168097398Y-84232264D01*
X168086673Y-84241985D01*
X168075047Y-84250608D01*
X168062631Y-84258049D01*
X168049546Y-84264238D01*
X168035917Y-84269115D01*
X168021876Y-84272632D01*
X168007558Y-84274756D01*
X167993100Y-84275466D01*
X167698100Y-84275466D01*
X167683642Y-84274756D01*
X167669324Y-84272632D01*
X167655283Y-84269115D01*
X167641654Y-84264238D01*
X167628569Y-84258049D01*
X167616153Y-84250608D01*
X167604527Y-84241985D01*
X167593802Y-84232264D01*
X167584081Y-84221539D01*
X167575458Y-84209913D01*
X167568017Y-84197497D01*
X167561828Y-84184412D01*
X167556951Y-84170783D01*
X167553434Y-84156742D01*
X167551310Y-84142424D01*
X167550600Y-84127966D01*
X167550600Y-83782966D01*
X167551310Y-83768508D01*
X167553434Y-83754190D01*
X167556951Y-83740149D01*
X167561828Y-83726520D01*
X167568017Y-83713435D01*
X167575458Y-83701019D01*
X167584081Y-83689393D01*
X167593802Y-83678668D01*
X167604527Y-83668947D01*
X167616153Y-83660324D01*
X167628569Y-83652883D01*
X167641654Y-83646694D01*
X167655283Y-83641817D01*
X167669324Y-83638300D01*
X167683642Y-83636176D01*
X167698100Y-83635466D01*
X167993100Y-83635466D01*
X168007558Y-83636176D01*
X168007558Y-83636176D01*
G37*
D13*
X167845600Y-83955466D03*
D10*
G36*
X166986758Y-82408510D02*
G01*
X167001076Y-82410634D01*
X167015117Y-82414151D01*
X167028746Y-82419028D01*
X167041831Y-82425217D01*
X167054247Y-82432658D01*
X167065873Y-82441281D01*
X167076598Y-82451002D01*
X167086319Y-82461727D01*
X167094942Y-82473353D01*
X167102383Y-82485769D01*
X167108572Y-82498854D01*
X167113449Y-82512483D01*
X167116966Y-82526524D01*
X167119090Y-82540842D01*
X167119800Y-82555300D01*
X167119800Y-82900300D01*
X167119090Y-82914758D01*
X167116966Y-82929076D01*
X167113449Y-82943117D01*
X167108572Y-82956746D01*
X167102383Y-82969831D01*
X167094942Y-82982247D01*
X167086319Y-82993873D01*
X167076598Y-83004598D01*
X167065873Y-83014319D01*
X167054247Y-83022942D01*
X167041831Y-83030383D01*
X167028746Y-83036572D01*
X167015117Y-83041449D01*
X167001076Y-83044966D01*
X166986758Y-83047090D01*
X166972300Y-83047800D01*
X166677300Y-83047800D01*
X166662842Y-83047090D01*
X166648524Y-83044966D01*
X166634483Y-83041449D01*
X166620854Y-83036572D01*
X166607769Y-83030383D01*
X166595353Y-83022942D01*
X166583727Y-83014319D01*
X166573002Y-83004598D01*
X166563281Y-82993873D01*
X166554658Y-82982247D01*
X166547217Y-82969831D01*
X166541028Y-82956746D01*
X166536151Y-82943117D01*
X166532634Y-82929076D01*
X166530510Y-82914758D01*
X166529800Y-82900300D01*
X166529800Y-82555300D01*
X166530510Y-82540842D01*
X166532634Y-82526524D01*
X166536151Y-82512483D01*
X166541028Y-82498854D01*
X166547217Y-82485769D01*
X166554658Y-82473353D01*
X166563281Y-82461727D01*
X166573002Y-82451002D01*
X166583727Y-82441281D01*
X166595353Y-82432658D01*
X166607769Y-82425217D01*
X166620854Y-82419028D01*
X166634483Y-82414151D01*
X166648524Y-82410634D01*
X166662842Y-82408510D01*
X166677300Y-82407800D01*
X166972300Y-82407800D01*
X166986758Y-82408510D01*
X166986758Y-82408510D01*
G37*
D13*
X166824800Y-82727800D03*
D10*
G36*
X167956758Y-82408510D02*
G01*
X167971076Y-82410634D01*
X167985117Y-82414151D01*
X167998746Y-82419028D01*
X168011831Y-82425217D01*
X168024247Y-82432658D01*
X168035873Y-82441281D01*
X168046598Y-82451002D01*
X168056319Y-82461727D01*
X168064942Y-82473353D01*
X168072383Y-82485769D01*
X168078572Y-82498854D01*
X168083449Y-82512483D01*
X168086966Y-82526524D01*
X168089090Y-82540842D01*
X168089800Y-82555300D01*
X168089800Y-82900300D01*
X168089090Y-82914758D01*
X168086966Y-82929076D01*
X168083449Y-82943117D01*
X168078572Y-82956746D01*
X168072383Y-82969831D01*
X168064942Y-82982247D01*
X168056319Y-82993873D01*
X168046598Y-83004598D01*
X168035873Y-83014319D01*
X168024247Y-83022942D01*
X168011831Y-83030383D01*
X167998746Y-83036572D01*
X167985117Y-83041449D01*
X167971076Y-83044966D01*
X167956758Y-83047090D01*
X167942300Y-83047800D01*
X167647300Y-83047800D01*
X167632842Y-83047090D01*
X167618524Y-83044966D01*
X167604483Y-83041449D01*
X167590854Y-83036572D01*
X167577769Y-83030383D01*
X167565353Y-83022942D01*
X167553727Y-83014319D01*
X167543002Y-83004598D01*
X167533281Y-82993873D01*
X167524658Y-82982247D01*
X167517217Y-82969831D01*
X167511028Y-82956746D01*
X167506151Y-82943117D01*
X167502634Y-82929076D01*
X167500510Y-82914758D01*
X167499800Y-82900300D01*
X167499800Y-82555300D01*
X167500510Y-82540842D01*
X167502634Y-82526524D01*
X167506151Y-82512483D01*
X167511028Y-82498854D01*
X167517217Y-82485769D01*
X167524658Y-82473353D01*
X167533281Y-82461727D01*
X167543002Y-82451002D01*
X167553727Y-82441281D01*
X167565353Y-82432658D01*
X167577769Y-82425217D01*
X167590854Y-82419028D01*
X167604483Y-82414151D01*
X167618524Y-82410634D01*
X167632842Y-82408510D01*
X167647300Y-82407800D01*
X167942300Y-82407800D01*
X167956758Y-82408510D01*
X167956758Y-82408510D01*
G37*
D13*
X167794800Y-82727800D03*
D10*
G36*
X141476291Y-90685953D02*
G01*
X141497526Y-90689103D01*
X141518350Y-90694319D01*
X141538562Y-90701551D01*
X141557968Y-90710730D01*
X141576381Y-90721766D01*
X141593624Y-90734554D01*
X141609530Y-90748970D01*
X141623946Y-90764876D01*
X141636734Y-90782119D01*
X141647770Y-90800532D01*
X141656949Y-90819938D01*
X141664181Y-90840150D01*
X141669397Y-90860974D01*
X141672547Y-90882209D01*
X141673600Y-90903650D01*
X141673600Y-91341150D01*
X141672547Y-91362591D01*
X141669397Y-91383826D01*
X141664181Y-91404650D01*
X141656949Y-91424862D01*
X141647770Y-91444268D01*
X141636734Y-91462681D01*
X141623946Y-91479924D01*
X141609530Y-91495830D01*
X141593624Y-91510246D01*
X141576381Y-91523034D01*
X141557968Y-91534070D01*
X141538562Y-91543249D01*
X141518350Y-91550481D01*
X141497526Y-91555697D01*
X141476291Y-91558847D01*
X141454850Y-91559900D01*
X140942350Y-91559900D01*
X140920909Y-91558847D01*
X140899674Y-91555697D01*
X140878850Y-91550481D01*
X140858638Y-91543249D01*
X140839232Y-91534070D01*
X140820819Y-91523034D01*
X140803576Y-91510246D01*
X140787670Y-91495830D01*
X140773254Y-91479924D01*
X140760466Y-91462681D01*
X140749430Y-91444268D01*
X140740251Y-91424862D01*
X140733019Y-91404650D01*
X140727803Y-91383826D01*
X140724653Y-91362591D01*
X140723600Y-91341150D01*
X140723600Y-90903650D01*
X140724653Y-90882209D01*
X140727803Y-90860974D01*
X140733019Y-90840150D01*
X140740251Y-90819938D01*
X140749430Y-90800532D01*
X140760466Y-90782119D01*
X140773254Y-90764876D01*
X140787670Y-90748970D01*
X140803576Y-90734554D01*
X140820819Y-90721766D01*
X140839232Y-90710730D01*
X140858638Y-90701551D01*
X140878850Y-90694319D01*
X140899674Y-90689103D01*
X140920909Y-90685953D01*
X140942350Y-90684900D01*
X141454850Y-90684900D01*
X141476291Y-90685953D01*
X141476291Y-90685953D01*
G37*
D11*
X141198600Y-91122400D03*
D10*
G36*
X141476291Y-92260953D02*
G01*
X141497526Y-92264103D01*
X141518350Y-92269319D01*
X141538562Y-92276551D01*
X141557968Y-92285730D01*
X141576381Y-92296766D01*
X141593624Y-92309554D01*
X141609530Y-92323970D01*
X141623946Y-92339876D01*
X141636734Y-92357119D01*
X141647770Y-92375532D01*
X141656949Y-92394938D01*
X141664181Y-92415150D01*
X141669397Y-92435974D01*
X141672547Y-92457209D01*
X141673600Y-92478650D01*
X141673600Y-92916150D01*
X141672547Y-92937591D01*
X141669397Y-92958826D01*
X141664181Y-92979650D01*
X141656949Y-92999862D01*
X141647770Y-93019268D01*
X141636734Y-93037681D01*
X141623946Y-93054924D01*
X141609530Y-93070830D01*
X141593624Y-93085246D01*
X141576381Y-93098034D01*
X141557968Y-93109070D01*
X141538562Y-93118249D01*
X141518350Y-93125481D01*
X141497526Y-93130697D01*
X141476291Y-93133847D01*
X141454850Y-93134900D01*
X140942350Y-93134900D01*
X140920909Y-93133847D01*
X140899674Y-93130697D01*
X140878850Y-93125481D01*
X140858638Y-93118249D01*
X140839232Y-93109070D01*
X140820819Y-93098034D01*
X140803576Y-93085246D01*
X140787670Y-93070830D01*
X140773254Y-93054924D01*
X140760466Y-93037681D01*
X140749430Y-93019268D01*
X140740251Y-92999862D01*
X140733019Y-92979650D01*
X140727803Y-92958826D01*
X140724653Y-92937591D01*
X140723600Y-92916150D01*
X140723600Y-92478650D01*
X140724653Y-92457209D01*
X140727803Y-92435974D01*
X140733019Y-92415150D01*
X140740251Y-92394938D01*
X140749430Y-92375532D01*
X140760466Y-92357119D01*
X140773254Y-92339876D01*
X140787670Y-92323970D01*
X140803576Y-92309554D01*
X140820819Y-92296766D01*
X140839232Y-92285730D01*
X140858638Y-92276551D01*
X140878850Y-92269319D01*
X140899674Y-92264103D01*
X140920909Y-92260953D01*
X140942350Y-92259900D01*
X141454850Y-92259900D01*
X141476291Y-92260953D01*
X141476291Y-92260953D01*
G37*
D11*
X141198600Y-92697400D03*
D10*
G36*
X143012991Y-90685953D02*
G01*
X143034226Y-90689103D01*
X143055050Y-90694319D01*
X143075262Y-90701551D01*
X143094668Y-90710730D01*
X143113081Y-90721766D01*
X143130324Y-90734554D01*
X143146230Y-90748970D01*
X143160646Y-90764876D01*
X143173434Y-90782119D01*
X143184470Y-90800532D01*
X143193649Y-90819938D01*
X143200881Y-90840150D01*
X143206097Y-90860974D01*
X143209247Y-90882209D01*
X143210300Y-90903650D01*
X143210300Y-91341150D01*
X143209247Y-91362591D01*
X143206097Y-91383826D01*
X143200881Y-91404650D01*
X143193649Y-91424862D01*
X143184470Y-91444268D01*
X143173434Y-91462681D01*
X143160646Y-91479924D01*
X143146230Y-91495830D01*
X143130324Y-91510246D01*
X143113081Y-91523034D01*
X143094668Y-91534070D01*
X143075262Y-91543249D01*
X143055050Y-91550481D01*
X143034226Y-91555697D01*
X143012991Y-91558847D01*
X142991550Y-91559900D01*
X142479050Y-91559900D01*
X142457609Y-91558847D01*
X142436374Y-91555697D01*
X142415550Y-91550481D01*
X142395338Y-91543249D01*
X142375932Y-91534070D01*
X142357519Y-91523034D01*
X142340276Y-91510246D01*
X142324370Y-91495830D01*
X142309954Y-91479924D01*
X142297166Y-91462681D01*
X142286130Y-91444268D01*
X142276951Y-91424862D01*
X142269719Y-91404650D01*
X142264503Y-91383826D01*
X142261353Y-91362591D01*
X142260300Y-91341150D01*
X142260300Y-90903650D01*
X142261353Y-90882209D01*
X142264503Y-90860974D01*
X142269719Y-90840150D01*
X142276951Y-90819938D01*
X142286130Y-90800532D01*
X142297166Y-90782119D01*
X142309954Y-90764876D01*
X142324370Y-90748970D01*
X142340276Y-90734554D01*
X142357519Y-90721766D01*
X142375932Y-90710730D01*
X142395338Y-90701551D01*
X142415550Y-90694319D01*
X142436374Y-90689103D01*
X142457609Y-90685953D01*
X142479050Y-90684900D01*
X142991550Y-90684900D01*
X143012991Y-90685953D01*
X143012991Y-90685953D01*
G37*
D11*
X142735300Y-91122400D03*
D10*
G36*
X143012991Y-92260953D02*
G01*
X143034226Y-92264103D01*
X143055050Y-92269319D01*
X143075262Y-92276551D01*
X143094668Y-92285730D01*
X143113081Y-92296766D01*
X143130324Y-92309554D01*
X143146230Y-92323970D01*
X143160646Y-92339876D01*
X143173434Y-92357119D01*
X143184470Y-92375532D01*
X143193649Y-92394938D01*
X143200881Y-92415150D01*
X143206097Y-92435974D01*
X143209247Y-92457209D01*
X143210300Y-92478650D01*
X143210300Y-92916150D01*
X143209247Y-92937591D01*
X143206097Y-92958826D01*
X143200881Y-92979650D01*
X143193649Y-92999862D01*
X143184470Y-93019268D01*
X143173434Y-93037681D01*
X143160646Y-93054924D01*
X143146230Y-93070830D01*
X143130324Y-93085246D01*
X143113081Y-93098034D01*
X143094668Y-93109070D01*
X143075262Y-93118249D01*
X143055050Y-93125481D01*
X143034226Y-93130697D01*
X143012991Y-93133847D01*
X142991550Y-93134900D01*
X142479050Y-93134900D01*
X142457609Y-93133847D01*
X142436374Y-93130697D01*
X142415550Y-93125481D01*
X142395338Y-93118249D01*
X142375932Y-93109070D01*
X142357519Y-93098034D01*
X142340276Y-93085246D01*
X142324370Y-93070830D01*
X142309954Y-93054924D01*
X142297166Y-93037681D01*
X142286130Y-93019268D01*
X142276951Y-92999862D01*
X142269719Y-92979650D01*
X142264503Y-92958826D01*
X142261353Y-92937591D01*
X142260300Y-92916150D01*
X142260300Y-92478650D01*
X142261353Y-92457209D01*
X142264503Y-92435974D01*
X142269719Y-92415150D01*
X142276951Y-92394938D01*
X142286130Y-92375532D01*
X142297166Y-92357119D01*
X142309954Y-92339876D01*
X142324370Y-92323970D01*
X142340276Y-92309554D01*
X142357519Y-92296766D01*
X142375932Y-92285730D01*
X142395338Y-92276551D01*
X142415550Y-92269319D01*
X142436374Y-92264103D01*
X142457609Y-92260953D01*
X142479050Y-92259900D01*
X142991550Y-92259900D01*
X143012991Y-92260953D01*
X143012991Y-92260953D01*
G37*
D11*
X142735300Y-92697400D03*
D10*
G36*
X134821491Y-90165253D02*
G01*
X134842726Y-90168403D01*
X134863550Y-90173619D01*
X134883762Y-90180851D01*
X134903168Y-90190030D01*
X134921581Y-90201066D01*
X134938824Y-90213854D01*
X134954730Y-90228270D01*
X134969146Y-90244176D01*
X134981934Y-90261419D01*
X134992970Y-90279832D01*
X135002149Y-90299238D01*
X135009381Y-90319450D01*
X135014597Y-90340274D01*
X135017747Y-90361509D01*
X135018800Y-90382950D01*
X135018800Y-90820450D01*
X135017747Y-90841891D01*
X135014597Y-90863126D01*
X135009381Y-90883950D01*
X135002149Y-90904162D01*
X134992970Y-90923568D01*
X134981934Y-90941981D01*
X134969146Y-90959224D01*
X134954730Y-90975130D01*
X134938824Y-90989546D01*
X134921581Y-91002334D01*
X134903168Y-91013370D01*
X134883762Y-91022549D01*
X134863550Y-91029781D01*
X134842726Y-91034997D01*
X134821491Y-91038147D01*
X134800050Y-91039200D01*
X134287550Y-91039200D01*
X134266109Y-91038147D01*
X134244874Y-91034997D01*
X134224050Y-91029781D01*
X134203838Y-91022549D01*
X134184432Y-91013370D01*
X134166019Y-91002334D01*
X134148776Y-90989546D01*
X134132870Y-90975130D01*
X134118454Y-90959224D01*
X134105666Y-90941981D01*
X134094630Y-90923568D01*
X134085451Y-90904162D01*
X134078219Y-90883950D01*
X134073003Y-90863126D01*
X134069853Y-90841891D01*
X134068800Y-90820450D01*
X134068800Y-90382950D01*
X134069853Y-90361509D01*
X134073003Y-90340274D01*
X134078219Y-90319450D01*
X134085451Y-90299238D01*
X134094630Y-90279832D01*
X134105666Y-90261419D01*
X134118454Y-90244176D01*
X134132870Y-90228270D01*
X134148776Y-90213854D01*
X134166019Y-90201066D01*
X134184432Y-90190030D01*
X134203838Y-90180851D01*
X134224050Y-90173619D01*
X134244874Y-90168403D01*
X134266109Y-90165253D01*
X134287550Y-90164200D01*
X134800050Y-90164200D01*
X134821491Y-90165253D01*
X134821491Y-90165253D01*
G37*
D11*
X134543800Y-90601700D03*
D10*
G36*
X134821491Y-91740253D02*
G01*
X134842726Y-91743403D01*
X134863550Y-91748619D01*
X134883762Y-91755851D01*
X134903168Y-91765030D01*
X134921581Y-91776066D01*
X134938824Y-91788854D01*
X134954730Y-91803270D01*
X134969146Y-91819176D01*
X134981934Y-91836419D01*
X134992970Y-91854832D01*
X135002149Y-91874238D01*
X135009381Y-91894450D01*
X135014597Y-91915274D01*
X135017747Y-91936509D01*
X135018800Y-91957950D01*
X135018800Y-92395450D01*
X135017747Y-92416891D01*
X135014597Y-92438126D01*
X135009381Y-92458950D01*
X135002149Y-92479162D01*
X134992970Y-92498568D01*
X134981934Y-92516981D01*
X134969146Y-92534224D01*
X134954730Y-92550130D01*
X134938824Y-92564546D01*
X134921581Y-92577334D01*
X134903168Y-92588370D01*
X134883762Y-92597549D01*
X134863550Y-92604781D01*
X134842726Y-92609997D01*
X134821491Y-92613147D01*
X134800050Y-92614200D01*
X134287550Y-92614200D01*
X134266109Y-92613147D01*
X134244874Y-92609997D01*
X134224050Y-92604781D01*
X134203838Y-92597549D01*
X134184432Y-92588370D01*
X134166019Y-92577334D01*
X134148776Y-92564546D01*
X134132870Y-92550130D01*
X134118454Y-92534224D01*
X134105666Y-92516981D01*
X134094630Y-92498568D01*
X134085451Y-92479162D01*
X134078219Y-92458950D01*
X134073003Y-92438126D01*
X134069853Y-92416891D01*
X134068800Y-92395450D01*
X134068800Y-91957950D01*
X134069853Y-91936509D01*
X134073003Y-91915274D01*
X134078219Y-91894450D01*
X134085451Y-91874238D01*
X134094630Y-91854832D01*
X134105666Y-91836419D01*
X134118454Y-91819176D01*
X134132870Y-91803270D01*
X134148776Y-91788854D01*
X134166019Y-91776066D01*
X134184432Y-91765030D01*
X134203838Y-91755851D01*
X134224050Y-91748619D01*
X134244874Y-91743403D01*
X134266109Y-91740253D01*
X134287550Y-91739200D01*
X134800050Y-91739200D01*
X134821491Y-91740253D01*
X134821491Y-91740253D01*
G37*
D11*
X134543800Y-92176700D03*
D17*
X139606200Y-90223300D03*
X139606200Y-92123300D03*
X137406200Y-92123300D03*
X137406200Y-91173300D03*
X137406200Y-90223300D03*
D10*
G36*
X136231191Y-91714853D02*
G01*
X136252426Y-91718003D01*
X136273250Y-91723219D01*
X136293462Y-91730451D01*
X136312868Y-91739630D01*
X136331281Y-91750666D01*
X136348524Y-91763454D01*
X136364430Y-91777870D01*
X136378846Y-91793776D01*
X136391634Y-91811019D01*
X136402670Y-91829432D01*
X136411849Y-91848838D01*
X136419081Y-91869050D01*
X136424297Y-91889874D01*
X136427447Y-91911109D01*
X136428500Y-91932550D01*
X136428500Y-92370050D01*
X136427447Y-92391491D01*
X136424297Y-92412726D01*
X136419081Y-92433550D01*
X136411849Y-92453762D01*
X136402670Y-92473168D01*
X136391634Y-92491581D01*
X136378846Y-92508824D01*
X136364430Y-92524730D01*
X136348524Y-92539146D01*
X136331281Y-92551934D01*
X136312868Y-92562970D01*
X136293462Y-92572149D01*
X136273250Y-92579381D01*
X136252426Y-92584597D01*
X136231191Y-92587747D01*
X136209750Y-92588800D01*
X135697250Y-92588800D01*
X135675809Y-92587747D01*
X135654574Y-92584597D01*
X135633750Y-92579381D01*
X135613538Y-92572149D01*
X135594132Y-92562970D01*
X135575719Y-92551934D01*
X135558476Y-92539146D01*
X135542570Y-92524730D01*
X135528154Y-92508824D01*
X135515366Y-92491581D01*
X135504330Y-92473168D01*
X135495151Y-92453762D01*
X135487919Y-92433550D01*
X135482703Y-92412726D01*
X135479553Y-92391491D01*
X135478500Y-92370050D01*
X135478500Y-91932550D01*
X135479553Y-91911109D01*
X135482703Y-91889874D01*
X135487919Y-91869050D01*
X135495151Y-91848838D01*
X135504330Y-91829432D01*
X135515366Y-91811019D01*
X135528154Y-91793776D01*
X135542570Y-91777870D01*
X135558476Y-91763454D01*
X135575719Y-91750666D01*
X135594132Y-91739630D01*
X135613538Y-91730451D01*
X135633750Y-91723219D01*
X135654574Y-91718003D01*
X135675809Y-91714853D01*
X135697250Y-91713800D01*
X136209750Y-91713800D01*
X136231191Y-91714853D01*
X136231191Y-91714853D01*
G37*
D11*
X135953500Y-92151300D03*
D10*
G36*
X136231191Y-90139853D02*
G01*
X136252426Y-90143003D01*
X136273250Y-90148219D01*
X136293462Y-90155451D01*
X136312868Y-90164630D01*
X136331281Y-90175666D01*
X136348524Y-90188454D01*
X136364430Y-90202870D01*
X136378846Y-90218776D01*
X136391634Y-90236019D01*
X136402670Y-90254432D01*
X136411849Y-90273838D01*
X136419081Y-90294050D01*
X136424297Y-90314874D01*
X136427447Y-90336109D01*
X136428500Y-90357550D01*
X136428500Y-90795050D01*
X136427447Y-90816491D01*
X136424297Y-90837726D01*
X136419081Y-90858550D01*
X136411849Y-90878762D01*
X136402670Y-90898168D01*
X136391634Y-90916581D01*
X136378846Y-90933824D01*
X136364430Y-90949730D01*
X136348524Y-90964146D01*
X136331281Y-90976934D01*
X136312868Y-90987970D01*
X136293462Y-90997149D01*
X136273250Y-91004381D01*
X136252426Y-91009597D01*
X136231191Y-91012747D01*
X136209750Y-91013800D01*
X135697250Y-91013800D01*
X135675809Y-91012747D01*
X135654574Y-91009597D01*
X135633750Y-91004381D01*
X135613538Y-90997149D01*
X135594132Y-90987970D01*
X135575719Y-90976934D01*
X135558476Y-90964146D01*
X135542570Y-90949730D01*
X135528154Y-90933824D01*
X135515366Y-90916581D01*
X135504330Y-90898168D01*
X135495151Y-90878762D01*
X135487919Y-90858550D01*
X135482703Y-90837726D01*
X135479553Y-90816491D01*
X135478500Y-90795050D01*
X135478500Y-90357550D01*
X135479553Y-90336109D01*
X135482703Y-90314874D01*
X135487919Y-90294050D01*
X135495151Y-90273838D01*
X135504330Y-90254432D01*
X135515366Y-90236019D01*
X135528154Y-90218776D01*
X135542570Y-90202870D01*
X135558476Y-90188454D01*
X135575719Y-90175666D01*
X135594132Y-90164630D01*
X135613538Y-90155451D01*
X135633750Y-90148219D01*
X135654574Y-90143003D01*
X135675809Y-90139853D01*
X135697250Y-90138800D01*
X136209750Y-90138800D01*
X136231191Y-90139853D01*
X136231191Y-90139853D01*
G37*
D11*
X135953500Y-90576300D03*
D18*
X130107840Y-89160880D03*
X130107840Y-87480880D03*
D19*
X130107840Y-91230880D03*
X130107840Y-85410880D03*
D20*
X132407840Y-90783380D03*
X132407840Y-85858380D03*
D21*
X132767840Y-89620880D03*
X132767840Y-88970880D03*
X132767840Y-88320880D03*
X132767840Y-87670880D03*
X132767840Y-87020880D03*
D10*
G36*
X139584691Y-79066153D02*
G01*
X139605926Y-79069303D01*
X139626750Y-79074519D01*
X139646962Y-79081751D01*
X139666368Y-79090930D01*
X139684781Y-79101966D01*
X139702024Y-79114754D01*
X139717930Y-79129170D01*
X139732346Y-79145076D01*
X139745134Y-79162319D01*
X139756170Y-79180732D01*
X139765349Y-79200138D01*
X139772581Y-79220350D01*
X139777797Y-79241174D01*
X139780947Y-79262409D01*
X139782000Y-79283850D01*
X139782000Y-79796350D01*
X139780947Y-79817791D01*
X139777797Y-79839026D01*
X139772581Y-79859850D01*
X139765349Y-79880062D01*
X139756170Y-79899468D01*
X139745134Y-79917881D01*
X139732346Y-79935124D01*
X139717930Y-79951030D01*
X139702024Y-79965446D01*
X139684781Y-79978234D01*
X139666368Y-79989270D01*
X139646962Y-79998449D01*
X139626750Y-80005681D01*
X139605926Y-80010897D01*
X139584691Y-80014047D01*
X139563250Y-80015100D01*
X139125750Y-80015100D01*
X139104309Y-80014047D01*
X139083074Y-80010897D01*
X139062250Y-80005681D01*
X139042038Y-79998449D01*
X139022632Y-79989270D01*
X139004219Y-79978234D01*
X138986976Y-79965446D01*
X138971070Y-79951030D01*
X138956654Y-79935124D01*
X138943866Y-79917881D01*
X138932830Y-79899468D01*
X138923651Y-79880062D01*
X138916419Y-79859850D01*
X138911203Y-79839026D01*
X138908053Y-79817791D01*
X138907000Y-79796350D01*
X138907000Y-79283850D01*
X138908053Y-79262409D01*
X138911203Y-79241174D01*
X138916419Y-79220350D01*
X138923651Y-79200138D01*
X138932830Y-79180732D01*
X138943866Y-79162319D01*
X138956654Y-79145076D01*
X138971070Y-79129170D01*
X138986976Y-79114754D01*
X139004219Y-79101966D01*
X139022632Y-79090930D01*
X139042038Y-79081751D01*
X139062250Y-79074519D01*
X139083074Y-79069303D01*
X139104309Y-79066153D01*
X139125750Y-79065100D01*
X139563250Y-79065100D01*
X139584691Y-79066153D01*
X139584691Y-79066153D01*
G37*
D11*
X139344500Y-79540100D03*
D10*
G36*
X138009691Y-79066153D02*
G01*
X138030926Y-79069303D01*
X138051750Y-79074519D01*
X138071962Y-79081751D01*
X138091368Y-79090930D01*
X138109781Y-79101966D01*
X138127024Y-79114754D01*
X138142930Y-79129170D01*
X138157346Y-79145076D01*
X138170134Y-79162319D01*
X138181170Y-79180732D01*
X138190349Y-79200138D01*
X138197581Y-79220350D01*
X138202797Y-79241174D01*
X138205947Y-79262409D01*
X138207000Y-79283850D01*
X138207000Y-79796350D01*
X138205947Y-79817791D01*
X138202797Y-79839026D01*
X138197581Y-79859850D01*
X138190349Y-79880062D01*
X138181170Y-79899468D01*
X138170134Y-79917881D01*
X138157346Y-79935124D01*
X138142930Y-79951030D01*
X138127024Y-79965446D01*
X138109781Y-79978234D01*
X138091368Y-79989270D01*
X138071962Y-79998449D01*
X138051750Y-80005681D01*
X138030926Y-80010897D01*
X138009691Y-80014047D01*
X137988250Y-80015100D01*
X137550750Y-80015100D01*
X137529309Y-80014047D01*
X137508074Y-80010897D01*
X137487250Y-80005681D01*
X137467038Y-79998449D01*
X137447632Y-79989270D01*
X137429219Y-79978234D01*
X137411976Y-79965446D01*
X137396070Y-79951030D01*
X137381654Y-79935124D01*
X137368866Y-79917881D01*
X137357830Y-79899468D01*
X137348651Y-79880062D01*
X137341419Y-79859850D01*
X137336203Y-79839026D01*
X137333053Y-79817791D01*
X137332000Y-79796350D01*
X137332000Y-79283850D01*
X137333053Y-79262409D01*
X137336203Y-79241174D01*
X137341419Y-79220350D01*
X137348651Y-79200138D01*
X137357830Y-79180732D01*
X137368866Y-79162319D01*
X137381654Y-79145076D01*
X137396070Y-79129170D01*
X137411976Y-79114754D01*
X137429219Y-79101966D01*
X137447632Y-79090930D01*
X137467038Y-79081751D01*
X137487250Y-79074519D01*
X137508074Y-79069303D01*
X137529309Y-79066153D01*
X137550750Y-79065100D01*
X137988250Y-79065100D01*
X138009691Y-79066153D01*
X138009691Y-79066153D01*
G37*
D11*
X137769500Y-79540100D03*
D10*
G36*
X139648191Y-81491853D02*
G01*
X139669426Y-81495003D01*
X139690250Y-81500219D01*
X139710462Y-81507451D01*
X139729868Y-81516630D01*
X139748281Y-81527666D01*
X139765524Y-81540454D01*
X139781430Y-81554870D01*
X139795846Y-81570776D01*
X139808634Y-81588019D01*
X139819670Y-81606432D01*
X139828849Y-81625838D01*
X139836081Y-81646050D01*
X139841297Y-81666874D01*
X139844447Y-81688109D01*
X139845500Y-81709550D01*
X139845500Y-82222050D01*
X139844447Y-82243491D01*
X139841297Y-82264726D01*
X139836081Y-82285550D01*
X139828849Y-82305762D01*
X139819670Y-82325168D01*
X139808634Y-82343581D01*
X139795846Y-82360824D01*
X139781430Y-82376730D01*
X139765524Y-82391146D01*
X139748281Y-82403934D01*
X139729868Y-82414970D01*
X139710462Y-82424149D01*
X139690250Y-82431381D01*
X139669426Y-82436597D01*
X139648191Y-82439747D01*
X139626750Y-82440800D01*
X139189250Y-82440800D01*
X139167809Y-82439747D01*
X139146574Y-82436597D01*
X139125750Y-82431381D01*
X139105538Y-82424149D01*
X139086132Y-82414970D01*
X139067719Y-82403934D01*
X139050476Y-82391146D01*
X139034570Y-82376730D01*
X139020154Y-82360824D01*
X139007366Y-82343581D01*
X138996330Y-82325168D01*
X138987151Y-82305762D01*
X138979919Y-82285550D01*
X138974703Y-82264726D01*
X138971553Y-82243491D01*
X138970500Y-82222050D01*
X138970500Y-81709550D01*
X138971553Y-81688109D01*
X138974703Y-81666874D01*
X138979919Y-81646050D01*
X138987151Y-81625838D01*
X138996330Y-81606432D01*
X139007366Y-81588019D01*
X139020154Y-81570776D01*
X139034570Y-81554870D01*
X139050476Y-81540454D01*
X139067719Y-81527666D01*
X139086132Y-81516630D01*
X139105538Y-81507451D01*
X139125750Y-81500219D01*
X139146574Y-81495003D01*
X139167809Y-81491853D01*
X139189250Y-81490800D01*
X139626750Y-81490800D01*
X139648191Y-81491853D01*
X139648191Y-81491853D01*
G37*
D11*
X139408000Y-81965800D03*
D10*
G36*
X138073191Y-81491853D02*
G01*
X138094426Y-81495003D01*
X138115250Y-81500219D01*
X138135462Y-81507451D01*
X138154868Y-81516630D01*
X138173281Y-81527666D01*
X138190524Y-81540454D01*
X138206430Y-81554870D01*
X138220846Y-81570776D01*
X138233634Y-81588019D01*
X138244670Y-81606432D01*
X138253849Y-81625838D01*
X138261081Y-81646050D01*
X138266297Y-81666874D01*
X138269447Y-81688109D01*
X138270500Y-81709550D01*
X138270500Y-82222050D01*
X138269447Y-82243491D01*
X138266297Y-82264726D01*
X138261081Y-82285550D01*
X138253849Y-82305762D01*
X138244670Y-82325168D01*
X138233634Y-82343581D01*
X138220846Y-82360824D01*
X138206430Y-82376730D01*
X138190524Y-82391146D01*
X138173281Y-82403934D01*
X138154868Y-82414970D01*
X138135462Y-82424149D01*
X138115250Y-82431381D01*
X138094426Y-82436597D01*
X138073191Y-82439747D01*
X138051750Y-82440800D01*
X137614250Y-82440800D01*
X137592809Y-82439747D01*
X137571574Y-82436597D01*
X137550750Y-82431381D01*
X137530538Y-82424149D01*
X137511132Y-82414970D01*
X137492719Y-82403934D01*
X137475476Y-82391146D01*
X137459570Y-82376730D01*
X137445154Y-82360824D01*
X137432366Y-82343581D01*
X137421330Y-82325168D01*
X137412151Y-82305762D01*
X137404919Y-82285550D01*
X137399703Y-82264726D01*
X137396553Y-82243491D01*
X137395500Y-82222050D01*
X137395500Y-81709550D01*
X137396553Y-81688109D01*
X137399703Y-81666874D01*
X137404919Y-81646050D01*
X137412151Y-81625838D01*
X137421330Y-81606432D01*
X137432366Y-81588019D01*
X137445154Y-81570776D01*
X137459570Y-81554870D01*
X137475476Y-81540454D01*
X137492719Y-81527666D01*
X137511132Y-81516630D01*
X137530538Y-81507451D01*
X137550750Y-81500219D01*
X137571574Y-81495003D01*
X137592809Y-81491853D01*
X137614250Y-81490800D01*
X138051750Y-81490800D01*
X138073191Y-81491853D01*
X138073191Y-81491853D01*
G37*
D11*
X137833000Y-81965800D03*
D10*
G36*
X170430251Y-78883273D02*
G01*
X170451486Y-78886423D01*
X170472310Y-78891639D01*
X170492522Y-78898871D01*
X170511928Y-78908050D01*
X170530341Y-78919086D01*
X170547584Y-78931874D01*
X170563490Y-78946290D01*
X170577906Y-78962196D01*
X170590694Y-78979439D01*
X170601730Y-78997852D01*
X170610909Y-79017258D01*
X170618141Y-79037470D01*
X170623357Y-79058294D01*
X170626507Y-79079529D01*
X170627560Y-79100970D01*
X170627560Y-79613470D01*
X170626507Y-79634911D01*
X170623357Y-79656146D01*
X170618141Y-79676970D01*
X170610909Y-79697182D01*
X170601730Y-79716588D01*
X170590694Y-79735001D01*
X170577906Y-79752244D01*
X170563490Y-79768150D01*
X170547584Y-79782566D01*
X170530341Y-79795354D01*
X170511928Y-79806390D01*
X170492522Y-79815569D01*
X170472310Y-79822801D01*
X170451486Y-79828017D01*
X170430251Y-79831167D01*
X170408810Y-79832220D01*
X169971310Y-79832220D01*
X169949869Y-79831167D01*
X169928634Y-79828017D01*
X169907810Y-79822801D01*
X169887598Y-79815569D01*
X169868192Y-79806390D01*
X169849779Y-79795354D01*
X169832536Y-79782566D01*
X169816630Y-79768150D01*
X169802214Y-79752244D01*
X169789426Y-79735001D01*
X169778390Y-79716588D01*
X169769211Y-79697182D01*
X169761979Y-79676970D01*
X169756763Y-79656146D01*
X169753613Y-79634911D01*
X169752560Y-79613470D01*
X169752560Y-79100970D01*
X169753613Y-79079529D01*
X169756763Y-79058294D01*
X169761979Y-79037470D01*
X169769211Y-79017258D01*
X169778390Y-78997852D01*
X169789426Y-78979439D01*
X169802214Y-78962196D01*
X169816630Y-78946290D01*
X169832536Y-78931874D01*
X169849779Y-78919086D01*
X169868192Y-78908050D01*
X169887598Y-78898871D01*
X169907810Y-78891639D01*
X169928634Y-78886423D01*
X169949869Y-78883273D01*
X169971310Y-78882220D01*
X170408810Y-78882220D01*
X170430251Y-78883273D01*
X170430251Y-78883273D01*
G37*
D11*
X170190060Y-79357220D03*
D10*
G36*
X172005251Y-78883273D02*
G01*
X172026486Y-78886423D01*
X172047310Y-78891639D01*
X172067522Y-78898871D01*
X172086928Y-78908050D01*
X172105341Y-78919086D01*
X172122584Y-78931874D01*
X172138490Y-78946290D01*
X172152906Y-78962196D01*
X172165694Y-78979439D01*
X172176730Y-78997852D01*
X172185909Y-79017258D01*
X172193141Y-79037470D01*
X172198357Y-79058294D01*
X172201507Y-79079529D01*
X172202560Y-79100970D01*
X172202560Y-79613470D01*
X172201507Y-79634911D01*
X172198357Y-79656146D01*
X172193141Y-79676970D01*
X172185909Y-79697182D01*
X172176730Y-79716588D01*
X172165694Y-79735001D01*
X172152906Y-79752244D01*
X172138490Y-79768150D01*
X172122584Y-79782566D01*
X172105341Y-79795354D01*
X172086928Y-79806390D01*
X172067522Y-79815569D01*
X172047310Y-79822801D01*
X172026486Y-79828017D01*
X172005251Y-79831167D01*
X171983810Y-79832220D01*
X171546310Y-79832220D01*
X171524869Y-79831167D01*
X171503634Y-79828017D01*
X171482810Y-79822801D01*
X171462598Y-79815569D01*
X171443192Y-79806390D01*
X171424779Y-79795354D01*
X171407536Y-79782566D01*
X171391630Y-79768150D01*
X171377214Y-79752244D01*
X171364426Y-79735001D01*
X171353390Y-79716588D01*
X171344211Y-79697182D01*
X171336979Y-79676970D01*
X171331763Y-79656146D01*
X171328613Y-79634911D01*
X171327560Y-79613470D01*
X171327560Y-79100970D01*
X171328613Y-79079529D01*
X171331763Y-79058294D01*
X171336979Y-79037470D01*
X171344211Y-79017258D01*
X171353390Y-78997852D01*
X171364426Y-78979439D01*
X171377214Y-78962196D01*
X171391630Y-78946290D01*
X171407536Y-78931874D01*
X171424779Y-78919086D01*
X171443192Y-78908050D01*
X171462598Y-78898871D01*
X171482810Y-78891639D01*
X171503634Y-78886423D01*
X171524869Y-78883273D01*
X171546310Y-78882220D01*
X171983810Y-78882220D01*
X172005251Y-78883273D01*
X172005251Y-78883273D01*
G37*
D11*
X171765060Y-79357220D03*
D10*
G36*
X170430251Y-77516753D02*
G01*
X170451486Y-77519903D01*
X170472310Y-77525119D01*
X170492522Y-77532351D01*
X170511928Y-77541530D01*
X170530341Y-77552566D01*
X170547584Y-77565354D01*
X170563490Y-77579770D01*
X170577906Y-77595676D01*
X170590694Y-77612919D01*
X170601730Y-77631332D01*
X170610909Y-77650738D01*
X170618141Y-77670950D01*
X170623357Y-77691774D01*
X170626507Y-77713009D01*
X170627560Y-77734450D01*
X170627560Y-78246950D01*
X170626507Y-78268391D01*
X170623357Y-78289626D01*
X170618141Y-78310450D01*
X170610909Y-78330662D01*
X170601730Y-78350068D01*
X170590694Y-78368481D01*
X170577906Y-78385724D01*
X170563490Y-78401630D01*
X170547584Y-78416046D01*
X170530341Y-78428834D01*
X170511928Y-78439870D01*
X170492522Y-78449049D01*
X170472310Y-78456281D01*
X170451486Y-78461497D01*
X170430251Y-78464647D01*
X170408810Y-78465700D01*
X169971310Y-78465700D01*
X169949869Y-78464647D01*
X169928634Y-78461497D01*
X169907810Y-78456281D01*
X169887598Y-78449049D01*
X169868192Y-78439870D01*
X169849779Y-78428834D01*
X169832536Y-78416046D01*
X169816630Y-78401630D01*
X169802214Y-78385724D01*
X169789426Y-78368481D01*
X169778390Y-78350068D01*
X169769211Y-78330662D01*
X169761979Y-78310450D01*
X169756763Y-78289626D01*
X169753613Y-78268391D01*
X169752560Y-78246950D01*
X169752560Y-77734450D01*
X169753613Y-77713009D01*
X169756763Y-77691774D01*
X169761979Y-77670950D01*
X169769211Y-77650738D01*
X169778390Y-77631332D01*
X169789426Y-77612919D01*
X169802214Y-77595676D01*
X169816630Y-77579770D01*
X169832536Y-77565354D01*
X169849779Y-77552566D01*
X169868192Y-77541530D01*
X169887598Y-77532351D01*
X169907810Y-77525119D01*
X169928634Y-77519903D01*
X169949869Y-77516753D01*
X169971310Y-77515700D01*
X170408810Y-77515700D01*
X170430251Y-77516753D01*
X170430251Y-77516753D01*
G37*
D11*
X170190060Y-77990700D03*
D10*
G36*
X172005251Y-77516753D02*
G01*
X172026486Y-77519903D01*
X172047310Y-77525119D01*
X172067522Y-77532351D01*
X172086928Y-77541530D01*
X172105341Y-77552566D01*
X172122584Y-77565354D01*
X172138490Y-77579770D01*
X172152906Y-77595676D01*
X172165694Y-77612919D01*
X172176730Y-77631332D01*
X172185909Y-77650738D01*
X172193141Y-77670950D01*
X172198357Y-77691774D01*
X172201507Y-77713009D01*
X172202560Y-77734450D01*
X172202560Y-78246950D01*
X172201507Y-78268391D01*
X172198357Y-78289626D01*
X172193141Y-78310450D01*
X172185909Y-78330662D01*
X172176730Y-78350068D01*
X172165694Y-78368481D01*
X172152906Y-78385724D01*
X172138490Y-78401630D01*
X172122584Y-78416046D01*
X172105341Y-78428834D01*
X172086928Y-78439870D01*
X172067522Y-78449049D01*
X172047310Y-78456281D01*
X172026486Y-78461497D01*
X172005251Y-78464647D01*
X171983810Y-78465700D01*
X171546310Y-78465700D01*
X171524869Y-78464647D01*
X171503634Y-78461497D01*
X171482810Y-78456281D01*
X171462598Y-78449049D01*
X171443192Y-78439870D01*
X171424779Y-78428834D01*
X171407536Y-78416046D01*
X171391630Y-78401630D01*
X171377214Y-78385724D01*
X171364426Y-78368481D01*
X171353390Y-78350068D01*
X171344211Y-78330662D01*
X171336979Y-78310450D01*
X171331763Y-78289626D01*
X171328613Y-78268391D01*
X171327560Y-78246950D01*
X171327560Y-77734450D01*
X171328613Y-77713009D01*
X171331763Y-77691774D01*
X171336979Y-77670950D01*
X171344211Y-77650738D01*
X171353390Y-77631332D01*
X171364426Y-77612919D01*
X171377214Y-77595676D01*
X171391630Y-77579770D01*
X171407536Y-77565354D01*
X171424779Y-77552566D01*
X171443192Y-77541530D01*
X171462598Y-77532351D01*
X171482810Y-77525119D01*
X171503634Y-77519903D01*
X171524869Y-77516753D01*
X171546310Y-77515700D01*
X171983810Y-77515700D01*
X172005251Y-77516753D01*
X172005251Y-77516753D01*
G37*
D11*
X171765060Y-77990700D03*
D10*
G36*
X177529051Y-91935833D02*
G01*
X177550286Y-91938983D01*
X177571110Y-91944199D01*
X177591322Y-91951431D01*
X177610728Y-91960610D01*
X177629141Y-91971646D01*
X177646384Y-91984434D01*
X177662290Y-91998850D01*
X177676706Y-92014756D01*
X177689494Y-92031999D01*
X177700530Y-92050412D01*
X177709709Y-92069818D01*
X177716941Y-92090030D01*
X177722157Y-92110854D01*
X177725307Y-92132089D01*
X177726360Y-92153530D01*
X177726360Y-92591030D01*
X177725307Y-92612471D01*
X177722157Y-92633706D01*
X177716941Y-92654530D01*
X177709709Y-92674742D01*
X177700530Y-92694148D01*
X177689494Y-92712561D01*
X177676706Y-92729804D01*
X177662290Y-92745710D01*
X177646384Y-92760126D01*
X177629141Y-92772914D01*
X177610728Y-92783950D01*
X177591322Y-92793129D01*
X177571110Y-92800361D01*
X177550286Y-92805577D01*
X177529051Y-92808727D01*
X177507610Y-92809780D01*
X176995110Y-92809780D01*
X176973669Y-92808727D01*
X176952434Y-92805577D01*
X176931610Y-92800361D01*
X176911398Y-92793129D01*
X176891992Y-92783950D01*
X176873579Y-92772914D01*
X176856336Y-92760126D01*
X176840430Y-92745710D01*
X176826014Y-92729804D01*
X176813226Y-92712561D01*
X176802190Y-92694148D01*
X176793011Y-92674742D01*
X176785779Y-92654530D01*
X176780563Y-92633706D01*
X176777413Y-92612471D01*
X176776360Y-92591030D01*
X176776360Y-92153530D01*
X176777413Y-92132089D01*
X176780563Y-92110854D01*
X176785779Y-92090030D01*
X176793011Y-92069818D01*
X176802190Y-92050412D01*
X176813226Y-92031999D01*
X176826014Y-92014756D01*
X176840430Y-91998850D01*
X176856336Y-91984434D01*
X176873579Y-91971646D01*
X176891992Y-91960610D01*
X176911398Y-91951431D01*
X176931610Y-91944199D01*
X176952434Y-91938983D01*
X176973669Y-91935833D01*
X176995110Y-91934780D01*
X177507610Y-91934780D01*
X177529051Y-91935833D01*
X177529051Y-91935833D01*
G37*
D11*
X177251360Y-92372280D03*
D10*
G36*
X177529051Y-90360833D02*
G01*
X177550286Y-90363983D01*
X177571110Y-90369199D01*
X177591322Y-90376431D01*
X177610728Y-90385610D01*
X177629141Y-90396646D01*
X177646384Y-90409434D01*
X177662290Y-90423850D01*
X177676706Y-90439756D01*
X177689494Y-90456999D01*
X177700530Y-90475412D01*
X177709709Y-90494818D01*
X177716941Y-90515030D01*
X177722157Y-90535854D01*
X177725307Y-90557089D01*
X177726360Y-90578530D01*
X177726360Y-91016030D01*
X177725307Y-91037471D01*
X177722157Y-91058706D01*
X177716941Y-91079530D01*
X177709709Y-91099742D01*
X177700530Y-91119148D01*
X177689494Y-91137561D01*
X177676706Y-91154804D01*
X177662290Y-91170710D01*
X177646384Y-91185126D01*
X177629141Y-91197914D01*
X177610728Y-91208950D01*
X177591322Y-91218129D01*
X177571110Y-91225361D01*
X177550286Y-91230577D01*
X177529051Y-91233727D01*
X177507610Y-91234780D01*
X176995110Y-91234780D01*
X176973669Y-91233727D01*
X176952434Y-91230577D01*
X176931610Y-91225361D01*
X176911398Y-91218129D01*
X176891992Y-91208950D01*
X176873579Y-91197914D01*
X176856336Y-91185126D01*
X176840430Y-91170710D01*
X176826014Y-91154804D01*
X176813226Y-91137561D01*
X176802190Y-91119148D01*
X176793011Y-91099742D01*
X176785779Y-91079530D01*
X176780563Y-91058706D01*
X176777413Y-91037471D01*
X176776360Y-91016030D01*
X176776360Y-90578530D01*
X176777413Y-90557089D01*
X176780563Y-90535854D01*
X176785779Y-90515030D01*
X176793011Y-90494818D01*
X176802190Y-90475412D01*
X176813226Y-90456999D01*
X176826014Y-90439756D01*
X176840430Y-90423850D01*
X176856336Y-90409434D01*
X176873579Y-90396646D01*
X176891992Y-90385610D01*
X176911398Y-90376431D01*
X176931610Y-90369199D01*
X176952434Y-90363983D01*
X176973669Y-90360833D01*
X176995110Y-90359780D01*
X177507610Y-90359780D01*
X177529051Y-90360833D01*
X177529051Y-90360833D01*
G37*
D11*
X177251360Y-90797280D03*
D10*
G36*
X146556291Y-86456853D02*
G01*
X146577526Y-86460003D01*
X146598350Y-86465219D01*
X146618562Y-86472451D01*
X146637968Y-86481630D01*
X146656381Y-86492666D01*
X146673624Y-86505454D01*
X146689530Y-86519870D01*
X146703946Y-86535776D01*
X146716734Y-86553019D01*
X146727770Y-86571432D01*
X146736949Y-86590838D01*
X146744181Y-86611050D01*
X146749397Y-86631874D01*
X146752547Y-86653109D01*
X146753600Y-86674550D01*
X146753600Y-87112050D01*
X146752547Y-87133491D01*
X146749397Y-87154726D01*
X146744181Y-87175550D01*
X146736949Y-87195762D01*
X146727770Y-87215168D01*
X146716734Y-87233581D01*
X146703946Y-87250824D01*
X146689530Y-87266730D01*
X146673624Y-87281146D01*
X146656381Y-87293934D01*
X146637968Y-87304970D01*
X146618562Y-87314149D01*
X146598350Y-87321381D01*
X146577526Y-87326597D01*
X146556291Y-87329747D01*
X146534850Y-87330800D01*
X146022350Y-87330800D01*
X146000909Y-87329747D01*
X145979674Y-87326597D01*
X145958850Y-87321381D01*
X145938638Y-87314149D01*
X145919232Y-87304970D01*
X145900819Y-87293934D01*
X145883576Y-87281146D01*
X145867670Y-87266730D01*
X145853254Y-87250824D01*
X145840466Y-87233581D01*
X145829430Y-87215168D01*
X145820251Y-87195762D01*
X145813019Y-87175550D01*
X145807803Y-87154726D01*
X145804653Y-87133491D01*
X145803600Y-87112050D01*
X145803600Y-86674550D01*
X145804653Y-86653109D01*
X145807803Y-86631874D01*
X145813019Y-86611050D01*
X145820251Y-86590838D01*
X145829430Y-86571432D01*
X145840466Y-86553019D01*
X145853254Y-86535776D01*
X145867670Y-86519870D01*
X145883576Y-86505454D01*
X145900819Y-86492666D01*
X145919232Y-86481630D01*
X145938638Y-86472451D01*
X145958850Y-86465219D01*
X145979674Y-86460003D01*
X146000909Y-86456853D01*
X146022350Y-86455800D01*
X146534850Y-86455800D01*
X146556291Y-86456853D01*
X146556291Y-86456853D01*
G37*
D11*
X146278600Y-86893300D03*
D10*
G36*
X146556291Y-88031853D02*
G01*
X146577526Y-88035003D01*
X146598350Y-88040219D01*
X146618562Y-88047451D01*
X146637968Y-88056630D01*
X146656381Y-88067666D01*
X146673624Y-88080454D01*
X146689530Y-88094870D01*
X146703946Y-88110776D01*
X146716734Y-88128019D01*
X146727770Y-88146432D01*
X146736949Y-88165838D01*
X146744181Y-88186050D01*
X146749397Y-88206874D01*
X146752547Y-88228109D01*
X146753600Y-88249550D01*
X146753600Y-88687050D01*
X146752547Y-88708491D01*
X146749397Y-88729726D01*
X146744181Y-88750550D01*
X146736949Y-88770762D01*
X146727770Y-88790168D01*
X146716734Y-88808581D01*
X146703946Y-88825824D01*
X146689530Y-88841730D01*
X146673624Y-88856146D01*
X146656381Y-88868934D01*
X146637968Y-88879970D01*
X146618562Y-88889149D01*
X146598350Y-88896381D01*
X146577526Y-88901597D01*
X146556291Y-88904747D01*
X146534850Y-88905800D01*
X146022350Y-88905800D01*
X146000909Y-88904747D01*
X145979674Y-88901597D01*
X145958850Y-88896381D01*
X145938638Y-88889149D01*
X145919232Y-88879970D01*
X145900819Y-88868934D01*
X145883576Y-88856146D01*
X145867670Y-88841730D01*
X145853254Y-88825824D01*
X145840466Y-88808581D01*
X145829430Y-88790168D01*
X145820251Y-88770762D01*
X145813019Y-88750550D01*
X145807803Y-88729726D01*
X145804653Y-88708491D01*
X145803600Y-88687050D01*
X145803600Y-88249550D01*
X145804653Y-88228109D01*
X145807803Y-88206874D01*
X145813019Y-88186050D01*
X145820251Y-88165838D01*
X145829430Y-88146432D01*
X145840466Y-88128019D01*
X145853254Y-88110776D01*
X145867670Y-88094870D01*
X145883576Y-88080454D01*
X145900819Y-88067666D01*
X145919232Y-88056630D01*
X145938638Y-88047451D01*
X145958850Y-88040219D01*
X145979674Y-88035003D01*
X146000909Y-88031853D01*
X146022350Y-88030800D01*
X146534850Y-88030800D01*
X146556291Y-88031853D01*
X146556291Y-88031853D01*
G37*
D11*
X146278600Y-88468300D03*
D10*
G36*
X150607591Y-88387453D02*
G01*
X150628826Y-88390603D01*
X150649650Y-88395819D01*
X150669862Y-88403051D01*
X150689268Y-88412230D01*
X150707681Y-88423266D01*
X150724924Y-88436054D01*
X150740830Y-88450470D01*
X150755246Y-88466376D01*
X150768034Y-88483619D01*
X150779070Y-88502032D01*
X150788249Y-88521438D01*
X150795481Y-88541650D01*
X150800697Y-88562474D01*
X150803847Y-88583709D01*
X150804900Y-88605150D01*
X150804900Y-89042650D01*
X150803847Y-89064091D01*
X150800697Y-89085326D01*
X150795481Y-89106150D01*
X150788249Y-89126362D01*
X150779070Y-89145768D01*
X150768034Y-89164181D01*
X150755246Y-89181424D01*
X150740830Y-89197330D01*
X150724924Y-89211746D01*
X150707681Y-89224534D01*
X150689268Y-89235570D01*
X150669862Y-89244749D01*
X150649650Y-89251981D01*
X150628826Y-89257197D01*
X150607591Y-89260347D01*
X150586150Y-89261400D01*
X150073650Y-89261400D01*
X150052209Y-89260347D01*
X150030974Y-89257197D01*
X150010150Y-89251981D01*
X149989938Y-89244749D01*
X149970532Y-89235570D01*
X149952119Y-89224534D01*
X149934876Y-89211746D01*
X149918970Y-89197330D01*
X149904554Y-89181424D01*
X149891766Y-89164181D01*
X149880730Y-89145768D01*
X149871551Y-89126362D01*
X149864319Y-89106150D01*
X149859103Y-89085326D01*
X149855953Y-89064091D01*
X149854900Y-89042650D01*
X149854900Y-88605150D01*
X149855953Y-88583709D01*
X149859103Y-88562474D01*
X149864319Y-88541650D01*
X149871551Y-88521438D01*
X149880730Y-88502032D01*
X149891766Y-88483619D01*
X149904554Y-88466376D01*
X149918970Y-88450470D01*
X149934876Y-88436054D01*
X149952119Y-88423266D01*
X149970532Y-88412230D01*
X149989938Y-88403051D01*
X150010150Y-88395819D01*
X150030974Y-88390603D01*
X150052209Y-88387453D01*
X150073650Y-88386400D01*
X150586150Y-88386400D01*
X150607591Y-88387453D01*
X150607591Y-88387453D01*
G37*
D11*
X150329900Y-88823900D03*
D10*
G36*
X150607591Y-86812453D02*
G01*
X150628826Y-86815603D01*
X150649650Y-86820819D01*
X150669862Y-86828051D01*
X150689268Y-86837230D01*
X150707681Y-86848266D01*
X150724924Y-86861054D01*
X150740830Y-86875470D01*
X150755246Y-86891376D01*
X150768034Y-86908619D01*
X150779070Y-86927032D01*
X150788249Y-86946438D01*
X150795481Y-86966650D01*
X150800697Y-86987474D01*
X150803847Y-87008709D01*
X150804900Y-87030150D01*
X150804900Y-87467650D01*
X150803847Y-87489091D01*
X150800697Y-87510326D01*
X150795481Y-87531150D01*
X150788249Y-87551362D01*
X150779070Y-87570768D01*
X150768034Y-87589181D01*
X150755246Y-87606424D01*
X150740830Y-87622330D01*
X150724924Y-87636746D01*
X150707681Y-87649534D01*
X150689268Y-87660570D01*
X150669862Y-87669749D01*
X150649650Y-87676981D01*
X150628826Y-87682197D01*
X150607591Y-87685347D01*
X150586150Y-87686400D01*
X150073650Y-87686400D01*
X150052209Y-87685347D01*
X150030974Y-87682197D01*
X150010150Y-87676981D01*
X149989938Y-87669749D01*
X149970532Y-87660570D01*
X149952119Y-87649534D01*
X149934876Y-87636746D01*
X149918970Y-87622330D01*
X149904554Y-87606424D01*
X149891766Y-87589181D01*
X149880730Y-87570768D01*
X149871551Y-87551362D01*
X149864319Y-87531150D01*
X149859103Y-87510326D01*
X149855953Y-87489091D01*
X149854900Y-87467650D01*
X149854900Y-87030150D01*
X149855953Y-87008709D01*
X149859103Y-86987474D01*
X149864319Y-86966650D01*
X149871551Y-86946438D01*
X149880730Y-86927032D01*
X149891766Y-86908619D01*
X149904554Y-86891376D01*
X149918970Y-86875470D01*
X149934876Y-86861054D01*
X149952119Y-86848266D01*
X149970532Y-86837230D01*
X149989938Y-86828051D01*
X150010150Y-86820819D01*
X150030974Y-86815603D01*
X150052209Y-86812453D01*
X150073650Y-86811400D01*
X150586150Y-86811400D01*
X150607591Y-86812453D01*
X150607591Y-86812453D01*
G37*
D11*
X150329900Y-87248900D03*
D10*
G36*
X139917231Y-84849733D02*
G01*
X139938466Y-84852883D01*
X139959290Y-84858099D01*
X139979502Y-84865331D01*
X139998908Y-84874510D01*
X140017321Y-84885546D01*
X140034564Y-84898334D01*
X140050470Y-84912750D01*
X140064886Y-84928656D01*
X140077674Y-84945899D01*
X140088710Y-84964312D01*
X140097889Y-84983718D01*
X140105121Y-85003930D01*
X140110337Y-85024754D01*
X140113487Y-85045989D01*
X140114540Y-85067430D01*
X140114540Y-85579930D01*
X140113487Y-85601371D01*
X140110337Y-85622606D01*
X140105121Y-85643430D01*
X140097889Y-85663642D01*
X140088710Y-85683048D01*
X140077674Y-85701461D01*
X140064886Y-85718704D01*
X140050470Y-85734610D01*
X140034564Y-85749026D01*
X140017321Y-85761814D01*
X139998908Y-85772850D01*
X139979502Y-85782029D01*
X139959290Y-85789261D01*
X139938466Y-85794477D01*
X139917231Y-85797627D01*
X139895790Y-85798680D01*
X139458290Y-85798680D01*
X139436849Y-85797627D01*
X139415614Y-85794477D01*
X139394790Y-85789261D01*
X139374578Y-85782029D01*
X139355172Y-85772850D01*
X139336759Y-85761814D01*
X139319516Y-85749026D01*
X139303610Y-85734610D01*
X139289194Y-85718704D01*
X139276406Y-85701461D01*
X139265370Y-85683048D01*
X139256191Y-85663642D01*
X139248959Y-85643430D01*
X139243743Y-85622606D01*
X139240593Y-85601371D01*
X139239540Y-85579930D01*
X139239540Y-85067430D01*
X139240593Y-85045989D01*
X139243743Y-85024754D01*
X139248959Y-85003930D01*
X139256191Y-84983718D01*
X139265370Y-84964312D01*
X139276406Y-84945899D01*
X139289194Y-84928656D01*
X139303610Y-84912750D01*
X139319516Y-84898334D01*
X139336759Y-84885546D01*
X139355172Y-84874510D01*
X139374578Y-84865331D01*
X139394790Y-84858099D01*
X139415614Y-84852883D01*
X139436849Y-84849733D01*
X139458290Y-84848680D01*
X139895790Y-84848680D01*
X139917231Y-84849733D01*
X139917231Y-84849733D01*
G37*
D11*
X139677040Y-85323680D03*
D10*
G36*
X141492231Y-84849733D02*
G01*
X141513466Y-84852883D01*
X141534290Y-84858099D01*
X141554502Y-84865331D01*
X141573908Y-84874510D01*
X141592321Y-84885546D01*
X141609564Y-84898334D01*
X141625470Y-84912750D01*
X141639886Y-84928656D01*
X141652674Y-84945899D01*
X141663710Y-84964312D01*
X141672889Y-84983718D01*
X141680121Y-85003930D01*
X141685337Y-85024754D01*
X141688487Y-85045989D01*
X141689540Y-85067430D01*
X141689540Y-85579930D01*
X141688487Y-85601371D01*
X141685337Y-85622606D01*
X141680121Y-85643430D01*
X141672889Y-85663642D01*
X141663710Y-85683048D01*
X141652674Y-85701461D01*
X141639886Y-85718704D01*
X141625470Y-85734610D01*
X141609564Y-85749026D01*
X141592321Y-85761814D01*
X141573908Y-85772850D01*
X141554502Y-85782029D01*
X141534290Y-85789261D01*
X141513466Y-85794477D01*
X141492231Y-85797627D01*
X141470790Y-85798680D01*
X141033290Y-85798680D01*
X141011849Y-85797627D01*
X140990614Y-85794477D01*
X140969790Y-85789261D01*
X140949578Y-85782029D01*
X140930172Y-85772850D01*
X140911759Y-85761814D01*
X140894516Y-85749026D01*
X140878610Y-85734610D01*
X140864194Y-85718704D01*
X140851406Y-85701461D01*
X140840370Y-85683048D01*
X140831191Y-85663642D01*
X140823959Y-85643430D01*
X140818743Y-85622606D01*
X140815593Y-85601371D01*
X140814540Y-85579930D01*
X140814540Y-85067430D01*
X140815593Y-85045989D01*
X140818743Y-85024754D01*
X140823959Y-85003930D01*
X140831191Y-84983718D01*
X140840370Y-84964312D01*
X140851406Y-84945899D01*
X140864194Y-84928656D01*
X140878610Y-84912750D01*
X140894516Y-84898334D01*
X140911759Y-84885546D01*
X140930172Y-84874510D01*
X140949578Y-84865331D01*
X140969790Y-84858099D01*
X140990614Y-84852883D01*
X141011849Y-84849733D01*
X141033290Y-84848680D01*
X141470790Y-84848680D01*
X141492231Y-84849733D01*
X141492231Y-84849733D01*
G37*
D11*
X141252040Y-85323680D03*
D10*
G36*
X139940091Y-86406753D02*
G01*
X139961326Y-86409903D01*
X139982150Y-86415119D01*
X140002362Y-86422351D01*
X140021768Y-86431530D01*
X140040181Y-86442566D01*
X140057424Y-86455354D01*
X140073330Y-86469770D01*
X140087746Y-86485676D01*
X140100534Y-86502919D01*
X140111570Y-86521332D01*
X140120749Y-86540738D01*
X140127981Y-86560950D01*
X140133197Y-86581774D01*
X140136347Y-86603009D01*
X140137400Y-86624450D01*
X140137400Y-87136950D01*
X140136347Y-87158391D01*
X140133197Y-87179626D01*
X140127981Y-87200450D01*
X140120749Y-87220662D01*
X140111570Y-87240068D01*
X140100534Y-87258481D01*
X140087746Y-87275724D01*
X140073330Y-87291630D01*
X140057424Y-87306046D01*
X140040181Y-87318834D01*
X140021768Y-87329870D01*
X140002362Y-87339049D01*
X139982150Y-87346281D01*
X139961326Y-87351497D01*
X139940091Y-87354647D01*
X139918650Y-87355700D01*
X139481150Y-87355700D01*
X139459709Y-87354647D01*
X139438474Y-87351497D01*
X139417650Y-87346281D01*
X139397438Y-87339049D01*
X139378032Y-87329870D01*
X139359619Y-87318834D01*
X139342376Y-87306046D01*
X139326470Y-87291630D01*
X139312054Y-87275724D01*
X139299266Y-87258481D01*
X139288230Y-87240068D01*
X139279051Y-87220662D01*
X139271819Y-87200450D01*
X139266603Y-87179626D01*
X139263453Y-87158391D01*
X139262400Y-87136950D01*
X139262400Y-86624450D01*
X139263453Y-86603009D01*
X139266603Y-86581774D01*
X139271819Y-86560950D01*
X139279051Y-86540738D01*
X139288230Y-86521332D01*
X139299266Y-86502919D01*
X139312054Y-86485676D01*
X139326470Y-86469770D01*
X139342376Y-86455354D01*
X139359619Y-86442566D01*
X139378032Y-86431530D01*
X139397438Y-86422351D01*
X139417650Y-86415119D01*
X139438474Y-86409903D01*
X139459709Y-86406753D01*
X139481150Y-86405700D01*
X139918650Y-86405700D01*
X139940091Y-86406753D01*
X139940091Y-86406753D01*
G37*
D11*
X139699900Y-86880700D03*
D10*
G36*
X141515091Y-86406753D02*
G01*
X141536326Y-86409903D01*
X141557150Y-86415119D01*
X141577362Y-86422351D01*
X141596768Y-86431530D01*
X141615181Y-86442566D01*
X141632424Y-86455354D01*
X141648330Y-86469770D01*
X141662746Y-86485676D01*
X141675534Y-86502919D01*
X141686570Y-86521332D01*
X141695749Y-86540738D01*
X141702981Y-86560950D01*
X141708197Y-86581774D01*
X141711347Y-86603009D01*
X141712400Y-86624450D01*
X141712400Y-87136950D01*
X141711347Y-87158391D01*
X141708197Y-87179626D01*
X141702981Y-87200450D01*
X141695749Y-87220662D01*
X141686570Y-87240068D01*
X141675534Y-87258481D01*
X141662746Y-87275724D01*
X141648330Y-87291630D01*
X141632424Y-87306046D01*
X141615181Y-87318834D01*
X141596768Y-87329870D01*
X141577362Y-87339049D01*
X141557150Y-87346281D01*
X141536326Y-87351497D01*
X141515091Y-87354647D01*
X141493650Y-87355700D01*
X141056150Y-87355700D01*
X141034709Y-87354647D01*
X141013474Y-87351497D01*
X140992650Y-87346281D01*
X140972438Y-87339049D01*
X140953032Y-87329870D01*
X140934619Y-87318834D01*
X140917376Y-87306046D01*
X140901470Y-87291630D01*
X140887054Y-87275724D01*
X140874266Y-87258481D01*
X140863230Y-87240068D01*
X140854051Y-87220662D01*
X140846819Y-87200450D01*
X140841603Y-87179626D01*
X140838453Y-87158391D01*
X140837400Y-87136950D01*
X140837400Y-86624450D01*
X140838453Y-86603009D01*
X140841603Y-86581774D01*
X140846819Y-86560950D01*
X140854051Y-86540738D01*
X140863230Y-86521332D01*
X140874266Y-86502919D01*
X140887054Y-86485676D01*
X140901470Y-86469770D01*
X140917376Y-86455354D01*
X140934619Y-86442566D01*
X140953032Y-86431530D01*
X140972438Y-86422351D01*
X140992650Y-86415119D01*
X141013474Y-86409903D01*
X141034709Y-86406753D01*
X141056150Y-86405700D01*
X141493650Y-86405700D01*
X141515091Y-86406753D01*
X141515091Y-86406753D01*
G37*
D11*
X141274900Y-86880700D03*
D10*
G36*
X151162011Y-84768453D02*
G01*
X151183246Y-84771603D01*
X151204070Y-84776819D01*
X151224282Y-84784051D01*
X151243688Y-84793230D01*
X151262101Y-84804266D01*
X151279344Y-84817054D01*
X151295250Y-84831470D01*
X151309666Y-84847376D01*
X151322454Y-84864619D01*
X151333490Y-84883032D01*
X151342669Y-84902438D01*
X151349901Y-84922650D01*
X151355117Y-84943474D01*
X151358267Y-84964709D01*
X151359320Y-84986150D01*
X151359320Y-85498650D01*
X151358267Y-85520091D01*
X151355117Y-85541326D01*
X151349901Y-85562150D01*
X151342669Y-85582362D01*
X151333490Y-85601768D01*
X151322454Y-85620181D01*
X151309666Y-85637424D01*
X151295250Y-85653330D01*
X151279344Y-85667746D01*
X151262101Y-85680534D01*
X151243688Y-85691570D01*
X151224282Y-85700749D01*
X151204070Y-85707981D01*
X151183246Y-85713197D01*
X151162011Y-85716347D01*
X151140570Y-85717400D01*
X150703070Y-85717400D01*
X150681629Y-85716347D01*
X150660394Y-85713197D01*
X150639570Y-85707981D01*
X150619358Y-85700749D01*
X150599952Y-85691570D01*
X150581539Y-85680534D01*
X150564296Y-85667746D01*
X150548390Y-85653330D01*
X150533974Y-85637424D01*
X150521186Y-85620181D01*
X150510150Y-85601768D01*
X150500971Y-85582362D01*
X150493739Y-85562150D01*
X150488523Y-85541326D01*
X150485373Y-85520091D01*
X150484320Y-85498650D01*
X150484320Y-84986150D01*
X150485373Y-84964709D01*
X150488523Y-84943474D01*
X150493739Y-84922650D01*
X150500971Y-84902438D01*
X150510150Y-84883032D01*
X150521186Y-84864619D01*
X150533974Y-84847376D01*
X150548390Y-84831470D01*
X150564296Y-84817054D01*
X150581539Y-84804266D01*
X150599952Y-84793230D01*
X150619358Y-84784051D01*
X150639570Y-84776819D01*
X150660394Y-84771603D01*
X150681629Y-84768453D01*
X150703070Y-84767400D01*
X151140570Y-84767400D01*
X151162011Y-84768453D01*
X151162011Y-84768453D01*
G37*
D11*
X150921820Y-85242400D03*
D10*
G36*
X149587011Y-84768453D02*
G01*
X149608246Y-84771603D01*
X149629070Y-84776819D01*
X149649282Y-84784051D01*
X149668688Y-84793230D01*
X149687101Y-84804266D01*
X149704344Y-84817054D01*
X149720250Y-84831470D01*
X149734666Y-84847376D01*
X149747454Y-84864619D01*
X149758490Y-84883032D01*
X149767669Y-84902438D01*
X149774901Y-84922650D01*
X149780117Y-84943474D01*
X149783267Y-84964709D01*
X149784320Y-84986150D01*
X149784320Y-85498650D01*
X149783267Y-85520091D01*
X149780117Y-85541326D01*
X149774901Y-85562150D01*
X149767669Y-85582362D01*
X149758490Y-85601768D01*
X149747454Y-85620181D01*
X149734666Y-85637424D01*
X149720250Y-85653330D01*
X149704344Y-85667746D01*
X149687101Y-85680534D01*
X149668688Y-85691570D01*
X149649282Y-85700749D01*
X149629070Y-85707981D01*
X149608246Y-85713197D01*
X149587011Y-85716347D01*
X149565570Y-85717400D01*
X149128070Y-85717400D01*
X149106629Y-85716347D01*
X149085394Y-85713197D01*
X149064570Y-85707981D01*
X149044358Y-85700749D01*
X149024952Y-85691570D01*
X149006539Y-85680534D01*
X148989296Y-85667746D01*
X148973390Y-85653330D01*
X148958974Y-85637424D01*
X148946186Y-85620181D01*
X148935150Y-85601768D01*
X148925971Y-85582362D01*
X148918739Y-85562150D01*
X148913523Y-85541326D01*
X148910373Y-85520091D01*
X148909320Y-85498650D01*
X148909320Y-84986150D01*
X148910373Y-84964709D01*
X148913523Y-84943474D01*
X148918739Y-84922650D01*
X148925971Y-84902438D01*
X148935150Y-84883032D01*
X148946186Y-84864619D01*
X148958974Y-84847376D01*
X148973390Y-84831470D01*
X148989296Y-84817054D01*
X149006539Y-84804266D01*
X149024952Y-84793230D01*
X149044358Y-84784051D01*
X149064570Y-84776819D01*
X149085394Y-84771603D01*
X149106629Y-84768453D01*
X149128070Y-84767400D01*
X149565570Y-84767400D01*
X149587011Y-84768453D01*
X149587011Y-84768453D01*
G37*
D11*
X149346820Y-85242400D03*
D10*
G36*
X149007391Y-88336653D02*
G01*
X149028626Y-88339803D01*
X149049450Y-88345019D01*
X149069662Y-88352251D01*
X149089068Y-88361430D01*
X149107481Y-88372466D01*
X149124724Y-88385254D01*
X149140630Y-88399670D01*
X149155046Y-88415576D01*
X149167834Y-88432819D01*
X149178870Y-88451232D01*
X149188049Y-88470638D01*
X149195281Y-88490850D01*
X149200497Y-88511674D01*
X149203647Y-88532909D01*
X149204700Y-88554350D01*
X149204700Y-88991850D01*
X149203647Y-89013291D01*
X149200497Y-89034526D01*
X149195281Y-89055350D01*
X149188049Y-89075562D01*
X149178870Y-89094968D01*
X149167834Y-89113381D01*
X149155046Y-89130624D01*
X149140630Y-89146530D01*
X149124724Y-89160946D01*
X149107481Y-89173734D01*
X149089068Y-89184770D01*
X149069662Y-89193949D01*
X149049450Y-89201181D01*
X149028626Y-89206397D01*
X149007391Y-89209547D01*
X148985950Y-89210600D01*
X148473450Y-89210600D01*
X148452009Y-89209547D01*
X148430774Y-89206397D01*
X148409950Y-89201181D01*
X148389738Y-89193949D01*
X148370332Y-89184770D01*
X148351919Y-89173734D01*
X148334676Y-89160946D01*
X148318770Y-89146530D01*
X148304354Y-89130624D01*
X148291566Y-89113381D01*
X148280530Y-89094968D01*
X148271351Y-89075562D01*
X148264119Y-89055350D01*
X148258903Y-89034526D01*
X148255753Y-89013291D01*
X148254700Y-88991850D01*
X148254700Y-88554350D01*
X148255753Y-88532909D01*
X148258903Y-88511674D01*
X148264119Y-88490850D01*
X148271351Y-88470638D01*
X148280530Y-88451232D01*
X148291566Y-88432819D01*
X148304354Y-88415576D01*
X148318770Y-88399670D01*
X148334676Y-88385254D01*
X148351919Y-88372466D01*
X148370332Y-88361430D01*
X148389738Y-88352251D01*
X148409950Y-88345019D01*
X148430774Y-88339803D01*
X148452009Y-88336653D01*
X148473450Y-88335600D01*
X148985950Y-88335600D01*
X149007391Y-88336653D01*
X149007391Y-88336653D01*
G37*
D11*
X148729700Y-88773100D03*
D10*
G36*
X149007391Y-86761653D02*
G01*
X149028626Y-86764803D01*
X149049450Y-86770019D01*
X149069662Y-86777251D01*
X149089068Y-86786430D01*
X149107481Y-86797466D01*
X149124724Y-86810254D01*
X149140630Y-86824670D01*
X149155046Y-86840576D01*
X149167834Y-86857819D01*
X149178870Y-86876232D01*
X149188049Y-86895638D01*
X149195281Y-86915850D01*
X149200497Y-86936674D01*
X149203647Y-86957909D01*
X149204700Y-86979350D01*
X149204700Y-87416850D01*
X149203647Y-87438291D01*
X149200497Y-87459526D01*
X149195281Y-87480350D01*
X149188049Y-87500562D01*
X149178870Y-87519968D01*
X149167834Y-87538381D01*
X149155046Y-87555624D01*
X149140630Y-87571530D01*
X149124724Y-87585946D01*
X149107481Y-87598734D01*
X149089068Y-87609770D01*
X149069662Y-87618949D01*
X149049450Y-87626181D01*
X149028626Y-87631397D01*
X149007391Y-87634547D01*
X148985950Y-87635600D01*
X148473450Y-87635600D01*
X148452009Y-87634547D01*
X148430774Y-87631397D01*
X148409950Y-87626181D01*
X148389738Y-87618949D01*
X148370332Y-87609770D01*
X148351919Y-87598734D01*
X148334676Y-87585946D01*
X148318770Y-87571530D01*
X148304354Y-87555624D01*
X148291566Y-87538381D01*
X148280530Y-87519968D01*
X148271351Y-87500562D01*
X148264119Y-87480350D01*
X148258903Y-87459526D01*
X148255753Y-87438291D01*
X148254700Y-87416850D01*
X148254700Y-86979350D01*
X148255753Y-86957909D01*
X148258903Y-86936674D01*
X148264119Y-86915850D01*
X148271351Y-86895638D01*
X148280530Y-86876232D01*
X148291566Y-86857819D01*
X148304354Y-86840576D01*
X148318770Y-86824670D01*
X148334676Y-86810254D01*
X148351919Y-86797466D01*
X148370332Y-86786430D01*
X148389738Y-86777251D01*
X148409950Y-86770019D01*
X148430774Y-86764803D01*
X148452009Y-86761653D01*
X148473450Y-86760600D01*
X148985950Y-86760600D01*
X149007391Y-86761653D01*
X149007391Y-86761653D01*
G37*
D11*
X148729700Y-87198100D03*
D10*
G36*
X173414251Y-91961233D02*
G01*
X173435486Y-91964383D01*
X173456310Y-91969599D01*
X173476522Y-91976831D01*
X173495928Y-91986010D01*
X173514341Y-91997046D01*
X173531584Y-92009834D01*
X173547490Y-92024250D01*
X173561906Y-92040156D01*
X173574694Y-92057399D01*
X173585730Y-92075812D01*
X173594909Y-92095218D01*
X173602141Y-92115430D01*
X173607357Y-92136254D01*
X173610507Y-92157489D01*
X173611560Y-92178930D01*
X173611560Y-92616430D01*
X173610507Y-92637871D01*
X173607357Y-92659106D01*
X173602141Y-92679930D01*
X173594909Y-92700142D01*
X173585730Y-92719548D01*
X173574694Y-92737961D01*
X173561906Y-92755204D01*
X173547490Y-92771110D01*
X173531584Y-92785526D01*
X173514341Y-92798314D01*
X173495928Y-92809350D01*
X173476522Y-92818529D01*
X173456310Y-92825761D01*
X173435486Y-92830977D01*
X173414251Y-92834127D01*
X173392810Y-92835180D01*
X172880310Y-92835180D01*
X172858869Y-92834127D01*
X172837634Y-92830977D01*
X172816810Y-92825761D01*
X172796598Y-92818529D01*
X172777192Y-92809350D01*
X172758779Y-92798314D01*
X172741536Y-92785526D01*
X172725630Y-92771110D01*
X172711214Y-92755204D01*
X172698426Y-92737961D01*
X172687390Y-92719548D01*
X172678211Y-92700142D01*
X172670979Y-92679930D01*
X172665763Y-92659106D01*
X172662613Y-92637871D01*
X172661560Y-92616430D01*
X172661560Y-92178930D01*
X172662613Y-92157489D01*
X172665763Y-92136254D01*
X172670979Y-92115430D01*
X172678211Y-92095218D01*
X172687390Y-92075812D01*
X172698426Y-92057399D01*
X172711214Y-92040156D01*
X172725630Y-92024250D01*
X172741536Y-92009834D01*
X172758779Y-91997046D01*
X172777192Y-91986010D01*
X172796598Y-91976831D01*
X172816810Y-91969599D01*
X172837634Y-91964383D01*
X172858869Y-91961233D01*
X172880310Y-91960180D01*
X173392810Y-91960180D01*
X173414251Y-91961233D01*
X173414251Y-91961233D01*
G37*
D11*
X173136560Y-92397680D03*
D10*
G36*
X173414251Y-90386233D02*
G01*
X173435486Y-90389383D01*
X173456310Y-90394599D01*
X173476522Y-90401831D01*
X173495928Y-90411010D01*
X173514341Y-90422046D01*
X173531584Y-90434834D01*
X173547490Y-90449250D01*
X173561906Y-90465156D01*
X173574694Y-90482399D01*
X173585730Y-90500812D01*
X173594909Y-90520218D01*
X173602141Y-90540430D01*
X173607357Y-90561254D01*
X173610507Y-90582489D01*
X173611560Y-90603930D01*
X173611560Y-91041430D01*
X173610507Y-91062871D01*
X173607357Y-91084106D01*
X173602141Y-91104930D01*
X173594909Y-91125142D01*
X173585730Y-91144548D01*
X173574694Y-91162961D01*
X173561906Y-91180204D01*
X173547490Y-91196110D01*
X173531584Y-91210526D01*
X173514341Y-91223314D01*
X173495928Y-91234350D01*
X173476522Y-91243529D01*
X173456310Y-91250761D01*
X173435486Y-91255977D01*
X173414251Y-91259127D01*
X173392810Y-91260180D01*
X172880310Y-91260180D01*
X172858869Y-91259127D01*
X172837634Y-91255977D01*
X172816810Y-91250761D01*
X172796598Y-91243529D01*
X172777192Y-91234350D01*
X172758779Y-91223314D01*
X172741536Y-91210526D01*
X172725630Y-91196110D01*
X172711214Y-91180204D01*
X172698426Y-91162961D01*
X172687390Y-91144548D01*
X172678211Y-91125142D01*
X172670979Y-91104930D01*
X172665763Y-91084106D01*
X172662613Y-91062871D01*
X172661560Y-91041430D01*
X172661560Y-90603930D01*
X172662613Y-90582489D01*
X172665763Y-90561254D01*
X172670979Y-90540430D01*
X172678211Y-90520218D01*
X172687390Y-90500812D01*
X172698426Y-90482399D01*
X172711214Y-90465156D01*
X172725630Y-90449250D01*
X172741536Y-90434834D01*
X172758779Y-90422046D01*
X172777192Y-90411010D01*
X172796598Y-90401831D01*
X172816810Y-90394599D01*
X172837634Y-90389383D01*
X172858869Y-90386233D01*
X172880310Y-90385180D01*
X173392810Y-90385180D01*
X173414251Y-90386233D01*
X173414251Y-90386233D01*
G37*
D11*
X173136560Y-90822680D03*
D10*
G36*
X167257291Y-79967353D02*
G01*
X167278526Y-79970503D01*
X167299350Y-79975719D01*
X167319562Y-79982951D01*
X167338968Y-79992130D01*
X167357381Y-80003166D01*
X167374624Y-80015954D01*
X167390530Y-80030370D01*
X167404946Y-80046276D01*
X167417734Y-80063519D01*
X167428770Y-80081932D01*
X167437949Y-80101338D01*
X167445181Y-80121550D01*
X167450397Y-80142374D01*
X167453547Y-80163609D01*
X167454600Y-80185050D01*
X167454600Y-80622550D01*
X167453547Y-80643991D01*
X167450397Y-80665226D01*
X167445181Y-80686050D01*
X167437949Y-80706262D01*
X167428770Y-80725668D01*
X167417734Y-80744081D01*
X167404946Y-80761324D01*
X167390530Y-80777230D01*
X167374624Y-80791646D01*
X167357381Y-80804434D01*
X167338968Y-80815470D01*
X167319562Y-80824649D01*
X167299350Y-80831881D01*
X167278526Y-80837097D01*
X167257291Y-80840247D01*
X167235850Y-80841300D01*
X166723350Y-80841300D01*
X166701909Y-80840247D01*
X166680674Y-80837097D01*
X166659850Y-80831881D01*
X166639638Y-80824649D01*
X166620232Y-80815470D01*
X166601819Y-80804434D01*
X166584576Y-80791646D01*
X166568670Y-80777230D01*
X166554254Y-80761324D01*
X166541466Y-80744081D01*
X166530430Y-80725668D01*
X166521251Y-80706262D01*
X166514019Y-80686050D01*
X166508803Y-80665226D01*
X166505653Y-80643991D01*
X166504600Y-80622550D01*
X166504600Y-80185050D01*
X166505653Y-80163609D01*
X166508803Y-80142374D01*
X166514019Y-80121550D01*
X166521251Y-80101338D01*
X166530430Y-80081932D01*
X166541466Y-80063519D01*
X166554254Y-80046276D01*
X166568670Y-80030370D01*
X166584576Y-80015954D01*
X166601819Y-80003166D01*
X166620232Y-79992130D01*
X166639638Y-79982951D01*
X166659850Y-79975719D01*
X166680674Y-79970503D01*
X166701909Y-79967353D01*
X166723350Y-79966300D01*
X167235850Y-79966300D01*
X167257291Y-79967353D01*
X167257291Y-79967353D01*
G37*
D11*
X166979600Y-80403800D03*
D10*
G36*
X167257291Y-78392353D02*
G01*
X167278526Y-78395503D01*
X167299350Y-78400719D01*
X167319562Y-78407951D01*
X167338968Y-78417130D01*
X167357381Y-78428166D01*
X167374624Y-78440954D01*
X167390530Y-78455370D01*
X167404946Y-78471276D01*
X167417734Y-78488519D01*
X167428770Y-78506932D01*
X167437949Y-78526338D01*
X167445181Y-78546550D01*
X167450397Y-78567374D01*
X167453547Y-78588609D01*
X167454600Y-78610050D01*
X167454600Y-79047550D01*
X167453547Y-79068991D01*
X167450397Y-79090226D01*
X167445181Y-79111050D01*
X167437949Y-79131262D01*
X167428770Y-79150668D01*
X167417734Y-79169081D01*
X167404946Y-79186324D01*
X167390530Y-79202230D01*
X167374624Y-79216646D01*
X167357381Y-79229434D01*
X167338968Y-79240470D01*
X167319562Y-79249649D01*
X167299350Y-79256881D01*
X167278526Y-79262097D01*
X167257291Y-79265247D01*
X167235850Y-79266300D01*
X166723350Y-79266300D01*
X166701909Y-79265247D01*
X166680674Y-79262097D01*
X166659850Y-79256881D01*
X166639638Y-79249649D01*
X166620232Y-79240470D01*
X166601819Y-79229434D01*
X166584576Y-79216646D01*
X166568670Y-79202230D01*
X166554254Y-79186324D01*
X166541466Y-79169081D01*
X166530430Y-79150668D01*
X166521251Y-79131262D01*
X166514019Y-79111050D01*
X166508803Y-79090226D01*
X166505653Y-79068991D01*
X166504600Y-79047550D01*
X166504600Y-78610050D01*
X166505653Y-78588609D01*
X166508803Y-78567374D01*
X166514019Y-78546550D01*
X166521251Y-78526338D01*
X166530430Y-78506932D01*
X166541466Y-78488519D01*
X166554254Y-78471276D01*
X166568670Y-78455370D01*
X166584576Y-78440954D01*
X166601819Y-78428166D01*
X166620232Y-78417130D01*
X166639638Y-78407951D01*
X166659850Y-78400719D01*
X166680674Y-78395503D01*
X166701909Y-78392353D01*
X166723350Y-78391300D01*
X167235850Y-78391300D01*
X167257291Y-78392353D01*
X167257291Y-78392353D01*
G37*
D11*
X166979600Y-78828800D03*
D10*
G36*
X136496051Y-79050913D02*
G01*
X136517286Y-79054063D01*
X136538110Y-79059279D01*
X136558322Y-79066511D01*
X136577728Y-79075690D01*
X136596141Y-79086726D01*
X136613384Y-79099514D01*
X136629290Y-79113930D01*
X136643706Y-79129836D01*
X136656494Y-79147079D01*
X136667530Y-79165492D01*
X136676709Y-79184898D01*
X136683941Y-79205110D01*
X136689157Y-79225934D01*
X136692307Y-79247169D01*
X136693360Y-79268610D01*
X136693360Y-79781110D01*
X136692307Y-79802551D01*
X136689157Y-79823786D01*
X136683941Y-79844610D01*
X136676709Y-79864822D01*
X136667530Y-79884228D01*
X136656494Y-79902641D01*
X136643706Y-79919884D01*
X136629290Y-79935790D01*
X136613384Y-79950206D01*
X136596141Y-79962994D01*
X136577728Y-79974030D01*
X136558322Y-79983209D01*
X136538110Y-79990441D01*
X136517286Y-79995657D01*
X136496051Y-79998807D01*
X136474610Y-79999860D01*
X136037110Y-79999860D01*
X136015669Y-79998807D01*
X135994434Y-79995657D01*
X135973610Y-79990441D01*
X135953398Y-79983209D01*
X135933992Y-79974030D01*
X135915579Y-79962994D01*
X135898336Y-79950206D01*
X135882430Y-79935790D01*
X135868014Y-79919884D01*
X135855226Y-79902641D01*
X135844190Y-79884228D01*
X135835011Y-79864822D01*
X135827779Y-79844610D01*
X135822563Y-79823786D01*
X135819413Y-79802551D01*
X135818360Y-79781110D01*
X135818360Y-79268610D01*
X135819413Y-79247169D01*
X135822563Y-79225934D01*
X135827779Y-79205110D01*
X135835011Y-79184898D01*
X135844190Y-79165492D01*
X135855226Y-79147079D01*
X135868014Y-79129836D01*
X135882430Y-79113930D01*
X135898336Y-79099514D01*
X135915579Y-79086726D01*
X135933992Y-79075690D01*
X135953398Y-79066511D01*
X135973610Y-79059279D01*
X135994434Y-79054063D01*
X136015669Y-79050913D01*
X136037110Y-79049860D01*
X136474610Y-79049860D01*
X136496051Y-79050913D01*
X136496051Y-79050913D01*
G37*
D11*
X136255860Y-79524860D03*
D10*
G36*
X134921051Y-79050913D02*
G01*
X134942286Y-79054063D01*
X134963110Y-79059279D01*
X134983322Y-79066511D01*
X135002728Y-79075690D01*
X135021141Y-79086726D01*
X135038384Y-79099514D01*
X135054290Y-79113930D01*
X135068706Y-79129836D01*
X135081494Y-79147079D01*
X135092530Y-79165492D01*
X135101709Y-79184898D01*
X135108941Y-79205110D01*
X135114157Y-79225934D01*
X135117307Y-79247169D01*
X135118360Y-79268610D01*
X135118360Y-79781110D01*
X135117307Y-79802551D01*
X135114157Y-79823786D01*
X135108941Y-79844610D01*
X135101709Y-79864822D01*
X135092530Y-79884228D01*
X135081494Y-79902641D01*
X135068706Y-79919884D01*
X135054290Y-79935790D01*
X135038384Y-79950206D01*
X135021141Y-79962994D01*
X135002728Y-79974030D01*
X134983322Y-79983209D01*
X134963110Y-79990441D01*
X134942286Y-79995657D01*
X134921051Y-79998807D01*
X134899610Y-79999860D01*
X134462110Y-79999860D01*
X134440669Y-79998807D01*
X134419434Y-79995657D01*
X134398610Y-79990441D01*
X134378398Y-79983209D01*
X134358992Y-79974030D01*
X134340579Y-79962994D01*
X134323336Y-79950206D01*
X134307430Y-79935790D01*
X134293014Y-79919884D01*
X134280226Y-79902641D01*
X134269190Y-79884228D01*
X134260011Y-79864822D01*
X134252779Y-79844610D01*
X134247563Y-79823786D01*
X134244413Y-79802551D01*
X134243360Y-79781110D01*
X134243360Y-79268610D01*
X134244413Y-79247169D01*
X134247563Y-79225934D01*
X134252779Y-79205110D01*
X134260011Y-79184898D01*
X134269190Y-79165492D01*
X134280226Y-79147079D01*
X134293014Y-79129836D01*
X134307430Y-79113930D01*
X134323336Y-79099514D01*
X134340579Y-79086726D01*
X134358992Y-79075690D01*
X134378398Y-79066511D01*
X134398610Y-79059279D01*
X134419434Y-79054063D01*
X134440669Y-79050913D01*
X134462110Y-79049860D01*
X134899610Y-79049860D01*
X134921051Y-79050913D01*
X134921051Y-79050913D01*
G37*
D11*
X134680860Y-79524860D03*
D10*
G36*
X136630671Y-81491853D02*
G01*
X136651906Y-81495003D01*
X136672730Y-81500219D01*
X136692942Y-81507451D01*
X136712348Y-81516630D01*
X136730761Y-81527666D01*
X136748004Y-81540454D01*
X136763910Y-81554870D01*
X136778326Y-81570776D01*
X136791114Y-81588019D01*
X136802150Y-81606432D01*
X136811329Y-81625838D01*
X136818561Y-81646050D01*
X136823777Y-81666874D01*
X136826927Y-81688109D01*
X136827980Y-81709550D01*
X136827980Y-82222050D01*
X136826927Y-82243491D01*
X136823777Y-82264726D01*
X136818561Y-82285550D01*
X136811329Y-82305762D01*
X136802150Y-82325168D01*
X136791114Y-82343581D01*
X136778326Y-82360824D01*
X136763910Y-82376730D01*
X136748004Y-82391146D01*
X136730761Y-82403934D01*
X136712348Y-82414970D01*
X136692942Y-82424149D01*
X136672730Y-82431381D01*
X136651906Y-82436597D01*
X136630671Y-82439747D01*
X136609230Y-82440800D01*
X136171730Y-82440800D01*
X136150289Y-82439747D01*
X136129054Y-82436597D01*
X136108230Y-82431381D01*
X136088018Y-82424149D01*
X136068612Y-82414970D01*
X136050199Y-82403934D01*
X136032956Y-82391146D01*
X136017050Y-82376730D01*
X136002634Y-82360824D01*
X135989846Y-82343581D01*
X135978810Y-82325168D01*
X135969631Y-82305762D01*
X135962399Y-82285550D01*
X135957183Y-82264726D01*
X135954033Y-82243491D01*
X135952980Y-82222050D01*
X135952980Y-81709550D01*
X135954033Y-81688109D01*
X135957183Y-81666874D01*
X135962399Y-81646050D01*
X135969631Y-81625838D01*
X135978810Y-81606432D01*
X135989846Y-81588019D01*
X136002634Y-81570776D01*
X136017050Y-81554870D01*
X136032956Y-81540454D01*
X136050199Y-81527666D01*
X136068612Y-81516630D01*
X136088018Y-81507451D01*
X136108230Y-81500219D01*
X136129054Y-81495003D01*
X136150289Y-81491853D01*
X136171730Y-81490800D01*
X136609230Y-81490800D01*
X136630671Y-81491853D01*
X136630671Y-81491853D01*
G37*
D11*
X136390480Y-81965800D03*
D10*
G36*
X135055671Y-81491853D02*
G01*
X135076906Y-81495003D01*
X135097730Y-81500219D01*
X135117942Y-81507451D01*
X135137348Y-81516630D01*
X135155761Y-81527666D01*
X135173004Y-81540454D01*
X135188910Y-81554870D01*
X135203326Y-81570776D01*
X135216114Y-81588019D01*
X135227150Y-81606432D01*
X135236329Y-81625838D01*
X135243561Y-81646050D01*
X135248777Y-81666874D01*
X135251927Y-81688109D01*
X135252980Y-81709550D01*
X135252980Y-82222050D01*
X135251927Y-82243491D01*
X135248777Y-82264726D01*
X135243561Y-82285550D01*
X135236329Y-82305762D01*
X135227150Y-82325168D01*
X135216114Y-82343581D01*
X135203326Y-82360824D01*
X135188910Y-82376730D01*
X135173004Y-82391146D01*
X135155761Y-82403934D01*
X135137348Y-82414970D01*
X135117942Y-82424149D01*
X135097730Y-82431381D01*
X135076906Y-82436597D01*
X135055671Y-82439747D01*
X135034230Y-82440800D01*
X134596730Y-82440800D01*
X134575289Y-82439747D01*
X134554054Y-82436597D01*
X134533230Y-82431381D01*
X134513018Y-82424149D01*
X134493612Y-82414970D01*
X134475199Y-82403934D01*
X134457956Y-82391146D01*
X134442050Y-82376730D01*
X134427634Y-82360824D01*
X134414846Y-82343581D01*
X134403810Y-82325168D01*
X134394631Y-82305762D01*
X134387399Y-82285550D01*
X134382183Y-82264726D01*
X134379033Y-82243491D01*
X134377980Y-82222050D01*
X134377980Y-81709550D01*
X134379033Y-81688109D01*
X134382183Y-81666874D01*
X134387399Y-81646050D01*
X134394631Y-81625838D01*
X134403810Y-81606432D01*
X134414846Y-81588019D01*
X134427634Y-81570776D01*
X134442050Y-81554870D01*
X134457956Y-81540454D01*
X134475199Y-81527666D01*
X134493612Y-81516630D01*
X134513018Y-81507451D01*
X134533230Y-81500219D01*
X134554054Y-81495003D01*
X134575289Y-81491853D01*
X134596730Y-81490800D01*
X135034230Y-81490800D01*
X135055671Y-81491853D01*
X135055671Y-81491853D01*
G37*
D11*
X134815480Y-81965800D03*
D22*
X172341360Y-94023180D03*
X174541360Y-94023180D03*
D23*
X174443960Y-91559380D03*
X175943960Y-91559380D03*
D10*
G36*
X150454442Y-89876474D02*
G01*
X150478103Y-89879984D01*
X150501307Y-89885796D01*
X150523829Y-89893854D01*
X150545453Y-89904082D01*
X150565970Y-89916379D01*
X150585183Y-89930629D01*
X150602907Y-89946693D01*
X150618971Y-89964417D01*
X150633221Y-89983630D01*
X150645518Y-90004147D01*
X150655746Y-90025771D01*
X150663804Y-90048293D01*
X150669616Y-90071497D01*
X150673126Y-90095158D01*
X150674300Y-90119050D01*
X150674300Y-90606550D01*
X150673126Y-90630442D01*
X150669616Y-90654103D01*
X150663804Y-90677307D01*
X150655746Y-90699829D01*
X150645518Y-90721453D01*
X150633221Y-90741970D01*
X150618971Y-90761183D01*
X150602907Y-90778907D01*
X150585183Y-90794971D01*
X150565970Y-90809221D01*
X150545453Y-90821518D01*
X150523829Y-90831746D01*
X150501307Y-90839804D01*
X150478103Y-90845616D01*
X150454442Y-90849126D01*
X150430550Y-90850300D01*
X149518050Y-90850300D01*
X149494158Y-90849126D01*
X149470497Y-90845616D01*
X149447293Y-90839804D01*
X149424771Y-90831746D01*
X149403147Y-90821518D01*
X149382630Y-90809221D01*
X149363417Y-90794971D01*
X149345693Y-90778907D01*
X149329629Y-90761183D01*
X149315379Y-90741970D01*
X149303082Y-90721453D01*
X149292854Y-90699829D01*
X149284796Y-90677307D01*
X149278984Y-90654103D01*
X149275474Y-90630442D01*
X149274300Y-90606550D01*
X149274300Y-90119050D01*
X149275474Y-90095158D01*
X149278984Y-90071497D01*
X149284796Y-90048293D01*
X149292854Y-90025771D01*
X149303082Y-90004147D01*
X149315379Y-89983630D01*
X149329629Y-89964417D01*
X149345693Y-89946693D01*
X149363417Y-89930629D01*
X149382630Y-89916379D01*
X149403147Y-89904082D01*
X149424771Y-89893854D01*
X149447293Y-89885796D01*
X149470497Y-89879984D01*
X149494158Y-89876474D01*
X149518050Y-89875300D01*
X150430550Y-89875300D01*
X150454442Y-89876474D01*
X150454442Y-89876474D01*
G37*
D24*
X149974300Y-90362800D03*
D10*
G36*
X150454442Y-91751474D02*
G01*
X150478103Y-91754984D01*
X150501307Y-91760796D01*
X150523829Y-91768854D01*
X150545453Y-91779082D01*
X150565970Y-91791379D01*
X150585183Y-91805629D01*
X150602907Y-91821693D01*
X150618971Y-91839417D01*
X150633221Y-91858630D01*
X150645518Y-91879147D01*
X150655746Y-91900771D01*
X150663804Y-91923293D01*
X150669616Y-91946497D01*
X150673126Y-91970158D01*
X150674300Y-91994050D01*
X150674300Y-92481550D01*
X150673126Y-92505442D01*
X150669616Y-92529103D01*
X150663804Y-92552307D01*
X150655746Y-92574829D01*
X150645518Y-92596453D01*
X150633221Y-92616970D01*
X150618971Y-92636183D01*
X150602907Y-92653907D01*
X150585183Y-92669971D01*
X150565970Y-92684221D01*
X150545453Y-92696518D01*
X150523829Y-92706746D01*
X150501307Y-92714804D01*
X150478103Y-92720616D01*
X150454442Y-92724126D01*
X150430550Y-92725300D01*
X149518050Y-92725300D01*
X149494158Y-92724126D01*
X149470497Y-92720616D01*
X149447293Y-92714804D01*
X149424771Y-92706746D01*
X149403147Y-92696518D01*
X149382630Y-92684221D01*
X149363417Y-92669971D01*
X149345693Y-92653907D01*
X149329629Y-92636183D01*
X149315379Y-92616970D01*
X149303082Y-92596453D01*
X149292854Y-92574829D01*
X149284796Y-92552307D01*
X149278984Y-92529103D01*
X149275474Y-92505442D01*
X149274300Y-92481550D01*
X149274300Y-91994050D01*
X149275474Y-91970158D01*
X149278984Y-91946497D01*
X149284796Y-91923293D01*
X149292854Y-91900771D01*
X149303082Y-91879147D01*
X149315379Y-91858630D01*
X149329629Y-91839417D01*
X149345693Y-91821693D01*
X149363417Y-91805629D01*
X149382630Y-91791379D01*
X149403147Y-91779082D01*
X149424771Y-91768854D01*
X149447293Y-91760796D01*
X149470497Y-91754984D01*
X149494158Y-91751474D01*
X149518050Y-91750300D01*
X150430550Y-91750300D01*
X150454442Y-91751474D01*
X150454442Y-91751474D01*
G37*
D24*
X149974300Y-92237800D03*
M02*
