G04 #@! TF.GenerationSoftware,KiCad,Pcbnew,(5.1.4)-1*
G04 #@! TF.CreationDate,2020-01-31T22:29:49-05:00*
G04 #@! TF.ProjectId,Feather-NEO-M9N-GPS,46656174-6865-4722-9d4e-454f2d4d394e,rev?*
G04 #@! TF.SameCoordinates,Original*
G04 #@! TF.FileFunction,Soldermask,Top*
G04 #@! TF.FilePolarity,Negative*
%FSLAX46Y46*%
G04 Gerber Fmt 4.6, Leading zero omitted, Abs format (unit mm)*
G04 Created by KiCad (PCBNEW (5.1.4)-1) date 2020-01-31 22:29:49*
%MOMM*%
%LPD*%
G04 APERTURE LIST*
%ADD10C,0.100000*%
G04 APERTURE END LIST*
D10*
G36*
X135889300Y-96989200D02*
G01*
X134087300Y-96989200D01*
X134087300Y-95187200D01*
X135889300Y-95187200D01*
X135889300Y-96989200D01*
X135889300Y-96989200D01*
G37*
G36*
X155418743Y-95193719D02*
G01*
X155484927Y-95200237D01*
X155654766Y-95251757D01*
X155811291Y-95335422D01*
X155847029Y-95364752D01*
X155948486Y-95448014D01*
X156031748Y-95549471D01*
X156061078Y-95585209D01*
X156144743Y-95741734D01*
X156196263Y-95911573D01*
X156213659Y-96088200D01*
X156196263Y-96264827D01*
X156144743Y-96434666D01*
X156061078Y-96591191D01*
X156031748Y-96626929D01*
X155948486Y-96728386D01*
X155847029Y-96811648D01*
X155811291Y-96840978D01*
X155654766Y-96924643D01*
X155484927Y-96976163D01*
X155418743Y-96982681D01*
X155352560Y-96989200D01*
X155264040Y-96989200D01*
X155197857Y-96982681D01*
X155131673Y-96976163D01*
X154961834Y-96924643D01*
X154805309Y-96840978D01*
X154769571Y-96811648D01*
X154668114Y-96728386D01*
X154584852Y-96626929D01*
X154555522Y-96591191D01*
X154471857Y-96434666D01*
X154420337Y-96264827D01*
X154402941Y-96088200D01*
X154420337Y-95911573D01*
X154471857Y-95741734D01*
X154555522Y-95585209D01*
X154584852Y-95549471D01*
X154668114Y-95448014D01*
X154769571Y-95364752D01*
X154805309Y-95335422D01*
X154961834Y-95251757D01*
X155131673Y-95200237D01*
X155197857Y-95193719D01*
X155264040Y-95187200D01*
X155352560Y-95187200D01*
X155418743Y-95193719D01*
X155418743Y-95193719D01*
G37*
G36*
X173198743Y-95193719D02*
G01*
X173264927Y-95200237D01*
X173434766Y-95251757D01*
X173591291Y-95335422D01*
X173627029Y-95364752D01*
X173728486Y-95448014D01*
X173811748Y-95549471D01*
X173841078Y-95585209D01*
X173924743Y-95741734D01*
X173976263Y-95911573D01*
X173993659Y-96088200D01*
X173976263Y-96264827D01*
X173924743Y-96434666D01*
X173841078Y-96591191D01*
X173811748Y-96626929D01*
X173728486Y-96728386D01*
X173627029Y-96811648D01*
X173591291Y-96840978D01*
X173434766Y-96924643D01*
X173264927Y-96976163D01*
X173198743Y-96982681D01*
X173132560Y-96989200D01*
X173044040Y-96989200D01*
X172977857Y-96982681D01*
X172911673Y-96976163D01*
X172741834Y-96924643D01*
X172585309Y-96840978D01*
X172549571Y-96811648D01*
X172448114Y-96728386D01*
X172364852Y-96626929D01*
X172335522Y-96591191D01*
X172251857Y-96434666D01*
X172200337Y-96264827D01*
X172182941Y-96088200D01*
X172200337Y-95911573D01*
X172251857Y-95741734D01*
X172335522Y-95585209D01*
X172364852Y-95549471D01*
X172448114Y-95448014D01*
X172549571Y-95364752D01*
X172585309Y-95335422D01*
X172741834Y-95251757D01*
X172911673Y-95200237D01*
X172977857Y-95193719D01*
X173044040Y-95187200D01*
X173132560Y-95187200D01*
X173198743Y-95193719D01*
X173198743Y-95193719D01*
G37*
G36*
X168118743Y-95193719D02*
G01*
X168184927Y-95200237D01*
X168354766Y-95251757D01*
X168511291Y-95335422D01*
X168547029Y-95364752D01*
X168648486Y-95448014D01*
X168731748Y-95549471D01*
X168761078Y-95585209D01*
X168844743Y-95741734D01*
X168896263Y-95911573D01*
X168913659Y-96088200D01*
X168896263Y-96264827D01*
X168844743Y-96434666D01*
X168761078Y-96591191D01*
X168731748Y-96626929D01*
X168648486Y-96728386D01*
X168547029Y-96811648D01*
X168511291Y-96840978D01*
X168354766Y-96924643D01*
X168184927Y-96976163D01*
X168118743Y-96982681D01*
X168052560Y-96989200D01*
X167964040Y-96989200D01*
X167897857Y-96982681D01*
X167831673Y-96976163D01*
X167661834Y-96924643D01*
X167505309Y-96840978D01*
X167469571Y-96811648D01*
X167368114Y-96728386D01*
X167284852Y-96626929D01*
X167255522Y-96591191D01*
X167171857Y-96434666D01*
X167120337Y-96264827D01*
X167102941Y-96088200D01*
X167120337Y-95911573D01*
X167171857Y-95741734D01*
X167255522Y-95585209D01*
X167284852Y-95549471D01*
X167368114Y-95448014D01*
X167469571Y-95364752D01*
X167505309Y-95335422D01*
X167661834Y-95251757D01*
X167831673Y-95200237D01*
X167897857Y-95193719D01*
X167964040Y-95187200D01*
X168052560Y-95187200D01*
X168118743Y-95193719D01*
X168118743Y-95193719D01*
G37*
G36*
X165578743Y-95193719D02*
G01*
X165644927Y-95200237D01*
X165814766Y-95251757D01*
X165971291Y-95335422D01*
X166007029Y-95364752D01*
X166108486Y-95448014D01*
X166191748Y-95549471D01*
X166221078Y-95585209D01*
X166304743Y-95741734D01*
X166356263Y-95911573D01*
X166373659Y-96088200D01*
X166356263Y-96264827D01*
X166304743Y-96434666D01*
X166221078Y-96591191D01*
X166191748Y-96626929D01*
X166108486Y-96728386D01*
X166007029Y-96811648D01*
X165971291Y-96840978D01*
X165814766Y-96924643D01*
X165644927Y-96976163D01*
X165578743Y-96982681D01*
X165512560Y-96989200D01*
X165424040Y-96989200D01*
X165357857Y-96982681D01*
X165291673Y-96976163D01*
X165121834Y-96924643D01*
X164965309Y-96840978D01*
X164929571Y-96811648D01*
X164828114Y-96728386D01*
X164744852Y-96626929D01*
X164715522Y-96591191D01*
X164631857Y-96434666D01*
X164580337Y-96264827D01*
X164562941Y-96088200D01*
X164580337Y-95911573D01*
X164631857Y-95741734D01*
X164715522Y-95585209D01*
X164744852Y-95549471D01*
X164828114Y-95448014D01*
X164929571Y-95364752D01*
X164965309Y-95335422D01*
X165121834Y-95251757D01*
X165291673Y-95200237D01*
X165357857Y-95193719D01*
X165424040Y-95187200D01*
X165512560Y-95187200D01*
X165578743Y-95193719D01*
X165578743Y-95193719D01*
G37*
G36*
X163038743Y-95193719D02*
G01*
X163104927Y-95200237D01*
X163274766Y-95251757D01*
X163431291Y-95335422D01*
X163467029Y-95364752D01*
X163568486Y-95448014D01*
X163651748Y-95549471D01*
X163681078Y-95585209D01*
X163764743Y-95741734D01*
X163816263Y-95911573D01*
X163833659Y-96088200D01*
X163816263Y-96264827D01*
X163764743Y-96434666D01*
X163681078Y-96591191D01*
X163651748Y-96626929D01*
X163568486Y-96728386D01*
X163467029Y-96811648D01*
X163431291Y-96840978D01*
X163274766Y-96924643D01*
X163104927Y-96976163D01*
X163038743Y-96982681D01*
X162972560Y-96989200D01*
X162884040Y-96989200D01*
X162817857Y-96982681D01*
X162751673Y-96976163D01*
X162581834Y-96924643D01*
X162425309Y-96840978D01*
X162389571Y-96811648D01*
X162288114Y-96728386D01*
X162204852Y-96626929D01*
X162175522Y-96591191D01*
X162091857Y-96434666D01*
X162040337Y-96264827D01*
X162022941Y-96088200D01*
X162040337Y-95911573D01*
X162091857Y-95741734D01*
X162175522Y-95585209D01*
X162204852Y-95549471D01*
X162288114Y-95448014D01*
X162389571Y-95364752D01*
X162425309Y-95335422D01*
X162581834Y-95251757D01*
X162751673Y-95200237D01*
X162817857Y-95193719D01*
X162884040Y-95187200D01*
X162972560Y-95187200D01*
X163038743Y-95193719D01*
X163038743Y-95193719D01*
G37*
G36*
X160498743Y-95193719D02*
G01*
X160564927Y-95200237D01*
X160734766Y-95251757D01*
X160891291Y-95335422D01*
X160927029Y-95364752D01*
X161028486Y-95448014D01*
X161111748Y-95549471D01*
X161141078Y-95585209D01*
X161224743Y-95741734D01*
X161276263Y-95911573D01*
X161293659Y-96088200D01*
X161276263Y-96264827D01*
X161224743Y-96434666D01*
X161141078Y-96591191D01*
X161111748Y-96626929D01*
X161028486Y-96728386D01*
X160927029Y-96811648D01*
X160891291Y-96840978D01*
X160734766Y-96924643D01*
X160564927Y-96976163D01*
X160498743Y-96982681D01*
X160432560Y-96989200D01*
X160344040Y-96989200D01*
X160277857Y-96982681D01*
X160211673Y-96976163D01*
X160041834Y-96924643D01*
X159885309Y-96840978D01*
X159849571Y-96811648D01*
X159748114Y-96728386D01*
X159664852Y-96626929D01*
X159635522Y-96591191D01*
X159551857Y-96434666D01*
X159500337Y-96264827D01*
X159482941Y-96088200D01*
X159500337Y-95911573D01*
X159551857Y-95741734D01*
X159635522Y-95585209D01*
X159664852Y-95549471D01*
X159748114Y-95448014D01*
X159849571Y-95364752D01*
X159885309Y-95335422D01*
X160041834Y-95251757D01*
X160211673Y-95200237D01*
X160277857Y-95193719D01*
X160344040Y-95187200D01*
X160432560Y-95187200D01*
X160498743Y-95193719D01*
X160498743Y-95193719D01*
G37*
G36*
X157958743Y-95193719D02*
G01*
X158024927Y-95200237D01*
X158194766Y-95251757D01*
X158351291Y-95335422D01*
X158387029Y-95364752D01*
X158488486Y-95448014D01*
X158571748Y-95549471D01*
X158601078Y-95585209D01*
X158684743Y-95741734D01*
X158736263Y-95911573D01*
X158753659Y-96088200D01*
X158736263Y-96264827D01*
X158684743Y-96434666D01*
X158601078Y-96591191D01*
X158571748Y-96626929D01*
X158488486Y-96728386D01*
X158387029Y-96811648D01*
X158351291Y-96840978D01*
X158194766Y-96924643D01*
X158024927Y-96976163D01*
X157958743Y-96982681D01*
X157892560Y-96989200D01*
X157804040Y-96989200D01*
X157737857Y-96982681D01*
X157671673Y-96976163D01*
X157501834Y-96924643D01*
X157345309Y-96840978D01*
X157309571Y-96811648D01*
X157208114Y-96728386D01*
X157124852Y-96626929D01*
X157095522Y-96591191D01*
X157011857Y-96434666D01*
X156960337Y-96264827D01*
X156942941Y-96088200D01*
X156960337Y-95911573D01*
X157011857Y-95741734D01*
X157095522Y-95585209D01*
X157124852Y-95549471D01*
X157208114Y-95448014D01*
X157309571Y-95364752D01*
X157345309Y-95335422D01*
X157501834Y-95251757D01*
X157671673Y-95200237D01*
X157737857Y-95193719D01*
X157804040Y-95187200D01*
X157892560Y-95187200D01*
X157958743Y-95193719D01*
X157958743Y-95193719D01*
G37*
G36*
X170658743Y-95193719D02*
G01*
X170724927Y-95200237D01*
X170894766Y-95251757D01*
X171051291Y-95335422D01*
X171087029Y-95364752D01*
X171188486Y-95448014D01*
X171271748Y-95549471D01*
X171301078Y-95585209D01*
X171384743Y-95741734D01*
X171436263Y-95911573D01*
X171453659Y-96088200D01*
X171436263Y-96264827D01*
X171384743Y-96434666D01*
X171301078Y-96591191D01*
X171271748Y-96626929D01*
X171188486Y-96728386D01*
X171087029Y-96811648D01*
X171051291Y-96840978D01*
X170894766Y-96924643D01*
X170724927Y-96976163D01*
X170658743Y-96982681D01*
X170592560Y-96989200D01*
X170504040Y-96989200D01*
X170437857Y-96982681D01*
X170371673Y-96976163D01*
X170201834Y-96924643D01*
X170045309Y-96840978D01*
X170009571Y-96811648D01*
X169908114Y-96728386D01*
X169824852Y-96626929D01*
X169795522Y-96591191D01*
X169711857Y-96434666D01*
X169660337Y-96264827D01*
X169642941Y-96088200D01*
X169660337Y-95911573D01*
X169711857Y-95741734D01*
X169795522Y-95585209D01*
X169824852Y-95549471D01*
X169908114Y-95448014D01*
X170009571Y-95364752D01*
X170045309Y-95335422D01*
X170201834Y-95251757D01*
X170371673Y-95200237D01*
X170437857Y-95193719D01*
X170504040Y-95187200D01*
X170592560Y-95187200D01*
X170658743Y-95193719D01*
X170658743Y-95193719D01*
G37*
G36*
X150338743Y-95193719D02*
G01*
X150404927Y-95200237D01*
X150574766Y-95251757D01*
X150731291Y-95335422D01*
X150767029Y-95364752D01*
X150868486Y-95448014D01*
X150951748Y-95549471D01*
X150981078Y-95585209D01*
X151064743Y-95741734D01*
X151116263Y-95911573D01*
X151133659Y-96088200D01*
X151116263Y-96264827D01*
X151064743Y-96434666D01*
X150981078Y-96591191D01*
X150951748Y-96626929D01*
X150868486Y-96728386D01*
X150767029Y-96811648D01*
X150731291Y-96840978D01*
X150574766Y-96924643D01*
X150404927Y-96976163D01*
X150338743Y-96982681D01*
X150272560Y-96989200D01*
X150184040Y-96989200D01*
X150117857Y-96982681D01*
X150051673Y-96976163D01*
X149881834Y-96924643D01*
X149725309Y-96840978D01*
X149689571Y-96811648D01*
X149588114Y-96728386D01*
X149504852Y-96626929D01*
X149475522Y-96591191D01*
X149391857Y-96434666D01*
X149340337Y-96264827D01*
X149322941Y-96088200D01*
X149340337Y-95911573D01*
X149391857Y-95741734D01*
X149475522Y-95585209D01*
X149504852Y-95549471D01*
X149588114Y-95448014D01*
X149689571Y-95364752D01*
X149725309Y-95335422D01*
X149881834Y-95251757D01*
X150051673Y-95200237D01*
X150117857Y-95193719D01*
X150184040Y-95187200D01*
X150272560Y-95187200D01*
X150338743Y-95193719D01*
X150338743Y-95193719D01*
G37*
G36*
X152878743Y-95193719D02*
G01*
X152944927Y-95200237D01*
X153114766Y-95251757D01*
X153271291Y-95335422D01*
X153307029Y-95364752D01*
X153408486Y-95448014D01*
X153491748Y-95549471D01*
X153521078Y-95585209D01*
X153604743Y-95741734D01*
X153656263Y-95911573D01*
X153673659Y-96088200D01*
X153656263Y-96264827D01*
X153604743Y-96434666D01*
X153521078Y-96591191D01*
X153491748Y-96626929D01*
X153408486Y-96728386D01*
X153307029Y-96811648D01*
X153271291Y-96840978D01*
X153114766Y-96924643D01*
X152944927Y-96976163D01*
X152878743Y-96982681D01*
X152812560Y-96989200D01*
X152724040Y-96989200D01*
X152657857Y-96982681D01*
X152591673Y-96976163D01*
X152421834Y-96924643D01*
X152265309Y-96840978D01*
X152229571Y-96811648D01*
X152128114Y-96728386D01*
X152044852Y-96626929D01*
X152015522Y-96591191D01*
X151931857Y-96434666D01*
X151880337Y-96264827D01*
X151862941Y-96088200D01*
X151880337Y-95911573D01*
X151931857Y-95741734D01*
X152015522Y-95585209D01*
X152044852Y-95549471D01*
X152128114Y-95448014D01*
X152229571Y-95364752D01*
X152265309Y-95335422D01*
X152421834Y-95251757D01*
X152591673Y-95200237D01*
X152657857Y-95193719D01*
X152724040Y-95187200D01*
X152812560Y-95187200D01*
X152878743Y-95193719D01*
X152878743Y-95193719D01*
G37*
G36*
X137638743Y-95193719D02*
G01*
X137704927Y-95200237D01*
X137874766Y-95251757D01*
X138031291Y-95335422D01*
X138067029Y-95364752D01*
X138168486Y-95448014D01*
X138251748Y-95549471D01*
X138281078Y-95585209D01*
X138364743Y-95741734D01*
X138416263Y-95911573D01*
X138433659Y-96088200D01*
X138416263Y-96264827D01*
X138364743Y-96434666D01*
X138281078Y-96591191D01*
X138251748Y-96626929D01*
X138168486Y-96728386D01*
X138067029Y-96811648D01*
X138031291Y-96840978D01*
X137874766Y-96924643D01*
X137704927Y-96976163D01*
X137638743Y-96982681D01*
X137572560Y-96989200D01*
X137484040Y-96989200D01*
X137417857Y-96982681D01*
X137351673Y-96976163D01*
X137181834Y-96924643D01*
X137025309Y-96840978D01*
X136989571Y-96811648D01*
X136888114Y-96728386D01*
X136804852Y-96626929D01*
X136775522Y-96591191D01*
X136691857Y-96434666D01*
X136640337Y-96264827D01*
X136622941Y-96088200D01*
X136640337Y-95911573D01*
X136691857Y-95741734D01*
X136775522Y-95585209D01*
X136804852Y-95549471D01*
X136888114Y-95448014D01*
X136989571Y-95364752D01*
X137025309Y-95335422D01*
X137181834Y-95251757D01*
X137351673Y-95200237D01*
X137417857Y-95193719D01*
X137484040Y-95187200D01*
X137572560Y-95187200D01*
X137638743Y-95193719D01*
X137638743Y-95193719D01*
G37*
G36*
X140178743Y-95193719D02*
G01*
X140244927Y-95200237D01*
X140414766Y-95251757D01*
X140571291Y-95335422D01*
X140607029Y-95364752D01*
X140708486Y-95448014D01*
X140791748Y-95549471D01*
X140821078Y-95585209D01*
X140904743Y-95741734D01*
X140956263Y-95911573D01*
X140973659Y-96088200D01*
X140956263Y-96264827D01*
X140904743Y-96434666D01*
X140821078Y-96591191D01*
X140791748Y-96626929D01*
X140708486Y-96728386D01*
X140607029Y-96811648D01*
X140571291Y-96840978D01*
X140414766Y-96924643D01*
X140244927Y-96976163D01*
X140178743Y-96982681D01*
X140112560Y-96989200D01*
X140024040Y-96989200D01*
X139957857Y-96982681D01*
X139891673Y-96976163D01*
X139721834Y-96924643D01*
X139565309Y-96840978D01*
X139529571Y-96811648D01*
X139428114Y-96728386D01*
X139344852Y-96626929D01*
X139315522Y-96591191D01*
X139231857Y-96434666D01*
X139180337Y-96264827D01*
X139162941Y-96088200D01*
X139180337Y-95911573D01*
X139231857Y-95741734D01*
X139315522Y-95585209D01*
X139344852Y-95549471D01*
X139428114Y-95448014D01*
X139529571Y-95364752D01*
X139565309Y-95335422D01*
X139721834Y-95251757D01*
X139891673Y-95200237D01*
X139957857Y-95193719D01*
X140024040Y-95187200D01*
X140112560Y-95187200D01*
X140178743Y-95193719D01*
X140178743Y-95193719D01*
G37*
G36*
X145258743Y-95193719D02*
G01*
X145324927Y-95200237D01*
X145494766Y-95251757D01*
X145651291Y-95335422D01*
X145687029Y-95364752D01*
X145788486Y-95448014D01*
X145871748Y-95549471D01*
X145901078Y-95585209D01*
X145984743Y-95741734D01*
X146036263Y-95911573D01*
X146053659Y-96088200D01*
X146036263Y-96264827D01*
X145984743Y-96434666D01*
X145901078Y-96591191D01*
X145871748Y-96626929D01*
X145788486Y-96728386D01*
X145687029Y-96811648D01*
X145651291Y-96840978D01*
X145494766Y-96924643D01*
X145324927Y-96976163D01*
X145258743Y-96982681D01*
X145192560Y-96989200D01*
X145104040Y-96989200D01*
X145037857Y-96982681D01*
X144971673Y-96976163D01*
X144801834Y-96924643D01*
X144645309Y-96840978D01*
X144609571Y-96811648D01*
X144508114Y-96728386D01*
X144424852Y-96626929D01*
X144395522Y-96591191D01*
X144311857Y-96434666D01*
X144260337Y-96264827D01*
X144242941Y-96088200D01*
X144260337Y-95911573D01*
X144311857Y-95741734D01*
X144395522Y-95585209D01*
X144424852Y-95549471D01*
X144508114Y-95448014D01*
X144609571Y-95364752D01*
X144645309Y-95335422D01*
X144801834Y-95251757D01*
X144971673Y-95200237D01*
X145037857Y-95193719D01*
X145104040Y-95187200D01*
X145192560Y-95187200D01*
X145258743Y-95193719D01*
X145258743Y-95193719D01*
G37*
G36*
X147798743Y-95193719D02*
G01*
X147864927Y-95200237D01*
X148034766Y-95251757D01*
X148191291Y-95335422D01*
X148227029Y-95364752D01*
X148328486Y-95448014D01*
X148411748Y-95549471D01*
X148441078Y-95585209D01*
X148524743Y-95741734D01*
X148576263Y-95911573D01*
X148593659Y-96088200D01*
X148576263Y-96264827D01*
X148524743Y-96434666D01*
X148441078Y-96591191D01*
X148411748Y-96626929D01*
X148328486Y-96728386D01*
X148227029Y-96811648D01*
X148191291Y-96840978D01*
X148034766Y-96924643D01*
X147864927Y-96976163D01*
X147798743Y-96982681D01*
X147732560Y-96989200D01*
X147644040Y-96989200D01*
X147577857Y-96982681D01*
X147511673Y-96976163D01*
X147341834Y-96924643D01*
X147185309Y-96840978D01*
X147149571Y-96811648D01*
X147048114Y-96728386D01*
X146964852Y-96626929D01*
X146935522Y-96591191D01*
X146851857Y-96434666D01*
X146800337Y-96264827D01*
X146782941Y-96088200D01*
X146800337Y-95911573D01*
X146851857Y-95741734D01*
X146935522Y-95585209D01*
X146964852Y-95549471D01*
X147048114Y-95448014D01*
X147149571Y-95364752D01*
X147185309Y-95335422D01*
X147341834Y-95251757D01*
X147511673Y-95200237D01*
X147577857Y-95193719D01*
X147644040Y-95187200D01*
X147732560Y-95187200D01*
X147798743Y-95193719D01*
X147798743Y-95193719D01*
G37*
G36*
X142718743Y-95193719D02*
G01*
X142784927Y-95200237D01*
X142954766Y-95251757D01*
X143111291Y-95335422D01*
X143147029Y-95364752D01*
X143248486Y-95448014D01*
X143331748Y-95549471D01*
X143361078Y-95585209D01*
X143444743Y-95741734D01*
X143496263Y-95911573D01*
X143513659Y-96088200D01*
X143496263Y-96264827D01*
X143444743Y-96434666D01*
X143361078Y-96591191D01*
X143331748Y-96626929D01*
X143248486Y-96728386D01*
X143147029Y-96811648D01*
X143111291Y-96840978D01*
X142954766Y-96924643D01*
X142784927Y-96976163D01*
X142718743Y-96982681D01*
X142652560Y-96989200D01*
X142564040Y-96989200D01*
X142497857Y-96982681D01*
X142431673Y-96976163D01*
X142261834Y-96924643D01*
X142105309Y-96840978D01*
X142069571Y-96811648D01*
X141968114Y-96728386D01*
X141884852Y-96626929D01*
X141855522Y-96591191D01*
X141771857Y-96434666D01*
X141720337Y-96264827D01*
X141702941Y-96088200D01*
X141720337Y-95911573D01*
X141771857Y-95741734D01*
X141855522Y-95585209D01*
X141884852Y-95549471D01*
X141968114Y-95448014D01*
X142069571Y-95364752D01*
X142105309Y-95335422D01*
X142261834Y-95251757D01*
X142431673Y-95200237D01*
X142497857Y-95193719D01*
X142564040Y-95187200D01*
X142652560Y-95187200D01*
X142718743Y-95193719D01*
X142718743Y-95193719D01*
G37*
G36*
X131747385Y-92942175D02*
G01*
X131982326Y-93039491D01*
X132102445Y-93089246D01*
X132421990Y-93302759D01*
X132693741Y-93574510D01*
X132849518Y-93807647D01*
X132907255Y-93894057D01*
X133054325Y-94249115D01*
X133129300Y-94626042D01*
X133129300Y-95010358D01*
X133054325Y-95387285D01*
X132972342Y-95585209D01*
X132907254Y-95742345D01*
X132693741Y-96061890D01*
X132421990Y-96333641D01*
X132102445Y-96547154D01*
X132102444Y-96547155D01*
X132102443Y-96547155D01*
X131747385Y-96694225D01*
X131370458Y-96769200D01*
X130986142Y-96769200D01*
X130609215Y-96694225D01*
X130254157Y-96547155D01*
X130254156Y-96547155D01*
X130254155Y-96547154D01*
X129934610Y-96333641D01*
X129662859Y-96061890D01*
X129449346Y-95742345D01*
X129384258Y-95585209D01*
X129302275Y-95387285D01*
X129227300Y-95010358D01*
X129227300Y-94626042D01*
X129302275Y-94249115D01*
X129449345Y-93894057D01*
X129507082Y-93807647D01*
X129662859Y-93574510D01*
X129934610Y-93302759D01*
X130254155Y-93089246D01*
X130374274Y-93039491D01*
X130609215Y-92942175D01*
X130986142Y-92867200D01*
X131370458Y-92867200D01*
X131747385Y-92942175D01*
X131747385Y-92942175D01*
G37*
G36*
X177277787Y-93567196D02*
G01*
X177514553Y-93665268D01*
X177514555Y-93665269D01*
X177599728Y-93722180D01*
X177727639Y-93807647D01*
X177908853Y-93988861D01*
X178051232Y-94201947D01*
X178149304Y-94438713D01*
X178199300Y-94690061D01*
X178199300Y-94946339D01*
X178149304Y-95197687D01*
X178070769Y-95387286D01*
X178051231Y-95434455D01*
X177908853Y-95647539D01*
X177727639Y-95828753D01*
X177514555Y-95971131D01*
X177514554Y-95971132D01*
X177514553Y-95971132D01*
X177277787Y-96069204D01*
X177026439Y-96119200D01*
X176770161Y-96119200D01*
X176518813Y-96069204D01*
X176282047Y-95971132D01*
X176282046Y-95971132D01*
X176282045Y-95971131D01*
X176068961Y-95828753D01*
X175887747Y-95647539D01*
X175745369Y-95434455D01*
X175725831Y-95387286D01*
X175647296Y-95197687D01*
X175597300Y-94946339D01*
X175597300Y-94690061D01*
X175647296Y-94438713D01*
X175745368Y-94201947D01*
X175887747Y-93988861D01*
X176068961Y-93807647D01*
X176196872Y-93722180D01*
X176282045Y-93665269D01*
X176282047Y-93665268D01*
X176518813Y-93567196D01*
X176770161Y-93517200D01*
X177026439Y-93517200D01*
X177277787Y-93567196D01*
X177277787Y-93567196D01*
G37*
G36*
X137029800Y-94509600D02*
G01*
X135877800Y-94509600D01*
X135877800Y-93907600D01*
X137029800Y-93907600D01*
X137029800Y-94509600D01*
X137029800Y-94509600D01*
G37*
G36*
X139305800Y-94509600D02*
G01*
X138153800Y-94509600D01*
X138153800Y-93907600D01*
X139305800Y-93907600D01*
X139305800Y-94509600D01*
X139305800Y-94509600D01*
G37*
G36*
X174842360Y-94324180D02*
G01*
X174240360Y-94324180D01*
X174240360Y-93722180D01*
X174842360Y-93722180D01*
X174842360Y-94324180D01*
X174842360Y-94324180D01*
G37*
G36*
X172642360Y-94324180D02*
G01*
X172040360Y-94324180D01*
X172040360Y-93722180D01*
X172642360Y-93722180D01*
X172642360Y-94324180D01*
X172642360Y-94324180D01*
G37*
G36*
X147289900Y-94303800D02*
G01*
X144987900Y-94303800D01*
X144987900Y-93151800D01*
X147289900Y-93151800D01*
X147289900Y-94303800D01*
X147289900Y-94303800D01*
G37*
G36*
X153904000Y-93848900D02*
G01*
X151900800Y-93848900D01*
X151900800Y-88445700D01*
X153904000Y-88445700D01*
X153904000Y-93848900D01*
X153904000Y-93848900D01*
G37*
G36*
X165904000Y-93848900D02*
G01*
X163900800Y-93848900D01*
X163900800Y-88445700D01*
X165904000Y-88445700D01*
X165904000Y-93848900D01*
X165904000Y-93848900D01*
G37*
G36*
X143114891Y-92212985D02*
G01*
X143148869Y-92223293D01*
X143180190Y-92240034D01*
X143207639Y-92262561D01*
X143230166Y-92290010D01*
X143246907Y-92321331D01*
X143257215Y-92355309D01*
X143261300Y-92396790D01*
X143261300Y-92998010D01*
X143257215Y-93039491D01*
X143246907Y-93073469D01*
X143230166Y-93104790D01*
X143207639Y-93132239D01*
X143180190Y-93154766D01*
X143148869Y-93171507D01*
X143114891Y-93181815D01*
X143073410Y-93185900D01*
X142397190Y-93185900D01*
X142355709Y-93181815D01*
X142321731Y-93171507D01*
X142290410Y-93154766D01*
X142262961Y-93132239D01*
X142240434Y-93104790D01*
X142223693Y-93073469D01*
X142213385Y-93039491D01*
X142209300Y-92998010D01*
X142209300Y-92396790D01*
X142213385Y-92355309D01*
X142223693Y-92321331D01*
X142240434Y-92290010D01*
X142262961Y-92262561D01*
X142290410Y-92240034D01*
X142321731Y-92223293D01*
X142355709Y-92212985D01*
X142397190Y-92208900D01*
X143073410Y-92208900D01*
X143114891Y-92212985D01*
X143114891Y-92212985D01*
G37*
G36*
X141578191Y-92212985D02*
G01*
X141612169Y-92223293D01*
X141643490Y-92240034D01*
X141670939Y-92262561D01*
X141693466Y-92290010D01*
X141710207Y-92321331D01*
X141720515Y-92355309D01*
X141724600Y-92396790D01*
X141724600Y-92998010D01*
X141720515Y-93039491D01*
X141710207Y-93073469D01*
X141693466Y-93104790D01*
X141670939Y-93132239D01*
X141643490Y-93154766D01*
X141612169Y-93171507D01*
X141578191Y-93181815D01*
X141536710Y-93185900D01*
X140860490Y-93185900D01*
X140819009Y-93181815D01*
X140785031Y-93171507D01*
X140753710Y-93154766D01*
X140726261Y-93132239D01*
X140703734Y-93104790D01*
X140686993Y-93073469D01*
X140676685Y-93039491D01*
X140672600Y-92998010D01*
X140672600Y-92396790D01*
X140676685Y-92355309D01*
X140686993Y-92321331D01*
X140703734Y-92290010D01*
X140726261Y-92262561D01*
X140753710Y-92240034D01*
X140785031Y-92223293D01*
X140819009Y-92212985D01*
X140860490Y-92208900D01*
X141536710Y-92208900D01*
X141578191Y-92212985D01*
X141578191Y-92212985D01*
G37*
G36*
X173516151Y-91913265D02*
G01*
X173550129Y-91923573D01*
X173581450Y-91940314D01*
X173608899Y-91962841D01*
X173631426Y-91990290D01*
X173648167Y-92021611D01*
X173658475Y-92055589D01*
X173662560Y-92097070D01*
X173662560Y-92698290D01*
X173658475Y-92739771D01*
X173648167Y-92773749D01*
X173631426Y-92805070D01*
X173608899Y-92832519D01*
X173581450Y-92855046D01*
X173550129Y-92871787D01*
X173516151Y-92882095D01*
X173474670Y-92886180D01*
X172798450Y-92886180D01*
X172756969Y-92882095D01*
X172722991Y-92871787D01*
X172691670Y-92855046D01*
X172664221Y-92832519D01*
X172641694Y-92805070D01*
X172624953Y-92773749D01*
X172614645Y-92739771D01*
X172610560Y-92698290D01*
X172610560Y-92097070D01*
X172614645Y-92055589D01*
X172624953Y-92021611D01*
X172641694Y-91990290D01*
X172664221Y-91962841D01*
X172691670Y-91940314D01*
X172722991Y-91923573D01*
X172756969Y-91913265D01*
X172798450Y-91909180D01*
X173474670Y-91909180D01*
X173516151Y-91913265D01*
X173516151Y-91913265D01*
G37*
G36*
X177630951Y-91887865D02*
G01*
X177664929Y-91898173D01*
X177696250Y-91914914D01*
X177723699Y-91937441D01*
X177746226Y-91964890D01*
X177762967Y-91996211D01*
X177773275Y-92030189D01*
X177777360Y-92071670D01*
X177777360Y-92672890D01*
X177773275Y-92714371D01*
X177762967Y-92748349D01*
X177746226Y-92779670D01*
X177723699Y-92807119D01*
X177696250Y-92829646D01*
X177664929Y-92846387D01*
X177630951Y-92856695D01*
X177589470Y-92860780D01*
X176913250Y-92860780D01*
X176871769Y-92856695D01*
X176837791Y-92846387D01*
X176806470Y-92829646D01*
X176779021Y-92807119D01*
X176756494Y-92779670D01*
X176739753Y-92748349D01*
X176729445Y-92714371D01*
X176725360Y-92672890D01*
X176725360Y-92071670D01*
X176729445Y-92030189D01*
X176739753Y-91996211D01*
X176756494Y-91964890D01*
X176779021Y-91937441D01*
X176806470Y-91914914D01*
X176837791Y-91898173D01*
X176871769Y-91887865D01*
X176913250Y-91883780D01*
X177589470Y-91883780D01*
X177630951Y-91887865D01*
X177630951Y-91887865D01*
G37*
G36*
X148239900Y-92803800D02*
G01*
X147087900Y-92803800D01*
X147087900Y-91701800D01*
X148239900Y-91701800D01*
X148239900Y-92803800D01*
X148239900Y-92803800D01*
G37*
G36*
X150558768Y-91703865D02*
G01*
X150597438Y-91715596D01*
X150633077Y-91734646D01*
X150664317Y-91760283D01*
X150689954Y-91791523D01*
X150709004Y-91827162D01*
X150720735Y-91865832D01*
X150725300Y-91912188D01*
X150725300Y-92563412D01*
X150720735Y-92609768D01*
X150709004Y-92648438D01*
X150689954Y-92684077D01*
X150664317Y-92715317D01*
X150633077Y-92740954D01*
X150597438Y-92760004D01*
X150558768Y-92771735D01*
X150512412Y-92776300D01*
X149436188Y-92776300D01*
X149389832Y-92771735D01*
X149351162Y-92760004D01*
X149315523Y-92740954D01*
X149284283Y-92715317D01*
X149258646Y-92684077D01*
X149239596Y-92648438D01*
X149227865Y-92609768D01*
X149223300Y-92563412D01*
X149223300Y-91912188D01*
X149227865Y-91865832D01*
X149239596Y-91827162D01*
X149258646Y-91791523D01*
X149284283Y-91760283D01*
X149315523Y-91734646D01*
X149351162Y-91715596D01*
X149389832Y-91703865D01*
X149436188Y-91699300D01*
X150512412Y-91699300D01*
X150558768Y-91703865D01*
X150558768Y-91703865D01*
G37*
G36*
X134923391Y-91692285D02*
G01*
X134957369Y-91702593D01*
X134988690Y-91719334D01*
X135016139Y-91741861D01*
X135038666Y-91769310D01*
X135055407Y-91800631D01*
X135065715Y-91834609D01*
X135069800Y-91876090D01*
X135069800Y-92477310D01*
X135065715Y-92518791D01*
X135055407Y-92552769D01*
X135038666Y-92584090D01*
X135016139Y-92611539D01*
X134988690Y-92634066D01*
X134957369Y-92650807D01*
X134923391Y-92661115D01*
X134881910Y-92665200D01*
X134205690Y-92665200D01*
X134164209Y-92661115D01*
X134130231Y-92650807D01*
X134098910Y-92634066D01*
X134071461Y-92611539D01*
X134048934Y-92584090D01*
X134032193Y-92552769D01*
X134021885Y-92518791D01*
X134017800Y-92477310D01*
X134017800Y-91876090D01*
X134021885Y-91834609D01*
X134032193Y-91800631D01*
X134048934Y-91769310D01*
X134071461Y-91741861D01*
X134098910Y-91719334D01*
X134130231Y-91702593D01*
X134164209Y-91692285D01*
X134205690Y-91688200D01*
X134881910Y-91688200D01*
X134923391Y-91692285D01*
X134923391Y-91692285D01*
G37*
G36*
X136333091Y-91666885D02*
G01*
X136367069Y-91677193D01*
X136398390Y-91693934D01*
X136425839Y-91716461D01*
X136448366Y-91743910D01*
X136465107Y-91775231D01*
X136475415Y-91809209D01*
X136479500Y-91850690D01*
X136479500Y-92451910D01*
X136475415Y-92493391D01*
X136465107Y-92527369D01*
X136448366Y-92558690D01*
X136425839Y-92586139D01*
X136398390Y-92608666D01*
X136367069Y-92625407D01*
X136333091Y-92635715D01*
X136291610Y-92639800D01*
X135615390Y-92639800D01*
X135573909Y-92635715D01*
X135539931Y-92625407D01*
X135508610Y-92608666D01*
X135481161Y-92586139D01*
X135458634Y-92558690D01*
X135441893Y-92527369D01*
X135431585Y-92493391D01*
X135427500Y-92451910D01*
X135427500Y-91850690D01*
X135431585Y-91809209D01*
X135441893Y-91775231D01*
X135458634Y-91743910D01*
X135481161Y-91716461D01*
X135508610Y-91693934D01*
X135539931Y-91677193D01*
X135573909Y-91666885D01*
X135615390Y-91662800D01*
X136291610Y-91662800D01*
X136333091Y-91666885D01*
X136333091Y-91666885D01*
G37*
G36*
X174894960Y-92610380D02*
G01*
X173992960Y-92610380D01*
X173992960Y-90508380D01*
X174894960Y-90508380D01*
X174894960Y-92610380D01*
X174894960Y-92610380D01*
G37*
G36*
X176394960Y-92610380D02*
G01*
X175492960Y-92610380D01*
X175492960Y-90508380D01*
X176394960Y-90508380D01*
X176394960Y-92610380D01*
X176394960Y-92610380D01*
G37*
G36*
X137987200Y-92499300D02*
G01*
X136825200Y-92499300D01*
X136825200Y-89847300D01*
X137987200Y-89847300D01*
X137987200Y-92499300D01*
X137987200Y-92499300D01*
G37*
G36*
X140187200Y-92499300D02*
G01*
X139025200Y-92499300D01*
X139025200Y-91747300D01*
X140187200Y-91747300D01*
X140187200Y-92499300D01*
X140187200Y-92499300D01*
G37*
G36*
X131108840Y-84944881D02*
G01*
X131111242Y-84969267D01*
X131118355Y-84992716D01*
X131129906Y-85014327D01*
X131145451Y-85033269D01*
X131164393Y-85048814D01*
X131186004Y-85060365D01*
X131209453Y-85067478D01*
X131233839Y-85069880D01*
X133508840Y-85069880D01*
X133508840Y-91571880D01*
X131233839Y-91571880D01*
X131209453Y-91574282D01*
X131186004Y-91581395D01*
X131164393Y-91592946D01*
X131145451Y-91608491D01*
X131129906Y-91627433D01*
X131118355Y-91649044D01*
X131111242Y-91672493D01*
X131108840Y-91696879D01*
X131108840Y-92469380D01*
X129106840Y-92469380D01*
X129106840Y-88522380D01*
X131108840Y-88522380D01*
X131108840Y-89869881D01*
X131111242Y-89894267D01*
X131118355Y-89917716D01*
X131129906Y-89939327D01*
X131145451Y-89958269D01*
X131164393Y-89973814D01*
X131186004Y-89985365D01*
X131209453Y-89992478D01*
X131233839Y-89994880D01*
X131901841Y-89994880D01*
X131926227Y-89992478D01*
X131949676Y-89985365D01*
X131971287Y-89973814D01*
X131990229Y-89958269D01*
X132005774Y-89939327D01*
X132017325Y-89917716D01*
X132024438Y-89894267D01*
X132026840Y-89869881D01*
X132026840Y-86771879D01*
X132024438Y-86747493D01*
X132017325Y-86724044D01*
X132005774Y-86702433D01*
X131990229Y-86683491D01*
X131971287Y-86667946D01*
X131949676Y-86656395D01*
X131926227Y-86649282D01*
X131901841Y-86646880D01*
X131233839Y-86646880D01*
X131209453Y-86649282D01*
X131186004Y-86656395D01*
X131164393Y-86667946D01*
X131145451Y-86683491D01*
X131129906Y-86702433D01*
X131118355Y-86724044D01*
X131111242Y-86747493D01*
X131108840Y-86771879D01*
X131108840Y-88119380D01*
X129106840Y-88119380D01*
X129106840Y-84172380D01*
X131108840Y-84172380D01*
X131108840Y-84944881D01*
X131108840Y-84944881D01*
G37*
G36*
X141578191Y-90637985D02*
G01*
X141612169Y-90648293D01*
X141643490Y-90665034D01*
X141670939Y-90687561D01*
X141693466Y-90715010D01*
X141710207Y-90746331D01*
X141720515Y-90780309D01*
X141724600Y-90821790D01*
X141724600Y-91423010D01*
X141720515Y-91464491D01*
X141710207Y-91498469D01*
X141693466Y-91529790D01*
X141670939Y-91557239D01*
X141643490Y-91579766D01*
X141612169Y-91596507D01*
X141578191Y-91606815D01*
X141536710Y-91610900D01*
X140860490Y-91610900D01*
X140819009Y-91606815D01*
X140785031Y-91596507D01*
X140753710Y-91579766D01*
X140726261Y-91557239D01*
X140703734Y-91529790D01*
X140686993Y-91498469D01*
X140676685Y-91464491D01*
X140672600Y-91423010D01*
X140672600Y-90821790D01*
X140676685Y-90780309D01*
X140686993Y-90746331D01*
X140703734Y-90715010D01*
X140726261Y-90687561D01*
X140753710Y-90665034D01*
X140785031Y-90648293D01*
X140819009Y-90637985D01*
X140860490Y-90633900D01*
X141536710Y-90633900D01*
X141578191Y-90637985D01*
X141578191Y-90637985D01*
G37*
G36*
X143114891Y-90637985D02*
G01*
X143148869Y-90648293D01*
X143180190Y-90665034D01*
X143207639Y-90687561D01*
X143230166Y-90715010D01*
X143246907Y-90746331D01*
X143257215Y-90780309D01*
X143261300Y-90821790D01*
X143261300Y-91423010D01*
X143257215Y-91464491D01*
X143246907Y-91498469D01*
X143230166Y-91529790D01*
X143207639Y-91557239D01*
X143180190Y-91579766D01*
X143148869Y-91596507D01*
X143114891Y-91606815D01*
X143073410Y-91610900D01*
X142397190Y-91610900D01*
X142355709Y-91606815D01*
X142321731Y-91596507D01*
X142290410Y-91579766D01*
X142262961Y-91557239D01*
X142240434Y-91529790D01*
X142223693Y-91498469D01*
X142213385Y-91464491D01*
X142209300Y-91423010D01*
X142209300Y-90821790D01*
X142213385Y-90780309D01*
X142223693Y-90746331D01*
X142240434Y-90715010D01*
X142262961Y-90687561D01*
X142290410Y-90665034D01*
X142321731Y-90648293D01*
X142355709Y-90637985D01*
X142397190Y-90633900D01*
X143073410Y-90633900D01*
X143114891Y-90637985D01*
X143114891Y-90637985D01*
G37*
G36*
X147289900Y-91353800D02*
G01*
X144987900Y-91353800D01*
X144987900Y-90201800D01*
X147289900Y-90201800D01*
X147289900Y-91353800D01*
X147289900Y-91353800D01*
G37*
G36*
X173516151Y-90338265D02*
G01*
X173550129Y-90348573D01*
X173581450Y-90365314D01*
X173608899Y-90387841D01*
X173631426Y-90415290D01*
X173648167Y-90446611D01*
X173658475Y-90480589D01*
X173662560Y-90522070D01*
X173662560Y-91123290D01*
X173658475Y-91164771D01*
X173648167Y-91198749D01*
X173631426Y-91230070D01*
X173608899Y-91257519D01*
X173581450Y-91280046D01*
X173550129Y-91296787D01*
X173516151Y-91307095D01*
X173474670Y-91311180D01*
X172798450Y-91311180D01*
X172756969Y-91307095D01*
X172722991Y-91296787D01*
X172691670Y-91280046D01*
X172664221Y-91257519D01*
X172641694Y-91230070D01*
X172624953Y-91198749D01*
X172614645Y-91164771D01*
X172610560Y-91123290D01*
X172610560Y-90522070D01*
X172614645Y-90480589D01*
X172624953Y-90446611D01*
X172641694Y-90415290D01*
X172664221Y-90387841D01*
X172691670Y-90365314D01*
X172722991Y-90348573D01*
X172756969Y-90338265D01*
X172798450Y-90334180D01*
X173474670Y-90334180D01*
X173516151Y-90338265D01*
X173516151Y-90338265D01*
G37*
G36*
X177630951Y-90312865D02*
G01*
X177664929Y-90323173D01*
X177696250Y-90339914D01*
X177723699Y-90362441D01*
X177746226Y-90389890D01*
X177762967Y-90421211D01*
X177773275Y-90455189D01*
X177777360Y-90496670D01*
X177777360Y-91097890D01*
X177773275Y-91139371D01*
X177762967Y-91173349D01*
X177746226Y-91204670D01*
X177723699Y-91232119D01*
X177696250Y-91254646D01*
X177664929Y-91271387D01*
X177630951Y-91281695D01*
X177589470Y-91285780D01*
X176913250Y-91285780D01*
X176871769Y-91281695D01*
X176837791Y-91271387D01*
X176806470Y-91254646D01*
X176779021Y-91232119D01*
X176756494Y-91204670D01*
X176739753Y-91173349D01*
X176729445Y-91139371D01*
X176725360Y-91097890D01*
X176725360Y-90496670D01*
X176729445Y-90455189D01*
X176739753Y-90421211D01*
X176756494Y-90389890D01*
X176779021Y-90362441D01*
X176806470Y-90339914D01*
X176837791Y-90323173D01*
X176871769Y-90312865D01*
X176913250Y-90308780D01*
X177589470Y-90308780D01*
X177630951Y-90312865D01*
X177630951Y-90312865D01*
G37*
G36*
X134923391Y-90117285D02*
G01*
X134957369Y-90127593D01*
X134988690Y-90144334D01*
X135016139Y-90166861D01*
X135038666Y-90194310D01*
X135055407Y-90225631D01*
X135065715Y-90259609D01*
X135069800Y-90301090D01*
X135069800Y-90902310D01*
X135065715Y-90943791D01*
X135055407Y-90977769D01*
X135038666Y-91009090D01*
X135016139Y-91036539D01*
X134988690Y-91059066D01*
X134957369Y-91075807D01*
X134923391Y-91086115D01*
X134881910Y-91090200D01*
X134205690Y-91090200D01*
X134164209Y-91086115D01*
X134130231Y-91075807D01*
X134098910Y-91059066D01*
X134071461Y-91036539D01*
X134048934Y-91009090D01*
X134032193Y-90977769D01*
X134021885Y-90943791D01*
X134017800Y-90902310D01*
X134017800Y-90301090D01*
X134021885Y-90259609D01*
X134032193Y-90225631D01*
X134048934Y-90194310D01*
X134071461Y-90166861D01*
X134098910Y-90144334D01*
X134130231Y-90127593D01*
X134164209Y-90117285D01*
X134205690Y-90113200D01*
X134881910Y-90113200D01*
X134923391Y-90117285D01*
X134923391Y-90117285D01*
G37*
G36*
X136333091Y-90091885D02*
G01*
X136367069Y-90102193D01*
X136398390Y-90118934D01*
X136425839Y-90141461D01*
X136448366Y-90168910D01*
X136465107Y-90200231D01*
X136475415Y-90234209D01*
X136479500Y-90275690D01*
X136479500Y-90876910D01*
X136475415Y-90918391D01*
X136465107Y-90952369D01*
X136448366Y-90983690D01*
X136425839Y-91011139D01*
X136398390Y-91033666D01*
X136367069Y-91050407D01*
X136333091Y-91060715D01*
X136291610Y-91064800D01*
X135615390Y-91064800D01*
X135573909Y-91060715D01*
X135539931Y-91050407D01*
X135508610Y-91033666D01*
X135481161Y-91011139D01*
X135458634Y-90983690D01*
X135441893Y-90952369D01*
X135431585Y-90918391D01*
X135427500Y-90876910D01*
X135427500Y-90275690D01*
X135431585Y-90234209D01*
X135441893Y-90200231D01*
X135458634Y-90168910D01*
X135481161Y-90141461D01*
X135508610Y-90118934D01*
X135539931Y-90102193D01*
X135573909Y-90091885D01*
X135615390Y-90087800D01*
X136291610Y-90087800D01*
X136333091Y-90091885D01*
X136333091Y-90091885D01*
G37*
G36*
X150558768Y-89828865D02*
G01*
X150597438Y-89840596D01*
X150633077Y-89859646D01*
X150664317Y-89885283D01*
X150689954Y-89916523D01*
X150709004Y-89952162D01*
X150720735Y-89990832D01*
X150725300Y-90037188D01*
X150725300Y-90688412D01*
X150720735Y-90734768D01*
X150709004Y-90773438D01*
X150689954Y-90809077D01*
X150664317Y-90840317D01*
X150633077Y-90865954D01*
X150597438Y-90885004D01*
X150558768Y-90896735D01*
X150512412Y-90901300D01*
X149436188Y-90901300D01*
X149389832Y-90896735D01*
X149351162Y-90885004D01*
X149315523Y-90865954D01*
X149284283Y-90840317D01*
X149258646Y-90809077D01*
X149239596Y-90773438D01*
X149227865Y-90734768D01*
X149223300Y-90688412D01*
X149223300Y-90037188D01*
X149227865Y-89990832D01*
X149239596Y-89952162D01*
X149258646Y-89916523D01*
X149284283Y-89885283D01*
X149315523Y-89859646D01*
X149351162Y-89840596D01*
X149389832Y-89828865D01*
X149436188Y-89824300D01*
X150512412Y-89824300D01*
X150558768Y-89828865D01*
X150558768Y-89828865D01*
G37*
G36*
X140187200Y-90599300D02*
G01*
X139025200Y-90599300D01*
X139025200Y-89847300D01*
X140187200Y-89847300D01*
X140187200Y-90599300D01*
X140187200Y-90599300D01*
G37*
G36*
X150709491Y-88339485D02*
G01*
X150743469Y-88349793D01*
X150774790Y-88366534D01*
X150802239Y-88389061D01*
X150824766Y-88416510D01*
X150841507Y-88447831D01*
X150851815Y-88481809D01*
X150855900Y-88523290D01*
X150855900Y-89124510D01*
X150851815Y-89165991D01*
X150841507Y-89199969D01*
X150824766Y-89231290D01*
X150802239Y-89258739D01*
X150774790Y-89281266D01*
X150743469Y-89298007D01*
X150709491Y-89308315D01*
X150668010Y-89312400D01*
X149991790Y-89312400D01*
X149950309Y-89308315D01*
X149916331Y-89298007D01*
X149885010Y-89281266D01*
X149857561Y-89258739D01*
X149835034Y-89231290D01*
X149818293Y-89199969D01*
X149807985Y-89165991D01*
X149803900Y-89124510D01*
X149803900Y-88523290D01*
X149807985Y-88481809D01*
X149818293Y-88447831D01*
X149835034Y-88416510D01*
X149857561Y-88389061D01*
X149885010Y-88366534D01*
X149916331Y-88349793D01*
X149950309Y-88339485D01*
X149991790Y-88335400D01*
X150668010Y-88335400D01*
X150709491Y-88339485D01*
X150709491Y-88339485D01*
G37*
G36*
X149109291Y-88288685D02*
G01*
X149143269Y-88298993D01*
X149174590Y-88315734D01*
X149202039Y-88338261D01*
X149224566Y-88365710D01*
X149241307Y-88397031D01*
X149251615Y-88431009D01*
X149255700Y-88472490D01*
X149255700Y-89073710D01*
X149251615Y-89115191D01*
X149241307Y-89149169D01*
X149224566Y-89180490D01*
X149202039Y-89207939D01*
X149174590Y-89230466D01*
X149143269Y-89247207D01*
X149109291Y-89257515D01*
X149067810Y-89261600D01*
X148391590Y-89261600D01*
X148350109Y-89257515D01*
X148316131Y-89247207D01*
X148284810Y-89230466D01*
X148257361Y-89207939D01*
X148234834Y-89180490D01*
X148218093Y-89149169D01*
X148207785Y-89115191D01*
X148203700Y-89073710D01*
X148203700Y-88472490D01*
X148207785Y-88431009D01*
X148218093Y-88397031D01*
X148234834Y-88365710D01*
X148257361Y-88338261D01*
X148284810Y-88315734D01*
X148316131Y-88298993D01*
X148350109Y-88288685D01*
X148391590Y-88284600D01*
X149067810Y-88284600D01*
X149109291Y-88288685D01*
X149109291Y-88288685D01*
G37*
G36*
X141538300Y-89188300D02*
G01*
X140386300Y-89188300D01*
X140386300Y-88586300D01*
X141538300Y-88586300D01*
X141538300Y-89188300D01*
X141538300Y-89188300D01*
G37*
G36*
X143814300Y-89188300D02*
G01*
X142662300Y-89188300D01*
X142662300Y-88586300D01*
X143814300Y-88586300D01*
X143814300Y-89188300D01*
X143814300Y-89188300D01*
G37*
G36*
X146658191Y-87983885D02*
G01*
X146692169Y-87994193D01*
X146723490Y-88010934D01*
X146750939Y-88033461D01*
X146773466Y-88060910D01*
X146790207Y-88092231D01*
X146800515Y-88126209D01*
X146804600Y-88167690D01*
X146804600Y-88768910D01*
X146800515Y-88810391D01*
X146790207Y-88844369D01*
X146773466Y-88875690D01*
X146750939Y-88903139D01*
X146723490Y-88925666D01*
X146692169Y-88942407D01*
X146658191Y-88952715D01*
X146616710Y-88956800D01*
X145940490Y-88956800D01*
X145899009Y-88952715D01*
X145865031Y-88942407D01*
X145833710Y-88925666D01*
X145806261Y-88903139D01*
X145783734Y-88875690D01*
X145766993Y-88844369D01*
X145756685Y-88810391D01*
X145752600Y-88768910D01*
X145752600Y-88167690D01*
X145756685Y-88126209D01*
X145766993Y-88092231D01*
X145783734Y-88060910D01*
X145806261Y-88033461D01*
X145833710Y-88010934D01*
X145865031Y-87994193D01*
X145899009Y-87983885D01*
X145940490Y-87979800D01*
X146616710Y-87979800D01*
X146658191Y-87983885D01*
X146658191Y-87983885D01*
G37*
G36*
X150709491Y-86764485D02*
G01*
X150743469Y-86774793D01*
X150774790Y-86791534D01*
X150802239Y-86814061D01*
X150824766Y-86841510D01*
X150841507Y-86872831D01*
X150851815Y-86906809D01*
X150855900Y-86948290D01*
X150855900Y-87549510D01*
X150851815Y-87590991D01*
X150841507Y-87624969D01*
X150824766Y-87656290D01*
X150802239Y-87683739D01*
X150774790Y-87706266D01*
X150743469Y-87723007D01*
X150709491Y-87733315D01*
X150668010Y-87737400D01*
X149991790Y-87737400D01*
X149950309Y-87733315D01*
X149916331Y-87723007D01*
X149885010Y-87706266D01*
X149857561Y-87683739D01*
X149835034Y-87656290D01*
X149818293Y-87624969D01*
X149807985Y-87590991D01*
X149803900Y-87549510D01*
X149803900Y-86948290D01*
X149807985Y-86906809D01*
X149818293Y-86872831D01*
X149835034Y-86841510D01*
X149857561Y-86814061D01*
X149885010Y-86791534D01*
X149916331Y-86774793D01*
X149950309Y-86764485D01*
X149991790Y-86760400D01*
X150668010Y-86760400D01*
X150709491Y-86764485D01*
X150709491Y-86764485D01*
G37*
G36*
X149109291Y-86713685D02*
G01*
X149143269Y-86723993D01*
X149174590Y-86740734D01*
X149202039Y-86763261D01*
X149224566Y-86790710D01*
X149241307Y-86822031D01*
X149251615Y-86856009D01*
X149255700Y-86897490D01*
X149255700Y-87498710D01*
X149251615Y-87540191D01*
X149241307Y-87574169D01*
X149224566Y-87605490D01*
X149202039Y-87632939D01*
X149174590Y-87655466D01*
X149143269Y-87672207D01*
X149109291Y-87682515D01*
X149067810Y-87686600D01*
X148391590Y-87686600D01*
X148350109Y-87682515D01*
X148316131Y-87672207D01*
X148284810Y-87655466D01*
X148257361Y-87632939D01*
X148234834Y-87605490D01*
X148218093Y-87574169D01*
X148207785Y-87540191D01*
X148203700Y-87498710D01*
X148203700Y-86897490D01*
X148207785Y-86856009D01*
X148218093Y-86822031D01*
X148234834Y-86790710D01*
X148257361Y-86763261D01*
X148284810Y-86740734D01*
X148316131Y-86723993D01*
X148350109Y-86713685D01*
X148391590Y-86709600D01*
X149067810Y-86709600D01*
X149109291Y-86713685D01*
X149109291Y-86713685D01*
G37*
G36*
X141616991Y-86358785D02*
G01*
X141650969Y-86369093D01*
X141682290Y-86385834D01*
X141709739Y-86408361D01*
X141732266Y-86435810D01*
X141749007Y-86467131D01*
X141759315Y-86501109D01*
X141763400Y-86542590D01*
X141763400Y-87218810D01*
X141759315Y-87260291D01*
X141749007Y-87294269D01*
X141732266Y-87325590D01*
X141709739Y-87353039D01*
X141682290Y-87375566D01*
X141650969Y-87392307D01*
X141616991Y-87402615D01*
X141575510Y-87406700D01*
X140974290Y-87406700D01*
X140932809Y-87402615D01*
X140898831Y-87392307D01*
X140867510Y-87375566D01*
X140840061Y-87353039D01*
X140817534Y-87325590D01*
X140800793Y-87294269D01*
X140790485Y-87260291D01*
X140786400Y-87218810D01*
X140786400Y-86542590D01*
X140790485Y-86501109D01*
X140800793Y-86467131D01*
X140817534Y-86435810D01*
X140840061Y-86408361D01*
X140867510Y-86385834D01*
X140898831Y-86369093D01*
X140932809Y-86358785D01*
X140974290Y-86354700D01*
X141575510Y-86354700D01*
X141616991Y-86358785D01*
X141616991Y-86358785D01*
G37*
G36*
X140041991Y-86358785D02*
G01*
X140075969Y-86369093D01*
X140107290Y-86385834D01*
X140134739Y-86408361D01*
X140157266Y-86435810D01*
X140174007Y-86467131D01*
X140184315Y-86501109D01*
X140188400Y-86542590D01*
X140188400Y-87218810D01*
X140184315Y-87260291D01*
X140174007Y-87294269D01*
X140157266Y-87325590D01*
X140134739Y-87353039D01*
X140107290Y-87375566D01*
X140075969Y-87392307D01*
X140041991Y-87402615D01*
X140000510Y-87406700D01*
X139399290Y-87406700D01*
X139357809Y-87402615D01*
X139323831Y-87392307D01*
X139292510Y-87375566D01*
X139265061Y-87353039D01*
X139242534Y-87325590D01*
X139225793Y-87294269D01*
X139215485Y-87260291D01*
X139211400Y-87218810D01*
X139211400Y-86542590D01*
X139215485Y-86501109D01*
X139225793Y-86467131D01*
X139242534Y-86435810D01*
X139265061Y-86408361D01*
X139292510Y-86385834D01*
X139323831Y-86369093D01*
X139357809Y-86358785D01*
X139399290Y-86354700D01*
X140000510Y-86354700D01*
X140041991Y-86358785D01*
X140041991Y-86358785D01*
G37*
G36*
X146658191Y-86408885D02*
G01*
X146692169Y-86419193D01*
X146723490Y-86435934D01*
X146750939Y-86458461D01*
X146773466Y-86485910D01*
X146790207Y-86517231D01*
X146800515Y-86551209D01*
X146804600Y-86592690D01*
X146804600Y-87193910D01*
X146800515Y-87235391D01*
X146790207Y-87269369D01*
X146773466Y-87300690D01*
X146750939Y-87328139D01*
X146723490Y-87350666D01*
X146692169Y-87367407D01*
X146658191Y-87377715D01*
X146616710Y-87381800D01*
X145940490Y-87381800D01*
X145899009Y-87377715D01*
X145865031Y-87367407D01*
X145833710Y-87350666D01*
X145806261Y-87328139D01*
X145783734Y-87300690D01*
X145766993Y-87269369D01*
X145756685Y-87235391D01*
X145752600Y-87193910D01*
X145752600Y-86592690D01*
X145756685Y-86551209D01*
X145766993Y-86517231D01*
X145783734Y-86485910D01*
X145806261Y-86458461D01*
X145833710Y-86435934D01*
X145865031Y-86419193D01*
X145899009Y-86408885D01*
X145940490Y-86404800D01*
X146616710Y-86404800D01*
X146658191Y-86408885D01*
X146658191Y-86408885D01*
G37*
G36*
X168102538Y-86042516D02*
G01*
X168123157Y-86048771D01*
X168142153Y-86058924D01*
X168158808Y-86072592D01*
X168172476Y-86089247D01*
X168182629Y-86108243D01*
X168188884Y-86128862D01*
X168191600Y-86156440D01*
X168191600Y-86665160D01*
X168188884Y-86692738D01*
X168182629Y-86713357D01*
X168172476Y-86732353D01*
X168158808Y-86749008D01*
X168142153Y-86762676D01*
X168123157Y-86772829D01*
X168102538Y-86779084D01*
X168074960Y-86781800D01*
X167616240Y-86781800D01*
X167588662Y-86779084D01*
X167568043Y-86772829D01*
X167549047Y-86762676D01*
X167532392Y-86749008D01*
X167518724Y-86732353D01*
X167508571Y-86713357D01*
X167502316Y-86692738D01*
X167499600Y-86665160D01*
X167499600Y-86156440D01*
X167502316Y-86128862D01*
X167508571Y-86108243D01*
X167518724Y-86089247D01*
X167532392Y-86072592D01*
X167549047Y-86058924D01*
X167568043Y-86048771D01*
X167588662Y-86042516D01*
X167616240Y-86039800D01*
X168074960Y-86039800D01*
X168102538Y-86042516D01*
X168102538Y-86042516D01*
G37*
G36*
X167132538Y-86042516D02*
G01*
X167153157Y-86048771D01*
X167172153Y-86058924D01*
X167188808Y-86072592D01*
X167202476Y-86089247D01*
X167212629Y-86108243D01*
X167218884Y-86128862D01*
X167221600Y-86156440D01*
X167221600Y-86665160D01*
X167218884Y-86692738D01*
X167212629Y-86713357D01*
X167202476Y-86732353D01*
X167188808Y-86749008D01*
X167172153Y-86762676D01*
X167153157Y-86772829D01*
X167132538Y-86779084D01*
X167104960Y-86781800D01*
X166646240Y-86781800D01*
X166618662Y-86779084D01*
X166598043Y-86772829D01*
X166579047Y-86762676D01*
X166562392Y-86749008D01*
X166548724Y-86732353D01*
X166538571Y-86713357D01*
X166532316Y-86692738D01*
X166529600Y-86665160D01*
X166529600Y-86156440D01*
X166532316Y-86128862D01*
X166538571Y-86108243D01*
X166548724Y-86089247D01*
X166562392Y-86072592D01*
X166579047Y-86058924D01*
X166598043Y-86048771D01*
X166618662Y-86042516D01*
X166646240Y-86039800D01*
X167104960Y-86039800D01*
X167132538Y-86042516D01*
X167132538Y-86042516D01*
G37*
G36*
X136465900Y-86705800D02*
G01*
X135364900Y-86705800D01*
X135364900Y-85353800D01*
X136465900Y-85353800D01*
X136465900Y-86705800D01*
X136465900Y-86705800D01*
G37*
G36*
X153904000Y-86448900D02*
G01*
X151900800Y-86448900D01*
X151900800Y-78845700D01*
X153904000Y-78845700D01*
X153904000Y-86448900D01*
X153904000Y-86448900D01*
G37*
G36*
X165904000Y-86448900D02*
G01*
X163900800Y-86448900D01*
X163900800Y-78845700D01*
X165904000Y-78845700D01*
X165904000Y-86448900D01*
X165904000Y-86448900D01*
G37*
G36*
X141594131Y-84801765D02*
G01*
X141628109Y-84812073D01*
X141659430Y-84828814D01*
X141686879Y-84851341D01*
X141709406Y-84878790D01*
X141726147Y-84910111D01*
X141736455Y-84944089D01*
X141740540Y-84985570D01*
X141740540Y-85661790D01*
X141736455Y-85703271D01*
X141726147Y-85737249D01*
X141709406Y-85768570D01*
X141686879Y-85796019D01*
X141659430Y-85818546D01*
X141628109Y-85835287D01*
X141594131Y-85845595D01*
X141552650Y-85849680D01*
X140951430Y-85849680D01*
X140909949Y-85845595D01*
X140875971Y-85835287D01*
X140844650Y-85818546D01*
X140817201Y-85796019D01*
X140794674Y-85768570D01*
X140777933Y-85737249D01*
X140767625Y-85703271D01*
X140763540Y-85661790D01*
X140763540Y-84985570D01*
X140767625Y-84944089D01*
X140777933Y-84910111D01*
X140794674Y-84878790D01*
X140817201Y-84851341D01*
X140844650Y-84828814D01*
X140875971Y-84812073D01*
X140909949Y-84801765D01*
X140951430Y-84797680D01*
X141552650Y-84797680D01*
X141594131Y-84801765D01*
X141594131Y-84801765D01*
G37*
G36*
X140019131Y-84801765D02*
G01*
X140053109Y-84812073D01*
X140084430Y-84828814D01*
X140111879Y-84851341D01*
X140134406Y-84878790D01*
X140151147Y-84910111D01*
X140161455Y-84944089D01*
X140165540Y-84985570D01*
X140165540Y-85661790D01*
X140161455Y-85703271D01*
X140151147Y-85737249D01*
X140134406Y-85768570D01*
X140111879Y-85796019D01*
X140084430Y-85818546D01*
X140053109Y-85835287D01*
X140019131Y-85845595D01*
X139977650Y-85849680D01*
X139376430Y-85849680D01*
X139334949Y-85845595D01*
X139300971Y-85835287D01*
X139269650Y-85818546D01*
X139242201Y-85796019D01*
X139219674Y-85768570D01*
X139202933Y-85737249D01*
X139192625Y-85703271D01*
X139188540Y-85661790D01*
X139188540Y-84985570D01*
X139192625Y-84944089D01*
X139202933Y-84910111D01*
X139219674Y-84878790D01*
X139242201Y-84851341D01*
X139269650Y-84828814D01*
X139300971Y-84812073D01*
X139334949Y-84801765D01*
X139376430Y-84797680D01*
X139977650Y-84797680D01*
X140019131Y-84801765D01*
X140019131Y-84801765D01*
G37*
G36*
X149688911Y-84720485D02*
G01*
X149722889Y-84730793D01*
X149754210Y-84747534D01*
X149781659Y-84770061D01*
X149804186Y-84797510D01*
X149820927Y-84828831D01*
X149831235Y-84862809D01*
X149835320Y-84904290D01*
X149835320Y-85580510D01*
X149831235Y-85621991D01*
X149820927Y-85655969D01*
X149804186Y-85687290D01*
X149781659Y-85714739D01*
X149754210Y-85737266D01*
X149722889Y-85754007D01*
X149688911Y-85764315D01*
X149647430Y-85768400D01*
X149046210Y-85768400D01*
X149004729Y-85764315D01*
X148970751Y-85754007D01*
X148939430Y-85737266D01*
X148911981Y-85714739D01*
X148889454Y-85687290D01*
X148872713Y-85655969D01*
X148862405Y-85621991D01*
X148858320Y-85580510D01*
X148858320Y-84904290D01*
X148862405Y-84862809D01*
X148872713Y-84828831D01*
X148889454Y-84797510D01*
X148911981Y-84770061D01*
X148939430Y-84747534D01*
X148970751Y-84730793D01*
X149004729Y-84720485D01*
X149046210Y-84716400D01*
X149647430Y-84716400D01*
X149688911Y-84720485D01*
X149688911Y-84720485D01*
G37*
G36*
X151263911Y-84720485D02*
G01*
X151297889Y-84730793D01*
X151329210Y-84747534D01*
X151356659Y-84770061D01*
X151379186Y-84797510D01*
X151395927Y-84828831D01*
X151406235Y-84862809D01*
X151410320Y-84904290D01*
X151410320Y-85580510D01*
X151406235Y-85621991D01*
X151395927Y-85655969D01*
X151379186Y-85687290D01*
X151356659Y-85714739D01*
X151329210Y-85737266D01*
X151297889Y-85754007D01*
X151263911Y-85764315D01*
X151222430Y-85768400D01*
X150621210Y-85768400D01*
X150579729Y-85764315D01*
X150545751Y-85754007D01*
X150514430Y-85737266D01*
X150486981Y-85714739D01*
X150464454Y-85687290D01*
X150447713Y-85655969D01*
X150437405Y-85621991D01*
X150433320Y-85580510D01*
X150433320Y-84904290D01*
X150437405Y-84862809D01*
X150447713Y-84828831D01*
X150464454Y-84797510D01*
X150486981Y-84770061D01*
X150514430Y-84747534D01*
X150545751Y-84730793D01*
X150579729Y-84720485D01*
X150621210Y-84716400D01*
X151222430Y-84716400D01*
X151263911Y-84720485D01*
X151263911Y-84720485D01*
G37*
G36*
X167132538Y-84814848D02*
G01*
X167153157Y-84821103D01*
X167172153Y-84831256D01*
X167188808Y-84844924D01*
X167202476Y-84861579D01*
X167212629Y-84880575D01*
X167218884Y-84901194D01*
X167221600Y-84928772D01*
X167221600Y-85437492D01*
X167218884Y-85465070D01*
X167212629Y-85485689D01*
X167202476Y-85504685D01*
X167188808Y-85521340D01*
X167172153Y-85535008D01*
X167153157Y-85545161D01*
X167132538Y-85551416D01*
X167104960Y-85554132D01*
X166646240Y-85554132D01*
X166618662Y-85551416D01*
X166598043Y-85545161D01*
X166579047Y-85535008D01*
X166562392Y-85521340D01*
X166548724Y-85504685D01*
X166538571Y-85485689D01*
X166532316Y-85465070D01*
X166529600Y-85437492D01*
X166529600Y-84928772D01*
X166532316Y-84901194D01*
X166538571Y-84880575D01*
X166548724Y-84861579D01*
X166562392Y-84844924D01*
X166579047Y-84831256D01*
X166598043Y-84821103D01*
X166618662Y-84814848D01*
X166646240Y-84812132D01*
X167104960Y-84812132D01*
X167132538Y-84814848D01*
X167132538Y-84814848D01*
G37*
G36*
X168102538Y-84814848D02*
G01*
X168123157Y-84821103D01*
X168142153Y-84831256D01*
X168158808Y-84844924D01*
X168172476Y-84861579D01*
X168182629Y-84880575D01*
X168188884Y-84901194D01*
X168191600Y-84928772D01*
X168191600Y-85437492D01*
X168188884Y-85465070D01*
X168182629Y-85485689D01*
X168172476Y-85504685D01*
X168158808Y-85521340D01*
X168142153Y-85535008D01*
X168123157Y-85545161D01*
X168102538Y-85551416D01*
X168074960Y-85554132D01*
X167616240Y-85554132D01*
X167588662Y-85551416D01*
X167568043Y-85545161D01*
X167549047Y-85535008D01*
X167532392Y-85521340D01*
X167518724Y-85504685D01*
X167508571Y-85485689D01*
X167502316Y-85465070D01*
X167499600Y-85437492D01*
X167499600Y-84928772D01*
X167502316Y-84901194D01*
X167508571Y-84880575D01*
X167518724Y-84861579D01*
X167532392Y-84844924D01*
X167549047Y-84831256D01*
X167568043Y-84821103D01*
X167588662Y-84814848D01*
X167616240Y-84812132D01*
X168074960Y-84812132D01*
X168102538Y-84814848D01*
X168102538Y-84814848D01*
G37*
G36*
X167132538Y-83587182D02*
G01*
X167153157Y-83593437D01*
X167172153Y-83603590D01*
X167188808Y-83617258D01*
X167202476Y-83633913D01*
X167212629Y-83652909D01*
X167218884Y-83673528D01*
X167221600Y-83701106D01*
X167221600Y-84209826D01*
X167218884Y-84237404D01*
X167212629Y-84258023D01*
X167202476Y-84277019D01*
X167188808Y-84293674D01*
X167172153Y-84307342D01*
X167153157Y-84317495D01*
X167132538Y-84323750D01*
X167104960Y-84326466D01*
X166646240Y-84326466D01*
X166618662Y-84323750D01*
X166598043Y-84317495D01*
X166579047Y-84307342D01*
X166562392Y-84293674D01*
X166548724Y-84277019D01*
X166538571Y-84258023D01*
X166532316Y-84237404D01*
X166529600Y-84209826D01*
X166529600Y-83701106D01*
X166532316Y-83673528D01*
X166538571Y-83652909D01*
X166548724Y-83633913D01*
X166562392Y-83617258D01*
X166579047Y-83603590D01*
X166598043Y-83593437D01*
X166618662Y-83587182D01*
X166646240Y-83584466D01*
X167104960Y-83584466D01*
X167132538Y-83587182D01*
X167132538Y-83587182D01*
G37*
G36*
X168102538Y-83587182D02*
G01*
X168123157Y-83593437D01*
X168142153Y-83603590D01*
X168158808Y-83617258D01*
X168172476Y-83633913D01*
X168182629Y-83652909D01*
X168188884Y-83673528D01*
X168191600Y-83701106D01*
X168191600Y-84209826D01*
X168188884Y-84237404D01*
X168182629Y-84258023D01*
X168172476Y-84277019D01*
X168158808Y-84293674D01*
X168142153Y-84307342D01*
X168123157Y-84317495D01*
X168102538Y-84323750D01*
X168074960Y-84326466D01*
X167616240Y-84326466D01*
X167588662Y-84323750D01*
X167568043Y-84317495D01*
X167549047Y-84307342D01*
X167532392Y-84293674D01*
X167518724Y-84277019D01*
X167508571Y-84258023D01*
X167502316Y-84237404D01*
X167499600Y-84209826D01*
X167499600Y-83701106D01*
X167502316Y-83673528D01*
X167508571Y-83652909D01*
X167518724Y-83633913D01*
X167532392Y-83617258D01*
X167549047Y-83603590D01*
X167568043Y-83593437D01*
X167588662Y-83587182D01*
X167616240Y-83584466D01*
X168074960Y-83584466D01*
X168102538Y-83587182D01*
X168102538Y-83587182D01*
G37*
G36*
X168051738Y-82359516D02*
G01*
X168072357Y-82365771D01*
X168091353Y-82375924D01*
X168108008Y-82389592D01*
X168121676Y-82406247D01*
X168131829Y-82425243D01*
X168138084Y-82445862D01*
X168140800Y-82473440D01*
X168140800Y-82982160D01*
X168138084Y-83009738D01*
X168131829Y-83030357D01*
X168121676Y-83049353D01*
X168108008Y-83066008D01*
X168091353Y-83079676D01*
X168072357Y-83089829D01*
X168051738Y-83096084D01*
X168024160Y-83098800D01*
X167565440Y-83098800D01*
X167537862Y-83096084D01*
X167517243Y-83089829D01*
X167498247Y-83079676D01*
X167481592Y-83066008D01*
X167467924Y-83049353D01*
X167457771Y-83030357D01*
X167451516Y-83009738D01*
X167448800Y-82982160D01*
X167448800Y-82473440D01*
X167451516Y-82445862D01*
X167457771Y-82425243D01*
X167467924Y-82406247D01*
X167481592Y-82389592D01*
X167498247Y-82375924D01*
X167517243Y-82365771D01*
X167537862Y-82359516D01*
X167565440Y-82356800D01*
X168024160Y-82356800D01*
X168051738Y-82359516D01*
X168051738Y-82359516D01*
G37*
G36*
X167081738Y-82359516D02*
G01*
X167102357Y-82365771D01*
X167121353Y-82375924D01*
X167138008Y-82389592D01*
X167151676Y-82406247D01*
X167161829Y-82425243D01*
X167168084Y-82445862D01*
X167170800Y-82473440D01*
X167170800Y-82982160D01*
X167168084Y-83009738D01*
X167161829Y-83030357D01*
X167151676Y-83049353D01*
X167138008Y-83066008D01*
X167121353Y-83079676D01*
X167102357Y-83089829D01*
X167081738Y-83096084D01*
X167054160Y-83098800D01*
X166595440Y-83098800D01*
X166567862Y-83096084D01*
X166547243Y-83089829D01*
X166528247Y-83079676D01*
X166511592Y-83066008D01*
X166497924Y-83049353D01*
X166487771Y-83030357D01*
X166481516Y-83009738D01*
X166478800Y-82982160D01*
X166478800Y-82473440D01*
X166481516Y-82445862D01*
X166487771Y-82425243D01*
X166497924Y-82406247D01*
X166511592Y-82389592D01*
X166528247Y-82375924D01*
X166547243Y-82365771D01*
X166567862Y-82359516D01*
X166595440Y-82356800D01*
X167054160Y-82356800D01*
X167081738Y-82359516D01*
X167081738Y-82359516D01*
G37*
G36*
X141680899Y-81292537D02*
G01*
X141690508Y-81295452D01*
X141699372Y-81300190D01*
X141707137Y-81306563D01*
X141717348Y-81319006D01*
X141724278Y-81329375D01*
X141741605Y-81346702D01*
X141761980Y-81360315D01*
X141784620Y-81369691D01*
X141808653Y-81374471D01*
X141833157Y-81374470D01*
X141857190Y-81369688D01*
X141879829Y-81360310D01*
X141900202Y-81346695D01*
X141917529Y-81329368D01*
X141924458Y-81318998D01*
X141934663Y-81306563D01*
X141942428Y-81300190D01*
X141951292Y-81295452D01*
X141960901Y-81292537D01*
X141977040Y-81290948D01*
X142464761Y-81290948D01*
X142483099Y-81292754D01*
X142495350Y-81293356D01*
X142513769Y-81293356D01*
X142536049Y-81295550D01*
X142620133Y-81312276D01*
X142641560Y-81318776D01*
X142720758Y-81351580D01*
X142726203Y-81354491D01*
X142726209Y-81354493D01*
X142735069Y-81359229D01*
X142735073Y-81359232D01*
X142740514Y-81362140D01*
X142811799Y-81409771D01*
X142829104Y-81423972D01*
X142889728Y-81484596D01*
X142903929Y-81501901D01*
X142951560Y-81573186D01*
X142954468Y-81578627D01*
X142954471Y-81578631D01*
X142959207Y-81587491D01*
X142959209Y-81587497D01*
X142962120Y-81592942D01*
X142994924Y-81672140D01*
X143001424Y-81693567D01*
X143018150Y-81777651D01*
X143020344Y-81799931D01*
X143020344Y-81818350D01*
X143020946Y-81830601D01*
X143022752Y-81848939D01*
X143022752Y-82336662D01*
X143020946Y-82354999D01*
X143020344Y-82367250D01*
X143020344Y-82385669D01*
X143018150Y-82407949D01*
X143001424Y-82492033D01*
X142994924Y-82513460D01*
X142962120Y-82592658D01*
X142959209Y-82598103D01*
X142959207Y-82598109D01*
X142954471Y-82606969D01*
X142954468Y-82606973D01*
X142951560Y-82612414D01*
X142903929Y-82683699D01*
X142889728Y-82701004D01*
X142829104Y-82761628D01*
X142811799Y-82775829D01*
X142740514Y-82823460D01*
X142735073Y-82826368D01*
X142735069Y-82826371D01*
X142726209Y-82831107D01*
X142726203Y-82831109D01*
X142720758Y-82834020D01*
X142641560Y-82866824D01*
X142620133Y-82873324D01*
X142536049Y-82890050D01*
X142513769Y-82892244D01*
X142495350Y-82892244D01*
X142483099Y-82892846D01*
X142464762Y-82894652D01*
X141977040Y-82894652D01*
X141960901Y-82893063D01*
X141951292Y-82890148D01*
X141942428Y-82885410D01*
X141934663Y-82879037D01*
X141924452Y-82866594D01*
X141917522Y-82856225D01*
X141900195Y-82838898D01*
X141879820Y-82825285D01*
X141857180Y-82815909D01*
X141833147Y-82811129D01*
X141808643Y-82811130D01*
X141784610Y-82815912D01*
X141761971Y-82825290D01*
X141741598Y-82838905D01*
X141724271Y-82856232D01*
X141717342Y-82866602D01*
X141707137Y-82879037D01*
X141699372Y-82885410D01*
X141690508Y-82890148D01*
X141680899Y-82893063D01*
X141664760Y-82894652D01*
X141177038Y-82894652D01*
X141158701Y-82892846D01*
X141146450Y-82892244D01*
X141128031Y-82892244D01*
X141105751Y-82890050D01*
X141021667Y-82873324D01*
X141000240Y-82866824D01*
X140921042Y-82834020D01*
X140915597Y-82831109D01*
X140915591Y-82831107D01*
X140906731Y-82826371D01*
X140906727Y-82826368D01*
X140901286Y-82823460D01*
X140830001Y-82775829D01*
X140812696Y-82761628D01*
X140752072Y-82701004D01*
X140737871Y-82683699D01*
X140690240Y-82612414D01*
X140687332Y-82606973D01*
X140687329Y-82606969D01*
X140682593Y-82598109D01*
X140682591Y-82598103D01*
X140679680Y-82592658D01*
X140646876Y-82513460D01*
X140640376Y-82492033D01*
X140623650Y-82407949D01*
X140621456Y-82385669D01*
X140621456Y-82367250D01*
X140620854Y-82354999D01*
X140619048Y-82336662D01*
X140619048Y-81848939D01*
X140620854Y-81830601D01*
X140621456Y-81818350D01*
X140621456Y-81799931D01*
X140623650Y-81777651D01*
X140640376Y-81693567D01*
X140646876Y-81672140D01*
X140679680Y-81592942D01*
X140682591Y-81587497D01*
X140682593Y-81587491D01*
X140687329Y-81578631D01*
X140687332Y-81578627D01*
X140690240Y-81573186D01*
X140737871Y-81501901D01*
X140752072Y-81484596D01*
X140812696Y-81423972D01*
X140830001Y-81409771D01*
X140901286Y-81362140D01*
X140906727Y-81359232D01*
X140906731Y-81359229D01*
X140915591Y-81354493D01*
X140915597Y-81354491D01*
X140921042Y-81351580D01*
X141000240Y-81318776D01*
X141021667Y-81312276D01*
X141105751Y-81295550D01*
X141128031Y-81293356D01*
X141146450Y-81293356D01*
X141158701Y-81292754D01*
X141177039Y-81290948D01*
X141664760Y-81290948D01*
X141680899Y-81292537D01*
X141680899Y-81292537D01*
G37*
G36*
X149629398Y-81940416D02*
G01*
X149650017Y-81946671D01*
X149669013Y-81956824D01*
X149685668Y-81970492D01*
X149699336Y-81987147D01*
X149709489Y-82006143D01*
X149715744Y-82026762D01*
X149718460Y-82054340D01*
X149718460Y-82563060D01*
X149715744Y-82590638D01*
X149709489Y-82611257D01*
X149699336Y-82630253D01*
X149685668Y-82646908D01*
X149669013Y-82660576D01*
X149650017Y-82670729D01*
X149629398Y-82676984D01*
X149601820Y-82679700D01*
X149143100Y-82679700D01*
X149115522Y-82676984D01*
X149094903Y-82670729D01*
X149075907Y-82660576D01*
X149059252Y-82646908D01*
X149045584Y-82630253D01*
X149035431Y-82611257D01*
X149029176Y-82590638D01*
X149026460Y-82563060D01*
X149026460Y-82054340D01*
X149029176Y-82026762D01*
X149035431Y-82006143D01*
X149045584Y-81987147D01*
X149059252Y-81970492D01*
X149075907Y-81956824D01*
X149094903Y-81946671D01*
X149115522Y-81940416D01*
X149143100Y-81937700D01*
X149601820Y-81937700D01*
X149629398Y-81940416D01*
X149629398Y-81940416D01*
G37*
G36*
X150599398Y-81940416D02*
G01*
X150620017Y-81946671D01*
X150639013Y-81956824D01*
X150655668Y-81970492D01*
X150669336Y-81987147D01*
X150679489Y-82006143D01*
X150685744Y-82026762D01*
X150688460Y-82054340D01*
X150688460Y-82563060D01*
X150685744Y-82590638D01*
X150679489Y-82611257D01*
X150669336Y-82630253D01*
X150655668Y-82646908D01*
X150639013Y-82660576D01*
X150620017Y-82670729D01*
X150599398Y-82676984D01*
X150571820Y-82679700D01*
X150113100Y-82679700D01*
X150085522Y-82676984D01*
X150064903Y-82670729D01*
X150045907Y-82660576D01*
X150029252Y-82646908D01*
X150015584Y-82630253D01*
X150005431Y-82611257D01*
X149999176Y-82590638D01*
X149996460Y-82563060D01*
X149996460Y-82054340D01*
X149999176Y-82026762D01*
X150005431Y-82006143D01*
X150015584Y-81987147D01*
X150029252Y-81970492D01*
X150045907Y-81956824D01*
X150064903Y-81946671D01*
X150085522Y-81940416D01*
X150113100Y-81937700D01*
X150571820Y-81937700D01*
X150599398Y-81940416D01*
X150599398Y-81940416D01*
G37*
G36*
X135157571Y-81443885D02*
G01*
X135191549Y-81454193D01*
X135222870Y-81470934D01*
X135250319Y-81493461D01*
X135272846Y-81520910D01*
X135289587Y-81552231D01*
X135299895Y-81586209D01*
X135303980Y-81627690D01*
X135303980Y-82303910D01*
X135299895Y-82345391D01*
X135289587Y-82379369D01*
X135272846Y-82410690D01*
X135250319Y-82438139D01*
X135222870Y-82460666D01*
X135191549Y-82477407D01*
X135157571Y-82487715D01*
X135116090Y-82491800D01*
X134514870Y-82491800D01*
X134473389Y-82487715D01*
X134439411Y-82477407D01*
X134408090Y-82460666D01*
X134380641Y-82438139D01*
X134358114Y-82410690D01*
X134341373Y-82379369D01*
X134331065Y-82345391D01*
X134326980Y-82303910D01*
X134326980Y-81627690D01*
X134331065Y-81586209D01*
X134341373Y-81552231D01*
X134358114Y-81520910D01*
X134380641Y-81493461D01*
X134408090Y-81470934D01*
X134439411Y-81454193D01*
X134473389Y-81443885D01*
X134514870Y-81439800D01*
X135116090Y-81439800D01*
X135157571Y-81443885D01*
X135157571Y-81443885D01*
G37*
G36*
X138175091Y-81443885D02*
G01*
X138209069Y-81454193D01*
X138240390Y-81470934D01*
X138267839Y-81493461D01*
X138290366Y-81520910D01*
X138307107Y-81552231D01*
X138317415Y-81586209D01*
X138321500Y-81627690D01*
X138321500Y-82303910D01*
X138317415Y-82345391D01*
X138307107Y-82379369D01*
X138290366Y-82410690D01*
X138267839Y-82438139D01*
X138240390Y-82460666D01*
X138209069Y-82477407D01*
X138175091Y-82487715D01*
X138133610Y-82491800D01*
X137532390Y-82491800D01*
X137490909Y-82487715D01*
X137456931Y-82477407D01*
X137425610Y-82460666D01*
X137398161Y-82438139D01*
X137375634Y-82410690D01*
X137358893Y-82379369D01*
X137348585Y-82345391D01*
X137344500Y-82303910D01*
X137344500Y-81627690D01*
X137348585Y-81586209D01*
X137358893Y-81552231D01*
X137375634Y-81520910D01*
X137398161Y-81493461D01*
X137425610Y-81470934D01*
X137456931Y-81454193D01*
X137490909Y-81443885D01*
X137532390Y-81439800D01*
X138133610Y-81439800D01*
X138175091Y-81443885D01*
X138175091Y-81443885D01*
G37*
G36*
X136732571Y-81443885D02*
G01*
X136766549Y-81454193D01*
X136797870Y-81470934D01*
X136825319Y-81493461D01*
X136847846Y-81520910D01*
X136864587Y-81552231D01*
X136874895Y-81586209D01*
X136878980Y-81627690D01*
X136878980Y-82303910D01*
X136874895Y-82345391D01*
X136864587Y-82379369D01*
X136847846Y-82410690D01*
X136825319Y-82438139D01*
X136797870Y-82460666D01*
X136766549Y-82477407D01*
X136732571Y-82487715D01*
X136691090Y-82491800D01*
X136089870Y-82491800D01*
X136048389Y-82487715D01*
X136014411Y-82477407D01*
X135983090Y-82460666D01*
X135955641Y-82438139D01*
X135933114Y-82410690D01*
X135916373Y-82379369D01*
X135906065Y-82345391D01*
X135901980Y-82303910D01*
X135901980Y-81627690D01*
X135906065Y-81586209D01*
X135916373Y-81552231D01*
X135933114Y-81520910D01*
X135955641Y-81493461D01*
X135983090Y-81470934D01*
X136014411Y-81454193D01*
X136048389Y-81443885D01*
X136089870Y-81439800D01*
X136691090Y-81439800D01*
X136732571Y-81443885D01*
X136732571Y-81443885D01*
G37*
G36*
X139750091Y-81443885D02*
G01*
X139784069Y-81454193D01*
X139815390Y-81470934D01*
X139842839Y-81493461D01*
X139865366Y-81520910D01*
X139882107Y-81552231D01*
X139892415Y-81586209D01*
X139896500Y-81627690D01*
X139896500Y-82303910D01*
X139892415Y-82345391D01*
X139882107Y-82379369D01*
X139865366Y-82410690D01*
X139842839Y-82438139D01*
X139815390Y-82460666D01*
X139784069Y-82477407D01*
X139750091Y-82487715D01*
X139708610Y-82491800D01*
X139107390Y-82491800D01*
X139065909Y-82487715D01*
X139031931Y-82477407D01*
X139000610Y-82460666D01*
X138973161Y-82438139D01*
X138950634Y-82410690D01*
X138933893Y-82379369D01*
X138923585Y-82345391D01*
X138919500Y-82303910D01*
X138919500Y-81627690D01*
X138923585Y-81586209D01*
X138933893Y-81552231D01*
X138950634Y-81520910D01*
X138973161Y-81493461D01*
X139000610Y-81470934D01*
X139031931Y-81454193D01*
X139065909Y-81443885D01*
X139107390Y-81439800D01*
X139708610Y-81439800D01*
X139750091Y-81443885D01*
X139750091Y-81443885D01*
G37*
G36*
X150599398Y-80924416D02*
G01*
X150620017Y-80930671D01*
X150639013Y-80940824D01*
X150655668Y-80954492D01*
X150669336Y-80971147D01*
X150679489Y-80990143D01*
X150685744Y-81010762D01*
X150688460Y-81038340D01*
X150688460Y-81547060D01*
X150685744Y-81574638D01*
X150679489Y-81595257D01*
X150669336Y-81614253D01*
X150655668Y-81630908D01*
X150639013Y-81644576D01*
X150620017Y-81654729D01*
X150599398Y-81660984D01*
X150571820Y-81663700D01*
X150113100Y-81663700D01*
X150085522Y-81660984D01*
X150064903Y-81654729D01*
X150045907Y-81644576D01*
X150029252Y-81630908D01*
X150015584Y-81614253D01*
X150005431Y-81595257D01*
X149999176Y-81574638D01*
X149996460Y-81547060D01*
X149996460Y-81038340D01*
X149999176Y-81010762D01*
X150005431Y-80990143D01*
X150015584Y-80971147D01*
X150029252Y-80954492D01*
X150045907Y-80940824D01*
X150064903Y-80930671D01*
X150085522Y-80924416D01*
X150113100Y-80921700D01*
X150571820Y-80921700D01*
X150599398Y-80924416D01*
X150599398Y-80924416D01*
G37*
G36*
X149629398Y-80924416D02*
G01*
X149650017Y-80930671D01*
X149669013Y-80940824D01*
X149685668Y-80954492D01*
X149699336Y-80971147D01*
X149709489Y-80990143D01*
X149715744Y-81010762D01*
X149718460Y-81038340D01*
X149718460Y-81547060D01*
X149715744Y-81574638D01*
X149709489Y-81595257D01*
X149699336Y-81614253D01*
X149685668Y-81630908D01*
X149669013Y-81644576D01*
X149650017Y-81654729D01*
X149629398Y-81660984D01*
X149601820Y-81663700D01*
X149143100Y-81663700D01*
X149115522Y-81660984D01*
X149094903Y-81654729D01*
X149075907Y-81644576D01*
X149059252Y-81630908D01*
X149045584Y-81614253D01*
X149035431Y-81595257D01*
X149029176Y-81574638D01*
X149026460Y-81547060D01*
X149026460Y-81038340D01*
X149029176Y-81010762D01*
X149035431Y-80990143D01*
X149045584Y-80971147D01*
X149059252Y-80954492D01*
X149075907Y-80940824D01*
X149094903Y-80930671D01*
X149115522Y-80924416D01*
X149143100Y-80921700D01*
X149601820Y-80921700D01*
X149629398Y-80924416D01*
X149629398Y-80924416D01*
G37*
G36*
X167359191Y-79919385D02*
G01*
X167393169Y-79929693D01*
X167424490Y-79946434D01*
X167451939Y-79968961D01*
X167474466Y-79996410D01*
X167491207Y-80027731D01*
X167501515Y-80061709D01*
X167505600Y-80103190D01*
X167505600Y-80704410D01*
X167501515Y-80745891D01*
X167491207Y-80779869D01*
X167474466Y-80811190D01*
X167451939Y-80838639D01*
X167424490Y-80861166D01*
X167393169Y-80877907D01*
X167359191Y-80888215D01*
X167317710Y-80892300D01*
X166641490Y-80892300D01*
X166600009Y-80888215D01*
X166566031Y-80877907D01*
X166534710Y-80861166D01*
X166507261Y-80838639D01*
X166484734Y-80811190D01*
X166467993Y-80779869D01*
X166457685Y-80745891D01*
X166453600Y-80704410D01*
X166453600Y-80103190D01*
X166457685Y-80061709D01*
X166467993Y-80027731D01*
X166484734Y-79996410D01*
X166507261Y-79968961D01*
X166534710Y-79946434D01*
X166566031Y-79929693D01*
X166600009Y-79919385D01*
X166641490Y-79915300D01*
X167317710Y-79915300D01*
X167359191Y-79919385D01*
X167359191Y-79919385D01*
G37*
G36*
X150599398Y-79908416D02*
G01*
X150620017Y-79914671D01*
X150639013Y-79924824D01*
X150655668Y-79938492D01*
X150669336Y-79955147D01*
X150679489Y-79974143D01*
X150685744Y-79994762D01*
X150688460Y-80022340D01*
X150688460Y-80531060D01*
X150685744Y-80558638D01*
X150679489Y-80579257D01*
X150669336Y-80598253D01*
X150655668Y-80614908D01*
X150639013Y-80628576D01*
X150620017Y-80638729D01*
X150599398Y-80644984D01*
X150571820Y-80647700D01*
X150113100Y-80647700D01*
X150085522Y-80644984D01*
X150064903Y-80638729D01*
X150045907Y-80628576D01*
X150029252Y-80614908D01*
X150015584Y-80598253D01*
X150005431Y-80579257D01*
X149999176Y-80558638D01*
X149996460Y-80531060D01*
X149996460Y-80022340D01*
X149999176Y-79994762D01*
X150005431Y-79974143D01*
X150015584Y-79955147D01*
X150029252Y-79938492D01*
X150045907Y-79924824D01*
X150064903Y-79914671D01*
X150085522Y-79908416D01*
X150113100Y-79905700D01*
X150571820Y-79905700D01*
X150599398Y-79908416D01*
X150599398Y-79908416D01*
G37*
G36*
X149629398Y-79908416D02*
G01*
X149650017Y-79914671D01*
X149669013Y-79924824D01*
X149685668Y-79938492D01*
X149699336Y-79955147D01*
X149709489Y-79974143D01*
X149715744Y-79994762D01*
X149718460Y-80022340D01*
X149718460Y-80531060D01*
X149715744Y-80558638D01*
X149709489Y-80579257D01*
X149699336Y-80598253D01*
X149685668Y-80614908D01*
X149669013Y-80628576D01*
X149650017Y-80638729D01*
X149629398Y-80644984D01*
X149601820Y-80647700D01*
X149143100Y-80647700D01*
X149115522Y-80644984D01*
X149094903Y-80638729D01*
X149075907Y-80628576D01*
X149059252Y-80614908D01*
X149045584Y-80598253D01*
X149035431Y-80579257D01*
X149029176Y-80558638D01*
X149026460Y-80531060D01*
X149026460Y-80022340D01*
X149029176Y-79994762D01*
X149035431Y-79974143D01*
X149045584Y-79955147D01*
X149059252Y-79938492D01*
X149075907Y-79924824D01*
X149094903Y-79914671D01*
X149115522Y-79908416D01*
X149143100Y-79905700D01*
X149601820Y-79905700D01*
X149629398Y-79908416D01*
X149629398Y-79908416D01*
G37*
G36*
X141668199Y-78600137D02*
G01*
X141677808Y-78603052D01*
X141686672Y-78607790D01*
X141694437Y-78614163D01*
X141704648Y-78626606D01*
X141711578Y-78636975D01*
X141728905Y-78654302D01*
X141749280Y-78667915D01*
X141771920Y-78677291D01*
X141795953Y-78682071D01*
X141820457Y-78682070D01*
X141844490Y-78677288D01*
X141867129Y-78667910D01*
X141887502Y-78654295D01*
X141904829Y-78636968D01*
X141911758Y-78626598D01*
X141921963Y-78614163D01*
X141929728Y-78607790D01*
X141938592Y-78603052D01*
X141948201Y-78600137D01*
X141964340Y-78598548D01*
X142452061Y-78598548D01*
X142470399Y-78600354D01*
X142482650Y-78600956D01*
X142501069Y-78600956D01*
X142523349Y-78603150D01*
X142607433Y-78619876D01*
X142628860Y-78626376D01*
X142708058Y-78659180D01*
X142713503Y-78662091D01*
X142713509Y-78662093D01*
X142722369Y-78666829D01*
X142722373Y-78666832D01*
X142727814Y-78669740D01*
X142799099Y-78717371D01*
X142816404Y-78731572D01*
X142877028Y-78792196D01*
X142891229Y-78809501D01*
X142938860Y-78880786D01*
X142941768Y-78886227D01*
X142941771Y-78886231D01*
X142946507Y-78895091D01*
X142946509Y-78895097D01*
X142949420Y-78900542D01*
X142982224Y-78979740D01*
X142988724Y-79001167D01*
X143005450Y-79085251D01*
X143007644Y-79107531D01*
X143007644Y-79125950D01*
X143008246Y-79138201D01*
X143010052Y-79156539D01*
X143010052Y-79644262D01*
X143008246Y-79662599D01*
X143007644Y-79674850D01*
X143007644Y-79693269D01*
X143005450Y-79715549D01*
X142988724Y-79799633D01*
X142982224Y-79821060D01*
X142949420Y-79900258D01*
X142946511Y-79905700D01*
X142946507Y-79905709D01*
X142941771Y-79914569D01*
X142941768Y-79914573D01*
X142938860Y-79920014D01*
X142891229Y-79991299D01*
X142877028Y-80008604D01*
X142816404Y-80069228D01*
X142799099Y-80083429D01*
X142727814Y-80131060D01*
X142722373Y-80133968D01*
X142722369Y-80133971D01*
X142713509Y-80138707D01*
X142713503Y-80138709D01*
X142708058Y-80141620D01*
X142628860Y-80174424D01*
X142607433Y-80180924D01*
X142523349Y-80197650D01*
X142501069Y-80199844D01*
X142482650Y-80199844D01*
X142470399Y-80200446D01*
X142452062Y-80202252D01*
X141964340Y-80202252D01*
X141948201Y-80200663D01*
X141938592Y-80197748D01*
X141929728Y-80193010D01*
X141921963Y-80186637D01*
X141911752Y-80174194D01*
X141904822Y-80163825D01*
X141887495Y-80146498D01*
X141867120Y-80132885D01*
X141844480Y-80123509D01*
X141820447Y-80118729D01*
X141795943Y-80118730D01*
X141771910Y-80123512D01*
X141749271Y-80132890D01*
X141728898Y-80146505D01*
X141711571Y-80163832D01*
X141704642Y-80174202D01*
X141694437Y-80186637D01*
X141686672Y-80193010D01*
X141677808Y-80197748D01*
X141668199Y-80200663D01*
X141652060Y-80202252D01*
X141164338Y-80202252D01*
X141146001Y-80200446D01*
X141133750Y-80199844D01*
X141115331Y-80199844D01*
X141093051Y-80197650D01*
X141008967Y-80180924D01*
X140987540Y-80174424D01*
X140908342Y-80141620D01*
X140902897Y-80138709D01*
X140902891Y-80138707D01*
X140894031Y-80133971D01*
X140894027Y-80133968D01*
X140888586Y-80131060D01*
X140817301Y-80083429D01*
X140799996Y-80069228D01*
X140739372Y-80008604D01*
X140725171Y-79991299D01*
X140677540Y-79920014D01*
X140674632Y-79914573D01*
X140674629Y-79914569D01*
X140669893Y-79905709D01*
X140669889Y-79905700D01*
X140666980Y-79900258D01*
X140634176Y-79821060D01*
X140627676Y-79799633D01*
X140610950Y-79715549D01*
X140608756Y-79693269D01*
X140608756Y-79674850D01*
X140608154Y-79662599D01*
X140606348Y-79644262D01*
X140606348Y-79156539D01*
X140608154Y-79138201D01*
X140608756Y-79125950D01*
X140608756Y-79107531D01*
X140610950Y-79085251D01*
X140627676Y-79001167D01*
X140634176Y-78979740D01*
X140666980Y-78900542D01*
X140669891Y-78895097D01*
X140669893Y-78895091D01*
X140674629Y-78886231D01*
X140674632Y-78886227D01*
X140677540Y-78880786D01*
X140725171Y-78809501D01*
X140739372Y-78792196D01*
X140799996Y-78731572D01*
X140817301Y-78717371D01*
X140888586Y-78669740D01*
X140894027Y-78666832D01*
X140894031Y-78666829D01*
X140902891Y-78662093D01*
X140902897Y-78662091D01*
X140908342Y-78659180D01*
X140987540Y-78626376D01*
X141008967Y-78619876D01*
X141093051Y-78603150D01*
X141115331Y-78600956D01*
X141133750Y-78600956D01*
X141146001Y-78600354D01*
X141164339Y-78598548D01*
X141652060Y-78598548D01*
X141668199Y-78600137D01*
X141668199Y-78600137D01*
G37*
G36*
X139686591Y-79018185D02*
G01*
X139720569Y-79028493D01*
X139751890Y-79045234D01*
X139779339Y-79067761D01*
X139801866Y-79095210D01*
X139818607Y-79126531D01*
X139828915Y-79160509D01*
X139833000Y-79201990D01*
X139833000Y-79878210D01*
X139828915Y-79919691D01*
X139818607Y-79953669D01*
X139801866Y-79984990D01*
X139779339Y-80012439D01*
X139751890Y-80034966D01*
X139720569Y-80051707D01*
X139686591Y-80062015D01*
X139645110Y-80066100D01*
X139043890Y-80066100D01*
X139002409Y-80062015D01*
X138968431Y-80051707D01*
X138937110Y-80034966D01*
X138909661Y-80012439D01*
X138887134Y-79984990D01*
X138870393Y-79953669D01*
X138860085Y-79919691D01*
X138856000Y-79878210D01*
X138856000Y-79201990D01*
X138860085Y-79160509D01*
X138870393Y-79126531D01*
X138887134Y-79095210D01*
X138909661Y-79067761D01*
X138937110Y-79045234D01*
X138968431Y-79028493D01*
X139002409Y-79018185D01*
X139043890Y-79014100D01*
X139645110Y-79014100D01*
X139686591Y-79018185D01*
X139686591Y-79018185D01*
G37*
G36*
X138111591Y-79018185D02*
G01*
X138145569Y-79028493D01*
X138176890Y-79045234D01*
X138204339Y-79067761D01*
X138226866Y-79095210D01*
X138243607Y-79126531D01*
X138253915Y-79160509D01*
X138258000Y-79201990D01*
X138258000Y-79878210D01*
X138253915Y-79919691D01*
X138243607Y-79953669D01*
X138226866Y-79984990D01*
X138204339Y-80012439D01*
X138176890Y-80034966D01*
X138145569Y-80051707D01*
X138111591Y-80062015D01*
X138070110Y-80066100D01*
X137468890Y-80066100D01*
X137427409Y-80062015D01*
X137393431Y-80051707D01*
X137362110Y-80034966D01*
X137334661Y-80012439D01*
X137312134Y-79984990D01*
X137295393Y-79953669D01*
X137285085Y-79919691D01*
X137281000Y-79878210D01*
X137281000Y-79201990D01*
X137285085Y-79160509D01*
X137295393Y-79126531D01*
X137312134Y-79095210D01*
X137334661Y-79067761D01*
X137362110Y-79045234D01*
X137393431Y-79028493D01*
X137427409Y-79018185D01*
X137468890Y-79014100D01*
X138070110Y-79014100D01*
X138111591Y-79018185D01*
X138111591Y-79018185D01*
G37*
G36*
X136597951Y-79002945D02*
G01*
X136631929Y-79013253D01*
X136663250Y-79029994D01*
X136690699Y-79052521D01*
X136713226Y-79079970D01*
X136729967Y-79111291D01*
X136740275Y-79145269D01*
X136744360Y-79186750D01*
X136744360Y-79862970D01*
X136740275Y-79904451D01*
X136729967Y-79938429D01*
X136713226Y-79969750D01*
X136690699Y-79997199D01*
X136663250Y-80019726D01*
X136631929Y-80036467D01*
X136597951Y-80046775D01*
X136556470Y-80050860D01*
X135955250Y-80050860D01*
X135913769Y-80046775D01*
X135879791Y-80036467D01*
X135848470Y-80019726D01*
X135821021Y-79997199D01*
X135798494Y-79969750D01*
X135781753Y-79938429D01*
X135771445Y-79904451D01*
X135767360Y-79862970D01*
X135767360Y-79186750D01*
X135771445Y-79145269D01*
X135781753Y-79111291D01*
X135798494Y-79079970D01*
X135821021Y-79052521D01*
X135848470Y-79029994D01*
X135879791Y-79013253D01*
X135913769Y-79002945D01*
X135955250Y-78998860D01*
X136556470Y-78998860D01*
X136597951Y-79002945D01*
X136597951Y-79002945D01*
G37*
G36*
X135022951Y-79002945D02*
G01*
X135056929Y-79013253D01*
X135088250Y-79029994D01*
X135115699Y-79052521D01*
X135138226Y-79079970D01*
X135154967Y-79111291D01*
X135165275Y-79145269D01*
X135169360Y-79186750D01*
X135169360Y-79862970D01*
X135165275Y-79904451D01*
X135154967Y-79938429D01*
X135138226Y-79969750D01*
X135115699Y-79997199D01*
X135088250Y-80019726D01*
X135056929Y-80036467D01*
X135022951Y-80046775D01*
X134981470Y-80050860D01*
X134380250Y-80050860D01*
X134338769Y-80046775D01*
X134304791Y-80036467D01*
X134273470Y-80019726D01*
X134246021Y-79997199D01*
X134223494Y-79969750D01*
X134206753Y-79938429D01*
X134196445Y-79904451D01*
X134192360Y-79862970D01*
X134192360Y-79186750D01*
X134196445Y-79145269D01*
X134206753Y-79111291D01*
X134223494Y-79079970D01*
X134246021Y-79052521D01*
X134273470Y-79029994D01*
X134304791Y-79013253D01*
X134338769Y-79002945D01*
X134380250Y-78998860D01*
X134981470Y-78998860D01*
X135022951Y-79002945D01*
X135022951Y-79002945D01*
G37*
G36*
X172107151Y-78835305D02*
G01*
X172141129Y-78845613D01*
X172172450Y-78862354D01*
X172199899Y-78884881D01*
X172222426Y-78912330D01*
X172239167Y-78943651D01*
X172249475Y-78977629D01*
X172253560Y-79019110D01*
X172253560Y-79695330D01*
X172249475Y-79736811D01*
X172239167Y-79770789D01*
X172222426Y-79802110D01*
X172199899Y-79829559D01*
X172172450Y-79852086D01*
X172141129Y-79868827D01*
X172107151Y-79879135D01*
X172065670Y-79883220D01*
X171464450Y-79883220D01*
X171422969Y-79879135D01*
X171388991Y-79868827D01*
X171357670Y-79852086D01*
X171330221Y-79829559D01*
X171307694Y-79802110D01*
X171290953Y-79770789D01*
X171280645Y-79736811D01*
X171276560Y-79695330D01*
X171276560Y-79019110D01*
X171280645Y-78977629D01*
X171290953Y-78943651D01*
X171307694Y-78912330D01*
X171330221Y-78884881D01*
X171357670Y-78862354D01*
X171388991Y-78845613D01*
X171422969Y-78835305D01*
X171464450Y-78831220D01*
X172065670Y-78831220D01*
X172107151Y-78835305D01*
X172107151Y-78835305D01*
G37*
G36*
X170532151Y-78835305D02*
G01*
X170566129Y-78845613D01*
X170597450Y-78862354D01*
X170624899Y-78884881D01*
X170647426Y-78912330D01*
X170664167Y-78943651D01*
X170674475Y-78977629D01*
X170678560Y-79019110D01*
X170678560Y-79695330D01*
X170674475Y-79736811D01*
X170664167Y-79770789D01*
X170647426Y-79802110D01*
X170624899Y-79829559D01*
X170597450Y-79852086D01*
X170566129Y-79868827D01*
X170532151Y-79879135D01*
X170490670Y-79883220D01*
X169889450Y-79883220D01*
X169847969Y-79879135D01*
X169813991Y-79868827D01*
X169782670Y-79852086D01*
X169755221Y-79829559D01*
X169732694Y-79802110D01*
X169715953Y-79770789D01*
X169705645Y-79736811D01*
X169701560Y-79695330D01*
X169701560Y-79019110D01*
X169705645Y-78977629D01*
X169715953Y-78943651D01*
X169732694Y-78912330D01*
X169755221Y-78884881D01*
X169782670Y-78862354D01*
X169813991Y-78845613D01*
X169847969Y-78835305D01*
X169889450Y-78831220D01*
X170490670Y-78831220D01*
X170532151Y-78835305D01*
X170532151Y-78835305D01*
G37*
G36*
X150599398Y-78892416D02*
G01*
X150620017Y-78898671D01*
X150639013Y-78908824D01*
X150655668Y-78922492D01*
X150669336Y-78939147D01*
X150679489Y-78958143D01*
X150685744Y-78978762D01*
X150688460Y-79006340D01*
X150688460Y-79515060D01*
X150685744Y-79542638D01*
X150679489Y-79563257D01*
X150669336Y-79582253D01*
X150655668Y-79598908D01*
X150639013Y-79612576D01*
X150620017Y-79622729D01*
X150599398Y-79628984D01*
X150571820Y-79631700D01*
X150113100Y-79631700D01*
X150085522Y-79628984D01*
X150064903Y-79622729D01*
X150045907Y-79612576D01*
X150029252Y-79598908D01*
X150015584Y-79582253D01*
X150005431Y-79563257D01*
X149999176Y-79542638D01*
X149996460Y-79515060D01*
X149996460Y-79006340D01*
X149999176Y-78978762D01*
X150005431Y-78958143D01*
X150015584Y-78939147D01*
X150029252Y-78922492D01*
X150045907Y-78908824D01*
X150064903Y-78898671D01*
X150085522Y-78892416D01*
X150113100Y-78889700D01*
X150571820Y-78889700D01*
X150599398Y-78892416D01*
X150599398Y-78892416D01*
G37*
G36*
X149629398Y-78892416D02*
G01*
X149650017Y-78898671D01*
X149669013Y-78908824D01*
X149685668Y-78922492D01*
X149699336Y-78939147D01*
X149709489Y-78958143D01*
X149715744Y-78978762D01*
X149718460Y-79006340D01*
X149718460Y-79515060D01*
X149715744Y-79542638D01*
X149709489Y-79563257D01*
X149699336Y-79582253D01*
X149685668Y-79598908D01*
X149669013Y-79612576D01*
X149650017Y-79622729D01*
X149629398Y-79628984D01*
X149601820Y-79631700D01*
X149143100Y-79631700D01*
X149115522Y-79628984D01*
X149094903Y-79622729D01*
X149075907Y-79612576D01*
X149059252Y-79598908D01*
X149045584Y-79582253D01*
X149035431Y-79563257D01*
X149029176Y-79542638D01*
X149026460Y-79515060D01*
X149026460Y-79006340D01*
X149029176Y-78978762D01*
X149035431Y-78958143D01*
X149045584Y-78939147D01*
X149059252Y-78922492D01*
X149075907Y-78908824D01*
X149094903Y-78898671D01*
X149115522Y-78892416D01*
X149143100Y-78889700D01*
X149601820Y-78889700D01*
X149629398Y-78892416D01*
X149629398Y-78892416D01*
G37*
G36*
X167359191Y-78344385D02*
G01*
X167393169Y-78354693D01*
X167424490Y-78371434D01*
X167451939Y-78393961D01*
X167474466Y-78421410D01*
X167491207Y-78452731D01*
X167501515Y-78486709D01*
X167505600Y-78528190D01*
X167505600Y-79129410D01*
X167501515Y-79170891D01*
X167491207Y-79204869D01*
X167474466Y-79236190D01*
X167451939Y-79263639D01*
X167424490Y-79286166D01*
X167393169Y-79302907D01*
X167359191Y-79313215D01*
X167317710Y-79317300D01*
X166641490Y-79317300D01*
X166600009Y-79313215D01*
X166566031Y-79302907D01*
X166534710Y-79286166D01*
X166507261Y-79263639D01*
X166484734Y-79236190D01*
X166467993Y-79204869D01*
X166457685Y-79170891D01*
X166453600Y-79129410D01*
X166453600Y-78528190D01*
X166457685Y-78486709D01*
X166467993Y-78452731D01*
X166484734Y-78421410D01*
X166507261Y-78393961D01*
X166534710Y-78371434D01*
X166566031Y-78354693D01*
X166600009Y-78344385D01*
X166641490Y-78340300D01*
X167317710Y-78340300D01*
X167359191Y-78344385D01*
X167359191Y-78344385D01*
G37*
G36*
X131747385Y-75162175D02*
G01*
X132102443Y-75309245D01*
X132102445Y-75309246D01*
X132421990Y-75522759D01*
X132693741Y-75794510D01*
X132849518Y-76027647D01*
X132907255Y-76114057D01*
X133054325Y-76469115D01*
X133129300Y-76846042D01*
X133129300Y-77230358D01*
X133054325Y-77607285D01*
X132916371Y-77940334D01*
X132907254Y-77962345D01*
X132693741Y-78281890D01*
X132421990Y-78553641D01*
X132102445Y-78767154D01*
X132102444Y-78767155D01*
X132102443Y-78767155D01*
X131747385Y-78914225D01*
X131370458Y-78989200D01*
X130986142Y-78989200D01*
X130609215Y-78914225D01*
X130254157Y-78767155D01*
X130254156Y-78767155D01*
X130254155Y-78767154D01*
X129934610Y-78553641D01*
X129662859Y-78281890D01*
X129449346Y-77962345D01*
X129440229Y-77940334D01*
X129302275Y-77607285D01*
X129227300Y-77230358D01*
X129227300Y-76846042D01*
X129302275Y-76469115D01*
X129449345Y-76114057D01*
X129507082Y-76027647D01*
X129662859Y-75794510D01*
X129934610Y-75522759D01*
X130254155Y-75309246D01*
X130254157Y-75309245D01*
X130609215Y-75162175D01*
X130986142Y-75087200D01*
X131370458Y-75087200D01*
X131747385Y-75162175D01*
X131747385Y-75162175D01*
G37*
G36*
X146328691Y-77913285D02*
G01*
X146362669Y-77923593D01*
X146393990Y-77940334D01*
X146421439Y-77962861D01*
X146443966Y-77990310D01*
X146460707Y-78021631D01*
X146471015Y-78055609D01*
X146475100Y-78097090D01*
X146475100Y-78773310D01*
X146471015Y-78814791D01*
X146460707Y-78848769D01*
X146443966Y-78880090D01*
X146421439Y-78907539D01*
X146393990Y-78930066D01*
X146362669Y-78946807D01*
X146328691Y-78957115D01*
X146287210Y-78961200D01*
X145685990Y-78961200D01*
X145644509Y-78957115D01*
X145610531Y-78946807D01*
X145579210Y-78930066D01*
X145551761Y-78907539D01*
X145529234Y-78880090D01*
X145512493Y-78848769D01*
X145502185Y-78814791D01*
X145498100Y-78773310D01*
X145498100Y-78097090D01*
X145502185Y-78055609D01*
X145512493Y-78021631D01*
X145529234Y-77990310D01*
X145551761Y-77962861D01*
X145579210Y-77940334D01*
X145610531Y-77923593D01*
X145644509Y-77913285D01*
X145685990Y-77909200D01*
X146287210Y-77909200D01*
X146328691Y-77913285D01*
X146328691Y-77913285D01*
G37*
G36*
X144753691Y-77913285D02*
G01*
X144787669Y-77923593D01*
X144818990Y-77940334D01*
X144846439Y-77962861D01*
X144868966Y-77990310D01*
X144885707Y-78021631D01*
X144896015Y-78055609D01*
X144900100Y-78097090D01*
X144900100Y-78773310D01*
X144896015Y-78814791D01*
X144885707Y-78848769D01*
X144868966Y-78880090D01*
X144846439Y-78907539D01*
X144818990Y-78930066D01*
X144787669Y-78946807D01*
X144753691Y-78957115D01*
X144712210Y-78961200D01*
X144110990Y-78961200D01*
X144069509Y-78957115D01*
X144035531Y-78946807D01*
X144004210Y-78930066D01*
X143976761Y-78907539D01*
X143954234Y-78880090D01*
X143937493Y-78848769D01*
X143927185Y-78814791D01*
X143923100Y-78773310D01*
X143923100Y-78097090D01*
X143927185Y-78055609D01*
X143937493Y-78021631D01*
X143954234Y-77990310D01*
X143976761Y-77962861D01*
X144004210Y-77940334D01*
X144035531Y-77923593D01*
X144069509Y-77913285D01*
X144110990Y-77909200D01*
X144712210Y-77909200D01*
X144753691Y-77913285D01*
X144753691Y-77913285D01*
G37*
G36*
X172107151Y-77468785D02*
G01*
X172141129Y-77479093D01*
X172172450Y-77495834D01*
X172199899Y-77518361D01*
X172222426Y-77545810D01*
X172239167Y-77577131D01*
X172249475Y-77611109D01*
X172253560Y-77652590D01*
X172253560Y-78328810D01*
X172249475Y-78370291D01*
X172239167Y-78404269D01*
X172222426Y-78435590D01*
X172199899Y-78463039D01*
X172172450Y-78485566D01*
X172141129Y-78502307D01*
X172107151Y-78512615D01*
X172065670Y-78516700D01*
X171464450Y-78516700D01*
X171422969Y-78512615D01*
X171388991Y-78502307D01*
X171357670Y-78485566D01*
X171330221Y-78463039D01*
X171307694Y-78435590D01*
X171290953Y-78404269D01*
X171280645Y-78370291D01*
X171276560Y-78328810D01*
X171276560Y-77652590D01*
X171280645Y-77611109D01*
X171290953Y-77577131D01*
X171307694Y-77545810D01*
X171330221Y-77518361D01*
X171357670Y-77495834D01*
X171388991Y-77479093D01*
X171422969Y-77468785D01*
X171464450Y-77464700D01*
X172065670Y-77464700D01*
X172107151Y-77468785D01*
X172107151Y-77468785D01*
G37*
G36*
X170532151Y-77468785D02*
G01*
X170566129Y-77479093D01*
X170597450Y-77495834D01*
X170624899Y-77518361D01*
X170647426Y-77545810D01*
X170664167Y-77577131D01*
X170674475Y-77611109D01*
X170678560Y-77652590D01*
X170678560Y-78328810D01*
X170674475Y-78370291D01*
X170664167Y-78404269D01*
X170647426Y-78435590D01*
X170624899Y-78463039D01*
X170597450Y-78485566D01*
X170566129Y-78502307D01*
X170532151Y-78512615D01*
X170490670Y-78516700D01*
X169889450Y-78516700D01*
X169847969Y-78512615D01*
X169813991Y-78502307D01*
X169782670Y-78485566D01*
X169755221Y-78463039D01*
X169732694Y-78435590D01*
X169715953Y-78404269D01*
X169705645Y-78370291D01*
X169701560Y-78328810D01*
X169701560Y-77652590D01*
X169705645Y-77611109D01*
X169715953Y-77577131D01*
X169732694Y-77545810D01*
X169755221Y-77518361D01*
X169782670Y-77495834D01*
X169813991Y-77479093D01*
X169847969Y-77468785D01*
X169889450Y-77464700D01*
X170490670Y-77464700D01*
X170532151Y-77468785D01*
X170532151Y-77468785D01*
G37*
G36*
X177277787Y-75787196D02*
G01*
X177514553Y-75885268D01*
X177514555Y-75885269D01*
X177727639Y-76027647D01*
X177908853Y-76208861D01*
X178042171Y-76408385D01*
X178051232Y-76421947D01*
X178149304Y-76658713D01*
X178199300Y-76910061D01*
X178199300Y-77166339D01*
X178149304Y-77417687D01*
X178067375Y-77615480D01*
X178051231Y-77654455D01*
X177908853Y-77867539D01*
X177727639Y-78048753D01*
X177514555Y-78191131D01*
X177514554Y-78191132D01*
X177514553Y-78191132D01*
X177277787Y-78289204D01*
X177026439Y-78339200D01*
X176770161Y-78339200D01*
X176518813Y-78289204D01*
X176282047Y-78191132D01*
X176282046Y-78191132D01*
X176282045Y-78191131D01*
X176068961Y-78048753D01*
X175887747Y-77867539D01*
X175745369Y-77654455D01*
X175729225Y-77615480D01*
X175647296Y-77417687D01*
X175597300Y-77166339D01*
X175597300Y-76910061D01*
X175647296Y-76658713D01*
X175745368Y-76421947D01*
X175754430Y-76408385D01*
X175887747Y-76208861D01*
X176068961Y-76027647D01*
X176282045Y-75885269D01*
X176282047Y-75885268D01*
X176518813Y-75787196D01*
X176770161Y-75737200D01*
X177026439Y-75737200D01*
X177277787Y-75787196D01*
X177277787Y-75787196D01*
G37*
G36*
X160498743Y-74873719D02*
G01*
X160564927Y-74880237D01*
X160734766Y-74931757D01*
X160891291Y-75015422D01*
X160927029Y-75044752D01*
X161028486Y-75128014D01*
X161111748Y-75229471D01*
X161141078Y-75265209D01*
X161224743Y-75421734D01*
X161276263Y-75591573D01*
X161293659Y-75768200D01*
X161276263Y-75944827D01*
X161224743Y-76114666D01*
X161141078Y-76271191D01*
X161111748Y-76306929D01*
X161028486Y-76408386D01*
X160954486Y-76469115D01*
X160891291Y-76520978D01*
X160734766Y-76604643D01*
X160564927Y-76656163D01*
X160498742Y-76662682D01*
X160432560Y-76669200D01*
X160344040Y-76669200D01*
X160277858Y-76662682D01*
X160211673Y-76656163D01*
X160041834Y-76604643D01*
X159885309Y-76520978D01*
X159822114Y-76469115D01*
X159748114Y-76408386D01*
X159664852Y-76306929D01*
X159635522Y-76271191D01*
X159551857Y-76114666D01*
X159500337Y-75944827D01*
X159482941Y-75768200D01*
X159500337Y-75591573D01*
X159551857Y-75421734D01*
X159635522Y-75265209D01*
X159664852Y-75229471D01*
X159748114Y-75128014D01*
X159849571Y-75044752D01*
X159885309Y-75015422D01*
X160041834Y-74931757D01*
X160211673Y-74880237D01*
X160277857Y-74873719D01*
X160344040Y-74867200D01*
X160432560Y-74867200D01*
X160498743Y-74873719D01*
X160498743Y-74873719D01*
G37*
G36*
X146049300Y-76669200D02*
G01*
X144247300Y-76669200D01*
X144247300Y-74867200D01*
X146049300Y-74867200D01*
X146049300Y-76669200D01*
X146049300Y-76669200D01*
G37*
G36*
X147798743Y-74873719D02*
G01*
X147864927Y-74880237D01*
X148034766Y-74931757D01*
X148191291Y-75015422D01*
X148227029Y-75044752D01*
X148328486Y-75128014D01*
X148411748Y-75229471D01*
X148441078Y-75265209D01*
X148524743Y-75421734D01*
X148576263Y-75591573D01*
X148593659Y-75768200D01*
X148576263Y-75944827D01*
X148524743Y-76114666D01*
X148441078Y-76271191D01*
X148411748Y-76306929D01*
X148328486Y-76408386D01*
X148254486Y-76469115D01*
X148191291Y-76520978D01*
X148034766Y-76604643D01*
X147864927Y-76656163D01*
X147798742Y-76662682D01*
X147732560Y-76669200D01*
X147644040Y-76669200D01*
X147577858Y-76662682D01*
X147511673Y-76656163D01*
X147341834Y-76604643D01*
X147185309Y-76520978D01*
X147122114Y-76469115D01*
X147048114Y-76408386D01*
X146964852Y-76306929D01*
X146935522Y-76271191D01*
X146851857Y-76114666D01*
X146800337Y-75944827D01*
X146782941Y-75768200D01*
X146800337Y-75591573D01*
X146851857Y-75421734D01*
X146935522Y-75265209D01*
X146964852Y-75229471D01*
X147048114Y-75128014D01*
X147149571Y-75044752D01*
X147185309Y-75015422D01*
X147341834Y-74931757D01*
X147511673Y-74880237D01*
X147577857Y-74873719D01*
X147644040Y-74867200D01*
X147732560Y-74867200D01*
X147798743Y-74873719D01*
X147798743Y-74873719D01*
G37*
G36*
X150338743Y-74873719D02*
G01*
X150404927Y-74880237D01*
X150574766Y-74931757D01*
X150731291Y-75015422D01*
X150767029Y-75044752D01*
X150868486Y-75128014D01*
X150951748Y-75229471D01*
X150981078Y-75265209D01*
X151064743Y-75421734D01*
X151116263Y-75591573D01*
X151133659Y-75768200D01*
X151116263Y-75944827D01*
X151064743Y-76114666D01*
X150981078Y-76271191D01*
X150951748Y-76306929D01*
X150868486Y-76408386D01*
X150794486Y-76469115D01*
X150731291Y-76520978D01*
X150574766Y-76604643D01*
X150404927Y-76656163D01*
X150338742Y-76662682D01*
X150272560Y-76669200D01*
X150184040Y-76669200D01*
X150117858Y-76662682D01*
X150051673Y-76656163D01*
X149881834Y-76604643D01*
X149725309Y-76520978D01*
X149662114Y-76469115D01*
X149588114Y-76408386D01*
X149504852Y-76306929D01*
X149475522Y-76271191D01*
X149391857Y-76114666D01*
X149340337Y-75944827D01*
X149322941Y-75768200D01*
X149340337Y-75591573D01*
X149391857Y-75421734D01*
X149475522Y-75265209D01*
X149504852Y-75229471D01*
X149588114Y-75128014D01*
X149689571Y-75044752D01*
X149725309Y-75015422D01*
X149881834Y-74931757D01*
X150051673Y-74880237D01*
X150117857Y-74873719D01*
X150184040Y-74867200D01*
X150272560Y-74867200D01*
X150338743Y-74873719D01*
X150338743Y-74873719D01*
G37*
G36*
X152878743Y-74873719D02*
G01*
X152944927Y-74880237D01*
X153114766Y-74931757D01*
X153271291Y-75015422D01*
X153307029Y-75044752D01*
X153408486Y-75128014D01*
X153491748Y-75229471D01*
X153521078Y-75265209D01*
X153604743Y-75421734D01*
X153656263Y-75591573D01*
X153673659Y-75768200D01*
X153656263Y-75944827D01*
X153604743Y-76114666D01*
X153521078Y-76271191D01*
X153491748Y-76306929D01*
X153408486Y-76408386D01*
X153334486Y-76469115D01*
X153271291Y-76520978D01*
X153114766Y-76604643D01*
X152944927Y-76656163D01*
X152878742Y-76662682D01*
X152812560Y-76669200D01*
X152724040Y-76669200D01*
X152657858Y-76662682D01*
X152591673Y-76656163D01*
X152421834Y-76604643D01*
X152265309Y-76520978D01*
X152202114Y-76469115D01*
X152128114Y-76408386D01*
X152044852Y-76306929D01*
X152015522Y-76271191D01*
X151931857Y-76114666D01*
X151880337Y-75944827D01*
X151862941Y-75768200D01*
X151880337Y-75591573D01*
X151931857Y-75421734D01*
X152015522Y-75265209D01*
X152044852Y-75229471D01*
X152128114Y-75128014D01*
X152229571Y-75044752D01*
X152265309Y-75015422D01*
X152421834Y-74931757D01*
X152591673Y-74880237D01*
X152657857Y-74873719D01*
X152724040Y-74867200D01*
X152812560Y-74867200D01*
X152878743Y-74873719D01*
X152878743Y-74873719D01*
G37*
G36*
X155418743Y-74873719D02*
G01*
X155484927Y-74880237D01*
X155654766Y-74931757D01*
X155811291Y-75015422D01*
X155847029Y-75044752D01*
X155948486Y-75128014D01*
X156031748Y-75229471D01*
X156061078Y-75265209D01*
X156144743Y-75421734D01*
X156196263Y-75591573D01*
X156213659Y-75768200D01*
X156196263Y-75944827D01*
X156144743Y-76114666D01*
X156061078Y-76271191D01*
X156031748Y-76306929D01*
X155948486Y-76408386D01*
X155874486Y-76469115D01*
X155811291Y-76520978D01*
X155654766Y-76604643D01*
X155484927Y-76656163D01*
X155418742Y-76662682D01*
X155352560Y-76669200D01*
X155264040Y-76669200D01*
X155197858Y-76662682D01*
X155131673Y-76656163D01*
X154961834Y-76604643D01*
X154805309Y-76520978D01*
X154742114Y-76469115D01*
X154668114Y-76408386D01*
X154584852Y-76306929D01*
X154555522Y-76271191D01*
X154471857Y-76114666D01*
X154420337Y-75944827D01*
X154402941Y-75768200D01*
X154420337Y-75591573D01*
X154471857Y-75421734D01*
X154555522Y-75265209D01*
X154584852Y-75229471D01*
X154668114Y-75128014D01*
X154769571Y-75044752D01*
X154805309Y-75015422D01*
X154961834Y-74931757D01*
X155131673Y-74880237D01*
X155197857Y-74873719D01*
X155264040Y-74867200D01*
X155352560Y-74867200D01*
X155418743Y-74873719D01*
X155418743Y-74873719D01*
G37*
G36*
X173198743Y-74873719D02*
G01*
X173264927Y-74880237D01*
X173434766Y-74931757D01*
X173591291Y-75015422D01*
X173627029Y-75044752D01*
X173728486Y-75128014D01*
X173811748Y-75229471D01*
X173841078Y-75265209D01*
X173924743Y-75421734D01*
X173976263Y-75591573D01*
X173993659Y-75768200D01*
X173976263Y-75944827D01*
X173924743Y-76114666D01*
X173841078Y-76271191D01*
X173811748Y-76306929D01*
X173728486Y-76408386D01*
X173654486Y-76469115D01*
X173591291Y-76520978D01*
X173434766Y-76604643D01*
X173264927Y-76656163D01*
X173198742Y-76662682D01*
X173132560Y-76669200D01*
X173044040Y-76669200D01*
X172977858Y-76662682D01*
X172911673Y-76656163D01*
X172741834Y-76604643D01*
X172585309Y-76520978D01*
X172522114Y-76469115D01*
X172448114Y-76408386D01*
X172364852Y-76306929D01*
X172335522Y-76271191D01*
X172251857Y-76114666D01*
X172200337Y-75944827D01*
X172182941Y-75768200D01*
X172200337Y-75591573D01*
X172251857Y-75421734D01*
X172335522Y-75265209D01*
X172364852Y-75229471D01*
X172448114Y-75128014D01*
X172549571Y-75044752D01*
X172585309Y-75015422D01*
X172741834Y-74931757D01*
X172911673Y-74880237D01*
X172977857Y-74873719D01*
X173044040Y-74867200D01*
X173132560Y-74867200D01*
X173198743Y-74873719D01*
X173198743Y-74873719D01*
G37*
G36*
X170658743Y-74873719D02*
G01*
X170724927Y-74880237D01*
X170894766Y-74931757D01*
X171051291Y-75015422D01*
X171087029Y-75044752D01*
X171188486Y-75128014D01*
X171271748Y-75229471D01*
X171301078Y-75265209D01*
X171384743Y-75421734D01*
X171436263Y-75591573D01*
X171453659Y-75768200D01*
X171436263Y-75944827D01*
X171384743Y-76114666D01*
X171301078Y-76271191D01*
X171271748Y-76306929D01*
X171188486Y-76408386D01*
X171114486Y-76469115D01*
X171051291Y-76520978D01*
X170894766Y-76604643D01*
X170724927Y-76656163D01*
X170658742Y-76662682D01*
X170592560Y-76669200D01*
X170504040Y-76669200D01*
X170437858Y-76662682D01*
X170371673Y-76656163D01*
X170201834Y-76604643D01*
X170045309Y-76520978D01*
X169982114Y-76469115D01*
X169908114Y-76408386D01*
X169824852Y-76306929D01*
X169795522Y-76271191D01*
X169711857Y-76114666D01*
X169660337Y-75944827D01*
X169642941Y-75768200D01*
X169660337Y-75591573D01*
X169711857Y-75421734D01*
X169795522Y-75265209D01*
X169824852Y-75229471D01*
X169908114Y-75128014D01*
X170009571Y-75044752D01*
X170045309Y-75015422D01*
X170201834Y-74931757D01*
X170371673Y-74880237D01*
X170437857Y-74873719D01*
X170504040Y-74867200D01*
X170592560Y-74867200D01*
X170658743Y-74873719D01*
X170658743Y-74873719D01*
G37*
G36*
X168118743Y-74873719D02*
G01*
X168184927Y-74880237D01*
X168354766Y-74931757D01*
X168511291Y-75015422D01*
X168547029Y-75044752D01*
X168648486Y-75128014D01*
X168731748Y-75229471D01*
X168761078Y-75265209D01*
X168844743Y-75421734D01*
X168896263Y-75591573D01*
X168913659Y-75768200D01*
X168896263Y-75944827D01*
X168844743Y-76114666D01*
X168761078Y-76271191D01*
X168731748Y-76306929D01*
X168648486Y-76408386D01*
X168574486Y-76469115D01*
X168511291Y-76520978D01*
X168354766Y-76604643D01*
X168184927Y-76656163D01*
X168118742Y-76662682D01*
X168052560Y-76669200D01*
X167964040Y-76669200D01*
X167897858Y-76662682D01*
X167831673Y-76656163D01*
X167661834Y-76604643D01*
X167505309Y-76520978D01*
X167442114Y-76469115D01*
X167368114Y-76408386D01*
X167284852Y-76306929D01*
X167255522Y-76271191D01*
X167171857Y-76114666D01*
X167120337Y-75944827D01*
X167102941Y-75768200D01*
X167120337Y-75591573D01*
X167171857Y-75421734D01*
X167255522Y-75265209D01*
X167284852Y-75229471D01*
X167368114Y-75128014D01*
X167469571Y-75044752D01*
X167505309Y-75015422D01*
X167661834Y-74931757D01*
X167831673Y-74880237D01*
X167897857Y-74873719D01*
X167964040Y-74867200D01*
X168052560Y-74867200D01*
X168118743Y-74873719D01*
X168118743Y-74873719D01*
G37*
G36*
X165578743Y-74873719D02*
G01*
X165644927Y-74880237D01*
X165814766Y-74931757D01*
X165971291Y-75015422D01*
X166007029Y-75044752D01*
X166108486Y-75128014D01*
X166191748Y-75229471D01*
X166221078Y-75265209D01*
X166304743Y-75421734D01*
X166356263Y-75591573D01*
X166373659Y-75768200D01*
X166356263Y-75944827D01*
X166304743Y-76114666D01*
X166221078Y-76271191D01*
X166191748Y-76306929D01*
X166108486Y-76408386D01*
X166034486Y-76469115D01*
X165971291Y-76520978D01*
X165814766Y-76604643D01*
X165644927Y-76656163D01*
X165578742Y-76662682D01*
X165512560Y-76669200D01*
X165424040Y-76669200D01*
X165357858Y-76662682D01*
X165291673Y-76656163D01*
X165121834Y-76604643D01*
X164965309Y-76520978D01*
X164902114Y-76469115D01*
X164828114Y-76408386D01*
X164744852Y-76306929D01*
X164715522Y-76271191D01*
X164631857Y-76114666D01*
X164580337Y-75944827D01*
X164562941Y-75768200D01*
X164580337Y-75591573D01*
X164631857Y-75421734D01*
X164715522Y-75265209D01*
X164744852Y-75229471D01*
X164828114Y-75128014D01*
X164929571Y-75044752D01*
X164965309Y-75015422D01*
X165121834Y-74931757D01*
X165291673Y-74880237D01*
X165357857Y-74873719D01*
X165424040Y-74867200D01*
X165512560Y-74867200D01*
X165578743Y-74873719D01*
X165578743Y-74873719D01*
G37*
G36*
X163038743Y-74873719D02*
G01*
X163104927Y-74880237D01*
X163274766Y-74931757D01*
X163431291Y-75015422D01*
X163467029Y-75044752D01*
X163568486Y-75128014D01*
X163651748Y-75229471D01*
X163681078Y-75265209D01*
X163764743Y-75421734D01*
X163816263Y-75591573D01*
X163833659Y-75768200D01*
X163816263Y-75944827D01*
X163764743Y-76114666D01*
X163681078Y-76271191D01*
X163651748Y-76306929D01*
X163568486Y-76408386D01*
X163494486Y-76469115D01*
X163431291Y-76520978D01*
X163274766Y-76604643D01*
X163104927Y-76656163D01*
X163038742Y-76662682D01*
X162972560Y-76669200D01*
X162884040Y-76669200D01*
X162817858Y-76662682D01*
X162751673Y-76656163D01*
X162581834Y-76604643D01*
X162425309Y-76520978D01*
X162362114Y-76469115D01*
X162288114Y-76408386D01*
X162204852Y-76306929D01*
X162175522Y-76271191D01*
X162091857Y-76114666D01*
X162040337Y-75944827D01*
X162022941Y-75768200D01*
X162040337Y-75591573D01*
X162091857Y-75421734D01*
X162175522Y-75265209D01*
X162204852Y-75229471D01*
X162288114Y-75128014D01*
X162389571Y-75044752D01*
X162425309Y-75015422D01*
X162581834Y-74931757D01*
X162751673Y-74880237D01*
X162817857Y-74873719D01*
X162884040Y-74867200D01*
X162972560Y-74867200D01*
X163038743Y-74873719D01*
X163038743Y-74873719D01*
G37*
G36*
X157958743Y-74873719D02*
G01*
X158024927Y-74880237D01*
X158194766Y-74931757D01*
X158351291Y-75015422D01*
X158387029Y-75044752D01*
X158488486Y-75128014D01*
X158571748Y-75229471D01*
X158601078Y-75265209D01*
X158684743Y-75421734D01*
X158736263Y-75591573D01*
X158753659Y-75768200D01*
X158736263Y-75944827D01*
X158684743Y-76114666D01*
X158601078Y-76271191D01*
X158571748Y-76306929D01*
X158488486Y-76408386D01*
X158414486Y-76469115D01*
X158351291Y-76520978D01*
X158194766Y-76604643D01*
X158024927Y-76656163D01*
X157958742Y-76662682D01*
X157892560Y-76669200D01*
X157804040Y-76669200D01*
X157737858Y-76662682D01*
X157671673Y-76656163D01*
X157501834Y-76604643D01*
X157345309Y-76520978D01*
X157282114Y-76469115D01*
X157208114Y-76408386D01*
X157124852Y-76306929D01*
X157095522Y-76271191D01*
X157011857Y-76114666D01*
X156960337Y-75944827D01*
X156942941Y-75768200D01*
X156960337Y-75591573D01*
X157011857Y-75421734D01*
X157095522Y-75265209D01*
X157124852Y-75229471D01*
X157208114Y-75128014D01*
X157309571Y-75044752D01*
X157345309Y-75015422D01*
X157501834Y-74931757D01*
X157671673Y-74880237D01*
X157737857Y-74873719D01*
X157804040Y-74867200D01*
X157892560Y-74867200D01*
X157958743Y-74873719D01*
X157958743Y-74873719D01*
G37*
M02*
