G04 #@! TF.GenerationSoftware,KiCad,Pcbnew,(5.1.4)-1*
G04 #@! TF.CreationDate,2020-01-31T22:29:49-05:00*
G04 #@! TF.ProjectId,Feather-NEO-M9N-GPS,46656174-6865-4722-9d4e-454f2d4d394e,rev?*
G04 #@! TF.SameCoordinates,Original*
G04 #@! TF.FileFunction,Copper,L2,Bot*
G04 #@! TF.FilePolarity,Positive*
%FSLAX46Y46*%
G04 Gerber Fmt 4.6, Leading zero omitted, Abs format (unit mm)*
G04 Created by KiCad (PCBNEW (5.1.4)-1) date 2020-01-31 22:29:49*
%MOMM*%
%LPD*%
G04 APERTURE LIST*
%ADD10C,0.100000*%
%ADD11C,0.500000*%
%ADD12O,1.700000X1.700000*%
%ADD13R,1.700000X1.700000*%
%ADD14R,1.270000X0.635000*%
%ADD15C,3.800000*%
%ADD16C,0.660400*%
%ADD17C,0.609600*%
%ADD18C,0.152400*%
%ADD19C,0.508000*%
%ADD20C,0.381000*%
%ADD21C,0.254000*%
G04 APERTURE END LIST*
D10*
G36*
X167995600Y-78130400D02*
G01*
X167995600Y-78536800D01*
X167741600Y-78536800D01*
X167741600Y-78130400D01*
X167995600Y-78130400D01*
G37*
G36*
X167995600Y-79146400D02*
G01*
X167995600Y-79552800D01*
X167741600Y-79552800D01*
X167741600Y-79146400D01*
X167995600Y-79146400D01*
G37*
G36*
X174046160Y-80572800D02*
G01*
X174046160Y-81072800D01*
X173446160Y-81072800D01*
X173446160Y-80572800D01*
X174046160Y-80572800D01*
G37*
G36*
X176195000Y-80572800D02*
G01*
X176195000Y-81072800D01*
X175595000Y-81072800D01*
X175595000Y-80572800D01*
X176195000Y-80572800D01*
G37*
D11*
X165610300Y-86982300D03*
D10*
G36*
X165610300Y-86232902D02*
G01*
X165634834Y-86232902D01*
X165683665Y-86237712D01*
X165731790Y-86247284D01*
X165778745Y-86261528D01*
X165824078Y-86280305D01*
X165867351Y-86303436D01*
X165908150Y-86330696D01*
X165946079Y-86361824D01*
X165980776Y-86396521D01*
X166011904Y-86434450D01*
X166039164Y-86475249D01*
X166062295Y-86518522D01*
X166081072Y-86563855D01*
X166095316Y-86610810D01*
X166104888Y-86658935D01*
X166109698Y-86707766D01*
X166109698Y-86732300D01*
X166110300Y-86732300D01*
X166110300Y-87232300D01*
X166109698Y-87232300D01*
X166109698Y-87256834D01*
X166104888Y-87305665D01*
X166095316Y-87353790D01*
X166081072Y-87400745D01*
X166062295Y-87446078D01*
X166039164Y-87489351D01*
X166011904Y-87530150D01*
X165980776Y-87568079D01*
X165946079Y-87602776D01*
X165908150Y-87633904D01*
X165867351Y-87661164D01*
X165824078Y-87684295D01*
X165778745Y-87703072D01*
X165731790Y-87717316D01*
X165683665Y-87726888D01*
X165634834Y-87731698D01*
X165610300Y-87731698D01*
X165610300Y-87732300D01*
X165110300Y-87732300D01*
X165110300Y-86232300D01*
X165610300Y-86232300D01*
X165610300Y-86232902D01*
X165610300Y-86232902D01*
G37*
D11*
X164310300Y-86982300D03*
D10*
G36*
X164810300Y-87732300D02*
G01*
X164310300Y-87732300D01*
X164310300Y-87731698D01*
X164285766Y-87731698D01*
X164236935Y-87726888D01*
X164188810Y-87717316D01*
X164141855Y-87703072D01*
X164096522Y-87684295D01*
X164053249Y-87661164D01*
X164012450Y-87633904D01*
X163974521Y-87602776D01*
X163939824Y-87568079D01*
X163908696Y-87530150D01*
X163881436Y-87489351D01*
X163858305Y-87446078D01*
X163839528Y-87400745D01*
X163825284Y-87353790D01*
X163815712Y-87305665D01*
X163810902Y-87256834D01*
X163810902Y-87232300D01*
X163810300Y-87232300D01*
X163810300Y-86732300D01*
X163810902Y-86732300D01*
X163810902Y-86707766D01*
X163815712Y-86658935D01*
X163825284Y-86610810D01*
X163839528Y-86563855D01*
X163858305Y-86518522D01*
X163881436Y-86475249D01*
X163908696Y-86434450D01*
X163939824Y-86396521D01*
X163974521Y-86361824D01*
X164012450Y-86330696D01*
X164053249Y-86303436D01*
X164096522Y-86280305D01*
X164141855Y-86261528D01*
X164188810Y-86247284D01*
X164236935Y-86237712D01*
X164285766Y-86232902D01*
X164310300Y-86232902D01*
X164310300Y-86232300D01*
X164810300Y-86232300D01*
X164810300Y-87732300D01*
X164810300Y-87732300D01*
G37*
D11*
X164122100Y-79237600D03*
D10*
G36*
X164871498Y-79237600D02*
G01*
X164871498Y-79262134D01*
X164866688Y-79310965D01*
X164857116Y-79359090D01*
X164842872Y-79406045D01*
X164824095Y-79451378D01*
X164800964Y-79494651D01*
X164773704Y-79535450D01*
X164742576Y-79573379D01*
X164707879Y-79608076D01*
X164669950Y-79639204D01*
X164629151Y-79666464D01*
X164585878Y-79689595D01*
X164540545Y-79708372D01*
X164493590Y-79722616D01*
X164445465Y-79732188D01*
X164396634Y-79736998D01*
X164372100Y-79736998D01*
X164372100Y-79737600D01*
X163872100Y-79737600D01*
X163872100Y-79736998D01*
X163847566Y-79736998D01*
X163798735Y-79732188D01*
X163750610Y-79722616D01*
X163703655Y-79708372D01*
X163658322Y-79689595D01*
X163615049Y-79666464D01*
X163574250Y-79639204D01*
X163536321Y-79608076D01*
X163501624Y-79573379D01*
X163470496Y-79535450D01*
X163443236Y-79494651D01*
X163420105Y-79451378D01*
X163401328Y-79406045D01*
X163387084Y-79359090D01*
X163377512Y-79310965D01*
X163372702Y-79262134D01*
X163372702Y-79237600D01*
X163372100Y-79237600D01*
X163372100Y-78737600D01*
X164872100Y-78737600D01*
X164872100Y-79237600D01*
X164871498Y-79237600D01*
X164871498Y-79237600D01*
G37*
D11*
X164122100Y-77937600D03*
D10*
G36*
X163372100Y-78437600D02*
G01*
X163372100Y-77937600D01*
X163372702Y-77937600D01*
X163372702Y-77913066D01*
X163377512Y-77864235D01*
X163387084Y-77816110D01*
X163401328Y-77769155D01*
X163420105Y-77723822D01*
X163443236Y-77680549D01*
X163470496Y-77639750D01*
X163501624Y-77601821D01*
X163536321Y-77567124D01*
X163574250Y-77535996D01*
X163615049Y-77508736D01*
X163658322Y-77485605D01*
X163703655Y-77466828D01*
X163750610Y-77452584D01*
X163798735Y-77443012D01*
X163847566Y-77438202D01*
X163872100Y-77438202D01*
X163872100Y-77437600D01*
X164372100Y-77437600D01*
X164372100Y-77438202D01*
X164396634Y-77438202D01*
X164445465Y-77443012D01*
X164493590Y-77452584D01*
X164540545Y-77466828D01*
X164585878Y-77485605D01*
X164629151Y-77508736D01*
X164669950Y-77535996D01*
X164707879Y-77567124D01*
X164742576Y-77601821D01*
X164773704Y-77639750D01*
X164800964Y-77680549D01*
X164824095Y-77723822D01*
X164842872Y-77769155D01*
X164857116Y-77816110D01*
X164866688Y-77864235D01*
X164871498Y-77913066D01*
X164871498Y-77937600D01*
X164872100Y-77937600D01*
X164872100Y-78437600D01*
X163372100Y-78437600D01*
X163372100Y-78437600D01*
G37*
D11*
X143395700Y-80228200D03*
D10*
G36*
X144145098Y-80228200D02*
G01*
X144145098Y-80252734D01*
X144140288Y-80301565D01*
X144130716Y-80349690D01*
X144116472Y-80396645D01*
X144097695Y-80441978D01*
X144074564Y-80485251D01*
X144047304Y-80526050D01*
X144016176Y-80563979D01*
X143981479Y-80598676D01*
X143943550Y-80629804D01*
X143902751Y-80657064D01*
X143859478Y-80680195D01*
X143814145Y-80698972D01*
X143767190Y-80713216D01*
X143719065Y-80722788D01*
X143670234Y-80727598D01*
X143645700Y-80727598D01*
X143645700Y-80728200D01*
X143145700Y-80728200D01*
X143145700Y-80727598D01*
X143121166Y-80727598D01*
X143072335Y-80722788D01*
X143024210Y-80713216D01*
X142977255Y-80698972D01*
X142931922Y-80680195D01*
X142888649Y-80657064D01*
X142847850Y-80629804D01*
X142809921Y-80598676D01*
X142775224Y-80563979D01*
X142744096Y-80526050D01*
X142716836Y-80485251D01*
X142693705Y-80441978D01*
X142674928Y-80396645D01*
X142660684Y-80349690D01*
X142651112Y-80301565D01*
X142646302Y-80252734D01*
X142646302Y-80228200D01*
X142645700Y-80228200D01*
X142645700Y-79728200D01*
X144145700Y-79728200D01*
X144145700Y-80228200D01*
X144145098Y-80228200D01*
X144145098Y-80228200D01*
G37*
D11*
X143395700Y-78928200D03*
D10*
G36*
X142645700Y-79428200D02*
G01*
X142645700Y-78928200D01*
X142646302Y-78928200D01*
X142646302Y-78903666D01*
X142651112Y-78854835D01*
X142660684Y-78806710D01*
X142674928Y-78759755D01*
X142693705Y-78714422D01*
X142716836Y-78671149D01*
X142744096Y-78630350D01*
X142775224Y-78592421D01*
X142809921Y-78557724D01*
X142847850Y-78526596D01*
X142888649Y-78499336D01*
X142931922Y-78476205D01*
X142977255Y-78457428D01*
X143024210Y-78443184D01*
X143072335Y-78433612D01*
X143121166Y-78428802D01*
X143145700Y-78428802D01*
X143145700Y-78428200D01*
X143645700Y-78428200D01*
X143645700Y-78428802D01*
X143670234Y-78428802D01*
X143719065Y-78433612D01*
X143767190Y-78443184D01*
X143814145Y-78457428D01*
X143859478Y-78476205D01*
X143902751Y-78499336D01*
X143943550Y-78526596D01*
X143981479Y-78557724D01*
X144016176Y-78592421D01*
X144047304Y-78630350D01*
X144074564Y-78671149D01*
X144097695Y-78714422D01*
X144116472Y-78759755D01*
X144130716Y-78806710D01*
X144140288Y-78854835D01*
X144145098Y-78903666D01*
X144145098Y-78928200D01*
X144145700Y-78928200D01*
X144145700Y-79428200D01*
X142645700Y-79428200D01*
X142645700Y-79428200D01*
G37*
D11*
X169633900Y-90070700D03*
D10*
G36*
X170383298Y-90070700D02*
G01*
X170383298Y-90095234D01*
X170378488Y-90144065D01*
X170368916Y-90192190D01*
X170354672Y-90239145D01*
X170335895Y-90284478D01*
X170312764Y-90327751D01*
X170285504Y-90368550D01*
X170254376Y-90406479D01*
X170219679Y-90441176D01*
X170181750Y-90472304D01*
X170140951Y-90499564D01*
X170097678Y-90522695D01*
X170052345Y-90541472D01*
X170005390Y-90555716D01*
X169957265Y-90565288D01*
X169908434Y-90570098D01*
X169883900Y-90570098D01*
X169883900Y-90570700D01*
X169383900Y-90570700D01*
X169383900Y-90570098D01*
X169359366Y-90570098D01*
X169310535Y-90565288D01*
X169262410Y-90555716D01*
X169215455Y-90541472D01*
X169170122Y-90522695D01*
X169126849Y-90499564D01*
X169086050Y-90472304D01*
X169048121Y-90441176D01*
X169013424Y-90406479D01*
X168982296Y-90368550D01*
X168955036Y-90327751D01*
X168931905Y-90284478D01*
X168913128Y-90239145D01*
X168898884Y-90192190D01*
X168889312Y-90144065D01*
X168884502Y-90095234D01*
X168884502Y-90070700D01*
X168883900Y-90070700D01*
X168883900Y-89570700D01*
X170383900Y-89570700D01*
X170383900Y-90070700D01*
X170383298Y-90070700D01*
X170383298Y-90070700D01*
G37*
D11*
X169633900Y-88770700D03*
D10*
G36*
X168883900Y-89270700D02*
G01*
X168883900Y-88770700D01*
X168884502Y-88770700D01*
X168884502Y-88746166D01*
X168889312Y-88697335D01*
X168898884Y-88649210D01*
X168913128Y-88602255D01*
X168931905Y-88556922D01*
X168955036Y-88513649D01*
X168982296Y-88472850D01*
X169013424Y-88434921D01*
X169048121Y-88400224D01*
X169086050Y-88369096D01*
X169126849Y-88341836D01*
X169170122Y-88318705D01*
X169215455Y-88299928D01*
X169262410Y-88285684D01*
X169310535Y-88276112D01*
X169359366Y-88271302D01*
X169383900Y-88271302D01*
X169383900Y-88270700D01*
X169883900Y-88270700D01*
X169883900Y-88271302D01*
X169908434Y-88271302D01*
X169957265Y-88276112D01*
X170005390Y-88285684D01*
X170052345Y-88299928D01*
X170097678Y-88318705D01*
X170140951Y-88341836D01*
X170181750Y-88369096D01*
X170219679Y-88400224D01*
X170254376Y-88434921D01*
X170285504Y-88472850D01*
X170312764Y-88513649D01*
X170335895Y-88556922D01*
X170354672Y-88602255D01*
X170368916Y-88649210D01*
X170378488Y-88697335D01*
X170383298Y-88746166D01*
X170383298Y-88770700D01*
X170383900Y-88770700D01*
X170383900Y-89270700D01*
X168883900Y-89270700D01*
X168883900Y-89270700D01*
G37*
D11*
X167373300Y-88770700D03*
D10*
G36*
X166623902Y-88770700D02*
G01*
X166623902Y-88746166D01*
X166628712Y-88697335D01*
X166638284Y-88649210D01*
X166652528Y-88602255D01*
X166671305Y-88556922D01*
X166694436Y-88513649D01*
X166721696Y-88472850D01*
X166752824Y-88434921D01*
X166787521Y-88400224D01*
X166825450Y-88369096D01*
X166866249Y-88341836D01*
X166909522Y-88318705D01*
X166954855Y-88299928D01*
X167001810Y-88285684D01*
X167049935Y-88276112D01*
X167098766Y-88271302D01*
X167123300Y-88271302D01*
X167123300Y-88270700D01*
X167623300Y-88270700D01*
X167623300Y-88271302D01*
X167647834Y-88271302D01*
X167696665Y-88276112D01*
X167744790Y-88285684D01*
X167791745Y-88299928D01*
X167837078Y-88318705D01*
X167880351Y-88341836D01*
X167921150Y-88369096D01*
X167959079Y-88400224D01*
X167993776Y-88434921D01*
X168024904Y-88472850D01*
X168052164Y-88513649D01*
X168075295Y-88556922D01*
X168094072Y-88602255D01*
X168108316Y-88649210D01*
X168117888Y-88697335D01*
X168122698Y-88746166D01*
X168122698Y-88770700D01*
X168123300Y-88770700D01*
X168123300Y-89270700D01*
X166623300Y-89270700D01*
X166623300Y-88770700D01*
X166623902Y-88770700D01*
X166623902Y-88770700D01*
G37*
D11*
X167373300Y-90070700D03*
D10*
G36*
X168123300Y-89570700D02*
G01*
X168123300Y-90070700D01*
X168122698Y-90070700D01*
X168122698Y-90095234D01*
X168117888Y-90144065D01*
X168108316Y-90192190D01*
X168094072Y-90239145D01*
X168075295Y-90284478D01*
X168052164Y-90327751D01*
X168024904Y-90368550D01*
X167993776Y-90406479D01*
X167959079Y-90441176D01*
X167921150Y-90472304D01*
X167880351Y-90499564D01*
X167837078Y-90522695D01*
X167791745Y-90541472D01*
X167744790Y-90555716D01*
X167696665Y-90565288D01*
X167647834Y-90570098D01*
X167623300Y-90570098D01*
X167623300Y-90570700D01*
X167123300Y-90570700D01*
X167123300Y-90570098D01*
X167098766Y-90570098D01*
X167049935Y-90565288D01*
X167001810Y-90555716D01*
X166954855Y-90541472D01*
X166909522Y-90522695D01*
X166866249Y-90499564D01*
X166825450Y-90472304D01*
X166787521Y-90441176D01*
X166752824Y-90406479D01*
X166721696Y-90368550D01*
X166694436Y-90327751D01*
X166671305Y-90284478D01*
X166652528Y-90239145D01*
X166638284Y-90192190D01*
X166628712Y-90144065D01*
X166623902Y-90095234D01*
X166623902Y-90070700D01*
X166623300Y-90070700D01*
X166623300Y-89570700D01*
X168123300Y-89570700D01*
X168123300Y-89570700D01*
G37*
D12*
X173088300Y-75768200D03*
X170548300Y-75768200D03*
X168008300Y-75768200D03*
X165468300Y-75768200D03*
X162928300Y-75768200D03*
X160388300Y-75768200D03*
X157848300Y-75768200D03*
X155308300Y-75768200D03*
X152768300Y-75768200D03*
X150228300Y-75768200D03*
X147688300Y-75768200D03*
D13*
X145148300Y-75768200D03*
D12*
X173088300Y-96088200D03*
X170548300Y-96088200D03*
X168008300Y-96088200D03*
X165468300Y-96088200D03*
X162928300Y-96088200D03*
X160388300Y-96088200D03*
X157848300Y-96088200D03*
X155308300Y-96088200D03*
X152768300Y-96088200D03*
X150228300Y-96088200D03*
X147688300Y-96088200D03*
X145148300Y-96088200D03*
X142608300Y-96088200D03*
X140068300Y-96088200D03*
X137528300Y-96088200D03*
D13*
X134988300Y-96088200D03*
D11*
X138432300Y-82626200D03*
D10*
G36*
X138432300Y-81876802D02*
G01*
X138456834Y-81876802D01*
X138505665Y-81881612D01*
X138553790Y-81891184D01*
X138600745Y-81905428D01*
X138646078Y-81924205D01*
X138689351Y-81947336D01*
X138730150Y-81974596D01*
X138768079Y-82005724D01*
X138802776Y-82040421D01*
X138833904Y-82078350D01*
X138861164Y-82119149D01*
X138884295Y-82162422D01*
X138903072Y-82207755D01*
X138917316Y-82254710D01*
X138926888Y-82302835D01*
X138931698Y-82351666D01*
X138931698Y-82376200D01*
X138932300Y-82376200D01*
X138932300Y-82876200D01*
X138931698Y-82876200D01*
X138931698Y-82900734D01*
X138926888Y-82949565D01*
X138917316Y-82997690D01*
X138903072Y-83044645D01*
X138884295Y-83089978D01*
X138861164Y-83133251D01*
X138833904Y-83174050D01*
X138802776Y-83211979D01*
X138768079Y-83246676D01*
X138730150Y-83277804D01*
X138689351Y-83305064D01*
X138646078Y-83328195D01*
X138600745Y-83346972D01*
X138553790Y-83361216D01*
X138505665Y-83370788D01*
X138456834Y-83375598D01*
X138432300Y-83375598D01*
X138432300Y-83376200D01*
X137932300Y-83376200D01*
X137932300Y-81876200D01*
X138432300Y-81876200D01*
X138432300Y-81876802D01*
X138432300Y-81876802D01*
G37*
D11*
X137132300Y-82626200D03*
D10*
G36*
X137632300Y-83376200D02*
G01*
X137132300Y-83376200D01*
X137132300Y-83375598D01*
X137107766Y-83375598D01*
X137058935Y-83370788D01*
X137010810Y-83361216D01*
X136963855Y-83346972D01*
X136918522Y-83328195D01*
X136875249Y-83305064D01*
X136834450Y-83277804D01*
X136796521Y-83246676D01*
X136761824Y-83211979D01*
X136730696Y-83174050D01*
X136703436Y-83133251D01*
X136680305Y-83089978D01*
X136661528Y-83044645D01*
X136647284Y-82997690D01*
X136637712Y-82949565D01*
X136632902Y-82900734D01*
X136632902Y-82876200D01*
X136632300Y-82876200D01*
X136632300Y-82376200D01*
X136632902Y-82376200D01*
X136632902Y-82351666D01*
X136637712Y-82302835D01*
X136647284Y-82254710D01*
X136661528Y-82207755D01*
X136680305Y-82162422D01*
X136703436Y-82119149D01*
X136730696Y-82078350D01*
X136761824Y-82040421D01*
X136796521Y-82005724D01*
X136834450Y-81974596D01*
X136875249Y-81947336D01*
X136918522Y-81924205D01*
X136963855Y-81905428D01*
X137010810Y-81891184D01*
X137058935Y-81881612D01*
X137107766Y-81876802D01*
X137132300Y-81876802D01*
X137132300Y-81876200D01*
X137632300Y-81876200D01*
X137632300Y-83376200D01*
X137632300Y-83376200D01*
G37*
D14*
X167868600Y-79857600D03*
X167868600Y-78841600D03*
X167868600Y-77825600D03*
D11*
X138366500Y-80454500D03*
D10*
G36*
X138366500Y-79705102D02*
G01*
X138391034Y-79705102D01*
X138439865Y-79709912D01*
X138487990Y-79719484D01*
X138534945Y-79733728D01*
X138580278Y-79752505D01*
X138623551Y-79775636D01*
X138664350Y-79802896D01*
X138702279Y-79834024D01*
X138736976Y-79868721D01*
X138768104Y-79906650D01*
X138795364Y-79947449D01*
X138818495Y-79990722D01*
X138837272Y-80036055D01*
X138851516Y-80083010D01*
X138861088Y-80131135D01*
X138865898Y-80179966D01*
X138865898Y-80204500D01*
X138866500Y-80204500D01*
X138866500Y-80704500D01*
X138865898Y-80704500D01*
X138865898Y-80729034D01*
X138861088Y-80777865D01*
X138851516Y-80825990D01*
X138837272Y-80872945D01*
X138818495Y-80918278D01*
X138795364Y-80961551D01*
X138768104Y-81002350D01*
X138736976Y-81040279D01*
X138702279Y-81074976D01*
X138664350Y-81106104D01*
X138623551Y-81133364D01*
X138580278Y-81156495D01*
X138534945Y-81175272D01*
X138487990Y-81189516D01*
X138439865Y-81199088D01*
X138391034Y-81203898D01*
X138366500Y-81203898D01*
X138366500Y-81204500D01*
X137866500Y-81204500D01*
X137866500Y-79704500D01*
X138366500Y-79704500D01*
X138366500Y-79705102D01*
X138366500Y-79705102D01*
G37*
D11*
X137066500Y-80454500D03*
D10*
G36*
X137566500Y-81204500D02*
G01*
X137066500Y-81204500D01*
X137066500Y-81203898D01*
X137041966Y-81203898D01*
X136993135Y-81199088D01*
X136945010Y-81189516D01*
X136898055Y-81175272D01*
X136852722Y-81156495D01*
X136809449Y-81133364D01*
X136768650Y-81106104D01*
X136730721Y-81074976D01*
X136696024Y-81040279D01*
X136664896Y-81002350D01*
X136637636Y-80961551D01*
X136614505Y-80918278D01*
X136595728Y-80872945D01*
X136581484Y-80825990D01*
X136571912Y-80777865D01*
X136567102Y-80729034D01*
X136567102Y-80704500D01*
X136566500Y-80704500D01*
X136566500Y-80204500D01*
X136567102Y-80204500D01*
X136567102Y-80179966D01*
X136571912Y-80131135D01*
X136581484Y-80083010D01*
X136595728Y-80036055D01*
X136614505Y-79990722D01*
X136637636Y-79947449D01*
X136664896Y-79906650D01*
X136696024Y-79868721D01*
X136730721Y-79834024D01*
X136768650Y-79802896D01*
X136809449Y-79775636D01*
X136852722Y-79752505D01*
X136898055Y-79733728D01*
X136945010Y-79719484D01*
X136993135Y-79709912D01*
X137041966Y-79705102D01*
X137066500Y-79705102D01*
X137066500Y-79704500D01*
X137566500Y-79704500D01*
X137566500Y-81204500D01*
X137566500Y-81204500D01*
G37*
D11*
X138495800Y-78320900D03*
D10*
G36*
X138495800Y-77571502D02*
G01*
X138520334Y-77571502D01*
X138569165Y-77576312D01*
X138617290Y-77585884D01*
X138664245Y-77600128D01*
X138709578Y-77618905D01*
X138752851Y-77642036D01*
X138793650Y-77669296D01*
X138831579Y-77700424D01*
X138866276Y-77735121D01*
X138897404Y-77773050D01*
X138924664Y-77813849D01*
X138947795Y-77857122D01*
X138966572Y-77902455D01*
X138980816Y-77949410D01*
X138990388Y-77997535D01*
X138995198Y-78046366D01*
X138995198Y-78070900D01*
X138995800Y-78070900D01*
X138995800Y-78570900D01*
X138995198Y-78570900D01*
X138995198Y-78595434D01*
X138990388Y-78644265D01*
X138980816Y-78692390D01*
X138966572Y-78739345D01*
X138947795Y-78784678D01*
X138924664Y-78827951D01*
X138897404Y-78868750D01*
X138866276Y-78906679D01*
X138831579Y-78941376D01*
X138793650Y-78972504D01*
X138752851Y-78999764D01*
X138709578Y-79022895D01*
X138664245Y-79041672D01*
X138617290Y-79055916D01*
X138569165Y-79065488D01*
X138520334Y-79070298D01*
X138495800Y-79070298D01*
X138495800Y-79070900D01*
X137995800Y-79070900D01*
X137995800Y-77570900D01*
X138495800Y-77570900D01*
X138495800Y-77571502D01*
X138495800Y-77571502D01*
G37*
D11*
X137195800Y-78320900D03*
D10*
G36*
X137695800Y-79070900D02*
G01*
X137195800Y-79070900D01*
X137195800Y-79070298D01*
X137171266Y-79070298D01*
X137122435Y-79065488D01*
X137074310Y-79055916D01*
X137027355Y-79041672D01*
X136982022Y-79022895D01*
X136938749Y-78999764D01*
X136897950Y-78972504D01*
X136860021Y-78941376D01*
X136825324Y-78906679D01*
X136794196Y-78868750D01*
X136766936Y-78827951D01*
X136743805Y-78784678D01*
X136725028Y-78739345D01*
X136710784Y-78692390D01*
X136701212Y-78644265D01*
X136696402Y-78595434D01*
X136696402Y-78570900D01*
X136695800Y-78570900D01*
X136695800Y-78070900D01*
X136696402Y-78070900D01*
X136696402Y-78046366D01*
X136701212Y-77997535D01*
X136710784Y-77949410D01*
X136725028Y-77902455D01*
X136743805Y-77857122D01*
X136766936Y-77813849D01*
X136794196Y-77773050D01*
X136825324Y-77735121D01*
X136860021Y-77700424D01*
X136897950Y-77669296D01*
X136938749Y-77642036D01*
X136982022Y-77618905D01*
X137027355Y-77600128D01*
X137074310Y-77585884D01*
X137122435Y-77576312D01*
X137171266Y-77571502D01*
X137195800Y-77571502D01*
X137195800Y-77570900D01*
X137695800Y-77570900D01*
X137695800Y-79070900D01*
X137695800Y-79070900D01*
G37*
D11*
X138330700Y-76085700D03*
D10*
G36*
X138330700Y-75336302D02*
G01*
X138355234Y-75336302D01*
X138404065Y-75341112D01*
X138452190Y-75350684D01*
X138499145Y-75364928D01*
X138544478Y-75383705D01*
X138587751Y-75406836D01*
X138628550Y-75434096D01*
X138666479Y-75465224D01*
X138701176Y-75499921D01*
X138732304Y-75537850D01*
X138759564Y-75578649D01*
X138782695Y-75621922D01*
X138801472Y-75667255D01*
X138815716Y-75714210D01*
X138825288Y-75762335D01*
X138830098Y-75811166D01*
X138830098Y-75835700D01*
X138830700Y-75835700D01*
X138830700Y-76335700D01*
X138830098Y-76335700D01*
X138830098Y-76360234D01*
X138825288Y-76409065D01*
X138815716Y-76457190D01*
X138801472Y-76504145D01*
X138782695Y-76549478D01*
X138759564Y-76592751D01*
X138732304Y-76633550D01*
X138701176Y-76671479D01*
X138666479Y-76706176D01*
X138628550Y-76737304D01*
X138587751Y-76764564D01*
X138544478Y-76787695D01*
X138499145Y-76806472D01*
X138452190Y-76820716D01*
X138404065Y-76830288D01*
X138355234Y-76835098D01*
X138330700Y-76835098D01*
X138330700Y-76835700D01*
X137830700Y-76835700D01*
X137830700Y-75335700D01*
X138330700Y-75335700D01*
X138330700Y-75336302D01*
X138330700Y-75336302D01*
G37*
D11*
X137030700Y-76085700D03*
D10*
G36*
X137530700Y-76835700D02*
G01*
X137030700Y-76835700D01*
X137030700Y-76835098D01*
X137006166Y-76835098D01*
X136957335Y-76830288D01*
X136909210Y-76820716D01*
X136862255Y-76806472D01*
X136816922Y-76787695D01*
X136773649Y-76764564D01*
X136732850Y-76737304D01*
X136694921Y-76706176D01*
X136660224Y-76671479D01*
X136629096Y-76633550D01*
X136601836Y-76592751D01*
X136578705Y-76549478D01*
X136559928Y-76504145D01*
X136545684Y-76457190D01*
X136536112Y-76409065D01*
X136531302Y-76360234D01*
X136531302Y-76335700D01*
X136530700Y-76335700D01*
X136530700Y-75835700D01*
X136531302Y-75835700D01*
X136531302Y-75811166D01*
X136536112Y-75762335D01*
X136545684Y-75714210D01*
X136559928Y-75667255D01*
X136578705Y-75621922D01*
X136601836Y-75578649D01*
X136629096Y-75537850D01*
X136660224Y-75499921D01*
X136694921Y-75465224D01*
X136732850Y-75434096D01*
X136773649Y-75406836D01*
X136816922Y-75383705D01*
X136862255Y-75364928D01*
X136909210Y-75350684D01*
X136957335Y-75341112D01*
X137006166Y-75336302D01*
X137030700Y-75336302D01*
X137030700Y-75335700D01*
X137530700Y-75335700D01*
X137530700Y-76835700D01*
X137530700Y-76835700D01*
G37*
D11*
X167835580Y-92644200D03*
D10*
G36*
X167086182Y-92644200D02*
G01*
X167086182Y-92619666D01*
X167090992Y-92570835D01*
X167100564Y-92522710D01*
X167114808Y-92475755D01*
X167133585Y-92430422D01*
X167156716Y-92387149D01*
X167183976Y-92346350D01*
X167215104Y-92308421D01*
X167249801Y-92273724D01*
X167287730Y-92242596D01*
X167328529Y-92215336D01*
X167371802Y-92192205D01*
X167417135Y-92173428D01*
X167464090Y-92159184D01*
X167512215Y-92149612D01*
X167561046Y-92144802D01*
X167585580Y-92144802D01*
X167585580Y-92144200D01*
X168085580Y-92144200D01*
X168085580Y-92144802D01*
X168110114Y-92144802D01*
X168158945Y-92149612D01*
X168207070Y-92159184D01*
X168254025Y-92173428D01*
X168299358Y-92192205D01*
X168342631Y-92215336D01*
X168383430Y-92242596D01*
X168421359Y-92273724D01*
X168456056Y-92308421D01*
X168487184Y-92346350D01*
X168514444Y-92387149D01*
X168537575Y-92430422D01*
X168556352Y-92475755D01*
X168570596Y-92522710D01*
X168580168Y-92570835D01*
X168584978Y-92619666D01*
X168584978Y-92644200D01*
X168585580Y-92644200D01*
X168585580Y-93144200D01*
X167085580Y-93144200D01*
X167085580Y-92644200D01*
X167086182Y-92644200D01*
X167086182Y-92644200D01*
G37*
D11*
X167835580Y-93944200D03*
D10*
G36*
X168585580Y-93444200D02*
G01*
X168585580Y-93944200D01*
X168584978Y-93944200D01*
X168584978Y-93968734D01*
X168580168Y-94017565D01*
X168570596Y-94065690D01*
X168556352Y-94112645D01*
X168537575Y-94157978D01*
X168514444Y-94201251D01*
X168487184Y-94242050D01*
X168456056Y-94279979D01*
X168421359Y-94314676D01*
X168383430Y-94345804D01*
X168342631Y-94373064D01*
X168299358Y-94396195D01*
X168254025Y-94414972D01*
X168207070Y-94429216D01*
X168158945Y-94438788D01*
X168110114Y-94443598D01*
X168085580Y-94443598D01*
X168085580Y-94444200D01*
X167585580Y-94444200D01*
X167585580Y-94443598D01*
X167561046Y-94443598D01*
X167512215Y-94438788D01*
X167464090Y-94429216D01*
X167417135Y-94414972D01*
X167371802Y-94396195D01*
X167328529Y-94373064D01*
X167287730Y-94345804D01*
X167249801Y-94314676D01*
X167215104Y-94279979D01*
X167183976Y-94242050D01*
X167156716Y-94201251D01*
X167133585Y-94157978D01*
X167114808Y-94112645D01*
X167100564Y-94065690D01*
X167090992Y-94017565D01*
X167086182Y-93968734D01*
X167086182Y-93944200D01*
X167085580Y-93944200D01*
X167085580Y-93444200D01*
X168585580Y-93444200D01*
X168585580Y-93444200D01*
G37*
D11*
X170055540Y-93949280D03*
D10*
G36*
X170804938Y-93949280D02*
G01*
X170804938Y-93973814D01*
X170800128Y-94022645D01*
X170790556Y-94070770D01*
X170776312Y-94117725D01*
X170757535Y-94163058D01*
X170734404Y-94206331D01*
X170707144Y-94247130D01*
X170676016Y-94285059D01*
X170641319Y-94319756D01*
X170603390Y-94350884D01*
X170562591Y-94378144D01*
X170519318Y-94401275D01*
X170473985Y-94420052D01*
X170427030Y-94434296D01*
X170378905Y-94443868D01*
X170330074Y-94448678D01*
X170305540Y-94448678D01*
X170305540Y-94449280D01*
X169805540Y-94449280D01*
X169805540Y-94448678D01*
X169781006Y-94448678D01*
X169732175Y-94443868D01*
X169684050Y-94434296D01*
X169637095Y-94420052D01*
X169591762Y-94401275D01*
X169548489Y-94378144D01*
X169507690Y-94350884D01*
X169469761Y-94319756D01*
X169435064Y-94285059D01*
X169403936Y-94247130D01*
X169376676Y-94206331D01*
X169353545Y-94163058D01*
X169334768Y-94117725D01*
X169320524Y-94070770D01*
X169310952Y-94022645D01*
X169306142Y-93973814D01*
X169306142Y-93949280D01*
X169305540Y-93949280D01*
X169305540Y-93449280D01*
X170805540Y-93449280D01*
X170805540Y-93949280D01*
X170804938Y-93949280D01*
X170804938Y-93949280D01*
G37*
D11*
X170055540Y-92649280D03*
D10*
G36*
X169305540Y-93149280D02*
G01*
X169305540Y-92649280D01*
X169306142Y-92649280D01*
X169306142Y-92624746D01*
X169310952Y-92575915D01*
X169320524Y-92527790D01*
X169334768Y-92480835D01*
X169353545Y-92435502D01*
X169376676Y-92392229D01*
X169403936Y-92351430D01*
X169435064Y-92313501D01*
X169469761Y-92278804D01*
X169507690Y-92247676D01*
X169548489Y-92220416D01*
X169591762Y-92197285D01*
X169637095Y-92178508D01*
X169684050Y-92164264D01*
X169732175Y-92154692D01*
X169781006Y-92149882D01*
X169805540Y-92149882D01*
X169805540Y-92149280D01*
X170305540Y-92149280D01*
X170305540Y-92149882D01*
X170330074Y-92149882D01*
X170378905Y-92154692D01*
X170427030Y-92164264D01*
X170473985Y-92178508D01*
X170519318Y-92197285D01*
X170562591Y-92220416D01*
X170603390Y-92247676D01*
X170641319Y-92278804D01*
X170676016Y-92313501D01*
X170707144Y-92351430D01*
X170734404Y-92392229D01*
X170757535Y-92435502D01*
X170776312Y-92480835D01*
X170790556Y-92527790D01*
X170800128Y-92575915D01*
X170804938Y-92624746D01*
X170804938Y-92649280D01*
X170805540Y-92649280D01*
X170805540Y-93149280D01*
X169305540Y-93149280D01*
X169305540Y-93149280D01*
G37*
D11*
X173746160Y-81472800D03*
D10*
G36*
X174496160Y-80972800D02*
G01*
X174496160Y-81472800D01*
X174495558Y-81472800D01*
X174495558Y-81497334D01*
X174490748Y-81546165D01*
X174481176Y-81594290D01*
X174466932Y-81641245D01*
X174448155Y-81686578D01*
X174425024Y-81729851D01*
X174397764Y-81770650D01*
X174366636Y-81808579D01*
X174331939Y-81843276D01*
X174294010Y-81874404D01*
X174253211Y-81901664D01*
X174209938Y-81924795D01*
X174164605Y-81943572D01*
X174117650Y-81957816D01*
X174069525Y-81967388D01*
X174020694Y-81972198D01*
X173996160Y-81972198D01*
X173996160Y-81972800D01*
X173496160Y-81972800D01*
X173496160Y-81972198D01*
X173471626Y-81972198D01*
X173422795Y-81967388D01*
X173374670Y-81957816D01*
X173327715Y-81943572D01*
X173282382Y-81924795D01*
X173239109Y-81901664D01*
X173198310Y-81874404D01*
X173160381Y-81843276D01*
X173125684Y-81808579D01*
X173094556Y-81770650D01*
X173067296Y-81729851D01*
X173044165Y-81686578D01*
X173025388Y-81641245D01*
X173011144Y-81594290D01*
X173001572Y-81546165D01*
X172996762Y-81497334D01*
X172996762Y-81472800D01*
X172996160Y-81472800D01*
X172996160Y-80972800D01*
X174496160Y-80972800D01*
X174496160Y-80972800D01*
G37*
D11*
X173746160Y-80172800D03*
D10*
G36*
X172996762Y-80172800D02*
G01*
X172996762Y-80148266D01*
X173001572Y-80099435D01*
X173011144Y-80051310D01*
X173025388Y-80004355D01*
X173044165Y-79959022D01*
X173067296Y-79915749D01*
X173094556Y-79874950D01*
X173125684Y-79837021D01*
X173160381Y-79802324D01*
X173198310Y-79771196D01*
X173239109Y-79743936D01*
X173282382Y-79720805D01*
X173327715Y-79702028D01*
X173374670Y-79687784D01*
X173422795Y-79678212D01*
X173471626Y-79673402D01*
X173496160Y-79673402D01*
X173496160Y-79672800D01*
X173996160Y-79672800D01*
X173996160Y-79673402D01*
X174020694Y-79673402D01*
X174069525Y-79678212D01*
X174117650Y-79687784D01*
X174164605Y-79702028D01*
X174209938Y-79720805D01*
X174253211Y-79743936D01*
X174294010Y-79771196D01*
X174331939Y-79802324D01*
X174366636Y-79837021D01*
X174397764Y-79874950D01*
X174425024Y-79915749D01*
X174448155Y-79959022D01*
X174466932Y-80004355D01*
X174481176Y-80051310D01*
X174490748Y-80099435D01*
X174495558Y-80148266D01*
X174495558Y-80172800D01*
X174496160Y-80172800D01*
X174496160Y-80672800D01*
X172996160Y-80672800D01*
X172996160Y-80172800D01*
X172996762Y-80172800D01*
X172996762Y-80172800D01*
G37*
D11*
X175895000Y-81472800D03*
D10*
G36*
X176645000Y-80972800D02*
G01*
X176645000Y-81472800D01*
X176644398Y-81472800D01*
X176644398Y-81497334D01*
X176639588Y-81546165D01*
X176630016Y-81594290D01*
X176615772Y-81641245D01*
X176596995Y-81686578D01*
X176573864Y-81729851D01*
X176546604Y-81770650D01*
X176515476Y-81808579D01*
X176480779Y-81843276D01*
X176442850Y-81874404D01*
X176402051Y-81901664D01*
X176358778Y-81924795D01*
X176313445Y-81943572D01*
X176266490Y-81957816D01*
X176218365Y-81967388D01*
X176169534Y-81972198D01*
X176145000Y-81972198D01*
X176145000Y-81972800D01*
X175645000Y-81972800D01*
X175645000Y-81972198D01*
X175620466Y-81972198D01*
X175571635Y-81967388D01*
X175523510Y-81957816D01*
X175476555Y-81943572D01*
X175431222Y-81924795D01*
X175387949Y-81901664D01*
X175347150Y-81874404D01*
X175309221Y-81843276D01*
X175274524Y-81808579D01*
X175243396Y-81770650D01*
X175216136Y-81729851D01*
X175193005Y-81686578D01*
X175174228Y-81641245D01*
X175159984Y-81594290D01*
X175150412Y-81546165D01*
X175145602Y-81497334D01*
X175145602Y-81472800D01*
X175145000Y-81472800D01*
X175145000Y-80972800D01*
X176645000Y-80972800D01*
X176645000Y-80972800D01*
G37*
D11*
X175895000Y-80172800D03*
D10*
G36*
X175145602Y-80172800D02*
G01*
X175145602Y-80148266D01*
X175150412Y-80099435D01*
X175159984Y-80051310D01*
X175174228Y-80004355D01*
X175193005Y-79959022D01*
X175216136Y-79915749D01*
X175243396Y-79874950D01*
X175274524Y-79837021D01*
X175309221Y-79802324D01*
X175347150Y-79771196D01*
X175387949Y-79743936D01*
X175431222Y-79720805D01*
X175476555Y-79702028D01*
X175523510Y-79687784D01*
X175571635Y-79678212D01*
X175620466Y-79673402D01*
X175645000Y-79673402D01*
X175645000Y-79672800D01*
X176145000Y-79672800D01*
X176145000Y-79673402D01*
X176169534Y-79673402D01*
X176218365Y-79678212D01*
X176266490Y-79687784D01*
X176313445Y-79702028D01*
X176358778Y-79720805D01*
X176402051Y-79743936D01*
X176442850Y-79771196D01*
X176480779Y-79802324D01*
X176515476Y-79837021D01*
X176546604Y-79874950D01*
X176573864Y-79915749D01*
X176596995Y-79959022D01*
X176615772Y-80004355D01*
X176630016Y-80051310D01*
X176639588Y-80099435D01*
X176644398Y-80148266D01*
X176644398Y-80172800D01*
X176645000Y-80172800D01*
X176645000Y-80672800D01*
X175145000Y-80672800D01*
X175145000Y-80172800D01*
X175145602Y-80172800D01*
X175145602Y-80172800D01*
G37*
D15*
X131178300Y-94818200D03*
X131178300Y-77038200D03*
D16*
X174205900Y-79070200D03*
X140690600Y-77012800D03*
X140766800Y-76136500D03*
X141312900Y-75425300D03*
X146075400Y-89712800D03*
X145249900Y-89712800D03*
X144424400Y-89712800D03*
X144487900Y-90474800D03*
X144487900Y-91173300D03*
X144487900Y-91998800D03*
X144487900Y-92824300D03*
X144487900Y-93649800D03*
X144551400Y-94538800D03*
X154406600Y-91008200D03*
X154406600Y-91821000D03*
X154406600Y-92633800D03*
X154406600Y-93446600D03*
X154406600Y-94259400D03*
X150876000Y-93472000D03*
X150164800Y-93472000D03*
X149453600Y-93472000D03*
X148742400Y-93472000D03*
X148031200Y-93472000D03*
X148386800Y-94208600D03*
X148615400Y-91008200D03*
X147878800Y-91008200D03*
X147701000Y-90068400D03*
X146837400Y-89687400D03*
X154406600Y-90195400D03*
X154406600Y-89382600D03*
X154406600Y-88569800D03*
X154406600Y-87757000D03*
X147345400Y-89077800D03*
X147218400Y-88112600D03*
X147396200Y-86537800D03*
X148132800Y-86207600D03*
X149021800Y-86207600D03*
X173098460Y-89781380D03*
X142839440Y-84739480D03*
X142844520Y-88000000D03*
X144434560Y-84754720D03*
X144434560Y-88000000D03*
X145308320Y-92227400D03*
X146171920Y-92227400D03*
X178567080Y-78430120D03*
X177434240Y-80787240D03*
X178577240Y-89519760D03*
X178536600Y-87122000D03*
X153710640Y-87325200D03*
X154940000Y-79375000D03*
X156845000Y-79375000D03*
X158750000Y-79375000D03*
X160655000Y-79375000D03*
X162560000Y-79375000D03*
X154940000Y-81280000D03*
X156845000Y-81280000D03*
X158750000Y-81280000D03*
X160655000Y-81280000D03*
X162560000Y-81280000D03*
X154940000Y-83185000D03*
X154940000Y-85090000D03*
X156845000Y-85090000D03*
X156845000Y-83185000D03*
X158750000Y-83185000D03*
X158750000Y-85090000D03*
X160655000Y-85090000D03*
X160655000Y-83185000D03*
X162560000Y-83185000D03*
X162560000Y-85090000D03*
X154940000Y-86995000D03*
X156845000Y-86995000D03*
X158750000Y-86995000D03*
X160655000Y-86995000D03*
X162560000Y-86995000D03*
X162560000Y-88900000D03*
X160655000Y-88900000D03*
X158750000Y-88900000D03*
X156845000Y-88900000D03*
X156845000Y-90805000D03*
X158750000Y-90805000D03*
X160655000Y-90805000D03*
X162560000Y-90805000D03*
X162560000Y-92710000D03*
X160655000Y-92710000D03*
X158750000Y-92710000D03*
X156845000Y-92710000D03*
X156845000Y-94615000D03*
X158750000Y-94615000D03*
X160655000Y-94615000D03*
X162560000Y-94615000D03*
X155194000Y-90932000D03*
X155194000Y-92710000D03*
X152019000Y-87503000D03*
X164846000Y-94488000D03*
X151511000Y-94869000D03*
X134886700Y-86233000D03*
X135039100Y-88988900D03*
X144653000Y-83642200D03*
X136118600Y-87274400D03*
X135521700Y-88226900D03*
X138785600Y-88239600D03*
X137401300Y-88252300D03*
X136690100Y-87947500D03*
X134480300Y-84277200D03*
X135470900Y-84264500D03*
X136385300Y-84289900D03*
X137541000Y-84289900D03*
X138607800Y-84353400D03*
X139636500Y-84277200D03*
X140601700Y-84366100D03*
X141630400Y-84289900D03*
X139766040Y-88000840D03*
X145206720Y-88691720D03*
X166385240Y-94604840D03*
X166542720Y-92816680D03*
X171643040Y-94706440D03*
X169204640Y-95016320D03*
X166771320Y-91572080D03*
X171500800Y-93472000D03*
X173969680Y-77282040D03*
X151297640Y-94132400D03*
X136489440Y-89225120D03*
X139379960Y-89235280D03*
X133858000Y-78803500D03*
X171818300Y-76720700D03*
X169926000Y-85928200D03*
D17*
X174739300Y-85864700D03*
X172770800Y-87604600D03*
D16*
X171538900Y-88226900D03*
D17*
X171030900Y-91897200D03*
D16*
X171005500Y-90449400D03*
X176352200Y-87223600D03*
X173875700Y-84226400D03*
X169583100Y-84264500D03*
X172237400Y-81368900D03*
X173875700Y-83337400D03*
X173399450Y-82530950D03*
X175488600Y-85178900D03*
X176225200Y-84429600D03*
X176618900Y-83578700D03*
X176796700Y-82677000D03*
X173355000Y-78663800D03*
X177507900Y-79883000D03*
X176809400Y-79019400D03*
X177292000Y-81813400D03*
X174879000Y-86779100D03*
X174853600Y-87833200D03*
X174625000Y-88785700D03*
X174066200Y-89458800D03*
X178396900Y-83096100D03*
X177393600Y-85153500D03*
X176415700Y-89306400D03*
X129768600Y-79832200D03*
X132740400Y-79819500D03*
X129768600Y-82651600D03*
X132778500Y-82689700D03*
X133464300Y-81648300D03*
X169976800Y-82156300D03*
X168922700Y-81902300D03*
X166738300Y-81788000D03*
X167830500Y-81788000D03*
X148209000Y-79286100D03*
X145757900Y-81457800D03*
X148513800Y-81445100D03*
X143954500Y-81470500D03*
X146278600Y-85204300D03*
X145681700Y-94805500D03*
X146545300Y-94843600D03*
X147675600Y-94615000D03*
X152349200Y-94386400D03*
X153225500Y-94411800D03*
X149872700Y-86207600D03*
X151536400Y-86791800D03*
X150837900Y-86271100D03*
X147497800Y-87337900D03*
X147497800Y-84010500D03*
X151155400Y-91122500D03*
X138526000Y-91382100D03*
X146240500Y-79514700D03*
X169481500Y-87287100D03*
X163423600Y-88252300D03*
X163360100Y-90004900D03*
X163385500Y-91681300D03*
X161709100Y-93675200D03*
X166966900Y-87680800D03*
X165819651Y-78147349D03*
X172720000Y-83566000D03*
D17*
X173570900Y-87261700D03*
D16*
X147053300Y-78460600D03*
X146456400Y-82232500D03*
X142201900Y-86271100D03*
X145059400Y-86233000D03*
X142214600Y-85356700D03*
X145046700Y-85369400D03*
X137388600Y-87045800D03*
X138772900Y-87058500D03*
X137375900Y-85661500D03*
X138823700Y-86029800D03*
X171856400Y-83578700D03*
X172529500Y-86791800D03*
X148158200Y-82283300D03*
X134734300Y-76111100D03*
X135826500Y-78397100D03*
X145326100Y-79463900D03*
X145326100Y-79463900D03*
X151165560Y-79984600D03*
X135216900Y-77444600D03*
X130107840Y-88332160D03*
X172217080Y-80436720D03*
X175869600Y-82600800D03*
X174726600Y-82524600D03*
X170954700Y-83578700D03*
X169049700Y-91414600D03*
X171665900Y-86880700D03*
X167982900Y-91465400D03*
X170776900Y-86893400D03*
X170040300Y-83489800D03*
X169113200Y-79184500D03*
X169087800Y-77685900D03*
X145135600Y-87414100D03*
X141782800Y-87909400D03*
X152869900Y-87871300D03*
X151003000Y-82981800D03*
X163576000Y-94462600D03*
X168706800Y-84493100D03*
X168579800Y-86334600D03*
D18*
X174792400Y-79070200D02*
X174205900Y-79070200D01*
X175895000Y-80172800D02*
X174792400Y-79070200D01*
X164122100Y-76962000D02*
X162928300Y-75768200D01*
X164122100Y-77937600D02*
X164122100Y-76962000D01*
X139280900Y-81777600D02*
X139280900Y-80114682D01*
X138432300Y-82626200D02*
X139280900Y-81777600D01*
X141027081Y-78368501D02*
X141658999Y-78368501D01*
X139280900Y-80114682D02*
X141027081Y-78368501D01*
X141658999Y-78368501D02*
X142290800Y-77736700D01*
X158419800Y-77736700D02*
X160388300Y-75768200D01*
X142290800Y-77736700D02*
X158419800Y-77736700D01*
X138442700Y-80454500D02*
X138366500Y-80454500D01*
X138891274Y-79929726D02*
X138366500Y-80454500D01*
X139272010Y-79548990D02*
X138891274Y-79929726D01*
X139272010Y-78431390D02*
X139272010Y-79548990D01*
X140690600Y-77012800D02*
X139272010Y-78431390D01*
X138495800Y-77940527D02*
X138495800Y-78320900D01*
X140299827Y-76136500D02*
X138495800Y-77940527D01*
X140766800Y-76136500D02*
X140299827Y-76136500D01*
X138991100Y-75425300D02*
X138330700Y-76085700D01*
X141312900Y-75425300D02*
X138991100Y-75425300D01*
D19*
X169926000Y-86842600D02*
X169481500Y-87287100D01*
X169926000Y-85928200D02*
X169926000Y-86842600D01*
D20*
X169319590Y-87449010D02*
X169481500Y-87287100D01*
X167919663Y-87449010D02*
X169319590Y-87449010D01*
X167814873Y-87553800D02*
X167919663Y-87449010D01*
X167665663Y-87449010D02*
X167919663Y-87449010D01*
X167433873Y-87680800D02*
X167665663Y-87449010D01*
X166966900Y-87680800D02*
X167433873Y-87680800D01*
D19*
X166513902Y-78841600D02*
X167868600Y-78841600D01*
X165819651Y-78147349D02*
X166513902Y-78841600D01*
X172720000Y-84123522D02*
X173167699Y-84571221D01*
X172720000Y-83566000D02*
X172720000Y-84123522D01*
X173570900Y-86830648D02*
X173570900Y-87261700D01*
X173570900Y-86672582D02*
X173570900Y-86830648D01*
X173167699Y-86269381D02*
X173570900Y-86672582D01*
X173167699Y-84571221D02*
X173167699Y-86269381D01*
X147053300Y-81648300D02*
X147053300Y-78460600D01*
X146456400Y-82232500D02*
X146469100Y-82232500D01*
X146469100Y-82232500D02*
X147053300Y-81648300D01*
D18*
X142240000Y-86233000D02*
X142201900Y-86271100D01*
X145059400Y-86233000D02*
X142240000Y-86233000D01*
X144579727Y-85369400D02*
X145046700Y-85369400D01*
X142694273Y-85369400D02*
X144579727Y-85369400D01*
X142681573Y-85356700D02*
X142694273Y-85369400D01*
X142214600Y-85356700D02*
X142681573Y-85356700D01*
X138760200Y-87045800D02*
X138772900Y-87058500D01*
X137388600Y-87045800D02*
X138760200Y-87045800D01*
X137744200Y-86029800D02*
X137375900Y-85661500D01*
X138823700Y-86029800D02*
X137744200Y-86029800D01*
X172529500Y-84682852D02*
X172529500Y-86791800D01*
X171856400Y-83578700D02*
X171856400Y-84009752D01*
X171856400Y-84009752D02*
X172529500Y-84682852D01*
X147828001Y-82613499D02*
X148158200Y-82283300D01*
X147199389Y-83242111D02*
X147828001Y-82613499D01*
X146070154Y-83242111D02*
X147199389Y-83242111D01*
X145863842Y-83035799D02*
X146070154Y-83242111D01*
X144361927Y-83035799D02*
X145863842Y-83035799D01*
X143745316Y-83652410D02*
X144361927Y-83035799D01*
X137310918Y-83652410D02*
X143745316Y-83652410D01*
X137132300Y-83473792D02*
X137310918Y-83652410D01*
X137132300Y-82626200D02*
X137132300Y-83473792D01*
X137005300Y-76111100D02*
X137030700Y-76085700D01*
X134734300Y-76111100D02*
X137005300Y-76111100D01*
X137119600Y-78397100D02*
X137195800Y-78320900D01*
X135826500Y-78397100D02*
X137119600Y-78397100D01*
X144243292Y-78928200D02*
X144121900Y-78928200D01*
X144323427Y-78928200D02*
X144243292Y-78928200D01*
X144859127Y-79463900D02*
X144323427Y-78928200D01*
X145326100Y-79463900D02*
X145326100Y-79463900D01*
X145151499Y-81825073D02*
X146216127Y-82889701D01*
X145151499Y-80105474D02*
X145151499Y-81825073D01*
X145326100Y-79463900D02*
X145326100Y-79930873D01*
X145326100Y-79930873D02*
X145151499Y-80105474D01*
X145326100Y-79463900D02*
X144859127Y-79463900D01*
X144121900Y-78928200D02*
X143395700Y-78928200D01*
X150698587Y-79984600D02*
X151165560Y-79984600D01*
X149076826Y-79984600D02*
X150698587Y-79984600D01*
X147907399Y-81154027D02*
X149076826Y-79984600D01*
X147907399Y-81636627D02*
X147907399Y-81154027D01*
X147551799Y-81992227D02*
X147907399Y-81636627D01*
X147551799Y-82034575D02*
X147551799Y-81992227D01*
X146696673Y-82889701D02*
X147551799Y-82034575D01*
X146216127Y-82889701D02*
X146696673Y-82889701D01*
X136541726Y-79929726D02*
X137066500Y-80454500D01*
X136461652Y-79929726D02*
X136541726Y-79929726D01*
X135216900Y-78684974D02*
X136461652Y-79929726D01*
X135216900Y-77444600D02*
X135216900Y-78684974D01*
X172481000Y-80172800D02*
X172217080Y-80436720D01*
X173746160Y-80172800D02*
X172481000Y-80172800D01*
X170055540Y-95595440D02*
X170548300Y-96088200D01*
X170055540Y-93949280D02*
X170055540Y-95595440D01*
X167835580Y-95915480D02*
X168008300Y-96088200D01*
X167835580Y-93944200D02*
X167835580Y-95915480D01*
X175869600Y-81498200D02*
X175895000Y-81472800D01*
X175250080Y-81472800D02*
X175895000Y-81472800D01*
X175869600Y-82600800D02*
X175869600Y-81498200D01*
X173926500Y-81653140D02*
X173746160Y-81472800D01*
X174726600Y-82453240D02*
X173746160Y-81472800D01*
X174726600Y-82524600D02*
X174726600Y-82453240D01*
X170413680Y-92291140D02*
X170055540Y-92649280D01*
X170055540Y-92420440D02*
X170055540Y-92649280D01*
X169049700Y-91414600D02*
X170055540Y-92420440D01*
X171665900Y-84317635D02*
X171665900Y-86880700D01*
X171284899Y-83936634D02*
X171665900Y-84317635D01*
X171284899Y-83908899D02*
X171284899Y-83936634D01*
X170954700Y-83578700D02*
X171284899Y-83908899D01*
X167982900Y-92496880D02*
X167835580Y-92644200D01*
X167982900Y-91465400D02*
X167982900Y-92496880D01*
X170776900Y-86220300D02*
X170776900Y-86893400D01*
X170700700Y-86144100D02*
X170776900Y-86220300D01*
X170700700Y-86144100D02*
X170700700Y-86259148D01*
X170700700Y-84568552D02*
X170700700Y-86144100D01*
X170370499Y-84238351D02*
X170700700Y-84568552D01*
X170370499Y-83819999D02*
X170370499Y-84238351D01*
X170040300Y-83489800D02*
X170370499Y-83819999D01*
X169113200Y-79400400D02*
X169113200Y-79184500D01*
X168656000Y-79857600D02*
X169113200Y-79400400D01*
X167868600Y-79857600D02*
X168656000Y-79857600D01*
X168948100Y-77825600D02*
X169087800Y-77685900D01*
X167868600Y-77825600D02*
X168948100Y-77825600D01*
D19*
X145009278Y-87414100D02*
X145135600Y-87414100D01*
X144810977Y-87215799D02*
X145009278Y-87414100D01*
X141782800Y-87909400D02*
X142476401Y-87215799D01*
X142476401Y-87215799D02*
X144810977Y-87215799D01*
D18*
X152869900Y-84848700D02*
X151003000Y-82981800D01*
X152869900Y-87871300D02*
X152869900Y-84848700D01*
X169775900Y-88770700D02*
X169633900Y-88770700D01*
X171665900Y-86880700D02*
X169775900Y-88770700D01*
X170776900Y-86893400D02*
X169675810Y-87994490D01*
X169065786Y-87994490D02*
X169675810Y-87994490D01*
X168814350Y-88245926D02*
X169065786Y-87994490D01*
X167898074Y-88245926D02*
X168814350Y-88245926D01*
X167373300Y-88770700D02*
X167898074Y-88245926D01*
X163576000Y-93995627D02*
X163576000Y-94462600D01*
X163576000Y-93020408D02*
X163576000Y-93995627D01*
X166525708Y-90070700D02*
X163576000Y-93020408D01*
X167373300Y-90070700D02*
X166525708Y-90070700D01*
X164182401Y-94834099D02*
X163778299Y-95238201D01*
X164182401Y-93263525D02*
X164182401Y-94834099D01*
X166586927Y-90858999D02*
X164182401Y-93263525D01*
X168195601Y-90858999D02*
X166586927Y-90858999D01*
X168459126Y-90595474D02*
X168195601Y-90858999D01*
X163778299Y-95238201D02*
X162928300Y-96088200D01*
X169109126Y-90595474D02*
X168459126Y-90595474D01*
X169633900Y-90070700D02*
X169109126Y-90595474D01*
X164310300Y-86982300D02*
X164310300Y-91787726D01*
X161238299Y-95238201D02*
X160388300Y-96088200D01*
X161238299Y-95039227D02*
X161238299Y-95238201D01*
X163166401Y-93111125D02*
X161238299Y-95039227D01*
X163166401Y-92931625D02*
X163166401Y-93111125D01*
X164310300Y-91787726D02*
X163166401Y-92931625D01*
X166210300Y-86982300D02*
X165610300Y-86982300D01*
X168829574Y-86982300D02*
X166210300Y-86982300D01*
X169186201Y-86625673D02*
X168829574Y-86982300D01*
X169186201Y-85439474D02*
X169186201Y-86625673D01*
X168706800Y-84960073D02*
X169186201Y-85439474D01*
X168706800Y-84493100D02*
X168706800Y-84960073D01*
X165363786Y-85570110D02*
X164807900Y-85014224D01*
X168374110Y-85570110D02*
X165363786Y-85570110D01*
X164807900Y-79923400D02*
X164122100Y-79237600D01*
X164807900Y-85014224D02*
X164807900Y-79923400D01*
X168579800Y-85775800D02*
X168579800Y-86334600D01*
X168374110Y-85570110D02*
X168579800Y-85775800D01*
D21*
G36*
X176348466Y-75225639D02*
G01*
X176005418Y-75367734D01*
X175696682Y-75574025D01*
X175434125Y-75836582D01*
X175227834Y-76145318D01*
X175085739Y-76488366D01*
X175013300Y-76852544D01*
X175013300Y-77223856D01*
X175085739Y-77588034D01*
X175227834Y-77931082D01*
X175434125Y-78239818D01*
X175696682Y-78502375D01*
X176005418Y-78708666D01*
X176348466Y-78850761D01*
X176712644Y-78923200D01*
X177083956Y-78923200D01*
X177448134Y-78850761D01*
X177791182Y-78708666D01*
X178099918Y-78502375D01*
X178362475Y-78239818D01*
X178568766Y-77931082D01*
X178710861Y-77588034D01*
X178778301Y-77248988D01*
X178778300Y-94607407D01*
X178710861Y-94268366D01*
X178568766Y-93925318D01*
X178362475Y-93616582D01*
X178099918Y-93354025D01*
X177791182Y-93147734D01*
X177448134Y-93005639D01*
X177083956Y-92933200D01*
X176712644Y-92933200D01*
X176348466Y-93005639D01*
X176005418Y-93147734D01*
X175696682Y-93354025D01*
X175434125Y-93616582D01*
X175227834Y-93925318D01*
X175085739Y-94268366D01*
X175013300Y-94632544D01*
X175013300Y-95003856D01*
X175085739Y-95368034D01*
X175227834Y-95711082D01*
X175434125Y-96019818D01*
X175696682Y-96282375D01*
X176005418Y-96488666D01*
X176348466Y-96630761D01*
X176687507Y-96698200D01*
X174439996Y-96698200D01*
X174529781Y-96445091D01*
X174409114Y-96215200D01*
X173215300Y-96215200D01*
X173215300Y-96235200D01*
X172961300Y-96235200D01*
X172961300Y-96215200D01*
X172941300Y-96215200D01*
X172941300Y-95961200D01*
X172961300Y-95961200D01*
X172961300Y-94768045D01*
X173215300Y-94768045D01*
X173215300Y-95961200D01*
X174409114Y-95961200D01*
X174529781Y-95731309D01*
X174432457Y-95456948D01*
X174283478Y-95206845D01*
X174088569Y-94990612D01*
X173855220Y-94816559D01*
X173592399Y-94691375D01*
X173445190Y-94646724D01*
X173215300Y-94768045D01*
X172961300Y-94768045D01*
X172731410Y-94646724D01*
X172584201Y-94691375D01*
X172321380Y-94816559D01*
X172088031Y-94990612D01*
X171893122Y-95206845D01*
X171823501Y-95323723D01*
X171789006Y-95259186D01*
X171603434Y-95033066D01*
X171377314Y-94847494D01*
X171140160Y-94720732D01*
X171143230Y-94717662D01*
X171222582Y-94620971D01*
X171277038Y-94539472D01*
X171336004Y-94429155D01*
X171373513Y-94338599D01*
X171409822Y-94218903D01*
X171428944Y-94122770D01*
X171441204Y-93998289D01*
X171441204Y-93973730D01*
X171443612Y-93949280D01*
X171443612Y-93449280D01*
X171431352Y-93324798D01*
X171423611Y-93299280D01*
X171431352Y-93273762D01*
X171443612Y-93149280D01*
X171443612Y-92649280D01*
X171441204Y-92624830D01*
X171441204Y-92600271D01*
X171428944Y-92475790D01*
X171409822Y-92379657D01*
X171373513Y-92259961D01*
X171336004Y-92169405D01*
X171277038Y-92059088D01*
X171222582Y-91977589D01*
X171143230Y-91880898D01*
X171073922Y-91811590D01*
X170977231Y-91732238D01*
X170895732Y-91677782D01*
X170785415Y-91618816D01*
X170694859Y-91581307D01*
X170575163Y-91544998D01*
X170479030Y-91525876D01*
X170354549Y-91513616D01*
X170329990Y-91513616D01*
X170305540Y-91511208D01*
X170152096Y-91511208D01*
X170014900Y-91374012D01*
X170014900Y-91319536D01*
X169991246Y-91200618D01*
X170057390Y-91194104D01*
X170153523Y-91174982D01*
X170273219Y-91138673D01*
X170363775Y-91101164D01*
X170474092Y-91042198D01*
X170555591Y-90987742D01*
X170652282Y-90908390D01*
X170721590Y-90839082D01*
X170800942Y-90742391D01*
X170855398Y-90660892D01*
X170914364Y-90550575D01*
X170951873Y-90460019D01*
X170988182Y-90340323D01*
X171007304Y-90244190D01*
X171019564Y-90119709D01*
X171019564Y-90095150D01*
X171021972Y-90070700D01*
X171021972Y-89570700D01*
X171009712Y-89446218D01*
X171001971Y-89420700D01*
X171009712Y-89395182D01*
X171021972Y-89270700D01*
X171021972Y-88770700D01*
X171019564Y-88746250D01*
X171019564Y-88721691D01*
X171007304Y-88597210D01*
X170998656Y-88553732D01*
X171706488Y-87845900D01*
X171760964Y-87845900D01*
X171947438Y-87808808D01*
X172123094Y-87736049D01*
X172185791Y-87694156D01*
X172247962Y-87719908D01*
X172434436Y-87757000D01*
X172624564Y-87757000D01*
X172754316Y-87731191D01*
X172840910Y-87860787D01*
X172971813Y-87991690D01*
X173125738Y-88094540D01*
X173296771Y-88165384D01*
X173478338Y-88201500D01*
X173663462Y-88201500D01*
X173845029Y-88165384D01*
X174016062Y-88094540D01*
X174169987Y-87991690D01*
X174300890Y-87860787D01*
X174403740Y-87706862D01*
X174474584Y-87535829D01*
X174510700Y-87354262D01*
X174510700Y-87169138D01*
X174474584Y-86987571D01*
X174459900Y-86952121D01*
X174459900Y-86716241D01*
X174464200Y-86672581D01*
X174459900Y-86628916D01*
X174459900Y-86628915D01*
X174448635Y-86514538D01*
X174447036Y-86498306D01*
X174408849Y-86372419D01*
X174396203Y-86330731D01*
X174313653Y-86176291D01*
X174202559Y-86040923D01*
X174168632Y-86013080D01*
X174056699Y-85901147D01*
X174056699Y-84614881D01*
X174060999Y-84571221D01*
X174056699Y-84527561D01*
X174056699Y-84527554D01*
X174043835Y-84396947D01*
X174034409Y-84365871D01*
X174019776Y-84317635D01*
X173993002Y-84229370D01*
X173910452Y-84074930D01*
X173799358Y-83939562D01*
X173765436Y-83911723D01*
X173656925Y-83803212D01*
X173685200Y-83661064D01*
X173685200Y-83470936D01*
X173648108Y-83284462D01*
X173575349Y-83108806D01*
X173469720Y-82950721D01*
X173335279Y-82816280D01*
X173177194Y-82710651D01*
X173001538Y-82637892D01*
X172815064Y-82600800D01*
X172624936Y-82600800D01*
X172438462Y-82637892D01*
X172272870Y-82706482D01*
X172137938Y-82650592D01*
X171951464Y-82613500D01*
X171761336Y-82613500D01*
X171574862Y-82650592D01*
X171405550Y-82720723D01*
X171236238Y-82650592D01*
X171049764Y-82613500D01*
X170859636Y-82613500D01*
X170673162Y-82650592D01*
X170579632Y-82689334D01*
X170497494Y-82634451D01*
X170321838Y-82561692D01*
X170135364Y-82524600D01*
X169945236Y-82524600D01*
X169758762Y-82561692D01*
X169583106Y-82634451D01*
X169425021Y-82740080D01*
X169290580Y-82874521D01*
X169184951Y-83032606D01*
X169112192Y-83208262D01*
X169075100Y-83394736D01*
X169075100Y-83584864D01*
X169078583Y-83602373D01*
X168988338Y-83564992D01*
X168801864Y-83527900D01*
X168611736Y-83527900D01*
X168425262Y-83564992D01*
X168249606Y-83637751D01*
X168091521Y-83743380D01*
X167957080Y-83877821D01*
X167851451Y-84035906D01*
X167778692Y-84211562D01*
X167741600Y-84398036D01*
X167741600Y-84588164D01*
X167778692Y-84774638D01*
X167813599Y-84858910D01*
X165658374Y-84858910D01*
X165519100Y-84719636D01*
X165519100Y-79958328D01*
X165522540Y-79923400D01*
X165519100Y-79888471D01*
X165519100Y-79888464D01*
X165508809Y-79783980D01*
X165492616Y-79730600D01*
X165468142Y-79649918D01*
X165445785Y-79608090D01*
X165476382Y-79507223D01*
X165495504Y-79411090D01*
X165507764Y-79286609D01*
X165507764Y-79262050D01*
X165510172Y-79237600D01*
X165510172Y-79095105D01*
X165854407Y-79439341D01*
X165882243Y-79473259D01*
X166017611Y-79584353D01*
X166172051Y-79666903D01*
X166231130Y-79684824D01*
X166339626Y-79717736D01*
X166372826Y-79721006D01*
X166470235Y-79730600D01*
X166470241Y-79730600D01*
X166513901Y-79734900D01*
X166557561Y-79730600D01*
X166595528Y-79730600D01*
X166595528Y-80175100D01*
X166607788Y-80299582D01*
X166644098Y-80419280D01*
X166703063Y-80529594D01*
X166782415Y-80626285D01*
X166879106Y-80705637D01*
X166989420Y-80764602D01*
X167109118Y-80800912D01*
X167233600Y-80813172D01*
X168503600Y-80813172D01*
X168628082Y-80800912D01*
X168747780Y-80764602D01*
X168858094Y-80705637D01*
X168954785Y-80626285D01*
X169034137Y-80529594D01*
X169093102Y-80419280D01*
X169093248Y-80418798D01*
X169161327Y-80362927D01*
X169178783Y-80341656D01*
X171251880Y-80341656D01*
X171251880Y-80531784D01*
X171288972Y-80718258D01*
X171361731Y-80893914D01*
X171467360Y-81051999D01*
X171601801Y-81186440D01*
X171759886Y-81292069D01*
X171935542Y-81364828D01*
X172122016Y-81401920D01*
X172312144Y-81401920D01*
X172358088Y-81392781D01*
X172358088Y-81472800D01*
X172360496Y-81497250D01*
X172360496Y-81521809D01*
X172372756Y-81646290D01*
X172391878Y-81742423D01*
X172428187Y-81862119D01*
X172465696Y-81952675D01*
X172524662Y-82062992D01*
X172579118Y-82144491D01*
X172658470Y-82241182D01*
X172727778Y-82310490D01*
X172824469Y-82389842D01*
X172905968Y-82444298D01*
X173016285Y-82503264D01*
X173106841Y-82540773D01*
X173226537Y-82577082D01*
X173322670Y-82596204D01*
X173447151Y-82608464D01*
X173471710Y-82608464D01*
X173496160Y-82610872D01*
X173761400Y-82610872D01*
X173761400Y-82619664D01*
X173798492Y-82806138D01*
X173871251Y-82981794D01*
X173976880Y-83139879D01*
X174111321Y-83274320D01*
X174269406Y-83379949D01*
X174445062Y-83452708D01*
X174631536Y-83489800D01*
X174821664Y-83489800D01*
X175008138Y-83452708D01*
X175183794Y-83379949D01*
X175243713Y-83339912D01*
X175254321Y-83350520D01*
X175412406Y-83456149D01*
X175588062Y-83528908D01*
X175774536Y-83566000D01*
X175964664Y-83566000D01*
X176151138Y-83528908D01*
X176326794Y-83456149D01*
X176484879Y-83350520D01*
X176619320Y-83216079D01*
X176724949Y-83057994D01*
X176797708Y-82882338D01*
X176834800Y-82695864D01*
X176834800Y-82505736D01*
X176812327Y-82392758D01*
X176816691Y-82389842D01*
X176913382Y-82310490D01*
X176982690Y-82241182D01*
X177062042Y-82144491D01*
X177116498Y-82062992D01*
X177175464Y-81952675D01*
X177212973Y-81862119D01*
X177249282Y-81742423D01*
X177268404Y-81646290D01*
X177280664Y-81521809D01*
X177280664Y-81497250D01*
X177283072Y-81472800D01*
X177283072Y-80972800D01*
X177270812Y-80848318D01*
X177263071Y-80822800D01*
X177270812Y-80797282D01*
X177283072Y-80672800D01*
X177283072Y-80172800D01*
X177280664Y-80148350D01*
X177280664Y-80123791D01*
X177268404Y-79999310D01*
X177249282Y-79903177D01*
X177212973Y-79783481D01*
X177175464Y-79692925D01*
X177116498Y-79582608D01*
X177062042Y-79501109D01*
X176982690Y-79404418D01*
X176913382Y-79335110D01*
X176816691Y-79255758D01*
X176735192Y-79201302D01*
X176624875Y-79142336D01*
X176534319Y-79104827D01*
X176414623Y-79068518D01*
X176318490Y-79049396D01*
X176194009Y-79037136D01*
X176169450Y-79037136D01*
X176145000Y-79034728D01*
X175762715Y-79034728D01*
X175320002Y-78592015D01*
X175297727Y-78564873D01*
X175189433Y-78475998D01*
X175065881Y-78409958D01*
X174931820Y-78369291D01*
X174863235Y-78362536D01*
X174821179Y-78320480D01*
X174663094Y-78214851D01*
X174487438Y-78142092D01*
X174300964Y-78105000D01*
X174110836Y-78105000D01*
X173924362Y-78142092D01*
X173748706Y-78214851D01*
X173590621Y-78320480D01*
X173456180Y-78454921D01*
X173350551Y-78613006D01*
X173277792Y-78788662D01*
X173240700Y-78975136D01*
X173240700Y-79065701D01*
X173226537Y-79068518D01*
X173106841Y-79104827D01*
X173016285Y-79142336D01*
X172905968Y-79201302D01*
X172824469Y-79255758D01*
X172727778Y-79335110D01*
X172658470Y-79404418D01*
X172611542Y-79461600D01*
X172515925Y-79461600D01*
X172480999Y-79458160D01*
X172446073Y-79461600D01*
X172446064Y-79461600D01*
X172341580Y-79471891D01*
X172330661Y-79475203D01*
X172312144Y-79471520D01*
X172122016Y-79471520D01*
X171935542Y-79508612D01*
X171759886Y-79581371D01*
X171601801Y-79687000D01*
X171467360Y-79821441D01*
X171361731Y-79979526D01*
X171288972Y-80155182D01*
X171251880Y-80341656D01*
X169178783Y-80341656D01*
X169183601Y-80335786D01*
X169415294Y-80104093D01*
X169570394Y-80039849D01*
X169728479Y-79934220D01*
X169862920Y-79799779D01*
X169968549Y-79641694D01*
X170041308Y-79466038D01*
X170078400Y-79279564D01*
X170078400Y-79089436D01*
X170041308Y-78902962D01*
X169968549Y-78727306D01*
X169862920Y-78569221D01*
X169728479Y-78434780D01*
X169713756Y-78424943D01*
X169837520Y-78301179D01*
X169943149Y-78143094D01*
X170015908Y-77967438D01*
X170053000Y-77780964D01*
X170053000Y-77590836D01*
X170015908Y-77404362D01*
X169943149Y-77228706D01*
X169839061Y-77072927D01*
X169977266Y-77146799D01*
X170257189Y-77231713D01*
X170475350Y-77253200D01*
X170621250Y-77253200D01*
X170839411Y-77231713D01*
X171119334Y-77146799D01*
X171377314Y-77008906D01*
X171603434Y-76823334D01*
X171789006Y-76597214D01*
X171818300Y-76542409D01*
X171847594Y-76597214D01*
X172033166Y-76823334D01*
X172259286Y-77008906D01*
X172517266Y-77146799D01*
X172797189Y-77231713D01*
X173015350Y-77253200D01*
X173161250Y-77253200D01*
X173379411Y-77231713D01*
X173659334Y-77146799D01*
X173917314Y-77008906D01*
X174143434Y-76823334D01*
X174329006Y-76597214D01*
X174466899Y-76339234D01*
X174551813Y-76059311D01*
X174580485Y-75768200D01*
X174551813Y-75477089D01*
X174466899Y-75197166D01*
X174446071Y-75158200D01*
X176687507Y-75158200D01*
X176348466Y-75225639D01*
X176348466Y-75225639D01*
G37*
X176348466Y-75225639D02*
X176005418Y-75367734D01*
X175696682Y-75574025D01*
X175434125Y-75836582D01*
X175227834Y-76145318D01*
X175085739Y-76488366D01*
X175013300Y-76852544D01*
X175013300Y-77223856D01*
X175085739Y-77588034D01*
X175227834Y-77931082D01*
X175434125Y-78239818D01*
X175696682Y-78502375D01*
X176005418Y-78708666D01*
X176348466Y-78850761D01*
X176712644Y-78923200D01*
X177083956Y-78923200D01*
X177448134Y-78850761D01*
X177791182Y-78708666D01*
X178099918Y-78502375D01*
X178362475Y-78239818D01*
X178568766Y-77931082D01*
X178710861Y-77588034D01*
X178778301Y-77248988D01*
X178778300Y-94607407D01*
X178710861Y-94268366D01*
X178568766Y-93925318D01*
X178362475Y-93616582D01*
X178099918Y-93354025D01*
X177791182Y-93147734D01*
X177448134Y-93005639D01*
X177083956Y-92933200D01*
X176712644Y-92933200D01*
X176348466Y-93005639D01*
X176005418Y-93147734D01*
X175696682Y-93354025D01*
X175434125Y-93616582D01*
X175227834Y-93925318D01*
X175085739Y-94268366D01*
X175013300Y-94632544D01*
X175013300Y-95003856D01*
X175085739Y-95368034D01*
X175227834Y-95711082D01*
X175434125Y-96019818D01*
X175696682Y-96282375D01*
X176005418Y-96488666D01*
X176348466Y-96630761D01*
X176687507Y-96698200D01*
X174439996Y-96698200D01*
X174529781Y-96445091D01*
X174409114Y-96215200D01*
X173215300Y-96215200D01*
X173215300Y-96235200D01*
X172961300Y-96235200D01*
X172961300Y-96215200D01*
X172941300Y-96215200D01*
X172941300Y-95961200D01*
X172961300Y-95961200D01*
X172961300Y-94768045D01*
X173215300Y-94768045D01*
X173215300Y-95961200D01*
X174409114Y-95961200D01*
X174529781Y-95731309D01*
X174432457Y-95456948D01*
X174283478Y-95206845D01*
X174088569Y-94990612D01*
X173855220Y-94816559D01*
X173592399Y-94691375D01*
X173445190Y-94646724D01*
X173215300Y-94768045D01*
X172961300Y-94768045D01*
X172731410Y-94646724D01*
X172584201Y-94691375D01*
X172321380Y-94816559D01*
X172088031Y-94990612D01*
X171893122Y-95206845D01*
X171823501Y-95323723D01*
X171789006Y-95259186D01*
X171603434Y-95033066D01*
X171377314Y-94847494D01*
X171140160Y-94720732D01*
X171143230Y-94717662D01*
X171222582Y-94620971D01*
X171277038Y-94539472D01*
X171336004Y-94429155D01*
X171373513Y-94338599D01*
X171409822Y-94218903D01*
X171428944Y-94122770D01*
X171441204Y-93998289D01*
X171441204Y-93973730D01*
X171443612Y-93949280D01*
X171443612Y-93449280D01*
X171431352Y-93324798D01*
X171423611Y-93299280D01*
X171431352Y-93273762D01*
X171443612Y-93149280D01*
X171443612Y-92649280D01*
X171441204Y-92624830D01*
X171441204Y-92600271D01*
X171428944Y-92475790D01*
X171409822Y-92379657D01*
X171373513Y-92259961D01*
X171336004Y-92169405D01*
X171277038Y-92059088D01*
X171222582Y-91977589D01*
X171143230Y-91880898D01*
X171073922Y-91811590D01*
X170977231Y-91732238D01*
X170895732Y-91677782D01*
X170785415Y-91618816D01*
X170694859Y-91581307D01*
X170575163Y-91544998D01*
X170479030Y-91525876D01*
X170354549Y-91513616D01*
X170329990Y-91513616D01*
X170305540Y-91511208D01*
X170152096Y-91511208D01*
X170014900Y-91374012D01*
X170014900Y-91319536D01*
X169991246Y-91200618D01*
X170057390Y-91194104D01*
X170153523Y-91174982D01*
X170273219Y-91138673D01*
X170363775Y-91101164D01*
X170474092Y-91042198D01*
X170555591Y-90987742D01*
X170652282Y-90908390D01*
X170721590Y-90839082D01*
X170800942Y-90742391D01*
X170855398Y-90660892D01*
X170914364Y-90550575D01*
X170951873Y-90460019D01*
X170988182Y-90340323D01*
X171007304Y-90244190D01*
X171019564Y-90119709D01*
X171019564Y-90095150D01*
X171021972Y-90070700D01*
X171021972Y-89570700D01*
X171009712Y-89446218D01*
X171001971Y-89420700D01*
X171009712Y-89395182D01*
X171021972Y-89270700D01*
X171021972Y-88770700D01*
X171019564Y-88746250D01*
X171019564Y-88721691D01*
X171007304Y-88597210D01*
X170998656Y-88553732D01*
X171706488Y-87845900D01*
X171760964Y-87845900D01*
X171947438Y-87808808D01*
X172123094Y-87736049D01*
X172185791Y-87694156D01*
X172247962Y-87719908D01*
X172434436Y-87757000D01*
X172624564Y-87757000D01*
X172754316Y-87731191D01*
X172840910Y-87860787D01*
X172971813Y-87991690D01*
X173125738Y-88094540D01*
X173296771Y-88165384D01*
X173478338Y-88201500D01*
X173663462Y-88201500D01*
X173845029Y-88165384D01*
X174016062Y-88094540D01*
X174169987Y-87991690D01*
X174300890Y-87860787D01*
X174403740Y-87706862D01*
X174474584Y-87535829D01*
X174510700Y-87354262D01*
X174510700Y-87169138D01*
X174474584Y-86987571D01*
X174459900Y-86952121D01*
X174459900Y-86716241D01*
X174464200Y-86672581D01*
X174459900Y-86628916D01*
X174459900Y-86628915D01*
X174448635Y-86514538D01*
X174447036Y-86498306D01*
X174408849Y-86372419D01*
X174396203Y-86330731D01*
X174313653Y-86176291D01*
X174202559Y-86040923D01*
X174168632Y-86013080D01*
X174056699Y-85901147D01*
X174056699Y-84614881D01*
X174060999Y-84571221D01*
X174056699Y-84527561D01*
X174056699Y-84527554D01*
X174043835Y-84396947D01*
X174034409Y-84365871D01*
X174019776Y-84317635D01*
X173993002Y-84229370D01*
X173910452Y-84074930D01*
X173799358Y-83939562D01*
X173765436Y-83911723D01*
X173656925Y-83803212D01*
X173685200Y-83661064D01*
X173685200Y-83470936D01*
X173648108Y-83284462D01*
X173575349Y-83108806D01*
X173469720Y-82950721D01*
X173335279Y-82816280D01*
X173177194Y-82710651D01*
X173001538Y-82637892D01*
X172815064Y-82600800D01*
X172624936Y-82600800D01*
X172438462Y-82637892D01*
X172272870Y-82706482D01*
X172137938Y-82650592D01*
X171951464Y-82613500D01*
X171761336Y-82613500D01*
X171574862Y-82650592D01*
X171405550Y-82720723D01*
X171236238Y-82650592D01*
X171049764Y-82613500D01*
X170859636Y-82613500D01*
X170673162Y-82650592D01*
X170579632Y-82689334D01*
X170497494Y-82634451D01*
X170321838Y-82561692D01*
X170135364Y-82524600D01*
X169945236Y-82524600D01*
X169758762Y-82561692D01*
X169583106Y-82634451D01*
X169425021Y-82740080D01*
X169290580Y-82874521D01*
X169184951Y-83032606D01*
X169112192Y-83208262D01*
X169075100Y-83394736D01*
X169075100Y-83584864D01*
X169078583Y-83602373D01*
X168988338Y-83564992D01*
X168801864Y-83527900D01*
X168611736Y-83527900D01*
X168425262Y-83564992D01*
X168249606Y-83637751D01*
X168091521Y-83743380D01*
X167957080Y-83877821D01*
X167851451Y-84035906D01*
X167778692Y-84211562D01*
X167741600Y-84398036D01*
X167741600Y-84588164D01*
X167778692Y-84774638D01*
X167813599Y-84858910D01*
X165658374Y-84858910D01*
X165519100Y-84719636D01*
X165519100Y-79958328D01*
X165522540Y-79923400D01*
X165519100Y-79888471D01*
X165519100Y-79888464D01*
X165508809Y-79783980D01*
X165492616Y-79730600D01*
X165468142Y-79649918D01*
X165445785Y-79608090D01*
X165476382Y-79507223D01*
X165495504Y-79411090D01*
X165507764Y-79286609D01*
X165507764Y-79262050D01*
X165510172Y-79237600D01*
X165510172Y-79095105D01*
X165854407Y-79439341D01*
X165882243Y-79473259D01*
X166017611Y-79584353D01*
X166172051Y-79666903D01*
X166231130Y-79684824D01*
X166339626Y-79717736D01*
X166372826Y-79721006D01*
X166470235Y-79730600D01*
X166470241Y-79730600D01*
X166513901Y-79734900D01*
X166557561Y-79730600D01*
X166595528Y-79730600D01*
X166595528Y-80175100D01*
X166607788Y-80299582D01*
X166644098Y-80419280D01*
X166703063Y-80529594D01*
X166782415Y-80626285D01*
X166879106Y-80705637D01*
X166989420Y-80764602D01*
X167109118Y-80800912D01*
X167233600Y-80813172D01*
X168503600Y-80813172D01*
X168628082Y-80800912D01*
X168747780Y-80764602D01*
X168858094Y-80705637D01*
X168954785Y-80626285D01*
X169034137Y-80529594D01*
X169093102Y-80419280D01*
X169093248Y-80418798D01*
X169161327Y-80362927D01*
X169178783Y-80341656D01*
X171251880Y-80341656D01*
X171251880Y-80531784D01*
X171288972Y-80718258D01*
X171361731Y-80893914D01*
X171467360Y-81051999D01*
X171601801Y-81186440D01*
X171759886Y-81292069D01*
X171935542Y-81364828D01*
X172122016Y-81401920D01*
X172312144Y-81401920D01*
X172358088Y-81392781D01*
X172358088Y-81472800D01*
X172360496Y-81497250D01*
X172360496Y-81521809D01*
X172372756Y-81646290D01*
X172391878Y-81742423D01*
X172428187Y-81862119D01*
X172465696Y-81952675D01*
X172524662Y-82062992D01*
X172579118Y-82144491D01*
X172658470Y-82241182D01*
X172727778Y-82310490D01*
X172824469Y-82389842D01*
X172905968Y-82444298D01*
X173016285Y-82503264D01*
X173106841Y-82540773D01*
X173226537Y-82577082D01*
X173322670Y-82596204D01*
X173447151Y-82608464D01*
X173471710Y-82608464D01*
X173496160Y-82610872D01*
X173761400Y-82610872D01*
X173761400Y-82619664D01*
X173798492Y-82806138D01*
X173871251Y-82981794D01*
X173976880Y-83139879D01*
X174111321Y-83274320D01*
X174269406Y-83379949D01*
X174445062Y-83452708D01*
X174631536Y-83489800D01*
X174821664Y-83489800D01*
X175008138Y-83452708D01*
X175183794Y-83379949D01*
X175243713Y-83339912D01*
X175254321Y-83350520D01*
X175412406Y-83456149D01*
X175588062Y-83528908D01*
X175774536Y-83566000D01*
X175964664Y-83566000D01*
X176151138Y-83528908D01*
X176326794Y-83456149D01*
X176484879Y-83350520D01*
X176619320Y-83216079D01*
X176724949Y-83057994D01*
X176797708Y-82882338D01*
X176834800Y-82695864D01*
X176834800Y-82505736D01*
X176812327Y-82392758D01*
X176816691Y-82389842D01*
X176913382Y-82310490D01*
X176982690Y-82241182D01*
X177062042Y-82144491D01*
X177116498Y-82062992D01*
X177175464Y-81952675D01*
X177212973Y-81862119D01*
X177249282Y-81742423D01*
X177268404Y-81646290D01*
X177280664Y-81521809D01*
X177280664Y-81497250D01*
X177283072Y-81472800D01*
X177283072Y-80972800D01*
X177270812Y-80848318D01*
X177263071Y-80822800D01*
X177270812Y-80797282D01*
X177283072Y-80672800D01*
X177283072Y-80172800D01*
X177280664Y-80148350D01*
X177280664Y-80123791D01*
X177268404Y-79999310D01*
X177249282Y-79903177D01*
X177212973Y-79783481D01*
X177175464Y-79692925D01*
X177116498Y-79582608D01*
X177062042Y-79501109D01*
X176982690Y-79404418D01*
X176913382Y-79335110D01*
X176816691Y-79255758D01*
X176735192Y-79201302D01*
X176624875Y-79142336D01*
X176534319Y-79104827D01*
X176414623Y-79068518D01*
X176318490Y-79049396D01*
X176194009Y-79037136D01*
X176169450Y-79037136D01*
X176145000Y-79034728D01*
X175762715Y-79034728D01*
X175320002Y-78592015D01*
X175297727Y-78564873D01*
X175189433Y-78475998D01*
X175065881Y-78409958D01*
X174931820Y-78369291D01*
X174863235Y-78362536D01*
X174821179Y-78320480D01*
X174663094Y-78214851D01*
X174487438Y-78142092D01*
X174300964Y-78105000D01*
X174110836Y-78105000D01*
X173924362Y-78142092D01*
X173748706Y-78214851D01*
X173590621Y-78320480D01*
X173456180Y-78454921D01*
X173350551Y-78613006D01*
X173277792Y-78788662D01*
X173240700Y-78975136D01*
X173240700Y-79065701D01*
X173226537Y-79068518D01*
X173106841Y-79104827D01*
X173016285Y-79142336D01*
X172905968Y-79201302D01*
X172824469Y-79255758D01*
X172727778Y-79335110D01*
X172658470Y-79404418D01*
X172611542Y-79461600D01*
X172515925Y-79461600D01*
X172480999Y-79458160D01*
X172446073Y-79461600D01*
X172446064Y-79461600D01*
X172341580Y-79471891D01*
X172330661Y-79475203D01*
X172312144Y-79471520D01*
X172122016Y-79471520D01*
X171935542Y-79508612D01*
X171759886Y-79581371D01*
X171601801Y-79687000D01*
X171467360Y-79821441D01*
X171361731Y-79979526D01*
X171288972Y-80155182D01*
X171251880Y-80341656D01*
X169178783Y-80341656D01*
X169183601Y-80335786D01*
X169415294Y-80104093D01*
X169570394Y-80039849D01*
X169728479Y-79934220D01*
X169862920Y-79799779D01*
X169968549Y-79641694D01*
X170041308Y-79466038D01*
X170078400Y-79279564D01*
X170078400Y-79089436D01*
X170041308Y-78902962D01*
X169968549Y-78727306D01*
X169862920Y-78569221D01*
X169728479Y-78434780D01*
X169713756Y-78424943D01*
X169837520Y-78301179D01*
X169943149Y-78143094D01*
X170015908Y-77967438D01*
X170053000Y-77780964D01*
X170053000Y-77590836D01*
X170015908Y-77404362D01*
X169943149Y-77228706D01*
X169839061Y-77072927D01*
X169977266Y-77146799D01*
X170257189Y-77231713D01*
X170475350Y-77253200D01*
X170621250Y-77253200D01*
X170839411Y-77231713D01*
X171119334Y-77146799D01*
X171377314Y-77008906D01*
X171603434Y-76823334D01*
X171789006Y-76597214D01*
X171818300Y-76542409D01*
X171847594Y-76597214D01*
X172033166Y-76823334D01*
X172259286Y-77008906D01*
X172517266Y-77146799D01*
X172797189Y-77231713D01*
X173015350Y-77253200D01*
X173161250Y-77253200D01*
X173379411Y-77231713D01*
X173659334Y-77146799D01*
X173917314Y-77008906D01*
X174143434Y-76823334D01*
X174329006Y-76597214D01*
X174466899Y-76339234D01*
X174551813Y-76059311D01*
X174580485Y-75768200D01*
X174551813Y-75477089D01*
X174466899Y-75197166D01*
X174446071Y-75158200D01*
X176687507Y-75158200D01*
X176348466Y-75225639D01*
G36*
X134452762Y-75182992D02*
G01*
X134277106Y-75255751D01*
X134119021Y-75361380D01*
X133984580Y-75495821D01*
X133878951Y-75653906D01*
X133806192Y-75829562D01*
X133769100Y-76016036D01*
X133769100Y-76206164D01*
X133806192Y-76392638D01*
X133878951Y-76568294D01*
X133984580Y-76726379D01*
X134119021Y-76860820D01*
X134277106Y-76966449D01*
X134356594Y-76999374D01*
X134288792Y-77163062D01*
X134251700Y-77349536D01*
X134251700Y-77539664D01*
X134288792Y-77726138D01*
X134361551Y-77901794D01*
X134467180Y-78059879D01*
X134505701Y-78098400D01*
X134505701Y-78650039D01*
X134502260Y-78684974D01*
X134505701Y-78719910D01*
X134515992Y-78824394D01*
X134544345Y-78917862D01*
X134556659Y-78958455D01*
X134622698Y-79082006D01*
X134687603Y-79161092D01*
X134711574Y-79190301D01*
X134738710Y-79212571D01*
X135928428Y-80402290D01*
X135928428Y-80704500D01*
X135930836Y-80728950D01*
X135930836Y-80753509D01*
X135943096Y-80877990D01*
X135962218Y-80974123D01*
X135998527Y-81093819D01*
X136036036Y-81184375D01*
X136095002Y-81294692D01*
X136149458Y-81376191D01*
X136228810Y-81472882D01*
X136298118Y-81542190D01*
X136332237Y-81570191D01*
X136294610Y-81607818D01*
X136215258Y-81704509D01*
X136160802Y-81786008D01*
X136101836Y-81896325D01*
X136064327Y-81986881D01*
X136028018Y-82106577D01*
X136008896Y-82202710D01*
X135996636Y-82327191D01*
X135996636Y-82351750D01*
X135994228Y-82376200D01*
X135994228Y-82876200D01*
X135996636Y-82900650D01*
X135996636Y-82925209D01*
X136008896Y-83049690D01*
X136028018Y-83145823D01*
X136064327Y-83265519D01*
X136101836Y-83356075D01*
X136160802Y-83466392D01*
X136215258Y-83547891D01*
X136294610Y-83644582D01*
X136363918Y-83713890D01*
X136460609Y-83793242D01*
X136516642Y-83830682D01*
X136538098Y-83870824D01*
X136600614Y-83947000D01*
X136626974Y-83979119D01*
X136654110Y-84001389D01*
X136783316Y-84130595D01*
X136805591Y-84157737D01*
X136913885Y-84246612D01*
X137037437Y-84312652D01*
X137171498Y-84353319D01*
X137275982Y-84363610D01*
X137275992Y-84363610D01*
X137310918Y-84367050D01*
X137345844Y-84363610D01*
X143710390Y-84363610D01*
X143745316Y-84367050D01*
X143780242Y-84363610D01*
X143780252Y-84363610D01*
X143884736Y-84353319D01*
X144018797Y-84312652D01*
X144142349Y-84246612D01*
X144250643Y-84157737D01*
X144272917Y-84130596D01*
X144656515Y-83746999D01*
X145564467Y-83746999D01*
X145564827Y-83747438D01*
X145673121Y-83836313D01*
X145796673Y-83902353D01*
X145930734Y-83943020D01*
X146035218Y-83953311D01*
X146035227Y-83953311D01*
X146070153Y-83956751D01*
X146105079Y-83953311D01*
X147164463Y-83953311D01*
X147199389Y-83956751D01*
X147234315Y-83953311D01*
X147234325Y-83953311D01*
X147338809Y-83943020D01*
X147472870Y-83902353D01*
X147596422Y-83836313D01*
X147704716Y-83747438D01*
X147726990Y-83720297D01*
X148198789Y-83248500D01*
X148253264Y-83248500D01*
X148439738Y-83211408D01*
X148615394Y-83138649D01*
X148773479Y-83033020D01*
X148907920Y-82898579D01*
X148915833Y-82886736D01*
X150037800Y-82886736D01*
X150037800Y-83076864D01*
X150074892Y-83263338D01*
X150147651Y-83438994D01*
X150253280Y-83597079D01*
X150387721Y-83731520D01*
X150545806Y-83837149D01*
X150721462Y-83909908D01*
X150907936Y-83947000D01*
X150962412Y-83947000D01*
X152158701Y-85143290D01*
X152158700Y-87217501D01*
X152120180Y-87256021D01*
X152014551Y-87414106D01*
X151941792Y-87589762D01*
X151904700Y-87776236D01*
X151904700Y-87966364D01*
X151941792Y-88152838D01*
X152014551Y-88328494D01*
X152120180Y-88486579D01*
X152254621Y-88621020D01*
X152412706Y-88726649D01*
X152588362Y-88799408D01*
X152774836Y-88836500D01*
X152964964Y-88836500D01*
X153151438Y-88799408D01*
X153327094Y-88726649D01*
X153485179Y-88621020D01*
X153619620Y-88486579D01*
X153725249Y-88328494D01*
X153798008Y-88152838D01*
X153835100Y-87966364D01*
X153835100Y-87776236D01*
X153798008Y-87589762D01*
X153725249Y-87414106D01*
X153619620Y-87256021D01*
X153581100Y-87217501D01*
X153581100Y-84883625D01*
X153584540Y-84848699D01*
X153581100Y-84813773D01*
X153581100Y-84813764D01*
X153570809Y-84709280D01*
X153530142Y-84575219D01*
X153464102Y-84451667D01*
X153397497Y-84370508D01*
X153397493Y-84370504D01*
X153375227Y-84343373D01*
X153348096Y-84321107D01*
X151968200Y-82941212D01*
X151968200Y-82886736D01*
X151931108Y-82700262D01*
X151858349Y-82524606D01*
X151752720Y-82366521D01*
X151618279Y-82232080D01*
X151460194Y-82126451D01*
X151284538Y-82053692D01*
X151098064Y-82016600D01*
X150907936Y-82016600D01*
X150721462Y-82053692D01*
X150545806Y-82126451D01*
X150387721Y-82232080D01*
X150253280Y-82366521D01*
X150147651Y-82524606D01*
X150074892Y-82700262D01*
X150037800Y-82886736D01*
X148915833Y-82886736D01*
X149013549Y-82740494D01*
X149086308Y-82564838D01*
X149123400Y-82378364D01*
X149123400Y-82188236D01*
X149086308Y-82001762D01*
X149013549Y-81826106D01*
X148907920Y-81668021D01*
X148773479Y-81533580D01*
X148629702Y-81437511D01*
X149371415Y-80695800D01*
X150511761Y-80695800D01*
X150550281Y-80734320D01*
X150708366Y-80839949D01*
X150884022Y-80912708D01*
X151070496Y-80949800D01*
X151260624Y-80949800D01*
X151447098Y-80912708D01*
X151622754Y-80839949D01*
X151780839Y-80734320D01*
X151915280Y-80599879D01*
X152020909Y-80441794D01*
X152093668Y-80266138D01*
X152130760Y-80079664D01*
X152130760Y-79889536D01*
X152093668Y-79703062D01*
X152020909Y-79527406D01*
X151915280Y-79369321D01*
X151780839Y-79234880D01*
X151622754Y-79129251D01*
X151447098Y-79056492D01*
X151260624Y-79019400D01*
X151070496Y-79019400D01*
X150884022Y-79056492D01*
X150708366Y-79129251D01*
X150550281Y-79234880D01*
X150511761Y-79273400D01*
X149111754Y-79273400D01*
X149076826Y-79269960D01*
X149041897Y-79273400D01*
X149041890Y-79273400D01*
X148938513Y-79283582D01*
X148937406Y-79283691D01*
X148803345Y-79324358D01*
X148679793Y-79390398D01*
X148598635Y-79457002D01*
X148598630Y-79457007D01*
X148571499Y-79479273D01*
X148549233Y-79506404D01*
X147942300Y-80113338D01*
X147942300Y-78836553D01*
X147981408Y-78742138D01*
X148017200Y-78562200D01*
X158445200Y-78562200D01*
X158469976Y-78559760D01*
X158493801Y-78552533D01*
X158515757Y-78540797D01*
X158535003Y-78525003D01*
X158550797Y-78505757D01*
X158562533Y-78483801D01*
X158569760Y-78459976D01*
X158572200Y-78435200D01*
X158572200Y-78433672D01*
X158693281Y-78396942D01*
X158816833Y-78330902D01*
X158925127Y-78242027D01*
X158947402Y-78214885D01*
X159969354Y-77192934D01*
X160097189Y-77231713D01*
X160315350Y-77253200D01*
X160461250Y-77253200D01*
X160679411Y-77231713D01*
X160959334Y-77146799D01*
X161217314Y-77008906D01*
X161443434Y-76823334D01*
X161629006Y-76597214D01*
X161658300Y-76542409D01*
X161687594Y-76597214D01*
X161873166Y-76823334D01*
X162099286Y-77008906D01*
X162357266Y-77146799D01*
X162637189Y-77231713D01*
X162855350Y-77253200D01*
X162965488Y-77253200D01*
X162955058Y-77265909D01*
X162900602Y-77347408D01*
X162841636Y-77457725D01*
X162804127Y-77548281D01*
X162767818Y-77667977D01*
X162748696Y-77764110D01*
X162736436Y-77888591D01*
X162736436Y-77913150D01*
X162734028Y-77937600D01*
X162734028Y-78437600D01*
X162746288Y-78562082D01*
X162754029Y-78587600D01*
X162746288Y-78613118D01*
X162734028Y-78737600D01*
X162734028Y-79237600D01*
X162736436Y-79262050D01*
X162736436Y-79286609D01*
X162748696Y-79411090D01*
X162767818Y-79507223D01*
X162804127Y-79626919D01*
X162841636Y-79717475D01*
X162900602Y-79827792D01*
X162955058Y-79909291D01*
X163034410Y-80005982D01*
X163103718Y-80075290D01*
X163200409Y-80154642D01*
X163281908Y-80209098D01*
X163392225Y-80268064D01*
X163482781Y-80305573D01*
X163602477Y-80341882D01*
X163698610Y-80361004D01*
X163823091Y-80373264D01*
X163847650Y-80373264D01*
X163872100Y-80375672D01*
X164096701Y-80375672D01*
X164096700Y-84979298D01*
X164093260Y-85014224D01*
X164096700Y-85049150D01*
X164096700Y-85049159D01*
X164106991Y-85153643D01*
X164147658Y-85287704D01*
X164213698Y-85411256D01*
X164302573Y-85519550D01*
X164329710Y-85541821D01*
X164382117Y-85594228D01*
X164310300Y-85594228D01*
X164285850Y-85596636D01*
X164261291Y-85596636D01*
X164136810Y-85608896D01*
X164040677Y-85628018D01*
X163920981Y-85664327D01*
X163830425Y-85701836D01*
X163720108Y-85760802D01*
X163638609Y-85815258D01*
X163541918Y-85894610D01*
X163472610Y-85963918D01*
X163393258Y-86060609D01*
X163338802Y-86142108D01*
X163279836Y-86252425D01*
X163242327Y-86342981D01*
X163206018Y-86462677D01*
X163186896Y-86558810D01*
X163174636Y-86683291D01*
X163174636Y-86707850D01*
X163172228Y-86732300D01*
X163172228Y-87232300D01*
X163174636Y-87256750D01*
X163174636Y-87281309D01*
X163186896Y-87405790D01*
X163206018Y-87501923D01*
X163242327Y-87621619D01*
X163279836Y-87712175D01*
X163338802Y-87822492D01*
X163393258Y-87903991D01*
X163472610Y-88000682D01*
X163541918Y-88069990D01*
X163599100Y-88116918D01*
X163599101Y-91493136D01*
X162688211Y-92404028D01*
X162661074Y-92426299D01*
X162572199Y-92534593D01*
X162506159Y-92658145D01*
X162465492Y-92792206D01*
X162463958Y-92807780D01*
X160760109Y-94511629D01*
X160732972Y-94533901D01*
X160660032Y-94622778D01*
X160461250Y-94603200D01*
X160315350Y-94603200D01*
X160097189Y-94624687D01*
X159817266Y-94709601D01*
X159559286Y-94847494D01*
X159333166Y-95033066D01*
X159147594Y-95259186D01*
X159118300Y-95313991D01*
X159089006Y-95259186D01*
X158903434Y-95033066D01*
X158677314Y-94847494D01*
X158419334Y-94709601D01*
X158139411Y-94624687D01*
X157921250Y-94603200D01*
X157775350Y-94603200D01*
X157557189Y-94624687D01*
X157277266Y-94709601D01*
X157019286Y-94847494D01*
X156793166Y-95033066D01*
X156607594Y-95259186D01*
X156578300Y-95313991D01*
X156549006Y-95259186D01*
X156363434Y-95033066D01*
X156137314Y-94847494D01*
X155879334Y-94709601D01*
X155599411Y-94624687D01*
X155381250Y-94603200D01*
X155235350Y-94603200D01*
X155017189Y-94624687D01*
X154737266Y-94709601D01*
X154479286Y-94847494D01*
X154253166Y-95033066D01*
X154067594Y-95259186D01*
X154038300Y-95313991D01*
X154009006Y-95259186D01*
X153823434Y-95033066D01*
X153597314Y-94847494D01*
X153339334Y-94709601D01*
X153059411Y-94624687D01*
X152841250Y-94603200D01*
X152695350Y-94603200D01*
X152477189Y-94624687D01*
X152197266Y-94709601D01*
X151939286Y-94847494D01*
X151713166Y-95033066D01*
X151527594Y-95259186D01*
X151498300Y-95313991D01*
X151469006Y-95259186D01*
X151283434Y-95033066D01*
X151057314Y-94847494D01*
X150799334Y-94709601D01*
X150519411Y-94624687D01*
X150301250Y-94603200D01*
X150155350Y-94603200D01*
X149937189Y-94624687D01*
X149657266Y-94709601D01*
X149399286Y-94847494D01*
X149173166Y-95033066D01*
X148987594Y-95259186D01*
X148958300Y-95313991D01*
X148929006Y-95259186D01*
X148743434Y-95033066D01*
X148517314Y-94847494D01*
X148259334Y-94709601D01*
X147979411Y-94624687D01*
X147761250Y-94603200D01*
X147615350Y-94603200D01*
X147397189Y-94624687D01*
X147117266Y-94709601D01*
X146859286Y-94847494D01*
X146633166Y-95033066D01*
X146447594Y-95259186D01*
X146418300Y-95313991D01*
X146389006Y-95259186D01*
X146203434Y-95033066D01*
X145977314Y-94847494D01*
X145719334Y-94709601D01*
X145439411Y-94624687D01*
X145221250Y-94603200D01*
X145075350Y-94603200D01*
X144857189Y-94624687D01*
X144577266Y-94709601D01*
X144319286Y-94847494D01*
X144093166Y-95033066D01*
X143907594Y-95259186D01*
X143873099Y-95323723D01*
X143803478Y-95206845D01*
X143608569Y-94990612D01*
X143375220Y-94816559D01*
X143112399Y-94691375D01*
X142965190Y-94646724D01*
X142735300Y-94768045D01*
X142735300Y-95961200D01*
X142755300Y-95961200D01*
X142755300Y-96215200D01*
X142735300Y-96215200D01*
X142735300Y-96235200D01*
X142481300Y-96235200D01*
X142481300Y-96215200D01*
X142461300Y-96215200D01*
X142461300Y-95961200D01*
X142481300Y-95961200D01*
X142481300Y-94768045D01*
X142251410Y-94646724D01*
X142104201Y-94691375D01*
X141841380Y-94816559D01*
X141608031Y-94990612D01*
X141413122Y-95206845D01*
X141343501Y-95323723D01*
X141309006Y-95259186D01*
X141123434Y-95033066D01*
X140897314Y-94847494D01*
X140639334Y-94709601D01*
X140359411Y-94624687D01*
X140141250Y-94603200D01*
X139995350Y-94603200D01*
X139777189Y-94624687D01*
X139497266Y-94709601D01*
X139239286Y-94847494D01*
X139013166Y-95033066D01*
X138827594Y-95259186D01*
X138798300Y-95313991D01*
X138769006Y-95259186D01*
X138583434Y-95033066D01*
X138357314Y-94847494D01*
X138099334Y-94709601D01*
X137819411Y-94624687D01*
X137601250Y-94603200D01*
X137455350Y-94603200D01*
X137237189Y-94624687D01*
X136957266Y-94709601D01*
X136699286Y-94847494D01*
X136473166Y-95033066D01*
X136448693Y-95062887D01*
X136427802Y-94994020D01*
X136368837Y-94883706D01*
X136289485Y-94787015D01*
X136192794Y-94707663D01*
X136082480Y-94648698D01*
X135962782Y-94612388D01*
X135838300Y-94600128D01*
X134138300Y-94600128D01*
X134013818Y-94612388D01*
X133894120Y-94648698D01*
X133783806Y-94707663D01*
X133713300Y-94765526D01*
X133713300Y-94568524D01*
X133615882Y-94078768D01*
X133424788Y-93617427D01*
X133327617Y-93472000D01*
X134239000Y-93472000D01*
X134263776Y-93469560D01*
X134287601Y-93462333D01*
X134309557Y-93450597D01*
X134328803Y-93434803D01*
X134344597Y-93415557D01*
X134356333Y-93393601D01*
X134363560Y-93369776D01*
X134366000Y-93345000D01*
X134366000Y-85566436D01*
X136410700Y-85566436D01*
X136410700Y-85756564D01*
X136447792Y-85943038D01*
X136520551Y-86118694D01*
X136626180Y-86276779D01*
X136709401Y-86360000D01*
X136638880Y-86430521D01*
X136533251Y-86588606D01*
X136460492Y-86764262D01*
X136423400Y-86950736D01*
X136423400Y-87140864D01*
X136460492Y-87327338D01*
X136533251Y-87502994D01*
X136638880Y-87661079D01*
X136773321Y-87795520D01*
X136931406Y-87901149D01*
X137107062Y-87973908D01*
X137293536Y-88011000D01*
X137483664Y-88011000D01*
X137670138Y-87973908D01*
X137845794Y-87901149D01*
X138003879Y-87795520D01*
X138042399Y-87757000D01*
X138106401Y-87757000D01*
X138157621Y-87808220D01*
X138315706Y-87913849D01*
X138491362Y-87986608D01*
X138677836Y-88023700D01*
X138867964Y-88023700D01*
X139054438Y-87986608D01*
X139230094Y-87913849D01*
X139379025Y-87814336D01*
X140817600Y-87814336D01*
X140817600Y-88004464D01*
X140854692Y-88190938D01*
X140927451Y-88366594D01*
X141033080Y-88524679D01*
X141167521Y-88659120D01*
X141325606Y-88764749D01*
X141501262Y-88837508D01*
X141687736Y-88874600D01*
X141877864Y-88874600D01*
X142064338Y-88837508D01*
X142239994Y-88764749D01*
X142398079Y-88659120D01*
X142532520Y-88524679D01*
X142638149Y-88366594D01*
X142677257Y-88272178D01*
X142844637Y-88104799D01*
X144449559Y-88104799D01*
X144512987Y-88156853D01*
X144513775Y-88157274D01*
X144520321Y-88163820D01*
X144678406Y-88269449D01*
X144854062Y-88342208D01*
X145040536Y-88379300D01*
X145230664Y-88379300D01*
X145417138Y-88342208D01*
X145592794Y-88269449D01*
X145750879Y-88163820D01*
X145885320Y-88029379D01*
X145990949Y-87871294D01*
X146063708Y-87695638D01*
X146100800Y-87509164D01*
X146100800Y-87319036D01*
X146063708Y-87132562D01*
X145990949Y-86956906D01*
X145885320Y-86798821D01*
X145859452Y-86772953D01*
X145914749Y-86690194D01*
X145987508Y-86514538D01*
X146024600Y-86328064D01*
X146024600Y-86137936D01*
X145987508Y-85951462D01*
X145918918Y-85785870D01*
X145974808Y-85650938D01*
X146011900Y-85464464D01*
X146011900Y-85274336D01*
X145974808Y-85087862D01*
X145902049Y-84912206D01*
X145796420Y-84754121D01*
X145661979Y-84619680D01*
X145503894Y-84514051D01*
X145328238Y-84441292D01*
X145141764Y-84404200D01*
X144951636Y-84404200D01*
X144765162Y-84441292D01*
X144589506Y-84514051D01*
X144431421Y-84619680D01*
X144392901Y-84658200D01*
X142881099Y-84658200D01*
X142829879Y-84606980D01*
X142671794Y-84501351D01*
X142496138Y-84428592D01*
X142309664Y-84391500D01*
X142119536Y-84391500D01*
X141933062Y-84428592D01*
X141757406Y-84501351D01*
X141599321Y-84606980D01*
X141464880Y-84741421D01*
X141359251Y-84899506D01*
X141286492Y-85075162D01*
X141249400Y-85261636D01*
X141249400Y-85451764D01*
X141286492Y-85638238D01*
X141354394Y-85802168D01*
X141346551Y-85813906D01*
X141273792Y-85989562D01*
X141236700Y-86176036D01*
X141236700Y-86366164D01*
X141273792Y-86552638D01*
X141346551Y-86728294D01*
X141452180Y-86886379D01*
X141500383Y-86934582D01*
X141420022Y-87014943D01*
X141325606Y-87054051D01*
X141167521Y-87159680D01*
X141033080Y-87294121D01*
X140927451Y-87452206D01*
X140854692Y-87627862D01*
X140817600Y-87814336D01*
X139379025Y-87814336D01*
X139388179Y-87808220D01*
X139522620Y-87673779D01*
X139628249Y-87515694D01*
X139701008Y-87340038D01*
X139738100Y-87153564D01*
X139738100Y-86963436D01*
X139701008Y-86776962D01*
X139628249Y-86601306D01*
X139615459Y-86582164D01*
X139679049Y-86486994D01*
X139751808Y-86311338D01*
X139788900Y-86124864D01*
X139788900Y-85934736D01*
X139751808Y-85748262D01*
X139679049Y-85572606D01*
X139573420Y-85414521D01*
X139438979Y-85280080D01*
X139280894Y-85174451D01*
X139105238Y-85101692D01*
X138918764Y-85064600D01*
X138728636Y-85064600D01*
X138542162Y-85101692D01*
X138366506Y-85174451D01*
X138250883Y-85251708D01*
X138231249Y-85204306D01*
X138125620Y-85046221D01*
X137991179Y-84911780D01*
X137833094Y-84806151D01*
X137657438Y-84733392D01*
X137470964Y-84696300D01*
X137280836Y-84696300D01*
X137094362Y-84733392D01*
X136918706Y-84806151D01*
X136760621Y-84911780D01*
X136626180Y-85046221D01*
X136520551Y-85204306D01*
X136447792Y-85379962D01*
X136410700Y-85566436D01*
X134366000Y-85566436D01*
X134366000Y-83185000D01*
X134363560Y-83160224D01*
X134356333Y-83136399D01*
X134344597Y-83114443D01*
X134328803Y-83095197D01*
X134309557Y-83079403D01*
X134287601Y-83067667D01*
X134263776Y-83060440D01*
X134239000Y-83058000D01*
X129298300Y-83058000D01*
X129298300Y-78743231D01*
X129562332Y-79007263D01*
X129977527Y-79284688D01*
X130438868Y-79475782D01*
X130928624Y-79573200D01*
X131427976Y-79573200D01*
X131917732Y-79475782D01*
X132379073Y-79284688D01*
X132794268Y-79007263D01*
X133147363Y-78654168D01*
X133424788Y-78238973D01*
X133615882Y-77777632D01*
X133713300Y-77287876D01*
X133713300Y-76788524D01*
X133615882Y-76298768D01*
X133424788Y-75837427D01*
X133147363Y-75422232D01*
X132883331Y-75158200D01*
X134577400Y-75158200D01*
X134452762Y-75182992D01*
X134452762Y-75182992D01*
G37*
X134452762Y-75182992D02*
X134277106Y-75255751D01*
X134119021Y-75361380D01*
X133984580Y-75495821D01*
X133878951Y-75653906D01*
X133806192Y-75829562D01*
X133769100Y-76016036D01*
X133769100Y-76206164D01*
X133806192Y-76392638D01*
X133878951Y-76568294D01*
X133984580Y-76726379D01*
X134119021Y-76860820D01*
X134277106Y-76966449D01*
X134356594Y-76999374D01*
X134288792Y-77163062D01*
X134251700Y-77349536D01*
X134251700Y-77539664D01*
X134288792Y-77726138D01*
X134361551Y-77901794D01*
X134467180Y-78059879D01*
X134505701Y-78098400D01*
X134505701Y-78650039D01*
X134502260Y-78684974D01*
X134505701Y-78719910D01*
X134515992Y-78824394D01*
X134544345Y-78917862D01*
X134556659Y-78958455D01*
X134622698Y-79082006D01*
X134687603Y-79161092D01*
X134711574Y-79190301D01*
X134738710Y-79212571D01*
X135928428Y-80402290D01*
X135928428Y-80704500D01*
X135930836Y-80728950D01*
X135930836Y-80753509D01*
X135943096Y-80877990D01*
X135962218Y-80974123D01*
X135998527Y-81093819D01*
X136036036Y-81184375D01*
X136095002Y-81294692D01*
X136149458Y-81376191D01*
X136228810Y-81472882D01*
X136298118Y-81542190D01*
X136332237Y-81570191D01*
X136294610Y-81607818D01*
X136215258Y-81704509D01*
X136160802Y-81786008D01*
X136101836Y-81896325D01*
X136064327Y-81986881D01*
X136028018Y-82106577D01*
X136008896Y-82202710D01*
X135996636Y-82327191D01*
X135996636Y-82351750D01*
X135994228Y-82376200D01*
X135994228Y-82876200D01*
X135996636Y-82900650D01*
X135996636Y-82925209D01*
X136008896Y-83049690D01*
X136028018Y-83145823D01*
X136064327Y-83265519D01*
X136101836Y-83356075D01*
X136160802Y-83466392D01*
X136215258Y-83547891D01*
X136294610Y-83644582D01*
X136363918Y-83713890D01*
X136460609Y-83793242D01*
X136516642Y-83830682D01*
X136538098Y-83870824D01*
X136600614Y-83947000D01*
X136626974Y-83979119D01*
X136654110Y-84001389D01*
X136783316Y-84130595D01*
X136805591Y-84157737D01*
X136913885Y-84246612D01*
X137037437Y-84312652D01*
X137171498Y-84353319D01*
X137275982Y-84363610D01*
X137275992Y-84363610D01*
X137310918Y-84367050D01*
X137345844Y-84363610D01*
X143710390Y-84363610D01*
X143745316Y-84367050D01*
X143780242Y-84363610D01*
X143780252Y-84363610D01*
X143884736Y-84353319D01*
X144018797Y-84312652D01*
X144142349Y-84246612D01*
X144250643Y-84157737D01*
X144272917Y-84130596D01*
X144656515Y-83746999D01*
X145564467Y-83746999D01*
X145564827Y-83747438D01*
X145673121Y-83836313D01*
X145796673Y-83902353D01*
X145930734Y-83943020D01*
X146035218Y-83953311D01*
X146035227Y-83953311D01*
X146070153Y-83956751D01*
X146105079Y-83953311D01*
X147164463Y-83953311D01*
X147199389Y-83956751D01*
X147234315Y-83953311D01*
X147234325Y-83953311D01*
X147338809Y-83943020D01*
X147472870Y-83902353D01*
X147596422Y-83836313D01*
X147704716Y-83747438D01*
X147726990Y-83720297D01*
X148198789Y-83248500D01*
X148253264Y-83248500D01*
X148439738Y-83211408D01*
X148615394Y-83138649D01*
X148773479Y-83033020D01*
X148907920Y-82898579D01*
X148915833Y-82886736D01*
X150037800Y-82886736D01*
X150037800Y-83076864D01*
X150074892Y-83263338D01*
X150147651Y-83438994D01*
X150253280Y-83597079D01*
X150387721Y-83731520D01*
X150545806Y-83837149D01*
X150721462Y-83909908D01*
X150907936Y-83947000D01*
X150962412Y-83947000D01*
X152158701Y-85143290D01*
X152158700Y-87217501D01*
X152120180Y-87256021D01*
X152014551Y-87414106D01*
X151941792Y-87589762D01*
X151904700Y-87776236D01*
X151904700Y-87966364D01*
X151941792Y-88152838D01*
X152014551Y-88328494D01*
X152120180Y-88486579D01*
X152254621Y-88621020D01*
X152412706Y-88726649D01*
X152588362Y-88799408D01*
X152774836Y-88836500D01*
X152964964Y-88836500D01*
X153151438Y-88799408D01*
X153327094Y-88726649D01*
X153485179Y-88621020D01*
X153619620Y-88486579D01*
X153725249Y-88328494D01*
X153798008Y-88152838D01*
X153835100Y-87966364D01*
X153835100Y-87776236D01*
X153798008Y-87589762D01*
X153725249Y-87414106D01*
X153619620Y-87256021D01*
X153581100Y-87217501D01*
X153581100Y-84883625D01*
X153584540Y-84848699D01*
X153581100Y-84813773D01*
X153581100Y-84813764D01*
X153570809Y-84709280D01*
X153530142Y-84575219D01*
X153464102Y-84451667D01*
X153397497Y-84370508D01*
X153397493Y-84370504D01*
X153375227Y-84343373D01*
X153348096Y-84321107D01*
X151968200Y-82941212D01*
X151968200Y-82886736D01*
X151931108Y-82700262D01*
X151858349Y-82524606D01*
X151752720Y-82366521D01*
X151618279Y-82232080D01*
X151460194Y-82126451D01*
X151284538Y-82053692D01*
X151098064Y-82016600D01*
X150907936Y-82016600D01*
X150721462Y-82053692D01*
X150545806Y-82126451D01*
X150387721Y-82232080D01*
X150253280Y-82366521D01*
X150147651Y-82524606D01*
X150074892Y-82700262D01*
X150037800Y-82886736D01*
X148915833Y-82886736D01*
X149013549Y-82740494D01*
X149086308Y-82564838D01*
X149123400Y-82378364D01*
X149123400Y-82188236D01*
X149086308Y-82001762D01*
X149013549Y-81826106D01*
X148907920Y-81668021D01*
X148773479Y-81533580D01*
X148629702Y-81437511D01*
X149371415Y-80695800D01*
X150511761Y-80695800D01*
X150550281Y-80734320D01*
X150708366Y-80839949D01*
X150884022Y-80912708D01*
X151070496Y-80949800D01*
X151260624Y-80949800D01*
X151447098Y-80912708D01*
X151622754Y-80839949D01*
X151780839Y-80734320D01*
X151915280Y-80599879D01*
X152020909Y-80441794D01*
X152093668Y-80266138D01*
X152130760Y-80079664D01*
X152130760Y-79889536D01*
X152093668Y-79703062D01*
X152020909Y-79527406D01*
X151915280Y-79369321D01*
X151780839Y-79234880D01*
X151622754Y-79129251D01*
X151447098Y-79056492D01*
X151260624Y-79019400D01*
X151070496Y-79019400D01*
X150884022Y-79056492D01*
X150708366Y-79129251D01*
X150550281Y-79234880D01*
X150511761Y-79273400D01*
X149111754Y-79273400D01*
X149076826Y-79269960D01*
X149041897Y-79273400D01*
X149041890Y-79273400D01*
X148938513Y-79283582D01*
X148937406Y-79283691D01*
X148803345Y-79324358D01*
X148679793Y-79390398D01*
X148598635Y-79457002D01*
X148598630Y-79457007D01*
X148571499Y-79479273D01*
X148549233Y-79506404D01*
X147942300Y-80113338D01*
X147942300Y-78836553D01*
X147981408Y-78742138D01*
X148017200Y-78562200D01*
X158445200Y-78562200D01*
X158469976Y-78559760D01*
X158493801Y-78552533D01*
X158515757Y-78540797D01*
X158535003Y-78525003D01*
X158550797Y-78505757D01*
X158562533Y-78483801D01*
X158569760Y-78459976D01*
X158572200Y-78435200D01*
X158572200Y-78433672D01*
X158693281Y-78396942D01*
X158816833Y-78330902D01*
X158925127Y-78242027D01*
X158947402Y-78214885D01*
X159969354Y-77192934D01*
X160097189Y-77231713D01*
X160315350Y-77253200D01*
X160461250Y-77253200D01*
X160679411Y-77231713D01*
X160959334Y-77146799D01*
X161217314Y-77008906D01*
X161443434Y-76823334D01*
X161629006Y-76597214D01*
X161658300Y-76542409D01*
X161687594Y-76597214D01*
X161873166Y-76823334D01*
X162099286Y-77008906D01*
X162357266Y-77146799D01*
X162637189Y-77231713D01*
X162855350Y-77253200D01*
X162965488Y-77253200D01*
X162955058Y-77265909D01*
X162900602Y-77347408D01*
X162841636Y-77457725D01*
X162804127Y-77548281D01*
X162767818Y-77667977D01*
X162748696Y-77764110D01*
X162736436Y-77888591D01*
X162736436Y-77913150D01*
X162734028Y-77937600D01*
X162734028Y-78437600D01*
X162746288Y-78562082D01*
X162754029Y-78587600D01*
X162746288Y-78613118D01*
X162734028Y-78737600D01*
X162734028Y-79237600D01*
X162736436Y-79262050D01*
X162736436Y-79286609D01*
X162748696Y-79411090D01*
X162767818Y-79507223D01*
X162804127Y-79626919D01*
X162841636Y-79717475D01*
X162900602Y-79827792D01*
X162955058Y-79909291D01*
X163034410Y-80005982D01*
X163103718Y-80075290D01*
X163200409Y-80154642D01*
X163281908Y-80209098D01*
X163392225Y-80268064D01*
X163482781Y-80305573D01*
X163602477Y-80341882D01*
X163698610Y-80361004D01*
X163823091Y-80373264D01*
X163847650Y-80373264D01*
X163872100Y-80375672D01*
X164096701Y-80375672D01*
X164096700Y-84979298D01*
X164093260Y-85014224D01*
X164096700Y-85049150D01*
X164096700Y-85049159D01*
X164106991Y-85153643D01*
X164147658Y-85287704D01*
X164213698Y-85411256D01*
X164302573Y-85519550D01*
X164329710Y-85541821D01*
X164382117Y-85594228D01*
X164310300Y-85594228D01*
X164285850Y-85596636D01*
X164261291Y-85596636D01*
X164136810Y-85608896D01*
X164040677Y-85628018D01*
X163920981Y-85664327D01*
X163830425Y-85701836D01*
X163720108Y-85760802D01*
X163638609Y-85815258D01*
X163541918Y-85894610D01*
X163472610Y-85963918D01*
X163393258Y-86060609D01*
X163338802Y-86142108D01*
X163279836Y-86252425D01*
X163242327Y-86342981D01*
X163206018Y-86462677D01*
X163186896Y-86558810D01*
X163174636Y-86683291D01*
X163174636Y-86707850D01*
X163172228Y-86732300D01*
X163172228Y-87232300D01*
X163174636Y-87256750D01*
X163174636Y-87281309D01*
X163186896Y-87405790D01*
X163206018Y-87501923D01*
X163242327Y-87621619D01*
X163279836Y-87712175D01*
X163338802Y-87822492D01*
X163393258Y-87903991D01*
X163472610Y-88000682D01*
X163541918Y-88069990D01*
X163599100Y-88116918D01*
X163599101Y-91493136D01*
X162688211Y-92404028D01*
X162661074Y-92426299D01*
X162572199Y-92534593D01*
X162506159Y-92658145D01*
X162465492Y-92792206D01*
X162463958Y-92807780D01*
X160760109Y-94511629D01*
X160732972Y-94533901D01*
X160660032Y-94622778D01*
X160461250Y-94603200D01*
X160315350Y-94603200D01*
X160097189Y-94624687D01*
X159817266Y-94709601D01*
X159559286Y-94847494D01*
X159333166Y-95033066D01*
X159147594Y-95259186D01*
X159118300Y-95313991D01*
X159089006Y-95259186D01*
X158903434Y-95033066D01*
X158677314Y-94847494D01*
X158419334Y-94709601D01*
X158139411Y-94624687D01*
X157921250Y-94603200D01*
X157775350Y-94603200D01*
X157557189Y-94624687D01*
X157277266Y-94709601D01*
X157019286Y-94847494D01*
X156793166Y-95033066D01*
X156607594Y-95259186D01*
X156578300Y-95313991D01*
X156549006Y-95259186D01*
X156363434Y-95033066D01*
X156137314Y-94847494D01*
X155879334Y-94709601D01*
X155599411Y-94624687D01*
X155381250Y-94603200D01*
X155235350Y-94603200D01*
X155017189Y-94624687D01*
X154737266Y-94709601D01*
X154479286Y-94847494D01*
X154253166Y-95033066D01*
X154067594Y-95259186D01*
X154038300Y-95313991D01*
X154009006Y-95259186D01*
X153823434Y-95033066D01*
X153597314Y-94847494D01*
X153339334Y-94709601D01*
X153059411Y-94624687D01*
X152841250Y-94603200D01*
X152695350Y-94603200D01*
X152477189Y-94624687D01*
X152197266Y-94709601D01*
X151939286Y-94847494D01*
X151713166Y-95033066D01*
X151527594Y-95259186D01*
X151498300Y-95313991D01*
X151469006Y-95259186D01*
X151283434Y-95033066D01*
X151057314Y-94847494D01*
X150799334Y-94709601D01*
X150519411Y-94624687D01*
X150301250Y-94603200D01*
X150155350Y-94603200D01*
X149937189Y-94624687D01*
X149657266Y-94709601D01*
X149399286Y-94847494D01*
X149173166Y-95033066D01*
X148987594Y-95259186D01*
X148958300Y-95313991D01*
X148929006Y-95259186D01*
X148743434Y-95033066D01*
X148517314Y-94847494D01*
X148259334Y-94709601D01*
X147979411Y-94624687D01*
X147761250Y-94603200D01*
X147615350Y-94603200D01*
X147397189Y-94624687D01*
X147117266Y-94709601D01*
X146859286Y-94847494D01*
X146633166Y-95033066D01*
X146447594Y-95259186D01*
X146418300Y-95313991D01*
X146389006Y-95259186D01*
X146203434Y-95033066D01*
X145977314Y-94847494D01*
X145719334Y-94709601D01*
X145439411Y-94624687D01*
X145221250Y-94603200D01*
X145075350Y-94603200D01*
X144857189Y-94624687D01*
X144577266Y-94709601D01*
X144319286Y-94847494D01*
X144093166Y-95033066D01*
X143907594Y-95259186D01*
X143873099Y-95323723D01*
X143803478Y-95206845D01*
X143608569Y-94990612D01*
X143375220Y-94816559D01*
X143112399Y-94691375D01*
X142965190Y-94646724D01*
X142735300Y-94768045D01*
X142735300Y-95961200D01*
X142755300Y-95961200D01*
X142755300Y-96215200D01*
X142735300Y-96215200D01*
X142735300Y-96235200D01*
X142481300Y-96235200D01*
X142481300Y-96215200D01*
X142461300Y-96215200D01*
X142461300Y-95961200D01*
X142481300Y-95961200D01*
X142481300Y-94768045D01*
X142251410Y-94646724D01*
X142104201Y-94691375D01*
X141841380Y-94816559D01*
X141608031Y-94990612D01*
X141413122Y-95206845D01*
X141343501Y-95323723D01*
X141309006Y-95259186D01*
X141123434Y-95033066D01*
X140897314Y-94847494D01*
X140639334Y-94709601D01*
X140359411Y-94624687D01*
X140141250Y-94603200D01*
X139995350Y-94603200D01*
X139777189Y-94624687D01*
X139497266Y-94709601D01*
X139239286Y-94847494D01*
X139013166Y-95033066D01*
X138827594Y-95259186D01*
X138798300Y-95313991D01*
X138769006Y-95259186D01*
X138583434Y-95033066D01*
X138357314Y-94847494D01*
X138099334Y-94709601D01*
X137819411Y-94624687D01*
X137601250Y-94603200D01*
X137455350Y-94603200D01*
X137237189Y-94624687D01*
X136957266Y-94709601D01*
X136699286Y-94847494D01*
X136473166Y-95033066D01*
X136448693Y-95062887D01*
X136427802Y-94994020D01*
X136368837Y-94883706D01*
X136289485Y-94787015D01*
X136192794Y-94707663D01*
X136082480Y-94648698D01*
X135962782Y-94612388D01*
X135838300Y-94600128D01*
X134138300Y-94600128D01*
X134013818Y-94612388D01*
X133894120Y-94648698D01*
X133783806Y-94707663D01*
X133713300Y-94765526D01*
X133713300Y-94568524D01*
X133615882Y-94078768D01*
X133424788Y-93617427D01*
X133327617Y-93472000D01*
X134239000Y-93472000D01*
X134263776Y-93469560D01*
X134287601Y-93462333D01*
X134309557Y-93450597D01*
X134328803Y-93434803D01*
X134344597Y-93415557D01*
X134356333Y-93393601D01*
X134363560Y-93369776D01*
X134366000Y-93345000D01*
X134366000Y-85566436D01*
X136410700Y-85566436D01*
X136410700Y-85756564D01*
X136447792Y-85943038D01*
X136520551Y-86118694D01*
X136626180Y-86276779D01*
X136709401Y-86360000D01*
X136638880Y-86430521D01*
X136533251Y-86588606D01*
X136460492Y-86764262D01*
X136423400Y-86950736D01*
X136423400Y-87140864D01*
X136460492Y-87327338D01*
X136533251Y-87502994D01*
X136638880Y-87661079D01*
X136773321Y-87795520D01*
X136931406Y-87901149D01*
X137107062Y-87973908D01*
X137293536Y-88011000D01*
X137483664Y-88011000D01*
X137670138Y-87973908D01*
X137845794Y-87901149D01*
X138003879Y-87795520D01*
X138042399Y-87757000D01*
X138106401Y-87757000D01*
X138157621Y-87808220D01*
X138315706Y-87913849D01*
X138491362Y-87986608D01*
X138677836Y-88023700D01*
X138867964Y-88023700D01*
X139054438Y-87986608D01*
X139230094Y-87913849D01*
X139379025Y-87814336D01*
X140817600Y-87814336D01*
X140817600Y-88004464D01*
X140854692Y-88190938D01*
X140927451Y-88366594D01*
X141033080Y-88524679D01*
X141167521Y-88659120D01*
X141325606Y-88764749D01*
X141501262Y-88837508D01*
X141687736Y-88874600D01*
X141877864Y-88874600D01*
X142064338Y-88837508D01*
X142239994Y-88764749D01*
X142398079Y-88659120D01*
X142532520Y-88524679D01*
X142638149Y-88366594D01*
X142677257Y-88272178D01*
X142844637Y-88104799D01*
X144449559Y-88104799D01*
X144512987Y-88156853D01*
X144513775Y-88157274D01*
X144520321Y-88163820D01*
X144678406Y-88269449D01*
X144854062Y-88342208D01*
X145040536Y-88379300D01*
X145230664Y-88379300D01*
X145417138Y-88342208D01*
X145592794Y-88269449D01*
X145750879Y-88163820D01*
X145885320Y-88029379D01*
X145990949Y-87871294D01*
X146063708Y-87695638D01*
X146100800Y-87509164D01*
X146100800Y-87319036D01*
X146063708Y-87132562D01*
X145990949Y-86956906D01*
X145885320Y-86798821D01*
X145859452Y-86772953D01*
X145914749Y-86690194D01*
X145987508Y-86514538D01*
X146024600Y-86328064D01*
X146024600Y-86137936D01*
X145987508Y-85951462D01*
X145918918Y-85785870D01*
X145974808Y-85650938D01*
X146011900Y-85464464D01*
X146011900Y-85274336D01*
X145974808Y-85087862D01*
X145902049Y-84912206D01*
X145796420Y-84754121D01*
X145661979Y-84619680D01*
X145503894Y-84514051D01*
X145328238Y-84441292D01*
X145141764Y-84404200D01*
X144951636Y-84404200D01*
X144765162Y-84441292D01*
X144589506Y-84514051D01*
X144431421Y-84619680D01*
X144392901Y-84658200D01*
X142881099Y-84658200D01*
X142829879Y-84606980D01*
X142671794Y-84501351D01*
X142496138Y-84428592D01*
X142309664Y-84391500D01*
X142119536Y-84391500D01*
X141933062Y-84428592D01*
X141757406Y-84501351D01*
X141599321Y-84606980D01*
X141464880Y-84741421D01*
X141359251Y-84899506D01*
X141286492Y-85075162D01*
X141249400Y-85261636D01*
X141249400Y-85451764D01*
X141286492Y-85638238D01*
X141354394Y-85802168D01*
X141346551Y-85813906D01*
X141273792Y-85989562D01*
X141236700Y-86176036D01*
X141236700Y-86366164D01*
X141273792Y-86552638D01*
X141346551Y-86728294D01*
X141452180Y-86886379D01*
X141500383Y-86934582D01*
X141420022Y-87014943D01*
X141325606Y-87054051D01*
X141167521Y-87159680D01*
X141033080Y-87294121D01*
X140927451Y-87452206D01*
X140854692Y-87627862D01*
X140817600Y-87814336D01*
X139379025Y-87814336D01*
X139388179Y-87808220D01*
X139522620Y-87673779D01*
X139628249Y-87515694D01*
X139701008Y-87340038D01*
X139738100Y-87153564D01*
X139738100Y-86963436D01*
X139701008Y-86776962D01*
X139628249Y-86601306D01*
X139615459Y-86582164D01*
X139679049Y-86486994D01*
X139751808Y-86311338D01*
X139788900Y-86124864D01*
X139788900Y-85934736D01*
X139751808Y-85748262D01*
X139679049Y-85572606D01*
X139573420Y-85414521D01*
X139438979Y-85280080D01*
X139280894Y-85174451D01*
X139105238Y-85101692D01*
X138918764Y-85064600D01*
X138728636Y-85064600D01*
X138542162Y-85101692D01*
X138366506Y-85174451D01*
X138250883Y-85251708D01*
X138231249Y-85204306D01*
X138125620Y-85046221D01*
X137991179Y-84911780D01*
X137833094Y-84806151D01*
X137657438Y-84733392D01*
X137470964Y-84696300D01*
X137280836Y-84696300D01*
X137094362Y-84733392D01*
X136918706Y-84806151D01*
X136760621Y-84911780D01*
X136626180Y-85046221D01*
X136520551Y-85204306D01*
X136447792Y-85379962D01*
X136410700Y-85566436D01*
X134366000Y-85566436D01*
X134366000Y-83185000D01*
X134363560Y-83160224D01*
X134356333Y-83136399D01*
X134344597Y-83114443D01*
X134328803Y-83095197D01*
X134309557Y-83079403D01*
X134287601Y-83067667D01*
X134263776Y-83060440D01*
X134239000Y-83058000D01*
X129298300Y-83058000D01*
X129298300Y-78743231D01*
X129562332Y-79007263D01*
X129977527Y-79284688D01*
X130438868Y-79475782D01*
X130928624Y-79573200D01*
X131427976Y-79573200D01*
X131917732Y-79475782D01*
X132379073Y-79284688D01*
X132794268Y-79007263D01*
X133147363Y-78654168D01*
X133424788Y-78238973D01*
X133615882Y-77777632D01*
X133713300Y-77287876D01*
X133713300Y-76788524D01*
X133615882Y-76298768D01*
X133424788Y-75837427D01*
X133147363Y-75422232D01*
X132883331Y-75158200D01*
X134577400Y-75158200D01*
X134452762Y-75182992D01*
G36*
X167035736Y-91651136D02*
G01*
X166995388Y-91672702D01*
X166913889Y-91727158D01*
X166817198Y-91806510D01*
X166747890Y-91875818D01*
X166668538Y-91972509D01*
X166614082Y-92054008D01*
X166555116Y-92164325D01*
X166517607Y-92254881D01*
X166481298Y-92374577D01*
X166462176Y-92470710D01*
X166449916Y-92595191D01*
X166449916Y-92619750D01*
X166447508Y-92644200D01*
X166447508Y-93144200D01*
X166459768Y-93268682D01*
X166467509Y-93294200D01*
X166459768Y-93319718D01*
X166447508Y-93444200D01*
X166447508Y-93944200D01*
X166449916Y-93968650D01*
X166449916Y-93993209D01*
X166462176Y-94117690D01*
X166481298Y-94213823D01*
X166517607Y-94333519D01*
X166555116Y-94424075D01*
X166614082Y-94534392D01*
X166668538Y-94615891D01*
X166747890Y-94712582D01*
X166817198Y-94781890D01*
X166913889Y-94861242D01*
X166995388Y-94915698D01*
X167056425Y-94948323D01*
X166953166Y-95033066D01*
X166767594Y-95259186D01*
X166738300Y-95313991D01*
X166709006Y-95259186D01*
X166523434Y-95033066D01*
X166297314Y-94847494D01*
X166039334Y-94709601D01*
X165759411Y-94624687D01*
X165541250Y-94603200D01*
X165395350Y-94603200D01*
X165177189Y-94624687D01*
X164897266Y-94709601D01*
X164893601Y-94711560D01*
X164893601Y-93558112D01*
X166881516Y-91570199D01*
X167019636Y-91570199D01*
X167035736Y-91651136D01*
X167035736Y-91651136D01*
G37*
X167035736Y-91651136D02*
X166995388Y-91672702D01*
X166913889Y-91727158D01*
X166817198Y-91806510D01*
X166747890Y-91875818D01*
X166668538Y-91972509D01*
X166614082Y-92054008D01*
X166555116Y-92164325D01*
X166517607Y-92254881D01*
X166481298Y-92374577D01*
X166462176Y-92470710D01*
X166449916Y-92595191D01*
X166449916Y-92619750D01*
X166447508Y-92644200D01*
X166447508Y-93144200D01*
X166459768Y-93268682D01*
X166467509Y-93294200D01*
X166459768Y-93319718D01*
X166447508Y-93444200D01*
X166447508Y-93944200D01*
X166449916Y-93968650D01*
X166449916Y-93993209D01*
X166462176Y-94117690D01*
X166481298Y-94213823D01*
X166517607Y-94333519D01*
X166555116Y-94424075D01*
X166614082Y-94534392D01*
X166668538Y-94615891D01*
X166747890Y-94712582D01*
X166817198Y-94781890D01*
X166913889Y-94861242D01*
X166995388Y-94915698D01*
X167056425Y-94948323D01*
X166953166Y-95033066D01*
X166767594Y-95259186D01*
X166738300Y-95313991D01*
X166709006Y-95259186D01*
X166523434Y-95033066D01*
X166297314Y-94847494D01*
X166039334Y-94709601D01*
X165759411Y-94624687D01*
X165541250Y-94603200D01*
X165395350Y-94603200D01*
X165177189Y-94624687D01*
X164897266Y-94709601D01*
X164893601Y-94711560D01*
X164893601Y-93558112D01*
X166881516Y-91570199D01*
X167019636Y-91570199D01*
X167035736Y-91651136D01*
G36*
X168967850Y-94717662D02*
G01*
X169037158Y-94786970D01*
X169133849Y-94866322D01*
X169215348Y-94920778D01*
X169325665Y-94979744D01*
X169344341Y-94987480D01*
X169344341Y-95214410D01*
X169307594Y-95259186D01*
X169278300Y-95313991D01*
X169249006Y-95259186D01*
X169063434Y-95033066D01*
X168837314Y-94847494D01*
X168798986Y-94827007D01*
X168853962Y-94781890D01*
X168923270Y-94712582D01*
X168943475Y-94687961D01*
X168967850Y-94717662D01*
X168967850Y-94717662D01*
G37*
X168967850Y-94717662D02*
X169037158Y-94786970D01*
X169133849Y-94866322D01*
X169215348Y-94920778D01*
X169325665Y-94979744D01*
X169344341Y-94987480D01*
X169344341Y-95214410D01*
X169307594Y-95259186D01*
X169278300Y-95313991D01*
X169249006Y-95259186D01*
X169063434Y-95033066D01*
X168837314Y-94847494D01*
X168798986Y-94827007D01*
X168853962Y-94781890D01*
X168923270Y-94712582D01*
X168943475Y-94687961D01*
X168967850Y-94717662D01*
G36*
X166733981Y-87702727D02*
G01*
X166643425Y-87740236D01*
X166618701Y-87753451D01*
X166640764Y-87712175D01*
X166648499Y-87693500D01*
X166764399Y-87693500D01*
X166733981Y-87702727D01*
X166733981Y-87702727D01*
G37*
X166733981Y-87702727D02*
X166643425Y-87740236D01*
X166618701Y-87753451D01*
X166640764Y-87712175D01*
X166648499Y-87693500D01*
X166764399Y-87693500D01*
X166733981Y-87702727D01*
G36*
X169670700Y-84381432D02*
G01*
X169710257Y-84511832D01*
X169776297Y-84635384D01*
X169865173Y-84743678D01*
X169892309Y-84765948D01*
X169989500Y-84863140D01*
X169989501Y-86109155D01*
X169989500Y-86109165D01*
X169989500Y-86109174D01*
X169986060Y-86144100D01*
X169989500Y-86179026D01*
X169989500Y-86294084D01*
X169992970Y-86329319D01*
X169921551Y-86436206D01*
X169897401Y-86494509D01*
X169897401Y-85474399D01*
X169900841Y-85439473D01*
X169897401Y-85404547D01*
X169897401Y-85404538D01*
X169887110Y-85300054D01*
X169846443Y-85165993D01*
X169780403Y-85042441D01*
X169757246Y-85014224D01*
X169713798Y-84961282D01*
X169713789Y-84961273D01*
X169691527Y-84934147D01*
X169664401Y-84911885D01*
X169603347Y-84850832D01*
X169634908Y-84774638D01*
X169672000Y-84588164D01*
X169672000Y-84398036D01*
X169668517Y-84380527D01*
X169670700Y-84381432D01*
X169670700Y-84381432D01*
G37*
X169670700Y-84381432D02*
X169710257Y-84511832D01*
X169776297Y-84635384D01*
X169865173Y-84743678D01*
X169892309Y-84765948D01*
X169989500Y-84863140D01*
X169989501Y-86109155D01*
X169989500Y-86109165D01*
X169989500Y-86109174D01*
X169986060Y-86144100D01*
X169989500Y-86179026D01*
X169989500Y-86294084D01*
X169992970Y-86329319D01*
X169921551Y-86436206D01*
X169897401Y-86494509D01*
X169897401Y-85474399D01*
X169900841Y-85439473D01*
X169897401Y-85404547D01*
X169897401Y-85404538D01*
X169887110Y-85300054D01*
X169846443Y-85165993D01*
X169780403Y-85042441D01*
X169757246Y-85014224D01*
X169713798Y-84961282D01*
X169713789Y-84961273D01*
X169691527Y-84934147D01*
X169664401Y-84911885D01*
X169603347Y-84850832D01*
X169634908Y-84774638D01*
X169672000Y-84588164D01*
X169672000Y-84398036D01*
X169668517Y-84380527D01*
X169670700Y-84381432D01*
G36*
X142007628Y-79428200D02*
G01*
X142019888Y-79552682D01*
X142056198Y-79672380D01*
X142115163Y-79782694D01*
X142194515Y-79879385D01*
X142291206Y-79958737D01*
X142401520Y-80017702D01*
X142521218Y-80054012D01*
X142645700Y-80066272D01*
X144145700Y-80066272D01*
X144270182Y-80054012D01*
X144389880Y-80017702D01*
X144403800Y-80010262D01*
X144443062Y-80042483D01*
X144440299Y-80070539D01*
X144440299Y-80070548D01*
X144436859Y-80105474D01*
X144440299Y-80140400D01*
X144440300Y-81790137D01*
X144436859Y-81825073D01*
X144440300Y-81860009D01*
X144450591Y-81964493D01*
X144479025Y-82058226D01*
X144491258Y-82098554D01*
X144557297Y-82222105D01*
X144607212Y-82282926D01*
X144641412Y-82324599D01*
X144396855Y-82324599D01*
X144361927Y-82321159D01*
X144326998Y-82324599D01*
X144326991Y-82324599D01*
X144222507Y-82334890D01*
X144088445Y-82375557D01*
X143964894Y-82441597D01*
X143883736Y-82508201D01*
X143883731Y-82508206D01*
X143856600Y-82530472D01*
X143834334Y-82557603D01*
X143450728Y-82941210D01*
X139566388Y-82941210D01*
X139567964Y-82925209D01*
X139567964Y-82900650D01*
X139570372Y-82876200D01*
X139570372Y-82493916D01*
X139759100Y-82305189D01*
X139786226Y-82282927D01*
X139808488Y-82255801D01*
X139808498Y-82255791D01*
X139875102Y-82174633D01*
X139941142Y-82051082D01*
X139981809Y-81917020D01*
X139984838Y-81886268D01*
X139992100Y-81812536D01*
X139992100Y-81812529D01*
X139995540Y-81777600D01*
X139992100Y-81742672D01*
X139992100Y-80409269D01*
X141321669Y-79079701D01*
X141624073Y-79079701D01*
X141658999Y-79083141D01*
X141693925Y-79079701D01*
X141693935Y-79079701D01*
X141798419Y-79069410D01*
X141932480Y-79028743D01*
X142007628Y-78988576D01*
X142007628Y-79428200D01*
X142007628Y-79428200D01*
G37*
X142007628Y-79428200D02*
X142019888Y-79552682D01*
X142056198Y-79672380D01*
X142115163Y-79782694D01*
X142194515Y-79879385D01*
X142291206Y-79958737D01*
X142401520Y-80017702D01*
X142521218Y-80054012D01*
X142645700Y-80066272D01*
X144145700Y-80066272D01*
X144270182Y-80054012D01*
X144389880Y-80017702D01*
X144403800Y-80010262D01*
X144443062Y-80042483D01*
X144440299Y-80070539D01*
X144440299Y-80070548D01*
X144436859Y-80105474D01*
X144440299Y-80140400D01*
X144440300Y-81790137D01*
X144436859Y-81825073D01*
X144440300Y-81860009D01*
X144450591Y-81964493D01*
X144479025Y-82058226D01*
X144491258Y-82098554D01*
X144557297Y-82222105D01*
X144607212Y-82282926D01*
X144641412Y-82324599D01*
X144396855Y-82324599D01*
X144361927Y-82321159D01*
X144326998Y-82324599D01*
X144326991Y-82324599D01*
X144222507Y-82334890D01*
X144088445Y-82375557D01*
X143964894Y-82441597D01*
X143883736Y-82508201D01*
X143883731Y-82508206D01*
X143856600Y-82530472D01*
X143834334Y-82557603D01*
X143450728Y-82941210D01*
X139566388Y-82941210D01*
X139567964Y-82925209D01*
X139567964Y-82900650D01*
X139570372Y-82876200D01*
X139570372Y-82493916D01*
X139759100Y-82305189D01*
X139786226Y-82282927D01*
X139808488Y-82255801D01*
X139808498Y-82255791D01*
X139875102Y-82174633D01*
X139941142Y-82051082D01*
X139981809Y-81917020D01*
X139984838Y-81886268D01*
X139992100Y-81812536D01*
X139992100Y-81812529D01*
X139995540Y-81777600D01*
X139992100Y-81742672D01*
X139992100Y-80409269D01*
X141321669Y-79079701D01*
X141624073Y-79079701D01*
X141658999Y-79083141D01*
X141693925Y-79079701D01*
X141693935Y-79079701D01*
X141798419Y-79069410D01*
X141932480Y-79028743D01*
X142007628Y-78988576D01*
X142007628Y-79428200D01*
G36*
X146164300Y-81280065D02*
G01*
X146115303Y-81329062D01*
X145999206Y-81377151D01*
X145862699Y-81468362D01*
X145862699Y-80398095D01*
X145920302Y-80327906D01*
X145986342Y-80204354D01*
X146001886Y-80153113D01*
X146075820Y-80079179D01*
X146164301Y-79946758D01*
X146164300Y-81280065D01*
X146164300Y-81280065D01*
G37*
X146164300Y-81280065D02*
X146115303Y-81329062D01*
X145999206Y-81377151D01*
X145862699Y-81468362D01*
X145862699Y-80398095D01*
X145920302Y-80327906D01*
X145986342Y-80204354D01*
X146001886Y-80153113D01*
X146075820Y-80079179D01*
X146164301Y-79946758D01*
X146164300Y-81280065D01*
G36*
X133552192Y-83995662D02*
G01*
X133515100Y-84182136D01*
X133515100Y-84372264D01*
X133552192Y-84558738D01*
X133604000Y-84683814D01*
X133604000Y-92583000D01*
X132395967Y-92583000D01*
X132379073Y-92571712D01*
X131917732Y-92380618D01*
X131427976Y-92283200D01*
X130928624Y-92283200D01*
X130438868Y-92380618D01*
X129977527Y-92571712D01*
X129960633Y-92583000D01*
X129298300Y-92583000D01*
X129298300Y-83947000D01*
X133572348Y-83947000D01*
X133552192Y-83995662D01*
X133552192Y-83995662D01*
G37*
X133552192Y-83995662D02*
X133515100Y-84182136D01*
X133515100Y-84372264D01*
X133552192Y-84558738D01*
X133604000Y-84683814D01*
X133604000Y-92583000D01*
X132395967Y-92583000D01*
X132379073Y-92571712D01*
X131917732Y-92380618D01*
X131427976Y-92283200D01*
X130928624Y-92283200D01*
X130438868Y-92380618D01*
X129977527Y-92571712D01*
X129960633Y-92583000D01*
X129298300Y-92583000D01*
X129298300Y-83947000D01*
X133572348Y-83947000D01*
X133552192Y-83995662D01*
M02*
