G04 #@! TF.GenerationSoftware,KiCad,Pcbnew,(5.1.4)-1*
G04 #@! TF.CreationDate,2019-12-26T22:32:10-05:00*
G04 #@! TF.ProjectId,Feather-NEO-M9N-GPS,46656174-6865-4722-9d4e-454f2d4d394e,rev?*
G04 #@! TF.SameCoordinates,Original*
G04 #@! TF.FileFunction,Copper,L1,Top*
G04 #@! TF.FilePolarity,Positive*
%FSLAX46Y46*%
G04 Gerber Fmt 4.6, Leading zero omitted, Abs format (unit mm)*
G04 Created by KiCad (PCBNEW (5.1.4)-1) date 2019-12-26 22:32:10*
%MOMM*%
%LPD*%
G04 APERTURE LIST*
%ADD10C,0.100000*%
%ADD11R,1.800000X0.800000*%
%ADD12R,0.325000X0.250000*%
%ADD13R,1.050000X1.000000*%
%ADD14R,2.200000X1.050000*%
%ADD15R,1.900000X1.175000*%
%ADD16R,1.900000X2.375000*%
%ADD17R,2.100000X1.475000*%
%ADD18R,1.380000X0.450000*%
%ADD19C,0.875000*%
%ADD20C,0.500000*%
%ADD21R,0.500000X0.500000*%
%ADD22R,0.800000X2.000000*%
%ADD23C,0.975000*%
%ADD24C,3.800000*%
%ADD25O,1.700000X1.700000*%
%ADD26R,1.700000X1.700000*%
%ADD27C,0.660400*%
%ADD28C,0.152400*%
%ADD29C,0.508000*%
%ADD30C,0.778834*%
%ADD31C,0.304800*%
%ADD32C,0.254000*%
G04 APERTURE END LIST*
D10*
G36*
X145170080Y-81945760D02*
G01*
X145670080Y-81945760D01*
X145670080Y-81345760D01*
X145170080Y-81345760D01*
X145170080Y-81945760D01*
G37*
G36*
X145157380Y-79713100D02*
G01*
X145657380Y-79713100D01*
X145657380Y-79113100D01*
X145157380Y-79113100D01*
X145157380Y-79713100D01*
G37*
D11*
X164902400Y-79347300D03*
X164902400Y-80447300D03*
X164902400Y-81547300D03*
X164902400Y-82647300D03*
X164902400Y-83747300D03*
X164902400Y-84847300D03*
X164902400Y-85947300D03*
X164902400Y-88947300D03*
X164902400Y-90047300D03*
X164902400Y-91147300D03*
X164902400Y-92247300D03*
X164902400Y-93347300D03*
X152902400Y-93347300D03*
X152902400Y-92247300D03*
X152902400Y-91147300D03*
X152902400Y-90047300D03*
X152902400Y-88947300D03*
X152902400Y-85947300D03*
X152902400Y-84847300D03*
X152902400Y-83747300D03*
X152902400Y-82647300D03*
X152902400Y-81547300D03*
X152902400Y-80447300D03*
X152902400Y-79347300D03*
D12*
X135810440Y-87617680D03*
X135810440Y-88117680D03*
X135810440Y-88617680D03*
X135136440Y-88617680D03*
X135136440Y-88117680D03*
X135136440Y-87617680D03*
D13*
X147663900Y-92252800D03*
D14*
X146138900Y-90777800D03*
X146138900Y-93727800D03*
D15*
X130107840Y-89160880D03*
X130107840Y-87480880D03*
D16*
X130107840Y-91230880D03*
X130107840Y-85410880D03*
D17*
X132407840Y-90783380D03*
X132407840Y-85858380D03*
D18*
X132767840Y-89620880D03*
X132767840Y-88970880D03*
X132767840Y-88320880D03*
X132767840Y-87670880D03*
X132767840Y-87020880D03*
D10*
G36*
X151153691Y-78907973D02*
G01*
X151174926Y-78911123D01*
X151195750Y-78916339D01*
X151215962Y-78923571D01*
X151235368Y-78932750D01*
X151253781Y-78943786D01*
X151271024Y-78956574D01*
X151286930Y-78970990D01*
X151301346Y-78986896D01*
X151314134Y-79004139D01*
X151325170Y-79022552D01*
X151334349Y-79041958D01*
X151341581Y-79062170D01*
X151346797Y-79082994D01*
X151349947Y-79104229D01*
X151351000Y-79125670D01*
X151351000Y-79563170D01*
X151349947Y-79584611D01*
X151346797Y-79605846D01*
X151341581Y-79626670D01*
X151334349Y-79646882D01*
X151325170Y-79666288D01*
X151314134Y-79684701D01*
X151301346Y-79701944D01*
X151286930Y-79717850D01*
X151271024Y-79732266D01*
X151253781Y-79745054D01*
X151235368Y-79756090D01*
X151215962Y-79765269D01*
X151195750Y-79772501D01*
X151174926Y-79777717D01*
X151153691Y-79780867D01*
X151132250Y-79781920D01*
X150619750Y-79781920D01*
X150598309Y-79780867D01*
X150577074Y-79777717D01*
X150556250Y-79772501D01*
X150536038Y-79765269D01*
X150516632Y-79756090D01*
X150498219Y-79745054D01*
X150480976Y-79732266D01*
X150465070Y-79717850D01*
X150450654Y-79701944D01*
X150437866Y-79684701D01*
X150426830Y-79666288D01*
X150417651Y-79646882D01*
X150410419Y-79626670D01*
X150405203Y-79605846D01*
X150402053Y-79584611D01*
X150401000Y-79563170D01*
X150401000Y-79125670D01*
X150402053Y-79104229D01*
X150405203Y-79082994D01*
X150410419Y-79062170D01*
X150417651Y-79041958D01*
X150426830Y-79022552D01*
X150437866Y-79004139D01*
X150450654Y-78986896D01*
X150465070Y-78970990D01*
X150480976Y-78956574D01*
X150498219Y-78943786D01*
X150516632Y-78932750D01*
X150536038Y-78923571D01*
X150556250Y-78916339D01*
X150577074Y-78911123D01*
X150598309Y-78907973D01*
X150619750Y-78906920D01*
X151132250Y-78906920D01*
X151153691Y-78907973D01*
X151153691Y-78907973D01*
G37*
D19*
X150876000Y-79344420D03*
D10*
G36*
X151153691Y-80482973D02*
G01*
X151174926Y-80486123D01*
X151195750Y-80491339D01*
X151215962Y-80498571D01*
X151235368Y-80507750D01*
X151253781Y-80518786D01*
X151271024Y-80531574D01*
X151286930Y-80545990D01*
X151301346Y-80561896D01*
X151314134Y-80579139D01*
X151325170Y-80597552D01*
X151334349Y-80616958D01*
X151341581Y-80637170D01*
X151346797Y-80657994D01*
X151349947Y-80679229D01*
X151351000Y-80700670D01*
X151351000Y-81138170D01*
X151349947Y-81159611D01*
X151346797Y-81180846D01*
X151341581Y-81201670D01*
X151334349Y-81221882D01*
X151325170Y-81241288D01*
X151314134Y-81259701D01*
X151301346Y-81276944D01*
X151286930Y-81292850D01*
X151271024Y-81307266D01*
X151253781Y-81320054D01*
X151235368Y-81331090D01*
X151215962Y-81340269D01*
X151195750Y-81347501D01*
X151174926Y-81352717D01*
X151153691Y-81355867D01*
X151132250Y-81356920D01*
X150619750Y-81356920D01*
X150598309Y-81355867D01*
X150577074Y-81352717D01*
X150556250Y-81347501D01*
X150536038Y-81340269D01*
X150516632Y-81331090D01*
X150498219Y-81320054D01*
X150480976Y-81307266D01*
X150465070Y-81292850D01*
X150450654Y-81276944D01*
X150437866Y-81259701D01*
X150426830Y-81241288D01*
X150417651Y-81221882D01*
X150410419Y-81201670D01*
X150405203Y-81180846D01*
X150402053Y-81159611D01*
X150401000Y-81138170D01*
X150401000Y-80700670D01*
X150402053Y-80679229D01*
X150405203Y-80657994D01*
X150410419Y-80637170D01*
X150417651Y-80616958D01*
X150426830Y-80597552D01*
X150437866Y-80579139D01*
X150450654Y-80561896D01*
X150465070Y-80545990D01*
X150480976Y-80531574D01*
X150498219Y-80518786D01*
X150516632Y-80507750D01*
X150536038Y-80498571D01*
X150556250Y-80491339D01*
X150577074Y-80486123D01*
X150598309Y-80482973D01*
X150619750Y-80481920D01*
X151132250Y-80481920D01*
X151153691Y-80482973D01*
X151153691Y-80482973D01*
G37*
D19*
X150876000Y-80919420D03*
D10*
G36*
X143557411Y-81171813D02*
G01*
X143578646Y-81174963D01*
X143599470Y-81180179D01*
X143619682Y-81187411D01*
X143639088Y-81196590D01*
X143657501Y-81207626D01*
X143674744Y-81220414D01*
X143690650Y-81234830D01*
X143705066Y-81250736D01*
X143717854Y-81267979D01*
X143728890Y-81286392D01*
X143738069Y-81305798D01*
X143745301Y-81326010D01*
X143750517Y-81346834D01*
X143753667Y-81368069D01*
X143754720Y-81389510D01*
X143754720Y-81902010D01*
X143753667Y-81923451D01*
X143750517Y-81944686D01*
X143745301Y-81965510D01*
X143738069Y-81985722D01*
X143728890Y-82005128D01*
X143717854Y-82023541D01*
X143705066Y-82040784D01*
X143690650Y-82056690D01*
X143674744Y-82071106D01*
X143657501Y-82083894D01*
X143639088Y-82094930D01*
X143619682Y-82104109D01*
X143599470Y-82111341D01*
X143578646Y-82116557D01*
X143557411Y-82119707D01*
X143535970Y-82120760D01*
X143098470Y-82120760D01*
X143077029Y-82119707D01*
X143055794Y-82116557D01*
X143034970Y-82111341D01*
X143014758Y-82104109D01*
X142995352Y-82094930D01*
X142976939Y-82083894D01*
X142959696Y-82071106D01*
X142943790Y-82056690D01*
X142929374Y-82040784D01*
X142916586Y-82023541D01*
X142905550Y-82005128D01*
X142896371Y-81985722D01*
X142889139Y-81965510D01*
X142883923Y-81944686D01*
X142880773Y-81923451D01*
X142879720Y-81902010D01*
X142879720Y-81389510D01*
X142880773Y-81368069D01*
X142883923Y-81346834D01*
X142889139Y-81326010D01*
X142896371Y-81305798D01*
X142905550Y-81286392D01*
X142916586Y-81267979D01*
X142929374Y-81250736D01*
X142943790Y-81234830D01*
X142959696Y-81220414D01*
X142976939Y-81207626D01*
X142995352Y-81196590D01*
X143014758Y-81187411D01*
X143034970Y-81180179D01*
X143055794Y-81174963D01*
X143077029Y-81171813D01*
X143098470Y-81170760D01*
X143535970Y-81170760D01*
X143557411Y-81171813D01*
X143557411Y-81171813D01*
G37*
D19*
X143317220Y-81645760D03*
D10*
G36*
X141982411Y-81171813D02*
G01*
X142003646Y-81174963D01*
X142024470Y-81180179D01*
X142044682Y-81187411D01*
X142064088Y-81196590D01*
X142082501Y-81207626D01*
X142099744Y-81220414D01*
X142115650Y-81234830D01*
X142130066Y-81250736D01*
X142142854Y-81267979D01*
X142153890Y-81286392D01*
X142163069Y-81305798D01*
X142170301Y-81326010D01*
X142175517Y-81346834D01*
X142178667Y-81368069D01*
X142179720Y-81389510D01*
X142179720Y-81902010D01*
X142178667Y-81923451D01*
X142175517Y-81944686D01*
X142170301Y-81965510D01*
X142163069Y-81985722D01*
X142153890Y-82005128D01*
X142142854Y-82023541D01*
X142130066Y-82040784D01*
X142115650Y-82056690D01*
X142099744Y-82071106D01*
X142082501Y-82083894D01*
X142064088Y-82094930D01*
X142044682Y-82104109D01*
X142024470Y-82111341D01*
X142003646Y-82116557D01*
X141982411Y-82119707D01*
X141960970Y-82120760D01*
X141523470Y-82120760D01*
X141502029Y-82119707D01*
X141480794Y-82116557D01*
X141459970Y-82111341D01*
X141439758Y-82104109D01*
X141420352Y-82094930D01*
X141401939Y-82083894D01*
X141384696Y-82071106D01*
X141368790Y-82056690D01*
X141354374Y-82040784D01*
X141341586Y-82023541D01*
X141330550Y-82005128D01*
X141321371Y-81985722D01*
X141314139Y-81965510D01*
X141308923Y-81944686D01*
X141305773Y-81923451D01*
X141304720Y-81902010D01*
X141304720Y-81389510D01*
X141305773Y-81368069D01*
X141308923Y-81346834D01*
X141314139Y-81326010D01*
X141321371Y-81305798D01*
X141330550Y-81286392D01*
X141341586Y-81267979D01*
X141354374Y-81250736D01*
X141368790Y-81234830D01*
X141384696Y-81220414D01*
X141401939Y-81207626D01*
X141420352Y-81196590D01*
X141439758Y-81187411D01*
X141459970Y-81180179D01*
X141480794Y-81174963D01*
X141502029Y-81171813D01*
X141523470Y-81170760D01*
X141960970Y-81170760D01*
X141982411Y-81171813D01*
X141982411Y-81171813D01*
G37*
D19*
X141742220Y-81645760D03*
D10*
G36*
X143552171Y-78956933D02*
G01*
X143573406Y-78960083D01*
X143594230Y-78965299D01*
X143614442Y-78972531D01*
X143633848Y-78981710D01*
X143652261Y-78992746D01*
X143669504Y-79005534D01*
X143685410Y-79019950D01*
X143699826Y-79035856D01*
X143712614Y-79053099D01*
X143723650Y-79071512D01*
X143732829Y-79090918D01*
X143740061Y-79111130D01*
X143745277Y-79131954D01*
X143748427Y-79153189D01*
X143749480Y-79174630D01*
X143749480Y-79687130D01*
X143748427Y-79708571D01*
X143745277Y-79729806D01*
X143740061Y-79750630D01*
X143732829Y-79770842D01*
X143723650Y-79790248D01*
X143712614Y-79808661D01*
X143699826Y-79825904D01*
X143685410Y-79841810D01*
X143669504Y-79856226D01*
X143652261Y-79869014D01*
X143633848Y-79880050D01*
X143614442Y-79889229D01*
X143594230Y-79896461D01*
X143573406Y-79901677D01*
X143552171Y-79904827D01*
X143530730Y-79905880D01*
X143093230Y-79905880D01*
X143071789Y-79904827D01*
X143050554Y-79901677D01*
X143029730Y-79896461D01*
X143009518Y-79889229D01*
X142990112Y-79880050D01*
X142971699Y-79869014D01*
X142954456Y-79856226D01*
X142938550Y-79841810D01*
X142924134Y-79825904D01*
X142911346Y-79808661D01*
X142900310Y-79790248D01*
X142891131Y-79770842D01*
X142883899Y-79750630D01*
X142878683Y-79729806D01*
X142875533Y-79708571D01*
X142874480Y-79687130D01*
X142874480Y-79174630D01*
X142875533Y-79153189D01*
X142878683Y-79131954D01*
X142883899Y-79111130D01*
X142891131Y-79090918D01*
X142900310Y-79071512D01*
X142911346Y-79053099D01*
X142924134Y-79035856D01*
X142938550Y-79019950D01*
X142954456Y-79005534D01*
X142971699Y-78992746D01*
X142990112Y-78981710D01*
X143009518Y-78972531D01*
X143029730Y-78965299D01*
X143050554Y-78960083D01*
X143071789Y-78956933D01*
X143093230Y-78955880D01*
X143530730Y-78955880D01*
X143552171Y-78956933D01*
X143552171Y-78956933D01*
G37*
D19*
X143311980Y-79430880D03*
D10*
G36*
X141977171Y-78956933D02*
G01*
X141998406Y-78960083D01*
X142019230Y-78965299D01*
X142039442Y-78972531D01*
X142058848Y-78981710D01*
X142077261Y-78992746D01*
X142094504Y-79005534D01*
X142110410Y-79019950D01*
X142124826Y-79035856D01*
X142137614Y-79053099D01*
X142148650Y-79071512D01*
X142157829Y-79090918D01*
X142165061Y-79111130D01*
X142170277Y-79131954D01*
X142173427Y-79153189D01*
X142174480Y-79174630D01*
X142174480Y-79687130D01*
X142173427Y-79708571D01*
X142170277Y-79729806D01*
X142165061Y-79750630D01*
X142157829Y-79770842D01*
X142148650Y-79790248D01*
X142137614Y-79808661D01*
X142124826Y-79825904D01*
X142110410Y-79841810D01*
X142094504Y-79856226D01*
X142077261Y-79869014D01*
X142058848Y-79880050D01*
X142039442Y-79889229D01*
X142019230Y-79896461D01*
X141998406Y-79901677D01*
X141977171Y-79904827D01*
X141955730Y-79905880D01*
X141518230Y-79905880D01*
X141496789Y-79904827D01*
X141475554Y-79901677D01*
X141454730Y-79896461D01*
X141434518Y-79889229D01*
X141415112Y-79880050D01*
X141396699Y-79869014D01*
X141379456Y-79856226D01*
X141363550Y-79841810D01*
X141349134Y-79825904D01*
X141336346Y-79808661D01*
X141325310Y-79790248D01*
X141316131Y-79770842D01*
X141308899Y-79750630D01*
X141303683Y-79729806D01*
X141300533Y-79708571D01*
X141299480Y-79687130D01*
X141299480Y-79174630D01*
X141300533Y-79153189D01*
X141303683Y-79131954D01*
X141308899Y-79111130D01*
X141316131Y-79090918D01*
X141325310Y-79071512D01*
X141336346Y-79053099D01*
X141349134Y-79035856D01*
X141363550Y-79019950D01*
X141379456Y-79005534D01*
X141396699Y-78992746D01*
X141415112Y-78981710D01*
X141434518Y-78972531D01*
X141454730Y-78965299D01*
X141475554Y-78960083D01*
X141496789Y-78956933D01*
X141518230Y-78955880D01*
X141955730Y-78955880D01*
X141977171Y-78956933D01*
X141977171Y-78956933D01*
G37*
D19*
X141736980Y-79430880D03*
D10*
G36*
X169612371Y-79612253D02*
G01*
X169633606Y-79615403D01*
X169654430Y-79620619D01*
X169674642Y-79627851D01*
X169694048Y-79637030D01*
X169712461Y-79648066D01*
X169729704Y-79660854D01*
X169745610Y-79675270D01*
X169760026Y-79691176D01*
X169772814Y-79708419D01*
X169783850Y-79726832D01*
X169793029Y-79746238D01*
X169800261Y-79766450D01*
X169805477Y-79787274D01*
X169808627Y-79808509D01*
X169809680Y-79829950D01*
X169809680Y-80342450D01*
X169808627Y-80363891D01*
X169805477Y-80385126D01*
X169800261Y-80405950D01*
X169793029Y-80426162D01*
X169783850Y-80445568D01*
X169772814Y-80463981D01*
X169760026Y-80481224D01*
X169745610Y-80497130D01*
X169729704Y-80511546D01*
X169712461Y-80524334D01*
X169694048Y-80535370D01*
X169674642Y-80544549D01*
X169654430Y-80551781D01*
X169633606Y-80556997D01*
X169612371Y-80560147D01*
X169590930Y-80561200D01*
X169153430Y-80561200D01*
X169131989Y-80560147D01*
X169110754Y-80556997D01*
X169089930Y-80551781D01*
X169069718Y-80544549D01*
X169050312Y-80535370D01*
X169031899Y-80524334D01*
X169014656Y-80511546D01*
X168998750Y-80497130D01*
X168984334Y-80481224D01*
X168971546Y-80463981D01*
X168960510Y-80445568D01*
X168951331Y-80426162D01*
X168944099Y-80405950D01*
X168938883Y-80385126D01*
X168935733Y-80363891D01*
X168934680Y-80342450D01*
X168934680Y-79829950D01*
X168935733Y-79808509D01*
X168938883Y-79787274D01*
X168944099Y-79766450D01*
X168951331Y-79746238D01*
X168960510Y-79726832D01*
X168971546Y-79708419D01*
X168984334Y-79691176D01*
X168998750Y-79675270D01*
X169014656Y-79660854D01*
X169031899Y-79648066D01*
X169050312Y-79637030D01*
X169069718Y-79627851D01*
X169089930Y-79620619D01*
X169110754Y-79615403D01*
X169131989Y-79612253D01*
X169153430Y-79611200D01*
X169590930Y-79611200D01*
X169612371Y-79612253D01*
X169612371Y-79612253D01*
G37*
D19*
X169372180Y-80086200D03*
D10*
G36*
X171187371Y-79612253D02*
G01*
X171208606Y-79615403D01*
X171229430Y-79620619D01*
X171249642Y-79627851D01*
X171269048Y-79637030D01*
X171287461Y-79648066D01*
X171304704Y-79660854D01*
X171320610Y-79675270D01*
X171335026Y-79691176D01*
X171347814Y-79708419D01*
X171358850Y-79726832D01*
X171368029Y-79746238D01*
X171375261Y-79766450D01*
X171380477Y-79787274D01*
X171383627Y-79808509D01*
X171384680Y-79829950D01*
X171384680Y-80342450D01*
X171383627Y-80363891D01*
X171380477Y-80385126D01*
X171375261Y-80405950D01*
X171368029Y-80426162D01*
X171358850Y-80445568D01*
X171347814Y-80463981D01*
X171335026Y-80481224D01*
X171320610Y-80497130D01*
X171304704Y-80511546D01*
X171287461Y-80524334D01*
X171269048Y-80535370D01*
X171249642Y-80544549D01*
X171229430Y-80551781D01*
X171208606Y-80556997D01*
X171187371Y-80560147D01*
X171165930Y-80561200D01*
X170728430Y-80561200D01*
X170706989Y-80560147D01*
X170685754Y-80556997D01*
X170664930Y-80551781D01*
X170644718Y-80544549D01*
X170625312Y-80535370D01*
X170606899Y-80524334D01*
X170589656Y-80511546D01*
X170573750Y-80497130D01*
X170559334Y-80481224D01*
X170546546Y-80463981D01*
X170535510Y-80445568D01*
X170526331Y-80426162D01*
X170519099Y-80405950D01*
X170513883Y-80385126D01*
X170510733Y-80363891D01*
X170509680Y-80342450D01*
X170509680Y-79829950D01*
X170510733Y-79808509D01*
X170513883Y-79787274D01*
X170519099Y-79766450D01*
X170526331Y-79746238D01*
X170535510Y-79726832D01*
X170546546Y-79708419D01*
X170559334Y-79691176D01*
X170573750Y-79675270D01*
X170589656Y-79660854D01*
X170606899Y-79648066D01*
X170625312Y-79637030D01*
X170644718Y-79627851D01*
X170664930Y-79620619D01*
X170685754Y-79615403D01*
X170706989Y-79612253D01*
X170728430Y-79611200D01*
X171165930Y-79611200D01*
X171187371Y-79612253D01*
X171187371Y-79612253D01*
G37*
D19*
X170947180Y-80086200D03*
D10*
G36*
X169454891Y-77879973D02*
G01*
X169476126Y-77883123D01*
X169496950Y-77888339D01*
X169517162Y-77895571D01*
X169536568Y-77904750D01*
X169554981Y-77915786D01*
X169572224Y-77928574D01*
X169588130Y-77942990D01*
X169602546Y-77958896D01*
X169615334Y-77976139D01*
X169626370Y-77994552D01*
X169635549Y-78013958D01*
X169642781Y-78034170D01*
X169647997Y-78054994D01*
X169651147Y-78076229D01*
X169652200Y-78097670D01*
X169652200Y-78610170D01*
X169651147Y-78631611D01*
X169647997Y-78652846D01*
X169642781Y-78673670D01*
X169635549Y-78693882D01*
X169626370Y-78713288D01*
X169615334Y-78731701D01*
X169602546Y-78748944D01*
X169588130Y-78764850D01*
X169572224Y-78779266D01*
X169554981Y-78792054D01*
X169536568Y-78803090D01*
X169517162Y-78812269D01*
X169496950Y-78819501D01*
X169476126Y-78824717D01*
X169454891Y-78827867D01*
X169433450Y-78828920D01*
X168995950Y-78828920D01*
X168974509Y-78827867D01*
X168953274Y-78824717D01*
X168932450Y-78819501D01*
X168912238Y-78812269D01*
X168892832Y-78803090D01*
X168874419Y-78792054D01*
X168857176Y-78779266D01*
X168841270Y-78764850D01*
X168826854Y-78748944D01*
X168814066Y-78731701D01*
X168803030Y-78713288D01*
X168793851Y-78693882D01*
X168786619Y-78673670D01*
X168781403Y-78652846D01*
X168778253Y-78631611D01*
X168777200Y-78610170D01*
X168777200Y-78097670D01*
X168778253Y-78076229D01*
X168781403Y-78054994D01*
X168786619Y-78034170D01*
X168793851Y-78013958D01*
X168803030Y-77994552D01*
X168814066Y-77976139D01*
X168826854Y-77958896D01*
X168841270Y-77942990D01*
X168857176Y-77928574D01*
X168874419Y-77915786D01*
X168892832Y-77904750D01*
X168912238Y-77895571D01*
X168932450Y-77888339D01*
X168953274Y-77883123D01*
X168974509Y-77879973D01*
X168995950Y-77878920D01*
X169433450Y-77878920D01*
X169454891Y-77879973D01*
X169454891Y-77879973D01*
G37*
D19*
X169214700Y-78353920D03*
D10*
G36*
X171029891Y-77879973D02*
G01*
X171051126Y-77883123D01*
X171071950Y-77888339D01*
X171092162Y-77895571D01*
X171111568Y-77904750D01*
X171129981Y-77915786D01*
X171147224Y-77928574D01*
X171163130Y-77942990D01*
X171177546Y-77958896D01*
X171190334Y-77976139D01*
X171201370Y-77994552D01*
X171210549Y-78013958D01*
X171217781Y-78034170D01*
X171222997Y-78054994D01*
X171226147Y-78076229D01*
X171227200Y-78097670D01*
X171227200Y-78610170D01*
X171226147Y-78631611D01*
X171222997Y-78652846D01*
X171217781Y-78673670D01*
X171210549Y-78693882D01*
X171201370Y-78713288D01*
X171190334Y-78731701D01*
X171177546Y-78748944D01*
X171163130Y-78764850D01*
X171147224Y-78779266D01*
X171129981Y-78792054D01*
X171111568Y-78803090D01*
X171092162Y-78812269D01*
X171071950Y-78819501D01*
X171051126Y-78824717D01*
X171029891Y-78827867D01*
X171008450Y-78828920D01*
X170570950Y-78828920D01*
X170549509Y-78827867D01*
X170528274Y-78824717D01*
X170507450Y-78819501D01*
X170487238Y-78812269D01*
X170467832Y-78803090D01*
X170449419Y-78792054D01*
X170432176Y-78779266D01*
X170416270Y-78764850D01*
X170401854Y-78748944D01*
X170389066Y-78731701D01*
X170378030Y-78713288D01*
X170368851Y-78693882D01*
X170361619Y-78673670D01*
X170356403Y-78652846D01*
X170353253Y-78631611D01*
X170352200Y-78610170D01*
X170352200Y-78097670D01*
X170353253Y-78076229D01*
X170356403Y-78054994D01*
X170361619Y-78034170D01*
X170368851Y-78013958D01*
X170378030Y-77994552D01*
X170389066Y-77976139D01*
X170401854Y-77958896D01*
X170416270Y-77942990D01*
X170432176Y-77928574D01*
X170449419Y-77915786D01*
X170467832Y-77904750D01*
X170487238Y-77895571D01*
X170507450Y-77888339D01*
X170528274Y-77883123D01*
X170549509Y-77879973D01*
X170570950Y-77878920D01*
X171008450Y-77878920D01*
X171029891Y-77879973D01*
X171029891Y-77879973D01*
G37*
D19*
X170789700Y-78353920D03*
D10*
G36*
X177529051Y-91935833D02*
G01*
X177550286Y-91938983D01*
X177571110Y-91944199D01*
X177591322Y-91951431D01*
X177610728Y-91960610D01*
X177629141Y-91971646D01*
X177646384Y-91984434D01*
X177662290Y-91998850D01*
X177676706Y-92014756D01*
X177689494Y-92031999D01*
X177700530Y-92050412D01*
X177709709Y-92069818D01*
X177716941Y-92090030D01*
X177722157Y-92110854D01*
X177725307Y-92132089D01*
X177726360Y-92153530D01*
X177726360Y-92591030D01*
X177725307Y-92612471D01*
X177722157Y-92633706D01*
X177716941Y-92654530D01*
X177709709Y-92674742D01*
X177700530Y-92694148D01*
X177689494Y-92712561D01*
X177676706Y-92729804D01*
X177662290Y-92745710D01*
X177646384Y-92760126D01*
X177629141Y-92772914D01*
X177610728Y-92783950D01*
X177591322Y-92793129D01*
X177571110Y-92800361D01*
X177550286Y-92805577D01*
X177529051Y-92808727D01*
X177507610Y-92809780D01*
X176995110Y-92809780D01*
X176973669Y-92808727D01*
X176952434Y-92805577D01*
X176931610Y-92800361D01*
X176911398Y-92793129D01*
X176891992Y-92783950D01*
X176873579Y-92772914D01*
X176856336Y-92760126D01*
X176840430Y-92745710D01*
X176826014Y-92729804D01*
X176813226Y-92712561D01*
X176802190Y-92694148D01*
X176793011Y-92674742D01*
X176785779Y-92654530D01*
X176780563Y-92633706D01*
X176777413Y-92612471D01*
X176776360Y-92591030D01*
X176776360Y-92153530D01*
X176777413Y-92132089D01*
X176780563Y-92110854D01*
X176785779Y-92090030D01*
X176793011Y-92069818D01*
X176802190Y-92050412D01*
X176813226Y-92031999D01*
X176826014Y-92014756D01*
X176840430Y-91998850D01*
X176856336Y-91984434D01*
X176873579Y-91971646D01*
X176891992Y-91960610D01*
X176911398Y-91951431D01*
X176931610Y-91944199D01*
X176952434Y-91938983D01*
X176973669Y-91935833D01*
X176995110Y-91934780D01*
X177507610Y-91934780D01*
X177529051Y-91935833D01*
X177529051Y-91935833D01*
G37*
D19*
X177251360Y-92372280D03*
D10*
G36*
X177529051Y-90360833D02*
G01*
X177550286Y-90363983D01*
X177571110Y-90369199D01*
X177591322Y-90376431D01*
X177610728Y-90385610D01*
X177629141Y-90396646D01*
X177646384Y-90409434D01*
X177662290Y-90423850D01*
X177676706Y-90439756D01*
X177689494Y-90456999D01*
X177700530Y-90475412D01*
X177709709Y-90494818D01*
X177716941Y-90515030D01*
X177722157Y-90535854D01*
X177725307Y-90557089D01*
X177726360Y-90578530D01*
X177726360Y-91016030D01*
X177725307Y-91037471D01*
X177722157Y-91058706D01*
X177716941Y-91079530D01*
X177709709Y-91099742D01*
X177700530Y-91119148D01*
X177689494Y-91137561D01*
X177676706Y-91154804D01*
X177662290Y-91170710D01*
X177646384Y-91185126D01*
X177629141Y-91197914D01*
X177610728Y-91208950D01*
X177591322Y-91218129D01*
X177571110Y-91225361D01*
X177550286Y-91230577D01*
X177529051Y-91233727D01*
X177507610Y-91234780D01*
X176995110Y-91234780D01*
X176973669Y-91233727D01*
X176952434Y-91230577D01*
X176931610Y-91225361D01*
X176911398Y-91218129D01*
X176891992Y-91208950D01*
X176873579Y-91197914D01*
X176856336Y-91185126D01*
X176840430Y-91170710D01*
X176826014Y-91154804D01*
X176813226Y-91137561D01*
X176802190Y-91119148D01*
X176793011Y-91099742D01*
X176785779Y-91079530D01*
X176780563Y-91058706D01*
X176777413Y-91037471D01*
X176776360Y-91016030D01*
X176776360Y-90578530D01*
X176777413Y-90557089D01*
X176780563Y-90535854D01*
X176785779Y-90515030D01*
X176793011Y-90494818D01*
X176802190Y-90475412D01*
X176813226Y-90456999D01*
X176826014Y-90439756D01*
X176840430Y-90423850D01*
X176856336Y-90409434D01*
X176873579Y-90396646D01*
X176891992Y-90385610D01*
X176911398Y-90376431D01*
X176931610Y-90369199D01*
X176952434Y-90363983D01*
X176973669Y-90360833D01*
X176995110Y-90359780D01*
X177507610Y-90359780D01*
X177529051Y-90360833D01*
X177529051Y-90360833D01*
G37*
D19*
X177251360Y-90797280D03*
D10*
G36*
X138441691Y-93627973D02*
G01*
X138462926Y-93631123D01*
X138483750Y-93636339D01*
X138503962Y-93643571D01*
X138523368Y-93652750D01*
X138541781Y-93663786D01*
X138559024Y-93676574D01*
X138574930Y-93690990D01*
X138589346Y-93706896D01*
X138602134Y-93724139D01*
X138613170Y-93742552D01*
X138622349Y-93761958D01*
X138629581Y-93782170D01*
X138634797Y-93802994D01*
X138637947Y-93824229D01*
X138639000Y-93845670D01*
X138639000Y-94358170D01*
X138637947Y-94379611D01*
X138634797Y-94400846D01*
X138629581Y-94421670D01*
X138622349Y-94441882D01*
X138613170Y-94461288D01*
X138602134Y-94479701D01*
X138589346Y-94496944D01*
X138574930Y-94512850D01*
X138559024Y-94527266D01*
X138541781Y-94540054D01*
X138523368Y-94551090D01*
X138503962Y-94560269D01*
X138483750Y-94567501D01*
X138462926Y-94572717D01*
X138441691Y-94575867D01*
X138420250Y-94576920D01*
X137982750Y-94576920D01*
X137961309Y-94575867D01*
X137940074Y-94572717D01*
X137919250Y-94567501D01*
X137899038Y-94560269D01*
X137879632Y-94551090D01*
X137861219Y-94540054D01*
X137843976Y-94527266D01*
X137828070Y-94512850D01*
X137813654Y-94496944D01*
X137800866Y-94479701D01*
X137789830Y-94461288D01*
X137780651Y-94441882D01*
X137773419Y-94421670D01*
X137768203Y-94400846D01*
X137765053Y-94379611D01*
X137764000Y-94358170D01*
X137764000Y-93845670D01*
X137765053Y-93824229D01*
X137768203Y-93802994D01*
X137773419Y-93782170D01*
X137780651Y-93761958D01*
X137789830Y-93742552D01*
X137800866Y-93724139D01*
X137813654Y-93706896D01*
X137828070Y-93690990D01*
X137843976Y-93676574D01*
X137861219Y-93663786D01*
X137879632Y-93652750D01*
X137899038Y-93643571D01*
X137919250Y-93636339D01*
X137940074Y-93631123D01*
X137961309Y-93627973D01*
X137982750Y-93626920D01*
X138420250Y-93626920D01*
X138441691Y-93627973D01*
X138441691Y-93627973D01*
G37*
D19*
X138201500Y-94101920D03*
D10*
G36*
X136866691Y-93627973D02*
G01*
X136887926Y-93631123D01*
X136908750Y-93636339D01*
X136928962Y-93643571D01*
X136948368Y-93652750D01*
X136966781Y-93663786D01*
X136984024Y-93676574D01*
X136999930Y-93690990D01*
X137014346Y-93706896D01*
X137027134Y-93724139D01*
X137038170Y-93742552D01*
X137047349Y-93761958D01*
X137054581Y-93782170D01*
X137059797Y-93802994D01*
X137062947Y-93824229D01*
X137064000Y-93845670D01*
X137064000Y-94358170D01*
X137062947Y-94379611D01*
X137059797Y-94400846D01*
X137054581Y-94421670D01*
X137047349Y-94441882D01*
X137038170Y-94461288D01*
X137027134Y-94479701D01*
X137014346Y-94496944D01*
X136999930Y-94512850D01*
X136984024Y-94527266D01*
X136966781Y-94540054D01*
X136948368Y-94551090D01*
X136928962Y-94560269D01*
X136908750Y-94567501D01*
X136887926Y-94572717D01*
X136866691Y-94575867D01*
X136845250Y-94576920D01*
X136407750Y-94576920D01*
X136386309Y-94575867D01*
X136365074Y-94572717D01*
X136344250Y-94567501D01*
X136324038Y-94560269D01*
X136304632Y-94551090D01*
X136286219Y-94540054D01*
X136268976Y-94527266D01*
X136253070Y-94512850D01*
X136238654Y-94496944D01*
X136225866Y-94479701D01*
X136214830Y-94461288D01*
X136205651Y-94441882D01*
X136198419Y-94421670D01*
X136193203Y-94400846D01*
X136190053Y-94379611D01*
X136189000Y-94358170D01*
X136189000Y-93845670D01*
X136190053Y-93824229D01*
X136193203Y-93802994D01*
X136198419Y-93782170D01*
X136205651Y-93761958D01*
X136214830Y-93742552D01*
X136225866Y-93724139D01*
X136238654Y-93706896D01*
X136253070Y-93690990D01*
X136268976Y-93676574D01*
X136286219Y-93663786D01*
X136304632Y-93652750D01*
X136324038Y-93643571D01*
X136344250Y-93636339D01*
X136365074Y-93631123D01*
X136386309Y-93627973D01*
X136407750Y-93626920D01*
X136845250Y-93626920D01*
X136866691Y-93627973D01*
X136866691Y-93627973D01*
G37*
D19*
X136626500Y-94101920D03*
D10*
G36*
X150036091Y-88349353D02*
G01*
X150057326Y-88352503D01*
X150078150Y-88357719D01*
X150098362Y-88364951D01*
X150117768Y-88374130D01*
X150136181Y-88385166D01*
X150153424Y-88397954D01*
X150169330Y-88412370D01*
X150183746Y-88428276D01*
X150196534Y-88445519D01*
X150207570Y-88463932D01*
X150216749Y-88483338D01*
X150223981Y-88503550D01*
X150229197Y-88524374D01*
X150232347Y-88545609D01*
X150233400Y-88567050D01*
X150233400Y-89004550D01*
X150232347Y-89025991D01*
X150229197Y-89047226D01*
X150223981Y-89068050D01*
X150216749Y-89088262D01*
X150207570Y-89107668D01*
X150196534Y-89126081D01*
X150183746Y-89143324D01*
X150169330Y-89159230D01*
X150153424Y-89173646D01*
X150136181Y-89186434D01*
X150117768Y-89197470D01*
X150098362Y-89206649D01*
X150078150Y-89213881D01*
X150057326Y-89219097D01*
X150036091Y-89222247D01*
X150014650Y-89223300D01*
X149502150Y-89223300D01*
X149480709Y-89222247D01*
X149459474Y-89219097D01*
X149438650Y-89213881D01*
X149418438Y-89206649D01*
X149399032Y-89197470D01*
X149380619Y-89186434D01*
X149363376Y-89173646D01*
X149347470Y-89159230D01*
X149333054Y-89143324D01*
X149320266Y-89126081D01*
X149309230Y-89107668D01*
X149300051Y-89088262D01*
X149292819Y-89068050D01*
X149287603Y-89047226D01*
X149284453Y-89025991D01*
X149283400Y-89004550D01*
X149283400Y-88567050D01*
X149284453Y-88545609D01*
X149287603Y-88524374D01*
X149292819Y-88503550D01*
X149300051Y-88483338D01*
X149309230Y-88463932D01*
X149320266Y-88445519D01*
X149333054Y-88428276D01*
X149347470Y-88412370D01*
X149363376Y-88397954D01*
X149380619Y-88385166D01*
X149399032Y-88374130D01*
X149418438Y-88364951D01*
X149438650Y-88357719D01*
X149459474Y-88352503D01*
X149480709Y-88349353D01*
X149502150Y-88348300D01*
X150014650Y-88348300D01*
X150036091Y-88349353D01*
X150036091Y-88349353D01*
G37*
D19*
X149758400Y-88785800D03*
D10*
G36*
X150036091Y-86774353D02*
G01*
X150057326Y-86777503D01*
X150078150Y-86782719D01*
X150098362Y-86789951D01*
X150117768Y-86799130D01*
X150136181Y-86810166D01*
X150153424Y-86822954D01*
X150169330Y-86837370D01*
X150183746Y-86853276D01*
X150196534Y-86870519D01*
X150207570Y-86888932D01*
X150216749Y-86908338D01*
X150223981Y-86928550D01*
X150229197Y-86949374D01*
X150232347Y-86970609D01*
X150233400Y-86992050D01*
X150233400Y-87429550D01*
X150232347Y-87450991D01*
X150229197Y-87472226D01*
X150223981Y-87493050D01*
X150216749Y-87513262D01*
X150207570Y-87532668D01*
X150196534Y-87551081D01*
X150183746Y-87568324D01*
X150169330Y-87584230D01*
X150153424Y-87598646D01*
X150136181Y-87611434D01*
X150117768Y-87622470D01*
X150098362Y-87631649D01*
X150078150Y-87638881D01*
X150057326Y-87644097D01*
X150036091Y-87647247D01*
X150014650Y-87648300D01*
X149502150Y-87648300D01*
X149480709Y-87647247D01*
X149459474Y-87644097D01*
X149438650Y-87638881D01*
X149418438Y-87631649D01*
X149399032Y-87622470D01*
X149380619Y-87611434D01*
X149363376Y-87598646D01*
X149347470Y-87584230D01*
X149333054Y-87568324D01*
X149320266Y-87551081D01*
X149309230Y-87532668D01*
X149300051Y-87513262D01*
X149292819Y-87493050D01*
X149287603Y-87472226D01*
X149284453Y-87450991D01*
X149283400Y-87429550D01*
X149283400Y-86992050D01*
X149284453Y-86970609D01*
X149287603Y-86949374D01*
X149292819Y-86928550D01*
X149300051Y-86908338D01*
X149309230Y-86888932D01*
X149320266Y-86870519D01*
X149333054Y-86853276D01*
X149347470Y-86837370D01*
X149363376Y-86822954D01*
X149380619Y-86810166D01*
X149399032Y-86799130D01*
X149418438Y-86789951D01*
X149438650Y-86782719D01*
X149459474Y-86777503D01*
X149480709Y-86774353D01*
X149502150Y-86773300D01*
X150014650Y-86773300D01*
X150036091Y-86774353D01*
X150036091Y-86774353D01*
G37*
D19*
X149758400Y-87210800D03*
D10*
G36*
X139802931Y-86627733D02*
G01*
X139824166Y-86630883D01*
X139844990Y-86636099D01*
X139865202Y-86643331D01*
X139884608Y-86652510D01*
X139903021Y-86663546D01*
X139920264Y-86676334D01*
X139936170Y-86690750D01*
X139950586Y-86706656D01*
X139963374Y-86723899D01*
X139974410Y-86742312D01*
X139983589Y-86761718D01*
X139990821Y-86781930D01*
X139996037Y-86802754D01*
X139999187Y-86823989D01*
X140000240Y-86845430D01*
X140000240Y-87357930D01*
X139999187Y-87379371D01*
X139996037Y-87400606D01*
X139990821Y-87421430D01*
X139983589Y-87441642D01*
X139974410Y-87461048D01*
X139963374Y-87479461D01*
X139950586Y-87496704D01*
X139936170Y-87512610D01*
X139920264Y-87527026D01*
X139903021Y-87539814D01*
X139884608Y-87550850D01*
X139865202Y-87560029D01*
X139844990Y-87567261D01*
X139824166Y-87572477D01*
X139802931Y-87575627D01*
X139781490Y-87576680D01*
X139343990Y-87576680D01*
X139322549Y-87575627D01*
X139301314Y-87572477D01*
X139280490Y-87567261D01*
X139260278Y-87560029D01*
X139240872Y-87550850D01*
X139222459Y-87539814D01*
X139205216Y-87527026D01*
X139189310Y-87512610D01*
X139174894Y-87496704D01*
X139162106Y-87479461D01*
X139151070Y-87461048D01*
X139141891Y-87441642D01*
X139134659Y-87421430D01*
X139129443Y-87400606D01*
X139126293Y-87379371D01*
X139125240Y-87357930D01*
X139125240Y-86845430D01*
X139126293Y-86823989D01*
X139129443Y-86802754D01*
X139134659Y-86781930D01*
X139141891Y-86761718D01*
X139151070Y-86742312D01*
X139162106Y-86723899D01*
X139174894Y-86706656D01*
X139189310Y-86690750D01*
X139205216Y-86676334D01*
X139222459Y-86663546D01*
X139240872Y-86652510D01*
X139260278Y-86643331D01*
X139280490Y-86636099D01*
X139301314Y-86630883D01*
X139322549Y-86627733D01*
X139343990Y-86626680D01*
X139781490Y-86626680D01*
X139802931Y-86627733D01*
X139802931Y-86627733D01*
G37*
D19*
X139562740Y-87101680D03*
D10*
G36*
X141377931Y-86627733D02*
G01*
X141399166Y-86630883D01*
X141419990Y-86636099D01*
X141440202Y-86643331D01*
X141459608Y-86652510D01*
X141478021Y-86663546D01*
X141495264Y-86676334D01*
X141511170Y-86690750D01*
X141525586Y-86706656D01*
X141538374Y-86723899D01*
X141549410Y-86742312D01*
X141558589Y-86761718D01*
X141565821Y-86781930D01*
X141571037Y-86802754D01*
X141574187Y-86823989D01*
X141575240Y-86845430D01*
X141575240Y-87357930D01*
X141574187Y-87379371D01*
X141571037Y-87400606D01*
X141565821Y-87421430D01*
X141558589Y-87441642D01*
X141549410Y-87461048D01*
X141538374Y-87479461D01*
X141525586Y-87496704D01*
X141511170Y-87512610D01*
X141495264Y-87527026D01*
X141478021Y-87539814D01*
X141459608Y-87550850D01*
X141440202Y-87560029D01*
X141419990Y-87567261D01*
X141399166Y-87572477D01*
X141377931Y-87575627D01*
X141356490Y-87576680D01*
X140918990Y-87576680D01*
X140897549Y-87575627D01*
X140876314Y-87572477D01*
X140855490Y-87567261D01*
X140835278Y-87560029D01*
X140815872Y-87550850D01*
X140797459Y-87539814D01*
X140780216Y-87527026D01*
X140764310Y-87512610D01*
X140749894Y-87496704D01*
X140737106Y-87479461D01*
X140726070Y-87461048D01*
X140716891Y-87441642D01*
X140709659Y-87421430D01*
X140704443Y-87400606D01*
X140701293Y-87379371D01*
X140700240Y-87357930D01*
X140700240Y-86845430D01*
X140701293Y-86823989D01*
X140704443Y-86802754D01*
X140709659Y-86781930D01*
X140716891Y-86761718D01*
X140726070Y-86742312D01*
X140737106Y-86723899D01*
X140749894Y-86706656D01*
X140764310Y-86690750D01*
X140780216Y-86676334D01*
X140797459Y-86663546D01*
X140815872Y-86652510D01*
X140835278Y-86643331D01*
X140855490Y-86636099D01*
X140876314Y-86630883D01*
X140897549Y-86627733D01*
X140918990Y-86626680D01*
X141356490Y-86626680D01*
X141377931Y-86627733D01*
X141377931Y-86627733D01*
G37*
D19*
X141137740Y-87101680D03*
D10*
G36*
X139813091Y-87984093D02*
G01*
X139834326Y-87987243D01*
X139855150Y-87992459D01*
X139875362Y-87999691D01*
X139894768Y-88008870D01*
X139913181Y-88019906D01*
X139930424Y-88032694D01*
X139946330Y-88047110D01*
X139960746Y-88063016D01*
X139973534Y-88080259D01*
X139984570Y-88098672D01*
X139993749Y-88118078D01*
X140000981Y-88138290D01*
X140006197Y-88159114D01*
X140009347Y-88180349D01*
X140010400Y-88201790D01*
X140010400Y-88714290D01*
X140009347Y-88735731D01*
X140006197Y-88756966D01*
X140000981Y-88777790D01*
X139993749Y-88798002D01*
X139984570Y-88817408D01*
X139973534Y-88835821D01*
X139960746Y-88853064D01*
X139946330Y-88868970D01*
X139930424Y-88883386D01*
X139913181Y-88896174D01*
X139894768Y-88907210D01*
X139875362Y-88916389D01*
X139855150Y-88923621D01*
X139834326Y-88928837D01*
X139813091Y-88931987D01*
X139791650Y-88933040D01*
X139354150Y-88933040D01*
X139332709Y-88931987D01*
X139311474Y-88928837D01*
X139290650Y-88923621D01*
X139270438Y-88916389D01*
X139251032Y-88907210D01*
X139232619Y-88896174D01*
X139215376Y-88883386D01*
X139199470Y-88868970D01*
X139185054Y-88853064D01*
X139172266Y-88835821D01*
X139161230Y-88817408D01*
X139152051Y-88798002D01*
X139144819Y-88777790D01*
X139139603Y-88756966D01*
X139136453Y-88735731D01*
X139135400Y-88714290D01*
X139135400Y-88201790D01*
X139136453Y-88180349D01*
X139139603Y-88159114D01*
X139144819Y-88138290D01*
X139152051Y-88118078D01*
X139161230Y-88098672D01*
X139172266Y-88080259D01*
X139185054Y-88063016D01*
X139199470Y-88047110D01*
X139215376Y-88032694D01*
X139232619Y-88019906D01*
X139251032Y-88008870D01*
X139270438Y-87999691D01*
X139290650Y-87992459D01*
X139311474Y-87987243D01*
X139332709Y-87984093D01*
X139354150Y-87983040D01*
X139791650Y-87983040D01*
X139813091Y-87984093D01*
X139813091Y-87984093D01*
G37*
D19*
X139572900Y-88458040D03*
D10*
G36*
X141388091Y-87984093D02*
G01*
X141409326Y-87987243D01*
X141430150Y-87992459D01*
X141450362Y-87999691D01*
X141469768Y-88008870D01*
X141488181Y-88019906D01*
X141505424Y-88032694D01*
X141521330Y-88047110D01*
X141535746Y-88063016D01*
X141548534Y-88080259D01*
X141559570Y-88098672D01*
X141568749Y-88118078D01*
X141575981Y-88138290D01*
X141581197Y-88159114D01*
X141584347Y-88180349D01*
X141585400Y-88201790D01*
X141585400Y-88714290D01*
X141584347Y-88735731D01*
X141581197Y-88756966D01*
X141575981Y-88777790D01*
X141568749Y-88798002D01*
X141559570Y-88817408D01*
X141548534Y-88835821D01*
X141535746Y-88853064D01*
X141521330Y-88868970D01*
X141505424Y-88883386D01*
X141488181Y-88896174D01*
X141469768Y-88907210D01*
X141450362Y-88916389D01*
X141430150Y-88923621D01*
X141409326Y-88928837D01*
X141388091Y-88931987D01*
X141366650Y-88933040D01*
X140929150Y-88933040D01*
X140907709Y-88931987D01*
X140886474Y-88928837D01*
X140865650Y-88923621D01*
X140845438Y-88916389D01*
X140826032Y-88907210D01*
X140807619Y-88896174D01*
X140790376Y-88883386D01*
X140774470Y-88868970D01*
X140760054Y-88853064D01*
X140747266Y-88835821D01*
X140736230Y-88817408D01*
X140727051Y-88798002D01*
X140719819Y-88777790D01*
X140714603Y-88756966D01*
X140711453Y-88735731D01*
X140710400Y-88714290D01*
X140710400Y-88201790D01*
X140711453Y-88180349D01*
X140714603Y-88159114D01*
X140719819Y-88138290D01*
X140727051Y-88118078D01*
X140736230Y-88098672D01*
X140747266Y-88080259D01*
X140760054Y-88063016D01*
X140774470Y-88047110D01*
X140790376Y-88032694D01*
X140807619Y-88019906D01*
X140826032Y-88008870D01*
X140845438Y-87999691D01*
X140865650Y-87992459D01*
X140886474Y-87987243D01*
X140907709Y-87984093D01*
X140929150Y-87983040D01*
X141366650Y-87983040D01*
X141388091Y-87984093D01*
X141388091Y-87984093D01*
G37*
D19*
X141147900Y-88458040D03*
D10*
G36*
X167214111Y-89301653D02*
G01*
X167235346Y-89304803D01*
X167256170Y-89310019D01*
X167276382Y-89317251D01*
X167295788Y-89326430D01*
X167314201Y-89337466D01*
X167331444Y-89350254D01*
X167347350Y-89364670D01*
X167361766Y-89380576D01*
X167374554Y-89397819D01*
X167385590Y-89416232D01*
X167394769Y-89435638D01*
X167402001Y-89455850D01*
X167407217Y-89476674D01*
X167410367Y-89497909D01*
X167411420Y-89519350D01*
X167411420Y-89956850D01*
X167410367Y-89978291D01*
X167407217Y-89999526D01*
X167402001Y-90020350D01*
X167394769Y-90040562D01*
X167385590Y-90059968D01*
X167374554Y-90078381D01*
X167361766Y-90095624D01*
X167347350Y-90111530D01*
X167331444Y-90125946D01*
X167314201Y-90138734D01*
X167295788Y-90149770D01*
X167276382Y-90158949D01*
X167256170Y-90166181D01*
X167235346Y-90171397D01*
X167214111Y-90174547D01*
X167192670Y-90175600D01*
X166680170Y-90175600D01*
X166658729Y-90174547D01*
X166637494Y-90171397D01*
X166616670Y-90166181D01*
X166596458Y-90158949D01*
X166577052Y-90149770D01*
X166558639Y-90138734D01*
X166541396Y-90125946D01*
X166525490Y-90111530D01*
X166511074Y-90095624D01*
X166498286Y-90078381D01*
X166487250Y-90059968D01*
X166478071Y-90040562D01*
X166470839Y-90020350D01*
X166465623Y-89999526D01*
X166462473Y-89978291D01*
X166461420Y-89956850D01*
X166461420Y-89519350D01*
X166462473Y-89497909D01*
X166465623Y-89476674D01*
X166470839Y-89455850D01*
X166478071Y-89435638D01*
X166487250Y-89416232D01*
X166498286Y-89397819D01*
X166511074Y-89380576D01*
X166525490Y-89364670D01*
X166541396Y-89350254D01*
X166558639Y-89337466D01*
X166577052Y-89326430D01*
X166596458Y-89317251D01*
X166616670Y-89310019D01*
X166637494Y-89304803D01*
X166658729Y-89301653D01*
X166680170Y-89300600D01*
X167192670Y-89300600D01*
X167214111Y-89301653D01*
X167214111Y-89301653D01*
G37*
D19*
X166936420Y-89738100D03*
D10*
G36*
X167214111Y-90876653D02*
G01*
X167235346Y-90879803D01*
X167256170Y-90885019D01*
X167276382Y-90892251D01*
X167295788Y-90901430D01*
X167314201Y-90912466D01*
X167331444Y-90925254D01*
X167347350Y-90939670D01*
X167361766Y-90955576D01*
X167374554Y-90972819D01*
X167385590Y-90991232D01*
X167394769Y-91010638D01*
X167402001Y-91030850D01*
X167407217Y-91051674D01*
X167410367Y-91072909D01*
X167411420Y-91094350D01*
X167411420Y-91531850D01*
X167410367Y-91553291D01*
X167407217Y-91574526D01*
X167402001Y-91595350D01*
X167394769Y-91615562D01*
X167385590Y-91634968D01*
X167374554Y-91653381D01*
X167361766Y-91670624D01*
X167347350Y-91686530D01*
X167331444Y-91700946D01*
X167314201Y-91713734D01*
X167295788Y-91724770D01*
X167276382Y-91733949D01*
X167256170Y-91741181D01*
X167235346Y-91746397D01*
X167214111Y-91749547D01*
X167192670Y-91750600D01*
X166680170Y-91750600D01*
X166658729Y-91749547D01*
X166637494Y-91746397D01*
X166616670Y-91741181D01*
X166596458Y-91733949D01*
X166577052Y-91724770D01*
X166558639Y-91713734D01*
X166541396Y-91700946D01*
X166525490Y-91686530D01*
X166511074Y-91670624D01*
X166498286Y-91653381D01*
X166487250Y-91634968D01*
X166478071Y-91615562D01*
X166470839Y-91595350D01*
X166465623Y-91574526D01*
X166462473Y-91553291D01*
X166461420Y-91531850D01*
X166461420Y-91094350D01*
X166462473Y-91072909D01*
X166465623Y-91051674D01*
X166470839Y-91030850D01*
X166478071Y-91010638D01*
X166487250Y-90991232D01*
X166498286Y-90972819D01*
X166511074Y-90955576D01*
X166525490Y-90939670D01*
X166541396Y-90925254D01*
X166558639Y-90912466D01*
X166577052Y-90901430D01*
X166596458Y-90892251D01*
X166616670Y-90885019D01*
X166637494Y-90879803D01*
X166658729Y-90876653D01*
X166680170Y-90875600D01*
X167192670Y-90875600D01*
X167214111Y-90876653D01*
X167214111Y-90876653D01*
G37*
D19*
X166936420Y-91313100D03*
D10*
G36*
X168570471Y-89301653D02*
G01*
X168591706Y-89304803D01*
X168612530Y-89310019D01*
X168632742Y-89317251D01*
X168652148Y-89326430D01*
X168670561Y-89337466D01*
X168687804Y-89350254D01*
X168703710Y-89364670D01*
X168718126Y-89380576D01*
X168730914Y-89397819D01*
X168741950Y-89416232D01*
X168751129Y-89435638D01*
X168758361Y-89455850D01*
X168763577Y-89476674D01*
X168766727Y-89497909D01*
X168767780Y-89519350D01*
X168767780Y-89956850D01*
X168766727Y-89978291D01*
X168763577Y-89999526D01*
X168758361Y-90020350D01*
X168751129Y-90040562D01*
X168741950Y-90059968D01*
X168730914Y-90078381D01*
X168718126Y-90095624D01*
X168703710Y-90111530D01*
X168687804Y-90125946D01*
X168670561Y-90138734D01*
X168652148Y-90149770D01*
X168632742Y-90158949D01*
X168612530Y-90166181D01*
X168591706Y-90171397D01*
X168570471Y-90174547D01*
X168549030Y-90175600D01*
X168036530Y-90175600D01*
X168015089Y-90174547D01*
X167993854Y-90171397D01*
X167973030Y-90166181D01*
X167952818Y-90158949D01*
X167933412Y-90149770D01*
X167914999Y-90138734D01*
X167897756Y-90125946D01*
X167881850Y-90111530D01*
X167867434Y-90095624D01*
X167854646Y-90078381D01*
X167843610Y-90059968D01*
X167834431Y-90040562D01*
X167827199Y-90020350D01*
X167821983Y-89999526D01*
X167818833Y-89978291D01*
X167817780Y-89956850D01*
X167817780Y-89519350D01*
X167818833Y-89497909D01*
X167821983Y-89476674D01*
X167827199Y-89455850D01*
X167834431Y-89435638D01*
X167843610Y-89416232D01*
X167854646Y-89397819D01*
X167867434Y-89380576D01*
X167881850Y-89364670D01*
X167897756Y-89350254D01*
X167914999Y-89337466D01*
X167933412Y-89326430D01*
X167952818Y-89317251D01*
X167973030Y-89310019D01*
X167993854Y-89304803D01*
X168015089Y-89301653D01*
X168036530Y-89300600D01*
X168549030Y-89300600D01*
X168570471Y-89301653D01*
X168570471Y-89301653D01*
G37*
D19*
X168292780Y-89738100D03*
D10*
G36*
X168570471Y-90876653D02*
G01*
X168591706Y-90879803D01*
X168612530Y-90885019D01*
X168632742Y-90892251D01*
X168652148Y-90901430D01*
X168670561Y-90912466D01*
X168687804Y-90925254D01*
X168703710Y-90939670D01*
X168718126Y-90955576D01*
X168730914Y-90972819D01*
X168741950Y-90991232D01*
X168751129Y-91010638D01*
X168758361Y-91030850D01*
X168763577Y-91051674D01*
X168766727Y-91072909D01*
X168767780Y-91094350D01*
X168767780Y-91531850D01*
X168766727Y-91553291D01*
X168763577Y-91574526D01*
X168758361Y-91595350D01*
X168751129Y-91615562D01*
X168741950Y-91634968D01*
X168730914Y-91653381D01*
X168718126Y-91670624D01*
X168703710Y-91686530D01*
X168687804Y-91700946D01*
X168670561Y-91713734D01*
X168652148Y-91724770D01*
X168632742Y-91733949D01*
X168612530Y-91741181D01*
X168591706Y-91746397D01*
X168570471Y-91749547D01*
X168549030Y-91750600D01*
X168036530Y-91750600D01*
X168015089Y-91749547D01*
X167993854Y-91746397D01*
X167973030Y-91741181D01*
X167952818Y-91733949D01*
X167933412Y-91724770D01*
X167914999Y-91713734D01*
X167897756Y-91700946D01*
X167881850Y-91686530D01*
X167867434Y-91670624D01*
X167854646Y-91653381D01*
X167843610Y-91634968D01*
X167834431Y-91615562D01*
X167827199Y-91595350D01*
X167821983Y-91574526D01*
X167818833Y-91553291D01*
X167817780Y-91531850D01*
X167817780Y-91094350D01*
X167818833Y-91072909D01*
X167821983Y-91051674D01*
X167827199Y-91030850D01*
X167834431Y-91010638D01*
X167843610Y-90991232D01*
X167854646Y-90972819D01*
X167867434Y-90955576D01*
X167881850Y-90939670D01*
X167897756Y-90925254D01*
X167914999Y-90912466D01*
X167933412Y-90901430D01*
X167952818Y-90892251D01*
X167973030Y-90885019D01*
X167993854Y-90879803D01*
X168015089Y-90876653D01*
X168036530Y-90875600D01*
X168549030Y-90875600D01*
X168570471Y-90876653D01*
X168570471Y-90876653D01*
G37*
D19*
X168292780Y-91313100D03*
D10*
G36*
X170714731Y-81415653D02*
G01*
X170735966Y-81418803D01*
X170756790Y-81424019D01*
X170777002Y-81431251D01*
X170796408Y-81440430D01*
X170814821Y-81451466D01*
X170832064Y-81464254D01*
X170847970Y-81478670D01*
X170862386Y-81494576D01*
X170875174Y-81511819D01*
X170886210Y-81530232D01*
X170895389Y-81549638D01*
X170902621Y-81569850D01*
X170907837Y-81590674D01*
X170910987Y-81611909D01*
X170912040Y-81633350D01*
X170912040Y-82145850D01*
X170910987Y-82167291D01*
X170907837Y-82188526D01*
X170902621Y-82209350D01*
X170895389Y-82229562D01*
X170886210Y-82248968D01*
X170875174Y-82267381D01*
X170862386Y-82284624D01*
X170847970Y-82300530D01*
X170832064Y-82314946D01*
X170814821Y-82327734D01*
X170796408Y-82338770D01*
X170777002Y-82347949D01*
X170756790Y-82355181D01*
X170735966Y-82360397D01*
X170714731Y-82363547D01*
X170693290Y-82364600D01*
X170255790Y-82364600D01*
X170234349Y-82363547D01*
X170213114Y-82360397D01*
X170192290Y-82355181D01*
X170172078Y-82347949D01*
X170152672Y-82338770D01*
X170134259Y-82327734D01*
X170117016Y-82314946D01*
X170101110Y-82300530D01*
X170086694Y-82284624D01*
X170073906Y-82267381D01*
X170062870Y-82248968D01*
X170053691Y-82229562D01*
X170046459Y-82209350D01*
X170041243Y-82188526D01*
X170038093Y-82167291D01*
X170037040Y-82145850D01*
X170037040Y-81633350D01*
X170038093Y-81611909D01*
X170041243Y-81590674D01*
X170046459Y-81569850D01*
X170053691Y-81549638D01*
X170062870Y-81530232D01*
X170073906Y-81511819D01*
X170086694Y-81494576D01*
X170101110Y-81478670D01*
X170117016Y-81464254D01*
X170134259Y-81451466D01*
X170152672Y-81440430D01*
X170172078Y-81431251D01*
X170192290Y-81424019D01*
X170213114Y-81418803D01*
X170234349Y-81415653D01*
X170255790Y-81414600D01*
X170693290Y-81414600D01*
X170714731Y-81415653D01*
X170714731Y-81415653D01*
G37*
D19*
X170474540Y-81889600D03*
D10*
G36*
X172289731Y-81415653D02*
G01*
X172310966Y-81418803D01*
X172331790Y-81424019D01*
X172352002Y-81431251D01*
X172371408Y-81440430D01*
X172389821Y-81451466D01*
X172407064Y-81464254D01*
X172422970Y-81478670D01*
X172437386Y-81494576D01*
X172450174Y-81511819D01*
X172461210Y-81530232D01*
X172470389Y-81549638D01*
X172477621Y-81569850D01*
X172482837Y-81590674D01*
X172485987Y-81611909D01*
X172487040Y-81633350D01*
X172487040Y-82145850D01*
X172485987Y-82167291D01*
X172482837Y-82188526D01*
X172477621Y-82209350D01*
X172470389Y-82229562D01*
X172461210Y-82248968D01*
X172450174Y-82267381D01*
X172437386Y-82284624D01*
X172422970Y-82300530D01*
X172407064Y-82314946D01*
X172389821Y-82327734D01*
X172371408Y-82338770D01*
X172352002Y-82347949D01*
X172331790Y-82355181D01*
X172310966Y-82360397D01*
X172289731Y-82363547D01*
X172268290Y-82364600D01*
X171830790Y-82364600D01*
X171809349Y-82363547D01*
X171788114Y-82360397D01*
X171767290Y-82355181D01*
X171747078Y-82347949D01*
X171727672Y-82338770D01*
X171709259Y-82327734D01*
X171692016Y-82314946D01*
X171676110Y-82300530D01*
X171661694Y-82284624D01*
X171648906Y-82267381D01*
X171637870Y-82248968D01*
X171628691Y-82229562D01*
X171621459Y-82209350D01*
X171616243Y-82188526D01*
X171613093Y-82167291D01*
X171612040Y-82145850D01*
X171612040Y-81633350D01*
X171613093Y-81611909D01*
X171616243Y-81590674D01*
X171621459Y-81569850D01*
X171628691Y-81549638D01*
X171637870Y-81530232D01*
X171648906Y-81511819D01*
X171661694Y-81494576D01*
X171676110Y-81478670D01*
X171692016Y-81464254D01*
X171709259Y-81451466D01*
X171727672Y-81440430D01*
X171747078Y-81431251D01*
X171767290Y-81424019D01*
X171788114Y-81418803D01*
X171809349Y-81415653D01*
X171830790Y-81414600D01*
X172268290Y-81414600D01*
X172289731Y-81415653D01*
X172289731Y-81415653D01*
G37*
D19*
X172049540Y-81889600D03*
D10*
G36*
X170699491Y-82792333D02*
G01*
X170720726Y-82795483D01*
X170741550Y-82800699D01*
X170761762Y-82807931D01*
X170781168Y-82817110D01*
X170799581Y-82828146D01*
X170816824Y-82840934D01*
X170832730Y-82855350D01*
X170847146Y-82871256D01*
X170859934Y-82888499D01*
X170870970Y-82906912D01*
X170880149Y-82926318D01*
X170887381Y-82946530D01*
X170892597Y-82967354D01*
X170895747Y-82988589D01*
X170896800Y-83010030D01*
X170896800Y-83522530D01*
X170895747Y-83543971D01*
X170892597Y-83565206D01*
X170887381Y-83586030D01*
X170880149Y-83606242D01*
X170870970Y-83625648D01*
X170859934Y-83644061D01*
X170847146Y-83661304D01*
X170832730Y-83677210D01*
X170816824Y-83691626D01*
X170799581Y-83704414D01*
X170781168Y-83715450D01*
X170761762Y-83724629D01*
X170741550Y-83731861D01*
X170720726Y-83737077D01*
X170699491Y-83740227D01*
X170678050Y-83741280D01*
X170240550Y-83741280D01*
X170219109Y-83740227D01*
X170197874Y-83737077D01*
X170177050Y-83731861D01*
X170156838Y-83724629D01*
X170137432Y-83715450D01*
X170119019Y-83704414D01*
X170101776Y-83691626D01*
X170085870Y-83677210D01*
X170071454Y-83661304D01*
X170058666Y-83644061D01*
X170047630Y-83625648D01*
X170038451Y-83606242D01*
X170031219Y-83586030D01*
X170026003Y-83565206D01*
X170022853Y-83543971D01*
X170021800Y-83522530D01*
X170021800Y-83010030D01*
X170022853Y-82988589D01*
X170026003Y-82967354D01*
X170031219Y-82946530D01*
X170038451Y-82926318D01*
X170047630Y-82906912D01*
X170058666Y-82888499D01*
X170071454Y-82871256D01*
X170085870Y-82855350D01*
X170101776Y-82840934D01*
X170119019Y-82828146D01*
X170137432Y-82817110D01*
X170156838Y-82807931D01*
X170177050Y-82800699D01*
X170197874Y-82795483D01*
X170219109Y-82792333D01*
X170240550Y-82791280D01*
X170678050Y-82791280D01*
X170699491Y-82792333D01*
X170699491Y-82792333D01*
G37*
D19*
X170459300Y-83266280D03*
D10*
G36*
X172274491Y-82792333D02*
G01*
X172295726Y-82795483D01*
X172316550Y-82800699D01*
X172336762Y-82807931D01*
X172356168Y-82817110D01*
X172374581Y-82828146D01*
X172391824Y-82840934D01*
X172407730Y-82855350D01*
X172422146Y-82871256D01*
X172434934Y-82888499D01*
X172445970Y-82906912D01*
X172455149Y-82926318D01*
X172462381Y-82946530D01*
X172467597Y-82967354D01*
X172470747Y-82988589D01*
X172471800Y-83010030D01*
X172471800Y-83522530D01*
X172470747Y-83543971D01*
X172467597Y-83565206D01*
X172462381Y-83586030D01*
X172455149Y-83606242D01*
X172445970Y-83625648D01*
X172434934Y-83644061D01*
X172422146Y-83661304D01*
X172407730Y-83677210D01*
X172391824Y-83691626D01*
X172374581Y-83704414D01*
X172356168Y-83715450D01*
X172336762Y-83724629D01*
X172316550Y-83731861D01*
X172295726Y-83737077D01*
X172274491Y-83740227D01*
X172253050Y-83741280D01*
X171815550Y-83741280D01*
X171794109Y-83740227D01*
X171772874Y-83737077D01*
X171752050Y-83731861D01*
X171731838Y-83724629D01*
X171712432Y-83715450D01*
X171694019Y-83704414D01*
X171676776Y-83691626D01*
X171660870Y-83677210D01*
X171646454Y-83661304D01*
X171633666Y-83644061D01*
X171622630Y-83625648D01*
X171613451Y-83606242D01*
X171606219Y-83586030D01*
X171601003Y-83565206D01*
X171597853Y-83543971D01*
X171596800Y-83522530D01*
X171596800Y-83010030D01*
X171597853Y-82988589D01*
X171601003Y-82967354D01*
X171606219Y-82946530D01*
X171613451Y-82926318D01*
X171622630Y-82906912D01*
X171633666Y-82888499D01*
X171646454Y-82871256D01*
X171660870Y-82855350D01*
X171676776Y-82840934D01*
X171694019Y-82828146D01*
X171712432Y-82817110D01*
X171731838Y-82807931D01*
X171752050Y-82800699D01*
X171772874Y-82795483D01*
X171794109Y-82792333D01*
X171815550Y-82791280D01*
X172253050Y-82791280D01*
X172274491Y-82792333D01*
X172274491Y-82792333D01*
G37*
D19*
X172034300Y-83266280D03*
D10*
G36*
X151294091Y-84743053D02*
G01*
X151315326Y-84746203D01*
X151336150Y-84751419D01*
X151356362Y-84758651D01*
X151375768Y-84767830D01*
X151394181Y-84778866D01*
X151411424Y-84791654D01*
X151427330Y-84806070D01*
X151441746Y-84821976D01*
X151454534Y-84839219D01*
X151465570Y-84857632D01*
X151474749Y-84877038D01*
X151481981Y-84897250D01*
X151487197Y-84918074D01*
X151490347Y-84939309D01*
X151491400Y-84960750D01*
X151491400Y-85473250D01*
X151490347Y-85494691D01*
X151487197Y-85515926D01*
X151481981Y-85536750D01*
X151474749Y-85556962D01*
X151465570Y-85576368D01*
X151454534Y-85594781D01*
X151441746Y-85612024D01*
X151427330Y-85627930D01*
X151411424Y-85642346D01*
X151394181Y-85655134D01*
X151375768Y-85666170D01*
X151356362Y-85675349D01*
X151336150Y-85682581D01*
X151315326Y-85687797D01*
X151294091Y-85690947D01*
X151272650Y-85692000D01*
X150835150Y-85692000D01*
X150813709Y-85690947D01*
X150792474Y-85687797D01*
X150771650Y-85682581D01*
X150751438Y-85675349D01*
X150732032Y-85666170D01*
X150713619Y-85655134D01*
X150696376Y-85642346D01*
X150680470Y-85627930D01*
X150666054Y-85612024D01*
X150653266Y-85594781D01*
X150642230Y-85576368D01*
X150633051Y-85556962D01*
X150625819Y-85536750D01*
X150620603Y-85515926D01*
X150617453Y-85494691D01*
X150616400Y-85473250D01*
X150616400Y-84960750D01*
X150617453Y-84939309D01*
X150620603Y-84918074D01*
X150625819Y-84897250D01*
X150633051Y-84877038D01*
X150642230Y-84857632D01*
X150653266Y-84839219D01*
X150666054Y-84821976D01*
X150680470Y-84806070D01*
X150696376Y-84791654D01*
X150713619Y-84778866D01*
X150732032Y-84767830D01*
X150751438Y-84758651D01*
X150771650Y-84751419D01*
X150792474Y-84746203D01*
X150813709Y-84743053D01*
X150835150Y-84742000D01*
X151272650Y-84742000D01*
X151294091Y-84743053D01*
X151294091Y-84743053D01*
G37*
D19*
X151053900Y-85217000D03*
D10*
G36*
X149719091Y-84743053D02*
G01*
X149740326Y-84746203D01*
X149761150Y-84751419D01*
X149781362Y-84758651D01*
X149800768Y-84767830D01*
X149819181Y-84778866D01*
X149836424Y-84791654D01*
X149852330Y-84806070D01*
X149866746Y-84821976D01*
X149879534Y-84839219D01*
X149890570Y-84857632D01*
X149899749Y-84877038D01*
X149906981Y-84897250D01*
X149912197Y-84918074D01*
X149915347Y-84939309D01*
X149916400Y-84960750D01*
X149916400Y-85473250D01*
X149915347Y-85494691D01*
X149912197Y-85515926D01*
X149906981Y-85536750D01*
X149899749Y-85556962D01*
X149890570Y-85576368D01*
X149879534Y-85594781D01*
X149866746Y-85612024D01*
X149852330Y-85627930D01*
X149836424Y-85642346D01*
X149819181Y-85655134D01*
X149800768Y-85666170D01*
X149781362Y-85675349D01*
X149761150Y-85682581D01*
X149740326Y-85687797D01*
X149719091Y-85690947D01*
X149697650Y-85692000D01*
X149260150Y-85692000D01*
X149238709Y-85690947D01*
X149217474Y-85687797D01*
X149196650Y-85682581D01*
X149176438Y-85675349D01*
X149157032Y-85666170D01*
X149138619Y-85655134D01*
X149121376Y-85642346D01*
X149105470Y-85627930D01*
X149091054Y-85612024D01*
X149078266Y-85594781D01*
X149067230Y-85576368D01*
X149058051Y-85556962D01*
X149050819Y-85536750D01*
X149045603Y-85515926D01*
X149042453Y-85494691D01*
X149041400Y-85473250D01*
X149041400Y-84960750D01*
X149042453Y-84939309D01*
X149045603Y-84918074D01*
X149050819Y-84897250D01*
X149058051Y-84877038D01*
X149067230Y-84857632D01*
X149078266Y-84839219D01*
X149091054Y-84821976D01*
X149105470Y-84806070D01*
X149121376Y-84791654D01*
X149138619Y-84778866D01*
X149157032Y-84767830D01*
X149176438Y-84758651D01*
X149196650Y-84751419D01*
X149217474Y-84746203D01*
X149238709Y-84743053D01*
X149260150Y-84742000D01*
X149697650Y-84742000D01*
X149719091Y-84743053D01*
X149719091Y-84743053D01*
G37*
D19*
X149478900Y-85217000D03*
D10*
G36*
X148689891Y-88349353D02*
G01*
X148711126Y-88352503D01*
X148731950Y-88357719D01*
X148752162Y-88364951D01*
X148771568Y-88374130D01*
X148789981Y-88385166D01*
X148807224Y-88397954D01*
X148823130Y-88412370D01*
X148837546Y-88428276D01*
X148850334Y-88445519D01*
X148861370Y-88463932D01*
X148870549Y-88483338D01*
X148877781Y-88503550D01*
X148882997Y-88524374D01*
X148886147Y-88545609D01*
X148887200Y-88567050D01*
X148887200Y-89004550D01*
X148886147Y-89025991D01*
X148882997Y-89047226D01*
X148877781Y-89068050D01*
X148870549Y-89088262D01*
X148861370Y-89107668D01*
X148850334Y-89126081D01*
X148837546Y-89143324D01*
X148823130Y-89159230D01*
X148807224Y-89173646D01*
X148789981Y-89186434D01*
X148771568Y-89197470D01*
X148752162Y-89206649D01*
X148731950Y-89213881D01*
X148711126Y-89219097D01*
X148689891Y-89222247D01*
X148668450Y-89223300D01*
X148155950Y-89223300D01*
X148134509Y-89222247D01*
X148113274Y-89219097D01*
X148092450Y-89213881D01*
X148072238Y-89206649D01*
X148052832Y-89197470D01*
X148034419Y-89186434D01*
X148017176Y-89173646D01*
X148001270Y-89159230D01*
X147986854Y-89143324D01*
X147974066Y-89126081D01*
X147963030Y-89107668D01*
X147953851Y-89088262D01*
X147946619Y-89068050D01*
X147941403Y-89047226D01*
X147938253Y-89025991D01*
X147937200Y-89004550D01*
X147937200Y-88567050D01*
X147938253Y-88545609D01*
X147941403Y-88524374D01*
X147946619Y-88503550D01*
X147953851Y-88483338D01*
X147963030Y-88463932D01*
X147974066Y-88445519D01*
X147986854Y-88428276D01*
X148001270Y-88412370D01*
X148017176Y-88397954D01*
X148034419Y-88385166D01*
X148052832Y-88374130D01*
X148072238Y-88364951D01*
X148092450Y-88357719D01*
X148113274Y-88352503D01*
X148134509Y-88349353D01*
X148155950Y-88348300D01*
X148668450Y-88348300D01*
X148689891Y-88349353D01*
X148689891Y-88349353D01*
G37*
D19*
X148412200Y-88785800D03*
D10*
G36*
X148689891Y-86774353D02*
G01*
X148711126Y-86777503D01*
X148731950Y-86782719D01*
X148752162Y-86789951D01*
X148771568Y-86799130D01*
X148789981Y-86810166D01*
X148807224Y-86822954D01*
X148823130Y-86837370D01*
X148837546Y-86853276D01*
X148850334Y-86870519D01*
X148861370Y-86888932D01*
X148870549Y-86908338D01*
X148877781Y-86928550D01*
X148882997Y-86949374D01*
X148886147Y-86970609D01*
X148887200Y-86992050D01*
X148887200Y-87429550D01*
X148886147Y-87450991D01*
X148882997Y-87472226D01*
X148877781Y-87493050D01*
X148870549Y-87513262D01*
X148861370Y-87532668D01*
X148850334Y-87551081D01*
X148837546Y-87568324D01*
X148823130Y-87584230D01*
X148807224Y-87598646D01*
X148789981Y-87611434D01*
X148771568Y-87622470D01*
X148752162Y-87631649D01*
X148731950Y-87638881D01*
X148711126Y-87644097D01*
X148689891Y-87647247D01*
X148668450Y-87648300D01*
X148155950Y-87648300D01*
X148134509Y-87647247D01*
X148113274Y-87644097D01*
X148092450Y-87638881D01*
X148072238Y-87631649D01*
X148052832Y-87622470D01*
X148034419Y-87611434D01*
X148017176Y-87598646D01*
X148001270Y-87584230D01*
X147986854Y-87568324D01*
X147974066Y-87551081D01*
X147963030Y-87532668D01*
X147953851Y-87513262D01*
X147946619Y-87493050D01*
X147941403Y-87472226D01*
X147938253Y-87450991D01*
X147937200Y-87429550D01*
X147937200Y-86992050D01*
X147938253Y-86970609D01*
X147941403Y-86949374D01*
X147946619Y-86928550D01*
X147953851Y-86908338D01*
X147963030Y-86888932D01*
X147974066Y-86870519D01*
X147986854Y-86853276D01*
X148001270Y-86837370D01*
X148017176Y-86822954D01*
X148034419Y-86810166D01*
X148052832Y-86799130D01*
X148072238Y-86789951D01*
X148092450Y-86782719D01*
X148113274Y-86777503D01*
X148134509Y-86774353D01*
X148155950Y-86773300D01*
X148668450Y-86773300D01*
X148689891Y-86774353D01*
X148689891Y-86774353D01*
G37*
D19*
X148412200Y-87210800D03*
D10*
G36*
X173414251Y-91961233D02*
G01*
X173435486Y-91964383D01*
X173456310Y-91969599D01*
X173476522Y-91976831D01*
X173495928Y-91986010D01*
X173514341Y-91997046D01*
X173531584Y-92009834D01*
X173547490Y-92024250D01*
X173561906Y-92040156D01*
X173574694Y-92057399D01*
X173585730Y-92075812D01*
X173594909Y-92095218D01*
X173602141Y-92115430D01*
X173607357Y-92136254D01*
X173610507Y-92157489D01*
X173611560Y-92178930D01*
X173611560Y-92616430D01*
X173610507Y-92637871D01*
X173607357Y-92659106D01*
X173602141Y-92679930D01*
X173594909Y-92700142D01*
X173585730Y-92719548D01*
X173574694Y-92737961D01*
X173561906Y-92755204D01*
X173547490Y-92771110D01*
X173531584Y-92785526D01*
X173514341Y-92798314D01*
X173495928Y-92809350D01*
X173476522Y-92818529D01*
X173456310Y-92825761D01*
X173435486Y-92830977D01*
X173414251Y-92834127D01*
X173392810Y-92835180D01*
X172880310Y-92835180D01*
X172858869Y-92834127D01*
X172837634Y-92830977D01*
X172816810Y-92825761D01*
X172796598Y-92818529D01*
X172777192Y-92809350D01*
X172758779Y-92798314D01*
X172741536Y-92785526D01*
X172725630Y-92771110D01*
X172711214Y-92755204D01*
X172698426Y-92737961D01*
X172687390Y-92719548D01*
X172678211Y-92700142D01*
X172670979Y-92679930D01*
X172665763Y-92659106D01*
X172662613Y-92637871D01*
X172661560Y-92616430D01*
X172661560Y-92178930D01*
X172662613Y-92157489D01*
X172665763Y-92136254D01*
X172670979Y-92115430D01*
X172678211Y-92095218D01*
X172687390Y-92075812D01*
X172698426Y-92057399D01*
X172711214Y-92040156D01*
X172725630Y-92024250D01*
X172741536Y-92009834D01*
X172758779Y-91997046D01*
X172777192Y-91986010D01*
X172796598Y-91976831D01*
X172816810Y-91969599D01*
X172837634Y-91964383D01*
X172858869Y-91961233D01*
X172880310Y-91960180D01*
X173392810Y-91960180D01*
X173414251Y-91961233D01*
X173414251Y-91961233D01*
G37*
D19*
X173136560Y-92397680D03*
D10*
G36*
X173414251Y-90386233D02*
G01*
X173435486Y-90389383D01*
X173456310Y-90394599D01*
X173476522Y-90401831D01*
X173495928Y-90411010D01*
X173514341Y-90422046D01*
X173531584Y-90434834D01*
X173547490Y-90449250D01*
X173561906Y-90465156D01*
X173574694Y-90482399D01*
X173585730Y-90500812D01*
X173594909Y-90520218D01*
X173602141Y-90540430D01*
X173607357Y-90561254D01*
X173610507Y-90582489D01*
X173611560Y-90603930D01*
X173611560Y-91041430D01*
X173610507Y-91062871D01*
X173607357Y-91084106D01*
X173602141Y-91104930D01*
X173594909Y-91125142D01*
X173585730Y-91144548D01*
X173574694Y-91162961D01*
X173561906Y-91180204D01*
X173547490Y-91196110D01*
X173531584Y-91210526D01*
X173514341Y-91223314D01*
X173495928Y-91234350D01*
X173476522Y-91243529D01*
X173456310Y-91250761D01*
X173435486Y-91255977D01*
X173414251Y-91259127D01*
X173392810Y-91260180D01*
X172880310Y-91260180D01*
X172858869Y-91259127D01*
X172837634Y-91255977D01*
X172816810Y-91250761D01*
X172796598Y-91243529D01*
X172777192Y-91234350D01*
X172758779Y-91223314D01*
X172741536Y-91210526D01*
X172725630Y-91196110D01*
X172711214Y-91180204D01*
X172698426Y-91162961D01*
X172687390Y-91144548D01*
X172678211Y-91125142D01*
X172670979Y-91104930D01*
X172665763Y-91084106D01*
X172662613Y-91062871D01*
X172661560Y-91041430D01*
X172661560Y-90603930D01*
X172662613Y-90582489D01*
X172665763Y-90561254D01*
X172670979Y-90540430D01*
X172678211Y-90520218D01*
X172687390Y-90500812D01*
X172698426Y-90482399D01*
X172711214Y-90465156D01*
X172725630Y-90449250D01*
X172741536Y-90434834D01*
X172758779Y-90422046D01*
X172777192Y-90411010D01*
X172796598Y-90401831D01*
X172816810Y-90394599D01*
X172837634Y-90389383D01*
X172858869Y-90386233D01*
X172880310Y-90385180D01*
X173392810Y-90385180D01*
X173414251Y-90386233D01*
X173414251Y-90386233D01*
G37*
D19*
X173136560Y-90822680D03*
D10*
G36*
X167856731Y-80005453D02*
G01*
X167877966Y-80008603D01*
X167898790Y-80013819D01*
X167919002Y-80021051D01*
X167938408Y-80030230D01*
X167956821Y-80041266D01*
X167974064Y-80054054D01*
X167989970Y-80068470D01*
X168004386Y-80084376D01*
X168017174Y-80101619D01*
X168028210Y-80120032D01*
X168037389Y-80139438D01*
X168044621Y-80159650D01*
X168049837Y-80180474D01*
X168052987Y-80201709D01*
X168054040Y-80223150D01*
X168054040Y-80660650D01*
X168052987Y-80682091D01*
X168049837Y-80703326D01*
X168044621Y-80724150D01*
X168037389Y-80744362D01*
X168028210Y-80763768D01*
X168017174Y-80782181D01*
X168004386Y-80799424D01*
X167989970Y-80815330D01*
X167974064Y-80829746D01*
X167956821Y-80842534D01*
X167938408Y-80853570D01*
X167919002Y-80862749D01*
X167898790Y-80869981D01*
X167877966Y-80875197D01*
X167856731Y-80878347D01*
X167835290Y-80879400D01*
X167322790Y-80879400D01*
X167301349Y-80878347D01*
X167280114Y-80875197D01*
X167259290Y-80869981D01*
X167239078Y-80862749D01*
X167219672Y-80853570D01*
X167201259Y-80842534D01*
X167184016Y-80829746D01*
X167168110Y-80815330D01*
X167153694Y-80799424D01*
X167140906Y-80782181D01*
X167129870Y-80763768D01*
X167120691Y-80744362D01*
X167113459Y-80724150D01*
X167108243Y-80703326D01*
X167105093Y-80682091D01*
X167104040Y-80660650D01*
X167104040Y-80223150D01*
X167105093Y-80201709D01*
X167108243Y-80180474D01*
X167113459Y-80159650D01*
X167120691Y-80139438D01*
X167129870Y-80120032D01*
X167140906Y-80101619D01*
X167153694Y-80084376D01*
X167168110Y-80068470D01*
X167184016Y-80054054D01*
X167201259Y-80041266D01*
X167219672Y-80030230D01*
X167239078Y-80021051D01*
X167259290Y-80013819D01*
X167280114Y-80008603D01*
X167301349Y-80005453D01*
X167322790Y-80004400D01*
X167835290Y-80004400D01*
X167856731Y-80005453D01*
X167856731Y-80005453D01*
G37*
D19*
X167579040Y-80441900D03*
D10*
G36*
X167856731Y-78430453D02*
G01*
X167877966Y-78433603D01*
X167898790Y-78438819D01*
X167919002Y-78446051D01*
X167938408Y-78455230D01*
X167956821Y-78466266D01*
X167974064Y-78479054D01*
X167989970Y-78493470D01*
X168004386Y-78509376D01*
X168017174Y-78526619D01*
X168028210Y-78545032D01*
X168037389Y-78564438D01*
X168044621Y-78584650D01*
X168049837Y-78605474D01*
X168052987Y-78626709D01*
X168054040Y-78648150D01*
X168054040Y-79085650D01*
X168052987Y-79107091D01*
X168049837Y-79128326D01*
X168044621Y-79149150D01*
X168037389Y-79169362D01*
X168028210Y-79188768D01*
X168017174Y-79207181D01*
X168004386Y-79224424D01*
X167989970Y-79240330D01*
X167974064Y-79254746D01*
X167956821Y-79267534D01*
X167938408Y-79278570D01*
X167919002Y-79287749D01*
X167898790Y-79294981D01*
X167877966Y-79300197D01*
X167856731Y-79303347D01*
X167835290Y-79304400D01*
X167322790Y-79304400D01*
X167301349Y-79303347D01*
X167280114Y-79300197D01*
X167259290Y-79294981D01*
X167239078Y-79287749D01*
X167219672Y-79278570D01*
X167201259Y-79267534D01*
X167184016Y-79254746D01*
X167168110Y-79240330D01*
X167153694Y-79224424D01*
X167140906Y-79207181D01*
X167129870Y-79188768D01*
X167120691Y-79169362D01*
X167113459Y-79149150D01*
X167108243Y-79128326D01*
X167105093Y-79107091D01*
X167104040Y-79085650D01*
X167104040Y-78648150D01*
X167105093Y-78626709D01*
X167108243Y-78605474D01*
X167113459Y-78584650D01*
X167120691Y-78564438D01*
X167129870Y-78545032D01*
X167140906Y-78526619D01*
X167153694Y-78509376D01*
X167168110Y-78493470D01*
X167184016Y-78479054D01*
X167201259Y-78466266D01*
X167219672Y-78455230D01*
X167239078Y-78446051D01*
X167259290Y-78438819D01*
X167280114Y-78433603D01*
X167301349Y-78430453D01*
X167322790Y-78429400D01*
X167835290Y-78429400D01*
X167856731Y-78430453D01*
X167856731Y-78430453D01*
G37*
D19*
X167579040Y-78866900D03*
D20*
X146070080Y-81645760D03*
D10*
G36*
X145570080Y-80895760D02*
G01*
X146070080Y-80895760D01*
X146070080Y-80896362D01*
X146094614Y-80896362D01*
X146143445Y-80901172D01*
X146191570Y-80910744D01*
X146238525Y-80924988D01*
X146283858Y-80943765D01*
X146327131Y-80966896D01*
X146367930Y-80994156D01*
X146405859Y-81025284D01*
X146440556Y-81059981D01*
X146471684Y-81097910D01*
X146498944Y-81138709D01*
X146522075Y-81181982D01*
X146540852Y-81227315D01*
X146555096Y-81274270D01*
X146564668Y-81322395D01*
X146569478Y-81371226D01*
X146569478Y-81395760D01*
X146570080Y-81395760D01*
X146570080Y-81895760D01*
X146569478Y-81895760D01*
X146569478Y-81920294D01*
X146564668Y-81969125D01*
X146555096Y-82017250D01*
X146540852Y-82064205D01*
X146522075Y-82109538D01*
X146498944Y-82152811D01*
X146471684Y-82193610D01*
X146440556Y-82231539D01*
X146405859Y-82266236D01*
X146367930Y-82297364D01*
X146327131Y-82324624D01*
X146283858Y-82347755D01*
X146238525Y-82366532D01*
X146191570Y-82380776D01*
X146143445Y-82390348D01*
X146094614Y-82395158D01*
X146070080Y-82395158D01*
X146070080Y-82395760D01*
X145570080Y-82395760D01*
X145570080Y-80895760D01*
X145570080Y-80895760D01*
G37*
D20*
X144770080Y-81645760D03*
D10*
G36*
X144770080Y-82395158D02*
G01*
X144745546Y-82395158D01*
X144696715Y-82390348D01*
X144648590Y-82380776D01*
X144601635Y-82366532D01*
X144556302Y-82347755D01*
X144513029Y-82324624D01*
X144472230Y-82297364D01*
X144434301Y-82266236D01*
X144399604Y-82231539D01*
X144368476Y-82193610D01*
X144341216Y-82152811D01*
X144318085Y-82109538D01*
X144299308Y-82064205D01*
X144285064Y-82017250D01*
X144275492Y-81969125D01*
X144270682Y-81920294D01*
X144270682Y-81895760D01*
X144270080Y-81895760D01*
X144270080Y-81395760D01*
X144270682Y-81395760D01*
X144270682Y-81371226D01*
X144275492Y-81322395D01*
X144285064Y-81274270D01*
X144299308Y-81227315D01*
X144318085Y-81181982D01*
X144341216Y-81138709D01*
X144368476Y-81097910D01*
X144399604Y-81059981D01*
X144434301Y-81025284D01*
X144472230Y-80994156D01*
X144513029Y-80966896D01*
X144556302Y-80943765D01*
X144601635Y-80924988D01*
X144648590Y-80910744D01*
X144696715Y-80901172D01*
X144745546Y-80896362D01*
X144770080Y-80896362D01*
X144770080Y-80895760D01*
X145270080Y-80895760D01*
X145270080Y-82395760D01*
X144770080Y-82395760D01*
X144770080Y-82395158D01*
X144770080Y-82395158D01*
G37*
D20*
X146057380Y-79413100D03*
D10*
G36*
X145557380Y-78663100D02*
G01*
X146057380Y-78663100D01*
X146057380Y-78663702D01*
X146081914Y-78663702D01*
X146130745Y-78668512D01*
X146178870Y-78678084D01*
X146225825Y-78692328D01*
X146271158Y-78711105D01*
X146314431Y-78734236D01*
X146355230Y-78761496D01*
X146393159Y-78792624D01*
X146427856Y-78827321D01*
X146458984Y-78865250D01*
X146486244Y-78906049D01*
X146509375Y-78949322D01*
X146528152Y-78994655D01*
X146542396Y-79041610D01*
X146551968Y-79089735D01*
X146556778Y-79138566D01*
X146556778Y-79163100D01*
X146557380Y-79163100D01*
X146557380Y-79663100D01*
X146556778Y-79663100D01*
X146556778Y-79687634D01*
X146551968Y-79736465D01*
X146542396Y-79784590D01*
X146528152Y-79831545D01*
X146509375Y-79876878D01*
X146486244Y-79920151D01*
X146458984Y-79960950D01*
X146427856Y-79998879D01*
X146393159Y-80033576D01*
X146355230Y-80064704D01*
X146314431Y-80091964D01*
X146271158Y-80115095D01*
X146225825Y-80133872D01*
X146178870Y-80148116D01*
X146130745Y-80157688D01*
X146081914Y-80162498D01*
X146057380Y-80162498D01*
X146057380Y-80163100D01*
X145557380Y-80163100D01*
X145557380Y-78663100D01*
X145557380Y-78663100D01*
G37*
D20*
X144757380Y-79413100D03*
D10*
G36*
X144757380Y-80162498D02*
G01*
X144732846Y-80162498D01*
X144684015Y-80157688D01*
X144635890Y-80148116D01*
X144588935Y-80133872D01*
X144543602Y-80115095D01*
X144500329Y-80091964D01*
X144459530Y-80064704D01*
X144421601Y-80033576D01*
X144386904Y-79998879D01*
X144355776Y-79960950D01*
X144328516Y-79920151D01*
X144305385Y-79876878D01*
X144286608Y-79831545D01*
X144272364Y-79784590D01*
X144262792Y-79736465D01*
X144257982Y-79687634D01*
X144257982Y-79663100D01*
X144257380Y-79663100D01*
X144257380Y-79163100D01*
X144257982Y-79163100D01*
X144257982Y-79138566D01*
X144262792Y-79089735D01*
X144272364Y-79041610D01*
X144286608Y-78994655D01*
X144305385Y-78949322D01*
X144328516Y-78906049D01*
X144355776Y-78865250D01*
X144386904Y-78827321D01*
X144421601Y-78792624D01*
X144459530Y-78761496D01*
X144500329Y-78734236D01*
X144543602Y-78711105D01*
X144588935Y-78692328D01*
X144635890Y-78678084D01*
X144684015Y-78668512D01*
X144732846Y-78663702D01*
X144757380Y-78663702D01*
X144757380Y-78663100D01*
X145257380Y-78663100D01*
X145257380Y-80163100D01*
X144757380Y-80163100D01*
X144757380Y-80162498D01*
X144757380Y-80162498D01*
G37*
G36*
X140687051Y-81171813D02*
G01*
X140708286Y-81174963D01*
X140729110Y-81180179D01*
X140749322Y-81187411D01*
X140768728Y-81196590D01*
X140787141Y-81207626D01*
X140804384Y-81220414D01*
X140820290Y-81234830D01*
X140834706Y-81250736D01*
X140847494Y-81267979D01*
X140858530Y-81286392D01*
X140867709Y-81305798D01*
X140874941Y-81326010D01*
X140880157Y-81346834D01*
X140883307Y-81368069D01*
X140884360Y-81389510D01*
X140884360Y-81902010D01*
X140883307Y-81923451D01*
X140880157Y-81944686D01*
X140874941Y-81965510D01*
X140867709Y-81985722D01*
X140858530Y-82005128D01*
X140847494Y-82023541D01*
X140834706Y-82040784D01*
X140820290Y-82056690D01*
X140804384Y-82071106D01*
X140787141Y-82083894D01*
X140768728Y-82094930D01*
X140749322Y-82104109D01*
X140729110Y-82111341D01*
X140708286Y-82116557D01*
X140687051Y-82119707D01*
X140665610Y-82120760D01*
X140228110Y-82120760D01*
X140206669Y-82119707D01*
X140185434Y-82116557D01*
X140164610Y-82111341D01*
X140144398Y-82104109D01*
X140124992Y-82094930D01*
X140106579Y-82083894D01*
X140089336Y-82071106D01*
X140073430Y-82056690D01*
X140059014Y-82040784D01*
X140046226Y-82023541D01*
X140035190Y-82005128D01*
X140026011Y-81985722D01*
X140018779Y-81965510D01*
X140013563Y-81944686D01*
X140010413Y-81923451D01*
X140009360Y-81902010D01*
X140009360Y-81389510D01*
X140010413Y-81368069D01*
X140013563Y-81346834D01*
X140018779Y-81326010D01*
X140026011Y-81305798D01*
X140035190Y-81286392D01*
X140046226Y-81267979D01*
X140059014Y-81250736D01*
X140073430Y-81234830D01*
X140089336Y-81220414D01*
X140106579Y-81207626D01*
X140124992Y-81196590D01*
X140144398Y-81187411D01*
X140164610Y-81180179D01*
X140185434Y-81174963D01*
X140206669Y-81171813D01*
X140228110Y-81170760D01*
X140665610Y-81170760D01*
X140687051Y-81171813D01*
X140687051Y-81171813D01*
G37*
D19*
X140446860Y-81645760D03*
D10*
G36*
X139112051Y-81171813D02*
G01*
X139133286Y-81174963D01*
X139154110Y-81180179D01*
X139174322Y-81187411D01*
X139193728Y-81196590D01*
X139212141Y-81207626D01*
X139229384Y-81220414D01*
X139245290Y-81234830D01*
X139259706Y-81250736D01*
X139272494Y-81267979D01*
X139283530Y-81286392D01*
X139292709Y-81305798D01*
X139299941Y-81326010D01*
X139305157Y-81346834D01*
X139308307Y-81368069D01*
X139309360Y-81389510D01*
X139309360Y-81902010D01*
X139308307Y-81923451D01*
X139305157Y-81944686D01*
X139299941Y-81965510D01*
X139292709Y-81985722D01*
X139283530Y-82005128D01*
X139272494Y-82023541D01*
X139259706Y-82040784D01*
X139245290Y-82056690D01*
X139229384Y-82071106D01*
X139212141Y-82083894D01*
X139193728Y-82094930D01*
X139174322Y-82104109D01*
X139154110Y-82111341D01*
X139133286Y-82116557D01*
X139112051Y-82119707D01*
X139090610Y-82120760D01*
X138653110Y-82120760D01*
X138631669Y-82119707D01*
X138610434Y-82116557D01*
X138589610Y-82111341D01*
X138569398Y-82104109D01*
X138549992Y-82094930D01*
X138531579Y-82083894D01*
X138514336Y-82071106D01*
X138498430Y-82056690D01*
X138484014Y-82040784D01*
X138471226Y-82023541D01*
X138460190Y-82005128D01*
X138451011Y-81985722D01*
X138443779Y-81965510D01*
X138438563Y-81944686D01*
X138435413Y-81923451D01*
X138434360Y-81902010D01*
X138434360Y-81389510D01*
X138435413Y-81368069D01*
X138438563Y-81346834D01*
X138443779Y-81326010D01*
X138451011Y-81305798D01*
X138460190Y-81286392D01*
X138471226Y-81267979D01*
X138484014Y-81250736D01*
X138498430Y-81234830D01*
X138514336Y-81220414D01*
X138531579Y-81207626D01*
X138549992Y-81196590D01*
X138569398Y-81187411D01*
X138589610Y-81180179D01*
X138610434Y-81174963D01*
X138631669Y-81171813D01*
X138653110Y-81170760D01*
X139090610Y-81170760D01*
X139112051Y-81171813D01*
X139112051Y-81171813D01*
G37*
D19*
X138871860Y-81645760D03*
D10*
G36*
X140694671Y-78939153D02*
G01*
X140715906Y-78942303D01*
X140736730Y-78947519D01*
X140756942Y-78954751D01*
X140776348Y-78963930D01*
X140794761Y-78974966D01*
X140812004Y-78987754D01*
X140827910Y-79002170D01*
X140842326Y-79018076D01*
X140855114Y-79035319D01*
X140866150Y-79053732D01*
X140875329Y-79073138D01*
X140882561Y-79093350D01*
X140887777Y-79114174D01*
X140890927Y-79135409D01*
X140891980Y-79156850D01*
X140891980Y-79669350D01*
X140890927Y-79690791D01*
X140887777Y-79712026D01*
X140882561Y-79732850D01*
X140875329Y-79753062D01*
X140866150Y-79772468D01*
X140855114Y-79790881D01*
X140842326Y-79808124D01*
X140827910Y-79824030D01*
X140812004Y-79838446D01*
X140794761Y-79851234D01*
X140776348Y-79862270D01*
X140756942Y-79871449D01*
X140736730Y-79878681D01*
X140715906Y-79883897D01*
X140694671Y-79887047D01*
X140673230Y-79888100D01*
X140235730Y-79888100D01*
X140214289Y-79887047D01*
X140193054Y-79883897D01*
X140172230Y-79878681D01*
X140152018Y-79871449D01*
X140132612Y-79862270D01*
X140114199Y-79851234D01*
X140096956Y-79838446D01*
X140081050Y-79824030D01*
X140066634Y-79808124D01*
X140053846Y-79790881D01*
X140042810Y-79772468D01*
X140033631Y-79753062D01*
X140026399Y-79732850D01*
X140021183Y-79712026D01*
X140018033Y-79690791D01*
X140016980Y-79669350D01*
X140016980Y-79156850D01*
X140018033Y-79135409D01*
X140021183Y-79114174D01*
X140026399Y-79093350D01*
X140033631Y-79073138D01*
X140042810Y-79053732D01*
X140053846Y-79035319D01*
X140066634Y-79018076D01*
X140081050Y-79002170D01*
X140096956Y-78987754D01*
X140114199Y-78974966D01*
X140132612Y-78963930D01*
X140152018Y-78954751D01*
X140172230Y-78947519D01*
X140193054Y-78942303D01*
X140214289Y-78939153D01*
X140235730Y-78938100D01*
X140673230Y-78938100D01*
X140694671Y-78939153D01*
X140694671Y-78939153D01*
G37*
D19*
X140454480Y-79413100D03*
D10*
G36*
X139119671Y-78939153D02*
G01*
X139140906Y-78942303D01*
X139161730Y-78947519D01*
X139181942Y-78954751D01*
X139201348Y-78963930D01*
X139219761Y-78974966D01*
X139237004Y-78987754D01*
X139252910Y-79002170D01*
X139267326Y-79018076D01*
X139280114Y-79035319D01*
X139291150Y-79053732D01*
X139300329Y-79073138D01*
X139307561Y-79093350D01*
X139312777Y-79114174D01*
X139315927Y-79135409D01*
X139316980Y-79156850D01*
X139316980Y-79669350D01*
X139315927Y-79690791D01*
X139312777Y-79712026D01*
X139307561Y-79732850D01*
X139300329Y-79753062D01*
X139291150Y-79772468D01*
X139280114Y-79790881D01*
X139267326Y-79808124D01*
X139252910Y-79824030D01*
X139237004Y-79838446D01*
X139219761Y-79851234D01*
X139201348Y-79862270D01*
X139181942Y-79871449D01*
X139161730Y-79878681D01*
X139140906Y-79883897D01*
X139119671Y-79887047D01*
X139098230Y-79888100D01*
X138660730Y-79888100D01*
X138639289Y-79887047D01*
X138618054Y-79883897D01*
X138597230Y-79878681D01*
X138577018Y-79871449D01*
X138557612Y-79862270D01*
X138539199Y-79851234D01*
X138521956Y-79838446D01*
X138506050Y-79824030D01*
X138491634Y-79808124D01*
X138478846Y-79790881D01*
X138467810Y-79772468D01*
X138458631Y-79753062D01*
X138451399Y-79732850D01*
X138446183Y-79712026D01*
X138443033Y-79690791D01*
X138441980Y-79669350D01*
X138441980Y-79156850D01*
X138443033Y-79135409D01*
X138446183Y-79114174D01*
X138451399Y-79093350D01*
X138458631Y-79073138D01*
X138467810Y-79053732D01*
X138478846Y-79035319D01*
X138491634Y-79018076D01*
X138506050Y-79002170D01*
X138521956Y-78987754D01*
X138539199Y-78974966D01*
X138557612Y-78963930D01*
X138577018Y-78954751D01*
X138597230Y-78947519D01*
X138618054Y-78942303D01*
X138639289Y-78939153D01*
X138660730Y-78938100D01*
X139098230Y-78938100D01*
X139119671Y-78939153D01*
X139119671Y-78939153D01*
G37*
D19*
X138879480Y-79413100D03*
D21*
X172341360Y-94023180D03*
X174541360Y-94023180D03*
D22*
X174443960Y-91559380D03*
X175943960Y-91559380D03*
D10*
G36*
X150238542Y-89876474D02*
G01*
X150262203Y-89879984D01*
X150285407Y-89885796D01*
X150307929Y-89893854D01*
X150329553Y-89904082D01*
X150350070Y-89916379D01*
X150369283Y-89930629D01*
X150387007Y-89946693D01*
X150403071Y-89964417D01*
X150417321Y-89983630D01*
X150429618Y-90004147D01*
X150439846Y-90025771D01*
X150447904Y-90048293D01*
X150453716Y-90071497D01*
X150457226Y-90095158D01*
X150458400Y-90119050D01*
X150458400Y-90606550D01*
X150457226Y-90630442D01*
X150453716Y-90654103D01*
X150447904Y-90677307D01*
X150439846Y-90699829D01*
X150429618Y-90721453D01*
X150417321Y-90741970D01*
X150403071Y-90761183D01*
X150387007Y-90778907D01*
X150369283Y-90794971D01*
X150350070Y-90809221D01*
X150329553Y-90821518D01*
X150307929Y-90831746D01*
X150285407Y-90839804D01*
X150262203Y-90845616D01*
X150238542Y-90849126D01*
X150214650Y-90850300D01*
X149302150Y-90850300D01*
X149278258Y-90849126D01*
X149254597Y-90845616D01*
X149231393Y-90839804D01*
X149208871Y-90831746D01*
X149187247Y-90821518D01*
X149166730Y-90809221D01*
X149147517Y-90794971D01*
X149129793Y-90778907D01*
X149113729Y-90761183D01*
X149099479Y-90741970D01*
X149087182Y-90721453D01*
X149076954Y-90699829D01*
X149068896Y-90677307D01*
X149063084Y-90654103D01*
X149059574Y-90630442D01*
X149058400Y-90606550D01*
X149058400Y-90119050D01*
X149059574Y-90095158D01*
X149063084Y-90071497D01*
X149068896Y-90048293D01*
X149076954Y-90025771D01*
X149087182Y-90004147D01*
X149099479Y-89983630D01*
X149113729Y-89964417D01*
X149129793Y-89946693D01*
X149147517Y-89930629D01*
X149166730Y-89916379D01*
X149187247Y-89904082D01*
X149208871Y-89893854D01*
X149231393Y-89885796D01*
X149254597Y-89879984D01*
X149278258Y-89876474D01*
X149302150Y-89875300D01*
X150214650Y-89875300D01*
X150238542Y-89876474D01*
X150238542Y-89876474D01*
G37*
D23*
X149758400Y-90362800D03*
D10*
G36*
X150238542Y-91751474D02*
G01*
X150262203Y-91754984D01*
X150285407Y-91760796D01*
X150307929Y-91768854D01*
X150329553Y-91779082D01*
X150350070Y-91791379D01*
X150369283Y-91805629D01*
X150387007Y-91821693D01*
X150403071Y-91839417D01*
X150417321Y-91858630D01*
X150429618Y-91879147D01*
X150439846Y-91900771D01*
X150447904Y-91923293D01*
X150453716Y-91946497D01*
X150457226Y-91970158D01*
X150458400Y-91994050D01*
X150458400Y-92481550D01*
X150457226Y-92505442D01*
X150453716Y-92529103D01*
X150447904Y-92552307D01*
X150439846Y-92574829D01*
X150429618Y-92596453D01*
X150417321Y-92616970D01*
X150403071Y-92636183D01*
X150387007Y-92653907D01*
X150369283Y-92669971D01*
X150350070Y-92684221D01*
X150329553Y-92696518D01*
X150307929Y-92706746D01*
X150285407Y-92714804D01*
X150262203Y-92720616D01*
X150238542Y-92724126D01*
X150214650Y-92725300D01*
X149302150Y-92725300D01*
X149278258Y-92724126D01*
X149254597Y-92720616D01*
X149231393Y-92714804D01*
X149208871Y-92706746D01*
X149187247Y-92696518D01*
X149166730Y-92684221D01*
X149147517Y-92669971D01*
X149129793Y-92653907D01*
X149113729Y-92636183D01*
X149099479Y-92616970D01*
X149087182Y-92596453D01*
X149076954Y-92574829D01*
X149068896Y-92552307D01*
X149063084Y-92529103D01*
X149059574Y-92505442D01*
X149058400Y-92481550D01*
X149058400Y-91994050D01*
X149059574Y-91970158D01*
X149063084Y-91946497D01*
X149068896Y-91923293D01*
X149076954Y-91900771D01*
X149087182Y-91879147D01*
X149099479Y-91858630D01*
X149113729Y-91839417D01*
X149129793Y-91821693D01*
X149147517Y-91805629D01*
X149166730Y-91791379D01*
X149187247Y-91779082D01*
X149208871Y-91768854D01*
X149231393Y-91760796D01*
X149254597Y-91754984D01*
X149278258Y-91751474D01*
X149302150Y-91750300D01*
X150214650Y-91750300D01*
X150238542Y-91751474D01*
X150238542Y-91751474D01*
G37*
D23*
X149758400Y-92237800D03*
D24*
X131178300Y-94818200D03*
X131178300Y-77038200D03*
D25*
X173088300Y-75768200D03*
X170548300Y-75768200D03*
X168008300Y-75768200D03*
X165468300Y-75768200D03*
X162928300Y-75768200D03*
X160388300Y-75768200D03*
X157848300Y-75768200D03*
X155308300Y-75768200D03*
X152768300Y-75768200D03*
X150228300Y-75768200D03*
X147688300Y-75768200D03*
D26*
X145148300Y-75768200D03*
D25*
X173088300Y-96088200D03*
X170548300Y-96088200D03*
X168008300Y-96088200D03*
X165468300Y-96088200D03*
X162928300Y-96088200D03*
X160388300Y-96088200D03*
X157848300Y-96088200D03*
X155308300Y-96088200D03*
X152768300Y-96088200D03*
X150228300Y-96088200D03*
X147688300Y-96088200D03*
X145148300Y-96088200D03*
X142608300Y-96088200D03*
X140068300Y-96088200D03*
X137528300Y-96088200D03*
D26*
X134988300Y-96088200D03*
D27*
X175493680Y-81889600D03*
X174188120Y-81899760D03*
X175397160Y-78978760D03*
X142260320Y-77337920D03*
X142199360Y-76393040D03*
X143134080Y-75864720D03*
X146075400Y-89712800D03*
X145249900Y-89712800D03*
X144424400Y-89712800D03*
X144487900Y-90474800D03*
X144487900Y-91173300D03*
X144487900Y-91998800D03*
X144487900Y-92824300D03*
X144487900Y-93649800D03*
X144551400Y-94538800D03*
X147599400Y-94475300D03*
X154406600Y-91008200D03*
X154406600Y-91821000D03*
X154406600Y-92633800D03*
X154406600Y-93446600D03*
X154406600Y-94259400D03*
X153314400Y-94284800D03*
X152361900Y-94284800D03*
X150876000Y-93472000D03*
X151587200Y-93472000D03*
X150164800Y-93472000D03*
X149453600Y-93472000D03*
X148742400Y-93472000D03*
X148031200Y-93472000D03*
X148386800Y-94208600D03*
X151638000Y-91008200D03*
X150901400Y-91008200D03*
X148615400Y-91008200D03*
X147878800Y-91008200D03*
X147701000Y-90068400D03*
X146837400Y-89687400D03*
X151384000Y-89433400D03*
X154406600Y-90195400D03*
X154406600Y-89382600D03*
X154406600Y-88569800D03*
X154406600Y-87757000D03*
X151358600Y-88595200D03*
X145338800Y-94640400D03*
X134457440Y-88117680D03*
X147345400Y-89077800D03*
X147218400Y-88112600D03*
X147218400Y-87350600D03*
X147396200Y-86537800D03*
X151231600Y-87833200D03*
X148132800Y-86207600D03*
X149021800Y-86207600D03*
X149961600Y-86207600D03*
X150698200Y-86436200D03*
X151028400Y-87071200D03*
X146100800Y-94640400D03*
X146862800Y-94665800D03*
X173098460Y-89781380D03*
X142839440Y-84739480D03*
X142844520Y-87421720D03*
X144434560Y-84754720D03*
X144434560Y-87492840D03*
X134244080Y-78938120D03*
X134244080Y-77307440D03*
X137449560Y-78938120D03*
X137449560Y-77307440D03*
X166745920Y-76895960D03*
X169463720Y-82184240D03*
X166339520Y-84236560D03*
X170337480Y-84282280D03*
X134117080Y-94244160D03*
X135143240Y-92760800D03*
X138120120Y-92618560D03*
X142534640Y-92638880D03*
X139862560Y-93446600D03*
X142524480Y-88412320D03*
X142361920Y-89753440D03*
X136123680Y-89804240D03*
X139948920Y-90002360D03*
X137149840Y-91353640D03*
X145308320Y-92227400D03*
X146171920Y-92227400D03*
X132481320Y-80782160D03*
X132481320Y-82575400D03*
X136748520Y-82844640D03*
X134589520Y-80639920D03*
X178567080Y-78430120D03*
X177434240Y-80787240D03*
X178521360Y-80929480D03*
X170789600Y-86182200D03*
X172405040Y-84658200D03*
X178577240Y-89519760D03*
X178536600Y-87122000D03*
X172989240Y-87193120D03*
X175163480Y-84023200D03*
X177942240Y-84221320D03*
X175747680Y-86807040D03*
X175610520Y-89433400D03*
X153710640Y-87325200D03*
X166263320Y-86685120D03*
X164068760Y-87452200D03*
X165567360Y-87477600D03*
X154940000Y-79375000D03*
X156845000Y-79375000D03*
X158750000Y-79375000D03*
X160655000Y-79375000D03*
X162560000Y-79375000D03*
X154940000Y-81280000D03*
X156845000Y-81280000D03*
X158750000Y-81280000D03*
X160655000Y-81280000D03*
X162560000Y-81280000D03*
X154940000Y-83185000D03*
X154940000Y-85090000D03*
X156845000Y-85090000D03*
X156845000Y-83185000D03*
X158750000Y-83185000D03*
X158750000Y-85090000D03*
X160655000Y-85090000D03*
X160655000Y-83185000D03*
X162560000Y-83185000D03*
X162560000Y-85090000D03*
X154940000Y-86995000D03*
X156845000Y-86995000D03*
X158750000Y-86995000D03*
X160655000Y-86995000D03*
X162560000Y-86995000D03*
X162560000Y-88900000D03*
X160655000Y-88900000D03*
X158750000Y-88900000D03*
X156845000Y-88900000D03*
X156845000Y-90805000D03*
X158750000Y-90805000D03*
X160655000Y-90805000D03*
X162560000Y-90805000D03*
X162560000Y-92710000D03*
X160655000Y-92710000D03*
X158750000Y-92710000D03*
X156845000Y-92710000D03*
X156845000Y-94615000D03*
X158750000Y-94615000D03*
X160655000Y-94615000D03*
X162560000Y-94615000D03*
X155194000Y-88900000D03*
X155194000Y-90932000D03*
X155194000Y-92710000D03*
X152908000Y-87376000D03*
X152019000Y-87503000D03*
X164846000Y-94488000D03*
X151511000Y-94869000D03*
X148971000Y-94996000D03*
X134747000Y-82296000D03*
X164338000Y-76962000D03*
X165819651Y-78147349D03*
X168879520Y-86390480D03*
X168173400Y-82494120D03*
X167396160Y-82966560D03*
X167746680Y-87015320D03*
X166659560Y-83423760D03*
X166908480Y-87279480D03*
X142224760Y-86766400D03*
X145049240Y-86507320D03*
X142163800Y-85613240D03*
X145059400Y-85577680D03*
X136641840Y-87127080D03*
X138399520Y-87106760D03*
X168686480Y-81727040D03*
X169666920Y-85912960D03*
X166791640Y-81671160D03*
X135087360Y-79562960D03*
X135051800Y-76697840D03*
X135950960Y-79547720D03*
X135930640Y-76682600D03*
X137703560Y-79832200D03*
X130107840Y-88332160D03*
X172217080Y-80436720D03*
X168960800Y-92798900D03*
X166827200Y-92811600D03*
X169316400Y-81081880D03*
X169224960Y-77322680D03*
D28*
X173088300Y-76970281D02*
X173088300Y-75768200D01*
X173088300Y-78482580D02*
X173088300Y-76970281D01*
X171484680Y-80086200D02*
X171962640Y-79608240D01*
X170947180Y-80086200D02*
X171484680Y-80086200D01*
X171962640Y-79608240D02*
X173088300Y-78482580D01*
X173584480Y-78978760D02*
X173088300Y-78482580D01*
X175397160Y-78978760D02*
X173584480Y-78978760D01*
X156017279Y-77599221D02*
X157848300Y-75768200D01*
X142988594Y-77599221D02*
X156017279Y-77599221D01*
X142727293Y-77337920D02*
X142988594Y-77599221D01*
X142260320Y-77337920D02*
X142727293Y-77337920D01*
X152956467Y-77246811D02*
X143768868Y-77246811D01*
X155308300Y-75768200D02*
X154435078Y-75768200D01*
X154435078Y-75768200D02*
X152956467Y-77246811D01*
X142529559Y-76723239D02*
X142199360Y-76393040D01*
X142791831Y-76985511D02*
X142529559Y-76723239D01*
X143507568Y-76985511D02*
X142791831Y-76985511D01*
X143768868Y-77246811D02*
X143507568Y-76985511D01*
X152768300Y-75768200D02*
X151642099Y-76894401D01*
X151642099Y-76894401D02*
X144062161Y-76894401D01*
X143464279Y-76296519D02*
X144062161Y-76894401D01*
X143464279Y-76194919D02*
X143464279Y-76296519D01*
X143134080Y-75864720D02*
X143464279Y-76194919D01*
X173873260Y-91559380D02*
X174443960Y-91559380D01*
X173136560Y-90822680D02*
X173873260Y-91559380D01*
X134457440Y-88117680D02*
X135136440Y-88117680D01*
X173098460Y-90784580D02*
X173136560Y-90822680D01*
X173098460Y-89781380D02*
X173098460Y-90784580D01*
X142839440Y-87416640D02*
X142844520Y-87421720D01*
X142839440Y-84739480D02*
X142839440Y-87416640D01*
X144434560Y-85221693D02*
X144434560Y-87492840D01*
X144434560Y-84754720D02*
X144434560Y-85221693D01*
X149478900Y-85724900D02*
X149961600Y-86207600D01*
X149478900Y-85217000D02*
X149478900Y-85724900D01*
X134711053Y-77307440D02*
X137449560Y-77307440D01*
X134244080Y-77307440D02*
X134711053Y-77307440D01*
X136982587Y-78938120D02*
X134244080Y-78938120D01*
X137449560Y-78938120D02*
X136982587Y-78938120D01*
X138404500Y-78938120D02*
X138879480Y-79413100D01*
X137449560Y-78938120D02*
X138404500Y-78938120D01*
X138455400Y-81645760D02*
X137967720Y-81158080D01*
X138871860Y-81645760D02*
X138455400Y-81645760D01*
X167579040Y-77729080D02*
X166745920Y-76895960D01*
X167579040Y-78866900D02*
X167579040Y-77729080D01*
X169393180Y-82254780D02*
X169463720Y-82184240D01*
X169393180Y-83305798D02*
X169393180Y-82254780D01*
X168467498Y-84231480D02*
X169393180Y-83305798D01*
X166811573Y-84231480D02*
X168467498Y-84231480D01*
X166806493Y-84236560D02*
X166811573Y-84231480D01*
X166339520Y-84236560D02*
X166806493Y-84236560D01*
X138334360Y-81645760D02*
X138871860Y-81645760D01*
X137097159Y-80408559D02*
X138334360Y-81645760D01*
X137097159Y-79290521D02*
X137097159Y-80408559D01*
X137449560Y-78938120D02*
X137097159Y-79290521D01*
X168948610Y-85671150D02*
X170337480Y-84282280D01*
X167079170Y-85671150D02*
X168948610Y-85671150D01*
X166593519Y-86156801D02*
X167079170Y-85671150D01*
X166593519Y-86354921D02*
X166593519Y-86156801D01*
X166263320Y-86685120D02*
X166593519Y-86354921D01*
X135940320Y-89620880D02*
X136123680Y-89804240D01*
X132767840Y-89620880D02*
X135940320Y-89620880D01*
X166679880Y-76962000D02*
X166745920Y-76895960D01*
X164338000Y-76962000D02*
X166679880Y-76962000D01*
D29*
X151784200Y-85947300D02*
X152902400Y-85947300D01*
X151053900Y-85217000D02*
X151784200Y-85947300D01*
X138138378Y-96088200D02*
X137528300Y-96088200D01*
X139560778Y-94665800D02*
X138138378Y-96088200D01*
X167573640Y-80447300D02*
X167579040Y-80441900D01*
X166146900Y-80447300D02*
X167573640Y-80447300D01*
X164902400Y-80447300D02*
X166146900Y-80447300D01*
X143510000Y-94665800D02*
X143640199Y-94535601D01*
X139560778Y-94665800D02*
X143510000Y-94665800D01*
X150124890Y-84287990D02*
X151053900Y-85217000D01*
X143640199Y-89359081D02*
X143640199Y-89336383D01*
X143640199Y-89336383D02*
X144047983Y-88928599D01*
X144047983Y-88928599D02*
X145994617Y-88928599D01*
X145994617Y-88928599D02*
X146434199Y-88489017D01*
X146434199Y-88489017D02*
X146434199Y-86339183D01*
X146434199Y-86339183D02*
X148485392Y-84287990D01*
X148485392Y-84287990D02*
X150124890Y-84287990D01*
X166256401Y-80337799D02*
X166146900Y-80447300D01*
X166256401Y-79581441D02*
X166256401Y-80337799D01*
X166256401Y-78584099D02*
X166256401Y-79581441D01*
X166256401Y-78584099D02*
X165819651Y-78147349D01*
X150876000Y-78318360D02*
X151064929Y-78129431D01*
X150876000Y-79344420D02*
X150876000Y-78318360D01*
X146057380Y-78255100D02*
X146183049Y-78129431D01*
X146057380Y-79413100D02*
X146057380Y-78255100D01*
X151064929Y-78129431D02*
X146183049Y-78129431D01*
X143640199Y-90025879D02*
X143640199Y-89359081D01*
X143640199Y-94535601D02*
X143640199Y-90025879D01*
X143764000Y-78129431D02*
X146183049Y-78129431D01*
X131358640Y-80289400D02*
X133518609Y-78129431D01*
X131358640Y-83093560D02*
X131358640Y-80289400D01*
X143640199Y-84379621D02*
X143215857Y-83955279D01*
X133518609Y-78129431D02*
X143764000Y-78129431D01*
X143640199Y-90025879D02*
X143640199Y-84379621D01*
X143215857Y-83955279D02*
X135322921Y-83955279D01*
X135322921Y-83955279D02*
X135321040Y-83957160D01*
X135321040Y-83957160D02*
X132222240Y-83957160D01*
X132222240Y-83957160D02*
X131358640Y-83093560D01*
X165801733Y-78129431D02*
X163622689Y-78129431D01*
X165819651Y-78147349D02*
X165801733Y-78129431D01*
X163622689Y-78129431D02*
X162825129Y-78129431D01*
X156236899Y-78129431D02*
X151064929Y-78129431D01*
X162825129Y-78129431D02*
X156236899Y-78129431D01*
X169184319Y-86695279D02*
X168879520Y-86390480D01*
X169221790Y-86732750D02*
X169184319Y-86695279D01*
X169221790Y-90145610D02*
X169221790Y-86732750D01*
X172341360Y-93265180D02*
X169221790Y-90145610D01*
X172341360Y-94023180D02*
X172341360Y-93265180D01*
X139302880Y-94665800D02*
X139560778Y-94665800D01*
X138739000Y-94101920D02*
X139302880Y-94665800D01*
X138201500Y-94101920D02*
X138739000Y-94101920D01*
X167579040Y-81899760D02*
X168173400Y-82494120D01*
X167579040Y-80441900D02*
X167579040Y-81899760D01*
D28*
X165954800Y-85947300D02*
X166583360Y-85318740D01*
X164902400Y-85947300D02*
X165954800Y-85947300D01*
X168406840Y-85318740D02*
X170459300Y-83266280D01*
X166583360Y-85318740D02*
X168406840Y-85318740D01*
X170474540Y-82076058D02*
X170474540Y-81889600D01*
X169745590Y-82805008D02*
X170474540Y-82076058D01*
X169745590Y-83451770D02*
X169745590Y-82805008D01*
X168350060Y-84847300D02*
X169745590Y-83451770D01*
X164902400Y-84847300D02*
X168350060Y-84847300D01*
X168107360Y-89552680D02*
X168292780Y-89738100D01*
X167065961Y-82636361D02*
X167396160Y-82966560D01*
X165965739Y-82636361D02*
X167065961Y-82636361D01*
X165954800Y-82647300D02*
X165965739Y-82636361D01*
X164902400Y-82647300D02*
X165954800Y-82647300D01*
X168292780Y-87561420D02*
X167746680Y-87015320D01*
X168292780Y-89738100D02*
X168292780Y-87561420D01*
X164902400Y-83747300D02*
X165954800Y-83747300D01*
X165954800Y-83661547D02*
X165954800Y-83747300D01*
X166192587Y-83423760D02*
X165954800Y-83661547D01*
X166659560Y-83423760D02*
X166192587Y-83423760D01*
X166888160Y-89689840D02*
X166936420Y-89738100D01*
X166908480Y-89710160D02*
X166936420Y-89738100D01*
X166908480Y-87279480D02*
X166908480Y-89710160D01*
X151859182Y-84847300D02*
X152902400Y-84847300D01*
X150769663Y-83757781D02*
X151859182Y-84847300D01*
X148265771Y-83757781D02*
X150769663Y-83757781D01*
X145516232Y-86507320D02*
X148265771Y-83757781D01*
X145049240Y-86507320D02*
X145516232Y-86507320D01*
X142224760Y-87381180D02*
X141147900Y-88458040D01*
X142224760Y-86766400D02*
X142224760Y-87381180D01*
X151257565Y-83747300D02*
X152902400Y-83747300D01*
X150915636Y-83405371D02*
X151257565Y-83747300D01*
X148119798Y-83405371D02*
X150915636Y-83405371D01*
X145059400Y-85577680D02*
X145947490Y-85577680D01*
X145947490Y-85577680D02*
X148119798Y-83405371D01*
X141833601Y-85943439D02*
X142163800Y-85613240D01*
X141599352Y-86177688D02*
X141833601Y-85943439D01*
X141599352Y-86640068D02*
X141599352Y-86177688D01*
X141137740Y-87101680D02*
X141599352Y-86640068D01*
X139035400Y-88458040D02*
X139572900Y-88458040D01*
X135878150Y-88647890D02*
X138845550Y-88647890D01*
X135847940Y-88617680D02*
X135878150Y-88647890D01*
X135810440Y-88617680D02*
X135847940Y-88617680D01*
X138845550Y-88647890D02*
X139035400Y-88458040D01*
X135810440Y-87340280D02*
X135810440Y-87617680D01*
X136023640Y-87127080D02*
X136641840Y-87127080D01*
X135810440Y-87340280D02*
X136023640Y-87127080D01*
X138404600Y-87101680D02*
X138399520Y-87106760D01*
X139562740Y-87101680D02*
X138404600Y-87101680D01*
X150220012Y-87672412D02*
X149758400Y-87210800D01*
X150509610Y-87962010D02*
X150220012Y-87672412D01*
X150509610Y-89456484D02*
X150509610Y-87962010D01*
X151100426Y-90047300D02*
X150509610Y-89456484D01*
X152902400Y-90047300D02*
X151100426Y-90047300D01*
X166667780Y-81547300D02*
X166791640Y-81671160D01*
X164902400Y-81547300D02*
X166667780Y-81547300D01*
X172674948Y-91936068D02*
X173136560Y-92397680D01*
X172385350Y-91646470D02*
X172674948Y-91936068D01*
X172385350Y-89098363D02*
X172385350Y-91646470D01*
X169666920Y-86379933D02*
X172385350Y-89098363D01*
X169666920Y-85912960D02*
X169666920Y-86379933D01*
X175943960Y-92159380D02*
X175943960Y-91559380D01*
X175244048Y-92859292D02*
X175943960Y-92159380D01*
X173598172Y-92859292D02*
X175244048Y-92859292D01*
X173136560Y-92397680D02*
X173598172Y-92859292D01*
X176489260Y-91559380D02*
X175943960Y-91559380D01*
X177251360Y-90797280D02*
X176489260Y-91559380D01*
X149758400Y-90362800D02*
X149758400Y-88785800D01*
X148412200Y-88785800D02*
X149758400Y-88785800D01*
X176789748Y-92833892D02*
X177251360Y-92372280D01*
X176566610Y-92833892D02*
X176789748Y-92833892D01*
X175377322Y-94023180D02*
X176566610Y-92833892D01*
X174541360Y-94023180D02*
X175377322Y-94023180D01*
X146414515Y-82647300D02*
X152902400Y-82647300D01*
X135087360Y-79562960D02*
X135178800Y-79562960D01*
X135178800Y-79562960D02*
X135344559Y-79728719D01*
X135344559Y-79728719D02*
X135344559Y-80125501D01*
X135344559Y-80125501D02*
X138243437Y-83024380D01*
X138243437Y-83024380D02*
X146037435Y-83024380D01*
X146037435Y-83024380D02*
X146414515Y-82647300D01*
X152803940Y-81645760D02*
X152902400Y-81547300D01*
X146070080Y-81645760D02*
X152803940Y-81645760D01*
X136326880Y-79923640D02*
X135950960Y-79547720D01*
X136326880Y-80609440D02*
X136326880Y-79923640D01*
X138389410Y-82671970D02*
X136326880Y-80609440D01*
X145891462Y-82671970D02*
X138389410Y-82671970D01*
X146070080Y-81645760D02*
X146070080Y-82493352D01*
X146070080Y-82493352D02*
X145891462Y-82671970D01*
X151348120Y-80447300D02*
X150876000Y-80919420D01*
X152902400Y-80447300D02*
X151348120Y-80447300D01*
X137703560Y-80299173D02*
X137703560Y-79832200D01*
X152902400Y-79347300D02*
X152048102Y-79347300D01*
X152048102Y-79347300D02*
X151300512Y-80094890D01*
X151300512Y-80094890D02*
X146904910Y-80094890D01*
X146904910Y-80094890D02*
X146560490Y-80439310D01*
X146560490Y-80439310D02*
X137843697Y-80439310D01*
X137843697Y-80439310D02*
X137703560Y-80299173D01*
X140454480Y-79413100D02*
X141727380Y-79413100D01*
X140446860Y-81645760D02*
X141742220Y-81645760D01*
X143302380Y-79413100D02*
X144757380Y-79413100D01*
X143317220Y-81645760D02*
X144770080Y-81645760D01*
X147669400Y-92247300D02*
X147663900Y-92252800D01*
D30*
X152902400Y-92247300D02*
X147669400Y-92247300D01*
D28*
X130757940Y-85410880D02*
X130107840Y-85410880D01*
X131205440Y-85858380D02*
X130757940Y-85410880D01*
X132407840Y-85858380D02*
X131205440Y-85858380D01*
X130107840Y-86750780D02*
X130107840Y-87480880D01*
X130107840Y-85410880D02*
X130107840Y-86750780D01*
X130107840Y-87480880D02*
X130107840Y-88332160D01*
X130107840Y-89160880D02*
X130107840Y-91230880D01*
X131657740Y-90783380D02*
X132407840Y-90783380D01*
X131210240Y-91230880D02*
X131657740Y-90783380D01*
X130107840Y-91230880D02*
X131210240Y-91230880D01*
X130107840Y-88332160D02*
X130107840Y-89160880D01*
D31*
X133762640Y-87020880D02*
X134012040Y-86771480D01*
X132767840Y-87020880D02*
X133762640Y-87020880D01*
X135810440Y-88117680D02*
X136277740Y-88117680D01*
D29*
X136277740Y-88117680D02*
X137556240Y-88117680D01*
X137556240Y-88117680D02*
X137556240Y-86212680D01*
X134570840Y-86212680D02*
X134012040Y-86771480D01*
X137556240Y-86212680D02*
X134570840Y-86212680D01*
D28*
X134821540Y-88617680D02*
X135136440Y-88617680D01*
X134715139Y-88724081D02*
X134821540Y-88617680D01*
X134166367Y-88724081D02*
X134715139Y-88724081D01*
X133763166Y-88320880D02*
X134166367Y-88724081D01*
X132767840Y-88320880D02*
X133763166Y-88320880D01*
X134821540Y-87617680D02*
X135136440Y-87617680D01*
X134715139Y-87511279D02*
X134821540Y-87617680D01*
X134166367Y-87511279D02*
X134715139Y-87511279D01*
X134006766Y-87670880D02*
X134166367Y-87511279D01*
X132767840Y-87670880D02*
X134006766Y-87670880D01*
X170789700Y-76009600D02*
X170548300Y-75768200D01*
X170789700Y-78353920D02*
X170789700Y-77266700D01*
X170789700Y-77266700D02*
X170789700Y-76009600D01*
X170233470Y-78910150D02*
X170328088Y-78815532D01*
X170233470Y-80547472D02*
X170233470Y-78910150D01*
X170523408Y-80837410D02*
X170233470Y-80547472D01*
X171370952Y-80837410D02*
X170523408Y-80837410D01*
X170328088Y-78815532D02*
X170789700Y-78353920D01*
X171771642Y-80436720D02*
X171370952Y-80837410D01*
X172217080Y-80436720D02*
X171771642Y-80436720D01*
X172571800Y-83266280D02*
X172034300Y-83266280D01*
X173719074Y-83266280D02*
X172571800Y-83266280D01*
X175095754Y-81889600D02*
X173719074Y-83266280D01*
X175493680Y-81889600D02*
X175095754Y-81889600D01*
X174177960Y-81889600D02*
X174188120Y-81899760D01*
X172049540Y-81889600D02*
X174177960Y-81889600D01*
X168960800Y-91981120D02*
X168292780Y-91313100D01*
X168960800Y-92798900D02*
X168960800Y-91981120D01*
X166827200Y-91422320D02*
X166936420Y-91313100D01*
X166827200Y-92811600D02*
X166827200Y-91422320D01*
X169316400Y-80141980D02*
X169372180Y-80086200D01*
X169316400Y-81081880D02*
X169316400Y-80141980D01*
X169224960Y-78343660D02*
X169214700Y-78353920D01*
X169224960Y-77322680D02*
X169224960Y-78343660D01*
D32*
G36*
X142735300Y-95961200D02*
G01*
X142755300Y-95961200D01*
X142755300Y-96215200D01*
X142735300Y-96215200D01*
X142735300Y-96235200D01*
X142481300Y-96235200D01*
X142481300Y-96215200D01*
X142461300Y-96215200D01*
X142461300Y-95961200D01*
X142481300Y-95961200D01*
X142481300Y-95941200D01*
X142735300Y-95941200D01*
X142735300Y-95961200D01*
X142735300Y-95961200D01*
G37*
X142735300Y-95961200D02*
X142755300Y-95961200D01*
X142755300Y-96215200D01*
X142735300Y-96215200D01*
X142735300Y-96235200D01*
X142481300Y-96235200D01*
X142481300Y-96215200D01*
X142461300Y-96215200D01*
X142461300Y-95961200D01*
X142481300Y-95961200D01*
X142481300Y-95941200D01*
X142735300Y-95941200D01*
X142735300Y-95961200D01*
G36*
X163367400Y-79061550D02*
G01*
X163526150Y-79220300D01*
X164775400Y-79220300D01*
X164775400Y-79200300D01*
X165029400Y-79200300D01*
X165029400Y-79220300D01*
X165049400Y-79220300D01*
X165049400Y-79409228D01*
X164002400Y-79409228D01*
X163877918Y-79421488D01*
X163758220Y-79457798D01*
X163727347Y-79474300D01*
X163526150Y-79474300D01*
X163367400Y-79633050D01*
X163364328Y-79747300D01*
X163376588Y-79871782D01*
X163384329Y-79897300D01*
X163376588Y-79922818D01*
X163364328Y-80047300D01*
X163364328Y-80847300D01*
X163376588Y-80971782D01*
X163384329Y-80997300D01*
X163376588Y-81022818D01*
X163364328Y-81147300D01*
X163364328Y-81947300D01*
X163376588Y-82071782D01*
X163384329Y-82097300D01*
X163376588Y-82122818D01*
X163364328Y-82247300D01*
X163364328Y-83047300D01*
X163376588Y-83171782D01*
X163384329Y-83197300D01*
X163376588Y-83222818D01*
X163364328Y-83347300D01*
X163364328Y-84147300D01*
X163376588Y-84271782D01*
X163384329Y-84297300D01*
X163376588Y-84322818D01*
X163364328Y-84447300D01*
X163364328Y-85247300D01*
X163376588Y-85371782D01*
X163384329Y-85397300D01*
X163376588Y-85422818D01*
X163364328Y-85547300D01*
X163364328Y-86347300D01*
X163376588Y-86471782D01*
X163412898Y-86591480D01*
X163471863Y-86701794D01*
X163551215Y-86798485D01*
X163647906Y-86877837D01*
X163758220Y-86936802D01*
X163877918Y-86973112D01*
X164002400Y-86985372D01*
X165802400Y-86985372D01*
X165926882Y-86973112D01*
X165999822Y-86950986D01*
X165980372Y-86997942D01*
X165943280Y-87184416D01*
X165943280Y-87374544D01*
X165980372Y-87561018D01*
X166053131Y-87736674D01*
X166158760Y-87894759D01*
X166197280Y-87933279D01*
X166197280Y-88049907D01*
X166156894Y-88016763D01*
X166046580Y-87957798D01*
X165926882Y-87921488D01*
X165802400Y-87909228D01*
X164002400Y-87909228D01*
X163877918Y-87921488D01*
X163758220Y-87957798D01*
X163647906Y-88016763D01*
X163551215Y-88096115D01*
X163471863Y-88192806D01*
X163412898Y-88303120D01*
X163376588Y-88422818D01*
X163364328Y-88547300D01*
X163364328Y-89347300D01*
X163376588Y-89471782D01*
X163384329Y-89497300D01*
X163376588Y-89522818D01*
X163364328Y-89647300D01*
X163364328Y-90447300D01*
X163376588Y-90571782D01*
X163384329Y-90597300D01*
X163376588Y-90622818D01*
X163364328Y-90747300D01*
X163364328Y-91547300D01*
X163376588Y-91671782D01*
X163384329Y-91697300D01*
X163376588Y-91722818D01*
X163364328Y-91847300D01*
X163364328Y-92647300D01*
X163376588Y-92771782D01*
X163384329Y-92797300D01*
X163376588Y-92822818D01*
X163364328Y-92947300D01*
X163367400Y-93061550D01*
X163526150Y-93220300D01*
X163727347Y-93220300D01*
X163758220Y-93236802D01*
X163877918Y-93273112D01*
X164002400Y-93285372D01*
X165049400Y-93285372D01*
X165049400Y-93474300D01*
X165029400Y-93474300D01*
X165029400Y-94223550D01*
X165188150Y-94382300D01*
X165526720Y-94383993D01*
X165526720Y-94603200D01*
X165395350Y-94603200D01*
X165177189Y-94624687D01*
X164897266Y-94709601D01*
X164639286Y-94847494D01*
X164413166Y-95033066D01*
X164227594Y-95259186D01*
X164198300Y-95313991D01*
X164169006Y-95259186D01*
X163983434Y-95033066D01*
X163757314Y-94847494D01*
X163499334Y-94709601D01*
X163219411Y-94624687D01*
X163001250Y-94603200D01*
X162855350Y-94603200D01*
X162637189Y-94624687D01*
X162357266Y-94709601D01*
X162099286Y-94847494D01*
X161873166Y-95033066D01*
X161687594Y-95259186D01*
X161658300Y-95313991D01*
X161629006Y-95259186D01*
X161443434Y-95033066D01*
X161217314Y-94847494D01*
X160959334Y-94709601D01*
X160679411Y-94624687D01*
X160461250Y-94603200D01*
X160315350Y-94603200D01*
X160097189Y-94624687D01*
X159817266Y-94709601D01*
X159559286Y-94847494D01*
X159333166Y-95033066D01*
X159147594Y-95259186D01*
X159118300Y-95313991D01*
X159089006Y-95259186D01*
X158903434Y-95033066D01*
X158677314Y-94847494D01*
X158419334Y-94709601D01*
X158139411Y-94624687D01*
X157921250Y-94603200D01*
X157775350Y-94603200D01*
X157557189Y-94624687D01*
X157277266Y-94709601D01*
X157019286Y-94847494D01*
X156793166Y-95033066D01*
X156607594Y-95259186D01*
X156578300Y-95313991D01*
X156549006Y-95259186D01*
X156363434Y-95033066D01*
X156137314Y-94847494D01*
X155879334Y-94709601D01*
X155599411Y-94624687D01*
X155381250Y-94603200D01*
X155235350Y-94603200D01*
X155017189Y-94624687D01*
X154737266Y-94709601D01*
X154479286Y-94847494D01*
X154253166Y-95033066D01*
X154067594Y-95259186D01*
X154038300Y-95313991D01*
X154009006Y-95259186D01*
X153823434Y-95033066D01*
X153597314Y-94847494D01*
X153339334Y-94709601D01*
X153059411Y-94624687D01*
X152841250Y-94603200D01*
X152695350Y-94603200D01*
X152477189Y-94624687D01*
X152197266Y-94709601D01*
X151939286Y-94847494D01*
X151713166Y-95033066D01*
X151527594Y-95259186D01*
X151498300Y-95313991D01*
X151469006Y-95259186D01*
X151283434Y-95033066D01*
X151057314Y-94847494D01*
X150799334Y-94709601D01*
X150519411Y-94624687D01*
X150301250Y-94603200D01*
X150155350Y-94603200D01*
X149937189Y-94624687D01*
X149657266Y-94709601D01*
X149399286Y-94847494D01*
X149173166Y-95033066D01*
X148987594Y-95259186D01*
X148958300Y-95313991D01*
X148929006Y-95259186D01*
X148743434Y-95033066D01*
X148517314Y-94847494D01*
X148259334Y-94709601D01*
X147979411Y-94624687D01*
X147771106Y-94604171D01*
X147828402Y-94496980D01*
X147864712Y-94377282D01*
X147876972Y-94252800D01*
X147873900Y-94013550D01*
X147715150Y-93854800D01*
X146265900Y-93854800D01*
X146265900Y-94729050D01*
X146424650Y-94887800D01*
X146808409Y-94889248D01*
X146633166Y-95033066D01*
X146447594Y-95259186D01*
X146418300Y-95313991D01*
X146389006Y-95259186D01*
X146203434Y-95033066D01*
X145977314Y-94847494D01*
X145922666Y-94818284D01*
X146011900Y-94729050D01*
X146011900Y-93854800D01*
X145991900Y-93854800D01*
X145991900Y-93747300D01*
X151364328Y-93747300D01*
X151376588Y-93871782D01*
X151412898Y-93991480D01*
X151471863Y-94101794D01*
X151551215Y-94198485D01*
X151647906Y-94277837D01*
X151758220Y-94336802D01*
X151877918Y-94373112D01*
X152002400Y-94385372D01*
X152616650Y-94382300D01*
X152775400Y-94223550D01*
X152775400Y-93474300D01*
X153029400Y-93474300D01*
X153029400Y-94223550D01*
X153188150Y-94382300D01*
X153802400Y-94385372D01*
X153926882Y-94373112D01*
X154046580Y-94336802D01*
X154156894Y-94277837D01*
X154253585Y-94198485D01*
X154332937Y-94101794D01*
X154391902Y-93991480D01*
X154428212Y-93871782D01*
X154440472Y-93747300D01*
X163364328Y-93747300D01*
X163376588Y-93871782D01*
X163412898Y-93991480D01*
X163471863Y-94101794D01*
X163551215Y-94198485D01*
X163647906Y-94277837D01*
X163758220Y-94336802D01*
X163877918Y-94373112D01*
X164002400Y-94385372D01*
X164616650Y-94382300D01*
X164775400Y-94223550D01*
X164775400Y-93474300D01*
X163526150Y-93474300D01*
X163367400Y-93633050D01*
X163364328Y-93747300D01*
X154440472Y-93747300D01*
X154437400Y-93633050D01*
X154278650Y-93474300D01*
X153029400Y-93474300D01*
X152775400Y-93474300D01*
X151526150Y-93474300D01*
X151367400Y-93633050D01*
X151364328Y-93747300D01*
X145991900Y-93747300D01*
X145991900Y-93600800D01*
X146011900Y-93600800D01*
X146011900Y-92726550D01*
X145853150Y-92567800D01*
X145038900Y-92564728D01*
X144914418Y-92576988D01*
X144794720Y-92613298D01*
X144684406Y-92672263D01*
X144587715Y-92751615D01*
X144529199Y-92822917D01*
X144529199Y-91682683D01*
X144587715Y-91753985D01*
X144684406Y-91833337D01*
X144794720Y-91892302D01*
X144914418Y-91928612D01*
X145038900Y-91940872D01*
X145853150Y-91937800D01*
X146011900Y-91779050D01*
X146011900Y-90904800D01*
X145991900Y-90904800D01*
X145991900Y-90650800D01*
X146011900Y-90650800D01*
X146011900Y-90630800D01*
X146265900Y-90630800D01*
X146265900Y-90650800D01*
X147715150Y-90650800D01*
X147873900Y-90492050D01*
X147876972Y-90252800D01*
X147864712Y-90128318D01*
X147828402Y-90008620D01*
X147769437Y-89898306D01*
X147690085Y-89801615D01*
X147593394Y-89722263D01*
X147483080Y-89663298D01*
X147363382Y-89626988D01*
X147238900Y-89614728D01*
X146556768Y-89617302D01*
X146626276Y-89560258D01*
X146654116Y-89526335D01*
X147031936Y-89148515D01*
X147065858Y-89120676D01*
X147176952Y-88985308D01*
X147254572Y-88840092D01*
X147259501Y-88830870D01*
X147260916Y-88826207D01*
X147294865Y-88714290D01*
X147299128Y-88700237D01*
X147299128Y-89004550D01*
X147315592Y-89171708D01*
X147364350Y-89332442D01*
X147443529Y-89480575D01*
X147550085Y-89610415D01*
X147679925Y-89716971D01*
X147828058Y-89796150D01*
X147988792Y-89844908D01*
X148155950Y-89861372D01*
X148463252Y-89861372D01*
X148437272Y-89947015D01*
X148420328Y-90119050D01*
X148420328Y-90606550D01*
X148437272Y-90778585D01*
X148487453Y-90944009D01*
X148568942Y-91096464D01*
X148672692Y-91222883D01*
X148544149Y-91222883D01*
X148543394Y-91222263D01*
X148433080Y-91163298D01*
X148313382Y-91126988D01*
X148188900Y-91114728D01*
X147874557Y-91114728D01*
X147873900Y-91063550D01*
X147715150Y-90904800D01*
X146265900Y-90904800D01*
X146265900Y-91779050D01*
X146424650Y-91937800D01*
X146500828Y-91938087D01*
X146500828Y-92567513D01*
X146424650Y-92567800D01*
X146265900Y-92726550D01*
X146265900Y-93600800D01*
X147715150Y-93600800D01*
X147873900Y-93442050D01*
X147874557Y-93390872D01*
X148188900Y-93390872D01*
X148313382Y-93378612D01*
X148433080Y-93342302D01*
X148543394Y-93283337D01*
X148557553Y-93271717D01*
X148918799Y-93271717D01*
X148964691Y-93296247D01*
X149130115Y-93346428D01*
X149302150Y-93363372D01*
X150214650Y-93363372D01*
X150386685Y-93346428D01*
X150552109Y-93296247D01*
X150598001Y-93271717D01*
X151873319Y-93271717D01*
X151877918Y-93273112D01*
X152002400Y-93285372D01*
X153802400Y-93285372D01*
X153926882Y-93273112D01*
X154046580Y-93236802D01*
X154077453Y-93220300D01*
X154278650Y-93220300D01*
X154437400Y-93061550D01*
X154440472Y-92947300D01*
X154428212Y-92822818D01*
X154420471Y-92797300D01*
X154428212Y-92771782D01*
X154440472Y-92647300D01*
X154440472Y-91847300D01*
X154428212Y-91722818D01*
X154420471Y-91697300D01*
X154428212Y-91671782D01*
X154440472Y-91547300D01*
X154437400Y-91433050D01*
X154278650Y-91274300D01*
X154077453Y-91274300D01*
X154046580Y-91257798D01*
X153926882Y-91221488D01*
X153802400Y-91209228D01*
X152002400Y-91209228D01*
X151877918Y-91221488D01*
X151873319Y-91222883D01*
X150844108Y-91222883D01*
X150947858Y-91096464D01*
X151029347Y-90944009D01*
X151079528Y-90778585D01*
X151081352Y-90760061D01*
X151100425Y-90761940D01*
X151135351Y-90758500D01*
X151364629Y-90758500D01*
X151367400Y-90861550D01*
X151526150Y-91020300D01*
X151727347Y-91020300D01*
X151758220Y-91036802D01*
X151877918Y-91073112D01*
X152002400Y-91085372D01*
X153802400Y-91085372D01*
X153926882Y-91073112D01*
X154046580Y-91036802D01*
X154077453Y-91020300D01*
X154278650Y-91020300D01*
X154437400Y-90861550D01*
X154440472Y-90747300D01*
X154428212Y-90622818D01*
X154420471Y-90597300D01*
X154428212Y-90571782D01*
X154440472Y-90447300D01*
X154440472Y-89647300D01*
X154428212Y-89522818D01*
X154420471Y-89497300D01*
X154428212Y-89471782D01*
X154440472Y-89347300D01*
X154440472Y-88547300D01*
X154428212Y-88422818D01*
X154391902Y-88303120D01*
X154332937Y-88192806D01*
X154253585Y-88096115D01*
X154156894Y-88016763D01*
X154046580Y-87957798D01*
X153926882Y-87921488D01*
X153802400Y-87909228D01*
X152002400Y-87909228D01*
X151877918Y-87921488D01*
X151758220Y-87957798D01*
X151647906Y-88016763D01*
X151551215Y-88096115D01*
X151471863Y-88192806D01*
X151412898Y-88303120D01*
X151376588Y-88422818D01*
X151364328Y-88547300D01*
X151364328Y-89305414D01*
X151220810Y-89161897D01*
X151220810Y-87996935D01*
X151224250Y-87962009D01*
X151220810Y-87927083D01*
X151220810Y-87927074D01*
X151210519Y-87822590D01*
X151169852Y-87688529D01*
X151103812Y-87564977D01*
X151014937Y-87456683D01*
X150987800Y-87434412D01*
X150871472Y-87318084D01*
X150871472Y-86992050D01*
X150855008Y-86824892D01*
X150806250Y-86664158D01*
X150727071Y-86516025D01*
X150620515Y-86386185D01*
X150490675Y-86279629D01*
X150342542Y-86200450D01*
X150309880Y-86190542D01*
X150337470Y-86167900D01*
X150359125Y-86185671D01*
X150507258Y-86264850D01*
X150667992Y-86313608D01*
X150835150Y-86330072D01*
X150909736Y-86330072D01*
X151124705Y-86545041D01*
X151152541Y-86578959D01*
X151287909Y-86690053D01*
X151442349Y-86772603D01*
X151469375Y-86780801D01*
X151565020Y-86809815D01*
X151647906Y-86877837D01*
X151758220Y-86936802D01*
X151877918Y-86973112D01*
X152002400Y-86985372D01*
X153802400Y-86985372D01*
X153926882Y-86973112D01*
X154046580Y-86936802D01*
X154156894Y-86877837D01*
X154253585Y-86798485D01*
X154332937Y-86701794D01*
X154391902Y-86591480D01*
X154428212Y-86471782D01*
X154440472Y-86347300D01*
X154440472Y-85547300D01*
X154428212Y-85422818D01*
X154420471Y-85397300D01*
X154428212Y-85371782D01*
X154440472Y-85247300D01*
X154440472Y-84447300D01*
X154428212Y-84322818D01*
X154420471Y-84297300D01*
X154428212Y-84271782D01*
X154440472Y-84147300D01*
X154440472Y-83347300D01*
X154428212Y-83222818D01*
X154420471Y-83197300D01*
X154428212Y-83171782D01*
X154440472Y-83047300D01*
X154440472Y-82247300D01*
X154428212Y-82122818D01*
X154420471Y-82097300D01*
X154428212Y-82071782D01*
X154440472Y-81947300D01*
X154440472Y-81147300D01*
X154428212Y-81022818D01*
X154420471Y-80997300D01*
X154428212Y-80971782D01*
X154440472Y-80847300D01*
X154440472Y-80047300D01*
X154428212Y-79922818D01*
X154420471Y-79897300D01*
X154428212Y-79871782D01*
X154440472Y-79747300D01*
X154440472Y-79018431D01*
X163366241Y-79018431D01*
X163367400Y-79061550D01*
X163367400Y-79061550D01*
G37*
X163367400Y-79061550D02*
X163526150Y-79220300D01*
X164775400Y-79220300D01*
X164775400Y-79200300D01*
X165029400Y-79200300D01*
X165029400Y-79220300D01*
X165049400Y-79220300D01*
X165049400Y-79409228D01*
X164002400Y-79409228D01*
X163877918Y-79421488D01*
X163758220Y-79457798D01*
X163727347Y-79474300D01*
X163526150Y-79474300D01*
X163367400Y-79633050D01*
X163364328Y-79747300D01*
X163376588Y-79871782D01*
X163384329Y-79897300D01*
X163376588Y-79922818D01*
X163364328Y-80047300D01*
X163364328Y-80847300D01*
X163376588Y-80971782D01*
X163384329Y-80997300D01*
X163376588Y-81022818D01*
X163364328Y-81147300D01*
X163364328Y-81947300D01*
X163376588Y-82071782D01*
X163384329Y-82097300D01*
X163376588Y-82122818D01*
X163364328Y-82247300D01*
X163364328Y-83047300D01*
X163376588Y-83171782D01*
X163384329Y-83197300D01*
X163376588Y-83222818D01*
X163364328Y-83347300D01*
X163364328Y-84147300D01*
X163376588Y-84271782D01*
X163384329Y-84297300D01*
X163376588Y-84322818D01*
X163364328Y-84447300D01*
X163364328Y-85247300D01*
X163376588Y-85371782D01*
X163384329Y-85397300D01*
X163376588Y-85422818D01*
X163364328Y-85547300D01*
X163364328Y-86347300D01*
X163376588Y-86471782D01*
X163412898Y-86591480D01*
X163471863Y-86701794D01*
X163551215Y-86798485D01*
X163647906Y-86877837D01*
X163758220Y-86936802D01*
X163877918Y-86973112D01*
X164002400Y-86985372D01*
X165802400Y-86985372D01*
X165926882Y-86973112D01*
X165999822Y-86950986D01*
X165980372Y-86997942D01*
X165943280Y-87184416D01*
X165943280Y-87374544D01*
X165980372Y-87561018D01*
X166053131Y-87736674D01*
X166158760Y-87894759D01*
X166197280Y-87933279D01*
X166197280Y-88049907D01*
X166156894Y-88016763D01*
X166046580Y-87957798D01*
X165926882Y-87921488D01*
X165802400Y-87909228D01*
X164002400Y-87909228D01*
X163877918Y-87921488D01*
X163758220Y-87957798D01*
X163647906Y-88016763D01*
X163551215Y-88096115D01*
X163471863Y-88192806D01*
X163412898Y-88303120D01*
X163376588Y-88422818D01*
X163364328Y-88547300D01*
X163364328Y-89347300D01*
X163376588Y-89471782D01*
X163384329Y-89497300D01*
X163376588Y-89522818D01*
X163364328Y-89647300D01*
X163364328Y-90447300D01*
X163376588Y-90571782D01*
X163384329Y-90597300D01*
X163376588Y-90622818D01*
X163364328Y-90747300D01*
X163364328Y-91547300D01*
X163376588Y-91671782D01*
X163384329Y-91697300D01*
X163376588Y-91722818D01*
X163364328Y-91847300D01*
X163364328Y-92647300D01*
X163376588Y-92771782D01*
X163384329Y-92797300D01*
X163376588Y-92822818D01*
X163364328Y-92947300D01*
X163367400Y-93061550D01*
X163526150Y-93220300D01*
X163727347Y-93220300D01*
X163758220Y-93236802D01*
X163877918Y-93273112D01*
X164002400Y-93285372D01*
X165049400Y-93285372D01*
X165049400Y-93474300D01*
X165029400Y-93474300D01*
X165029400Y-94223550D01*
X165188150Y-94382300D01*
X165526720Y-94383993D01*
X165526720Y-94603200D01*
X165395350Y-94603200D01*
X165177189Y-94624687D01*
X164897266Y-94709601D01*
X164639286Y-94847494D01*
X164413166Y-95033066D01*
X164227594Y-95259186D01*
X164198300Y-95313991D01*
X164169006Y-95259186D01*
X163983434Y-95033066D01*
X163757314Y-94847494D01*
X163499334Y-94709601D01*
X163219411Y-94624687D01*
X163001250Y-94603200D01*
X162855350Y-94603200D01*
X162637189Y-94624687D01*
X162357266Y-94709601D01*
X162099286Y-94847494D01*
X161873166Y-95033066D01*
X161687594Y-95259186D01*
X161658300Y-95313991D01*
X161629006Y-95259186D01*
X161443434Y-95033066D01*
X161217314Y-94847494D01*
X160959334Y-94709601D01*
X160679411Y-94624687D01*
X160461250Y-94603200D01*
X160315350Y-94603200D01*
X160097189Y-94624687D01*
X159817266Y-94709601D01*
X159559286Y-94847494D01*
X159333166Y-95033066D01*
X159147594Y-95259186D01*
X159118300Y-95313991D01*
X159089006Y-95259186D01*
X158903434Y-95033066D01*
X158677314Y-94847494D01*
X158419334Y-94709601D01*
X158139411Y-94624687D01*
X157921250Y-94603200D01*
X157775350Y-94603200D01*
X157557189Y-94624687D01*
X157277266Y-94709601D01*
X157019286Y-94847494D01*
X156793166Y-95033066D01*
X156607594Y-95259186D01*
X156578300Y-95313991D01*
X156549006Y-95259186D01*
X156363434Y-95033066D01*
X156137314Y-94847494D01*
X155879334Y-94709601D01*
X155599411Y-94624687D01*
X155381250Y-94603200D01*
X155235350Y-94603200D01*
X155017189Y-94624687D01*
X154737266Y-94709601D01*
X154479286Y-94847494D01*
X154253166Y-95033066D01*
X154067594Y-95259186D01*
X154038300Y-95313991D01*
X154009006Y-95259186D01*
X153823434Y-95033066D01*
X153597314Y-94847494D01*
X153339334Y-94709601D01*
X153059411Y-94624687D01*
X152841250Y-94603200D01*
X152695350Y-94603200D01*
X152477189Y-94624687D01*
X152197266Y-94709601D01*
X151939286Y-94847494D01*
X151713166Y-95033066D01*
X151527594Y-95259186D01*
X151498300Y-95313991D01*
X151469006Y-95259186D01*
X151283434Y-95033066D01*
X151057314Y-94847494D01*
X150799334Y-94709601D01*
X150519411Y-94624687D01*
X150301250Y-94603200D01*
X150155350Y-94603200D01*
X149937189Y-94624687D01*
X149657266Y-94709601D01*
X149399286Y-94847494D01*
X149173166Y-95033066D01*
X148987594Y-95259186D01*
X148958300Y-95313991D01*
X148929006Y-95259186D01*
X148743434Y-95033066D01*
X148517314Y-94847494D01*
X148259334Y-94709601D01*
X147979411Y-94624687D01*
X147771106Y-94604171D01*
X147828402Y-94496980D01*
X147864712Y-94377282D01*
X147876972Y-94252800D01*
X147873900Y-94013550D01*
X147715150Y-93854800D01*
X146265900Y-93854800D01*
X146265900Y-94729050D01*
X146424650Y-94887800D01*
X146808409Y-94889248D01*
X146633166Y-95033066D01*
X146447594Y-95259186D01*
X146418300Y-95313991D01*
X146389006Y-95259186D01*
X146203434Y-95033066D01*
X145977314Y-94847494D01*
X145922666Y-94818284D01*
X146011900Y-94729050D01*
X146011900Y-93854800D01*
X145991900Y-93854800D01*
X145991900Y-93747300D01*
X151364328Y-93747300D01*
X151376588Y-93871782D01*
X151412898Y-93991480D01*
X151471863Y-94101794D01*
X151551215Y-94198485D01*
X151647906Y-94277837D01*
X151758220Y-94336802D01*
X151877918Y-94373112D01*
X152002400Y-94385372D01*
X152616650Y-94382300D01*
X152775400Y-94223550D01*
X152775400Y-93474300D01*
X153029400Y-93474300D01*
X153029400Y-94223550D01*
X153188150Y-94382300D01*
X153802400Y-94385372D01*
X153926882Y-94373112D01*
X154046580Y-94336802D01*
X154156894Y-94277837D01*
X154253585Y-94198485D01*
X154332937Y-94101794D01*
X154391902Y-93991480D01*
X154428212Y-93871782D01*
X154440472Y-93747300D01*
X163364328Y-93747300D01*
X163376588Y-93871782D01*
X163412898Y-93991480D01*
X163471863Y-94101794D01*
X163551215Y-94198485D01*
X163647906Y-94277837D01*
X163758220Y-94336802D01*
X163877918Y-94373112D01*
X164002400Y-94385372D01*
X164616650Y-94382300D01*
X164775400Y-94223550D01*
X164775400Y-93474300D01*
X163526150Y-93474300D01*
X163367400Y-93633050D01*
X163364328Y-93747300D01*
X154440472Y-93747300D01*
X154437400Y-93633050D01*
X154278650Y-93474300D01*
X153029400Y-93474300D01*
X152775400Y-93474300D01*
X151526150Y-93474300D01*
X151367400Y-93633050D01*
X151364328Y-93747300D01*
X145991900Y-93747300D01*
X145991900Y-93600800D01*
X146011900Y-93600800D01*
X146011900Y-92726550D01*
X145853150Y-92567800D01*
X145038900Y-92564728D01*
X144914418Y-92576988D01*
X144794720Y-92613298D01*
X144684406Y-92672263D01*
X144587715Y-92751615D01*
X144529199Y-92822917D01*
X144529199Y-91682683D01*
X144587715Y-91753985D01*
X144684406Y-91833337D01*
X144794720Y-91892302D01*
X144914418Y-91928612D01*
X145038900Y-91940872D01*
X145853150Y-91937800D01*
X146011900Y-91779050D01*
X146011900Y-90904800D01*
X145991900Y-90904800D01*
X145991900Y-90650800D01*
X146011900Y-90650800D01*
X146011900Y-90630800D01*
X146265900Y-90630800D01*
X146265900Y-90650800D01*
X147715150Y-90650800D01*
X147873900Y-90492050D01*
X147876972Y-90252800D01*
X147864712Y-90128318D01*
X147828402Y-90008620D01*
X147769437Y-89898306D01*
X147690085Y-89801615D01*
X147593394Y-89722263D01*
X147483080Y-89663298D01*
X147363382Y-89626988D01*
X147238900Y-89614728D01*
X146556768Y-89617302D01*
X146626276Y-89560258D01*
X146654116Y-89526335D01*
X147031936Y-89148515D01*
X147065858Y-89120676D01*
X147176952Y-88985308D01*
X147254572Y-88840092D01*
X147259501Y-88830870D01*
X147260916Y-88826207D01*
X147294865Y-88714290D01*
X147299128Y-88700237D01*
X147299128Y-89004550D01*
X147315592Y-89171708D01*
X147364350Y-89332442D01*
X147443529Y-89480575D01*
X147550085Y-89610415D01*
X147679925Y-89716971D01*
X147828058Y-89796150D01*
X147988792Y-89844908D01*
X148155950Y-89861372D01*
X148463252Y-89861372D01*
X148437272Y-89947015D01*
X148420328Y-90119050D01*
X148420328Y-90606550D01*
X148437272Y-90778585D01*
X148487453Y-90944009D01*
X148568942Y-91096464D01*
X148672692Y-91222883D01*
X148544149Y-91222883D01*
X148543394Y-91222263D01*
X148433080Y-91163298D01*
X148313382Y-91126988D01*
X148188900Y-91114728D01*
X147874557Y-91114728D01*
X147873900Y-91063550D01*
X147715150Y-90904800D01*
X146265900Y-90904800D01*
X146265900Y-91779050D01*
X146424650Y-91937800D01*
X146500828Y-91938087D01*
X146500828Y-92567513D01*
X146424650Y-92567800D01*
X146265900Y-92726550D01*
X146265900Y-93600800D01*
X147715150Y-93600800D01*
X147873900Y-93442050D01*
X147874557Y-93390872D01*
X148188900Y-93390872D01*
X148313382Y-93378612D01*
X148433080Y-93342302D01*
X148543394Y-93283337D01*
X148557553Y-93271717D01*
X148918799Y-93271717D01*
X148964691Y-93296247D01*
X149130115Y-93346428D01*
X149302150Y-93363372D01*
X150214650Y-93363372D01*
X150386685Y-93346428D01*
X150552109Y-93296247D01*
X150598001Y-93271717D01*
X151873319Y-93271717D01*
X151877918Y-93273112D01*
X152002400Y-93285372D01*
X153802400Y-93285372D01*
X153926882Y-93273112D01*
X154046580Y-93236802D01*
X154077453Y-93220300D01*
X154278650Y-93220300D01*
X154437400Y-93061550D01*
X154440472Y-92947300D01*
X154428212Y-92822818D01*
X154420471Y-92797300D01*
X154428212Y-92771782D01*
X154440472Y-92647300D01*
X154440472Y-91847300D01*
X154428212Y-91722818D01*
X154420471Y-91697300D01*
X154428212Y-91671782D01*
X154440472Y-91547300D01*
X154437400Y-91433050D01*
X154278650Y-91274300D01*
X154077453Y-91274300D01*
X154046580Y-91257798D01*
X153926882Y-91221488D01*
X153802400Y-91209228D01*
X152002400Y-91209228D01*
X151877918Y-91221488D01*
X151873319Y-91222883D01*
X150844108Y-91222883D01*
X150947858Y-91096464D01*
X151029347Y-90944009D01*
X151079528Y-90778585D01*
X151081352Y-90760061D01*
X151100425Y-90761940D01*
X151135351Y-90758500D01*
X151364629Y-90758500D01*
X151367400Y-90861550D01*
X151526150Y-91020300D01*
X151727347Y-91020300D01*
X151758220Y-91036802D01*
X151877918Y-91073112D01*
X152002400Y-91085372D01*
X153802400Y-91085372D01*
X153926882Y-91073112D01*
X154046580Y-91036802D01*
X154077453Y-91020300D01*
X154278650Y-91020300D01*
X154437400Y-90861550D01*
X154440472Y-90747300D01*
X154428212Y-90622818D01*
X154420471Y-90597300D01*
X154428212Y-90571782D01*
X154440472Y-90447300D01*
X154440472Y-89647300D01*
X154428212Y-89522818D01*
X154420471Y-89497300D01*
X154428212Y-89471782D01*
X154440472Y-89347300D01*
X154440472Y-88547300D01*
X154428212Y-88422818D01*
X154391902Y-88303120D01*
X154332937Y-88192806D01*
X154253585Y-88096115D01*
X154156894Y-88016763D01*
X154046580Y-87957798D01*
X153926882Y-87921488D01*
X153802400Y-87909228D01*
X152002400Y-87909228D01*
X151877918Y-87921488D01*
X151758220Y-87957798D01*
X151647906Y-88016763D01*
X151551215Y-88096115D01*
X151471863Y-88192806D01*
X151412898Y-88303120D01*
X151376588Y-88422818D01*
X151364328Y-88547300D01*
X151364328Y-89305414D01*
X151220810Y-89161897D01*
X151220810Y-87996935D01*
X151224250Y-87962009D01*
X151220810Y-87927083D01*
X151220810Y-87927074D01*
X151210519Y-87822590D01*
X151169852Y-87688529D01*
X151103812Y-87564977D01*
X151014937Y-87456683D01*
X150987800Y-87434412D01*
X150871472Y-87318084D01*
X150871472Y-86992050D01*
X150855008Y-86824892D01*
X150806250Y-86664158D01*
X150727071Y-86516025D01*
X150620515Y-86386185D01*
X150490675Y-86279629D01*
X150342542Y-86200450D01*
X150309880Y-86190542D01*
X150337470Y-86167900D01*
X150359125Y-86185671D01*
X150507258Y-86264850D01*
X150667992Y-86313608D01*
X150835150Y-86330072D01*
X150909736Y-86330072D01*
X151124705Y-86545041D01*
X151152541Y-86578959D01*
X151287909Y-86690053D01*
X151442349Y-86772603D01*
X151469375Y-86780801D01*
X151565020Y-86809815D01*
X151647906Y-86877837D01*
X151758220Y-86936802D01*
X151877918Y-86973112D01*
X152002400Y-86985372D01*
X153802400Y-86985372D01*
X153926882Y-86973112D01*
X154046580Y-86936802D01*
X154156894Y-86877837D01*
X154253585Y-86798485D01*
X154332937Y-86701794D01*
X154391902Y-86591480D01*
X154428212Y-86471782D01*
X154440472Y-86347300D01*
X154440472Y-85547300D01*
X154428212Y-85422818D01*
X154420471Y-85397300D01*
X154428212Y-85371782D01*
X154440472Y-85247300D01*
X154440472Y-84447300D01*
X154428212Y-84322818D01*
X154420471Y-84297300D01*
X154428212Y-84271782D01*
X154440472Y-84147300D01*
X154440472Y-83347300D01*
X154428212Y-83222818D01*
X154420471Y-83197300D01*
X154428212Y-83171782D01*
X154440472Y-83047300D01*
X154440472Y-82247300D01*
X154428212Y-82122818D01*
X154420471Y-82097300D01*
X154428212Y-82071782D01*
X154440472Y-81947300D01*
X154440472Y-81147300D01*
X154428212Y-81022818D01*
X154420471Y-80997300D01*
X154428212Y-80971782D01*
X154440472Y-80847300D01*
X154440472Y-80047300D01*
X154428212Y-79922818D01*
X154420471Y-79897300D01*
X154428212Y-79871782D01*
X154440472Y-79747300D01*
X154440472Y-79018431D01*
X163366241Y-79018431D01*
X163367400Y-79061550D01*
G36*
X142751199Y-89292722D02*
G01*
X142746899Y-89336383D01*
X142751199Y-89380044D01*
X142751199Y-90069545D01*
X142751200Y-90069555D01*
X142751199Y-93776800D01*
X139671115Y-93776800D01*
X139398499Y-93504184D01*
X139370659Y-93470261D01*
X139235291Y-93359167D01*
X139080851Y-93276617D01*
X139048196Y-93266712D01*
X139026115Y-93239805D01*
X138896275Y-93133249D01*
X138748142Y-93054070D01*
X138587408Y-93005312D01*
X138420250Y-92988848D01*
X137982750Y-92988848D01*
X137815592Y-93005312D01*
X137654858Y-93054070D01*
X137506725Y-93133249D01*
X137485070Y-93151020D01*
X137418494Y-93096383D01*
X137308180Y-93037418D01*
X137188482Y-93001108D01*
X137064000Y-92988848D01*
X136912250Y-92991920D01*
X136753500Y-93150670D01*
X136753500Y-93974920D01*
X136773500Y-93974920D01*
X136773500Y-94228920D01*
X136753500Y-94228920D01*
X136753500Y-94248920D01*
X136499500Y-94248920D01*
X136499500Y-94228920D01*
X135712750Y-94228920D01*
X135554000Y-94387670D01*
X135550928Y-94576920D01*
X135553214Y-94600128D01*
X134138300Y-94600128D01*
X134013818Y-94612388D01*
X133894120Y-94648698D01*
X133783806Y-94707663D01*
X133713300Y-94765526D01*
X133713300Y-94568524D01*
X133615882Y-94078768D01*
X133428721Y-93626920D01*
X135550928Y-93626920D01*
X135554000Y-93816170D01*
X135712750Y-93974920D01*
X136499500Y-93974920D01*
X136499500Y-93150670D01*
X136340750Y-92991920D01*
X136189000Y-92988848D01*
X136064518Y-93001108D01*
X135944820Y-93037418D01*
X135834506Y-93096383D01*
X135737815Y-93175735D01*
X135658463Y-93272426D01*
X135599498Y-93382740D01*
X135563188Y-93502438D01*
X135550928Y-93626920D01*
X133428721Y-93626920D01*
X133424788Y-93617427D01*
X133327617Y-93472000D01*
X134239000Y-93472000D01*
X134263776Y-93469560D01*
X134287601Y-93462333D01*
X134309557Y-93450597D01*
X134328803Y-93434803D01*
X134344597Y-93415557D01*
X134356333Y-93393601D01*
X134363560Y-93369776D01*
X134366000Y-93345000D01*
X134366000Y-89435281D01*
X134680213Y-89435281D01*
X134715139Y-89438721D01*
X134750065Y-89435281D01*
X134750075Y-89435281D01*
X134854559Y-89424990D01*
X134988620Y-89384323D01*
X134995301Y-89380752D01*
X135298940Y-89380752D01*
X135423422Y-89368492D01*
X135473440Y-89353319D01*
X135523458Y-89368492D01*
X135647940Y-89380752D01*
X135972940Y-89380752D01*
X136097422Y-89368492D01*
X136128416Y-89359090D01*
X138795728Y-89359090D01*
X138878125Y-89426711D01*
X139026258Y-89505890D01*
X139186992Y-89554648D01*
X139354150Y-89571112D01*
X139791650Y-89571112D01*
X139958808Y-89554648D01*
X140119542Y-89505890D01*
X140267675Y-89426711D01*
X140360400Y-89350614D01*
X140453125Y-89426711D01*
X140601258Y-89505890D01*
X140761992Y-89554648D01*
X140929150Y-89571112D01*
X141366650Y-89571112D01*
X141533808Y-89554648D01*
X141694542Y-89505890D01*
X141842675Y-89426711D01*
X141972515Y-89320155D01*
X142079071Y-89190315D01*
X142158250Y-89042182D01*
X142207008Y-88881448D01*
X142223472Y-88714290D01*
X142223472Y-88388256D01*
X142702951Y-87908777D01*
X142730087Y-87886507D01*
X142751199Y-87860782D01*
X142751199Y-89292722D01*
X142751199Y-89292722D01*
G37*
X142751199Y-89292722D02*
X142746899Y-89336383D01*
X142751199Y-89380044D01*
X142751199Y-90069545D01*
X142751200Y-90069555D01*
X142751199Y-93776800D01*
X139671115Y-93776800D01*
X139398499Y-93504184D01*
X139370659Y-93470261D01*
X139235291Y-93359167D01*
X139080851Y-93276617D01*
X139048196Y-93266712D01*
X139026115Y-93239805D01*
X138896275Y-93133249D01*
X138748142Y-93054070D01*
X138587408Y-93005312D01*
X138420250Y-92988848D01*
X137982750Y-92988848D01*
X137815592Y-93005312D01*
X137654858Y-93054070D01*
X137506725Y-93133249D01*
X137485070Y-93151020D01*
X137418494Y-93096383D01*
X137308180Y-93037418D01*
X137188482Y-93001108D01*
X137064000Y-92988848D01*
X136912250Y-92991920D01*
X136753500Y-93150670D01*
X136753500Y-93974920D01*
X136773500Y-93974920D01*
X136773500Y-94228920D01*
X136753500Y-94228920D01*
X136753500Y-94248920D01*
X136499500Y-94248920D01*
X136499500Y-94228920D01*
X135712750Y-94228920D01*
X135554000Y-94387670D01*
X135550928Y-94576920D01*
X135553214Y-94600128D01*
X134138300Y-94600128D01*
X134013818Y-94612388D01*
X133894120Y-94648698D01*
X133783806Y-94707663D01*
X133713300Y-94765526D01*
X133713300Y-94568524D01*
X133615882Y-94078768D01*
X133428721Y-93626920D01*
X135550928Y-93626920D01*
X135554000Y-93816170D01*
X135712750Y-93974920D01*
X136499500Y-93974920D01*
X136499500Y-93150670D01*
X136340750Y-92991920D01*
X136189000Y-92988848D01*
X136064518Y-93001108D01*
X135944820Y-93037418D01*
X135834506Y-93096383D01*
X135737815Y-93175735D01*
X135658463Y-93272426D01*
X135599498Y-93382740D01*
X135563188Y-93502438D01*
X135550928Y-93626920D01*
X133428721Y-93626920D01*
X133424788Y-93617427D01*
X133327617Y-93472000D01*
X134239000Y-93472000D01*
X134263776Y-93469560D01*
X134287601Y-93462333D01*
X134309557Y-93450597D01*
X134328803Y-93434803D01*
X134344597Y-93415557D01*
X134356333Y-93393601D01*
X134363560Y-93369776D01*
X134366000Y-93345000D01*
X134366000Y-89435281D01*
X134680213Y-89435281D01*
X134715139Y-89438721D01*
X134750065Y-89435281D01*
X134750075Y-89435281D01*
X134854559Y-89424990D01*
X134988620Y-89384323D01*
X134995301Y-89380752D01*
X135298940Y-89380752D01*
X135423422Y-89368492D01*
X135473440Y-89353319D01*
X135523458Y-89368492D01*
X135647940Y-89380752D01*
X135972940Y-89380752D01*
X136097422Y-89368492D01*
X136128416Y-89359090D01*
X138795728Y-89359090D01*
X138878125Y-89426711D01*
X139026258Y-89505890D01*
X139186992Y-89554648D01*
X139354150Y-89571112D01*
X139791650Y-89571112D01*
X139958808Y-89554648D01*
X140119542Y-89505890D01*
X140267675Y-89426711D01*
X140360400Y-89350614D01*
X140453125Y-89426711D01*
X140601258Y-89505890D01*
X140761992Y-89554648D01*
X140929150Y-89571112D01*
X141366650Y-89571112D01*
X141533808Y-89554648D01*
X141694542Y-89505890D01*
X141842675Y-89426711D01*
X141972515Y-89320155D01*
X142079071Y-89190315D01*
X142158250Y-89042182D01*
X142207008Y-88881448D01*
X142223472Y-88714290D01*
X142223472Y-88388256D01*
X142702951Y-87908777D01*
X142730087Y-87886507D01*
X142751199Y-87860782D01*
X142751199Y-89292722D01*
G36*
X144587715Y-94703985D02*
G01*
X144589891Y-94705771D01*
X144577266Y-94709601D01*
X144504643Y-94748419D01*
X144509931Y-94730986D01*
X144516335Y-94709876D01*
X144521756Y-94654839D01*
X144524502Y-94626959D01*
X144587715Y-94703985D01*
X144587715Y-94703985D01*
G37*
X144587715Y-94703985D02*
X144589891Y-94705771D01*
X144577266Y-94709601D01*
X144504643Y-94748419D01*
X144509931Y-94730986D01*
X144516335Y-94709876D01*
X144521756Y-94654839D01*
X144524502Y-94626959D01*
X144587715Y-94703985D01*
G36*
X144529199Y-93888251D02*
G01*
X144529199Y-93854802D01*
X144562648Y-93854802D01*
X144529199Y-93888251D01*
X144529199Y-93888251D01*
G37*
X144529199Y-93888251D02*
X144529199Y-93854802D01*
X144562648Y-93854802D01*
X144529199Y-93888251D01*
G36*
X144562648Y-93600798D02*
G01*
X144529199Y-93600798D01*
X144529199Y-93567349D01*
X144562648Y-93600798D01*
X144562648Y-93600798D01*
G37*
X144562648Y-93600798D02*
X144529199Y-93600798D01*
X144529199Y-93567349D01*
X144562648Y-93600798D01*
G36*
X144529199Y-90938251D02*
G01*
X144529199Y-90904802D01*
X144562648Y-90904802D01*
X144529199Y-90938251D01*
X144529199Y-90938251D01*
G37*
X144529199Y-90938251D02*
X144529199Y-90904802D01*
X144562648Y-90904802D01*
X144529199Y-90938251D01*
G36*
X144562648Y-90650798D02*
G01*
X144529199Y-90650798D01*
X144529199Y-90617349D01*
X144562648Y-90650798D01*
X144562648Y-90650798D01*
G37*
X144562648Y-90650798D02*
X144529199Y-90650798D01*
X144529199Y-90617349D01*
X144562648Y-90650798D01*
G36*
X144529199Y-89872917D02*
G01*
X144529199Y-89817599D01*
X144574597Y-89817599D01*
X144529199Y-89872917D01*
X144529199Y-89872917D01*
G37*
X144529199Y-89872917D02*
X144529199Y-89817599D01*
X144574597Y-89817599D01*
X144529199Y-89872917D01*
G36*
X146265902Y-89776548D02*
G01*
X146265902Y-89775307D01*
X146267683Y-89774767D01*
X146265902Y-89776548D01*
X146265902Y-89776548D01*
G37*
X146265902Y-89776548D02*
X146265902Y-89775307D01*
X146267683Y-89774767D01*
X146265902Y-89776548D01*
G36*
X178778300Y-89753440D02*
G01*
X177725100Y-89753440D01*
X177674768Y-89738172D01*
X177507610Y-89721708D01*
X176995110Y-89721708D01*
X176827952Y-89738172D01*
X176777620Y-89753440D01*
X173675852Y-89753440D01*
X173611560Y-89747108D01*
X173422310Y-89750180D01*
X173419050Y-89753440D01*
X173096550Y-89753440D01*
X173096550Y-89133291D01*
X173099990Y-89098363D01*
X173096550Y-89063434D01*
X173096550Y-89063427D01*
X173086259Y-88958943D01*
X173072954Y-88915082D01*
X173045592Y-88824881D01*
X172979552Y-88701330D01*
X172912948Y-88620172D01*
X172912938Y-88620162D01*
X172890676Y-88593036D01*
X172863551Y-88570775D01*
X170563467Y-86270693D01*
X170595028Y-86194498D01*
X170632120Y-86008024D01*
X170632120Y-85817896D01*
X170595028Y-85631422D01*
X170522269Y-85455766D01*
X170416640Y-85297681D01*
X170282199Y-85163240D01*
X170124114Y-85057611D01*
X169948458Y-84984852D01*
X169780020Y-84951348D01*
X170352016Y-84379352D01*
X170678050Y-84379352D01*
X170845208Y-84362888D01*
X171005942Y-84314130D01*
X171154075Y-84234951D01*
X171246800Y-84158854D01*
X171339525Y-84234951D01*
X171487658Y-84314130D01*
X171648392Y-84362888D01*
X171815550Y-84379352D01*
X172253050Y-84379352D01*
X172420208Y-84362888D01*
X172580942Y-84314130D01*
X172729075Y-84234951D01*
X172858915Y-84128395D01*
X172965471Y-83998555D01*
X172976736Y-83977480D01*
X173684148Y-83977480D01*
X173719074Y-83980920D01*
X173754000Y-83977480D01*
X173754010Y-83977480D01*
X173858494Y-83967189D01*
X173992555Y-83926522D01*
X174116107Y-83860482D01*
X174224401Y-83771607D01*
X174246675Y-83744466D01*
X175184772Y-82806371D01*
X175212142Y-82817708D01*
X175398616Y-82854800D01*
X175588744Y-82854800D01*
X175775218Y-82817708D01*
X175950874Y-82744949D01*
X176108959Y-82639320D01*
X176238919Y-82509360D01*
X177104040Y-82509360D01*
X177128816Y-82506920D01*
X177152641Y-82499693D01*
X177174597Y-82487957D01*
X177193843Y-82472163D01*
X177209637Y-82452917D01*
X177221373Y-82430961D01*
X177228600Y-82407136D01*
X177231040Y-82382360D01*
X177231040Y-78968600D01*
X177228600Y-78943824D01*
X177221373Y-78919999D01*
X177209713Y-78898186D01*
X177448134Y-78850761D01*
X177791182Y-78708666D01*
X178099918Y-78502375D01*
X178362475Y-78239818D01*
X178568766Y-77931082D01*
X178710861Y-77588034D01*
X178778301Y-77248988D01*
X178778300Y-89753440D01*
X178778300Y-89753440D01*
G37*
X178778300Y-89753440D02*
X177725100Y-89753440D01*
X177674768Y-89738172D01*
X177507610Y-89721708D01*
X176995110Y-89721708D01*
X176827952Y-89738172D01*
X176777620Y-89753440D01*
X173675852Y-89753440D01*
X173611560Y-89747108D01*
X173422310Y-89750180D01*
X173419050Y-89753440D01*
X173096550Y-89753440D01*
X173096550Y-89133291D01*
X173099990Y-89098363D01*
X173096550Y-89063434D01*
X173096550Y-89063427D01*
X173086259Y-88958943D01*
X173072954Y-88915082D01*
X173045592Y-88824881D01*
X172979552Y-88701330D01*
X172912948Y-88620172D01*
X172912938Y-88620162D01*
X172890676Y-88593036D01*
X172863551Y-88570775D01*
X170563467Y-86270693D01*
X170595028Y-86194498D01*
X170632120Y-86008024D01*
X170632120Y-85817896D01*
X170595028Y-85631422D01*
X170522269Y-85455766D01*
X170416640Y-85297681D01*
X170282199Y-85163240D01*
X170124114Y-85057611D01*
X169948458Y-84984852D01*
X169780020Y-84951348D01*
X170352016Y-84379352D01*
X170678050Y-84379352D01*
X170845208Y-84362888D01*
X171005942Y-84314130D01*
X171154075Y-84234951D01*
X171246800Y-84158854D01*
X171339525Y-84234951D01*
X171487658Y-84314130D01*
X171648392Y-84362888D01*
X171815550Y-84379352D01*
X172253050Y-84379352D01*
X172420208Y-84362888D01*
X172580942Y-84314130D01*
X172729075Y-84234951D01*
X172858915Y-84128395D01*
X172965471Y-83998555D01*
X172976736Y-83977480D01*
X173684148Y-83977480D01*
X173719074Y-83980920D01*
X173754000Y-83977480D01*
X173754010Y-83977480D01*
X173858494Y-83967189D01*
X173992555Y-83926522D01*
X174116107Y-83860482D01*
X174224401Y-83771607D01*
X174246675Y-83744466D01*
X175184772Y-82806371D01*
X175212142Y-82817708D01*
X175398616Y-82854800D01*
X175588744Y-82854800D01*
X175775218Y-82817708D01*
X175950874Y-82744949D01*
X176108959Y-82639320D01*
X176238919Y-82509360D01*
X177104040Y-82509360D01*
X177128816Y-82506920D01*
X177152641Y-82499693D01*
X177174597Y-82487957D01*
X177193843Y-82472163D01*
X177209637Y-82452917D01*
X177221373Y-82430961D01*
X177228600Y-82407136D01*
X177231040Y-82382360D01*
X177231040Y-78968600D01*
X177228600Y-78943824D01*
X177221373Y-78919999D01*
X177209713Y-78898186D01*
X177448134Y-78850761D01*
X177791182Y-78708666D01*
X178099918Y-78502375D01*
X178362475Y-78239818D01*
X178568766Y-77931082D01*
X178710861Y-77588034D01*
X178778301Y-77248988D01*
X178778300Y-89753440D01*
G36*
X147347698Y-87892480D02*
G01*
X147406663Y-88002794D01*
X147461300Y-88069370D01*
X147443529Y-88091025D01*
X147364350Y-88239158D01*
X147323199Y-88374815D01*
X147323199Y-87811718D01*
X147347698Y-87892480D01*
X147347698Y-87892480D01*
G37*
X147347698Y-87892480D02*
X147406663Y-88002794D01*
X147461300Y-88069370D01*
X147443529Y-88091025D01*
X147364350Y-88239158D01*
X147323199Y-88374815D01*
X147323199Y-87811718D01*
X147347698Y-87892480D01*
G36*
X147323199Y-87475551D02*
G01*
X147323199Y-87337802D01*
X147460948Y-87337802D01*
X147323199Y-87475551D01*
X147323199Y-87475551D01*
G37*
X147323199Y-87475551D02*
X147323199Y-87337802D01*
X147460948Y-87337802D01*
X147323199Y-87475551D01*
G36*
X148403328Y-85692000D02*
G01*
X148415588Y-85816482D01*
X148451898Y-85936180D01*
X148510863Y-86046494D01*
X148590215Y-86143185D01*
X148646705Y-86189545D01*
X148539200Y-86297050D01*
X148539200Y-87083800D01*
X148559200Y-87083800D01*
X148559200Y-87337800D01*
X148539200Y-87337800D01*
X148539200Y-87357800D01*
X148285200Y-87357800D01*
X148285200Y-87337800D01*
X148265200Y-87337800D01*
X148265200Y-87083800D01*
X148285200Y-87083800D01*
X148285200Y-86297050D01*
X148126450Y-86138300D01*
X147937200Y-86135228D01*
X147890822Y-86139796D01*
X148404396Y-85626222D01*
X148403328Y-85692000D01*
X148403328Y-85692000D01*
G37*
X148403328Y-85692000D02*
X148415588Y-85816482D01*
X148451898Y-85936180D01*
X148510863Y-86046494D01*
X148590215Y-86143185D01*
X148646705Y-86189545D01*
X148539200Y-86297050D01*
X148539200Y-87083800D01*
X148559200Y-87083800D01*
X148559200Y-87337800D01*
X148539200Y-87337800D01*
X148539200Y-87357800D01*
X148285200Y-87357800D01*
X148285200Y-87337800D01*
X148265200Y-87337800D01*
X148265200Y-87083800D01*
X148285200Y-87083800D01*
X148285200Y-86297050D01*
X148126450Y-86138300D01*
X147937200Y-86135228D01*
X147890822Y-86139796D01*
X148404396Y-85626222D01*
X148403328Y-85692000D01*
G36*
X167965574Y-86074751D02*
G01*
X167841744Y-86050120D01*
X167651616Y-86050120D01*
X167465142Y-86087212D01*
X167289486Y-86159971D01*
X167131401Y-86265600D01*
X167069585Y-86327416D01*
X167003544Y-86314280D01*
X166813416Y-86314280D01*
X166626942Y-86351372D01*
X166506716Y-86401171D01*
X166877948Y-86029940D01*
X167984136Y-86029940D01*
X167965574Y-86074751D01*
X167965574Y-86074751D01*
G37*
X167965574Y-86074751D02*
X167841744Y-86050120D01*
X167651616Y-86050120D01*
X167465142Y-86087212D01*
X167289486Y-86159971D01*
X167131401Y-86265600D01*
X167069585Y-86327416D01*
X167003544Y-86314280D01*
X166813416Y-86314280D01*
X166626942Y-86351372D01*
X166506716Y-86401171D01*
X166877948Y-86029940D01*
X167984136Y-86029940D01*
X167965574Y-86074751D01*
G36*
X149625900Y-85344000D02*
G01*
X149605900Y-85344000D01*
X149605900Y-85364000D01*
X149351900Y-85364000D01*
X149351900Y-85344000D01*
X149331900Y-85344000D01*
X149331900Y-85176990D01*
X149625900Y-85176990D01*
X149625900Y-85344000D01*
X149625900Y-85344000D01*
G37*
X149625900Y-85344000D02*
X149605900Y-85344000D01*
X149605900Y-85364000D01*
X149351900Y-85364000D01*
X149351900Y-85344000D01*
X149331900Y-85344000D01*
X149331900Y-85176990D01*
X149625900Y-85176990D01*
X149625900Y-85344000D01*
G36*
X142751200Y-84844892D02*
G01*
X142750283Y-84844279D01*
X142751200Y-84844279D01*
X142751200Y-84844892D01*
X142751200Y-84844892D01*
G37*
X142751200Y-84844892D02*
X142750283Y-84844279D01*
X142751200Y-84844279D01*
X142751200Y-84844892D01*
G36*
X134232011Y-79105766D02*
G01*
X134159252Y-79281422D01*
X134122160Y-79467896D01*
X134122160Y-79658024D01*
X134159252Y-79844498D01*
X134232011Y-80020154D01*
X134337640Y-80178239D01*
X134472081Y-80312680D01*
X134630166Y-80418309D01*
X134712983Y-80452613D01*
X134750357Y-80522534D01*
X134839233Y-80630828D01*
X134866369Y-80653098D01*
X137279547Y-83066279D01*
X135366580Y-83066279D01*
X135322920Y-83061979D01*
X135279260Y-83066279D01*
X135279254Y-83066279D01*
X135260156Y-83068160D01*
X134288523Y-83068160D01*
X134287601Y-83067667D01*
X134263776Y-83060440D01*
X134239000Y-83058000D01*
X132580316Y-83058000D01*
X132247640Y-82725325D01*
X132247640Y-80657635D01*
X133886845Y-79018431D01*
X134290366Y-79018431D01*
X134232011Y-79105766D01*
X134232011Y-79105766D01*
G37*
X134232011Y-79105766D02*
X134159252Y-79281422D01*
X134122160Y-79467896D01*
X134122160Y-79658024D01*
X134159252Y-79844498D01*
X134232011Y-80020154D01*
X134337640Y-80178239D01*
X134472081Y-80312680D01*
X134630166Y-80418309D01*
X134712983Y-80452613D01*
X134750357Y-80522534D01*
X134839233Y-80630828D01*
X134866369Y-80653098D01*
X137279547Y-83066279D01*
X135366580Y-83066279D01*
X135322920Y-83061979D01*
X135279260Y-83066279D01*
X135279254Y-83066279D01*
X135260156Y-83068160D01*
X134288523Y-83068160D01*
X134287601Y-83067667D01*
X134263776Y-83060440D01*
X134239000Y-83058000D01*
X132580316Y-83058000D01*
X132247640Y-82725325D01*
X132247640Y-80657635D01*
X133886845Y-79018431D01*
X134290366Y-79018431D01*
X134232011Y-79105766D01*
G36*
X138998860Y-81518760D02*
G01*
X139018860Y-81518760D01*
X139018860Y-81772760D01*
X138998860Y-81772760D01*
X138998860Y-81792760D01*
X138744860Y-81792760D01*
X138744860Y-81772760D01*
X138724860Y-81772760D01*
X138724860Y-81518760D01*
X138744860Y-81518760D01*
X138744860Y-81498760D01*
X138998860Y-81498760D01*
X138998860Y-81518760D01*
X138998860Y-81518760D01*
G37*
X138998860Y-81518760D02*
X139018860Y-81518760D01*
X139018860Y-81772760D01*
X138998860Y-81772760D01*
X138998860Y-81792760D01*
X138744860Y-81792760D01*
X138744860Y-81772760D01*
X138724860Y-81772760D01*
X138724860Y-81518760D01*
X138744860Y-81518760D01*
X138744860Y-81498760D01*
X138998860Y-81498760D01*
X138998860Y-81518760D01*
G36*
X139006480Y-79286100D02*
G01*
X139026480Y-79286100D01*
X139026480Y-79540100D01*
X139006480Y-79540100D01*
X139006480Y-79560100D01*
X138752480Y-79560100D01*
X138752480Y-79540100D01*
X138732480Y-79540100D01*
X138732480Y-79286100D01*
X138752480Y-79286100D01*
X138752480Y-79266100D01*
X139006480Y-79266100D01*
X139006480Y-79286100D01*
X139006480Y-79286100D01*
G37*
X139006480Y-79286100D02*
X139026480Y-79286100D01*
X139026480Y-79540100D01*
X139006480Y-79540100D01*
X139006480Y-79560100D01*
X138752480Y-79560100D01*
X138752480Y-79540100D01*
X138732480Y-79540100D01*
X138732480Y-79286100D01*
X138752480Y-79286100D01*
X138752480Y-79266100D01*
X139006480Y-79266100D01*
X139006480Y-79286100D01*
G36*
X137088281Y-79082480D02*
G01*
X136953840Y-79216921D01*
X136888670Y-79314455D01*
X136879068Y-79266182D01*
X136806309Y-79090526D01*
X136758137Y-79018431D01*
X137184137Y-79018431D01*
X137088281Y-79082480D01*
X137088281Y-79082480D01*
G37*
X137088281Y-79082480D02*
X136953840Y-79216921D01*
X136888670Y-79314455D01*
X136879068Y-79266182D01*
X136806309Y-79090526D01*
X136758137Y-79018431D01*
X137184137Y-79018431D01*
X137088281Y-79082480D01*
G36*
X166767594Y-76597214D02*
G01*
X166953166Y-76823334D01*
X167179286Y-77008906D01*
X167437266Y-77146799D01*
X167717189Y-77231713D01*
X167935350Y-77253200D01*
X168081250Y-77253200D01*
X168259760Y-77235618D01*
X168259760Y-77417744D01*
X168296852Y-77604218D01*
X168297180Y-77605011D01*
X168283529Y-77621645D01*
X168204350Y-77769778D01*
X168192782Y-77807914D01*
X168178522Y-77803588D01*
X168054040Y-77791328D01*
X167864790Y-77794400D01*
X167706040Y-77953150D01*
X167706040Y-78739900D01*
X167726040Y-78739900D01*
X167726040Y-78993900D01*
X167706040Y-78993900D01*
X167706040Y-79013900D01*
X167452040Y-79013900D01*
X167452040Y-78993900D01*
X167432040Y-78993900D01*
X167432040Y-78739900D01*
X167452040Y-78739900D01*
X167452040Y-77953150D01*
X167293290Y-77794400D01*
X167104040Y-77791328D01*
X166979558Y-77803588D01*
X166859860Y-77839898D01*
X166800933Y-77871396D01*
X166714109Y-77784572D01*
X166675000Y-77690155D01*
X166569371Y-77532070D01*
X166434930Y-77397629D01*
X166276845Y-77292000D01*
X166101189Y-77219241D01*
X165919599Y-77183120D01*
X166039334Y-77146799D01*
X166297314Y-77008906D01*
X166523434Y-76823334D01*
X166709006Y-76597214D01*
X166738300Y-76542409D01*
X166767594Y-76597214D01*
X166767594Y-76597214D01*
G37*
X166767594Y-76597214D02*
X166953166Y-76823334D01*
X167179286Y-77008906D01*
X167437266Y-77146799D01*
X167717189Y-77231713D01*
X167935350Y-77253200D01*
X168081250Y-77253200D01*
X168259760Y-77235618D01*
X168259760Y-77417744D01*
X168296852Y-77604218D01*
X168297180Y-77605011D01*
X168283529Y-77621645D01*
X168204350Y-77769778D01*
X168192782Y-77807914D01*
X168178522Y-77803588D01*
X168054040Y-77791328D01*
X167864790Y-77794400D01*
X167706040Y-77953150D01*
X167706040Y-78739900D01*
X167726040Y-78739900D01*
X167726040Y-78993900D01*
X167706040Y-78993900D01*
X167706040Y-79013900D01*
X167452040Y-79013900D01*
X167452040Y-78993900D01*
X167432040Y-78993900D01*
X167432040Y-78739900D01*
X167452040Y-78739900D01*
X167452040Y-77953150D01*
X167293290Y-77794400D01*
X167104040Y-77791328D01*
X166979558Y-77803588D01*
X166859860Y-77839898D01*
X166800933Y-77871396D01*
X166714109Y-77784572D01*
X166675000Y-77690155D01*
X166569371Y-77532070D01*
X166434930Y-77397629D01*
X166276845Y-77292000D01*
X166101189Y-77219241D01*
X165919599Y-77183120D01*
X166039334Y-77146799D01*
X166297314Y-77008906D01*
X166523434Y-76823334D01*
X166709006Y-76597214D01*
X166738300Y-76542409D01*
X166767594Y-76597214D01*
G36*
X164227594Y-76597214D02*
G01*
X164413166Y-76823334D01*
X164639286Y-77008906D01*
X164897266Y-77146799D01*
X165177189Y-77231713D01*
X165265704Y-77240431D01*
X163130896Y-77240431D01*
X163219411Y-77231713D01*
X163499334Y-77146799D01*
X163757314Y-77008906D01*
X163983434Y-76823334D01*
X164169006Y-76597214D01*
X164198300Y-76542409D01*
X164227594Y-76597214D01*
X164227594Y-76597214D01*
G37*
X164227594Y-76597214D02*
X164413166Y-76823334D01*
X164639286Y-77008906D01*
X164897266Y-77146799D01*
X165177189Y-77231713D01*
X165265704Y-77240431D01*
X163130896Y-77240431D01*
X163219411Y-77231713D01*
X163499334Y-77146799D01*
X163757314Y-77008906D01*
X163983434Y-76823334D01*
X164169006Y-76597214D01*
X164198300Y-76542409D01*
X164227594Y-76597214D01*
G36*
X132534840Y-90656380D02*
G01*
X132554840Y-90656380D01*
X132554840Y-90910380D01*
X132534840Y-90910380D01*
X132534840Y-91997130D01*
X132693590Y-92155880D01*
X133457840Y-92158952D01*
X133582322Y-92146692D01*
X133604000Y-92140116D01*
X133604000Y-92583000D01*
X132395967Y-92583000D01*
X132379073Y-92571712D01*
X131917732Y-92380618D01*
X131695633Y-92336440D01*
X131695024Y-92157597D01*
X132122090Y-92155880D01*
X132280840Y-91997130D01*
X132280840Y-90910380D01*
X132260840Y-90910380D01*
X132260840Y-90656380D01*
X132280840Y-90656380D01*
X132280840Y-90636380D01*
X132534840Y-90636380D01*
X132534840Y-90656380D01*
X132534840Y-90656380D01*
G37*
X132534840Y-90656380D02*
X132554840Y-90656380D01*
X132554840Y-90910380D01*
X132534840Y-90910380D01*
X132534840Y-91997130D01*
X132693590Y-92155880D01*
X133457840Y-92158952D01*
X133582322Y-92146692D01*
X133604000Y-92140116D01*
X133604000Y-92583000D01*
X132395967Y-92583000D01*
X132379073Y-92571712D01*
X131917732Y-92380618D01*
X131695633Y-92336440D01*
X131695024Y-92157597D01*
X132122090Y-92155880D01*
X132280840Y-91997130D01*
X132280840Y-90910380D01*
X132260840Y-90910380D01*
X132260840Y-90656380D01*
X132280840Y-90656380D01*
X132280840Y-90636380D01*
X132534840Y-90636380D01*
X132534840Y-90656380D01*
G36*
X130234840Y-85283880D02*
G01*
X130254840Y-85283880D01*
X130254840Y-85537880D01*
X130234840Y-85537880D01*
X130234840Y-87353880D01*
X130254840Y-87353880D01*
X130254840Y-87607880D01*
X130234840Y-87607880D01*
X130234840Y-89033880D01*
X130254840Y-89033880D01*
X130254840Y-89287880D01*
X130234840Y-89287880D01*
X130234840Y-91103880D01*
X130254840Y-91103880D01*
X130254840Y-91357880D01*
X130234840Y-91357880D01*
X130234840Y-91377880D01*
X129980840Y-91377880D01*
X129980840Y-91357880D01*
X129960840Y-91357880D01*
X129960840Y-91103880D01*
X129980840Y-91103880D01*
X129980840Y-89287880D01*
X129960840Y-89287880D01*
X129960840Y-89033880D01*
X129980840Y-89033880D01*
X129980840Y-87607880D01*
X129960840Y-87607880D01*
X129960840Y-87353880D01*
X129980840Y-87353880D01*
X129980840Y-85537880D01*
X129960840Y-85537880D01*
X129960840Y-85283880D01*
X129980840Y-85283880D01*
X129980840Y-85263880D01*
X130234840Y-85263880D01*
X130234840Y-85283880D01*
X130234840Y-85283880D01*
G37*
X130234840Y-85283880D02*
X130254840Y-85283880D01*
X130254840Y-85537880D01*
X130234840Y-85537880D01*
X130234840Y-87353880D01*
X130254840Y-87353880D01*
X130254840Y-87607880D01*
X130234840Y-87607880D01*
X130234840Y-89033880D01*
X130254840Y-89033880D01*
X130254840Y-89287880D01*
X130234840Y-89287880D01*
X130234840Y-91103880D01*
X130254840Y-91103880D01*
X130254840Y-91357880D01*
X130234840Y-91357880D01*
X130234840Y-91377880D01*
X129980840Y-91377880D01*
X129980840Y-91357880D01*
X129960840Y-91357880D01*
X129960840Y-91103880D01*
X129980840Y-91103880D01*
X129980840Y-89287880D01*
X129960840Y-89287880D01*
X129960840Y-89033880D01*
X129980840Y-89033880D01*
X129980840Y-87607880D01*
X129960840Y-87607880D01*
X129960840Y-87353880D01*
X129980840Y-87353880D01*
X129980840Y-85537880D01*
X129960840Y-85537880D01*
X129960840Y-85283880D01*
X129980840Y-85283880D01*
X129980840Y-85263880D01*
X130234840Y-85263880D01*
X130234840Y-85283880D01*
G36*
X132534840Y-85731380D02*
G01*
X132554840Y-85731380D01*
X132554840Y-85985380D01*
X132534840Y-85985380D01*
X132534840Y-86005380D01*
X132280840Y-86005380D01*
X132280840Y-85985380D01*
X132260840Y-85985380D01*
X132260840Y-85731380D01*
X132280840Y-85731380D01*
X132280840Y-85711380D01*
X132534840Y-85711380D01*
X132534840Y-85731380D01*
X132534840Y-85731380D01*
G37*
X132534840Y-85731380D02*
X132554840Y-85731380D01*
X132554840Y-85985380D01*
X132534840Y-85985380D01*
X132534840Y-86005380D01*
X132280840Y-86005380D01*
X132280840Y-85985380D01*
X132260840Y-85985380D01*
X132260840Y-85731380D01*
X132280840Y-85731380D01*
X132280840Y-85711380D01*
X132534840Y-85711380D01*
X132534840Y-85731380D01*
M02*
