G04 #@! TF.GenerationSoftware,KiCad,Pcbnew,(5.1.4)-1*
G04 #@! TF.CreationDate,2019-12-26T22:32:10-05:00*
G04 #@! TF.ProjectId,Feather-NEO-M9N-GPS,46656174-6865-4722-9d4e-454f2d4d394e,rev?*
G04 #@! TF.SameCoordinates,Original*
G04 #@! TF.FileFunction,Legend,Bot*
G04 #@! TF.FilePolarity,Positive*
%FSLAX46Y46*%
G04 Gerber Fmt 4.6, Leading zero omitted, Abs format (unit mm)*
G04 Created by KiCad (PCBNEW (5.1.4)-1) date 2019-12-26 22:32:10*
%MOMM*%
%LPD*%
G04 APERTURE LIST*
%ADD10C,0.150000*%
%ADD11C,0.203200*%
%ADD12C,0.120000*%
G04 APERTURE END LIST*
D10*
X139101390Y-88908880D02*
X139434723Y-88432690D01*
X139672819Y-88908880D02*
X139672819Y-87908880D01*
X139291866Y-87908880D01*
X139196628Y-87956500D01*
X139149009Y-88004119D01*
X139101390Y-88099357D01*
X139101390Y-88242214D01*
X139149009Y-88337452D01*
X139196628Y-88385071D01*
X139291866Y-88432690D01*
X139672819Y-88432690D01*
X138291866Y-88861261D02*
X138387104Y-88908880D01*
X138577580Y-88908880D01*
X138672819Y-88861261D01*
X138720438Y-88766023D01*
X138720438Y-88385071D01*
X138672819Y-88289833D01*
X138577580Y-88242214D01*
X138387104Y-88242214D01*
X138291866Y-88289833D01*
X138244247Y-88385071D01*
X138244247Y-88480309D01*
X138720438Y-88575547D01*
X137910914Y-88242214D02*
X137672819Y-88908880D01*
X137434723Y-88242214D01*
X136529961Y-88908880D02*
X137101390Y-88908880D01*
X136815676Y-88908880D02*
X136815676Y-87908880D01*
X136910914Y-88051738D01*
X137006152Y-88146976D01*
X137101390Y-88194595D01*
X139434723Y-90273166D02*
X138958533Y-90273166D01*
X139529961Y-90558880D02*
X139196628Y-89558880D01*
X138863295Y-90558880D01*
X138196628Y-90035071D02*
X138053771Y-90082690D01*
X138006152Y-90130309D01*
X137958533Y-90225547D01*
X137958533Y-90368404D01*
X138006152Y-90463642D01*
X138053771Y-90511261D01*
X138149009Y-90558880D01*
X138529961Y-90558880D01*
X138529961Y-89558880D01*
X138196628Y-89558880D01*
X138101390Y-89606500D01*
X138053771Y-89654119D01*
X138006152Y-89749357D01*
X138006152Y-89844595D01*
X138053771Y-89939833D01*
X138101390Y-89987452D01*
X138196628Y-90035071D01*
X138529961Y-90035071D01*
X137625200Y-89558880D02*
X137387104Y-90558880D01*
X137196628Y-89844595D01*
X137006152Y-90558880D01*
X136768057Y-89558880D01*
X141268057Y-92208880D02*
X141839485Y-92208880D01*
X141553771Y-92208880D02*
X141553771Y-91208880D01*
X141649009Y-91351738D01*
X141744247Y-91446976D01*
X141839485Y-91494595D01*
X140887104Y-91304119D02*
X140839485Y-91256500D01*
X140744247Y-91208880D01*
X140506152Y-91208880D01*
X140410914Y-91256500D01*
X140363295Y-91304119D01*
X140315676Y-91399357D01*
X140315676Y-91494595D01*
X140363295Y-91637452D01*
X140934723Y-92208880D01*
X140315676Y-92208880D01*
X139172819Y-91161261D02*
X140029961Y-92446976D01*
X138887104Y-91304119D02*
X138839485Y-91256500D01*
X138744247Y-91208880D01*
X138506152Y-91208880D01*
X138410914Y-91256500D01*
X138363295Y-91304119D01*
X138315676Y-91399357D01*
X138315676Y-91494595D01*
X138363295Y-91637452D01*
X138934723Y-92208880D01*
X138315676Y-92208880D01*
X137458533Y-91208880D02*
X137649009Y-91208880D01*
X137744247Y-91256500D01*
X137791866Y-91304119D01*
X137887104Y-91446976D01*
X137934723Y-91637452D01*
X137934723Y-92018404D01*
X137887104Y-92113642D01*
X137839485Y-92161261D01*
X137744247Y-92208880D01*
X137553771Y-92208880D01*
X137458533Y-92161261D01*
X137410914Y-92113642D01*
X137363295Y-92018404D01*
X137363295Y-91780309D01*
X137410914Y-91685071D01*
X137458533Y-91637452D01*
X137553771Y-91589833D01*
X137744247Y-91589833D01*
X137839485Y-91637452D01*
X137887104Y-91685071D01*
X137934723Y-91780309D01*
X136220438Y-91161261D02*
X137077580Y-92446976D01*
X135363295Y-92208880D02*
X135934723Y-92208880D01*
X135649009Y-92208880D02*
X135649009Y-91208880D01*
X135744247Y-91351738D01*
X135839485Y-91446976D01*
X135934723Y-91494595D01*
X134887104Y-92208880D02*
X134696628Y-92208880D01*
X134601390Y-92161261D01*
X134553771Y-92113642D01*
X134458533Y-91970785D01*
X134410914Y-91780309D01*
X134410914Y-91399357D01*
X134458533Y-91304119D01*
X134506152Y-91256500D01*
X134601390Y-91208880D01*
X134791866Y-91208880D01*
X134887104Y-91256500D01*
X134934723Y-91304119D01*
X134982342Y-91399357D01*
X134982342Y-91637452D01*
X134934723Y-91732690D01*
X134887104Y-91780309D01*
X134791866Y-91827928D01*
X134601390Y-91827928D01*
X134506152Y-91780309D01*
X134458533Y-91732690D01*
X134410914Y-91637452D01*
X154048933Y-78234614D02*
X154048933Y-78901280D01*
X154477504Y-78234614D02*
X154477504Y-78758423D01*
X154429885Y-78853661D01*
X154334647Y-78901280D01*
X154191790Y-78901280D01*
X154096552Y-78853661D01*
X154048933Y-78806042D01*
X153572742Y-78520328D02*
X152810838Y-78520328D01*
X152334647Y-78901280D02*
X152334647Y-77901280D01*
X152334647Y-78282233D02*
X152239409Y-78234614D01*
X152048933Y-78234614D01*
X151953695Y-78282233D01*
X151906076Y-78329852D01*
X151858457Y-78425090D01*
X151858457Y-78710804D01*
X151906076Y-78806042D01*
X151953695Y-78853661D01*
X152048933Y-78901280D01*
X152239409Y-78901280D01*
X152334647Y-78853661D01*
X151287028Y-78901280D02*
X151382266Y-78853661D01*
X151429885Y-78758423D01*
X151429885Y-77901280D01*
X150763219Y-78901280D02*
X150858457Y-78853661D01*
X150906076Y-78806042D01*
X150953695Y-78710804D01*
X150953695Y-78425090D01*
X150906076Y-78329852D01*
X150858457Y-78282233D01*
X150763219Y-78234614D01*
X150620361Y-78234614D01*
X150525123Y-78282233D01*
X150477504Y-78329852D01*
X150429885Y-78425090D01*
X150429885Y-78710804D01*
X150477504Y-78806042D01*
X150525123Y-78853661D01*
X150620361Y-78901280D01*
X150763219Y-78901280D01*
X150096552Y-78901280D02*
X149572742Y-78234614D01*
X150096552Y-78234614D02*
X149572742Y-78901280D01*
X147906076Y-77948900D02*
X148001314Y-77901280D01*
X148144171Y-77901280D01*
X148287028Y-77948900D01*
X148382266Y-78044138D01*
X148429885Y-78139376D01*
X148477504Y-78329852D01*
X148477504Y-78472709D01*
X148429885Y-78663185D01*
X148382266Y-78758423D01*
X148287028Y-78853661D01*
X148144171Y-78901280D01*
X148048933Y-78901280D01*
X147906076Y-78853661D01*
X147858457Y-78806042D01*
X147858457Y-78472709D01*
X148048933Y-78472709D01*
X147429885Y-78901280D02*
X147429885Y-77901280D01*
X147048933Y-77901280D01*
X146953695Y-77948900D01*
X146906076Y-77996519D01*
X146858457Y-78091757D01*
X146858457Y-78234614D01*
X146906076Y-78329852D01*
X146953695Y-78377471D01*
X147048933Y-78425090D01*
X147429885Y-78425090D01*
X146477504Y-78853661D02*
X146334647Y-78901280D01*
X146096552Y-78901280D01*
X146001314Y-78853661D01*
X145953695Y-78806042D01*
X145906076Y-78710804D01*
X145906076Y-78615566D01*
X145953695Y-78520328D01*
X146001314Y-78472709D01*
X146096552Y-78425090D01*
X146287028Y-78377471D01*
X146382266Y-78329852D01*
X146429885Y-78282233D01*
X146477504Y-78186995D01*
X146477504Y-78091757D01*
X146429885Y-77996519D01*
X146382266Y-77948900D01*
X146287028Y-77901280D01*
X146048933Y-77901280D01*
X145906076Y-77948900D01*
X153667980Y-80551280D02*
X153667980Y-79551280D01*
X153096552Y-80551280D01*
X153096552Y-79551280D01*
X152620361Y-80027471D02*
X152287028Y-80027471D01*
X152144171Y-80551280D02*
X152620361Y-80551280D01*
X152620361Y-79551280D01*
X152144171Y-79551280D01*
X151525123Y-79551280D02*
X151334647Y-79551280D01*
X151239409Y-79598900D01*
X151144171Y-79694138D01*
X151096552Y-79884614D01*
X151096552Y-80217947D01*
X151144171Y-80408423D01*
X151239409Y-80503661D01*
X151334647Y-80551280D01*
X151525123Y-80551280D01*
X151620361Y-80503661D01*
X151715600Y-80408423D01*
X151763219Y-80217947D01*
X151763219Y-79884614D01*
X151715600Y-79694138D01*
X151620361Y-79598900D01*
X151525123Y-79551280D01*
X150667980Y-80170328D02*
X149906076Y-80170328D01*
X149429885Y-80551280D02*
X149429885Y-79551280D01*
X149096552Y-80265566D01*
X148763219Y-79551280D01*
X148763219Y-80551280D01*
X148239409Y-80551280D02*
X148048933Y-80551280D01*
X147953695Y-80503661D01*
X147906076Y-80456042D01*
X147810838Y-80313185D01*
X147763219Y-80122709D01*
X147763219Y-79741757D01*
X147810838Y-79646519D01*
X147858457Y-79598900D01*
X147953695Y-79551280D01*
X148144171Y-79551280D01*
X148239409Y-79598900D01*
X148287028Y-79646519D01*
X148334647Y-79741757D01*
X148334647Y-79979852D01*
X148287028Y-80075090D01*
X148239409Y-80122709D01*
X148144171Y-80170328D01*
X147953695Y-80170328D01*
X147858457Y-80122709D01*
X147810838Y-80075090D01*
X147763219Y-79979852D01*
X147334647Y-80551280D02*
X147334647Y-79551280D01*
X146763219Y-80551280D01*
X146763219Y-79551280D01*
X154096552Y-81677471D02*
X154429885Y-81677471D01*
X154429885Y-82201280D02*
X154429885Y-81201280D01*
X153953695Y-81201280D01*
X153191790Y-82153661D02*
X153287028Y-82201280D01*
X153477504Y-82201280D01*
X153572742Y-82153661D01*
X153620361Y-82058423D01*
X153620361Y-81677471D01*
X153572742Y-81582233D01*
X153477504Y-81534614D01*
X153287028Y-81534614D01*
X153191790Y-81582233D01*
X153144171Y-81677471D01*
X153144171Y-81772709D01*
X153620361Y-81867947D01*
X152287028Y-82201280D02*
X152287028Y-81677471D01*
X152334647Y-81582233D01*
X152429885Y-81534614D01*
X152620361Y-81534614D01*
X152715600Y-81582233D01*
X152287028Y-82153661D02*
X152382266Y-82201280D01*
X152620361Y-82201280D01*
X152715600Y-82153661D01*
X152763219Y-82058423D01*
X152763219Y-81963185D01*
X152715600Y-81867947D01*
X152620361Y-81820328D01*
X152382266Y-81820328D01*
X152287028Y-81772709D01*
X151953695Y-81534614D02*
X151572742Y-81534614D01*
X151810838Y-81201280D02*
X151810838Y-82058423D01*
X151763219Y-82153661D01*
X151667980Y-82201280D01*
X151572742Y-82201280D01*
X151239409Y-82201280D02*
X151239409Y-81201280D01*
X150810838Y-82201280D02*
X150810838Y-81677471D01*
X150858457Y-81582233D01*
X150953695Y-81534614D01*
X151096552Y-81534614D01*
X151191790Y-81582233D01*
X151239409Y-81629852D01*
X149953695Y-82153661D02*
X150048933Y-82201280D01*
X150239409Y-82201280D01*
X150334647Y-82153661D01*
X150382266Y-82058423D01*
X150382266Y-81677471D01*
X150334647Y-81582233D01*
X150239409Y-81534614D01*
X150048933Y-81534614D01*
X149953695Y-81582233D01*
X149906076Y-81677471D01*
X149906076Y-81772709D01*
X150382266Y-81867947D01*
X149477504Y-82201280D02*
X149477504Y-81534614D01*
X149477504Y-81725090D02*
X149429885Y-81629852D01*
X149382266Y-81582233D01*
X149287028Y-81534614D01*
X149191790Y-81534614D01*
X148953695Y-81534614D02*
X148763219Y-82201280D01*
X148572742Y-81725090D01*
X148382266Y-82201280D01*
X148191790Y-81534614D01*
X147810838Y-82201280D02*
X147810838Y-81534614D01*
X147810838Y-81201280D02*
X147858457Y-81248900D01*
X147810838Y-81296519D01*
X147763219Y-81248900D01*
X147810838Y-81201280D01*
X147810838Y-81296519D01*
X147334647Y-81534614D02*
X147334647Y-82201280D01*
X147334647Y-81629852D02*
X147287028Y-81582233D01*
X147191790Y-81534614D01*
X147048933Y-81534614D01*
X146953695Y-81582233D01*
X146906076Y-81677471D01*
X146906076Y-82201280D01*
X146001314Y-81534614D02*
X146001314Y-82344138D01*
X146048933Y-82439376D01*
X146096552Y-82486995D01*
X146191790Y-82534614D01*
X146334647Y-82534614D01*
X146429885Y-82486995D01*
X146001314Y-82153661D02*
X146096552Y-82201280D01*
X146287028Y-82201280D01*
X146382266Y-82153661D01*
X146429885Y-82106042D01*
X146477504Y-82010804D01*
X146477504Y-81725090D01*
X146429885Y-81629852D01*
X146382266Y-81582233D01*
X146287028Y-81534614D01*
X146096552Y-81534614D01*
X146001314Y-81582233D01*
X164136866Y-77932328D02*
X164136866Y-78408519D01*
X164422580Y-77837090D02*
X163422580Y-78170423D01*
X164422580Y-78503757D01*
X164422580Y-79265661D02*
X163422580Y-79265661D01*
X164374961Y-79265661D02*
X164422580Y-79170423D01*
X164422580Y-78979947D01*
X164374961Y-78884709D01*
X164327342Y-78837090D01*
X164232104Y-78789471D01*
X163946390Y-78789471D01*
X163851152Y-78837090D01*
X163803533Y-78884709D01*
X163755914Y-78979947D01*
X163755914Y-79170423D01*
X163803533Y-79265661D01*
X164422580Y-80170423D02*
X163422580Y-80170423D01*
X164374961Y-80170423D02*
X164422580Y-80075185D01*
X164422580Y-79884709D01*
X164374961Y-79789471D01*
X164327342Y-79741852D01*
X164232104Y-79694233D01*
X163946390Y-79694233D01*
X163851152Y-79741852D01*
X163803533Y-79789471D01*
X163755914Y-79884709D01*
X163755914Y-80075185D01*
X163803533Y-80170423D01*
X164422580Y-80646614D02*
X163755914Y-80646614D01*
X163946390Y-80646614D02*
X163851152Y-80694233D01*
X163803533Y-80741852D01*
X163755914Y-80837090D01*
X163755914Y-80932328D01*
X164374961Y-81646614D02*
X164422580Y-81551376D01*
X164422580Y-81360900D01*
X164374961Y-81265661D01*
X164279723Y-81218042D01*
X163898771Y-81218042D01*
X163803533Y-81265661D01*
X163755914Y-81360900D01*
X163755914Y-81551376D01*
X163803533Y-81646614D01*
X163898771Y-81694233D01*
X163994009Y-81694233D01*
X164089247Y-81218042D01*
X164374961Y-82075185D02*
X164422580Y-82170423D01*
X164422580Y-82360900D01*
X164374961Y-82456138D01*
X164279723Y-82503757D01*
X164232104Y-82503757D01*
X164136866Y-82456138D01*
X164089247Y-82360900D01*
X164089247Y-82218042D01*
X164041628Y-82122804D01*
X163946390Y-82075185D01*
X163898771Y-82075185D01*
X163803533Y-82122804D01*
X163755914Y-82218042D01*
X163755914Y-82360900D01*
X163803533Y-82456138D01*
X164374961Y-82884709D02*
X164422580Y-82979947D01*
X164422580Y-83170423D01*
X164374961Y-83265661D01*
X164279723Y-83313280D01*
X164232104Y-83313280D01*
X164136866Y-83265661D01*
X164089247Y-83170423D01*
X164089247Y-83027566D01*
X164041628Y-82932328D01*
X163946390Y-82884709D01*
X163898771Y-82884709D01*
X163803533Y-82932328D01*
X163755914Y-83027566D01*
X163755914Y-83170423D01*
X163803533Y-83265661D01*
X164327342Y-83741852D02*
X164374961Y-83789471D01*
X164422580Y-83741852D01*
X164374961Y-83694233D01*
X164327342Y-83741852D01*
X164422580Y-83741852D01*
X163803533Y-83741852D02*
X163851152Y-83789471D01*
X163898771Y-83741852D01*
X163851152Y-83694233D01*
X163803533Y-83741852D01*
X163898771Y-83741852D01*
X165072580Y-79456138D02*
X165072580Y-79551376D01*
X165120200Y-79646614D01*
X165167819Y-79694233D01*
X165263057Y-79741852D01*
X165453533Y-79789471D01*
X165691628Y-79789471D01*
X165882104Y-79741852D01*
X165977342Y-79694233D01*
X166024961Y-79646614D01*
X166072580Y-79551376D01*
X166072580Y-79456138D01*
X166024961Y-79360900D01*
X165977342Y-79313280D01*
X165882104Y-79265661D01*
X165691628Y-79218042D01*
X165453533Y-79218042D01*
X165263057Y-79265661D01*
X165167819Y-79313280D01*
X165120200Y-79360900D01*
X165072580Y-79456138D01*
X166072580Y-80122804D02*
X165405914Y-80646614D01*
X165405914Y-80122804D02*
X166072580Y-80646614D01*
X165405914Y-81456138D02*
X166072580Y-81456138D01*
X165024961Y-81218042D02*
X165739247Y-80979947D01*
X165739247Y-81598995D01*
X165167819Y-81932328D02*
X165120200Y-81979947D01*
X165072580Y-82075185D01*
X165072580Y-82313280D01*
X165120200Y-82408519D01*
X165167819Y-82456138D01*
X165263057Y-82503757D01*
X165358295Y-82503757D01*
X165501152Y-82456138D01*
X166072580Y-81884709D01*
X166072580Y-82503757D01*
X169616238Y-90511380D02*
X169616238Y-91320904D01*
X169568619Y-91416142D01*
X169521000Y-91463761D01*
X169425761Y-91511380D01*
X169235285Y-91511380D01*
X169140047Y-91463761D01*
X169092428Y-91416142D01*
X169044809Y-91320904D01*
X169044809Y-90511380D01*
X168616238Y-91225666D02*
X168140047Y-91225666D01*
X168711476Y-91511380D02*
X168378142Y-90511380D01*
X168044809Y-91511380D01*
X167140047Y-91511380D02*
X167473380Y-91035190D01*
X167711476Y-91511380D02*
X167711476Y-90511380D01*
X167330523Y-90511380D01*
X167235285Y-90559000D01*
X167187666Y-90606619D01*
X167140047Y-90701857D01*
X167140047Y-90844714D01*
X167187666Y-90939952D01*
X167235285Y-90987571D01*
X167330523Y-91035190D01*
X167711476Y-91035190D01*
X166854333Y-90511380D02*
X166282904Y-90511380D01*
X166568619Y-91511380D02*
X166568619Y-90511380D01*
X141627836Y-80833220D02*
X142199264Y-80833220D01*
X141913550Y-80833220D02*
X141913550Y-79833220D01*
X142008788Y-79976078D01*
X142104026Y-80071316D01*
X142199264Y-80118935D01*
X140675455Y-80833220D02*
X141246883Y-80833220D01*
X140961169Y-80833220D02*
X140961169Y-79833220D01*
X141056407Y-79976078D01*
X141151645Y-80071316D01*
X141246883Y-80118935D01*
X141627836Y-78430380D02*
X142199264Y-78430380D01*
X141913550Y-78430380D02*
X141913550Y-77430380D01*
X142008788Y-77573238D01*
X142104026Y-77668476D01*
X142199264Y-77716095D01*
X141246883Y-77525619D02*
X141199264Y-77478000D01*
X141104026Y-77430380D01*
X140865931Y-77430380D01*
X140770693Y-77478000D01*
X140723074Y-77525619D01*
X140675455Y-77620857D01*
X140675455Y-77716095D01*
X140723074Y-77858952D01*
X141294502Y-78430380D01*
X140675455Y-78430380D01*
X141627836Y-76515220D02*
X142199264Y-76515220D01*
X141913550Y-76515220D02*
X141913550Y-75515220D01*
X142008788Y-75658078D01*
X142104026Y-75753316D01*
X142199264Y-75800935D01*
X141294502Y-75515220D02*
X140675455Y-75515220D01*
X141008788Y-75896173D01*
X140865931Y-75896173D01*
X140770693Y-75943792D01*
X140723074Y-75991411D01*
X140675455Y-76086649D01*
X140675455Y-76324744D01*
X140723074Y-76419982D01*
X140770693Y-76467601D01*
X140865931Y-76515220D01*
X141151645Y-76515220D01*
X141246883Y-76467601D01*
X141294502Y-76419982D01*
D11*
X166532560Y-77942440D02*
X166532560Y-80482440D01*
X168107360Y-77485240D02*
X166989760Y-77485240D01*
X168107360Y-80939640D02*
X166989760Y-80939640D01*
X168107360Y-80939640D02*
G75*
G03X168564560Y-80482440I0J457200D01*
G01*
X168564560Y-77942440D02*
G75*
G03X168107360Y-77485240I-457200J0D01*
G01*
X166532560Y-77942440D02*
G75*
G02X166989760Y-77485240I457200J0D01*
G01*
X166989760Y-80939640D02*
G75*
G02X166532560Y-80482440I0J457200D01*
G01*
X168564560Y-80482440D02*
X168564560Y-77942440D01*
D12*
X138354840Y-81431640D02*
X139754840Y-81431640D01*
X140454840Y-80731640D02*
X140454840Y-80131640D01*
X139754840Y-79431640D02*
X138354840Y-79431640D01*
X137654840Y-80131640D02*
X137654840Y-80731640D01*
X137654840Y-80731640D02*
G75*
G03X138354840Y-81431640I700000J0D01*
G01*
X138354840Y-79431640D02*
G75*
G03X137654840Y-80131640I0J-700000D01*
G01*
X140454840Y-80131640D02*
G75*
G03X139754840Y-79431640I-700000J0D01*
G01*
X139754840Y-81431640D02*
G75*
G03X140454840Y-80731640I0J700000D01*
G01*
X138354840Y-79155800D02*
X139754840Y-79155800D01*
X140454840Y-78455800D02*
X140454840Y-77855800D01*
X139754840Y-77155800D02*
X138354840Y-77155800D01*
X137654840Y-77855800D02*
X137654840Y-78455800D01*
X137654840Y-78455800D02*
G75*
G03X138354840Y-79155800I700000J0D01*
G01*
X138354840Y-77155800D02*
G75*
G03X137654840Y-77855800I0J-700000D01*
G01*
X140454840Y-77855800D02*
G75*
G03X139754840Y-77155800I-700000J0D01*
G01*
X139754840Y-79155800D02*
G75*
G03X140454840Y-78455800I0J700000D01*
G01*
X138354840Y-76951080D02*
X139754840Y-76951080D01*
X140454840Y-76251080D02*
X140454840Y-75651080D01*
X139754840Y-74951080D02*
X138354840Y-74951080D01*
X137654840Y-75651080D02*
X137654840Y-76251080D01*
X137654840Y-76251080D02*
G75*
G03X138354840Y-76951080I700000J0D01*
G01*
X138354840Y-74951080D02*
G75*
G03X137654840Y-75651080I0J-700000D01*
G01*
X140454840Y-75651080D02*
G75*
G03X139754840Y-74951080I-700000J0D01*
G01*
X139754840Y-76951080D02*
G75*
G03X140454840Y-76251080I0J700000D01*
G01*
X167855140Y-94172000D02*
X167855140Y-92772000D01*
X167155140Y-92072000D02*
X166555140Y-92072000D01*
X165855140Y-92772000D02*
X165855140Y-94172000D01*
X166555140Y-94872000D02*
X167155140Y-94872000D01*
X167155140Y-94872000D02*
G75*
G03X167855140Y-94172000I0J700000D01*
G01*
X165855140Y-94172000D02*
G75*
G03X166555140Y-94872000I700000J0D01*
G01*
X166555140Y-92072000D02*
G75*
G03X165855140Y-92772000I0J-700000D01*
G01*
X167855140Y-92772000D02*
G75*
G03X167155140Y-92072000I-700000J0D01*
G01*
X168075100Y-92777080D02*
X168075100Y-94177080D01*
X168775100Y-94877080D02*
X169375100Y-94877080D01*
X170075100Y-94177080D02*
X170075100Y-92777080D01*
X169375100Y-92077080D02*
X168775100Y-92077080D01*
X168775100Y-92077080D02*
G75*
G03X168075100Y-92777080I0J-700000D01*
G01*
X170075100Y-92777080D02*
G75*
G03X169375100Y-92077080I-700000J0D01*
G01*
X169375100Y-94877080D02*
G75*
G03X170075100Y-94177080I0J700000D01*
G01*
X168075100Y-94177080D02*
G75*
G03X168775100Y-94877080I700000J0D01*
G01*
X172746160Y-80122800D02*
X172746160Y-81522800D01*
X173446160Y-82222800D02*
X174046160Y-82222800D01*
X174746160Y-81522800D02*
X174746160Y-80122800D01*
X174046160Y-79422800D02*
X173446160Y-79422800D01*
X173446160Y-79422800D02*
G75*
G03X172746160Y-80122800I0J-700000D01*
G01*
X174746160Y-80122800D02*
G75*
G03X174046160Y-79422800I-700000J0D01*
G01*
X174046160Y-82222800D02*
G75*
G03X174746160Y-81522800I0J700000D01*
G01*
X172746160Y-81522800D02*
G75*
G03X173446160Y-82222800I700000J0D01*
G01*
X174895000Y-80122800D02*
X174895000Y-81522800D01*
X175595000Y-82222800D02*
X176195000Y-82222800D01*
X176895000Y-81522800D02*
X176895000Y-80122800D01*
X176195000Y-79422800D02*
X175595000Y-79422800D01*
X175595000Y-79422800D02*
G75*
G03X174895000Y-80122800I0J-700000D01*
G01*
X176895000Y-80122800D02*
G75*
G03X176195000Y-79422800I-700000J0D01*
G01*
X176195000Y-82222800D02*
G75*
G03X176895000Y-81522800I0J700000D01*
G01*
X174895000Y-81522800D02*
G75*
G03X175595000Y-82222800I700000J0D01*
G01*
D10*
X169989380Y-78236249D02*
X168989380Y-78236249D01*
X169084619Y-78664820D02*
X169037000Y-78712440D01*
X168989380Y-78807678D01*
X168989380Y-79045773D01*
X169037000Y-79141011D01*
X169084619Y-79188630D01*
X169179857Y-79236249D01*
X169275095Y-79236249D01*
X169417952Y-79188630D01*
X169989380Y-78617201D01*
X169989380Y-79236249D01*
X169894142Y-80236249D02*
X169941761Y-80188630D01*
X169989380Y-80045773D01*
X169989380Y-79950535D01*
X169941761Y-79807678D01*
X169846523Y-79712440D01*
X169751285Y-79664820D01*
X169560809Y-79617201D01*
X169417952Y-79617201D01*
X169227476Y-79664820D01*
X169132238Y-79712440D01*
X169037000Y-79807678D01*
X168989380Y-79950535D01*
X168989380Y-80045773D01*
X169037000Y-80188630D01*
X169084619Y-80236249D01*
X137558874Y-79521720D02*
X136606493Y-79521720D01*
X137368398Y-80841481D02*
X137225540Y-80889100D01*
X136987445Y-80889100D01*
X136892207Y-80841481D01*
X136844588Y-80793862D01*
X136796969Y-80698624D01*
X136796969Y-80603386D01*
X136844588Y-80508148D01*
X136892207Y-80460529D01*
X136987445Y-80412910D01*
X137177921Y-80365291D01*
X137273160Y-80317672D01*
X137320779Y-80270053D01*
X137368398Y-80174815D01*
X137368398Y-80079577D01*
X137320779Y-79984339D01*
X137273160Y-79936720D01*
X137177921Y-79889100D01*
X136939826Y-79889100D01*
X136796969Y-79936720D01*
X136606493Y-79521720D02*
X135749350Y-79521720D01*
X136416017Y-80603386D02*
X135939826Y-80603386D01*
X136511255Y-80889100D02*
X136177921Y-79889100D01*
X135844588Y-80889100D01*
X135749350Y-79521720D02*
X134892207Y-79521720D01*
X135177921Y-80365291D02*
X135511255Y-80365291D01*
X135511255Y-80889100D02*
X135511255Y-79889100D01*
X135035064Y-79889100D01*
X134892207Y-79521720D02*
X133987445Y-79521720D01*
X134654112Y-80365291D02*
X134320779Y-80365291D01*
X134177921Y-80889100D02*
X134654112Y-80889100D01*
X134654112Y-79889100D01*
X134177921Y-79889100D01*
X137320779Y-78613260D02*
X137320779Y-77613260D01*
X136939826Y-77613260D01*
X136844588Y-77660880D01*
X136796969Y-77708499D01*
X136749350Y-77803737D01*
X136749350Y-77946594D01*
X136796969Y-78041832D01*
X136844588Y-78089451D01*
X136939826Y-78137070D01*
X137320779Y-78137070D01*
X136320779Y-78613260D02*
X136320779Y-77613260D01*
X135939826Y-77613260D01*
X135844588Y-77660880D01*
X135796969Y-77708499D01*
X135749350Y-77803737D01*
X135749350Y-77946594D01*
X135796969Y-78041832D01*
X135844588Y-78089451D01*
X135939826Y-78137070D01*
X136320779Y-78137070D01*
X135368398Y-78565641D02*
X135225541Y-78613260D01*
X134987445Y-78613260D01*
X134892207Y-78565641D01*
X134844588Y-78518022D01*
X134796969Y-78422784D01*
X134796969Y-78327546D01*
X134844588Y-78232308D01*
X134892207Y-78184689D01*
X134987445Y-78137070D01*
X135177922Y-78089451D01*
X135273160Y-78041832D01*
X135320779Y-77994213D01*
X135368398Y-77898975D01*
X135368398Y-77803737D01*
X135320779Y-77708499D01*
X135273160Y-77660880D01*
X135177922Y-77613260D01*
X134939826Y-77613260D01*
X134796969Y-77660880D01*
X137320779Y-76413620D02*
X137320779Y-75413620D01*
X136844589Y-76413620D02*
X136844589Y-75413620D01*
X136273160Y-76413620D01*
X136273160Y-75413620D01*
X135939827Y-75413620D02*
X135368398Y-75413620D01*
X135654113Y-76413620D02*
X135654113Y-75413620D01*
X164407520Y-92710095D02*
X164407520Y-93281523D01*
X165407520Y-92995809D02*
X164407520Y-92995809D01*
X164407520Y-93519619D02*
X165407520Y-94186285D01*
X164407520Y-94186285D02*
X165407520Y-93519619D01*
X171427480Y-93310413D02*
X170951290Y-92977080D01*
X171427480Y-92738984D02*
X170427480Y-92738984D01*
X170427480Y-93119937D01*
X170475100Y-93215175D01*
X170522719Y-93262794D01*
X170617957Y-93310413D01*
X170760814Y-93310413D01*
X170856052Y-93262794D01*
X170903671Y-93215175D01*
X170951290Y-93119937D01*
X170951290Y-92738984D01*
X170427480Y-93643746D02*
X171427480Y-94310413D01*
X170427480Y-94310413D02*
X171427480Y-93643746D01*
X174140761Y-82527923D02*
X174188380Y-82670780D01*
X174188380Y-82908876D01*
X174140761Y-83004114D01*
X174093142Y-83051733D01*
X173997904Y-83099352D01*
X173902666Y-83099352D01*
X173807428Y-83051733D01*
X173759809Y-83004114D01*
X173712190Y-82908876D01*
X173664571Y-82718400D01*
X173616952Y-82623161D01*
X173569333Y-82575542D01*
X173474095Y-82527923D01*
X173378857Y-82527923D01*
X173283619Y-82575542D01*
X173236000Y-82623161D01*
X173188380Y-82718400D01*
X173188380Y-82956495D01*
X173236000Y-83099352D01*
X174093142Y-84099352D02*
X174140761Y-84051733D01*
X174188380Y-83908876D01*
X174188380Y-83813638D01*
X174140761Y-83670780D01*
X174045523Y-83575542D01*
X173950285Y-83527923D01*
X173759809Y-83480304D01*
X173616952Y-83480304D01*
X173426476Y-83527923D01*
X173331238Y-83575542D01*
X173236000Y-83670780D01*
X173188380Y-83813638D01*
X173188380Y-83908876D01*
X173236000Y-84051733D01*
X173283619Y-84099352D01*
X174188380Y-85004114D02*
X174188380Y-84527923D01*
X173188380Y-84527923D01*
X176287061Y-82567614D02*
X176334680Y-82710471D01*
X176334680Y-82948566D01*
X176287061Y-83043804D01*
X176239442Y-83091423D01*
X176144204Y-83139042D01*
X176048966Y-83139042D01*
X175953728Y-83091423D01*
X175906109Y-83043804D01*
X175858490Y-82948566D01*
X175810871Y-82758090D01*
X175763252Y-82662852D01*
X175715633Y-82615233D01*
X175620395Y-82567614D01*
X175525157Y-82567614D01*
X175429919Y-82615233D01*
X175382300Y-82662852D01*
X175334680Y-82758090D01*
X175334680Y-82996185D01*
X175382300Y-83139042D01*
X176334680Y-83567614D02*
X175334680Y-83567614D01*
X175334680Y-83805709D01*
X175382300Y-83948566D01*
X175477538Y-84043804D01*
X175572776Y-84091423D01*
X175763252Y-84139042D01*
X175906109Y-84139042D01*
X176096585Y-84091423D01*
X176191823Y-84043804D01*
X176287061Y-83948566D01*
X176334680Y-83805709D01*
X176334680Y-83567614D01*
X176048966Y-84519995D02*
X176048966Y-84996185D01*
X176334680Y-84424757D02*
X175334680Y-84758090D01*
X176334680Y-85091423D01*
M02*
