M48
; DRILL file {KiCad (5.1.4)-1} date 12/26/2019 10:32:08 PM
; FORMAT={-:-/ absolute / inch / decimal}
; #@! TF.CreationDate,2019-12-26T22:32:08-05:00
; #@! TF.GenerationSoftware,Kicad,Pcbnew,(5.1.4)-1
; #@! TF.FileFunction,Plated,1,2,PTH
FMAT,2
INCH
T1C0.0130
T2C0.0394
T3C0.0866
%
G90
G05
T1
X5.1224Y-3.4776
X5.2158Y-3.1804
X5.2158Y-3.251
X5.2802Y-3.7104
X5.2852Y-3.0436
X5.2852Y-3.1078
X5.2936Y-3.4692
X5.2988Y-3.1748
X5.305Y-3.24
X5.317Y-3.0196
X5.3184Y-3.1324
X5.3206Y-3.652
X5.3516Y-3.019
X5.3524Y-3.1318
X5.3592Y-3.5356
X5.3796Y-3.4302
X5.3838Y-3.2616
X5.3996Y-3.5966
X5.4114Y-3.0436
X5.4114Y-3.1078
X5.4214Y-3.143
X5.4378Y-3.6464
X5.4488Y-3.4294
X5.5064Y-3.679
X5.5098Y-3.5434
X5.597Y-3.3706
X5.5984Y-3.0076
X5.5994Y-3.416
X5.6008Y-3.0448
X5.6048Y-3.5336
X5.6112Y-3.4808
X5.6116Y-3.6472
X5.6236Y-3.3362
X5.6238Y-3.4418
X5.6352Y-2.9868
X5.686Y-3.532
X5.6864Y-3.3368
X5.6864Y-3.4446
X5.6885Y-3.562
X5.6885Y-3.5895
X5.6885Y-3.622
X5.6885Y-3.6545
X5.6885Y-3.687
X5.691Y-3.722
X5.7106Y-3.4058
X5.711Y-3.3692
X5.7185Y-3.532
X5.7208Y-3.631
X5.722Y-3.726
X5.751Y-3.532
X5.752Y-3.726
X5.7548Y-3.631
X5.781Y-3.531
X5.782Y-3.727
X5.796Y-3.439
X5.796Y-3.469
X5.801Y-3.507
X5.803Y-3.407
X5.811Y-3.7195
X5.815Y-3.546
X5.822Y-3.583
X5.828Y-3.68
X5.832Y-3.394
X5.842Y-3.709
X5.851Y-3.583
X5.856Y-3.68
X5.865Y-3.74
X5.867Y-3.394
X5.884Y-3.68
X5.904Y-3.394
X5.912Y-3.68
X5.933Y-3.403
X5.94Y-3.68
X5.941Y-3.583
X5.946Y-3.428
X5.954Y-3.458
X5.959Y-3.488
X5.96Y-3.521
X5.965Y-3.735
X5.968Y-3.68
X5.97Y-3.583
X5.985Y-3.445
X5.9985Y-3.712
X6.02Y-3.44
X6.036Y-3.712
X6.0516Y-3.438
X6.079Y-3.455
X6.079Y-3.487
X6.079Y-3.519
X6.079Y-3.551
X6.079Y-3.583
X6.079Y-3.615
X6.079Y-3.647
X6.079Y-3.679
X6.079Y-3.711
X6.1Y-3.125
X6.1Y-3.2
X6.1Y-3.275
X6.1Y-3.35
X6.1Y-3.425
X6.11Y-3.5
X6.11Y-3.58
X6.11Y-3.65
X6.175Y-3.125
X6.175Y-3.2
X6.175Y-3.275
X6.175Y-3.35
X6.175Y-3.425
X6.175Y-3.5
X6.175Y-3.575
X6.175Y-3.65
X6.175Y-3.725
X6.25Y-3.125
X6.25Y-3.2
X6.25Y-3.275
X6.25Y-3.35
X6.25Y-3.425
X6.25Y-3.5
X6.25Y-3.575
X6.25Y-3.65
X6.25Y-3.725
X6.325Y-3.125
X6.325Y-3.2
X6.325Y-3.275
X6.325Y-3.35
X6.325Y-3.425
X6.325Y-3.5
X6.325Y-3.575
X6.325Y-3.65
X6.325Y-3.725
X6.4Y-3.125
X6.4Y-3.2
X6.4Y-3.275
X6.4Y-3.35
X6.4Y-3.425
X6.4Y-3.5
X6.4Y-3.575
X6.4Y-3.65
X6.4Y-3.725
X6.4594Y-3.443
X6.47Y-3.03
X6.49Y-3.72
X6.5184Y-3.444
X6.5283Y-3.0767
X6.5458Y-3.4128
X6.5488Y-3.3164
X6.5614Y-3.2844
X6.5648Y-3.0274
X6.5666Y-3.2154
X6.568Y-3.654
X6.5712Y-3.4362
X6.5904Y-3.2664
X6.6042Y-3.4258
X6.621Y-3.2478
X6.6412Y-3.2176
X6.6488Y-3.4012
X6.652Y-3.6535
X6.6624Y-3.0442
X6.666Y-3.1922
X6.6718Y-3.2356
X6.6798Y-3.3824
X6.7062Y-3.3182
X6.724Y-3.393
X6.7802Y-3.1668
X6.7876Y-3.333
X6.8106Y-3.4328
X6.8149Y-3.5347
X6.8578Y-3.2244
X6.8962Y-3.308
X6.9054Y-3.1094
X6.9092Y-3.224
X6.9138Y-3.521
X6.9192Y-3.4176
X6.9856Y-3.1806
X7.0056Y-3.3158
X7.0284Y-3.1862
X7.029Y-3.43
X7.0302Y-3.0878
X7.0306Y-3.5244
T2
X5.3145Y-3.783
X5.4145Y-3.783
X5.5145Y-3.783
X5.6145Y-3.783
X5.7145Y-3.783
X5.8145Y-3.783
X5.9145Y-3.783
X6.0145Y-3.783
X6.1145Y-3.783
X6.2145Y-3.783
X6.3145Y-3.783
X6.4145Y-3.783
X6.5145Y-3.783
X6.6145Y-3.783
X6.7145Y-3.783
X6.8145Y-3.783
X5.7145Y-2.983
X5.8145Y-2.983
X5.9145Y-2.983
X6.0145Y-2.983
X6.1145Y-2.983
X6.2145Y-2.983
X6.3145Y-2.983
X6.4145Y-2.983
X6.5145Y-2.983
X6.6145Y-2.983
X6.7145Y-2.983
X6.8145Y-2.983
T3
X5.1645Y-3.733
X5.1645Y-3.033
T0
M30
