G04 #@! TF.GenerationSoftware,KiCad,Pcbnew,(5.1.4)-1*
G04 #@! TF.CreationDate,2019-12-26T22:32:10-05:00*
G04 #@! TF.ProjectId,Feather-NEO-M9N-GPS,46656174-6865-4722-9d4e-454f2d4d394e,rev?*
G04 #@! TF.SameCoordinates,Original*
G04 #@! TF.FileFunction,Soldermask,Bot*
G04 #@! TF.FilePolarity,Negative*
%FSLAX46Y46*%
G04 Gerber Fmt 4.6, Leading zero omitted, Abs format (unit mm)*
G04 Created by KiCad (PCBNEW (5.1.4)-1) date 2019-12-26 22:32:10*
%MOMM*%
%LPD*%
G04 APERTURE LIST*
%ADD10C,0.100000*%
G04 APERTURE END LIST*
D10*
G36*
X167421560Y-78513940D02*
G01*
X167421560Y-79910940D01*
X167675560Y-79910940D01*
X167675560Y-78513940D01*
X167421560Y-78513940D01*
G37*
G36*
X142718743Y-95193719D02*
G01*
X142784927Y-95200237D01*
X142954766Y-95251757D01*
X143111291Y-95335422D01*
X143147029Y-95364752D01*
X143248486Y-95448014D01*
X143331748Y-95549471D01*
X143361078Y-95585209D01*
X143444743Y-95741734D01*
X143496263Y-95911573D01*
X143513659Y-96088200D01*
X143496263Y-96264827D01*
X143444743Y-96434666D01*
X143361078Y-96591191D01*
X143331748Y-96626929D01*
X143248486Y-96728386D01*
X143147029Y-96811648D01*
X143111291Y-96840978D01*
X142954766Y-96924643D01*
X142784927Y-96976163D01*
X142718743Y-96982681D01*
X142652560Y-96989200D01*
X142564040Y-96989200D01*
X142497857Y-96982681D01*
X142431673Y-96976163D01*
X142261834Y-96924643D01*
X142105309Y-96840978D01*
X142069571Y-96811648D01*
X141968114Y-96728386D01*
X141884852Y-96626929D01*
X141855522Y-96591191D01*
X141771857Y-96434666D01*
X141720337Y-96264827D01*
X141702941Y-96088200D01*
X141720337Y-95911573D01*
X141771857Y-95741734D01*
X141855522Y-95585209D01*
X141884852Y-95549471D01*
X141968114Y-95448014D01*
X142069571Y-95364752D01*
X142105309Y-95335422D01*
X142261834Y-95251757D01*
X142431673Y-95200237D01*
X142497857Y-95193719D01*
X142564040Y-95187200D01*
X142652560Y-95187200D01*
X142718743Y-95193719D01*
X142718743Y-95193719D01*
G37*
G36*
X152878743Y-95193719D02*
G01*
X152944927Y-95200237D01*
X153114766Y-95251757D01*
X153271291Y-95335422D01*
X153307029Y-95364752D01*
X153408486Y-95448014D01*
X153491748Y-95549471D01*
X153521078Y-95585209D01*
X153604743Y-95741734D01*
X153656263Y-95911573D01*
X153673659Y-96088200D01*
X153656263Y-96264827D01*
X153604743Y-96434666D01*
X153521078Y-96591191D01*
X153491748Y-96626929D01*
X153408486Y-96728386D01*
X153307029Y-96811648D01*
X153271291Y-96840978D01*
X153114766Y-96924643D01*
X152944927Y-96976163D01*
X152878743Y-96982681D01*
X152812560Y-96989200D01*
X152724040Y-96989200D01*
X152657857Y-96982681D01*
X152591673Y-96976163D01*
X152421834Y-96924643D01*
X152265309Y-96840978D01*
X152229571Y-96811648D01*
X152128114Y-96728386D01*
X152044852Y-96626929D01*
X152015522Y-96591191D01*
X151931857Y-96434666D01*
X151880337Y-96264827D01*
X151862941Y-96088200D01*
X151880337Y-95911573D01*
X151931857Y-95741734D01*
X152015522Y-95585209D01*
X152044852Y-95549471D01*
X152128114Y-95448014D01*
X152229571Y-95364752D01*
X152265309Y-95335422D01*
X152421834Y-95251757D01*
X152591673Y-95200237D01*
X152657857Y-95193719D01*
X152724040Y-95187200D01*
X152812560Y-95187200D01*
X152878743Y-95193719D01*
X152878743Y-95193719D01*
G37*
G36*
X135889300Y-96989200D02*
G01*
X134087300Y-96989200D01*
X134087300Y-95187200D01*
X135889300Y-95187200D01*
X135889300Y-96989200D01*
X135889300Y-96989200D01*
G37*
G36*
X137638743Y-95193719D02*
G01*
X137704927Y-95200237D01*
X137874766Y-95251757D01*
X138031291Y-95335422D01*
X138067029Y-95364752D01*
X138168486Y-95448014D01*
X138251748Y-95549471D01*
X138281078Y-95585209D01*
X138364743Y-95741734D01*
X138416263Y-95911573D01*
X138433659Y-96088200D01*
X138416263Y-96264827D01*
X138364743Y-96434666D01*
X138281078Y-96591191D01*
X138251748Y-96626929D01*
X138168486Y-96728386D01*
X138067029Y-96811648D01*
X138031291Y-96840978D01*
X137874766Y-96924643D01*
X137704927Y-96976163D01*
X137638743Y-96982681D01*
X137572560Y-96989200D01*
X137484040Y-96989200D01*
X137417857Y-96982681D01*
X137351673Y-96976163D01*
X137181834Y-96924643D01*
X137025309Y-96840978D01*
X136989571Y-96811648D01*
X136888114Y-96728386D01*
X136804852Y-96626929D01*
X136775522Y-96591191D01*
X136691857Y-96434666D01*
X136640337Y-96264827D01*
X136622941Y-96088200D01*
X136640337Y-95911573D01*
X136691857Y-95741734D01*
X136775522Y-95585209D01*
X136804852Y-95549471D01*
X136888114Y-95448014D01*
X136989571Y-95364752D01*
X137025309Y-95335422D01*
X137181834Y-95251757D01*
X137351673Y-95200237D01*
X137417857Y-95193719D01*
X137484040Y-95187200D01*
X137572560Y-95187200D01*
X137638743Y-95193719D01*
X137638743Y-95193719D01*
G37*
G36*
X140178743Y-95193719D02*
G01*
X140244927Y-95200237D01*
X140414766Y-95251757D01*
X140571291Y-95335422D01*
X140607029Y-95364752D01*
X140708486Y-95448014D01*
X140791748Y-95549471D01*
X140821078Y-95585209D01*
X140904743Y-95741734D01*
X140956263Y-95911573D01*
X140973659Y-96088200D01*
X140956263Y-96264827D01*
X140904743Y-96434666D01*
X140821078Y-96591191D01*
X140791748Y-96626929D01*
X140708486Y-96728386D01*
X140607029Y-96811648D01*
X140571291Y-96840978D01*
X140414766Y-96924643D01*
X140244927Y-96976163D01*
X140178743Y-96982681D01*
X140112560Y-96989200D01*
X140024040Y-96989200D01*
X139957857Y-96982681D01*
X139891673Y-96976163D01*
X139721834Y-96924643D01*
X139565309Y-96840978D01*
X139529571Y-96811648D01*
X139428114Y-96728386D01*
X139344852Y-96626929D01*
X139315522Y-96591191D01*
X139231857Y-96434666D01*
X139180337Y-96264827D01*
X139162941Y-96088200D01*
X139180337Y-95911573D01*
X139231857Y-95741734D01*
X139315522Y-95585209D01*
X139344852Y-95549471D01*
X139428114Y-95448014D01*
X139529571Y-95364752D01*
X139565309Y-95335422D01*
X139721834Y-95251757D01*
X139891673Y-95200237D01*
X139957857Y-95193719D01*
X140024040Y-95187200D01*
X140112560Y-95187200D01*
X140178743Y-95193719D01*
X140178743Y-95193719D01*
G37*
G36*
X145258743Y-95193719D02*
G01*
X145324927Y-95200237D01*
X145494766Y-95251757D01*
X145651291Y-95335422D01*
X145687029Y-95364752D01*
X145788486Y-95448014D01*
X145871748Y-95549471D01*
X145901078Y-95585209D01*
X145984743Y-95741734D01*
X146036263Y-95911573D01*
X146053659Y-96088200D01*
X146036263Y-96264827D01*
X145984743Y-96434666D01*
X145901078Y-96591191D01*
X145871748Y-96626929D01*
X145788486Y-96728386D01*
X145687029Y-96811648D01*
X145651291Y-96840978D01*
X145494766Y-96924643D01*
X145324927Y-96976163D01*
X145258743Y-96982681D01*
X145192560Y-96989200D01*
X145104040Y-96989200D01*
X145037857Y-96982681D01*
X144971673Y-96976163D01*
X144801834Y-96924643D01*
X144645309Y-96840978D01*
X144609571Y-96811648D01*
X144508114Y-96728386D01*
X144424852Y-96626929D01*
X144395522Y-96591191D01*
X144311857Y-96434666D01*
X144260337Y-96264827D01*
X144242941Y-96088200D01*
X144260337Y-95911573D01*
X144311857Y-95741734D01*
X144395522Y-95585209D01*
X144424852Y-95549471D01*
X144508114Y-95448014D01*
X144609571Y-95364752D01*
X144645309Y-95335422D01*
X144801834Y-95251757D01*
X144971673Y-95200237D01*
X145037857Y-95193719D01*
X145104040Y-95187200D01*
X145192560Y-95187200D01*
X145258743Y-95193719D01*
X145258743Y-95193719D01*
G37*
G36*
X147798743Y-95193719D02*
G01*
X147864927Y-95200237D01*
X148034766Y-95251757D01*
X148191291Y-95335422D01*
X148227029Y-95364752D01*
X148328486Y-95448014D01*
X148411748Y-95549471D01*
X148441078Y-95585209D01*
X148524743Y-95741734D01*
X148576263Y-95911573D01*
X148593659Y-96088200D01*
X148576263Y-96264827D01*
X148524743Y-96434666D01*
X148441078Y-96591191D01*
X148411748Y-96626929D01*
X148328486Y-96728386D01*
X148227029Y-96811648D01*
X148191291Y-96840978D01*
X148034766Y-96924643D01*
X147864927Y-96976163D01*
X147798743Y-96982681D01*
X147732560Y-96989200D01*
X147644040Y-96989200D01*
X147577857Y-96982681D01*
X147511673Y-96976163D01*
X147341834Y-96924643D01*
X147185309Y-96840978D01*
X147149571Y-96811648D01*
X147048114Y-96728386D01*
X146964852Y-96626929D01*
X146935522Y-96591191D01*
X146851857Y-96434666D01*
X146800337Y-96264827D01*
X146782941Y-96088200D01*
X146800337Y-95911573D01*
X146851857Y-95741734D01*
X146935522Y-95585209D01*
X146964852Y-95549471D01*
X147048114Y-95448014D01*
X147149571Y-95364752D01*
X147185309Y-95335422D01*
X147341834Y-95251757D01*
X147511673Y-95200237D01*
X147577857Y-95193719D01*
X147644040Y-95187200D01*
X147732560Y-95187200D01*
X147798743Y-95193719D01*
X147798743Y-95193719D01*
G37*
G36*
X150338743Y-95193719D02*
G01*
X150404927Y-95200237D01*
X150574766Y-95251757D01*
X150731291Y-95335422D01*
X150767029Y-95364752D01*
X150868486Y-95448014D01*
X150951748Y-95549471D01*
X150981078Y-95585209D01*
X151064743Y-95741734D01*
X151116263Y-95911573D01*
X151133659Y-96088200D01*
X151116263Y-96264827D01*
X151064743Y-96434666D01*
X150981078Y-96591191D01*
X150951748Y-96626929D01*
X150868486Y-96728386D01*
X150767029Y-96811648D01*
X150731291Y-96840978D01*
X150574766Y-96924643D01*
X150404927Y-96976163D01*
X150338743Y-96982681D01*
X150272560Y-96989200D01*
X150184040Y-96989200D01*
X150117857Y-96982681D01*
X150051673Y-96976163D01*
X149881834Y-96924643D01*
X149725309Y-96840978D01*
X149689571Y-96811648D01*
X149588114Y-96728386D01*
X149504852Y-96626929D01*
X149475522Y-96591191D01*
X149391857Y-96434666D01*
X149340337Y-96264827D01*
X149322941Y-96088200D01*
X149340337Y-95911573D01*
X149391857Y-95741734D01*
X149475522Y-95585209D01*
X149504852Y-95549471D01*
X149588114Y-95448014D01*
X149689571Y-95364752D01*
X149725309Y-95335422D01*
X149881834Y-95251757D01*
X150051673Y-95200237D01*
X150117857Y-95193719D01*
X150184040Y-95187200D01*
X150272560Y-95187200D01*
X150338743Y-95193719D01*
X150338743Y-95193719D01*
G37*
G36*
X155418743Y-95193719D02*
G01*
X155484927Y-95200237D01*
X155654766Y-95251757D01*
X155811291Y-95335422D01*
X155847029Y-95364752D01*
X155948486Y-95448014D01*
X156031748Y-95549471D01*
X156061078Y-95585209D01*
X156144743Y-95741734D01*
X156196263Y-95911573D01*
X156213659Y-96088200D01*
X156196263Y-96264827D01*
X156144743Y-96434666D01*
X156061078Y-96591191D01*
X156031748Y-96626929D01*
X155948486Y-96728386D01*
X155847029Y-96811648D01*
X155811291Y-96840978D01*
X155654766Y-96924643D01*
X155484927Y-96976163D01*
X155418743Y-96982681D01*
X155352560Y-96989200D01*
X155264040Y-96989200D01*
X155197857Y-96982681D01*
X155131673Y-96976163D01*
X154961834Y-96924643D01*
X154805309Y-96840978D01*
X154769571Y-96811648D01*
X154668114Y-96728386D01*
X154584852Y-96626929D01*
X154555522Y-96591191D01*
X154471857Y-96434666D01*
X154420337Y-96264827D01*
X154402941Y-96088200D01*
X154420337Y-95911573D01*
X154471857Y-95741734D01*
X154555522Y-95585209D01*
X154584852Y-95549471D01*
X154668114Y-95448014D01*
X154769571Y-95364752D01*
X154805309Y-95335422D01*
X154961834Y-95251757D01*
X155131673Y-95200237D01*
X155197857Y-95193719D01*
X155264040Y-95187200D01*
X155352560Y-95187200D01*
X155418743Y-95193719D01*
X155418743Y-95193719D01*
G37*
G36*
X157958743Y-95193719D02*
G01*
X158024927Y-95200237D01*
X158194766Y-95251757D01*
X158351291Y-95335422D01*
X158387029Y-95364752D01*
X158488486Y-95448014D01*
X158571748Y-95549471D01*
X158601078Y-95585209D01*
X158684743Y-95741734D01*
X158736263Y-95911573D01*
X158753659Y-96088200D01*
X158736263Y-96264827D01*
X158684743Y-96434666D01*
X158601078Y-96591191D01*
X158571748Y-96626929D01*
X158488486Y-96728386D01*
X158387029Y-96811648D01*
X158351291Y-96840978D01*
X158194766Y-96924643D01*
X158024927Y-96976163D01*
X157958743Y-96982681D01*
X157892560Y-96989200D01*
X157804040Y-96989200D01*
X157737857Y-96982681D01*
X157671673Y-96976163D01*
X157501834Y-96924643D01*
X157345309Y-96840978D01*
X157309571Y-96811648D01*
X157208114Y-96728386D01*
X157124852Y-96626929D01*
X157095522Y-96591191D01*
X157011857Y-96434666D01*
X156960337Y-96264827D01*
X156942941Y-96088200D01*
X156960337Y-95911573D01*
X157011857Y-95741734D01*
X157095522Y-95585209D01*
X157124852Y-95549471D01*
X157208114Y-95448014D01*
X157309571Y-95364752D01*
X157345309Y-95335422D01*
X157501834Y-95251757D01*
X157671673Y-95200237D01*
X157737857Y-95193719D01*
X157804040Y-95187200D01*
X157892560Y-95187200D01*
X157958743Y-95193719D01*
X157958743Y-95193719D01*
G37*
G36*
X160498743Y-95193719D02*
G01*
X160564927Y-95200237D01*
X160734766Y-95251757D01*
X160891291Y-95335422D01*
X160927029Y-95364752D01*
X161028486Y-95448014D01*
X161111748Y-95549471D01*
X161141078Y-95585209D01*
X161224743Y-95741734D01*
X161276263Y-95911573D01*
X161293659Y-96088200D01*
X161276263Y-96264827D01*
X161224743Y-96434666D01*
X161141078Y-96591191D01*
X161111748Y-96626929D01*
X161028486Y-96728386D01*
X160927029Y-96811648D01*
X160891291Y-96840978D01*
X160734766Y-96924643D01*
X160564927Y-96976163D01*
X160498743Y-96982681D01*
X160432560Y-96989200D01*
X160344040Y-96989200D01*
X160277857Y-96982681D01*
X160211673Y-96976163D01*
X160041834Y-96924643D01*
X159885309Y-96840978D01*
X159849571Y-96811648D01*
X159748114Y-96728386D01*
X159664852Y-96626929D01*
X159635522Y-96591191D01*
X159551857Y-96434666D01*
X159500337Y-96264827D01*
X159482941Y-96088200D01*
X159500337Y-95911573D01*
X159551857Y-95741734D01*
X159635522Y-95585209D01*
X159664852Y-95549471D01*
X159748114Y-95448014D01*
X159849571Y-95364752D01*
X159885309Y-95335422D01*
X160041834Y-95251757D01*
X160211673Y-95200237D01*
X160277857Y-95193719D01*
X160344040Y-95187200D01*
X160432560Y-95187200D01*
X160498743Y-95193719D01*
X160498743Y-95193719D01*
G37*
G36*
X163038743Y-95193719D02*
G01*
X163104927Y-95200237D01*
X163274766Y-95251757D01*
X163431291Y-95335422D01*
X163467029Y-95364752D01*
X163568486Y-95448014D01*
X163651748Y-95549471D01*
X163681078Y-95585209D01*
X163764743Y-95741734D01*
X163816263Y-95911573D01*
X163833659Y-96088200D01*
X163816263Y-96264827D01*
X163764743Y-96434666D01*
X163681078Y-96591191D01*
X163651748Y-96626929D01*
X163568486Y-96728386D01*
X163467029Y-96811648D01*
X163431291Y-96840978D01*
X163274766Y-96924643D01*
X163104927Y-96976163D01*
X163038743Y-96982681D01*
X162972560Y-96989200D01*
X162884040Y-96989200D01*
X162817857Y-96982681D01*
X162751673Y-96976163D01*
X162581834Y-96924643D01*
X162425309Y-96840978D01*
X162389571Y-96811648D01*
X162288114Y-96728386D01*
X162204852Y-96626929D01*
X162175522Y-96591191D01*
X162091857Y-96434666D01*
X162040337Y-96264827D01*
X162022941Y-96088200D01*
X162040337Y-95911573D01*
X162091857Y-95741734D01*
X162175522Y-95585209D01*
X162204852Y-95549471D01*
X162288114Y-95448014D01*
X162389571Y-95364752D01*
X162425309Y-95335422D01*
X162581834Y-95251757D01*
X162751673Y-95200237D01*
X162817857Y-95193719D01*
X162884040Y-95187200D01*
X162972560Y-95187200D01*
X163038743Y-95193719D01*
X163038743Y-95193719D01*
G37*
G36*
X165578743Y-95193719D02*
G01*
X165644927Y-95200237D01*
X165814766Y-95251757D01*
X165971291Y-95335422D01*
X166007029Y-95364752D01*
X166108486Y-95448014D01*
X166191748Y-95549471D01*
X166221078Y-95585209D01*
X166304743Y-95741734D01*
X166356263Y-95911573D01*
X166373659Y-96088200D01*
X166356263Y-96264827D01*
X166304743Y-96434666D01*
X166221078Y-96591191D01*
X166191748Y-96626929D01*
X166108486Y-96728386D01*
X166007029Y-96811648D01*
X165971291Y-96840978D01*
X165814766Y-96924643D01*
X165644927Y-96976163D01*
X165578743Y-96982681D01*
X165512560Y-96989200D01*
X165424040Y-96989200D01*
X165357857Y-96982681D01*
X165291673Y-96976163D01*
X165121834Y-96924643D01*
X164965309Y-96840978D01*
X164929571Y-96811648D01*
X164828114Y-96728386D01*
X164744852Y-96626929D01*
X164715522Y-96591191D01*
X164631857Y-96434666D01*
X164580337Y-96264827D01*
X164562941Y-96088200D01*
X164580337Y-95911573D01*
X164631857Y-95741734D01*
X164715522Y-95585209D01*
X164744852Y-95549471D01*
X164828114Y-95448014D01*
X164929571Y-95364752D01*
X164965309Y-95335422D01*
X165121834Y-95251757D01*
X165291673Y-95200237D01*
X165357857Y-95193719D01*
X165424040Y-95187200D01*
X165512560Y-95187200D01*
X165578743Y-95193719D01*
X165578743Y-95193719D01*
G37*
G36*
X168118743Y-95193719D02*
G01*
X168184927Y-95200237D01*
X168354766Y-95251757D01*
X168511291Y-95335422D01*
X168547029Y-95364752D01*
X168648486Y-95448014D01*
X168731748Y-95549471D01*
X168761078Y-95585209D01*
X168844743Y-95741734D01*
X168896263Y-95911573D01*
X168913659Y-96088200D01*
X168896263Y-96264827D01*
X168844743Y-96434666D01*
X168761078Y-96591191D01*
X168731748Y-96626929D01*
X168648486Y-96728386D01*
X168547029Y-96811648D01*
X168511291Y-96840978D01*
X168354766Y-96924643D01*
X168184927Y-96976163D01*
X168118743Y-96982681D01*
X168052560Y-96989200D01*
X167964040Y-96989200D01*
X167897857Y-96982681D01*
X167831673Y-96976163D01*
X167661834Y-96924643D01*
X167505309Y-96840978D01*
X167469571Y-96811648D01*
X167368114Y-96728386D01*
X167284852Y-96626929D01*
X167255522Y-96591191D01*
X167171857Y-96434666D01*
X167120337Y-96264827D01*
X167102941Y-96088200D01*
X167120337Y-95911573D01*
X167171857Y-95741734D01*
X167255522Y-95585209D01*
X167284852Y-95549471D01*
X167368114Y-95448014D01*
X167469571Y-95364752D01*
X167505309Y-95335422D01*
X167661834Y-95251757D01*
X167831673Y-95200237D01*
X167897857Y-95193719D01*
X167964040Y-95187200D01*
X168052560Y-95187200D01*
X168118743Y-95193719D01*
X168118743Y-95193719D01*
G37*
G36*
X170658743Y-95193719D02*
G01*
X170724927Y-95200237D01*
X170894766Y-95251757D01*
X171051291Y-95335422D01*
X171087029Y-95364752D01*
X171188486Y-95448014D01*
X171271748Y-95549471D01*
X171301078Y-95585209D01*
X171384743Y-95741734D01*
X171436263Y-95911573D01*
X171453659Y-96088200D01*
X171436263Y-96264827D01*
X171384743Y-96434666D01*
X171301078Y-96591191D01*
X171271748Y-96626929D01*
X171188486Y-96728386D01*
X171087029Y-96811648D01*
X171051291Y-96840978D01*
X170894766Y-96924643D01*
X170724927Y-96976163D01*
X170658743Y-96982681D01*
X170592560Y-96989200D01*
X170504040Y-96989200D01*
X170437857Y-96982681D01*
X170371673Y-96976163D01*
X170201834Y-96924643D01*
X170045309Y-96840978D01*
X170009571Y-96811648D01*
X169908114Y-96728386D01*
X169824852Y-96626929D01*
X169795522Y-96591191D01*
X169711857Y-96434666D01*
X169660337Y-96264827D01*
X169642941Y-96088200D01*
X169660337Y-95911573D01*
X169711857Y-95741734D01*
X169795522Y-95585209D01*
X169824852Y-95549471D01*
X169908114Y-95448014D01*
X170009571Y-95364752D01*
X170045309Y-95335422D01*
X170201834Y-95251757D01*
X170371673Y-95200237D01*
X170437857Y-95193719D01*
X170504040Y-95187200D01*
X170592560Y-95187200D01*
X170658743Y-95193719D01*
X170658743Y-95193719D01*
G37*
G36*
X173198743Y-95193719D02*
G01*
X173264927Y-95200237D01*
X173434766Y-95251757D01*
X173591291Y-95335422D01*
X173627029Y-95364752D01*
X173728486Y-95448014D01*
X173811748Y-95549471D01*
X173841078Y-95585209D01*
X173924743Y-95741734D01*
X173976263Y-95911573D01*
X173993659Y-96088200D01*
X173976263Y-96264827D01*
X173924743Y-96434666D01*
X173841078Y-96591191D01*
X173811748Y-96626929D01*
X173728486Y-96728386D01*
X173627029Y-96811648D01*
X173591291Y-96840978D01*
X173434766Y-96924643D01*
X173264927Y-96976163D01*
X173198743Y-96982681D01*
X173132560Y-96989200D01*
X173044040Y-96989200D01*
X172977857Y-96982681D01*
X172911673Y-96976163D01*
X172741834Y-96924643D01*
X172585309Y-96840978D01*
X172549571Y-96811648D01*
X172448114Y-96728386D01*
X172364852Y-96626929D01*
X172335522Y-96591191D01*
X172251857Y-96434666D01*
X172200337Y-96264827D01*
X172182941Y-96088200D01*
X172200337Y-95911573D01*
X172251857Y-95741734D01*
X172335522Y-95585209D01*
X172364852Y-95549471D01*
X172448114Y-95448014D01*
X172549571Y-95364752D01*
X172585309Y-95335422D01*
X172741834Y-95251757D01*
X172911673Y-95200237D01*
X172977857Y-95193719D01*
X173044040Y-95187200D01*
X173132560Y-95187200D01*
X173198743Y-95193719D01*
X173198743Y-95193719D01*
G37*
G36*
X131747385Y-92942175D02*
G01*
X132102443Y-93089245D01*
X132102445Y-93089246D01*
X132421990Y-93302759D01*
X132693741Y-93574510D01*
X132754384Y-93665269D01*
X132907255Y-93894057D01*
X133054325Y-94249115D01*
X133129300Y-94626042D01*
X133129300Y-95010358D01*
X133054325Y-95387285D01*
X132972342Y-95585209D01*
X132907254Y-95742345D01*
X132693741Y-96061890D01*
X132421990Y-96333641D01*
X132102445Y-96547154D01*
X132102444Y-96547155D01*
X132102443Y-96547155D01*
X131747385Y-96694225D01*
X131370458Y-96769200D01*
X130986142Y-96769200D01*
X130609215Y-96694225D01*
X130254157Y-96547155D01*
X130254156Y-96547155D01*
X130254155Y-96547154D01*
X129934610Y-96333641D01*
X129662859Y-96061890D01*
X129449346Y-95742345D01*
X129384258Y-95585209D01*
X129302275Y-95387285D01*
X129227300Y-95010358D01*
X129227300Y-94626042D01*
X129302275Y-94249115D01*
X129449345Y-93894057D01*
X129602216Y-93665269D01*
X129662859Y-93574510D01*
X129934610Y-93302759D01*
X130254155Y-93089246D01*
X130254157Y-93089245D01*
X130609215Y-92942175D01*
X130986142Y-92867200D01*
X131370458Y-92867200D01*
X131747385Y-92942175D01*
X131747385Y-92942175D01*
G37*
G36*
X177277787Y-93567196D02*
G01*
X177514553Y-93665268D01*
X177514555Y-93665269D01*
X177727639Y-93807647D01*
X177908853Y-93988861D01*
X178041345Y-94187149D01*
X178051232Y-94201947D01*
X178149304Y-94438713D01*
X178199300Y-94690061D01*
X178199300Y-94946339D01*
X178149304Y-95197687D01*
X178070769Y-95387286D01*
X178051231Y-95434455D01*
X177908853Y-95647539D01*
X177727639Y-95828753D01*
X177514555Y-95971131D01*
X177514554Y-95971132D01*
X177514553Y-95971132D01*
X177277787Y-96069204D01*
X177026439Y-96119200D01*
X176770161Y-96119200D01*
X176518813Y-96069204D01*
X176282047Y-95971132D01*
X176282046Y-95971132D01*
X176282045Y-95971131D01*
X176068961Y-95828753D01*
X175887747Y-95647539D01*
X175745369Y-95434455D01*
X175725831Y-95387286D01*
X175647296Y-95197687D01*
X175597300Y-94946339D01*
X175597300Y-94690061D01*
X175647296Y-94438713D01*
X175745368Y-94201947D01*
X175755256Y-94187149D01*
X175887747Y-93988861D01*
X176068961Y-93807647D01*
X176282045Y-93665269D01*
X176282047Y-93665268D01*
X176518813Y-93567196D01*
X176770161Y-93517200D01*
X177026439Y-93517200D01*
X177277787Y-93567196D01*
X177277787Y-93567196D01*
G37*
G36*
X169337299Y-92277034D02*
G01*
X169349550Y-92277636D01*
X169367969Y-92277636D01*
X169390249Y-92279830D01*
X169474333Y-92296556D01*
X169495760Y-92303056D01*
X169574958Y-92335860D01*
X169580403Y-92338771D01*
X169580409Y-92338773D01*
X169589269Y-92343509D01*
X169589273Y-92343512D01*
X169594714Y-92346420D01*
X169665999Y-92394051D01*
X169683304Y-92408252D01*
X169743928Y-92468876D01*
X169758129Y-92486181D01*
X169805760Y-92557466D01*
X169808668Y-92562907D01*
X169808671Y-92562911D01*
X169813407Y-92571771D01*
X169813409Y-92571777D01*
X169816320Y-92577222D01*
X169849124Y-92656420D01*
X169855624Y-92677847D01*
X169872350Y-92761931D01*
X169874544Y-92784211D01*
X169874544Y-92802630D01*
X169875146Y-92814881D01*
X169876952Y-92833219D01*
X169876952Y-93320940D01*
X169875363Y-93337079D01*
X169872448Y-93346688D01*
X169867710Y-93355552D01*
X169861337Y-93363317D01*
X169848894Y-93373528D01*
X169838525Y-93380458D01*
X169821198Y-93397785D01*
X169807585Y-93418160D01*
X169798209Y-93440800D01*
X169793429Y-93464833D01*
X169793430Y-93489337D01*
X169798212Y-93513370D01*
X169807590Y-93536009D01*
X169821205Y-93556382D01*
X169838532Y-93573709D01*
X169848902Y-93580638D01*
X169861337Y-93590843D01*
X169867710Y-93598608D01*
X169872448Y-93607472D01*
X169875363Y-93617081D01*
X169876952Y-93633220D01*
X169876952Y-94120942D01*
X169875146Y-94139279D01*
X169874544Y-94151530D01*
X169874544Y-94169949D01*
X169872350Y-94192229D01*
X169855624Y-94276313D01*
X169849124Y-94297740D01*
X169816320Y-94376938D01*
X169813409Y-94382383D01*
X169813407Y-94382389D01*
X169808671Y-94391249D01*
X169808668Y-94391253D01*
X169805760Y-94396694D01*
X169758129Y-94467979D01*
X169743928Y-94485284D01*
X169683304Y-94545908D01*
X169665999Y-94560109D01*
X169594714Y-94607740D01*
X169589273Y-94610648D01*
X169589269Y-94610651D01*
X169580409Y-94615387D01*
X169580403Y-94615389D01*
X169574958Y-94618300D01*
X169495760Y-94651104D01*
X169474333Y-94657604D01*
X169390249Y-94674330D01*
X169367969Y-94676524D01*
X169349550Y-94676524D01*
X169337299Y-94677126D01*
X169318962Y-94678932D01*
X168831238Y-94678932D01*
X168812901Y-94677126D01*
X168800650Y-94676524D01*
X168782231Y-94676524D01*
X168759951Y-94674330D01*
X168675867Y-94657604D01*
X168654440Y-94651104D01*
X168575242Y-94618300D01*
X168569797Y-94615389D01*
X168569791Y-94615387D01*
X168560931Y-94610651D01*
X168560927Y-94610648D01*
X168555486Y-94607740D01*
X168484201Y-94560109D01*
X168466896Y-94545908D01*
X168406272Y-94485284D01*
X168392071Y-94467979D01*
X168344440Y-94396694D01*
X168341532Y-94391253D01*
X168341529Y-94391249D01*
X168336793Y-94382389D01*
X168336791Y-94382383D01*
X168333880Y-94376938D01*
X168301076Y-94297740D01*
X168294576Y-94276313D01*
X168277850Y-94192229D01*
X168275656Y-94169949D01*
X168275656Y-94151530D01*
X168275054Y-94139279D01*
X168273248Y-94120942D01*
X168273248Y-93633220D01*
X168274837Y-93617081D01*
X168277752Y-93607472D01*
X168282490Y-93598608D01*
X168288863Y-93590843D01*
X168301306Y-93580632D01*
X168311675Y-93573702D01*
X168329002Y-93556375D01*
X168342615Y-93536000D01*
X168351991Y-93513360D01*
X168356771Y-93489327D01*
X168356770Y-93464823D01*
X168351988Y-93440790D01*
X168342610Y-93418151D01*
X168328995Y-93397778D01*
X168311668Y-93380451D01*
X168301298Y-93373522D01*
X168288863Y-93363317D01*
X168282490Y-93355552D01*
X168277752Y-93346688D01*
X168274837Y-93337079D01*
X168273248Y-93320940D01*
X168273248Y-92833219D01*
X168275054Y-92814881D01*
X168275656Y-92802630D01*
X168275656Y-92784211D01*
X168277850Y-92761931D01*
X168294576Y-92677847D01*
X168301076Y-92656420D01*
X168333880Y-92577222D01*
X168336791Y-92571777D01*
X168336793Y-92571771D01*
X168341529Y-92562911D01*
X168341532Y-92562907D01*
X168344440Y-92557466D01*
X168392071Y-92486181D01*
X168406272Y-92468876D01*
X168466896Y-92408252D01*
X168484201Y-92394051D01*
X168555486Y-92346420D01*
X168560927Y-92343512D01*
X168560931Y-92343509D01*
X168569791Y-92338773D01*
X168569797Y-92338771D01*
X168575242Y-92335860D01*
X168654440Y-92303056D01*
X168675867Y-92296556D01*
X168759951Y-92279830D01*
X168782231Y-92277636D01*
X168800650Y-92277636D01*
X168812901Y-92277034D01*
X168831239Y-92275228D01*
X169318961Y-92275228D01*
X169337299Y-92277034D01*
X169337299Y-92277034D01*
G37*
G36*
X167117339Y-92271954D02*
G01*
X167129590Y-92272556D01*
X167148009Y-92272556D01*
X167170289Y-92274750D01*
X167254373Y-92291476D01*
X167275800Y-92297976D01*
X167354998Y-92330780D01*
X167360443Y-92333691D01*
X167360449Y-92333693D01*
X167369309Y-92338429D01*
X167369313Y-92338432D01*
X167374754Y-92341340D01*
X167446039Y-92388971D01*
X167463344Y-92403172D01*
X167523968Y-92463796D01*
X167538169Y-92481101D01*
X167585800Y-92552386D01*
X167588708Y-92557827D01*
X167588711Y-92557831D01*
X167593447Y-92566691D01*
X167593449Y-92566697D01*
X167596360Y-92572142D01*
X167629164Y-92651340D01*
X167635664Y-92672767D01*
X167652390Y-92756851D01*
X167654584Y-92779131D01*
X167654584Y-92797550D01*
X167655186Y-92809801D01*
X167656992Y-92828139D01*
X167656992Y-93315860D01*
X167655403Y-93331999D01*
X167652488Y-93341608D01*
X167647750Y-93350472D01*
X167641377Y-93358237D01*
X167628934Y-93368448D01*
X167618565Y-93375378D01*
X167601238Y-93392705D01*
X167587625Y-93413080D01*
X167578249Y-93435720D01*
X167573469Y-93459753D01*
X167573470Y-93484257D01*
X167578252Y-93508290D01*
X167587630Y-93530929D01*
X167601245Y-93551302D01*
X167618572Y-93568629D01*
X167628942Y-93575558D01*
X167641377Y-93585763D01*
X167647750Y-93593528D01*
X167652488Y-93602392D01*
X167655403Y-93612001D01*
X167656992Y-93628140D01*
X167656992Y-94115862D01*
X167655186Y-94134199D01*
X167654584Y-94146450D01*
X167654584Y-94164869D01*
X167652390Y-94187149D01*
X167635664Y-94271233D01*
X167629164Y-94292660D01*
X167596360Y-94371858D01*
X167593449Y-94377303D01*
X167593447Y-94377309D01*
X167588711Y-94386169D01*
X167588708Y-94386173D01*
X167585800Y-94391614D01*
X167538169Y-94462899D01*
X167523968Y-94480204D01*
X167463344Y-94540828D01*
X167446039Y-94555029D01*
X167374754Y-94602660D01*
X167369313Y-94605568D01*
X167369309Y-94605571D01*
X167360449Y-94610307D01*
X167360443Y-94610309D01*
X167354998Y-94613220D01*
X167275800Y-94646024D01*
X167254373Y-94652524D01*
X167170289Y-94669250D01*
X167148009Y-94671444D01*
X167129590Y-94671444D01*
X167117339Y-94672046D01*
X167099002Y-94673852D01*
X166611278Y-94673852D01*
X166592941Y-94672046D01*
X166580690Y-94671444D01*
X166562271Y-94671444D01*
X166539991Y-94669250D01*
X166455907Y-94652524D01*
X166434480Y-94646024D01*
X166355282Y-94613220D01*
X166349837Y-94610309D01*
X166349831Y-94610307D01*
X166340971Y-94605571D01*
X166340967Y-94605568D01*
X166335526Y-94602660D01*
X166264241Y-94555029D01*
X166246936Y-94540828D01*
X166186312Y-94480204D01*
X166172111Y-94462899D01*
X166124480Y-94391614D01*
X166121572Y-94386173D01*
X166121569Y-94386169D01*
X166116833Y-94377309D01*
X166116831Y-94377303D01*
X166113920Y-94371858D01*
X166081116Y-94292660D01*
X166074616Y-94271233D01*
X166057890Y-94187149D01*
X166055696Y-94164869D01*
X166055696Y-94146450D01*
X166055094Y-94134199D01*
X166053288Y-94115862D01*
X166053288Y-93628140D01*
X166054877Y-93612001D01*
X166057792Y-93602392D01*
X166062530Y-93593528D01*
X166068903Y-93585763D01*
X166081346Y-93575552D01*
X166091715Y-93568622D01*
X166109042Y-93551295D01*
X166122655Y-93530920D01*
X166132031Y-93508280D01*
X166136811Y-93484247D01*
X166136810Y-93459743D01*
X166132028Y-93435710D01*
X166122650Y-93413071D01*
X166109035Y-93392698D01*
X166091708Y-93375371D01*
X166081338Y-93368442D01*
X166068903Y-93358237D01*
X166062530Y-93350472D01*
X166057792Y-93341608D01*
X166054877Y-93331999D01*
X166053288Y-93315860D01*
X166053288Y-92828139D01*
X166055094Y-92809801D01*
X166055696Y-92797550D01*
X166055696Y-92779131D01*
X166057890Y-92756851D01*
X166074616Y-92672767D01*
X166081116Y-92651340D01*
X166113920Y-92572142D01*
X166116831Y-92566697D01*
X166116833Y-92566691D01*
X166121569Y-92557831D01*
X166121572Y-92557827D01*
X166124480Y-92552386D01*
X166172111Y-92481101D01*
X166186312Y-92463796D01*
X166246936Y-92403172D01*
X166264241Y-92388971D01*
X166335526Y-92341340D01*
X166340967Y-92338432D01*
X166340971Y-92338429D01*
X166349831Y-92333693D01*
X166349837Y-92333691D01*
X166355282Y-92330780D01*
X166434480Y-92297976D01*
X166455907Y-92291476D01*
X166539991Y-92274750D01*
X166562271Y-92272556D01*
X166580690Y-92272556D01*
X166592941Y-92271954D01*
X166611279Y-92270148D01*
X167099001Y-92270148D01*
X167117339Y-92271954D01*
X167117339Y-92271954D01*
G37*
G36*
X174008359Y-79622754D02*
G01*
X174020610Y-79623356D01*
X174039029Y-79623356D01*
X174061309Y-79625550D01*
X174145393Y-79642276D01*
X174166820Y-79648776D01*
X174246018Y-79681580D01*
X174251463Y-79684491D01*
X174251469Y-79684493D01*
X174260329Y-79689229D01*
X174260333Y-79689232D01*
X174265774Y-79692140D01*
X174337059Y-79739771D01*
X174354364Y-79753972D01*
X174414988Y-79814596D01*
X174429189Y-79831901D01*
X174476820Y-79903186D01*
X174479728Y-79908627D01*
X174479731Y-79908631D01*
X174484467Y-79917491D01*
X174484469Y-79917497D01*
X174487380Y-79922942D01*
X174520184Y-80002140D01*
X174526684Y-80023567D01*
X174543410Y-80107651D01*
X174545604Y-80129931D01*
X174545604Y-80148350D01*
X174546206Y-80160601D01*
X174548012Y-80178939D01*
X174548012Y-80666660D01*
X174546423Y-80682799D01*
X174543508Y-80692408D01*
X174538770Y-80701272D01*
X174532397Y-80709037D01*
X174519954Y-80719248D01*
X174509585Y-80726178D01*
X174492258Y-80743505D01*
X174478645Y-80763880D01*
X174469269Y-80786520D01*
X174464489Y-80810553D01*
X174464490Y-80835057D01*
X174469272Y-80859090D01*
X174478650Y-80881729D01*
X174492265Y-80902102D01*
X174509592Y-80919429D01*
X174519962Y-80926358D01*
X174532397Y-80936563D01*
X174538770Y-80944328D01*
X174543508Y-80953192D01*
X174546423Y-80962801D01*
X174548012Y-80978940D01*
X174548012Y-81466662D01*
X174546206Y-81484999D01*
X174545604Y-81497250D01*
X174545604Y-81515669D01*
X174543410Y-81537949D01*
X174526684Y-81622033D01*
X174520184Y-81643460D01*
X174487380Y-81722658D01*
X174484469Y-81728103D01*
X174484467Y-81728109D01*
X174479731Y-81736969D01*
X174479728Y-81736973D01*
X174476820Y-81742414D01*
X174429189Y-81813699D01*
X174414988Y-81831004D01*
X174354364Y-81891628D01*
X174337059Y-81905829D01*
X174265774Y-81953460D01*
X174260333Y-81956368D01*
X174260329Y-81956371D01*
X174251469Y-81961107D01*
X174251463Y-81961109D01*
X174246018Y-81964020D01*
X174166820Y-81996824D01*
X174145393Y-82003324D01*
X174061309Y-82020050D01*
X174039029Y-82022244D01*
X174020610Y-82022244D01*
X174008359Y-82022846D01*
X173990022Y-82024652D01*
X173502298Y-82024652D01*
X173483961Y-82022846D01*
X173471710Y-82022244D01*
X173453291Y-82022244D01*
X173431011Y-82020050D01*
X173346927Y-82003324D01*
X173325500Y-81996824D01*
X173246302Y-81964020D01*
X173240857Y-81961109D01*
X173240851Y-81961107D01*
X173231991Y-81956371D01*
X173231987Y-81956368D01*
X173226546Y-81953460D01*
X173155261Y-81905829D01*
X173137956Y-81891628D01*
X173077332Y-81831004D01*
X173063131Y-81813699D01*
X173015500Y-81742414D01*
X173012592Y-81736973D01*
X173012589Y-81736969D01*
X173007853Y-81728109D01*
X173007851Y-81728103D01*
X173004940Y-81722658D01*
X172972136Y-81643460D01*
X172965636Y-81622033D01*
X172948910Y-81537949D01*
X172946716Y-81515669D01*
X172946716Y-81497250D01*
X172946114Y-81484999D01*
X172944308Y-81466662D01*
X172944308Y-80978940D01*
X172945897Y-80962801D01*
X172948812Y-80953192D01*
X172953550Y-80944328D01*
X172959923Y-80936563D01*
X172972366Y-80926352D01*
X172982735Y-80919422D01*
X173000062Y-80902095D01*
X173013675Y-80881720D01*
X173023051Y-80859080D01*
X173027831Y-80835047D01*
X173027830Y-80810543D01*
X173023048Y-80786510D01*
X173013670Y-80763871D01*
X173000055Y-80743498D01*
X172982728Y-80726171D01*
X172972358Y-80719242D01*
X172959923Y-80709037D01*
X172953550Y-80701272D01*
X172948812Y-80692408D01*
X172945897Y-80682799D01*
X172944308Y-80666660D01*
X172944308Y-80178939D01*
X172946114Y-80160601D01*
X172946716Y-80148350D01*
X172946716Y-80129931D01*
X172948910Y-80107651D01*
X172965636Y-80023567D01*
X172972136Y-80002140D01*
X173004940Y-79922942D01*
X173007851Y-79917497D01*
X173007853Y-79917491D01*
X173012589Y-79908631D01*
X173012592Y-79908627D01*
X173015500Y-79903186D01*
X173063131Y-79831901D01*
X173077332Y-79814596D01*
X173137956Y-79753972D01*
X173155261Y-79739771D01*
X173226546Y-79692140D01*
X173231987Y-79689232D01*
X173231991Y-79689229D01*
X173240851Y-79684493D01*
X173240857Y-79684491D01*
X173246302Y-79681580D01*
X173325500Y-79648776D01*
X173346927Y-79642276D01*
X173431011Y-79625550D01*
X173453291Y-79623356D01*
X173471710Y-79623356D01*
X173483961Y-79622754D01*
X173502299Y-79620948D01*
X173990021Y-79620948D01*
X174008359Y-79622754D01*
X174008359Y-79622754D01*
G37*
G36*
X176157199Y-79622754D02*
G01*
X176169450Y-79623356D01*
X176187869Y-79623356D01*
X176210149Y-79625550D01*
X176294233Y-79642276D01*
X176315660Y-79648776D01*
X176394858Y-79681580D01*
X176400303Y-79684491D01*
X176400309Y-79684493D01*
X176409169Y-79689229D01*
X176409173Y-79689232D01*
X176414614Y-79692140D01*
X176485899Y-79739771D01*
X176503204Y-79753972D01*
X176563828Y-79814596D01*
X176578029Y-79831901D01*
X176625660Y-79903186D01*
X176628568Y-79908627D01*
X176628571Y-79908631D01*
X176633307Y-79917491D01*
X176633309Y-79917497D01*
X176636220Y-79922942D01*
X176669024Y-80002140D01*
X176675524Y-80023567D01*
X176692250Y-80107651D01*
X176694444Y-80129931D01*
X176694444Y-80148350D01*
X176695046Y-80160601D01*
X176696852Y-80178939D01*
X176696852Y-80666660D01*
X176695263Y-80682799D01*
X176692348Y-80692408D01*
X176687610Y-80701272D01*
X176681237Y-80709037D01*
X176668794Y-80719248D01*
X176658425Y-80726178D01*
X176641098Y-80743505D01*
X176627485Y-80763880D01*
X176618109Y-80786520D01*
X176613329Y-80810553D01*
X176613330Y-80835057D01*
X176618112Y-80859090D01*
X176627490Y-80881729D01*
X176641105Y-80902102D01*
X176658432Y-80919429D01*
X176668802Y-80926358D01*
X176681237Y-80936563D01*
X176687610Y-80944328D01*
X176692348Y-80953192D01*
X176695263Y-80962801D01*
X176696852Y-80978940D01*
X176696852Y-81466662D01*
X176695046Y-81484999D01*
X176694444Y-81497250D01*
X176694444Y-81515669D01*
X176692250Y-81537949D01*
X176675524Y-81622033D01*
X176669024Y-81643460D01*
X176636220Y-81722658D01*
X176633309Y-81728103D01*
X176633307Y-81728109D01*
X176628571Y-81736969D01*
X176628568Y-81736973D01*
X176625660Y-81742414D01*
X176578029Y-81813699D01*
X176563828Y-81831004D01*
X176503204Y-81891628D01*
X176485899Y-81905829D01*
X176414614Y-81953460D01*
X176409173Y-81956368D01*
X176409169Y-81956371D01*
X176400309Y-81961107D01*
X176400303Y-81961109D01*
X176394858Y-81964020D01*
X176315660Y-81996824D01*
X176294233Y-82003324D01*
X176210149Y-82020050D01*
X176187869Y-82022244D01*
X176169450Y-82022244D01*
X176157199Y-82022846D01*
X176138862Y-82024652D01*
X175651138Y-82024652D01*
X175632801Y-82022846D01*
X175620550Y-82022244D01*
X175602131Y-82022244D01*
X175579851Y-82020050D01*
X175495767Y-82003324D01*
X175474340Y-81996824D01*
X175395142Y-81964020D01*
X175389697Y-81961109D01*
X175389691Y-81961107D01*
X175380831Y-81956371D01*
X175380827Y-81956368D01*
X175375386Y-81953460D01*
X175304101Y-81905829D01*
X175286796Y-81891628D01*
X175226172Y-81831004D01*
X175211971Y-81813699D01*
X175164340Y-81742414D01*
X175161432Y-81736973D01*
X175161429Y-81736969D01*
X175156693Y-81728109D01*
X175156691Y-81728103D01*
X175153780Y-81722658D01*
X175120976Y-81643460D01*
X175114476Y-81622033D01*
X175097750Y-81537949D01*
X175095556Y-81515669D01*
X175095556Y-81497250D01*
X175094954Y-81484999D01*
X175093148Y-81466662D01*
X175093148Y-80978940D01*
X175094737Y-80962801D01*
X175097652Y-80953192D01*
X175102390Y-80944328D01*
X175108763Y-80936563D01*
X175121206Y-80926352D01*
X175131575Y-80919422D01*
X175148902Y-80902095D01*
X175162515Y-80881720D01*
X175171891Y-80859080D01*
X175176671Y-80835047D01*
X175176670Y-80810543D01*
X175171888Y-80786510D01*
X175162510Y-80763871D01*
X175148895Y-80743498D01*
X175131568Y-80726171D01*
X175121198Y-80719242D01*
X175108763Y-80709037D01*
X175102390Y-80701272D01*
X175097652Y-80692408D01*
X175094737Y-80682799D01*
X175093148Y-80666660D01*
X175093148Y-80178939D01*
X175094954Y-80160601D01*
X175095556Y-80148350D01*
X175095556Y-80129931D01*
X175097750Y-80107651D01*
X175114476Y-80023567D01*
X175120976Y-80002140D01*
X175153780Y-79922942D01*
X175156691Y-79917497D01*
X175156693Y-79917491D01*
X175161429Y-79908631D01*
X175161432Y-79908627D01*
X175164340Y-79903186D01*
X175211971Y-79831901D01*
X175226172Y-79814596D01*
X175286796Y-79753972D01*
X175304101Y-79739771D01*
X175375386Y-79692140D01*
X175380827Y-79689232D01*
X175380831Y-79689229D01*
X175389691Y-79684493D01*
X175389697Y-79684491D01*
X175395142Y-79681580D01*
X175474340Y-79648776D01*
X175495767Y-79642276D01*
X175579851Y-79625550D01*
X175602131Y-79623356D01*
X175620550Y-79623356D01*
X175632801Y-79622754D01*
X175651139Y-79620948D01*
X176138861Y-79620948D01*
X176157199Y-79622754D01*
X176157199Y-79622754D01*
G37*
G36*
X138914839Y-79631377D02*
G01*
X138924448Y-79634292D01*
X138933312Y-79639030D01*
X138941077Y-79645403D01*
X138951288Y-79657846D01*
X138958218Y-79668215D01*
X138975545Y-79685542D01*
X138995920Y-79699155D01*
X139018560Y-79708531D01*
X139042593Y-79713311D01*
X139067097Y-79713310D01*
X139091130Y-79708528D01*
X139113769Y-79699150D01*
X139134142Y-79685535D01*
X139151469Y-79668208D01*
X139158398Y-79657838D01*
X139168603Y-79645403D01*
X139176368Y-79639030D01*
X139185232Y-79634292D01*
X139194841Y-79631377D01*
X139210980Y-79629788D01*
X139698701Y-79629788D01*
X139717039Y-79631594D01*
X139729290Y-79632196D01*
X139747709Y-79632196D01*
X139769989Y-79634390D01*
X139854073Y-79651116D01*
X139875500Y-79657616D01*
X139954698Y-79690420D01*
X139960143Y-79693331D01*
X139960149Y-79693333D01*
X139969009Y-79698069D01*
X139969013Y-79698072D01*
X139974454Y-79700980D01*
X140045739Y-79748611D01*
X140063044Y-79762812D01*
X140123668Y-79823436D01*
X140137869Y-79840741D01*
X140185500Y-79912026D01*
X140188408Y-79917467D01*
X140188411Y-79917471D01*
X140193147Y-79926331D01*
X140193149Y-79926337D01*
X140196060Y-79931782D01*
X140228864Y-80010980D01*
X140235364Y-80032407D01*
X140252090Y-80116491D01*
X140254284Y-80138771D01*
X140254284Y-80157190D01*
X140254886Y-80169441D01*
X140256692Y-80187779D01*
X140256692Y-80675502D01*
X140254886Y-80693839D01*
X140254284Y-80706090D01*
X140254284Y-80724509D01*
X140252090Y-80746789D01*
X140235364Y-80830873D01*
X140228864Y-80852300D01*
X140196060Y-80931498D01*
X140193149Y-80936943D01*
X140193147Y-80936949D01*
X140188411Y-80945809D01*
X140188408Y-80945813D01*
X140185500Y-80951254D01*
X140137869Y-81022539D01*
X140123668Y-81039844D01*
X140063044Y-81100468D01*
X140045739Y-81114669D01*
X139974454Y-81162300D01*
X139969013Y-81165208D01*
X139969009Y-81165211D01*
X139960149Y-81169947D01*
X139960143Y-81169949D01*
X139954698Y-81172860D01*
X139875500Y-81205664D01*
X139854073Y-81212164D01*
X139769989Y-81228890D01*
X139747709Y-81231084D01*
X139729290Y-81231084D01*
X139717039Y-81231686D01*
X139698702Y-81233492D01*
X139210980Y-81233492D01*
X139194841Y-81231903D01*
X139185232Y-81228988D01*
X139176368Y-81224250D01*
X139168603Y-81217877D01*
X139158392Y-81205434D01*
X139151462Y-81195065D01*
X139134135Y-81177738D01*
X139113760Y-81164125D01*
X139091120Y-81154749D01*
X139067087Y-81149969D01*
X139042583Y-81149970D01*
X139018550Y-81154752D01*
X138995911Y-81164130D01*
X138975538Y-81177745D01*
X138958211Y-81195072D01*
X138951282Y-81205442D01*
X138941077Y-81217877D01*
X138933312Y-81224250D01*
X138924448Y-81228988D01*
X138914839Y-81231903D01*
X138898700Y-81233492D01*
X138410978Y-81233492D01*
X138392641Y-81231686D01*
X138380390Y-81231084D01*
X138361971Y-81231084D01*
X138339691Y-81228890D01*
X138255607Y-81212164D01*
X138234180Y-81205664D01*
X138154982Y-81172860D01*
X138149537Y-81169949D01*
X138149531Y-81169947D01*
X138140671Y-81165211D01*
X138140667Y-81165208D01*
X138135226Y-81162300D01*
X138063941Y-81114669D01*
X138046636Y-81100468D01*
X137986012Y-81039844D01*
X137971811Y-81022539D01*
X137924180Y-80951254D01*
X137921272Y-80945813D01*
X137921269Y-80945809D01*
X137916533Y-80936949D01*
X137916531Y-80936943D01*
X137913620Y-80931498D01*
X137880816Y-80852300D01*
X137874316Y-80830873D01*
X137857590Y-80746789D01*
X137855396Y-80724509D01*
X137855396Y-80706090D01*
X137854794Y-80693839D01*
X137852988Y-80675502D01*
X137852988Y-80187779D01*
X137854794Y-80169441D01*
X137855396Y-80157190D01*
X137855396Y-80138771D01*
X137857590Y-80116491D01*
X137874316Y-80032407D01*
X137880816Y-80010980D01*
X137913620Y-79931782D01*
X137916531Y-79926337D01*
X137916533Y-79926331D01*
X137921269Y-79917471D01*
X137921272Y-79917467D01*
X137924180Y-79912026D01*
X137971811Y-79840741D01*
X137986012Y-79823436D01*
X138046636Y-79762812D01*
X138063941Y-79748611D01*
X138135226Y-79700980D01*
X138140667Y-79698072D01*
X138140671Y-79698069D01*
X138149531Y-79693333D01*
X138149537Y-79693331D01*
X138154982Y-79690420D01*
X138234180Y-79657616D01*
X138255607Y-79651116D01*
X138339691Y-79634390D01*
X138361971Y-79632196D01*
X138380390Y-79632196D01*
X138392641Y-79631594D01*
X138410979Y-79629788D01*
X138898700Y-79629788D01*
X138914839Y-79631377D01*
X138914839Y-79631377D01*
G37*
G36*
X168285160Y-80647540D02*
G01*
X166811960Y-80647540D01*
X166811960Y-77777340D01*
X168285160Y-77777340D01*
X168285160Y-80647540D01*
X168285160Y-80647540D01*
G37*
G36*
X131747385Y-75162175D02*
G01*
X132037276Y-75282252D01*
X132102445Y-75309246D01*
X132421990Y-75522759D01*
X132693741Y-75794510D01*
X132849518Y-76027647D01*
X132907255Y-76114057D01*
X133054325Y-76469115D01*
X133129300Y-76846042D01*
X133129300Y-77230358D01*
X133054325Y-77607285D01*
X132955117Y-77846793D01*
X132907254Y-77962345D01*
X132693741Y-78281890D01*
X132421990Y-78553641D01*
X132102445Y-78767154D01*
X132102444Y-78767155D01*
X132102443Y-78767155D01*
X131747385Y-78914225D01*
X131370458Y-78989200D01*
X130986142Y-78989200D01*
X130609215Y-78914225D01*
X130254157Y-78767155D01*
X130254156Y-78767155D01*
X130254155Y-78767154D01*
X129934610Y-78553641D01*
X129662859Y-78281890D01*
X129449346Y-77962345D01*
X129401483Y-77846793D01*
X129302275Y-77607285D01*
X129227300Y-77230358D01*
X129227300Y-76846042D01*
X129302275Y-76469115D01*
X129449345Y-76114057D01*
X129507082Y-76027647D01*
X129662859Y-75794510D01*
X129934610Y-75522759D01*
X130254155Y-75309246D01*
X130319324Y-75282252D01*
X130609215Y-75162175D01*
X130986142Y-75087200D01*
X131370458Y-75087200D01*
X131747385Y-75162175D01*
X131747385Y-75162175D01*
G37*
G36*
X138914839Y-77355537D02*
G01*
X138924448Y-77358452D01*
X138933312Y-77363190D01*
X138941077Y-77369563D01*
X138951288Y-77382006D01*
X138958218Y-77392375D01*
X138975545Y-77409702D01*
X138995920Y-77423315D01*
X139018560Y-77432691D01*
X139042593Y-77437471D01*
X139067097Y-77437470D01*
X139091130Y-77432688D01*
X139113769Y-77423310D01*
X139134142Y-77409695D01*
X139151469Y-77392368D01*
X139158398Y-77381998D01*
X139168603Y-77369563D01*
X139176368Y-77363190D01*
X139185232Y-77358452D01*
X139194841Y-77355537D01*
X139210980Y-77353948D01*
X139698701Y-77353948D01*
X139717039Y-77355754D01*
X139729290Y-77356356D01*
X139747709Y-77356356D01*
X139769989Y-77358550D01*
X139854073Y-77375276D01*
X139875500Y-77381776D01*
X139954698Y-77414580D01*
X139960143Y-77417491D01*
X139960149Y-77417493D01*
X139969009Y-77422229D01*
X139969013Y-77422232D01*
X139974454Y-77425140D01*
X140045739Y-77472771D01*
X140063044Y-77486972D01*
X140123668Y-77547596D01*
X140137869Y-77564901D01*
X140185500Y-77636186D01*
X140188408Y-77641627D01*
X140188411Y-77641631D01*
X140193147Y-77650491D01*
X140193149Y-77650497D01*
X140196060Y-77655942D01*
X140228864Y-77735140D01*
X140235364Y-77756567D01*
X140252090Y-77840651D01*
X140254284Y-77862931D01*
X140254284Y-77881350D01*
X140254886Y-77893601D01*
X140256692Y-77911939D01*
X140256692Y-78399662D01*
X140254886Y-78417999D01*
X140254284Y-78430250D01*
X140254284Y-78448669D01*
X140252090Y-78470949D01*
X140235364Y-78555033D01*
X140228864Y-78576460D01*
X140196060Y-78655658D01*
X140193149Y-78661103D01*
X140193147Y-78661109D01*
X140188411Y-78669969D01*
X140188408Y-78669973D01*
X140185500Y-78675414D01*
X140137869Y-78746699D01*
X140123668Y-78764004D01*
X140063044Y-78824628D01*
X140045739Y-78838829D01*
X139974454Y-78886460D01*
X139969013Y-78889368D01*
X139969009Y-78889371D01*
X139960149Y-78894107D01*
X139960143Y-78894109D01*
X139954698Y-78897020D01*
X139875500Y-78929824D01*
X139854073Y-78936324D01*
X139769989Y-78953050D01*
X139747709Y-78955244D01*
X139729290Y-78955244D01*
X139717039Y-78955846D01*
X139698702Y-78957652D01*
X139210980Y-78957652D01*
X139194841Y-78956063D01*
X139185232Y-78953148D01*
X139176368Y-78948410D01*
X139168603Y-78942037D01*
X139158392Y-78929594D01*
X139151462Y-78919225D01*
X139134135Y-78901898D01*
X139113760Y-78888285D01*
X139091120Y-78878909D01*
X139067087Y-78874129D01*
X139042583Y-78874130D01*
X139018550Y-78878912D01*
X138995911Y-78888290D01*
X138975538Y-78901905D01*
X138958211Y-78919232D01*
X138951282Y-78929602D01*
X138941077Y-78942037D01*
X138933312Y-78948410D01*
X138924448Y-78953148D01*
X138914839Y-78956063D01*
X138898700Y-78957652D01*
X138410978Y-78957652D01*
X138392641Y-78955846D01*
X138380390Y-78955244D01*
X138361971Y-78955244D01*
X138339691Y-78953050D01*
X138255607Y-78936324D01*
X138234180Y-78929824D01*
X138154982Y-78897020D01*
X138149537Y-78894109D01*
X138149531Y-78894107D01*
X138140671Y-78889371D01*
X138140667Y-78889368D01*
X138135226Y-78886460D01*
X138063941Y-78838829D01*
X138046636Y-78824628D01*
X137986012Y-78764004D01*
X137971811Y-78746699D01*
X137924180Y-78675414D01*
X137921272Y-78669973D01*
X137921269Y-78669969D01*
X137916533Y-78661109D01*
X137916531Y-78661103D01*
X137913620Y-78655658D01*
X137880816Y-78576460D01*
X137874316Y-78555033D01*
X137857590Y-78470949D01*
X137855396Y-78448669D01*
X137855396Y-78430250D01*
X137854794Y-78417999D01*
X137852988Y-78399662D01*
X137852988Y-77911939D01*
X137854794Y-77893601D01*
X137855396Y-77881350D01*
X137855396Y-77862931D01*
X137857590Y-77840651D01*
X137874316Y-77756567D01*
X137880816Y-77735140D01*
X137913620Y-77655942D01*
X137916531Y-77650497D01*
X137916533Y-77650491D01*
X137921269Y-77641631D01*
X137921272Y-77641627D01*
X137924180Y-77636186D01*
X137971811Y-77564901D01*
X137986012Y-77547596D01*
X138046636Y-77486972D01*
X138063941Y-77472771D01*
X138135226Y-77425140D01*
X138140667Y-77422232D01*
X138140671Y-77422229D01*
X138149531Y-77417493D01*
X138149537Y-77417491D01*
X138154982Y-77414580D01*
X138234180Y-77381776D01*
X138255607Y-77375276D01*
X138339691Y-77358550D01*
X138361971Y-77356356D01*
X138380390Y-77356356D01*
X138392641Y-77355754D01*
X138410979Y-77353948D01*
X138898700Y-77353948D01*
X138914839Y-77355537D01*
X138914839Y-77355537D01*
G37*
G36*
X177277787Y-75787196D02*
G01*
X177514553Y-75885268D01*
X177514555Y-75885269D01*
X177727639Y-76027647D01*
X177908853Y-76208861D01*
X178042171Y-76408385D01*
X178051232Y-76421947D01*
X178149304Y-76658713D01*
X178199300Y-76910061D01*
X178199300Y-77166339D01*
X178149304Y-77417687D01*
X178070769Y-77607286D01*
X178051231Y-77654455D01*
X177908853Y-77867539D01*
X177727639Y-78048753D01*
X177514555Y-78191131D01*
X177514554Y-78191132D01*
X177514553Y-78191132D01*
X177277787Y-78289204D01*
X177026439Y-78339200D01*
X176770161Y-78339200D01*
X176518813Y-78289204D01*
X176282047Y-78191132D01*
X176282046Y-78191132D01*
X176282045Y-78191131D01*
X176068961Y-78048753D01*
X175887747Y-77867539D01*
X175745369Y-77654455D01*
X175725831Y-77607286D01*
X175647296Y-77417687D01*
X175597300Y-77166339D01*
X175597300Y-76910061D01*
X175647296Y-76658713D01*
X175745368Y-76421947D01*
X175754430Y-76408385D01*
X175887747Y-76208861D01*
X176068961Y-76027647D01*
X176282045Y-75885269D01*
X176282047Y-75885268D01*
X176518813Y-75787196D01*
X176770161Y-75737200D01*
X177026439Y-75737200D01*
X177277787Y-75787196D01*
X177277787Y-75787196D01*
G37*
G36*
X138914839Y-75150817D02*
G01*
X138924448Y-75153732D01*
X138933312Y-75158470D01*
X138941077Y-75164843D01*
X138951288Y-75177286D01*
X138958218Y-75187655D01*
X138975545Y-75204982D01*
X138995920Y-75218595D01*
X139018560Y-75227971D01*
X139042593Y-75232751D01*
X139067097Y-75232750D01*
X139091130Y-75227968D01*
X139113769Y-75218590D01*
X139134142Y-75204975D01*
X139151469Y-75187648D01*
X139158398Y-75177278D01*
X139168603Y-75164843D01*
X139176368Y-75158470D01*
X139185232Y-75153732D01*
X139194841Y-75150817D01*
X139210980Y-75149228D01*
X139698701Y-75149228D01*
X139717039Y-75151034D01*
X139729290Y-75151636D01*
X139747709Y-75151636D01*
X139769989Y-75153830D01*
X139854073Y-75170556D01*
X139875500Y-75177056D01*
X139954698Y-75209860D01*
X139960143Y-75212771D01*
X139960149Y-75212773D01*
X139969009Y-75217509D01*
X139969013Y-75217512D01*
X139974454Y-75220420D01*
X140045739Y-75268051D01*
X140063044Y-75282252D01*
X140123668Y-75342876D01*
X140137869Y-75360181D01*
X140185500Y-75431466D01*
X140188408Y-75436907D01*
X140188411Y-75436911D01*
X140193147Y-75445771D01*
X140193149Y-75445777D01*
X140196060Y-75451222D01*
X140228864Y-75530420D01*
X140235364Y-75551847D01*
X140252090Y-75635931D01*
X140254284Y-75658211D01*
X140254284Y-75676630D01*
X140254886Y-75688881D01*
X140256692Y-75707219D01*
X140256692Y-76194942D01*
X140254886Y-76213279D01*
X140254284Y-76225530D01*
X140254284Y-76243949D01*
X140252090Y-76266229D01*
X140235364Y-76350313D01*
X140228864Y-76371740D01*
X140196060Y-76450938D01*
X140193149Y-76456383D01*
X140193147Y-76456389D01*
X140188411Y-76465249D01*
X140188408Y-76465253D01*
X140185500Y-76470694D01*
X140137869Y-76541979D01*
X140123668Y-76559284D01*
X140063044Y-76619908D01*
X140045739Y-76634109D01*
X139974454Y-76681740D01*
X139969013Y-76684648D01*
X139969009Y-76684651D01*
X139960149Y-76689387D01*
X139960143Y-76689389D01*
X139954698Y-76692300D01*
X139875500Y-76725104D01*
X139854073Y-76731604D01*
X139769989Y-76748330D01*
X139747709Y-76750524D01*
X139729290Y-76750524D01*
X139717039Y-76751126D01*
X139698702Y-76752932D01*
X139210980Y-76752932D01*
X139194841Y-76751343D01*
X139185232Y-76748428D01*
X139176368Y-76743690D01*
X139168603Y-76737317D01*
X139158392Y-76724874D01*
X139151462Y-76714505D01*
X139134135Y-76697178D01*
X139113760Y-76683565D01*
X139091120Y-76674189D01*
X139067087Y-76669409D01*
X139042583Y-76669410D01*
X139018550Y-76674192D01*
X138995911Y-76683570D01*
X138975538Y-76697185D01*
X138958211Y-76714512D01*
X138951282Y-76724882D01*
X138941077Y-76737317D01*
X138933312Y-76743690D01*
X138924448Y-76748428D01*
X138914839Y-76751343D01*
X138898700Y-76752932D01*
X138410978Y-76752932D01*
X138392641Y-76751126D01*
X138380390Y-76750524D01*
X138361971Y-76750524D01*
X138339691Y-76748330D01*
X138255607Y-76731604D01*
X138234180Y-76725104D01*
X138154982Y-76692300D01*
X138149537Y-76689389D01*
X138149531Y-76689387D01*
X138140671Y-76684651D01*
X138140667Y-76684648D01*
X138135226Y-76681740D01*
X138063941Y-76634109D01*
X138046636Y-76619908D01*
X137986012Y-76559284D01*
X137971811Y-76541979D01*
X137924180Y-76470694D01*
X137921272Y-76465253D01*
X137921269Y-76465249D01*
X137916533Y-76456389D01*
X137916531Y-76456383D01*
X137913620Y-76450938D01*
X137880816Y-76371740D01*
X137874316Y-76350313D01*
X137857590Y-76266229D01*
X137855396Y-76243949D01*
X137855396Y-76225530D01*
X137854794Y-76213279D01*
X137852988Y-76194942D01*
X137852988Y-75707219D01*
X137854794Y-75688881D01*
X137855396Y-75676630D01*
X137855396Y-75658211D01*
X137857590Y-75635931D01*
X137874316Y-75551847D01*
X137880816Y-75530420D01*
X137913620Y-75451222D01*
X137916531Y-75445777D01*
X137916533Y-75445771D01*
X137921269Y-75436911D01*
X137921272Y-75436907D01*
X137924180Y-75431466D01*
X137971811Y-75360181D01*
X137986012Y-75342876D01*
X138046636Y-75282252D01*
X138063941Y-75268051D01*
X138135226Y-75220420D01*
X138140667Y-75217512D01*
X138140671Y-75217509D01*
X138149531Y-75212773D01*
X138149537Y-75212771D01*
X138154982Y-75209860D01*
X138234180Y-75177056D01*
X138255607Y-75170556D01*
X138339691Y-75153830D01*
X138361971Y-75151636D01*
X138380390Y-75151636D01*
X138392641Y-75151034D01*
X138410979Y-75149228D01*
X138898700Y-75149228D01*
X138914839Y-75150817D01*
X138914839Y-75150817D01*
G37*
G36*
X170658743Y-74873719D02*
G01*
X170724927Y-74880237D01*
X170894766Y-74931757D01*
X171051291Y-75015422D01*
X171087029Y-75044752D01*
X171188486Y-75128014D01*
X171270515Y-75227968D01*
X171301078Y-75265209D01*
X171384743Y-75421734D01*
X171436263Y-75591573D01*
X171453659Y-75768200D01*
X171436263Y-75944827D01*
X171384743Y-76114666D01*
X171301078Y-76271191D01*
X171271748Y-76306929D01*
X171188486Y-76408386D01*
X171114486Y-76469115D01*
X171051291Y-76520978D01*
X170894766Y-76604643D01*
X170724927Y-76656163D01*
X170658742Y-76662682D01*
X170592560Y-76669200D01*
X170504040Y-76669200D01*
X170437858Y-76662682D01*
X170371673Y-76656163D01*
X170201834Y-76604643D01*
X170045309Y-76520978D01*
X169982114Y-76469115D01*
X169908114Y-76408386D01*
X169824852Y-76306929D01*
X169795522Y-76271191D01*
X169711857Y-76114666D01*
X169660337Y-75944827D01*
X169642941Y-75768200D01*
X169660337Y-75591573D01*
X169711857Y-75421734D01*
X169795522Y-75265209D01*
X169826085Y-75227968D01*
X169908114Y-75128014D01*
X170009571Y-75044752D01*
X170045309Y-75015422D01*
X170201834Y-74931757D01*
X170371673Y-74880237D01*
X170437857Y-74873719D01*
X170504040Y-74867200D01*
X170592560Y-74867200D01*
X170658743Y-74873719D01*
X170658743Y-74873719D01*
G37*
G36*
X168118743Y-74873719D02*
G01*
X168184927Y-74880237D01*
X168354766Y-74931757D01*
X168511291Y-75015422D01*
X168547029Y-75044752D01*
X168648486Y-75128014D01*
X168730515Y-75227968D01*
X168761078Y-75265209D01*
X168844743Y-75421734D01*
X168896263Y-75591573D01*
X168913659Y-75768200D01*
X168896263Y-75944827D01*
X168844743Y-76114666D01*
X168761078Y-76271191D01*
X168731748Y-76306929D01*
X168648486Y-76408386D01*
X168574486Y-76469115D01*
X168511291Y-76520978D01*
X168354766Y-76604643D01*
X168184927Y-76656163D01*
X168118742Y-76662682D01*
X168052560Y-76669200D01*
X167964040Y-76669200D01*
X167897858Y-76662682D01*
X167831673Y-76656163D01*
X167661834Y-76604643D01*
X167505309Y-76520978D01*
X167442114Y-76469115D01*
X167368114Y-76408386D01*
X167284852Y-76306929D01*
X167255522Y-76271191D01*
X167171857Y-76114666D01*
X167120337Y-75944827D01*
X167102941Y-75768200D01*
X167120337Y-75591573D01*
X167171857Y-75421734D01*
X167255522Y-75265209D01*
X167286085Y-75227968D01*
X167368114Y-75128014D01*
X167469571Y-75044752D01*
X167505309Y-75015422D01*
X167661834Y-74931757D01*
X167831673Y-74880237D01*
X167897857Y-74873719D01*
X167964040Y-74867200D01*
X168052560Y-74867200D01*
X168118743Y-74873719D01*
X168118743Y-74873719D01*
G37*
G36*
X165578743Y-74873719D02*
G01*
X165644927Y-74880237D01*
X165814766Y-74931757D01*
X165971291Y-75015422D01*
X166007029Y-75044752D01*
X166108486Y-75128014D01*
X166190515Y-75227968D01*
X166221078Y-75265209D01*
X166304743Y-75421734D01*
X166356263Y-75591573D01*
X166373659Y-75768200D01*
X166356263Y-75944827D01*
X166304743Y-76114666D01*
X166221078Y-76271191D01*
X166191748Y-76306929D01*
X166108486Y-76408386D01*
X166034486Y-76469115D01*
X165971291Y-76520978D01*
X165814766Y-76604643D01*
X165644927Y-76656163D01*
X165578742Y-76662682D01*
X165512560Y-76669200D01*
X165424040Y-76669200D01*
X165357858Y-76662682D01*
X165291673Y-76656163D01*
X165121834Y-76604643D01*
X164965309Y-76520978D01*
X164902114Y-76469115D01*
X164828114Y-76408386D01*
X164744852Y-76306929D01*
X164715522Y-76271191D01*
X164631857Y-76114666D01*
X164580337Y-75944827D01*
X164562941Y-75768200D01*
X164580337Y-75591573D01*
X164631857Y-75421734D01*
X164715522Y-75265209D01*
X164746085Y-75227968D01*
X164828114Y-75128014D01*
X164929571Y-75044752D01*
X164965309Y-75015422D01*
X165121834Y-74931757D01*
X165291673Y-74880237D01*
X165357857Y-74873719D01*
X165424040Y-74867200D01*
X165512560Y-74867200D01*
X165578743Y-74873719D01*
X165578743Y-74873719D01*
G37*
G36*
X160498743Y-74873719D02*
G01*
X160564927Y-74880237D01*
X160734766Y-74931757D01*
X160891291Y-75015422D01*
X160927029Y-75044752D01*
X161028486Y-75128014D01*
X161110515Y-75227968D01*
X161141078Y-75265209D01*
X161224743Y-75421734D01*
X161276263Y-75591573D01*
X161293659Y-75768200D01*
X161276263Y-75944827D01*
X161224743Y-76114666D01*
X161141078Y-76271191D01*
X161111748Y-76306929D01*
X161028486Y-76408386D01*
X160954486Y-76469115D01*
X160891291Y-76520978D01*
X160734766Y-76604643D01*
X160564927Y-76656163D01*
X160498742Y-76662682D01*
X160432560Y-76669200D01*
X160344040Y-76669200D01*
X160277858Y-76662682D01*
X160211673Y-76656163D01*
X160041834Y-76604643D01*
X159885309Y-76520978D01*
X159822114Y-76469115D01*
X159748114Y-76408386D01*
X159664852Y-76306929D01*
X159635522Y-76271191D01*
X159551857Y-76114666D01*
X159500337Y-75944827D01*
X159482941Y-75768200D01*
X159500337Y-75591573D01*
X159551857Y-75421734D01*
X159635522Y-75265209D01*
X159666085Y-75227968D01*
X159748114Y-75128014D01*
X159849571Y-75044752D01*
X159885309Y-75015422D01*
X160041834Y-74931757D01*
X160211673Y-74880237D01*
X160277857Y-74873719D01*
X160344040Y-74867200D01*
X160432560Y-74867200D01*
X160498743Y-74873719D01*
X160498743Y-74873719D01*
G37*
G36*
X157958743Y-74873719D02*
G01*
X158024927Y-74880237D01*
X158194766Y-74931757D01*
X158351291Y-75015422D01*
X158387029Y-75044752D01*
X158488486Y-75128014D01*
X158570515Y-75227968D01*
X158601078Y-75265209D01*
X158684743Y-75421734D01*
X158736263Y-75591573D01*
X158753659Y-75768200D01*
X158736263Y-75944827D01*
X158684743Y-76114666D01*
X158601078Y-76271191D01*
X158571748Y-76306929D01*
X158488486Y-76408386D01*
X158414486Y-76469115D01*
X158351291Y-76520978D01*
X158194766Y-76604643D01*
X158024927Y-76656163D01*
X157958742Y-76662682D01*
X157892560Y-76669200D01*
X157804040Y-76669200D01*
X157737858Y-76662682D01*
X157671673Y-76656163D01*
X157501834Y-76604643D01*
X157345309Y-76520978D01*
X157282114Y-76469115D01*
X157208114Y-76408386D01*
X157124852Y-76306929D01*
X157095522Y-76271191D01*
X157011857Y-76114666D01*
X156960337Y-75944827D01*
X156942941Y-75768200D01*
X156960337Y-75591573D01*
X157011857Y-75421734D01*
X157095522Y-75265209D01*
X157126085Y-75227968D01*
X157208114Y-75128014D01*
X157309571Y-75044752D01*
X157345309Y-75015422D01*
X157501834Y-74931757D01*
X157671673Y-74880237D01*
X157737857Y-74873719D01*
X157804040Y-74867200D01*
X157892560Y-74867200D01*
X157958743Y-74873719D01*
X157958743Y-74873719D01*
G37*
G36*
X155418743Y-74873719D02*
G01*
X155484927Y-74880237D01*
X155654766Y-74931757D01*
X155811291Y-75015422D01*
X155847029Y-75044752D01*
X155948486Y-75128014D01*
X156030515Y-75227968D01*
X156061078Y-75265209D01*
X156144743Y-75421734D01*
X156196263Y-75591573D01*
X156213659Y-75768200D01*
X156196263Y-75944827D01*
X156144743Y-76114666D01*
X156061078Y-76271191D01*
X156031748Y-76306929D01*
X155948486Y-76408386D01*
X155874486Y-76469115D01*
X155811291Y-76520978D01*
X155654766Y-76604643D01*
X155484927Y-76656163D01*
X155418742Y-76662682D01*
X155352560Y-76669200D01*
X155264040Y-76669200D01*
X155197858Y-76662682D01*
X155131673Y-76656163D01*
X154961834Y-76604643D01*
X154805309Y-76520978D01*
X154742114Y-76469115D01*
X154668114Y-76408386D01*
X154584852Y-76306929D01*
X154555522Y-76271191D01*
X154471857Y-76114666D01*
X154420337Y-75944827D01*
X154402941Y-75768200D01*
X154420337Y-75591573D01*
X154471857Y-75421734D01*
X154555522Y-75265209D01*
X154586085Y-75227968D01*
X154668114Y-75128014D01*
X154769571Y-75044752D01*
X154805309Y-75015422D01*
X154961834Y-74931757D01*
X155131673Y-74880237D01*
X155197857Y-74873719D01*
X155264040Y-74867200D01*
X155352560Y-74867200D01*
X155418743Y-74873719D01*
X155418743Y-74873719D01*
G37*
G36*
X152878743Y-74873719D02*
G01*
X152944927Y-74880237D01*
X153114766Y-74931757D01*
X153271291Y-75015422D01*
X153307029Y-75044752D01*
X153408486Y-75128014D01*
X153490515Y-75227968D01*
X153521078Y-75265209D01*
X153604743Y-75421734D01*
X153656263Y-75591573D01*
X153673659Y-75768200D01*
X153656263Y-75944827D01*
X153604743Y-76114666D01*
X153521078Y-76271191D01*
X153491748Y-76306929D01*
X153408486Y-76408386D01*
X153334486Y-76469115D01*
X153271291Y-76520978D01*
X153114766Y-76604643D01*
X152944927Y-76656163D01*
X152878742Y-76662682D01*
X152812560Y-76669200D01*
X152724040Y-76669200D01*
X152657858Y-76662682D01*
X152591673Y-76656163D01*
X152421834Y-76604643D01*
X152265309Y-76520978D01*
X152202114Y-76469115D01*
X152128114Y-76408386D01*
X152044852Y-76306929D01*
X152015522Y-76271191D01*
X151931857Y-76114666D01*
X151880337Y-75944827D01*
X151862941Y-75768200D01*
X151880337Y-75591573D01*
X151931857Y-75421734D01*
X152015522Y-75265209D01*
X152046085Y-75227968D01*
X152128114Y-75128014D01*
X152229571Y-75044752D01*
X152265309Y-75015422D01*
X152421834Y-74931757D01*
X152591673Y-74880237D01*
X152657857Y-74873719D01*
X152724040Y-74867200D01*
X152812560Y-74867200D01*
X152878743Y-74873719D01*
X152878743Y-74873719D01*
G37*
G36*
X150338743Y-74873719D02*
G01*
X150404927Y-74880237D01*
X150574766Y-74931757D01*
X150731291Y-75015422D01*
X150767029Y-75044752D01*
X150868486Y-75128014D01*
X150950515Y-75227968D01*
X150981078Y-75265209D01*
X151064743Y-75421734D01*
X151116263Y-75591573D01*
X151133659Y-75768200D01*
X151116263Y-75944827D01*
X151064743Y-76114666D01*
X150981078Y-76271191D01*
X150951748Y-76306929D01*
X150868486Y-76408386D01*
X150794486Y-76469115D01*
X150731291Y-76520978D01*
X150574766Y-76604643D01*
X150404927Y-76656163D01*
X150338742Y-76662682D01*
X150272560Y-76669200D01*
X150184040Y-76669200D01*
X150117858Y-76662682D01*
X150051673Y-76656163D01*
X149881834Y-76604643D01*
X149725309Y-76520978D01*
X149662114Y-76469115D01*
X149588114Y-76408386D01*
X149504852Y-76306929D01*
X149475522Y-76271191D01*
X149391857Y-76114666D01*
X149340337Y-75944827D01*
X149322941Y-75768200D01*
X149340337Y-75591573D01*
X149391857Y-75421734D01*
X149475522Y-75265209D01*
X149506085Y-75227968D01*
X149588114Y-75128014D01*
X149689571Y-75044752D01*
X149725309Y-75015422D01*
X149881834Y-74931757D01*
X150051673Y-74880237D01*
X150117857Y-74873719D01*
X150184040Y-74867200D01*
X150272560Y-74867200D01*
X150338743Y-74873719D01*
X150338743Y-74873719D01*
G37*
G36*
X147798743Y-74873719D02*
G01*
X147864927Y-74880237D01*
X148034766Y-74931757D01*
X148191291Y-75015422D01*
X148227029Y-75044752D01*
X148328486Y-75128014D01*
X148410515Y-75227968D01*
X148441078Y-75265209D01*
X148524743Y-75421734D01*
X148576263Y-75591573D01*
X148593659Y-75768200D01*
X148576263Y-75944827D01*
X148524743Y-76114666D01*
X148441078Y-76271191D01*
X148411748Y-76306929D01*
X148328486Y-76408386D01*
X148254486Y-76469115D01*
X148191291Y-76520978D01*
X148034766Y-76604643D01*
X147864927Y-76656163D01*
X147798742Y-76662682D01*
X147732560Y-76669200D01*
X147644040Y-76669200D01*
X147577858Y-76662682D01*
X147511673Y-76656163D01*
X147341834Y-76604643D01*
X147185309Y-76520978D01*
X147122114Y-76469115D01*
X147048114Y-76408386D01*
X146964852Y-76306929D01*
X146935522Y-76271191D01*
X146851857Y-76114666D01*
X146800337Y-75944827D01*
X146782941Y-75768200D01*
X146800337Y-75591573D01*
X146851857Y-75421734D01*
X146935522Y-75265209D01*
X146966085Y-75227968D01*
X147048114Y-75128014D01*
X147149571Y-75044752D01*
X147185309Y-75015422D01*
X147341834Y-74931757D01*
X147511673Y-74880237D01*
X147577857Y-74873719D01*
X147644040Y-74867200D01*
X147732560Y-74867200D01*
X147798743Y-74873719D01*
X147798743Y-74873719D01*
G37*
G36*
X146049300Y-76669200D02*
G01*
X144247300Y-76669200D01*
X144247300Y-74867200D01*
X146049300Y-74867200D01*
X146049300Y-76669200D01*
X146049300Y-76669200D01*
G37*
G36*
X163038743Y-74873719D02*
G01*
X163104927Y-74880237D01*
X163274766Y-74931757D01*
X163431291Y-75015422D01*
X163467029Y-75044752D01*
X163568486Y-75128014D01*
X163650515Y-75227968D01*
X163681078Y-75265209D01*
X163764743Y-75421734D01*
X163816263Y-75591573D01*
X163833659Y-75768200D01*
X163816263Y-75944827D01*
X163764743Y-76114666D01*
X163681078Y-76271191D01*
X163651748Y-76306929D01*
X163568486Y-76408386D01*
X163494486Y-76469115D01*
X163431291Y-76520978D01*
X163274766Y-76604643D01*
X163104927Y-76656163D01*
X163038742Y-76662682D01*
X162972560Y-76669200D01*
X162884040Y-76669200D01*
X162817858Y-76662682D01*
X162751673Y-76656163D01*
X162581834Y-76604643D01*
X162425309Y-76520978D01*
X162362114Y-76469115D01*
X162288114Y-76408386D01*
X162204852Y-76306929D01*
X162175522Y-76271191D01*
X162091857Y-76114666D01*
X162040337Y-75944827D01*
X162022941Y-75768200D01*
X162040337Y-75591573D01*
X162091857Y-75421734D01*
X162175522Y-75265209D01*
X162206085Y-75227968D01*
X162288114Y-75128014D01*
X162389571Y-75044752D01*
X162425309Y-75015422D01*
X162581834Y-74931757D01*
X162751673Y-74880237D01*
X162817857Y-74873719D01*
X162884040Y-74867200D01*
X162972560Y-74867200D01*
X163038743Y-74873719D01*
X163038743Y-74873719D01*
G37*
G36*
X173198743Y-74873719D02*
G01*
X173264927Y-74880237D01*
X173434766Y-74931757D01*
X173591291Y-75015422D01*
X173627029Y-75044752D01*
X173728486Y-75128014D01*
X173810515Y-75227968D01*
X173841078Y-75265209D01*
X173924743Y-75421734D01*
X173976263Y-75591573D01*
X173993659Y-75768200D01*
X173976263Y-75944827D01*
X173924743Y-76114666D01*
X173841078Y-76271191D01*
X173811748Y-76306929D01*
X173728486Y-76408386D01*
X173654486Y-76469115D01*
X173591291Y-76520978D01*
X173434766Y-76604643D01*
X173264927Y-76656163D01*
X173198742Y-76662682D01*
X173132560Y-76669200D01*
X173044040Y-76669200D01*
X172977858Y-76662682D01*
X172911673Y-76656163D01*
X172741834Y-76604643D01*
X172585309Y-76520978D01*
X172522114Y-76469115D01*
X172448114Y-76408386D01*
X172364852Y-76306929D01*
X172335522Y-76271191D01*
X172251857Y-76114666D01*
X172200337Y-75944827D01*
X172182941Y-75768200D01*
X172200337Y-75591573D01*
X172251857Y-75421734D01*
X172335522Y-75265209D01*
X172366085Y-75227968D01*
X172448114Y-75128014D01*
X172549571Y-75044752D01*
X172585309Y-75015422D01*
X172741834Y-74931757D01*
X172911673Y-74880237D01*
X172977857Y-74873719D01*
X173044040Y-74867200D01*
X173132560Y-74867200D01*
X173198743Y-74873719D01*
X173198743Y-74873719D01*
G37*
M02*
