G04 #@! TF.GenerationSoftware,KiCad,Pcbnew,(5.1.4)-1*
G04 #@! TF.CreationDate,2020-01-06T17:29:22-05:00*
G04 #@! TF.ProjectId,Feather-NEO-M9N-GPS,46656174-6865-4722-9d4e-454f2d4d394e,rev?*
G04 #@! TF.SameCoordinates,Original*
G04 #@! TF.FileFunction,Copper,L2,Bot*
G04 #@! TF.FilePolarity,Positive*
%FSLAX46Y46*%
G04 Gerber Fmt 4.6, Leading zero omitted, Abs format (unit mm)*
G04 Created by KiCad (PCBNEW (5.1.4)-1) date 2020-01-06 17:29:22*
%MOMM*%
%LPD*%
G04 APERTURE LIST*
%ADD10C,0.100000*%
%ADD11C,0.500000*%
%ADD12R,1.270000X0.635000*%
%ADD13C,3.800000*%
%ADD14O,1.700000X1.700000*%
%ADD15R,1.700000X1.700000*%
%ADD16C,0.660400*%
%ADD17C,0.152400*%
%ADD18C,0.508000*%
%ADD19C,0.254000*%
G04 APERTURE END LIST*
D10*
G36*
X167675560Y-78501240D02*
G01*
X167675560Y-78907640D01*
X167421560Y-78907640D01*
X167421560Y-78501240D01*
X167675560Y-78501240D01*
G37*
G36*
X167675560Y-79517240D02*
G01*
X167675560Y-79923640D01*
X167421560Y-79923640D01*
X167421560Y-79517240D01*
X167675560Y-79517240D01*
G37*
G36*
X173446160Y-81072800D02*
G01*
X173446160Y-80572800D01*
X174046160Y-80572800D01*
X174046160Y-81072800D01*
X173446160Y-81072800D01*
G37*
G36*
X175595000Y-81072800D02*
G01*
X175595000Y-80572800D01*
X176195000Y-80572800D01*
X176195000Y-81072800D01*
X175595000Y-81072800D01*
G37*
D11*
X148704300Y-79461600D03*
D10*
G36*
X147954902Y-79461600D02*
G01*
X147954902Y-79437066D01*
X147959712Y-79388235D01*
X147969284Y-79340110D01*
X147983528Y-79293155D01*
X148002305Y-79247822D01*
X148025436Y-79204549D01*
X148052696Y-79163750D01*
X148083824Y-79125821D01*
X148118521Y-79091124D01*
X148156450Y-79059996D01*
X148197249Y-79032736D01*
X148240522Y-79009605D01*
X148285855Y-78990828D01*
X148332810Y-78976584D01*
X148380935Y-78967012D01*
X148429766Y-78962202D01*
X148454300Y-78962202D01*
X148454300Y-78961600D01*
X148954300Y-78961600D01*
X148954300Y-78962202D01*
X148978834Y-78962202D01*
X149027665Y-78967012D01*
X149075790Y-78976584D01*
X149122745Y-78990828D01*
X149168078Y-79009605D01*
X149211351Y-79032736D01*
X149252150Y-79059996D01*
X149290079Y-79091124D01*
X149324776Y-79125821D01*
X149355904Y-79163750D01*
X149383164Y-79204549D01*
X149406295Y-79247822D01*
X149425072Y-79293155D01*
X149439316Y-79340110D01*
X149448888Y-79388235D01*
X149453698Y-79437066D01*
X149453698Y-79461600D01*
X149454300Y-79461600D01*
X149454300Y-79961600D01*
X147954300Y-79961600D01*
X147954300Y-79461600D01*
X147954902Y-79461600D01*
X147954902Y-79461600D01*
G37*
D11*
X148704300Y-80761600D03*
D10*
G36*
X149454300Y-80261600D02*
G01*
X149454300Y-80761600D01*
X149453698Y-80761600D01*
X149453698Y-80786134D01*
X149448888Y-80834965D01*
X149439316Y-80883090D01*
X149425072Y-80930045D01*
X149406295Y-80975378D01*
X149383164Y-81018651D01*
X149355904Y-81059450D01*
X149324776Y-81097379D01*
X149290079Y-81132076D01*
X149252150Y-81163204D01*
X149211351Y-81190464D01*
X149168078Y-81213595D01*
X149122745Y-81232372D01*
X149075790Y-81246616D01*
X149027665Y-81256188D01*
X148978834Y-81260998D01*
X148954300Y-81260998D01*
X148954300Y-81261600D01*
X148454300Y-81261600D01*
X148454300Y-81260998D01*
X148429766Y-81260998D01*
X148380935Y-81256188D01*
X148332810Y-81246616D01*
X148285855Y-81232372D01*
X148240522Y-81213595D01*
X148197249Y-81190464D01*
X148156450Y-81163204D01*
X148118521Y-81132076D01*
X148083824Y-81097379D01*
X148052696Y-81059450D01*
X148025436Y-81018651D01*
X148002305Y-80975378D01*
X147983528Y-80930045D01*
X147969284Y-80883090D01*
X147959712Y-80834965D01*
X147954902Y-80786134D01*
X147954902Y-80761600D01*
X147954300Y-80761600D01*
X147954300Y-80261600D01*
X149454300Y-80261600D01*
X149454300Y-80261600D01*
G37*
D12*
X167548560Y-80228440D03*
X167548560Y-79212440D03*
X167548560Y-78196440D03*
D11*
X139704840Y-80431640D03*
D10*
G36*
X139704840Y-79682242D02*
G01*
X139729374Y-79682242D01*
X139778205Y-79687052D01*
X139826330Y-79696624D01*
X139873285Y-79710868D01*
X139918618Y-79729645D01*
X139961891Y-79752776D01*
X140002690Y-79780036D01*
X140040619Y-79811164D01*
X140075316Y-79845861D01*
X140106444Y-79883790D01*
X140133704Y-79924589D01*
X140156835Y-79967862D01*
X140175612Y-80013195D01*
X140189856Y-80060150D01*
X140199428Y-80108275D01*
X140204238Y-80157106D01*
X140204238Y-80181640D01*
X140204840Y-80181640D01*
X140204840Y-80681640D01*
X140204238Y-80681640D01*
X140204238Y-80706174D01*
X140199428Y-80755005D01*
X140189856Y-80803130D01*
X140175612Y-80850085D01*
X140156835Y-80895418D01*
X140133704Y-80938691D01*
X140106444Y-80979490D01*
X140075316Y-81017419D01*
X140040619Y-81052116D01*
X140002690Y-81083244D01*
X139961891Y-81110504D01*
X139918618Y-81133635D01*
X139873285Y-81152412D01*
X139826330Y-81166656D01*
X139778205Y-81176228D01*
X139729374Y-81181038D01*
X139704840Y-81181038D01*
X139704840Y-81181640D01*
X139204840Y-81181640D01*
X139204840Y-79681640D01*
X139704840Y-79681640D01*
X139704840Y-79682242D01*
X139704840Y-79682242D01*
G37*
D11*
X138404840Y-80431640D03*
D10*
G36*
X138904840Y-81181640D02*
G01*
X138404840Y-81181640D01*
X138404840Y-81181038D01*
X138380306Y-81181038D01*
X138331475Y-81176228D01*
X138283350Y-81166656D01*
X138236395Y-81152412D01*
X138191062Y-81133635D01*
X138147789Y-81110504D01*
X138106990Y-81083244D01*
X138069061Y-81052116D01*
X138034364Y-81017419D01*
X138003236Y-80979490D01*
X137975976Y-80938691D01*
X137952845Y-80895418D01*
X137934068Y-80850085D01*
X137919824Y-80803130D01*
X137910252Y-80755005D01*
X137905442Y-80706174D01*
X137905442Y-80681640D01*
X137904840Y-80681640D01*
X137904840Y-80181640D01*
X137905442Y-80181640D01*
X137905442Y-80157106D01*
X137910252Y-80108275D01*
X137919824Y-80060150D01*
X137934068Y-80013195D01*
X137952845Y-79967862D01*
X137975976Y-79924589D01*
X138003236Y-79883790D01*
X138034364Y-79845861D01*
X138069061Y-79811164D01*
X138106990Y-79780036D01*
X138147789Y-79752776D01*
X138191062Y-79729645D01*
X138236395Y-79710868D01*
X138283350Y-79696624D01*
X138331475Y-79687052D01*
X138380306Y-79682242D01*
X138404840Y-79682242D01*
X138404840Y-79681640D01*
X138904840Y-79681640D01*
X138904840Y-81181640D01*
X138904840Y-81181640D01*
G37*
D11*
X139704840Y-78155800D03*
D10*
G36*
X139704840Y-77406402D02*
G01*
X139729374Y-77406402D01*
X139778205Y-77411212D01*
X139826330Y-77420784D01*
X139873285Y-77435028D01*
X139918618Y-77453805D01*
X139961891Y-77476936D01*
X140002690Y-77504196D01*
X140040619Y-77535324D01*
X140075316Y-77570021D01*
X140106444Y-77607950D01*
X140133704Y-77648749D01*
X140156835Y-77692022D01*
X140175612Y-77737355D01*
X140189856Y-77784310D01*
X140199428Y-77832435D01*
X140204238Y-77881266D01*
X140204238Y-77905800D01*
X140204840Y-77905800D01*
X140204840Y-78405800D01*
X140204238Y-78405800D01*
X140204238Y-78430334D01*
X140199428Y-78479165D01*
X140189856Y-78527290D01*
X140175612Y-78574245D01*
X140156835Y-78619578D01*
X140133704Y-78662851D01*
X140106444Y-78703650D01*
X140075316Y-78741579D01*
X140040619Y-78776276D01*
X140002690Y-78807404D01*
X139961891Y-78834664D01*
X139918618Y-78857795D01*
X139873285Y-78876572D01*
X139826330Y-78890816D01*
X139778205Y-78900388D01*
X139729374Y-78905198D01*
X139704840Y-78905198D01*
X139704840Y-78905800D01*
X139204840Y-78905800D01*
X139204840Y-77405800D01*
X139704840Y-77405800D01*
X139704840Y-77406402D01*
X139704840Y-77406402D01*
G37*
D11*
X138404840Y-78155800D03*
D10*
G36*
X138904840Y-78905800D02*
G01*
X138404840Y-78905800D01*
X138404840Y-78905198D01*
X138380306Y-78905198D01*
X138331475Y-78900388D01*
X138283350Y-78890816D01*
X138236395Y-78876572D01*
X138191062Y-78857795D01*
X138147789Y-78834664D01*
X138106990Y-78807404D01*
X138069061Y-78776276D01*
X138034364Y-78741579D01*
X138003236Y-78703650D01*
X137975976Y-78662851D01*
X137952845Y-78619578D01*
X137934068Y-78574245D01*
X137919824Y-78527290D01*
X137910252Y-78479165D01*
X137905442Y-78430334D01*
X137905442Y-78405800D01*
X137904840Y-78405800D01*
X137904840Y-77905800D01*
X137905442Y-77905800D01*
X137905442Y-77881266D01*
X137910252Y-77832435D01*
X137919824Y-77784310D01*
X137934068Y-77737355D01*
X137952845Y-77692022D01*
X137975976Y-77648749D01*
X138003236Y-77607950D01*
X138034364Y-77570021D01*
X138069061Y-77535324D01*
X138106990Y-77504196D01*
X138147789Y-77476936D01*
X138191062Y-77453805D01*
X138236395Y-77435028D01*
X138283350Y-77420784D01*
X138331475Y-77411212D01*
X138380306Y-77406402D01*
X138404840Y-77406402D01*
X138404840Y-77405800D01*
X138904840Y-77405800D01*
X138904840Y-78905800D01*
X138904840Y-78905800D01*
G37*
D11*
X139704840Y-75951080D03*
D10*
G36*
X139704840Y-75201682D02*
G01*
X139729374Y-75201682D01*
X139778205Y-75206492D01*
X139826330Y-75216064D01*
X139873285Y-75230308D01*
X139918618Y-75249085D01*
X139961891Y-75272216D01*
X140002690Y-75299476D01*
X140040619Y-75330604D01*
X140075316Y-75365301D01*
X140106444Y-75403230D01*
X140133704Y-75444029D01*
X140156835Y-75487302D01*
X140175612Y-75532635D01*
X140189856Y-75579590D01*
X140199428Y-75627715D01*
X140204238Y-75676546D01*
X140204238Y-75701080D01*
X140204840Y-75701080D01*
X140204840Y-76201080D01*
X140204238Y-76201080D01*
X140204238Y-76225614D01*
X140199428Y-76274445D01*
X140189856Y-76322570D01*
X140175612Y-76369525D01*
X140156835Y-76414858D01*
X140133704Y-76458131D01*
X140106444Y-76498930D01*
X140075316Y-76536859D01*
X140040619Y-76571556D01*
X140002690Y-76602684D01*
X139961891Y-76629944D01*
X139918618Y-76653075D01*
X139873285Y-76671852D01*
X139826330Y-76686096D01*
X139778205Y-76695668D01*
X139729374Y-76700478D01*
X139704840Y-76700478D01*
X139704840Y-76701080D01*
X139204840Y-76701080D01*
X139204840Y-75201080D01*
X139704840Y-75201080D01*
X139704840Y-75201682D01*
X139704840Y-75201682D01*
G37*
D11*
X138404840Y-75951080D03*
D10*
G36*
X138904840Y-76701080D02*
G01*
X138404840Y-76701080D01*
X138404840Y-76700478D01*
X138380306Y-76700478D01*
X138331475Y-76695668D01*
X138283350Y-76686096D01*
X138236395Y-76671852D01*
X138191062Y-76653075D01*
X138147789Y-76629944D01*
X138106990Y-76602684D01*
X138069061Y-76571556D01*
X138034364Y-76536859D01*
X138003236Y-76498930D01*
X137975976Y-76458131D01*
X137952845Y-76414858D01*
X137934068Y-76369525D01*
X137919824Y-76322570D01*
X137910252Y-76274445D01*
X137905442Y-76225614D01*
X137905442Y-76201080D01*
X137904840Y-76201080D01*
X137904840Y-75701080D01*
X137905442Y-75701080D01*
X137905442Y-75676546D01*
X137910252Y-75627715D01*
X137919824Y-75579590D01*
X137934068Y-75532635D01*
X137952845Y-75487302D01*
X137975976Y-75444029D01*
X138003236Y-75403230D01*
X138034364Y-75365301D01*
X138069061Y-75330604D01*
X138106990Y-75299476D01*
X138147789Y-75272216D01*
X138191062Y-75249085D01*
X138236395Y-75230308D01*
X138283350Y-75216064D01*
X138331475Y-75206492D01*
X138380306Y-75201682D01*
X138404840Y-75201682D01*
X138404840Y-75201080D01*
X138904840Y-75201080D01*
X138904840Y-76701080D01*
X138904840Y-76701080D01*
G37*
D11*
X166855140Y-92822000D03*
D10*
G36*
X166105742Y-92822000D02*
G01*
X166105742Y-92797466D01*
X166110552Y-92748635D01*
X166120124Y-92700510D01*
X166134368Y-92653555D01*
X166153145Y-92608222D01*
X166176276Y-92564949D01*
X166203536Y-92524150D01*
X166234664Y-92486221D01*
X166269361Y-92451524D01*
X166307290Y-92420396D01*
X166348089Y-92393136D01*
X166391362Y-92370005D01*
X166436695Y-92351228D01*
X166483650Y-92336984D01*
X166531775Y-92327412D01*
X166580606Y-92322602D01*
X166605140Y-92322602D01*
X166605140Y-92322000D01*
X167105140Y-92322000D01*
X167105140Y-92322602D01*
X167129674Y-92322602D01*
X167178505Y-92327412D01*
X167226630Y-92336984D01*
X167273585Y-92351228D01*
X167318918Y-92370005D01*
X167362191Y-92393136D01*
X167402990Y-92420396D01*
X167440919Y-92451524D01*
X167475616Y-92486221D01*
X167506744Y-92524150D01*
X167534004Y-92564949D01*
X167557135Y-92608222D01*
X167575912Y-92653555D01*
X167590156Y-92700510D01*
X167599728Y-92748635D01*
X167604538Y-92797466D01*
X167604538Y-92822000D01*
X167605140Y-92822000D01*
X167605140Y-93322000D01*
X166105140Y-93322000D01*
X166105140Y-92822000D01*
X166105742Y-92822000D01*
X166105742Y-92822000D01*
G37*
D11*
X166855140Y-94122000D03*
D10*
G36*
X167605140Y-93622000D02*
G01*
X167605140Y-94122000D01*
X167604538Y-94122000D01*
X167604538Y-94146534D01*
X167599728Y-94195365D01*
X167590156Y-94243490D01*
X167575912Y-94290445D01*
X167557135Y-94335778D01*
X167534004Y-94379051D01*
X167506744Y-94419850D01*
X167475616Y-94457779D01*
X167440919Y-94492476D01*
X167402990Y-94523604D01*
X167362191Y-94550864D01*
X167318918Y-94573995D01*
X167273585Y-94592772D01*
X167226630Y-94607016D01*
X167178505Y-94616588D01*
X167129674Y-94621398D01*
X167105140Y-94621398D01*
X167105140Y-94622000D01*
X166605140Y-94622000D01*
X166605140Y-94621398D01*
X166580606Y-94621398D01*
X166531775Y-94616588D01*
X166483650Y-94607016D01*
X166436695Y-94592772D01*
X166391362Y-94573995D01*
X166348089Y-94550864D01*
X166307290Y-94523604D01*
X166269361Y-94492476D01*
X166234664Y-94457779D01*
X166203536Y-94419850D01*
X166176276Y-94379051D01*
X166153145Y-94335778D01*
X166134368Y-94290445D01*
X166120124Y-94243490D01*
X166110552Y-94195365D01*
X166105742Y-94146534D01*
X166105742Y-94122000D01*
X166105140Y-94122000D01*
X166105140Y-93622000D01*
X167605140Y-93622000D01*
X167605140Y-93622000D01*
G37*
D11*
X169075100Y-94127080D03*
D10*
G36*
X169824498Y-94127080D02*
G01*
X169824498Y-94151614D01*
X169819688Y-94200445D01*
X169810116Y-94248570D01*
X169795872Y-94295525D01*
X169777095Y-94340858D01*
X169753964Y-94384131D01*
X169726704Y-94424930D01*
X169695576Y-94462859D01*
X169660879Y-94497556D01*
X169622950Y-94528684D01*
X169582151Y-94555944D01*
X169538878Y-94579075D01*
X169493545Y-94597852D01*
X169446590Y-94612096D01*
X169398465Y-94621668D01*
X169349634Y-94626478D01*
X169325100Y-94626478D01*
X169325100Y-94627080D01*
X168825100Y-94627080D01*
X168825100Y-94626478D01*
X168800566Y-94626478D01*
X168751735Y-94621668D01*
X168703610Y-94612096D01*
X168656655Y-94597852D01*
X168611322Y-94579075D01*
X168568049Y-94555944D01*
X168527250Y-94528684D01*
X168489321Y-94497556D01*
X168454624Y-94462859D01*
X168423496Y-94424930D01*
X168396236Y-94384131D01*
X168373105Y-94340858D01*
X168354328Y-94295525D01*
X168340084Y-94248570D01*
X168330512Y-94200445D01*
X168325702Y-94151614D01*
X168325702Y-94127080D01*
X168325100Y-94127080D01*
X168325100Y-93627080D01*
X169825100Y-93627080D01*
X169825100Y-94127080D01*
X169824498Y-94127080D01*
X169824498Y-94127080D01*
G37*
D11*
X169075100Y-92827080D03*
D10*
G36*
X168325100Y-93327080D02*
G01*
X168325100Y-92827080D01*
X168325702Y-92827080D01*
X168325702Y-92802546D01*
X168330512Y-92753715D01*
X168340084Y-92705590D01*
X168354328Y-92658635D01*
X168373105Y-92613302D01*
X168396236Y-92570029D01*
X168423496Y-92529230D01*
X168454624Y-92491301D01*
X168489321Y-92456604D01*
X168527250Y-92425476D01*
X168568049Y-92398216D01*
X168611322Y-92375085D01*
X168656655Y-92356308D01*
X168703610Y-92342064D01*
X168751735Y-92332492D01*
X168800566Y-92327682D01*
X168825100Y-92327682D01*
X168825100Y-92327080D01*
X169325100Y-92327080D01*
X169325100Y-92327682D01*
X169349634Y-92327682D01*
X169398465Y-92332492D01*
X169446590Y-92342064D01*
X169493545Y-92356308D01*
X169538878Y-92375085D01*
X169582151Y-92398216D01*
X169622950Y-92425476D01*
X169660879Y-92456604D01*
X169695576Y-92491301D01*
X169726704Y-92529230D01*
X169753964Y-92570029D01*
X169777095Y-92613302D01*
X169795872Y-92658635D01*
X169810116Y-92705590D01*
X169819688Y-92753715D01*
X169824498Y-92802546D01*
X169824498Y-92827080D01*
X169825100Y-92827080D01*
X169825100Y-93327080D01*
X168325100Y-93327080D01*
X168325100Y-93327080D01*
G37*
D11*
X173746160Y-80172800D03*
D10*
G36*
X172996160Y-80672800D02*
G01*
X172996160Y-80172800D01*
X172996762Y-80172800D01*
X172996762Y-80148266D01*
X173001572Y-80099435D01*
X173011144Y-80051310D01*
X173025388Y-80004355D01*
X173044165Y-79959022D01*
X173067296Y-79915749D01*
X173094556Y-79874950D01*
X173125684Y-79837021D01*
X173160381Y-79802324D01*
X173198310Y-79771196D01*
X173239109Y-79743936D01*
X173282382Y-79720805D01*
X173327715Y-79702028D01*
X173374670Y-79687784D01*
X173422795Y-79678212D01*
X173471626Y-79673402D01*
X173496160Y-79673402D01*
X173496160Y-79672800D01*
X173996160Y-79672800D01*
X173996160Y-79673402D01*
X174020694Y-79673402D01*
X174069525Y-79678212D01*
X174117650Y-79687784D01*
X174164605Y-79702028D01*
X174209938Y-79720805D01*
X174253211Y-79743936D01*
X174294010Y-79771196D01*
X174331939Y-79802324D01*
X174366636Y-79837021D01*
X174397764Y-79874950D01*
X174425024Y-79915749D01*
X174448155Y-79959022D01*
X174466932Y-80004355D01*
X174481176Y-80051310D01*
X174490748Y-80099435D01*
X174495558Y-80148266D01*
X174495558Y-80172800D01*
X174496160Y-80172800D01*
X174496160Y-80672800D01*
X172996160Y-80672800D01*
X172996160Y-80672800D01*
G37*
D11*
X173746160Y-81472800D03*
D10*
G36*
X174495558Y-81472800D02*
G01*
X174495558Y-81497334D01*
X174490748Y-81546165D01*
X174481176Y-81594290D01*
X174466932Y-81641245D01*
X174448155Y-81686578D01*
X174425024Y-81729851D01*
X174397764Y-81770650D01*
X174366636Y-81808579D01*
X174331939Y-81843276D01*
X174294010Y-81874404D01*
X174253211Y-81901664D01*
X174209938Y-81924795D01*
X174164605Y-81943572D01*
X174117650Y-81957816D01*
X174069525Y-81967388D01*
X174020694Y-81972198D01*
X173996160Y-81972198D01*
X173996160Y-81972800D01*
X173496160Y-81972800D01*
X173496160Y-81972198D01*
X173471626Y-81972198D01*
X173422795Y-81967388D01*
X173374670Y-81957816D01*
X173327715Y-81943572D01*
X173282382Y-81924795D01*
X173239109Y-81901664D01*
X173198310Y-81874404D01*
X173160381Y-81843276D01*
X173125684Y-81808579D01*
X173094556Y-81770650D01*
X173067296Y-81729851D01*
X173044165Y-81686578D01*
X173025388Y-81641245D01*
X173011144Y-81594290D01*
X173001572Y-81546165D01*
X172996762Y-81497334D01*
X172996762Y-81472800D01*
X172996160Y-81472800D01*
X172996160Y-80972800D01*
X174496160Y-80972800D01*
X174496160Y-81472800D01*
X174495558Y-81472800D01*
X174495558Y-81472800D01*
G37*
D11*
X175895000Y-80172800D03*
D10*
G36*
X175145000Y-80672800D02*
G01*
X175145000Y-80172800D01*
X175145602Y-80172800D01*
X175145602Y-80148266D01*
X175150412Y-80099435D01*
X175159984Y-80051310D01*
X175174228Y-80004355D01*
X175193005Y-79959022D01*
X175216136Y-79915749D01*
X175243396Y-79874950D01*
X175274524Y-79837021D01*
X175309221Y-79802324D01*
X175347150Y-79771196D01*
X175387949Y-79743936D01*
X175431222Y-79720805D01*
X175476555Y-79702028D01*
X175523510Y-79687784D01*
X175571635Y-79678212D01*
X175620466Y-79673402D01*
X175645000Y-79673402D01*
X175645000Y-79672800D01*
X176145000Y-79672800D01*
X176145000Y-79673402D01*
X176169534Y-79673402D01*
X176218365Y-79678212D01*
X176266490Y-79687784D01*
X176313445Y-79702028D01*
X176358778Y-79720805D01*
X176402051Y-79743936D01*
X176442850Y-79771196D01*
X176480779Y-79802324D01*
X176515476Y-79837021D01*
X176546604Y-79874950D01*
X176573864Y-79915749D01*
X176596995Y-79959022D01*
X176615772Y-80004355D01*
X176630016Y-80051310D01*
X176639588Y-80099435D01*
X176644398Y-80148266D01*
X176644398Y-80172800D01*
X176645000Y-80172800D01*
X176645000Y-80672800D01*
X175145000Y-80672800D01*
X175145000Y-80672800D01*
G37*
D11*
X175895000Y-81472800D03*
D10*
G36*
X176644398Y-81472800D02*
G01*
X176644398Y-81497334D01*
X176639588Y-81546165D01*
X176630016Y-81594290D01*
X176615772Y-81641245D01*
X176596995Y-81686578D01*
X176573864Y-81729851D01*
X176546604Y-81770650D01*
X176515476Y-81808579D01*
X176480779Y-81843276D01*
X176442850Y-81874404D01*
X176402051Y-81901664D01*
X176358778Y-81924795D01*
X176313445Y-81943572D01*
X176266490Y-81957816D01*
X176218365Y-81967388D01*
X176169534Y-81972198D01*
X176145000Y-81972198D01*
X176145000Y-81972800D01*
X175645000Y-81972800D01*
X175645000Y-81972198D01*
X175620466Y-81972198D01*
X175571635Y-81967388D01*
X175523510Y-81957816D01*
X175476555Y-81943572D01*
X175431222Y-81924795D01*
X175387949Y-81901664D01*
X175347150Y-81874404D01*
X175309221Y-81843276D01*
X175274524Y-81808579D01*
X175243396Y-81770650D01*
X175216136Y-81729851D01*
X175193005Y-81686578D01*
X175174228Y-81641245D01*
X175159984Y-81594290D01*
X175150412Y-81546165D01*
X175145602Y-81497334D01*
X175145602Y-81472800D01*
X175145000Y-81472800D01*
X175145000Y-80972800D01*
X176645000Y-80972800D01*
X176645000Y-81472800D01*
X176644398Y-81472800D01*
X176644398Y-81472800D01*
G37*
D13*
X131178300Y-94818200D03*
X131178300Y-77038200D03*
D14*
X173088300Y-75768200D03*
X170548300Y-75768200D03*
X168008300Y-75768200D03*
X165468300Y-75768200D03*
X162928300Y-75768200D03*
X160388300Y-75768200D03*
X157848300Y-75768200D03*
X155308300Y-75768200D03*
X152768300Y-75768200D03*
X150228300Y-75768200D03*
X147688300Y-75768200D03*
D15*
X145148300Y-75768200D03*
D14*
X173088300Y-96088200D03*
X170548300Y-96088200D03*
X168008300Y-96088200D03*
X165468300Y-96088200D03*
X162928300Y-96088200D03*
X160388300Y-96088200D03*
X157848300Y-96088200D03*
X155308300Y-96088200D03*
X152768300Y-96088200D03*
X150228300Y-96088200D03*
X147688300Y-96088200D03*
X145148300Y-96088200D03*
X142608300Y-96088200D03*
X140068300Y-96088200D03*
X137528300Y-96088200D03*
D15*
X134988300Y-96088200D03*
D16*
X152882600Y-88963500D03*
X175397160Y-78978760D03*
X142260320Y-77337920D03*
X142199360Y-76393040D03*
X143134080Y-75864720D03*
X146075400Y-89712800D03*
X145249900Y-89712800D03*
X144424400Y-89712800D03*
X144487900Y-90474800D03*
X144487900Y-91173300D03*
X144487900Y-91998800D03*
X144487900Y-92824300D03*
X144487900Y-93649800D03*
X144551400Y-94538800D03*
X147599400Y-94475300D03*
X154406600Y-91008200D03*
X154406600Y-91821000D03*
X154406600Y-92633800D03*
X154406600Y-93446600D03*
X154406600Y-94259400D03*
X153314400Y-94284800D03*
X152361900Y-94284800D03*
X150876000Y-93472000D03*
X151587200Y-93472000D03*
X150164800Y-93472000D03*
X149453600Y-93472000D03*
X148742400Y-93472000D03*
X148031200Y-93472000D03*
X148386800Y-94208600D03*
X151638000Y-91008200D03*
X150901400Y-91008200D03*
X148615400Y-91008200D03*
X147878800Y-91008200D03*
X147701000Y-90068400D03*
X146837400Y-89687400D03*
X151384000Y-89433400D03*
X154406600Y-90195400D03*
X154406600Y-89382600D03*
X154406600Y-88569800D03*
X154406600Y-87757000D03*
X151358600Y-88595200D03*
X145338800Y-94640400D03*
X147345400Y-89077800D03*
X147218400Y-88112600D03*
X147218400Y-87350600D03*
X147396200Y-86537800D03*
X151231600Y-87833200D03*
X148132800Y-86207600D03*
X149021800Y-86207600D03*
X149961600Y-86207600D03*
X150698200Y-86436200D03*
X151028400Y-87071200D03*
X146100800Y-94640400D03*
X146862800Y-94665800D03*
X173098460Y-89781380D03*
X142839440Y-84739480D03*
X142844520Y-88000000D03*
X144434560Y-84754720D03*
X144434560Y-88000000D03*
X134244080Y-78938120D03*
X134244080Y-77307440D03*
X137449560Y-78938120D03*
X137449560Y-77307440D03*
X166745920Y-76895960D03*
X169463720Y-82184240D03*
X166339520Y-84236560D03*
X170337480Y-84282280D03*
X145308320Y-92227400D03*
X146171920Y-92227400D03*
X132481320Y-80782160D03*
X132481320Y-82575400D03*
X136748520Y-82844640D03*
X134589520Y-80639920D03*
X178567080Y-78430120D03*
X177434240Y-80787240D03*
X178521360Y-80929480D03*
X170789600Y-86182200D03*
X172405040Y-84658200D03*
X178577240Y-89519760D03*
X178536600Y-87122000D03*
X172989240Y-87193120D03*
X175163480Y-84023200D03*
X177942240Y-84221320D03*
X175747680Y-86807040D03*
X175610520Y-89433400D03*
X153710640Y-87325200D03*
X166263320Y-86685120D03*
X164068760Y-87452200D03*
X165567360Y-87477600D03*
X154940000Y-79375000D03*
X156845000Y-79375000D03*
X158750000Y-79375000D03*
X160655000Y-79375000D03*
X162560000Y-79375000D03*
X154940000Y-81280000D03*
X156845000Y-81280000D03*
X158750000Y-81280000D03*
X160655000Y-81280000D03*
X162560000Y-81280000D03*
X154940000Y-83185000D03*
X154940000Y-85090000D03*
X156845000Y-85090000D03*
X156845000Y-83185000D03*
X158750000Y-83185000D03*
X158750000Y-85090000D03*
X160655000Y-85090000D03*
X160655000Y-83185000D03*
X162560000Y-83185000D03*
X162560000Y-85090000D03*
X154940000Y-86995000D03*
X156845000Y-86995000D03*
X158750000Y-86995000D03*
X160655000Y-86995000D03*
X162560000Y-86995000D03*
X162560000Y-88900000D03*
X160655000Y-88900000D03*
X158750000Y-88900000D03*
X156845000Y-88900000D03*
X156845000Y-90805000D03*
X158750000Y-90805000D03*
X160655000Y-90805000D03*
X162560000Y-90805000D03*
X162560000Y-92710000D03*
X160655000Y-92710000D03*
X158750000Y-92710000D03*
X156845000Y-92710000D03*
X156845000Y-94615000D03*
X158750000Y-94615000D03*
X160655000Y-94615000D03*
X162560000Y-94615000D03*
X155194000Y-88900000D03*
X155194000Y-90932000D03*
X155194000Y-92710000D03*
X152019000Y-87503000D03*
X164846000Y-94488000D03*
X151511000Y-94869000D03*
X148971000Y-94996000D03*
X134747000Y-82296000D03*
X147269200Y-83997800D03*
X134886700Y-86233000D03*
X135039100Y-88988900D03*
X136017000Y-93268800D03*
X134620000Y-93522800D03*
X163449000Y-77203300D03*
X141046200Y-93091000D03*
X138569700Y-91440000D03*
X165819651Y-78147349D03*
X168879520Y-86390480D03*
X168173400Y-82494120D03*
X167396160Y-82966560D03*
X167746680Y-87015320D03*
X166659560Y-83423760D03*
X166908480Y-87279480D03*
X142201900Y-86271100D03*
X145059400Y-86233000D03*
X142214600Y-85356700D03*
X145046700Y-85369400D03*
X137388600Y-87045800D03*
X138772900Y-87058500D03*
X137375900Y-85661500D03*
X138823700Y-86029800D03*
X168686480Y-81727040D03*
X169666920Y-85912960D03*
X166791640Y-81671160D03*
X135087360Y-79562960D03*
X135051800Y-76697840D03*
X135950960Y-79547720D03*
X135930640Y-76682600D03*
X137703560Y-79832200D03*
X130107840Y-88332160D03*
X172217080Y-80436720D03*
X175493680Y-81889600D03*
X174188120Y-81899760D03*
X168960800Y-92798900D03*
X166827200Y-92811600D03*
X169316400Y-81081880D03*
X169224960Y-77322680D03*
X142189200Y-87223600D03*
X145135600Y-87414100D03*
D17*
X175895000Y-79476600D02*
X175397160Y-78978760D01*
X175895000Y-80172800D02*
X175895000Y-79476600D01*
X148704300Y-79461600D02*
X149984700Y-78181200D01*
X157975300Y-78181200D02*
X160388300Y-75768200D01*
X149984700Y-78181200D02*
X157975300Y-78181200D01*
X139704840Y-79893400D02*
X139704840Y-80431640D01*
X142260320Y-77337920D02*
X139704840Y-79893400D01*
X141467600Y-76393040D02*
X139704840Y-78155800D01*
X142199360Y-76393040D02*
X141467600Y-76393040D01*
X142803881Y-75534521D02*
X143134080Y-75864720D01*
X140721399Y-75534521D02*
X142803881Y-75534521D01*
X139704840Y-75951080D02*
X140304840Y-75951080D01*
X140304840Y-75951080D02*
X140721399Y-75534521D01*
D18*
X166884742Y-79212440D02*
X167548560Y-79212440D01*
X165819651Y-78147349D02*
X166884742Y-79212440D01*
X168203880Y-85714840D02*
X168879520Y-86390480D01*
X168198800Y-85709760D02*
X168203880Y-85714840D01*
X168198800Y-82519520D02*
X168198800Y-85709760D01*
X168173400Y-82494120D02*
X168198800Y-82519520D01*
D17*
X167396160Y-82966560D02*
X167396160Y-86664800D01*
X167746680Y-87015320D02*
X167396160Y-86664800D01*
X166659560Y-83659126D02*
X166659560Y-83423760D01*
X166908480Y-86923880D02*
X166920521Y-86911839D01*
X166920521Y-86911839D02*
X166920521Y-85498281D01*
X166920521Y-85498281D02*
X166945921Y-85472881D01*
X166945921Y-85472881D02*
X166945921Y-83945487D01*
X166908480Y-87279480D02*
X166908480Y-86923880D01*
X166945921Y-83945487D02*
X166659560Y-83659126D01*
X142240000Y-86233000D02*
X142201900Y-86271100D01*
X145059400Y-86233000D02*
X142240000Y-86233000D01*
X144579727Y-85369400D02*
X145046700Y-85369400D01*
X142694273Y-85369400D02*
X144579727Y-85369400D01*
X142681573Y-85356700D02*
X142694273Y-85369400D01*
X142214600Y-85356700D02*
X142681573Y-85356700D01*
X138760200Y-87045800D02*
X138772900Y-87058500D01*
X137388600Y-87045800D02*
X138760200Y-87045800D01*
X137744200Y-86029800D02*
X137375900Y-85661500D01*
X138823700Y-86029800D02*
X137744200Y-86029800D01*
X168630600Y-81671160D02*
X168686480Y-81727040D01*
X166791640Y-81671160D02*
X168630600Y-81671160D01*
X169336721Y-85582761D02*
X169666920Y-85912960D01*
X168857319Y-85103359D02*
X169336721Y-85582761D01*
X168857319Y-82121399D02*
X168857319Y-85103359D01*
X168686480Y-81950560D02*
X168857319Y-82121399D01*
X168686480Y-81727040D02*
X168686480Y-81950560D01*
X152882600Y-87469126D02*
X150139400Y-84725926D01*
X152882600Y-88963500D02*
X152882600Y-87469126D01*
X150139400Y-82196700D02*
X148704300Y-80761600D01*
X150139400Y-84725926D02*
X150139400Y-82196700D01*
X135087360Y-76733400D02*
X135051800Y-76697840D01*
X135087360Y-79562960D02*
X135087360Y-76733400D01*
X137804840Y-75951080D02*
X138404840Y-75951080D01*
X135764686Y-75951080D02*
X137804840Y-75951080D01*
X135324239Y-76391527D02*
X135764686Y-75951080D01*
X135324239Y-76537161D02*
X135324239Y-76391527D01*
X135163560Y-76697840D02*
X135324239Y-76537161D01*
X135051800Y-76697840D02*
X135163560Y-76697840D01*
X135930640Y-79527400D02*
X135950960Y-79547720D01*
X135930640Y-76682600D02*
X135930640Y-79527400D01*
X138404840Y-77308208D02*
X138404840Y-78155800D01*
X138404840Y-77295404D02*
X138404840Y-77308208D01*
X137792036Y-76682600D02*
X138404840Y-77295404D01*
X135930640Y-76682600D02*
X137792036Y-76682600D01*
X138303240Y-80330040D02*
X138404840Y-80431640D01*
X137703560Y-79832200D02*
X138303240Y-80330040D01*
X172481000Y-80172800D02*
X172217080Y-80436720D01*
X173746160Y-80172800D02*
X172481000Y-80172800D01*
X170548300Y-95600280D02*
X170548300Y-96088200D01*
X169075100Y-94127080D02*
X170548300Y-95600280D01*
X168010840Y-96085660D02*
X168008300Y-96088200D01*
X166855140Y-94935040D02*
X168008300Y-96088200D01*
X166855140Y-94122000D02*
X166855140Y-94935040D01*
X168462960Y-80228440D02*
X169316400Y-81081880D01*
X167548560Y-80228440D02*
X168462960Y-80228440D01*
X168351200Y-78196440D02*
X169224960Y-77322680D01*
X167548560Y-78196440D02*
X168351200Y-78196440D01*
D18*
X142656173Y-87223600D02*
X142668873Y-87210900D01*
X142189200Y-87223600D02*
X142656173Y-87223600D01*
X142663974Y-87215799D02*
X142656173Y-87223600D01*
X144810977Y-87215799D02*
X142663974Y-87215799D01*
X145009278Y-87414100D02*
X144810977Y-87215799D01*
X145135600Y-87414100D02*
X145009278Y-87414100D01*
D19*
G36*
X137374376Y-75221205D02*
G01*
X137366641Y-75239880D01*
X135799611Y-75239880D01*
X135764685Y-75236440D01*
X135729759Y-75239880D01*
X135729750Y-75239880D01*
X135625266Y-75250171D01*
X135491205Y-75290838D01*
X135367653Y-75356878D01*
X135259359Y-75445753D01*
X135237084Y-75472895D01*
X134977339Y-75732640D01*
X134956736Y-75732640D01*
X134770262Y-75769732D01*
X134594606Y-75842491D01*
X134436521Y-75948120D01*
X134302080Y-76082561D01*
X134196451Y-76240646D01*
X134123692Y-76416302D01*
X134086600Y-76602776D01*
X134086600Y-76792904D01*
X134123692Y-76979378D01*
X134196451Y-77155034D01*
X134302080Y-77313119D01*
X134376161Y-77387200D01*
X134376160Y-78909161D01*
X134337640Y-78947681D01*
X134232011Y-79105766D01*
X134159252Y-79281422D01*
X134122160Y-79467896D01*
X134122160Y-79658024D01*
X134159252Y-79844498D01*
X134232011Y-80020154D01*
X134337640Y-80178239D01*
X134472081Y-80312680D01*
X134630166Y-80418309D01*
X134805822Y-80491068D01*
X134992296Y-80528160D01*
X135182424Y-80528160D01*
X135368898Y-80491068D01*
X135537556Y-80421208D01*
X135669422Y-80475828D01*
X135855896Y-80512920D01*
X136046024Y-80512920D01*
X136232498Y-80475828D01*
X136408154Y-80403069D01*
X136566239Y-80297440D01*
X136700680Y-80162999D01*
X136765850Y-80065465D01*
X136775452Y-80113738D01*
X136848211Y-80289394D01*
X136953840Y-80447479D01*
X137088281Y-80581920D01*
X137246366Y-80687549D01*
X137268242Y-80696610D01*
X137269176Y-80706090D01*
X137269176Y-80730649D01*
X137281436Y-80855130D01*
X137300558Y-80951263D01*
X137336867Y-81070959D01*
X137374376Y-81161515D01*
X137433342Y-81271832D01*
X137487798Y-81353331D01*
X137567150Y-81450022D01*
X137636458Y-81519330D01*
X137733149Y-81598682D01*
X137814648Y-81653138D01*
X137924965Y-81712104D01*
X138015521Y-81749613D01*
X138135217Y-81785922D01*
X138231350Y-81805044D01*
X138355831Y-81817304D01*
X138380390Y-81817304D01*
X138404840Y-81819712D01*
X138904840Y-81819712D01*
X139029322Y-81807452D01*
X139054840Y-81799711D01*
X139080358Y-81807452D01*
X139204840Y-81819712D01*
X139704840Y-81819712D01*
X139729290Y-81817304D01*
X139753849Y-81817304D01*
X139878330Y-81805044D01*
X139974463Y-81785922D01*
X140094159Y-81749613D01*
X140184715Y-81712104D01*
X140295032Y-81653138D01*
X140376531Y-81598682D01*
X140473222Y-81519330D01*
X140542530Y-81450022D01*
X140621882Y-81353331D01*
X140676338Y-81271832D01*
X140735304Y-81161515D01*
X140772813Y-81070959D01*
X140809122Y-80951263D01*
X140828244Y-80855130D01*
X140840504Y-80730649D01*
X140840504Y-80706090D01*
X140842912Y-80681640D01*
X140842912Y-80181640D01*
X140840504Y-80157190D01*
X140840504Y-80132631D01*
X140828244Y-80008150D01*
X140809122Y-79912017D01*
X140781865Y-79822162D01*
X142300909Y-78303120D01*
X142355384Y-78303120D01*
X142541858Y-78266028D01*
X142717514Y-78193269D01*
X142875599Y-78087640D01*
X143010040Y-77953199D01*
X143115669Y-77795114D01*
X143188428Y-77619458D01*
X143225520Y-77432984D01*
X143225520Y-77242856D01*
X143188428Y-77056382D01*
X143115669Y-76880726D01*
X143081722Y-76829920D01*
X143229144Y-76829920D01*
X143415618Y-76792828D01*
X143591274Y-76720069D01*
X143665384Y-76670550D01*
X143672488Y-76742682D01*
X143708798Y-76862380D01*
X143767763Y-76972694D01*
X143847115Y-77069385D01*
X143943806Y-77148737D01*
X144054120Y-77207702D01*
X144173818Y-77244012D01*
X144298300Y-77256272D01*
X145998300Y-77256272D01*
X146122782Y-77244012D01*
X146242480Y-77207702D01*
X146352794Y-77148737D01*
X146449485Y-77069385D01*
X146528837Y-76972694D01*
X146587802Y-76862380D01*
X146608693Y-76793513D01*
X146633166Y-76823334D01*
X146859286Y-77008906D01*
X147117266Y-77146799D01*
X147397189Y-77231713D01*
X147615350Y-77253200D01*
X147761250Y-77253200D01*
X147979411Y-77231713D01*
X148259334Y-77146799D01*
X148517314Y-77008906D01*
X148743434Y-76823334D01*
X148929006Y-76597214D01*
X148958300Y-76542409D01*
X148987594Y-76597214D01*
X149173166Y-76823334D01*
X149399286Y-77008906D01*
X149657266Y-77146799D01*
X149937189Y-77231713D01*
X150155350Y-77253200D01*
X150301250Y-77253200D01*
X150519411Y-77231713D01*
X150799334Y-77146799D01*
X151057314Y-77008906D01*
X151283434Y-76823334D01*
X151469006Y-76597214D01*
X151498300Y-76542409D01*
X151527594Y-76597214D01*
X151713166Y-76823334D01*
X151939286Y-77008906D01*
X152197266Y-77146799D01*
X152477189Y-77231713D01*
X152695350Y-77253200D01*
X152841250Y-77253200D01*
X153059411Y-77231713D01*
X153339334Y-77146799D01*
X153597314Y-77008906D01*
X153823434Y-76823334D01*
X154009006Y-76597214D01*
X154038300Y-76542409D01*
X154067594Y-76597214D01*
X154253166Y-76823334D01*
X154479286Y-77008906D01*
X154737266Y-77146799D01*
X155017189Y-77231713D01*
X155235350Y-77253200D01*
X155381250Y-77253200D01*
X155599411Y-77231713D01*
X155879334Y-77146799D01*
X156137314Y-77008906D01*
X156363434Y-76823334D01*
X156549006Y-76597214D01*
X156578300Y-76542409D01*
X156607594Y-76597214D01*
X156793166Y-76823334D01*
X157019286Y-77008906D01*
X157277266Y-77146799D01*
X157557189Y-77231713D01*
X157775350Y-77253200D01*
X157897513Y-77253200D01*
X157680713Y-77470000D01*
X150019625Y-77470000D01*
X149984699Y-77466560D01*
X149949773Y-77470000D01*
X149949764Y-77470000D01*
X149845280Y-77480291D01*
X149711219Y-77520958D01*
X149587667Y-77586998D01*
X149479373Y-77675873D01*
X149457103Y-77703009D01*
X148836585Y-78323528D01*
X148454300Y-78323528D01*
X148429850Y-78325936D01*
X148405291Y-78325936D01*
X148280810Y-78338196D01*
X148184677Y-78357318D01*
X148064981Y-78393627D01*
X147974425Y-78431136D01*
X147864108Y-78490102D01*
X147782609Y-78544558D01*
X147685918Y-78623910D01*
X147616610Y-78693218D01*
X147537258Y-78789909D01*
X147482802Y-78871408D01*
X147423836Y-78981725D01*
X147386327Y-79072281D01*
X147350018Y-79191977D01*
X147330896Y-79288110D01*
X147318636Y-79412591D01*
X147318636Y-79437150D01*
X147316228Y-79461600D01*
X147316228Y-79961600D01*
X147328488Y-80086082D01*
X147336229Y-80111600D01*
X147328488Y-80137118D01*
X147316228Y-80261600D01*
X147316228Y-80761600D01*
X147318636Y-80786050D01*
X147318636Y-80810609D01*
X147330896Y-80935090D01*
X147350018Y-81031223D01*
X147386327Y-81150919D01*
X147423836Y-81241475D01*
X147482802Y-81351792D01*
X147537258Y-81433291D01*
X147616610Y-81529982D01*
X147685918Y-81599290D01*
X147782609Y-81678642D01*
X147864108Y-81733098D01*
X147974425Y-81792064D01*
X148064981Y-81829573D01*
X148184677Y-81865882D01*
X148280810Y-81885004D01*
X148405291Y-81897264D01*
X148429850Y-81897264D01*
X148454300Y-81899672D01*
X148836585Y-81899672D01*
X149428201Y-82491289D01*
X149428200Y-84691000D01*
X149424760Y-84725926D01*
X149428200Y-84760852D01*
X149428200Y-84760861D01*
X149438491Y-84865345D01*
X149479158Y-84999406D01*
X149545198Y-85122958D01*
X149634073Y-85231252D01*
X149661210Y-85253523D01*
X152171401Y-87763716D01*
X152171400Y-88309701D01*
X152132880Y-88348221D01*
X152027251Y-88506306D01*
X151954492Y-88681962D01*
X151917400Y-88868436D01*
X151917400Y-89058564D01*
X151954492Y-89245038D01*
X152027251Y-89420694D01*
X152132880Y-89578779D01*
X152267321Y-89713220D01*
X152425406Y-89818849D01*
X152601062Y-89891608D01*
X152787536Y-89928700D01*
X152977664Y-89928700D01*
X153164138Y-89891608D01*
X153339794Y-89818849D01*
X153497879Y-89713220D01*
X153632320Y-89578779D01*
X153737949Y-89420694D01*
X153810708Y-89245038D01*
X153847800Y-89058564D01*
X153847800Y-88868436D01*
X153810708Y-88681962D01*
X153737949Y-88506306D01*
X153632320Y-88348221D01*
X153593800Y-88309701D01*
X153593800Y-87504054D01*
X153597240Y-87469126D01*
X153593800Y-87434197D01*
X153593800Y-87434190D01*
X153583509Y-87329706D01*
X153571101Y-87288801D01*
X153542842Y-87195644D01*
X153476802Y-87072093D01*
X153410198Y-86990935D01*
X153410193Y-86990930D01*
X153387927Y-86963799D01*
X153360796Y-86941533D01*
X150850600Y-84431339D01*
X150850600Y-82231628D01*
X150854040Y-82196700D01*
X150850600Y-82161771D01*
X150850600Y-82161764D01*
X150840309Y-82057280D01*
X150799642Y-81923219D01*
X150733602Y-81799667D01*
X150644727Y-81691373D01*
X150617591Y-81669103D01*
X150040225Y-81091738D01*
X150058582Y-81031223D01*
X150077704Y-80935090D01*
X150089964Y-80810609D01*
X150089964Y-80786050D01*
X150092372Y-80761600D01*
X150092372Y-80261600D01*
X150080112Y-80137118D01*
X150072371Y-80111600D01*
X150080112Y-80086082D01*
X150092372Y-79961600D01*
X150092372Y-79461600D01*
X150089964Y-79437150D01*
X150089964Y-79412591D01*
X150077704Y-79288110D01*
X150058582Y-79191977D01*
X150040225Y-79131462D01*
X150279288Y-78892400D01*
X157940374Y-78892400D01*
X157975300Y-78895840D01*
X158010226Y-78892400D01*
X158010236Y-78892400D01*
X158114720Y-78882109D01*
X158248781Y-78841442D01*
X158372333Y-78775402D01*
X158480627Y-78686527D01*
X158502902Y-78659385D01*
X159969354Y-77192934D01*
X160097189Y-77231713D01*
X160315350Y-77253200D01*
X160461250Y-77253200D01*
X160679411Y-77231713D01*
X160959334Y-77146799D01*
X161217314Y-77008906D01*
X161443434Y-76823334D01*
X161629006Y-76597214D01*
X161658300Y-76542409D01*
X161687594Y-76597214D01*
X161873166Y-76823334D01*
X162099286Y-77008906D01*
X162357266Y-77146799D01*
X162637189Y-77231713D01*
X162855350Y-77253200D01*
X163001250Y-77253200D01*
X163219411Y-77231713D01*
X163499334Y-77146799D01*
X163757314Y-77008906D01*
X163983434Y-76823334D01*
X164169006Y-76597214D01*
X164198300Y-76542409D01*
X164227594Y-76597214D01*
X164413166Y-76823334D01*
X164639286Y-77008906D01*
X164897266Y-77146799D01*
X165177189Y-77231713D01*
X165395350Y-77253200D01*
X165456129Y-77253200D01*
X165362457Y-77292000D01*
X165204372Y-77397629D01*
X165069931Y-77532070D01*
X164964302Y-77690155D01*
X164891543Y-77865811D01*
X164854451Y-78052285D01*
X164854451Y-78242413D01*
X164891543Y-78428887D01*
X164964302Y-78604543D01*
X165069931Y-78762628D01*
X165204372Y-78897069D01*
X165362457Y-79002698D01*
X165456873Y-79041806D01*
X166225247Y-79810181D01*
X166253083Y-79844099D01*
X166279903Y-79866110D01*
X166275488Y-79910940D01*
X166275488Y-80545940D01*
X166287748Y-80670422D01*
X166324058Y-80790120D01*
X166337184Y-80814677D01*
X166334446Y-80815811D01*
X166176361Y-80921440D01*
X166041920Y-81055881D01*
X165936291Y-81213966D01*
X165863532Y-81389622D01*
X165826440Y-81576096D01*
X165826440Y-81766224D01*
X165863532Y-81952698D01*
X165936291Y-82128354D01*
X166041920Y-82286439D01*
X166176361Y-82420880D01*
X166322614Y-82518603D01*
X166202366Y-82568411D01*
X166044281Y-82674040D01*
X165909840Y-82808481D01*
X165804211Y-82966566D01*
X165731452Y-83142222D01*
X165694360Y-83328696D01*
X165694360Y-83518824D01*
X165731452Y-83705298D01*
X165804211Y-83880954D01*
X165909840Y-84039039D01*
X166044281Y-84173480D01*
X166202366Y-84279109D01*
X166234722Y-84292511D01*
X166234721Y-85309056D01*
X166219613Y-85358861D01*
X166211292Y-85443341D01*
X166205881Y-85498281D01*
X166209322Y-85533216D01*
X166209321Y-86613640D01*
X166158760Y-86664201D01*
X166053131Y-86822286D01*
X165980372Y-86997942D01*
X165943280Y-87184416D01*
X165943280Y-87374544D01*
X165980372Y-87561018D01*
X166053131Y-87736674D01*
X166158760Y-87894759D01*
X166293201Y-88029200D01*
X166451286Y-88134829D01*
X166626942Y-88207588D01*
X166813416Y-88244680D01*
X167003544Y-88244680D01*
X167190018Y-88207588D01*
X167365674Y-88134829D01*
X167523759Y-88029200D01*
X167585575Y-87967384D01*
X167651616Y-87980520D01*
X167841744Y-87980520D01*
X168028218Y-87943428D01*
X168203874Y-87870669D01*
X168361959Y-87765040D01*
X168496400Y-87630599D01*
X168602029Y-87472514D01*
X168660626Y-87331049D01*
X168784456Y-87355680D01*
X168974584Y-87355680D01*
X169161058Y-87318588D01*
X169336714Y-87245829D01*
X169494799Y-87140200D01*
X169629240Y-87005759D01*
X169714499Y-86878160D01*
X169761984Y-86878160D01*
X169948458Y-86841068D01*
X170124114Y-86768309D01*
X170282199Y-86662680D01*
X170416640Y-86528239D01*
X170522269Y-86370154D01*
X170595028Y-86194498D01*
X170632120Y-86008024D01*
X170632120Y-85817896D01*
X170595028Y-85631422D01*
X170522269Y-85455766D01*
X170416640Y-85297681D01*
X170282199Y-85163240D01*
X170124114Y-85057611D01*
X169948458Y-84984852D01*
X169761984Y-84947760D01*
X169707508Y-84947760D01*
X169568519Y-84808772D01*
X169568519Y-82156327D01*
X169571959Y-82121399D01*
X169571171Y-82113396D01*
X169614588Y-82008578D01*
X169615777Y-82002599D01*
X169773594Y-81937229D01*
X169931679Y-81831600D01*
X170066120Y-81697159D01*
X170171749Y-81539074D01*
X170244508Y-81363418D01*
X170281600Y-81176944D01*
X170281600Y-80986816D01*
X170244508Y-80800342D01*
X170171749Y-80624686D01*
X170066120Y-80466601D01*
X169931679Y-80332160D01*
X169773594Y-80226531D01*
X169597938Y-80153772D01*
X169411464Y-80116680D01*
X169356988Y-80116680D01*
X168990561Y-79750254D01*
X168968287Y-79723113D01*
X168859993Y-79634238D01*
X168813792Y-79609543D01*
X168821632Y-79529940D01*
X168821632Y-78894940D01*
X168809372Y-78770458D01*
X168802088Y-78746444D01*
X168856527Y-78701767D01*
X168878801Y-78674626D01*
X169265548Y-78287880D01*
X169320024Y-78287880D01*
X169506498Y-78250788D01*
X169682154Y-78178029D01*
X169840239Y-78072400D01*
X169974680Y-77937959D01*
X170080309Y-77779874D01*
X170153068Y-77604218D01*
X170190160Y-77417744D01*
X170190160Y-77227616D01*
X170186723Y-77210337D01*
X170257189Y-77231713D01*
X170475350Y-77253200D01*
X170621250Y-77253200D01*
X170839411Y-77231713D01*
X171119334Y-77146799D01*
X171377314Y-77008906D01*
X171603434Y-76823334D01*
X171789006Y-76597214D01*
X171818300Y-76542409D01*
X171847594Y-76597214D01*
X172033166Y-76823334D01*
X172259286Y-77008906D01*
X172517266Y-77146799D01*
X172797189Y-77231713D01*
X173015350Y-77253200D01*
X173161250Y-77253200D01*
X173379411Y-77231713D01*
X173659334Y-77146799D01*
X173917314Y-77008906D01*
X174143434Y-76823334D01*
X174329006Y-76597214D01*
X174466899Y-76339234D01*
X174551813Y-76059311D01*
X174580485Y-75768200D01*
X174551813Y-75477089D01*
X174466899Y-75197166D01*
X174446071Y-75158200D01*
X176687507Y-75158200D01*
X176348466Y-75225639D01*
X176005418Y-75367734D01*
X175696682Y-75574025D01*
X175434125Y-75836582D01*
X175227834Y-76145318D01*
X175085739Y-76488366D01*
X175013300Y-76852544D01*
X175013300Y-77223856D01*
X175085739Y-77588034D01*
X175227834Y-77931082D01*
X175285191Y-78016923D01*
X175115622Y-78050652D01*
X174939966Y-78123411D01*
X174781881Y-78229040D01*
X174647440Y-78363481D01*
X174541811Y-78521566D01*
X174469052Y-78697222D01*
X174431960Y-78883696D01*
X174431960Y-79073824D01*
X174442854Y-79128592D01*
X174385479Y-79104827D01*
X174265783Y-79068518D01*
X174169650Y-79049396D01*
X174045169Y-79037136D01*
X174020610Y-79037136D01*
X173996160Y-79034728D01*
X173496160Y-79034728D01*
X173471710Y-79037136D01*
X173447151Y-79037136D01*
X173322670Y-79049396D01*
X173226537Y-79068518D01*
X173106841Y-79104827D01*
X173016285Y-79142336D01*
X172905968Y-79201302D01*
X172824469Y-79255758D01*
X172727778Y-79335110D01*
X172658470Y-79404418D01*
X172611542Y-79461600D01*
X172515925Y-79461600D01*
X172480999Y-79458160D01*
X172446073Y-79461600D01*
X172446064Y-79461600D01*
X172341580Y-79471891D01*
X172330661Y-79475203D01*
X172312144Y-79471520D01*
X172122016Y-79471520D01*
X171935542Y-79508612D01*
X171759886Y-79581371D01*
X171601801Y-79687000D01*
X171467360Y-79821441D01*
X171361731Y-79979526D01*
X171288972Y-80155182D01*
X171251880Y-80341656D01*
X171251880Y-80531784D01*
X171288972Y-80718258D01*
X171361731Y-80893914D01*
X171467360Y-81051999D01*
X171601801Y-81186440D01*
X171759886Y-81292069D01*
X171935542Y-81364828D01*
X172122016Y-81401920D01*
X172312144Y-81401920D01*
X172358088Y-81392781D01*
X172358088Y-81472800D01*
X172360496Y-81497250D01*
X172360496Y-81521809D01*
X172372756Y-81646290D01*
X172391878Y-81742423D01*
X172428187Y-81862119D01*
X172465696Y-81952675D01*
X172524662Y-82062992D01*
X172579118Y-82144491D01*
X172658470Y-82241182D01*
X172727778Y-82310490D01*
X172824469Y-82389842D01*
X172905968Y-82444298D01*
X173016285Y-82503264D01*
X173106841Y-82540773D01*
X173226537Y-82577082D01*
X173322670Y-82596204D01*
X173447151Y-82608464D01*
X173471710Y-82608464D01*
X173496160Y-82610872D01*
X173534233Y-82610872D01*
X173572841Y-82649480D01*
X173730926Y-82755109D01*
X173906582Y-82827868D01*
X174093056Y-82864960D01*
X174283184Y-82864960D01*
X174469658Y-82827868D01*
X174645314Y-82755109D01*
X174803399Y-82649480D01*
X174845980Y-82606899D01*
X174878401Y-82639320D01*
X175036486Y-82744949D01*
X175212142Y-82817708D01*
X175398616Y-82854800D01*
X175588744Y-82854800D01*
X175775218Y-82817708D01*
X175950874Y-82744949D01*
X176108959Y-82639320D01*
X176137407Y-82610872D01*
X176145000Y-82610872D01*
X176169450Y-82608464D01*
X176194009Y-82608464D01*
X176318490Y-82596204D01*
X176414623Y-82577082D01*
X176534319Y-82540773D01*
X176624875Y-82503264D01*
X176735192Y-82444298D01*
X176816691Y-82389842D01*
X176913382Y-82310490D01*
X176982690Y-82241182D01*
X177062042Y-82144491D01*
X177116498Y-82062992D01*
X177175464Y-81952675D01*
X177212973Y-81862119D01*
X177249282Y-81742423D01*
X177268404Y-81646290D01*
X177280664Y-81521809D01*
X177280664Y-81497250D01*
X177283072Y-81472800D01*
X177283072Y-80972800D01*
X177270812Y-80848318D01*
X177263071Y-80822800D01*
X177270812Y-80797282D01*
X177283072Y-80672800D01*
X177283072Y-80172800D01*
X177280664Y-80148350D01*
X177280664Y-80123791D01*
X177268404Y-79999310D01*
X177249282Y-79903177D01*
X177212973Y-79783481D01*
X177175464Y-79692925D01*
X177116498Y-79582608D01*
X177062042Y-79501109D01*
X176982690Y-79404418D01*
X176913382Y-79335110D01*
X176816691Y-79255758D01*
X176735192Y-79201302D01*
X176624875Y-79142336D01*
X176534319Y-79104827D01*
X176496586Y-79093381D01*
X176489202Y-79079567D01*
X176400327Y-78971273D01*
X176373190Y-78949002D01*
X176362360Y-78938172D01*
X176362360Y-78883696D01*
X176356111Y-78852282D01*
X176712644Y-78923200D01*
X177083956Y-78923200D01*
X177448134Y-78850761D01*
X177791182Y-78708666D01*
X178099918Y-78502375D01*
X178362475Y-78239818D01*
X178568766Y-77931082D01*
X178710861Y-77588034D01*
X178778301Y-77248988D01*
X178778300Y-94607407D01*
X178710861Y-94268366D01*
X178568766Y-93925318D01*
X178362475Y-93616582D01*
X178099918Y-93354025D01*
X177791182Y-93147734D01*
X177448134Y-93005639D01*
X177083956Y-92933200D01*
X176712644Y-92933200D01*
X176348466Y-93005639D01*
X176005418Y-93147734D01*
X175696682Y-93354025D01*
X175434125Y-93616582D01*
X175227834Y-93925318D01*
X175085739Y-94268366D01*
X175013300Y-94632544D01*
X175013300Y-95003856D01*
X175085739Y-95368034D01*
X175227834Y-95711082D01*
X175434125Y-96019818D01*
X175696682Y-96282375D01*
X176005418Y-96488666D01*
X176348466Y-96630761D01*
X176687507Y-96698200D01*
X174439996Y-96698200D01*
X174529781Y-96445091D01*
X174409114Y-96215200D01*
X173215300Y-96215200D01*
X173215300Y-96235200D01*
X172961300Y-96235200D01*
X172961300Y-96215200D01*
X172941300Y-96215200D01*
X172941300Y-95961200D01*
X172961300Y-95961200D01*
X172961300Y-94768045D01*
X173215300Y-94768045D01*
X173215300Y-95961200D01*
X174409114Y-95961200D01*
X174529781Y-95731309D01*
X174432457Y-95456948D01*
X174283478Y-95206845D01*
X174088569Y-94990612D01*
X173855220Y-94816559D01*
X173592399Y-94691375D01*
X173445190Y-94646724D01*
X173215300Y-94768045D01*
X172961300Y-94768045D01*
X172731410Y-94646724D01*
X172584201Y-94691375D01*
X172321380Y-94816559D01*
X172088031Y-94990612D01*
X171893122Y-95206845D01*
X171823501Y-95323723D01*
X171789006Y-95259186D01*
X171603434Y-95033066D01*
X171377314Y-94847494D01*
X171119334Y-94709601D01*
X170839411Y-94624687D01*
X170621250Y-94603200D01*
X170557008Y-94603200D01*
X170411025Y-94457217D01*
X170429382Y-94396703D01*
X170448504Y-94300570D01*
X170460764Y-94176089D01*
X170460764Y-94151530D01*
X170463172Y-94127080D01*
X170463172Y-93627080D01*
X170450912Y-93502598D01*
X170443171Y-93477080D01*
X170450912Y-93451562D01*
X170463172Y-93327080D01*
X170463172Y-92827080D01*
X170460764Y-92802630D01*
X170460764Y-92778071D01*
X170448504Y-92653590D01*
X170429382Y-92557457D01*
X170393073Y-92437761D01*
X170355564Y-92347205D01*
X170296598Y-92236888D01*
X170242142Y-92155389D01*
X170162790Y-92058698D01*
X170093482Y-91989390D01*
X169996791Y-91910038D01*
X169915292Y-91855582D01*
X169804975Y-91796616D01*
X169714419Y-91759107D01*
X169594723Y-91722798D01*
X169498590Y-91703676D01*
X169374109Y-91691416D01*
X169349550Y-91691416D01*
X169325100Y-91689008D01*
X168825100Y-91689008D01*
X168800650Y-91691416D01*
X168776091Y-91691416D01*
X168651610Y-91703676D01*
X168555477Y-91722798D01*
X168435781Y-91759107D01*
X168345225Y-91796616D01*
X168234908Y-91855582D01*
X168153409Y-91910038D01*
X168056718Y-91989390D01*
X167987410Y-92058698D01*
X167967205Y-92083319D01*
X167942830Y-92053618D01*
X167873522Y-91984310D01*
X167776831Y-91904958D01*
X167695332Y-91850502D01*
X167585015Y-91791536D01*
X167494459Y-91754027D01*
X167374763Y-91717718D01*
X167278630Y-91698596D01*
X167154149Y-91686336D01*
X167129590Y-91686336D01*
X167105140Y-91683928D01*
X166605140Y-91683928D01*
X166580690Y-91686336D01*
X166556131Y-91686336D01*
X166431650Y-91698596D01*
X166335517Y-91717718D01*
X166215821Y-91754027D01*
X166125265Y-91791536D01*
X166014948Y-91850502D01*
X165933449Y-91904958D01*
X165836758Y-91984310D01*
X165767450Y-92053618D01*
X165688098Y-92150309D01*
X165633642Y-92231808D01*
X165574676Y-92342125D01*
X165537167Y-92432681D01*
X165500858Y-92552377D01*
X165481736Y-92648510D01*
X165469476Y-92772991D01*
X165469476Y-92797550D01*
X165467068Y-92822000D01*
X165467068Y-93322000D01*
X165479328Y-93446482D01*
X165487069Y-93472000D01*
X165479328Y-93497518D01*
X165467068Y-93622000D01*
X165467068Y-94122000D01*
X165469476Y-94146450D01*
X165469476Y-94171009D01*
X165481736Y-94295490D01*
X165500858Y-94391623D01*
X165537167Y-94511319D01*
X165574676Y-94601875D01*
X165577281Y-94606749D01*
X165541250Y-94603200D01*
X165395350Y-94603200D01*
X165177189Y-94624687D01*
X164897266Y-94709601D01*
X164639286Y-94847494D01*
X164413166Y-95033066D01*
X164227594Y-95259186D01*
X164198300Y-95313991D01*
X164169006Y-95259186D01*
X163983434Y-95033066D01*
X163757314Y-94847494D01*
X163499334Y-94709601D01*
X163219411Y-94624687D01*
X163001250Y-94603200D01*
X162855350Y-94603200D01*
X162637189Y-94624687D01*
X162357266Y-94709601D01*
X162099286Y-94847494D01*
X161873166Y-95033066D01*
X161687594Y-95259186D01*
X161658300Y-95313991D01*
X161629006Y-95259186D01*
X161443434Y-95033066D01*
X161217314Y-94847494D01*
X160959334Y-94709601D01*
X160679411Y-94624687D01*
X160461250Y-94603200D01*
X160315350Y-94603200D01*
X160097189Y-94624687D01*
X159817266Y-94709601D01*
X159559286Y-94847494D01*
X159333166Y-95033066D01*
X159147594Y-95259186D01*
X159118300Y-95313991D01*
X159089006Y-95259186D01*
X158903434Y-95033066D01*
X158677314Y-94847494D01*
X158419334Y-94709601D01*
X158139411Y-94624687D01*
X157921250Y-94603200D01*
X157775350Y-94603200D01*
X157557189Y-94624687D01*
X157277266Y-94709601D01*
X157019286Y-94847494D01*
X156793166Y-95033066D01*
X156607594Y-95259186D01*
X156578300Y-95313991D01*
X156549006Y-95259186D01*
X156363434Y-95033066D01*
X156137314Y-94847494D01*
X155879334Y-94709601D01*
X155599411Y-94624687D01*
X155381250Y-94603200D01*
X155235350Y-94603200D01*
X155017189Y-94624687D01*
X154737266Y-94709601D01*
X154479286Y-94847494D01*
X154253166Y-95033066D01*
X154067594Y-95259186D01*
X154038300Y-95313991D01*
X154009006Y-95259186D01*
X153823434Y-95033066D01*
X153597314Y-94847494D01*
X153339334Y-94709601D01*
X153059411Y-94624687D01*
X152841250Y-94603200D01*
X152695350Y-94603200D01*
X152477189Y-94624687D01*
X152197266Y-94709601D01*
X151939286Y-94847494D01*
X151713166Y-95033066D01*
X151527594Y-95259186D01*
X151498300Y-95313991D01*
X151469006Y-95259186D01*
X151283434Y-95033066D01*
X151057314Y-94847494D01*
X150799334Y-94709601D01*
X150519411Y-94624687D01*
X150301250Y-94603200D01*
X150155350Y-94603200D01*
X149937189Y-94624687D01*
X149657266Y-94709601D01*
X149399286Y-94847494D01*
X149173166Y-95033066D01*
X148987594Y-95259186D01*
X148958300Y-95313991D01*
X148929006Y-95259186D01*
X148743434Y-95033066D01*
X148517314Y-94847494D01*
X148259334Y-94709601D01*
X147979411Y-94624687D01*
X147761250Y-94603200D01*
X147615350Y-94603200D01*
X147397189Y-94624687D01*
X147117266Y-94709601D01*
X146859286Y-94847494D01*
X146633166Y-95033066D01*
X146447594Y-95259186D01*
X146418300Y-95313991D01*
X146389006Y-95259186D01*
X146203434Y-95033066D01*
X145977314Y-94847494D01*
X145719334Y-94709601D01*
X145439411Y-94624687D01*
X145221250Y-94603200D01*
X145075350Y-94603200D01*
X144857189Y-94624687D01*
X144577266Y-94709601D01*
X144319286Y-94847494D01*
X144093166Y-95033066D01*
X143907594Y-95259186D01*
X143873099Y-95323723D01*
X143803478Y-95206845D01*
X143608569Y-94990612D01*
X143375220Y-94816559D01*
X143112399Y-94691375D01*
X142965190Y-94646724D01*
X142735300Y-94768045D01*
X142735300Y-95961200D01*
X142755300Y-95961200D01*
X142755300Y-96215200D01*
X142735300Y-96215200D01*
X142735300Y-96235200D01*
X142481300Y-96235200D01*
X142481300Y-96215200D01*
X142461300Y-96215200D01*
X142461300Y-95961200D01*
X142481300Y-95961200D01*
X142481300Y-94768045D01*
X142251410Y-94646724D01*
X142104201Y-94691375D01*
X141841380Y-94816559D01*
X141608031Y-94990612D01*
X141413122Y-95206845D01*
X141343501Y-95323723D01*
X141309006Y-95259186D01*
X141123434Y-95033066D01*
X140897314Y-94847494D01*
X140639334Y-94709601D01*
X140359411Y-94624687D01*
X140141250Y-94603200D01*
X139995350Y-94603200D01*
X139777189Y-94624687D01*
X139497266Y-94709601D01*
X139239286Y-94847494D01*
X139013166Y-95033066D01*
X138827594Y-95259186D01*
X138798300Y-95313991D01*
X138769006Y-95259186D01*
X138583434Y-95033066D01*
X138357314Y-94847494D01*
X138099334Y-94709601D01*
X137819411Y-94624687D01*
X137601250Y-94603200D01*
X137455350Y-94603200D01*
X137237189Y-94624687D01*
X136957266Y-94709601D01*
X136699286Y-94847494D01*
X136473166Y-95033066D01*
X136448693Y-95062887D01*
X136427802Y-94994020D01*
X136368837Y-94883706D01*
X136289485Y-94787015D01*
X136192794Y-94707663D01*
X136082480Y-94648698D01*
X135962782Y-94612388D01*
X135838300Y-94600128D01*
X134138300Y-94600128D01*
X134013818Y-94612388D01*
X133894120Y-94648698D01*
X133783806Y-94707663D01*
X133713300Y-94765526D01*
X133713300Y-94568524D01*
X133615882Y-94078768D01*
X133424788Y-93617427D01*
X133327617Y-93472000D01*
X134239000Y-93472000D01*
X134263776Y-93469560D01*
X134287601Y-93462333D01*
X134309557Y-93450597D01*
X134328803Y-93434803D01*
X134344597Y-93415557D01*
X134356333Y-93393601D01*
X134363560Y-93369776D01*
X134366000Y-93345000D01*
X134366000Y-85566436D01*
X136410700Y-85566436D01*
X136410700Y-85756564D01*
X136447792Y-85943038D01*
X136520551Y-86118694D01*
X136626180Y-86276779D01*
X136709401Y-86360000D01*
X136638880Y-86430521D01*
X136533251Y-86588606D01*
X136460492Y-86764262D01*
X136423400Y-86950736D01*
X136423400Y-87140864D01*
X136460492Y-87327338D01*
X136533251Y-87502994D01*
X136638880Y-87661079D01*
X136773321Y-87795520D01*
X136931406Y-87901149D01*
X137107062Y-87973908D01*
X137293536Y-88011000D01*
X137483664Y-88011000D01*
X137670138Y-87973908D01*
X137845794Y-87901149D01*
X138003879Y-87795520D01*
X138042399Y-87757000D01*
X138106401Y-87757000D01*
X138157621Y-87808220D01*
X138315706Y-87913849D01*
X138491362Y-87986608D01*
X138677836Y-88023700D01*
X138867964Y-88023700D01*
X139054438Y-87986608D01*
X139230094Y-87913849D01*
X139388179Y-87808220D01*
X139522620Y-87673779D01*
X139628249Y-87515694D01*
X139701008Y-87340038D01*
X139738100Y-87153564D01*
X139738100Y-87128536D01*
X141224000Y-87128536D01*
X141224000Y-87318664D01*
X141261092Y-87505138D01*
X141333851Y-87680794D01*
X141439480Y-87838879D01*
X141573921Y-87973320D01*
X141732006Y-88078949D01*
X141907662Y-88151708D01*
X142094136Y-88188800D01*
X142284264Y-88188800D01*
X142470738Y-88151708D01*
X142565153Y-88112600D01*
X142612513Y-88112600D01*
X142656173Y-88116900D01*
X142699833Y-88112600D01*
X142699840Y-88112600D01*
X142779043Y-88104799D01*
X144449559Y-88104799D01*
X144512987Y-88156853D01*
X144513775Y-88157274D01*
X144520321Y-88163820D01*
X144678406Y-88269449D01*
X144854062Y-88342208D01*
X145040536Y-88379300D01*
X145230664Y-88379300D01*
X145417138Y-88342208D01*
X145592794Y-88269449D01*
X145750879Y-88163820D01*
X145885320Y-88029379D01*
X145990949Y-87871294D01*
X146063708Y-87695638D01*
X146100800Y-87509164D01*
X146100800Y-87319036D01*
X146063708Y-87132562D01*
X145990949Y-86956906D01*
X145885320Y-86798821D01*
X145859452Y-86772953D01*
X145914749Y-86690194D01*
X145987508Y-86514538D01*
X146024600Y-86328064D01*
X146024600Y-86137936D01*
X145987508Y-85951462D01*
X145918918Y-85785870D01*
X145974808Y-85650938D01*
X146011900Y-85464464D01*
X146011900Y-85274336D01*
X145974808Y-85087862D01*
X145902049Y-84912206D01*
X145796420Y-84754121D01*
X145661979Y-84619680D01*
X145503894Y-84514051D01*
X145328238Y-84441292D01*
X145141764Y-84404200D01*
X144951636Y-84404200D01*
X144765162Y-84441292D01*
X144589506Y-84514051D01*
X144431421Y-84619680D01*
X144392901Y-84658200D01*
X142881099Y-84658200D01*
X142829879Y-84606980D01*
X142671794Y-84501351D01*
X142496138Y-84428592D01*
X142309664Y-84391500D01*
X142119536Y-84391500D01*
X141933062Y-84428592D01*
X141757406Y-84501351D01*
X141599321Y-84606980D01*
X141464880Y-84741421D01*
X141359251Y-84899506D01*
X141286492Y-85075162D01*
X141249400Y-85261636D01*
X141249400Y-85451764D01*
X141286492Y-85638238D01*
X141354394Y-85802168D01*
X141346551Y-85813906D01*
X141273792Y-85989562D01*
X141236700Y-86176036D01*
X141236700Y-86366164D01*
X141273792Y-86552638D01*
X141346551Y-86728294D01*
X141352934Y-86737847D01*
X141333851Y-86766406D01*
X141261092Y-86942062D01*
X141224000Y-87128536D01*
X139738100Y-87128536D01*
X139738100Y-86963436D01*
X139701008Y-86776962D01*
X139628249Y-86601306D01*
X139615459Y-86582164D01*
X139679049Y-86486994D01*
X139751808Y-86311338D01*
X139788900Y-86124864D01*
X139788900Y-85934736D01*
X139751808Y-85748262D01*
X139679049Y-85572606D01*
X139573420Y-85414521D01*
X139438979Y-85280080D01*
X139280894Y-85174451D01*
X139105238Y-85101692D01*
X138918764Y-85064600D01*
X138728636Y-85064600D01*
X138542162Y-85101692D01*
X138366506Y-85174451D01*
X138250883Y-85251708D01*
X138231249Y-85204306D01*
X138125620Y-85046221D01*
X137991179Y-84911780D01*
X137833094Y-84806151D01*
X137657438Y-84733392D01*
X137470964Y-84696300D01*
X137280836Y-84696300D01*
X137094362Y-84733392D01*
X136918706Y-84806151D01*
X136760621Y-84911780D01*
X136626180Y-85046221D01*
X136520551Y-85204306D01*
X136447792Y-85379962D01*
X136410700Y-85566436D01*
X134366000Y-85566436D01*
X134366000Y-83185000D01*
X134363560Y-83160224D01*
X134356333Y-83136399D01*
X134344597Y-83114443D01*
X134328803Y-83095197D01*
X134309557Y-83079403D01*
X134287601Y-83067667D01*
X134263776Y-83060440D01*
X134239000Y-83058000D01*
X129298300Y-83058000D01*
X129298300Y-78743231D01*
X129562332Y-79007263D01*
X129977527Y-79284688D01*
X130438868Y-79475782D01*
X130928624Y-79573200D01*
X131427976Y-79573200D01*
X131917732Y-79475782D01*
X132379073Y-79284688D01*
X132794268Y-79007263D01*
X133147363Y-78654168D01*
X133424788Y-78238973D01*
X133615882Y-77777632D01*
X133713300Y-77287876D01*
X133713300Y-76788524D01*
X133615882Y-76298768D01*
X133424788Y-75837427D01*
X133147363Y-75422232D01*
X132883331Y-75158200D01*
X137408053Y-75158200D01*
X137374376Y-75221205D01*
X137374376Y-75221205D01*
G37*
X137374376Y-75221205D02*
X137366641Y-75239880D01*
X135799611Y-75239880D01*
X135764685Y-75236440D01*
X135729759Y-75239880D01*
X135729750Y-75239880D01*
X135625266Y-75250171D01*
X135491205Y-75290838D01*
X135367653Y-75356878D01*
X135259359Y-75445753D01*
X135237084Y-75472895D01*
X134977339Y-75732640D01*
X134956736Y-75732640D01*
X134770262Y-75769732D01*
X134594606Y-75842491D01*
X134436521Y-75948120D01*
X134302080Y-76082561D01*
X134196451Y-76240646D01*
X134123692Y-76416302D01*
X134086600Y-76602776D01*
X134086600Y-76792904D01*
X134123692Y-76979378D01*
X134196451Y-77155034D01*
X134302080Y-77313119D01*
X134376161Y-77387200D01*
X134376160Y-78909161D01*
X134337640Y-78947681D01*
X134232011Y-79105766D01*
X134159252Y-79281422D01*
X134122160Y-79467896D01*
X134122160Y-79658024D01*
X134159252Y-79844498D01*
X134232011Y-80020154D01*
X134337640Y-80178239D01*
X134472081Y-80312680D01*
X134630166Y-80418309D01*
X134805822Y-80491068D01*
X134992296Y-80528160D01*
X135182424Y-80528160D01*
X135368898Y-80491068D01*
X135537556Y-80421208D01*
X135669422Y-80475828D01*
X135855896Y-80512920D01*
X136046024Y-80512920D01*
X136232498Y-80475828D01*
X136408154Y-80403069D01*
X136566239Y-80297440D01*
X136700680Y-80162999D01*
X136765850Y-80065465D01*
X136775452Y-80113738D01*
X136848211Y-80289394D01*
X136953840Y-80447479D01*
X137088281Y-80581920D01*
X137246366Y-80687549D01*
X137268242Y-80696610D01*
X137269176Y-80706090D01*
X137269176Y-80730649D01*
X137281436Y-80855130D01*
X137300558Y-80951263D01*
X137336867Y-81070959D01*
X137374376Y-81161515D01*
X137433342Y-81271832D01*
X137487798Y-81353331D01*
X137567150Y-81450022D01*
X137636458Y-81519330D01*
X137733149Y-81598682D01*
X137814648Y-81653138D01*
X137924965Y-81712104D01*
X138015521Y-81749613D01*
X138135217Y-81785922D01*
X138231350Y-81805044D01*
X138355831Y-81817304D01*
X138380390Y-81817304D01*
X138404840Y-81819712D01*
X138904840Y-81819712D01*
X139029322Y-81807452D01*
X139054840Y-81799711D01*
X139080358Y-81807452D01*
X139204840Y-81819712D01*
X139704840Y-81819712D01*
X139729290Y-81817304D01*
X139753849Y-81817304D01*
X139878330Y-81805044D01*
X139974463Y-81785922D01*
X140094159Y-81749613D01*
X140184715Y-81712104D01*
X140295032Y-81653138D01*
X140376531Y-81598682D01*
X140473222Y-81519330D01*
X140542530Y-81450022D01*
X140621882Y-81353331D01*
X140676338Y-81271832D01*
X140735304Y-81161515D01*
X140772813Y-81070959D01*
X140809122Y-80951263D01*
X140828244Y-80855130D01*
X140840504Y-80730649D01*
X140840504Y-80706090D01*
X140842912Y-80681640D01*
X140842912Y-80181640D01*
X140840504Y-80157190D01*
X140840504Y-80132631D01*
X140828244Y-80008150D01*
X140809122Y-79912017D01*
X140781865Y-79822162D01*
X142300909Y-78303120D01*
X142355384Y-78303120D01*
X142541858Y-78266028D01*
X142717514Y-78193269D01*
X142875599Y-78087640D01*
X143010040Y-77953199D01*
X143115669Y-77795114D01*
X143188428Y-77619458D01*
X143225520Y-77432984D01*
X143225520Y-77242856D01*
X143188428Y-77056382D01*
X143115669Y-76880726D01*
X143081722Y-76829920D01*
X143229144Y-76829920D01*
X143415618Y-76792828D01*
X143591274Y-76720069D01*
X143665384Y-76670550D01*
X143672488Y-76742682D01*
X143708798Y-76862380D01*
X143767763Y-76972694D01*
X143847115Y-77069385D01*
X143943806Y-77148737D01*
X144054120Y-77207702D01*
X144173818Y-77244012D01*
X144298300Y-77256272D01*
X145998300Y-77256272D01*
X146122782Y-77244012D01*
X146242480Y-77207702D01*
X146352794Y-77148737D01*
X146449485Y-77069385D01*
X146528837Y-76972694D01*
X146587802Y-76862380D01*
X146608693Y-76793513D01*
X146633166Y-76823334D01*
X146859286Y-77008906D01*
X147117266Y-77146799D01*
X147397189Y-77231713D01*
X147615350Y-77253200D01*
X147761250Y-77253200D01*
X147979411Y-77231713D01*
X148259334Y-77146799D01*
X148517314Y-77008906D01*
X148743434Y-76823334D01*
X148929006Y-76597214D01*
X148958300Y-76542409D01*
X148987594Y-76597214D01*
X149173166Y-76823334D01*
X149399286Y-77008906D01*
X149657266Y-77146799D01*
X149937189Y-77231713D01*
X150155350Y-77253200D01*
X150301250Y-77253200D01*
X150519411Y-77231713D01*
X150799334Y-77146799D01*
X151057314Y-77008906D01*
X151283434Y-76823334D01*
X151469006Y-76597214D01*
X151498300Y-76542409D01*
X151527594Y-76597214D01*
X151713166Y-76823334D01*
X151939286Y-77008906D01*
X152197266Y-77146799D01*
X152477189Y-77231713D01*
X152695350Y-77253200D01*
X152841250Y-77253200D01*
X153059411Y-77231713D01*
X153339334Y-77146799D01*
X153597314Y-77008906D01*
X153823434Y-76823334D01*
X154009006Y-76597214D01*
X154038300Y-76542409D01*
X154067594Y-76597214D01*
X154253166Y-76823334D01*
X154479286Y-77008906D01*
X154737266Y-77146799D01*
X155017189Y-77231713D01*
X155235350Y-77253200D01*
X155381250Y-77253200D01*
X155599411Y-77231713D01*
X155879334Y-77146799D01*
X156137314Y-77008906D01*
X156363434Y-76823334D01*
X156549006Y-76597214D01*
X156578300Y-76542409D01*
X156607594Y-76597214D01*
X156793166Y-76823334D01*
X157019286Y-77008906D01*
X157277266Y-77146799D01*
X157557189Y-77231713D01*
X157775350Y-77253200D01*
X157897513Y-77253200D01*
X157680713Y-77470000D01*
X150019625Y-77470000D01*
X149984699Y-77466560D01*
X149949773Y-77470000D01*
X149949764Y-77470000D01*
X149845280Y-77480291D01*
X149711219Y-77520958D01*
X149587667Y-77586998D01*
X149479373Y-77675873D01*
X149457103Y-77703009D01*
X148836585Y-78323528D01*
X148454300Y-78323528D01*
X148429850Y-78325936D01*
X148405291Y-78325936D01*
X148280810Y-78338196D01*
X148184677Y-78357318D01*
X148064981Y-78393627D01*
X147974425Y-78431136D01*
X147864108Y-78490102D01*
X147782609Y-78544558D01*
X147685918Y-78623910D01*
X147616610Y-78693218D01*
X147537258Y-78789909D01*
X147482802Y-78871408D01*
X147423836Y-78981725D01*
X147386327Y-79072281D01*
X147350018Y-79191977D01*
X147330896Y-79288110D01*
X147318636Y-79412591D01*
X147318636Y-79437150D01*
X147316228Y-79461600D01*
X147316228Y-79961600D01*
X147328488Y-80086082D01*
X147336229Y-80111600D01*
X147328488Y-80137118D01*
X147316228Y-80261600D01*
X147316228Y-80761600D01*
X147318636Y-80786050D01*
X147318636Y-80810609D01*
X147330896Y-80935090D01*
X147350018Y-81031223D01*
X147386327Y-81150919D01*
X147423836Y-81241475D01*
X147482802Y-81351792D01*
X147537258Y-81433291D01*
X147616610Y-81529982D01*
X147685918Y-81599290D01*
X147782609Y-81678642D01*
X147864108Y-81733098D01*
X147974425Y-81792064D01*
X148064981Y-81829573D01*
X148184677Y-81865882D01*
X148280810Y-81885004D01*
X148405291Y-81897264D01*
X148429850Y-81897264D01*
X148454300Y-81899672D01*
X148836585Y-81899672D01*
X149428201Y-82491289D01*
X149428200Y-84691000D01*
X149424760Y-84725926D01*
X149428200Y-84760852D01*
X149428200Y-84760861D01*
X149438491Y-84865345D01*
X149479158Y-84999406D01*
X149545198Y-85122958D01*
X149634073Y-85231252D01*
X149661210Y-85253523D01*
X152171401Y-87763716D01*
X152171400Y-88309701D01*
X152132880Y-88348221D01*
X152027251Y-88506306D01*
X151954492Y-88681962D01*
X151917400Y-88868436D01*
X151917400Y-89058564D01*
X151954492Y-89245038D01*
X152027251Y-89420694D01*
X152132880Y-89578779D01*
X152267321Y-89713220D01*
X152425406Y-89818849D01*
X152601062Y-89891608D01*
X152787536Y-89928700D01*
X152977664Y-89928700D01*
X153164138Y-89891608D01*
X153339794Y-89818849D01*
X153497879Y-89713220D01*
X153632320Y-89578779D01*
X153737949Y-89420694D01*
X153810708Y-89245038D01*
X153847800Y-89058564D01*
X153847800Y-88868436D01*
X153810708Y-88681962D01*
X153737949Y-88506306D01*
X153632320Y-88348221D01*
X153593800Y-88309701D01*
X153593800Y-87504054D01*
X153597240Y-87469126D01*
X153593800Y-87434197D01*
X153593800Y-87434190D01*
X153583509Y-87329706D01*
X153571101Y-87288801D01*
X153542842Y-87195644D01*
X153476802Y-87072093D01*
X153410198Y-86990935D01*
X153410193Y-86990930D01*
X153387927Y-86963799D01*
X153360796Y-86941533D01*
X150850600Y-84431339D01*
X150850600Y-82231628D01*
X150854040Y-82196700D01*
X150850600Y-82161771D01*
X150850600Y-82161764D01*
X150840309Y-82057280D01*
X150799642Y-81923219D01*
X150733602Y-81799667D01*
X150644727Y-81691373D01*
X150617591Y-81669103D01*
X150040225Y-81091738D01*
X150058582Y-81031223D01*
X150077704Y-80935090D01*
X150089964Y-80810609D01*
X150089964Y-80786050D01*
X150092372Y-80761600D01*
X150092372Y-80261600D01*
X150080112Y-80137118D01*
X150072371Y-80111600D01*
X150080112Y-80086082D01*
X150092372Y-79961600D01*
X150092372Y-79461600D01*
X150089964Y-79437150D01*
X150089964Y-79412591D01*
X150077704Y-79288110D01*
X150058582Y-79191977D01*
X150040225Y-79131462D01*
X150279288Y-78892400D01*
X157940374Y-78892400D01*
X157975300Y-78895840D01*
X158010226Y-78892400D01*
X158010236Y-78892400D01*
X158114720Y-78882109D01*
X158248781Y-78841442D01*
X158372333Y-78775402D01*
X158480627Y-78686527D01*
X158502902Y-78659385D01*
X159969354Y-77192934D01*
X160097189Y-77231713D01*
X160315350Y-77253200D01*
X160461250Y-77253200D01*
X160679411Y-77231713D01*
X160959334Y-77146799D01*
X161217314Y-77008906D01*
X161443434Y-76823334D01*
X161629006Y-76597214D01*
X161658300Y-76542409D01*
X161687594Y-76597214D01*
X161873166Y-76823334D01*
X162099286Y-77008906D01*
X162357266Y-77146799D01*
X162637189Y-77231713D01*
X162855350Y-77253200D01*
X163001250Y-77253200D01*
X163219411Y-77231713D01*
X163499334Y-77146799D01*
X163757314Y-77008906D01*
X163983434Y-76823334D01*
X164169006Y-76597214D01*
X164198300Y-76542409D01*
X164227594Y-76597214D01*
X164413166Y-76823334D01*
X164639286Y-77008906D01*
X164897266Y-77146799D01*
X165177189Y-77231713D01*
X165395350Y-77253200D01*
X165456129Y-77253200D01*
X165362457Y-77292000D01*
X165204372Y-77397629D01*
X165069931Y-77532070D01*
X164964302Y-77690155D01*
X164891543Y-77865811D01*
X164854451Y-78052285D01*
X164854451Y-78242413D01*
X164891543Y-78428887D01*
X164964302Y-78604543D01*
X165069931Y-78762628D01*
X165204372Y-78897069D01*
X165362457Y-79002698D01*
X165456873Y-79041806D01*
X166225247Y-79810181D01*
X166253083Y-79844099D01*
X166279903Y-79866110D01*
X166275488Y-79910940D01*
X166275488Y-80545940D01*
X166287748Y-80670422D01*
X166324058Y-80790120D01*
X166337184Y-80814677D01*
X166334446Y-80815811D01*
X166176361Y-80921440D01*
X166041920Y-81055881D01*
X165936291Y-81213966D01*
X165863532Y-81389622D01*
X165826440Y-81576096D01*
X165826440Y-81766224D01*
X165863532Y-81952698D01*
X165936291Y-82128354D01*
X166041920Y-82286439D01*
X166176361Y-82420880D01*
X166322614Y-82518603D01*
X166202366Y-82568411D01*
X166044281Y-82674040D01*
X165909840Y-82808481D01*
X165804211Y-82966566D01*
X165731452Y-83142222D01*
X165694360Y-83328696D01*
X165694360Y-83518824D01*
X165731452Y-83705298D01*
X165804211Y-83880954D01*
X165909840Y-84039039D01*
X166044281Y-84173480D01*
X166202366Y-84279109D01*
X166234722Y-84292511D01*
X166234721Y-85309056D01*
X166219613Y-85358861D01*
X166211292Y-85443341D01*
X166205881Y-85498281D01*
X166209322Y-85533216D01*
X166209321Y-86613640D01*
X166158760Y-86664201D01*
X166053131Y-86822286D01*
X165980372Y-86997942D01*
X165943280Y-87184416D01*
X165943280Y-87374544D01*
X165980372Y-87561018D01*
X166053131Y-87736674D01*
X166158760Y-87894759D01*
X166293201Y-88029200D01*
X166451286Y-88134829D01*
X166626942Y-88207588D01*
X166813416Y-88244680D01*
X167003544Y-88244680D01*
X167190018Y-88207588D01*
X167365674Y-88134829D01*
X167523759Y-88029200D01*
X167585575Y-87967384D01*
X167651616Y-87980520D01*
X167841744Y-87980520D01*
X168028218Y-87943428D01*
X168203874Y-87870669D01*
X168361959Y-87765040D01*
X168496400Y-87630599D01*
X168602029Y-87472514D01*
X168660626Y-87331049D01*
X168784456Y-87355680D01*
X168974584Y-87355680D01*
X169161058Y-87318588D01*
X169336714Y-87245829D01*
X169494799Y-87140200D01*
X169629240Y-87005759D01*
X169714499Y-86878160D01*
X169761984Y-86878160D01*
X169948458Y-86841068D01*
X170124114Y-86768309D01*
X170282199Y-86662680D01*
X170416640Y-86528239D01*
X170522269Y-86370154D01*
X170595028Y-86194498D01*
X170632120Y-86008024D01*
X170632120Y-85817896D01*
X170595028Y-85631422D01*
X170522269Y-85455766D01*
X170416640Y-85297681D01*
X170282199Y-85163240D01*
X170124114Y-85057611D01*
X169948458Y-84984852D01*
X169761984Y-84947760D01*
X169707508Y-84947760D01*
X169568519Y-84808772D01*
X169568519Y-82156327D01*
X169571959Y-82121399D01*
X169571171Y-82113396D01*
X169614588Y-82008578D01*
X169615777Y-82002599D01*
X169773594Y-81937229D01*
X169931679Y-81831600D01*
X170066120Y-81697159D01*
X170171749Y-81539074D01*
X170244508Y-81363418D01*
X170281600Y-81176944D01*
X170281600Y-80986816D01*
X170244508Y-80800342D01*
X170171749Y-80624686D01*
X170066120Y-80466601D01*
X169931679Y-80332160D01*
X169773594Y-80226531D01*
X169597938Y-80153772D01*
X169411464Y-80116680D01*
X169356988Y-80116680D01*
X168990561Y-79750254D01*
X168968287Y-79723113D01*
X168859993Y-79634238D01*
X168813792Y-79609543D01*
X168821632Y-79529940D01*
X168821632Y-78894940D01*
X168809372Y-78770458D01*
X168802088Y-78746444D01*
X168856527Y-78701767D01*
X168878801Y-78674626D01*
X169265548Y-78287880D01*
X169320024Y-78287880D01*
X169506498Y-78250788D01*
X169682154Y-78178029D01*
X169840239Y-78072400D01*
X169974680Y-77937959D01*
X170080309Y-77779874D01*
X170153068Y-77604218D01*
X170190160Y-77417744D01*
X170190160Y-77227616D01*
X170186723Y-77210337D01*
X170257189Y-77231713D01*
X170475350Y-77253200D01*
X170621250Y-77253200D01*
X170839411Y-77231713D01*
X171119334Y-77146799D01*
X171377314Y-77008906D01*
X171603434Y-76823334D01*
X171789006Y-76597214D01*
X171818300Y-76542409D01*
X171847594Y-76597214D01*
X172033166Y-76823334D01*
X172259286Y-77008906D01*
X172517266Y-77146799D01*
X172797189Y-77231713D01*
X173015350Y-77253200D01*
X173161250Y-77253200D01*
X173379411Y-77231713D01*
X173659334Y-77146799D01*
X173917314Y-77008906D01*
X174143434Y-76823334D01*
X174329006Y-76597214D01*
X174466899Y-76339234D01*
X174551813Y-76059311D01*
X174580485Y-75768200D01*
X174551813Y-75477089D01*
X174466899Y-75197166D01*
X174446071Y-75158200D01*
X176687507Y-75158200D01*
X176348466Y-75225639D01*
X176005418Y-75367734D01*
X175696682Y-75574025D01*
X175434125Y-75836582D01*
X175227834Y-76145318D01*
X175085739Y-76488366D01*
X175013300Y-76852544D01*
X175013300Y-77223856D01*
X175085739Y-77588034D01*
X175227834Y-77931082D01*
X175285191Y-78016923D01*
X175115622Y-78050652D01*
X174939966Y-78123411D01*
X174781881Y-78229040D01*
X174647440Y-78363481D01*
X174541811Y-78521566D01*
X174469052Y-78697222D01*
X174431960Y-78883696D01*
X174431960Y-79073824D01*
X174442854Y-79128592D01*
X174385479Y-79104827D01*
X174265783Y-79068518D01*
X174169650Y-79049396D01*
X174045169Y-79037136D01*
X174020610Y-79037136D01*
X173996160Y-79034728D01*
X173496160Y-79034728D01*
X173471710Y-79037136D01*
X173447151Y-79037136D01*
X173322670Y-79049396D01*
X173226537Y-79068518D01*
X173106841Y-79104827D01*
X173016285Y-79142336D01*
X172905968Y-79201302D01*
X172824469Y-79255758D01*
X172727778Y-79335110D01*
X172658470Y-79404418D01*
X172611542Y-79461600D01*
X172515925Y-79461600D01*
X172480999Y-79458160D01*
X172446073Y-79461600D01*
X172446064Y-79461600D01*
X172341580Y-79471891D01*
X172330661Y-79475203D01*
X172312144Y-79471520D01*
X172122016Y-79471520D01*
X171935542Y-79508612D01*
X171759886Y-79581371D01*
X171601801Y-79687000D01*
X171467360Y-79821441D01*
X171361731Y-79979526D01*
X171288972Y-80155182D01*
X171251880Y-80341656D01*
X171251880Y-80531784D01*
X171288972Y-80718258D01*
X171361731Y-80893914D01*
X171467360Y-81051999D01*
X171601801Y-81186440D01*
X171759886Y-81292069D01*
X171935542Y-81364828D01*
X172122016Y-81401920D01*
X172312144Y-81401920D01*
X172358088Y-81392781D01*
X172358088Y-81472800D01*
X172360496Y-81497250D01*
X172360496Y-81521809D01*
X172372756Y-81646290D01*
X172391878Y-81742423D01*
X172428187Y-81862119D01*
X172465696Y-81952675D01*
X172524662Y-82062992D01*
X172579118Y-82144491D01*
X172658470Y-82241182D01*
X172727778Y-82310490D01*
X172824469Y-82389842D01*
X172905968Y-82444298D01*
X173016285Y-82503264D01*
X173106841Y-82540773D01*
X173226537Y-82577082D01*
X173322670Y-82596204D01*
X173447151Y-82608464D01*
X173471710Y-82608464D01*
X173496160Y-82610872D01*
X173534233Y-82610872D01*
X173572841Y-82649480D01*
X173730926Y-82755109D01*
X173906582Y-82827868D01*
X174093056Y-82864960D01*
X174283184Y-82864960D01*
X174469658Y-82827868D01*
X174645314Y-82755109D01*
X174803399Y-82649480D01*
X174845980Y-82606899D01*
X174878401Y-82639320D01*
X175036486Y-82744949D01*
X175212142Y-82817708D01*
X175398616Y-82854800D01*
X175588744Y-82854800D01*
X175775218Y-82817708D01*
X175950874Y-82744949D01*
X176108959Y-82639320D01*
X176137407Y-82610872D01*
X176145000Y-82610872D01*
X176169450Y-82608464D01*
X176194009Y-82608464D01*
X176318490Y-82596204D01*
X176414623Y-82577082D01*
X176534319Y-82540773D01*
X176624875Y-82503264D01*
X176735192Y-82444298D01*
X176816691Y-82389842D01*
X176913382Y-82310490D01*
X176982690Y-82241182D01*
X177062042Y-82144491D01*
X177116498Y-82062992D01*
X177175464Y-81952675D01*
X177212973Y-81862119D01*
X177249282Y-81742423D01*
X177268404Y-81646290D01*
X177280664Y-81521809D01*
X177280664Y-81497250D01*
X177283072Y-81472800D01*
X177283072Y-80972800D01*
X177270812Y-80848318D01*
X177263071Y-80822800D01*
X177270812Y-80797282D01*
X177283072Y-80672800D01*
X177283072Y-80172800D01*
X177280664Y-80148350D01*
X177280664Y-80123791D01*
X177268404Y-79999310D01*
X177249282Y-79903177D01*
X177212973Y-79783481D01*
X177175464Y-79692925D01*
X177116498Y-79582608D01*
X177062042Y-79501109D01*
X176982690Y-79404418D01*
X176913382Y-79335110D01*
X176816691Y-79255758D01*
X176735192Y-79201302D01*
X176624875Y-79142336D01*
X176534319Y-79104827D01*
X176496586Y-79093381D01*
X176489202Y-79079567D01*
X176400327Y-78971273D01*
X176373190Y-78949002D01*
X176362360Y-78938172D01*
X176362360Y-78883696D01*
X176356111Y-78852282D01*
X176712644Y-78923200D01*
X177083956Y-78923200D01*
X177448134Y-78850761D01*
X177791182Y-78708666D01*
X178099918Y-78502375D01*
X178362475Y-78239818D01*
X178568766Y-77931082D01*
X178710861Y-77588034D01*
X178778301Y-77248988D01*
X178778300Y-94607407D01*
X178710861Y-94268366D01*
X178568766Y-93925318D01*
X178362475Y-93616582D01*
X178099918Y-93354025D01*
X177791182Y-93147734D01*
X177448134Y-93005639D01*
X177083956Y-92933200D01*
X176712644Y-92933200D01*
X176348466Y-93005639D01*
X176005418Y-93147734D01*
X175696682Y-93354025D01*
X175434125Y-93616582D01*
X175227834Y-93925318D01*
X175085739Y-94268366D01*
X175013300Y-94632544D01*
X175013300Y-95003856D01*
X175085739Y-95368034D01*
X175227834Y-95711082D01*
X175434125Y-96019818D01*
X175696682Y-96282375D01*
X176005418Y-96488666D01*
X176348466Y-96630761D01*
X176687507Y-96698200D01*
X174439996Y-96698200D01*
X174529781Y-96445091D01*
X174409114Y-96215200D01*
X173215300Y-96215200D01*
X173215300Y-96235200D01*
X172961300Y-96235200D01*
X172961300Y-96215200D01*
X172941300Y-96215200D01*
X172941300Y-95961200D01*
X172961300Y-95961200D01*
X172961300Y-94768045D01*
X173215300Y-94768045D01*
X173215300Y-95961200D01*
X174409114Y-95961200D01*
X174529781Y-95731309D01*
X174432457Y-95456948D01*
X174283478Y-95206845D01*
X174088569Y-94990612D01*
X173855220Y-94816559D01*
X173592399Y-94691375D01*
X173445190Y-94646724D01*
X173215300Y-94768045D01*
X172961300Y-94768045D01*
X172731410Y-94646724D01*
X172584201Y-94691375D01*
X172321380Y-94816559D01*
X172088031Y-94990612D01*
X171893122Y-95206845D01*
X171823501Y-95323723D01*
X171789006Y-95259186D01*
X171603434Y-95033066D01*
X171377314Y-94847494D01*
X171119334Y-94709601D01*
X170839411Y-94624687D01*
X170621250Y-94603200D01*
X170557008Y-94603200D01*
X170411025Y-94457217D01*
X170429382Y-94396703D01*
X170448504Y-94300570D01*
X170460764Y-94176089D01*
X170460764Y-94151530D01*
X170463172Y-94127080D01*
X170463172Y-93627080D01*
X170450912Y-93502598D01*
X170443171Y-93477080D01*
X170450912Y-93451562D01*
X170463172Y-93327080D01*
X170463172Y-92827080D01*
X170460764Y-92802630D01*
X170460764Y-92778071D01*
X170448504Y-92653590D01*
X170429382Y-92557457D01*
X170393073Y-92437761D01*
X170355564Y-92347205D01*
X170296598Y-92236888D01*
X170242142Y-92155389D01*
X170162790Y-92058698D01*
X170093482Y-91989390D01*
X169996791Y-91910038D01*
X169915292Y-91855582D01*
X169804975Y-91796616D01*
X169714419Y-91759107D01*
X169594723Y-91722798D01*
X169498590Y-91703676D01*
X169374109Y-91691416D01*
X169349550Y-91691416D01*
X169325100Y-91689008D01*
X168825100Y-91689008D01*
X168800650Y-91691416D01*
X168776091Y-91691416D01*
X168651610Y-91703676D01*
X168555477Y-91722798D01*
X168435781Y-91759107D01*
X168345225Y-91796616D01*
X168234908Y-91855582D01*
X168153409Y-91910038D01*
X168056718Y-91989390D01*
X167987410Y-92058698D01*
X167967205Y-92083319D01*
X167942830Y-92053618D01*
X167873522Y-91984310D01*
X167776831Y-91904958D01*
X167695332Y-91850502D01*
X167585015Y-91791536D01*
X167494459Y-91754027D01*
X167374763Y-91717718D01*
X167278630Y-91698596D01*
X167154149Y-91686336D01*
X167129590Y-91686336D01*
X167105140Y-91683928D01*
X166605140Y-91683928D01*
X166580690Y-91686336D01*
X166556131Y-91686336D01*
X166431650Y-91698596D01*
X166335517Y-91717718D01*
X166215821Y-91754027D01*
X166125265Y-91791536D01*
X166014948Y-91850502D01*
X165933449Y-91904958D01*
X165836758Y-91984310D01*
X165767450Y-92053618D01*
X165688098Y-92150309D01*
X165633642Y-92231808D01*
X165574676Y-92342125D01*
X165537167Y-92432681D01*
X165500858Y-92552377D01*
X165481736Y-92648510D01*
X165469476Y-92772991D01*
X165469476Y-92797550D01*
X165467068Y-92822000D01*
X165467068Y-93322000D01*
X165479328Y-93446482D01*
X165487069Y-93472000D01*
X165479328Y-93497518D01*
X165467068Y-93622000D01*
X165467068Y-94122000D01*
X165469476Y-94146450D01*
X165469476Y-94171009D01*
X165481736Y-94295490D01*
X165500858Y-94391623D01*
X165537167Y-94511319D01*
X165574676Y-94601875D01*
X165577281Y-94606749D01*
X165541250Y-94603200D01*
X165395350Y-94603200D01*
X165177189Y-94624687D01*
X164897266Y-94709601D01*
X164639286Y-94847494D01*
X164413166Y-95033066D01*
X164227594Y-95259186D01*
X164198300Y-95313991D01*
X164169006Y-95259186D01*
X163983434Y-95033066D01*
X163757314Y-94847494D01*
X163499334Y-94709601D01*
X163219411Y-94624687D01*
X163001250Y-94603200D01*
X162855350Y-94603200D01*
X162637189Y-94624687D01*
X162357266Y-94709601D01*
X162099286Y-94847494D01*
X161873166Y-95033066D01*
X161687594Y-95259186D01*
X161658300Y-95313991D01*
X161629006Y-95259186D01*
X161443434Y-95033066D01*
X161217314Y-94847494D01*
X160959334Y-94709601D01*
X160679411Y-94624687D01*
X160461250Y-94603200D01*
X160315350Y-94603200D01*
X160097189Y-94624687D01*
X159817266Y-94709601D01*
X159559286Y-94847494D01*
X159333166Y-95033066D01*
X159147594Y-95259186D01*
X159118300Y-95313991D01*
X159089006Y-95259186D01*
X158903434Y-95033066D01*
X158677314Y-94847494D01*
X158419334Y-94709601D01*
X158139411Y-94624687D01*
X157921250Y-94603200D01*
X157775350Y-94603200D01*
X157557189Y-94624687D01*
X157277266Y-94709601D01*
X157019286Y-94847494D01*
X156793166Y-95033066D01*
X156607594Y-95259186D01*
X156578300Y-95313991D01*
X156549006Y-95259186D01*
X156363434Y-95033066D01*
X156137314Y-94847494D01*
X155879334Y-94709601D01*
X155599411Y-94624687D01*
X155381250Y-94603200D01*
X155235350Y-94603200D01*
X155017189Y-94624687D01*
X154737266Y-94709601D01*
X154479286Y-94847494D01*
X154253166Y-95033066D01*
X154067594Y-95259186D01*
X154038300Y-95313991D01*
X154009006Y-95259186D01*
X153823434Y-95033066D01*
X153597314Y-94847494D01*
X153339334Y-94709601D01*
X153059411Y-94624687D01*
X152841250Y-94603200D01*
X152695350Y-94603200D01*
X152477189Y-94624687D01*
X152197266Y-94709601D01*
X151939286Y-94847494D01*
X151713166Y-95033066D01*
X151527594Y-95259186D01*
X151498300Y-95313991D01*
X151469006Y-95259186D01*
X151283434Y-95033066D01*
X151057314Y-94847494D01*
X150799334Y-94709601D01*
X150519411Y-94624687D01*
X150301250Y-94603200D01*
X150155350Y-94603200D01*
X149937189Y-94624687D01*
X149657266Y-94709601D01*
X149399286Y-94847494D01*
X149173166Y-95033066D01*
X148987594Y-95259186D01*
X148958300Y-95313991D01*
X148929006Y-95259186D01*
X148743434Y-95033066D01*
X148517314Y-94847494D01*
X148259334Y-94709601D01*
X147979411Y-94624687D01*
X147761250Y-94603200D01*
X147615350Y-94603200D01*
X147397189Y-94624687D01*
X147117266Y-94709601D01*
X146859286Y-94847494D01*
X146633166Y-95033066D01*
X146447594Y-95259186D01*
X146418300Y-95313991D01*
X146389006Y-95259186D01*
X146203434Y-95033066D01*
X145977314Y-94847494D01*
X145719334Y-94709601D01*
X145439411Y-94624687D01*
X145221250Y-94603200D01*
X145075350Y-94603200D01*
X144857189Y-94624687D01*
X144577266Y-94709601D01*
X144319286Y-94847494D01*
X144093166Y-95033066D01*
X143907594Y-95259186D01*
X143873099Y-95323723D01*
X143803478Y-95206845D01*
X143608569Y-94990612D01*
X143375220Y-94816559D01*
X143112399Y-94691375D01*
X142965190Y-94646724D01*
X142735300Y-94768045D01*
X142735300Y-95961200D01*
X142755300Y-95961200D01*
X142755300Y-96215200D01*
X142735300Y-96215200D01*
X142735300Y-96235200D01*
X142481300Y-96235200D01*
X142481300Y-96215200D01*
X142461300Y-96215200D01*
X142461300Y-95961200D01*
X142481300Y-95961200D01*
X142481300Y-94768045D01*
X142251410Y-94646724D01*
X142104201Y-94691375D01*
X141841380Y-94816559D01*
X141608031Y-94990612D01*
X141413122Y-95206845D01*
X141343501Y-95323723D01*
X141309006Y-95259186D01*
X141123434Y-95033066D01*
X140897314Y-94847494D01*
X140639334Y-94709601D01*
X140359411Y-94624687D01*
X140141250Y-94603200D01*
X139995350Y-94603200D01*
X139777189Y-94624687D01*
X139497266Y-94709601D01*
X139239286Y-94847494D01*
X139013166Y-95033066D01*
X138827594Y-95259186D01*
X138798300Y-95313991D01*
X138769006Y-95259186D01*
X138583434Y-95033066D01*
X138357314Y-94847494D01*
X138099334Y-94709601D01*
X137819411Y-94624687D01*
X137601250Y-94603200D01*
X137455350Y-94603200D01*
X137237189Y-94624687D01*
X136957266Y-94709601D01*
X136699286Y-94847494D01*
X136473166Y-95033066D01*
X136448693Y-95062887D01*
X136427802Y-94994020D01*
X136368837Y-94883706D01*
X136289485Y-94787015D01*
X136192794Y-94707663D01*
X136082480Y-94648698D01*
X135962782Y-94612388D01*
X135838300Y-94600128D01*
X134138300Y-94600128D01*
X134013818Y-94612388D01*
X133894120Y-94648698D01*
X133783806Y-94707663D01*
X133713300Y-94765526D01*
X133713300Y-94568524D01*
X133615882Y-94078768D01*
X133424788Y-93617427D01*
X133327617Y-93472000D01*
X134239000Y-93472000D01*
X134263776Y-93469560D01*
X134287601Y-93462333D01*
X134309557Y-93450597D01*
X134328803Y-93434803D01*
X134344597Y-93415557D01*
X134356333Y-93393601D01*
X134363560Y-93369776D01*
X134366000Y-93345000D01*
X134366000Y-85566436D01*
X136410700Y-85566436D01*
X136410700Y-85756564D01*
X136447792Y-85943038D01*
X136520551Y-86118694D01*
X136626180Y-86276779D01*
X136709401Y-86360000D01*
X136638880Y-86430521D01*
X136533251Y-86588606D01*
X136460492Y-86764262D01*
X136423400Y-86950736D01*
X136423400Y-87140864D01*
X136460492Y-87327338D01*
X136533251Y-87502994D01*
X136638880Y-87661079D01*
X136773321Y-87795520D01*
X136931406Y-87901149D01*
X137107062Y-87973908D01*
X137293536Y-88011000D01*
X137483664Y-88011000D01*
X137670138Y-87973908D01*
X137845794Y-87901149D01*
X138003879Y-87795520D01*
X138042399Y-87757000D01*
X138106401Y-87757000D01*
X138157621Y-87808220D01*
X138315706Y-87913849D01*
X138491362Y-87986608D01*
X138677836Y-88023700D01*
X138867964Y-88023700D01*
X139054438Y-87986608D01*
X139230094Y-87913849D01*
X139388179Y-87808220D01*
X139522620Y-87673779D01*
X139628249Y-87515694D01*
X139701008Y-87340038D01*
X139738100Y-87153564D01*
X139738100Y-87128536D01*
X141224000Y-87128536D01*
X141224000Y-87318664D01*
X141261092Y-87505138D01*
X141333851Y-87680794D01*
X141439480Y-87838879D01*
X141573921Y-87973320D01*
X141732006Y-88078949D01*
X141907662Y-88151708D01*
X142094136Y-88188800D01*
X142284264Y-88188800D01*
X142470738Y-88151708D01*
X142565153Y-88112600D01*
X142612513Y-88112600D01*
X142656173Y-88116900D01*
X142699833Y-88112600D01*
X142699840Y-88112600D01*
X142779043Y-88104799D01*
X144449559Y-88104799D01*
X144512987Y-88156853D01*
X144513775Y-88157274D01*
X144520321Y-88163820D01*
X144678406Y-88269449D01*
X144854062Y-88342208D01*
X145040536Y-88379300D01*
X145230664Y-88379300D01*
X145417138Y-88342208D01*
X145592794Y-88269449D01*
X145750879Y-88163820D01*
X145885320Y-88029379D01*
X145990949Y-87871294D01*
X146063708Y-87695638D01*
X146100800Y-87509164D01*
X146100800Y-87319036D01*
X146063708Y-87132562D01*
X145990949Y-86956906D01*
X145885320Y-86798821D01*
X145859452Y-86772953D01*
X145914749Y-86690194D01*
X145987508Y-86514538D01*
X146024600Y-86328064D01*
X146024600Y-86137936D01*
X145987508Y-85951462D01*
X145918918Y-85785870D01*
X145974808Y-85650938D01*
X146011900Y-85464464D01*
X146011900Y-85274336D01*
X145974808Y-85087862D01*
X145902049Y-84912206D01*
X145796420Y-84754121D01*
X145661979Y-84619680D01*
X145503894Y-84514051D01*
X145328238Y-84441292D01*
X145141764Y-84404200D01*
X144951636Y-84404200D01*
X144765162Y-84441292D01*
X144589506Y-84514051D01*
X144431421Y-84619680D01*
X144392901Y-84658200D01*
X142881099Y-84658200D01*
X142829879Y-84606980D01*
X142671794Y-84501351D01*
X142496138Y-84428592D01*
X142309664Y-84391500D01*
X142119536Y-84391500D01*
X141933062Y-84428592D01*
X141757406Y-84501351D01*
X141599321Y-84606980D01*
X141464880Y-84741421D01*
X141359251Y-84899506D01*
X141286492Y-85075162D01*
X141249400Y-85261636D01*
X141249400Y-85451764D01*
X141286492Y-85638238D01*
X141354394Y-85802168D01*
X141346551Y-85813906D01*
X141273792Y-85989562D01*
X141236700Y-86176036D01*
X141236700Y-86366164D01*
X141273792Y-86552638D01*
X141346551Y-86728294D01*
X141352934Y-86737847D01*
X141333851Y-86766406D01*
X141261092Y-86942062D01*
X141224000Y-87128536D01*
X139738100Y-87128536D01*
X139738100Y-86963436D01*
X139701008Y-86776962D01*
X139628249Y-86601306D01*
X139615459Y-86582164D01*
X139679049Y-86486994D01*
X139751808Y-86311338D01*
X139788900Y-86124864D01*
X139788900Y-85934736D01*
X139751808Y-85748262D01*
X139679049Y-85572606D01*
X139573420Y-85414521D01*
X139438979Y-85280080D01*
X139280894Y-85174451D01*
X139105238Y-85101692D01*
X138918764Y-85064600D01*
X138728636Y-85064600D01*
X138542162Y-85101692D01*
X138366506Y-85174451D01*
X138250883Y-85251708D01*
X138231249Y-85204306D01*
X138125620Y-85046221D01*
X137991179Y-84911780D01*
X137833094Y-84806151D01*
X137657438Y-84733392D01*
X137470964Y-84696300D01*
X137280836Y-84696300D01*
X137094362Y-84733392D01*
X136918706Y-84806151D01*
X136760621Y-84911780D01*
X136626180Y-85046221D01*
X136520551Y-85204306D01*
X136447792Y-85379962D01*
X136410700Y-85566436D01*
X134366000Y-85566436D01*
X134366000Y-83185000D01*
X134363560Y-83160224D01*
X134356333Y-83136399D01*
X134344597Y-83114443D01*
X134328803Y-83095197D01*
X134309557Y-83079403D01*
X134287601Y-83067667D01*
X134263776Y-83060440D01*
X134239000Y-83058000D01*
X129298300Y-83058000D01*
X129298300Y-78743231D01*
X129562332Y-79007263D01*
X129977527Y-79284688D01*
X130438868Y-79475782D01*
X130928624Y-79573200D01*
X131427976Y-79573200D01*
X131917732Y-79475782D01*
X132379073Y-79284688D01*
X132794268Y-79007263D01*
X133147363Y-78654168D01*
X133424788Y-78238973D01*
X133615882Y-77777632D01*
X133713300Y-77287876D01*
X133713300Y-76788524D01*
X133615882Y-76298768D01*
X133424788Y-75837427D01*
X133147363Y-75422232D01*
X132883331Y-75158200D01*
X137408053Y-75158200D01*
X137374376Y-75221205D01*
G36*
X137374376Y-77425925D02*
G01*
X137336867Y-77516481D01*
X137300558Y-77636177D01*
X137281436Y-77732310D01*
X137269176Y-77856791D01*
X137269176Y-77881350D01*
X137266768Y-77905800D01*
X137266768Y-78405800D01*
X137269176Y-78430250D01*
X137269176Y-78454809D01*
X137281436Y-78579290D01*
X137300558Y-78675423D01*
X137336867Y-78795119D01*
X137374376Y-78885675D01*
X137391072Y-78916912D01*
X137246366Y-78976851D01*
X137088281Y-79082480D01*
X136953840Y-79216921D01*
X136888670Y-79314455D01*
X136879068Y-79266182D01*
X136806309Y-79090526D01*
X136700680Y-78932441D01*
X136641840Y-78873601D01*
X136641840Y-77393800D01*
X137391547Y-77393800D01*
X137374376Y-77425925D01*
X137374376Y-77425925D01*
G37*
X137374376Y-77425925D02*
X137336867Y-77516481D01*
X137300558Y-77636177D01*
X137281436Y-77732310D01*
X137269176Y-77856791D01*
X137269176Y-77881350D01*
X137266768Y-77905800D01*
X137266768Y-78405800D01*
X137269176Y-78430250D01*
X137269176Y-78454809D01*
X137281436Y-78579290D01*
X137300558Y-78675423D01*
X137336867Y-78795119D01*
X137374376Y-78885675D01*
X137391072Y-78916912D01*
X137246366Y-78976851D01*
X137088281Y-79082480D01*
X136953840Y-79216921D01*
X136888670Y-79314455D01*
X136879068Y-79266182D01*
X136806309Y-79090526D01*
X136700680Y-78932441D01*
X136641840Y-78873601D01*
X136641840Y-77393800D01*
X137391547Y-77393800D01*
X137374376Y-77425925D01*
G36*
X166767594Y-76597214D02*
G01*
X166953166Y-76823334D01*
X167179286Y-77008906D01*
X167437266Y-77146799D01*
X167717189Y-77231713D01*
X167810141Y-77240868D01*
X166913560Y-77240868D01*
X166789078Y-77253128D01*
X166669380Y-77289438D01*
X166559066Y-77348403D01*
X166463848Y-77426547D01*
X166434930Y-77397629D01*
X166276845Y-77292000D01*
X166101189Y-77219241D01*
X165919599Y-77183120D01*
X166039334Y-77146799D01*
X166297314Y-77008906D01*
X166523434Y-76823334D01*
X166709006Y-76597214D01*
X166738300Y-76542409D01*
X166767594Y-76597214D01*
X166767594Y-76597214D01*
G37*
X166767594Y-76597214D02*
X166953166Y-76823334D01*
X167179286Y-77008906D01*
X167437266Y-77146799D01*
X167717189Y-77231713D01*
X167810141Y-77240868D01*
X166913560Y-77240868D01*
X166789078Y-77253128D01*
X166669380Y-77289438D01*
X166559066Y-77348403D01*
X166463848Y-77426547D01*
X166434930Y-77397629D01*
X166276845Y-77292000D01*
X166101189Y-77219241D01*
X165919599Y-77183120D01*
X166039334Y-77146799D01*
X166297314Y-77008906D01*
X166523434Y-76823334D01*
X166709006Y-76597214D01*
X166738300Y-76542409D01*
X166767594Y-76597214D01*
G36*
X133604000Y-92583000D02*
G01*
X132395967Y-92583000D01*
X132379073Y-92571712D01*
X131917732Y-92380618D01*
X131427976Y-92283200D01*
X130928624Y-92283200D01*
X130438868Y-92380618D01*
X129977527Y-92571712D01*
X129960633Y-92583000D01*
X129298300Y-92583000D01*
X129298300Y-83947000D01*
X133604000Y-83947000D01*
X133604000Y-92583000D01*
X133604000Y-92583000D01*
G37*
X133604000Y-92583000D02*
X132395967Y-92583000D01*
X132379073Y-92571712D01*
X131917732Y-92380618D01*
X131427976Y-92283200D01*
X130928624Y-92283200D01*
X130438868Y-92380618D01*
X129977527Y-92571712D01*
X129960633Y-92583000D01*
X129298300Y-92583000D01*
X129298300Y-83947000D01*
X133604000Y-83947000D01*
X133604000Y-92583000D01*
M02*
